<svg width="5550" height="1000" viewBox="0 0 5550 1000" fill="none" xmlns="http://www.w3.org/2000/svg">
<path fill-rule="evenodd" clip-rule="evenodd" d="M150 0C67.1573 0 0 67.1573 0 150V850C0 932.843 67.1572 1000 150 1000H5400C5482.84 1000 5550 932.843 5550 850V150C5550 67.1573 5482.84 0 5400 0H150ZM425 680C413.954 680 405 688.954 405 700C405 711.046 413.954 720 425 720H1050C1061.05 720 1070 711.046 1070 700C1070 688.954 1061.05 680 1050 680H425ZM2035 700C2035 688.954 2043.95 680 2055 680H2680C2691.05 680 2700 688.954 2700 700C2700 711.046 2691.05 720 2680 720H2055C2043.95 720 2035 711.046 2035 700ZM4500 680C4488.95 680 4480 688.954 4480 700C4480 711.046 4488.95 720 4500 720H5125C5136.05 720 5145 711.046 5145 700C5145 688.954 5136.05 680 5125 680H4500ZM1220 700C1220 688.954 1228.95 680 1240 680H1865C1876.05 680 1885 688.954 1885 700C1885 711.046 1876.05 720 1865 720H1240C1228.95 720 1220 711.046 1220 700ZM3685 680C3673.95 680 3665 688.954 3665 700C3665 711.046 3673.95 720 3685 720H4310C4321.05 720 4330 711.046 4330 700C4330 688.954 4321.05 680 4310 680H3685ZM2850 700C2850 688.954 2858.95 680 2870 680H3495C3506.05 680 3515 688.954 3515 700C3515 711.046 3506.05 720 3495 720H2870C2858.95 720 2850 711.046 2850 700ZM1960 745C1984.85 745 2005 724.853 2005 700C2005 675.147 1984.85 655 1960 655C1935.15 655 1915 675.147 1915 700C1915 724.853 1935.15 745 1960 745ZM375 700C375 724.853 354.853 745 330 745C305.147 745 285 724.853 285 700C285 675.147 305.147 655 330 655C354.853 655 375 675.147 375 700ZM2775 745C2799.85 745 2820 724.853 2820 700C2820 675.147 2799.85 655 2775 655C2750.15 655 2730 675.147 2730 700C2730 724.853 2750.15 745 2775 745ZM4450 700C4450 724.853 4429.85 745 4405 745C4380.15 745 4360 724.853 4360 700C4360 675.147 4380.15 655 4405 655C4429.85 655 4450 675.147 4450 700ZM5220 745C5244.85 745 5265 724.853 5265 700C5265 675.147 5244.85 655 5220 655C5195.15 655 5175 675.147 5175 700C5175 724.853 5195.15 745 5220 745ZM3635 700C3635 724.853 3614.85 745 3590 745C3565.15 745 3545 724.853 3545 700C3545 675.147 3565.15 655 3590 655C3614.85 655 3635 675.147 3635 700ZM1145 745C1169.85 745 1190 724.853 1190 700C1190 675.147 1169.85 655 1145 655C1120.15 655 1100 675.147 1100 700C1100 724.853 1120.15 745 1145 745Z" fill="#212121"/>
</svg>
