<svg width="5550" height="500" viewBox="0 0 5550 500" fill="none" xmlns="http://www.w3.org/2000/svg">
<rect width="5550" height="500" rx="125" fill="url(#paint0_linear_3370_10722)"/>
<rect x="125" y="88" width="325" height="325" rx="162.5" fill="#7666C4"/>
<path d="M706.328 255.891H662.852L662.617 234.445H700.586C706.992 234.445 712.422 233.508 716.875 231.633C721.406 229.68 724.844 226.906 727.188 223.312C729.531 219.641 730.703 215.227 730.703 210.07C730.703 204.367 729.609 199.719 727.422 196.125C725.234 192.531 721.875 189.914 717.344 188.273C712.891 186.633 707.188 185.812 700.234 185.812H671.758V333H642.344V162.375H700.234C709.609 162.375 717.969 163.273 725.312 165.07C732.734 166.867 739.023 169.68 744.18 173.508C749.414 177.258 753.359 182.023 756.016 187.805C758.75 193.586 760.117 200.461 760.117 208.43C760.117 215.461 758.438 221.906 755.078 227.766C751.719 233.547 746.758 238.273 740.195 241.945C733.633 245.617 725.469 247.805 715.703 248.508L706.328 255.891ZM705.039 333H653.594L666.836 309.68H705.039C711.68 309.68 717.227 308.586 721.68 306.398C726.133 304.133 729.453 301.047 731.641 297.141C733.906 293.156 735.039 288.508 735.039 283.195C735.039 277.648 734.062 272.844 732.109 268.781C730.156 264.641 727.07 261.477 722.852 259.289C718.633 257.023 713.125 255.891 706.328 255.891H673.281L673.516 234.445H716.523L723.203 242.531C732.578 242.844 740.273 244.914 746.289 248.742C752.383 252.57 756.914 257.531 759.883 263.625C762.852 269.719 764.336 276.281 764.336 283.312C764.336 294.172 761.953 303.273 757.188 310.617C752.5 317.961 745.742 323.547 736.914 327.375C728.086 331.125 717.461 333 705.039 333ZM847.07 335.344C837.695 335.344 829.219 333.82 821.641 330.773C814.141 327.648 807.734 323.312 802.422 317.766C797.188 312.219 793.164 305.695 790.352 298.195C787.539 290.695 786.133 282.609 786.133 273.938V269.25C786.133 259.328 787.578 250.344 790.469 242.297C793.359 234.25 797.383 227.375 802.539 221.672C807.695 215.891 813.789 211.477 820.82 208.43C827.852 205.383 835.469 203.859 843.672 203.859C852.734 203.859 860.664 205.383 867.461 208.43C874.258 211.477 879.883 215.773 884.336 221.32C888.867 226.789 892.227 233.312 894.414 240.891C896.68 248.469 897.812 256.828 897.812 265.969V278.039H799.844V257.766H869.922V255.539C869.766 250.461 868.75 245.695 866.875 241.242C865.078 236.789 862.305 233.195 858.555 230.461C854.805 227.727 849.805 226.359 843.555 226.359C838.867 226.359 834.688 227.375 831.016 229.406C827.422 231.359 824.414 234.211 821.992 237.961C819.57 241.711 817.695 246.242 816.367 251.555C815.117 256.789 814.492 262.688 814.492 269.25V273.938C814.492 279.484 815.234 284.641 816.719 289.406C818.281 294.094 820.547 298.195 823.516 301.711C826.484 305.227 830.078 308 834.297 310.031C838.516 311.984 843.32 312.961 848.711 312.961C855.508 312.961 861.562 311.594 866.875 308.859C872.188 306.125 876.797 302.258 880.703 297.258L895.586 311.672C892.852 315.656 889.297 319.484 884.922 323.156C880.547 326.75 875.195 329.68 868.867 331.945C862.617 334.211 855.352 335.344 847.07 335.344ZM948.203 230.578V381.75H919.961V206.203H945.977L948.203 230.578ZM1030.82 268.43V270.891C1030.82 280.109 1029.73 288.664 1027.54 296.555C1025.43 304.367 1022.27 311.203 1018.05 317.062C1013.91 322.844 1008.79 327.336 1002.7 330.539C996.602 333.742 989.57 335.344 981.602 335.344C973.711 335.344 966.797 333.898 960.859 331.008C955 328.039 950.039 323.859 945.977 318.469C941.914 313.078 938.633 306.75 936.133 299.484C933.711 292.141 931.992 284.094 930.977 275.344V265.852C931.992 256.555 933.711 248.117 936.133 240.539C938.633 232.961 941.914 226.438 945.977 220.969C950.039 215.5 955 211.281 960.859 208.312C966.719 205.344 973.555 203.859 981.367 203.859C989.336 203.859 996.406 205.422 1002.58 208.547C1008.75 211.594 1013.95 215.969 1018.16 221.672C1022.38 227.297 1025.55 234.094 1027.66 242.062C1029.77 249.953 1030.82 258.742 1030.82 268.43ZM1002.58 270.891V268.43C1002.58 262.57 1002.03 257.141 1000.94 252.141C999.844 247.062 998.125 242.609 995.781 238.781C993.438 234.953 990.43 231.984 986.758 229.875C983.164 227.688 978.828 226.594 973.75 226.594C968.75 226.594 964.453 227.453 960.859 229.172C957.266 230.812 954.258 233.117 951.836 236.086C949.414 239.055 947.539 242.531 946.211 246.516C944.883 250.422 943.945 254.68 943.398 259.289V282.023C944.336 287.648 945.938 292.805 948.203 297.492C950.469 302.18 953.672 305.93 957.812 308.742C962.031 311.477 967.422 312.844 973.984 312.844C979.062 312.844 983.398 311.75 986.992 309.562C990.586 307.375 993.516 304.367 995.781 300.539C998.125 296.633 999.844 292.141 1000.94 287.062C1002.03 281.984 1002.58 276.594 1002.58 270.891ZM1049.45 271.008V268.312C1049.45 259.172 1050.78 250.695 1053.44 242.883C1056.09 234.992 1059.92 228.156 1064.92 222.375C1070 216.516 1076.17 211.984 1083.44 208.781C1090.78 205.5 1099.06 203.859 1108.28 203.859C1117.58 203.859 1125.86 205.5 1133.12 208.781C1140.47 211.984 1146.68 216.516 1151.76 222.375C1156.84 228.156 1160.7 234.992 1163.36 242.883C1166.02 250.695 1167.34 259.172 1167.34 268.312V271.008C1167.34 280.148 1166.02 288.625 1163.36 296.438C1160.7 304.25 1156.84 311.086 1151.76 316.945C1146.68 322.727 1140.51 327.258 1133.24 330.539C1125.98 333.742 1117.73 335.344 1108.52 335.344C1099.22 335.344 1090.9 333.742 1083.55 330.539C1076.29 327.258 1070.12 322.727 1065.04 316.945C1059.96 311.086 1056.09 304.25 1053.44 296.438C1050.78 288.625 1049.45 280.148 1049.45 271.008ZM1077.7 268.312V271.008C1077.7 276.711 1078.28 282.102 1079.45 287.18C1080.62 292.258 1082.46 296.711 1084.96 300.539C1087.46 304.367 1090.66 307.375 1094.57 309.562C1098.48 311.75 1103.12 312.844 1108.52 312.844C1113.75 312.844 1118.28 311.75 1122.11 309.562C1126.02 307.375 1129.22 304.367 1131.72 300.539C1134.22 296.711 1136.05 292.258 1137.23 287.18C1138.48 282.102 1139.1 276.711 1139.1 271.008V268.312C1139.1 262.688 1138.48 257.375 1137.23 252.375C1136.05 247.297 1134.18 242.805 1131.6 238.898C1129.1 234.992 1125.9 231.945 1121.99 229.758C1118.16 227.492 1113.59 226.359 1108.28 226.359C1102.97 226.359 1098.36 227.492 1094.45 229.758C1090.62 231.945 1087.46 234.992 1084.96 238.898C1082.46 242.805 1080.62 247.297 1079.45 252.375C1078.28 257.375 1077.7 262.688 1077.7 268.312ZM1217.73 271.008H1247.03L1211.05 333H1181.88L1217.73 271.008ZM1238.36 206.203H1292.73V333H1264.61V228.469H1238.36C1233.05 228.469 1228.67 229.406 1225.23 231.281C1221.8 233.078 1219.26 235.461 1217.62 238.43C1215.98 241.32 1215.16 244.289 1215.16 247.336C1215.16 250.383 1215.9 253.312 1217.38 256.125C1218.95 258.938 1221.33 261.242 1224.53 263.039C1227.81 264.836 1231.91 265.734 1236.84 265.734H1274.1V286.359H1236.84C1229.02 286.359 1222.03 285.383 1215.86 283.43C1209.69 281.398 1204.45 278.625 1200.16 275.109C1195.86 271.516 1192.58 267.336 1190.31 262.57C1188.05 257.727 1186.91 252.453 1186.91 246.75C1186.91 240.891 1188.09 235.5 1190.43 230.578C1192.77 225.656 1196.13 221.359 1200.51 217.688C1204.96 214.016 1210.35 211.203 1216.68 209.25C1223.09 207.219 1230.31 206.203 1238.36 206.203ZM1382.97 206.203V333H1354.61V206.203H1382.97ZM1424.57 206.203V228.469H1313.71V206.203H1424.57ZM1530.04 259.172V281.438H1464.41V259.172H1530.04ZM1472.62 206.203V333H1444.38V206.203H1472.62ZM1550.43 206.203V333H1522.19V206.203H1550.43ZM1601.52 246.516H1638.91C1649.84 246.516 1659.14 248.352 1666.8 252.023C1674.45 255.695 1680.27 260.812 1684.26 267.375C1688.32 273.859 1690.35 281.281 1690.35 289.641C1690.35 295.812 1689.22 301.555 1686.95 306.867C1684.69 312.102 1681.33 316.672 1676.88 320.578C1672.5 324.484 1667.11 327.531 1660.7 329.719C1654.38 331.906 1647.11 333 1638.91 333H1582.77V206.203H1611.13V310.617H1638.91C1644.53 310.617 1649.02 309.641 1652.38 307.688C1655.74 305.734 1658.16 303.195 1659.65 300.07C1661.21 296.945 1661.99 293.625 1661.99 290.109C1661.99 286.516 1661.21 283.117 1659.65 279.914C1658.16 276.711 1655.74 274.094 1652.38 272.062C1649.02 270.031 1644.53 269.016 1638.91 269.016H1601.52V246.516ZM1740.27 206.203V333H1712.03V206.203H1740.27ZM1829.57 335.344C1820.2 335.344 1811.72 333.82 1804.14 330.773C1796.64 327.648 1790.23 323.312 1784.92 317.766C1779.69 312.219 1775.66 305.695 1772.85 298.195C1770.04 290.695 1768.63 282.609 1768.63 273.938V269.25C1768.63 259.328 1770.08 250.344 1772.97 242.297C1775.86 234.25 1779.88 227.375 1785.04 221.672C1790.2 215.891 1796.29 211.477 1803.32 208.43C1810.35 205.383 1817.97 203.859 1826.17 203.859C1835.23 203.859 1843.16 205.383 1849.96 208.43C1856.76 211.477 1862.38 215.773 1866.84 221.32C1871.37 226.789 1874.73 233.312 1876.91 240.891C1879.18 248.469 1880.31 256.828 1880.31 265.969V278.039H1782.34V257.766H1852.42V255.539C1852.27 250.461 1851.25 245.695 1849.38 241.242C1847.58 236.789 1844.8 233.195 1841.05 230.461C1837.3 227.727 1832.3 226.359 1826.05 226.359C1821.37 226.359 1817.19 227.375 1813.52 229.406C1809.92 231.359 1806.91 234.211 1804.49 237.961C1802.07 241.711 1800.2 246.242 1798.87 251.555C1797.62 256.789 1796.99 262.688 1796.99 269.25V273.938C1796.99 279.484 1797.73 284.641 1799.22 289.406C1800.78 294.094 1803.05 298.195 1806.02 301.711C1808.98 305.227 1812.58 308 1816.8 310.031C1821.02 311.984 1825.82 312.961 1831.21 312.961C1838.01 312.961 1844.06 311.594 1849.38 308.859C1854.69 306.125 1859.3 302.258 1863.2 297.258L1878.09 311.672C1875.35 315.656 1871.8 319.484 1867.42 323.156C1863.05 326.75 1857.7 329.68 1851.37 331.945C1845.12 334.211 1837.85 335.344 1829.57 335.344ZM1994.8 162.375V333H1965.51V162.375H1994.8ZM2097.46 162.375L2028.09 259.641H1986.48L1982.5 234.094H2011.8L2061.48 162.375H2097.46ZM2067.46 333L2012.27 255.188L2031.25 232.57L2102.73 333H2067.46ZM2108.12 271.008V268.312C2108.12 259.172 2109.45 250.695 2112.11 242.883C2114.77 234.992 2118.59 228.156 2123.59 222.375C2128.67 216.516 2134.84 211.984 2142.11 208.781C2149.45 205.5 2157.73 203.859 2166.95 203.859C2176.25 203.859 2184.53 205.5 2191.8 208.781C2199.14 211.984 2205.35 216.516 2210.43 222.375C2215.51 228.156 2219.38 234.992 2222.03 242.883C2224.69 250.695 2226.02 259.172 2226.02 268.312V271.008C2226.02 280.148 2224.69 288.625 2222.03 296.438C2219.38 304.25 2215.51 311.086 2210.43 316.945C2205.35 322.727 2199.18 327.258 2191.91 330.539C2184.65 333.742 2176.41 335.344 2167.19 335.344C2157.89 335.344 2149.57 333.742 2142.23 330.539C2134.96 327.258 2128.79 322.727 2123.71 316.945C2118.63 311.086 2114.77 304.25 2112.11 296.438C2109.45 288.625 2108.12 280.148 2108.12 271.008ZM2136.37 268.312V271.008C2136.37 276.711 2136.95 282.102 2138.12 287.18C2139.3 292.258 2141.13 296.711 2143.63 300.539C2146.13 304.367 2149.34 307.375 2153.24 309.562C2157.15 311.75 2161.8 312.844 2167.19 312.844C2172.42 312.844 2176.95 311.75 2180.78 309.562C2184.69 307.375 2187.89 304.367 2190.39 300.539C2192.89 296.711 2194.73 292.258 2195.9 287.18C2197.15 282.102 2197.77 276.711 2197.77 271.008V268.312C2197.77 262.688 2197.15 257.375 2195.9 252.375C2194.73 247.297 2192.85 242.805 2190.27 238.898C2187.77 234.992 2184.57 231.945 2180.66 229.758C2176.84 227.492 2172.27 226.359 2166.95 226.359C2161.64 226.359 2157.03 227.492 2153.12 229.758C2149.3 231.945 2146.13 234.992 2143.63 238.898C2141.13 242.805 2139.3 247.297 2138.12 252.375C2136.95 257.375 2136.37 262.688 2136.37 268.312ZM2325.04 298.781L2362.77 206.203H2387.27L2334.65 333H2315.43L2262.93 206.203H2287.42L2325.04 298.781ZM2280.16 206.203V333H2251.91V206.203H2280.16ZM2369.92 333V206.203H2398.28V333H2369.92ZM2509.49 150.656H2532.34C2532.34 157.609 2531.37 163.352 2529.41 167.883C2527.54 172.336 2524.73 176.008 2520.98 178.898C2517.3 181.711 2512.73 183.977 2507.27 185.695C2501.88 187.414 2495.62 188.977 2488.52 190.383C2481.95 191.789 2476.02 194.016 2470.7 197.062C2465.47 200.031 2461.05 204.211 2457.46 209.602C2453.95 214.914 2451.41 221.75 2449.84 230.109C2448.28 238.469 2447.81 248.664 2448.44 260.695V268.664L2426.05 270.656V262.688C2426.05 247.766 2427.42 234.758 2430.16 223.664C2432.89 212.57 2436.76 203.234 2441.76 195.656C2446.84 188 2452.85 181.906 2459.8 177.375C2466.84 172.844 2474.65 169.719 2483.24 168C2489.1 166.75 2493.98 165.5 2497.89 164.25C2501.8 162.922 2504.69 161.242 2506.56 159.211C2508.52 157.102 2509.49 154.25 2509.49 150.656ZM2489.69 213.352C2498.12 213.352 2505.62 214.836 2512.19 217.805C2518.75 220.695 2524.3 224.758 2528.83 229.992C2533.36 235.227 2536.8 241.398 2539.14 248.508C2541.56 255.617 2542.77 263.352 2542.77 271.711V274.289C2542.77 283.039 2541.48 291.125 2538.91 298.547C2536.33 305.969 2532.54 312.453 2527.54 318C2522.54 323.469 2516.41 327.766 2509.14 330.891C2501.95 333.938 2493.71 335.461 2484.41 335.461C2475.2 335.461 2466.95 333.859 2459.69 330.656C2452.42 327.453 2446.29 323 2441.29 317.297C2436.29 311.516 2432.5 304.758 2429.92 297.023C2427.34 289.289 2426.05 280.852 2426.05 271.711V269.133C2425.98 267.492 2426.41 265.891 2427.34 264.328C2428.36 262.766 2429.57 261.086 2430.98 259.289C2432.38 257.492 2433.63 255.422 2434.73 253.078C2438.63 245.188 2443.24 238.273 2448.55 232.336C2453.87 226.398 2459.92 221.75 2466.72 218.391C2473.59 215.031 2481.25 213.352 2489.69 213.352ZM2484.18 235.734C2477.15 235.734 2471.41 237.414 2466.95 240.773C2462.58 244.055 2459.34 248.43 2457.23 253.898C2455.2 259.367 2454.18 265.305 2454.18 271.711V274.289C2454.18 279.523 2454.77 284.484 2455.94 289.172C2457.11 293.859 2458.87 298 2461.21 301.594C2463.63 305.109 2466.76 307.883 2470.59 309.914C2474.49 311.945 2479.1 312.961 2484.41 312.961C2489.8 312.961 2494.38 311.945 2498.12 309.914C2501.95 307.883 2505.04 305.109 2507.38 301.594C2509.8 298 2511.56 293.859 2512.66 289.172C2513.83 284.484 2514.41 279.523 2514.41 274.289V271.711C2514.41 266.867 2513.83 262.297 2512.66 258C2511.56 253.703 2509.8 249.914 2507.38 246.633C2504.96 243.273 2501.84 240.617 2498.01 238.664C2494.18 236.711 2489.57 235.734 2484.18 235.734ZM2591.99 291.75L2641.8 206.203H2670.04V333H2641.8V247.336L2591.99 333H2563.75V206.203H2591.99V291.75ZM2786.52 259.172V281.438H2720.9V259.172H2786.52ZM2729.1 206.203V333H2700.86V206.203H2729.1ZM2806.91 206.203V333H2778.67V206.203H2806.91ZM2908.52 307.57V247.102C2908.52 242.57 2907.7 238.664 2906.05 235.383C2904.41 232.102 2901.91 229.562 2898.55 227.766C2895.27 225.969 2891.13 225.07 2886.13 225.07C2881.52 225.07 2877.54 225.852 2874.18 227.414C2870.82 228.977 2868.2 231.086 2866.33 233.742C2864.45 236.398 2863.52 239.406 2863.52 242.766H2835.39C2835.39 237.766 2836.6 232.922 2839.02 228.234C2841.45 223.547 2844.96 219.367 2849.57 215.695C2854.18 212.023 2859.69 209.133 2866.09 207.023C2872.5 204.914 2879.69 203.859 2887.66 203.859C2897.19 203.859 2905.62 205.461 2912.97 208.664C2920.39 211.867 2926.21 216.711 2930.43 223.195C2934.73 229.602 2936.88 237.648 2936.88 247.336V303.703C2936.88 309.484 2937.27 314.68 2938.05 319.289C2938.91 323.82 2940.12 327.766 2941.68 331.125V333H2912.73C2911.41 329.953 2910.35 326.086 2909.57 321.398C2908.87 316.633 2908.52 312.023 2908.52 307.57ZM2912.62 255.891L2912.85 273.352H2892.58C2887.34 273.352 2882.73 273.859 2878.75 274.875C2874.77 275.812 2871.45 277.219 2868.79 279.094C2866.13 280.969 2864.14 283.234 2862.81 285.891C2861.48 288.547 2860.82 291.555 2860.82 294.914C2860.82 298.273 2861.6 301.359 2863.16 304.172C2864.73 306.906 2866.99 309.055 2869.96 310.617C2873.01 312.18 2876.68 312.961 2880.98 312.961C2886.76 312.961 2891.8 311.789 2896.09 309.445C2900.47 307.023 2903.91 304.094 2906.41 300.656C2908.91 297.141 2910.23 293.82 2910.39 290.695L2919.53 303.234C2918.59 306.438 2916.99 309.875 2914.73 313.547C2912.46 317.219 2909.49 320.734 2905.82 324.094C2902.23 327.375 2897.89 330.07 2892.81 332.18C2887.81 334.289 2882.03 335.344 2875.47 335.344C2867.19 335.344 2859.8 333.703 2853.32 330.422C2846.84 327.062 2841.76 322.57 2838.09 316.945C2834.41 311.242 2832.58 304.797 2832.58 297.609C2832.58 290.891 2833.83 284.953 2836.33 279.797C2838.91 274.562 2842.66 270.188 2847.58 266.672C2852.58 263.156 2858.67 260.5 2865.86 258.703C2873.05 256.828 2881.25 255.891 2890.47 255.891H2912.62ZM2967.34 333V206.203H2995.59V310.5H3045.27V206.203H3073.63V333H2967.34ZM3090.86 310.617L3088.63 370.617H3062.73V333H3047.5V310.617H3090.86ZM3139.96 291.75L3189.77 206.203H3218.01V333H3189.77V247.336L3139.96 333H3111.72V206.203H3139.96V291.75ZM3277.07 291.75L3326.88 206.203H3355.12V333H3326.88V247.336L3277.07 333H3248.83V206.203H3277.07V291.75Z" fill="#F0F0F0"/>
<path fill-rule="evenodd" clip-rule="evenodd" d="M5304.28 260.384L5210 342.882L5186.43 322.261L5268.93 250.074L5186.43 177.886L5210 157.266L5304.28 239.764C5307.41 242.498 5309.16 246.207 5309.16 250.074C5309.16 253.941 5307.41 257.65 5304.28 260.384Z" fill="#A1A1A1"/>
<path fill-rule="evenodd" clip-rule="evenodd" d="M346.355 186.026C348.568 185.118 350.991 184.804 353.37 185.119C355.749 185.433 357.999 186.364 359.884 187.814C361.77 189.265 363.222 191.182 364.091 193.365C364.959 195.549 365.212 197.92 364.822 200.231L344.51 320.415C342.54 332.008 329.5 338.656 318.601 332.881C309.484 328.05 295.943 320.607 283.763 312.841C277.673 308.953 259.018 296.504 261.311 287.645C263.281 280.071 294.627 251.609 312.538 234.687C319.568 228.038 316.362 224.203 308.06 230.319C287.444 245.502 254.344 268.592 243.4 275.092C233.745 280.823 228.712 281.801 222.694 280.823C211.714 279.04 201.531 276.28 193.22 272.916C181.99 268.373 182.536 253.312 193.211 248.927L346.355 186.026Z" fill="white"/>
<defs>
<linearGradient id="paint0_linear_3370_10722" x1="0" y1="250" x2="5550" y2="250" gradientUnits="userSpaceOnUse">
<stop stop-color="#212121"/>
<stop offset="1" stop-color="#131313"/>
</linearGradient>
</defs>
</svg>
