<svg width="5650" height="500" viewBox="0 0 5650 500" fill="none" xmlns="http://www.w3.org/2000/svg">
<rect width="5650" height="500" rx="125" fill="#212121"/>
<rect x="90" y="90" width="320" height="320" rx="75" fill="url(#paint0_linear_3551_12308)"/>
<path fill-rule="evenodd" clip-rule="evenodd" d="M317.097 145.014C322.557 145.014 326.996 149.452 326.996 154.912V173.013H345.099C347.057 173.012 348.971 173.593 350.6 174.68C352.228 175.768 353.497 177.314 354.246 179.122C354.996 180.931 355.192 182.922 354.81 184.842C354.428 186.762 353.484 188.526 352.1 189.91L331.658 210.349C328.673 213.327 324.631 215.003 320.415 215.011H299.833L250.41 264.429C248.419 266.283 245.786 267.293 243.066 267.245C240.345 267.197 237.75 266.095 235.826 264.171C233.902 262.248 232.8 259.652 232.752 256.932C232.704 254.212 233.713 251.58 235.568 249.589L284.992 200.172V179.593C284.992 175.379 286.672 171.333 289.655 168.337L310.096 147.898C311.012 146.975 312.103 146.243 313.305 145.745C314.507 145.248 315.796 144.994 317.097 145M165.983 257.009C165.981 245.593 168.519 234.32 173.411 224.005C178.304 213.69 185.429 204.592 194.271 197.37C203.113 190.148 213.451 184.982 224.535 182.246C235.62 179.51 247.175 179.273 258.362 181.552C261.077 182.07 263.887 181.497 266.182 179.957C268.477 178.417 270.073 176.034 270.622 173.325C271.171 170.616 270.63 167.8 269.116 165.488C267.602 163.176 265.237 161.554 262.534 160.973C241.892 156.777 220.447 159.342 201.377 168.289C182.307 177.235 166.628 192.087 156.662 210.643C146.696 229.199 142.975 250.471 146.05 271.307C149.124 292.144 158.831 311.435 173.731 326.323C188.632 341.211 207.933 350.902 228.774 353.961C249.615 357.02 270.888 353.283 289.439 343.305C307.989 333.327 322.831 317.639 331.765 298.565C340.699 279.491 343.249 258.047 339.037 237.41C338.481 234.681 336.865 232.284 334.542 230.747C332.22 229.21 329.382 228.658 326.653 229.213C323.923 229.768 321.526 231.385 319.989 233.707C318.452 236.029 317.9 238.867 318.455 241.596C319.472 246.57 319.986 251.708 319.995 257.009C319.995 277.43 311.882 297.014 297.441 311.454C282.999 325.893 263.412 334.006 242.989 334.006C222.566 334.006 202.979 325.893 188.537 311.454C174.096 297.014 165.983 277.43 165.983 257.009ZM241.085 222.067C243.866 221.918 246.474 220.671 248.336 218.6C250.198 216.528 251.16 213.802 251.012 211.021C250.863 208.24 249.616 205.632 247.544 203.771C245.472 201.909 242.746 200.947 239.965 201.096C229.211 201.675 218.852 205.342 210.13 211.658C201.407 217.974 194.691 226.671 190.786 236.706C186.881 246.741 185.952 257.69 188.111 268.239C190.27 278.789 195.426 288.492 202.96 296.187C210.494 303.881 220.087 309.24 230.59 311.622C241.093 314.004 252.06 313.308 262.177 309.616C272.294 305.925 281.132 299.395 287.632 290.81C294.132 282.224 298.018 271.947 298.825 261.209C299.031 258.432 298.126 255.686 296.307 253.577C294.489 251.467 291.907 250.166 289.13 249.96C286.352 249.754 283.606 250.66 281.497 252.478C279.387 254.296 278.086 256.878 277.88 259.655C277.369 266.363 274.936 272.781 270.871 278.142C266.807 283.502 261.283 287.578 254.962 289.882C248.641 292.185 241.789 292.618 235.228 291.128C228.667 289.639 222.675 286.29 217.968 281.484C213.261 276.677 210.039 270.616 208.688 264.026C207.337 257.436 207.914 250.596 210.35 244.326C212.786 238.055 216.978 232.619 222.424 228.669C227.87 224.719 234.339 222.422 241.057 222.053" fill="white"/>
<path d="M575.186 217H547.852L548.027 199.51H575.186C583.096 199.51 589.717 197.781 595.049 194.324C600.439 190.867 604.482 185.916 607.178 179.471C609.932 173.025 611.309 165.35 611.309 156.443V149.5C611.309 142.586 610.518 136.463 608.936 131.131C607.412 125.799 605.127 121.316 602.08 117.684C599.092 114.051 595.4 111.297 591.006 109.422C586.67 107.547 581.66 106.609 575.977 106.609H547.324V89.0312H575.977C584.473 89.0312 592.236 90.4668 599.268 93.3379C606.299 96.1504 612.363 100.223 617.461 105.555C622.617 110.887 626.572 117.273 629.326 124.715C632.08 132.156 633.457 140.477 633.457 149.676V156.443C633.457 165.643 632.08 173.963 629.326 181.404C626.572 188.846 622.617 195.232 617.461 200.564C612.305 205.838 606.152 209.91 599.004 212.781C591.914 215.594 583.975 217 575.186 217ZM560.068 89.0312V217H538.008V89.0312H560.068ZM707.109 197.928V152.576C707.109 149.178 706.494 146.248 705.264 143.787C704.033 141.326 702.158 139.422 699.639 138.074C697.178 136.727 694.072 136.053 690.322 136.053C686.865 136.053 683.877 136.639 681.357 137.811C678.838 138.982 676.875 140.564 675.469 142.557C674.062 144.549 673.359 146.805 673.359 149.324H652.266C652.266 145.574 653.174 141.941 654.99 138.426C656.807 134.91 659.443 131.775 662.9 129.021C666.357 126.268 670.488 124.1 675.293 122.518C680.098 120.936 685.488 120.145 691.465 120.145C698.613 120.145 704.941 121.346 710.449 123.748C716.016 126.15 720.381 129.783 723.545 134.646C726.768 139.451 728.379 145.486 728.379 152.752V195.027C728.379 199.363 728.672 203.26 729.258 206.717C729.902 210.115 730.811 213.074 731.982 215.594V217H710.273C709.277 214.715 708.486 211.814 707.9 208.299C707.373 204.725 707.109 201.268 707.109 197.928ZM710.186 159.168L710.361 172.264H695.156C691.23 172.264 687.773 172.645 684.785 173.406C681.797 174.109 679.307 175.164 677.314 176.57C675.322 177.977 673.828 179.676 672.832 181.668C671.836 183.66 671.338 185.916 671.338 188.436C671.338 190.955 671.924 193.27 673.096 195.379C674.268 197.43 675.967 199.041 678.193 200.213C680.479 201.385 683.232 201.971 686.455 201.971C690.791 201.971 694.57 201.092 697.793 199.334C701.074 197.518 703.652 195.32 705.527 192.742C707.402 190.105 708.398 187.615 708.516 185.271L715.371 194.676C714.668 197.078 713.467 199.656 711.768 202.41C710.068 205.164 707.842 207.801 705.088 210.32C702.393 212.781 699.141 214.803 695.332 216.385C691.582 217.967 687.246 218.758 682.324 218.758C676.113 218.758 670.576 217.527 665.713 215.066C660.85 212.547 657.041 209.178 654.287 204.959C651.533 200.682 650.156 195.848 650.156 190.457C650.156 185.418 651.094 180.965 652.969 177.098C654.902 173.172 657.715 169.891 661.406 167.254C665.156 164.617 669.727 162.625 675.117 161.277C680.508 159.871 686.66 159.168 693.574 159.168H710.186ZM771.797 140.008V217H750.615V121.902H770.83L771.797 140.008ZM800.889 121.287L800.713 140.975C799.424 140.74 798.018 140.564 796.494 140.447C795.029 140.33 793.564 140.271 792.1 140.271C788.467 140.271 785.273 140.799 782.52 141.854C779.766 142.85 777.451 144.314 775.576 146.248C773.76 148.123 772.354 150.408 771.357 153.104C770.361 155.799 769.775 158.816 769.6 162.156L764.766 162.508C764.766 156.531 765.352 150.994 766.523 145.896C767.695 140.799 769.453 136.316 771.797 132.449C774.199 128.582 777.188 125.564 780.762 123.396C784.395 121.229 788.584 120.145 793.33 120.145C794.619 120.145 795.996 120.262 797.461 120.496C798.984 120.73 800.127 120.994 800.889 121.287ZM862.148 121.902V137.371H808.535V121.902H862.148ZM824.004 98.6113H845.186V190.721C845.186 193.65 845.596 195.906 846.416 197.488C847.295 199.012 848.496 200.037 850.02 200.564C851.543 201.092 853.33 201.355 855.381 201.355C856.846 201.355 858.252 201.268 859.6 201.092C860.947 200.916 862.031 200.74 862.852 200.564L862.939 216.736C861.182 217.264 859.131 217.732 856.787 218.143C854.502 218.553 851.865 218.758 848.877 218.758C844.014 218.758 839.707 217.908 835.957 216.209C832.207 214.451 829.277 211.609 827.168 207.684C825.059 203.758 824.004 198.543 824.004 192.039V98.6113ZM931.846 191.248C931.846 189.139 931.318 187.234 930.264 185.535C929.209 183.777 927.188 182.195 924.199 180.789C921.27 179.383 916.934 178.094 911.191 176.922C906.152 175.809 901.523 174.49 897.305 172.967C893.145 171.385 889.57 169.48 886.582 167.254C883.594 165.027 881.279 162.391 879.639 159.344C877.998 156.297 877.178 152.781 877.178 148.797C877.178 144.93 878.027 141.268 879.727 137.811C881.426 134.354 883.857 131.307 887.021 128.67C890.186 126.033 894.023 123.953 898.535 122.43C903.105 120.906 908.203 120.145 913.828 120.145C921.797 120.145 928.623 121.492 934.307 124.188C940.049 126.824 944.443 130.428 947.49 134.998C950.537 139.51 952.061 144.607 952.061 150.291H930.879C930.879 147.771 930.234 145.428 928.945 143.26C927.715 141.033 925.84 139.246 923.32 137.898C920.801 136.492 917.637 135.789 913.828 135.789C910.195 135.789 907.178 136.375 904.775 137.547C902.432 138.66 900.674 140.125 899.502 141.941C898.389 143.758 897.832 145.75 897.832 147.918C897.832 149.5 898.125 150.936 898.711 152.225C899.355 153.455 900.41 154.598 901.875 155.652C903.34 156.648 905.332 157.586 907.852 158.465C910.43 159.344 913.652 160.193 917.52 161.014C924.785 162.537 931.025 164.5 936.24 166.902C941.514 169.246 945.557 172.293 948.369 176.043C951.182 179.734 952.588 184.422 952.588 190.105C952.588 194.324 951.68 198.191 949.863 201.707C948.105 205.164 945.527 208.182 942.129 210.76C938.73 213.279 934.658 215.242 929.912 216.648C925.225 218.055 919.951 218.758 914.092 218.758C905.479 218.758 898.184 217.234 892.207 214.188C886.23 211.082 881.689 207.127 878.584 202.322C875.537 197.459 874.014 192.42 874.014 187.205H894.492C894.727 191.131 895.811 194.266 897.744 196.609C899.736 198.895 902.197 200.564 905.127 201.619C908.115 202.615 911.191 203.113 914.355 203.113C918.164 203.113 921.357 202.615 923.936 201.619C926.514 200.564 928.477 199.158 929.824 197.4C931.172 195.584 931.846 193.533 931.846 191.248Z" fill="#A1A1A1"/>
<path d="M5402.96 150C5406.73 150.001 5410.43 151.038 5413.69 153.005C5416.95 154.973 5419.65 157.801 5421.52 161.203L5457.18 226.019C5459.51 230.252 5460.43 235.162 5459.81 239.994C5459.19 244.826 5457.06 249.311 5453.74 252.759L5354.45 355.93C5353.21 357.22 5351.74 358.244 5350.12 358.942C5348.49 359.641 5346.76 360 5345 360C5343.24 360 5341.51 359.641 5339.88 358.942C5338.26 358.244 5336.79 357.22 5335.55 355.93L5236.26 252.759C5232.94 249.311 5230.81 244.826 5230.19 239.994C5229.57 235.162 5230.49 230.252 5232.82 226.019L5268.46 161.192C5270.34 157.793 5273.04 154.969 5276.29 153.003C5279.55 151.038 5283.25 150.002 5287.02 150H5402.96ZM5377.08 183.342H5312.9C5310.18 183.345 5307.56 184.43 5305.57 186.374C5303.59 188.319 5302.4 190.976 5302.24 193.804C5302.08 196.632 5302.96 199.417 5304.71 201.589C5306.46 203.761 5308.95 205.157 5311.65 205.492L5312.9 205.57H5334.29V222.741C5326.19 223.519 5318.82 225.152 5312.86 227.475C5308.64 229.12 5304.85 231.209 5302.03 233.821C5299.2 236.433 5296.86 240.012 5296.86 244.468C5296.86 248.925 5299.2 252.515 5302.03 255.115C5304.85 257.727 5308.64 259.817 5312.86 261.45C5319.21 263.929 5327.17 265.64 5335.93 266.34C5335.09 267.742 5334.55 269.321 5334.37 270.964L5334.29 272.253V294.481C5334.3 297.314 5335.34 300.038 5337.21 302.098C5339.08 304.158 5341.64 305.397 5344.36 305.563C5347.08 305.729 5349.76 304.809 5351.85 302.991C5353.94 301.173 5355.29 298.594 5355.61 295.781L5355.68 294.481V272.253C5355.69 270.161 5355.12 268.112 5354.05 266.34C5362.81 265.64 5370.76 263.94 5377.12 261.45C5381.34 259.817 5385.13 257.727 5387.95 255.115C5390.78 252.504 5393.12 248.925 5393.12 244.468C5393.12 240.012 5390.78 236.422 5387.95 233.821C5385.13 231.209 5381.34 229.12 5377.12 227.486C5371.3 225.318 5365.26 223.856 5359.12 223.13L5355.68 222.741V205.57H5377.08C5379.8 205.566 5382.42 204.482 5384.41 202.537C5386.39 200.593 5387.58 197.935 5387.74 195.107C5387.9 192.279 5387.01 189.495 5385.26 187.322C5383.52 185.15 5381.03 183.754 5378.33 183.42L5377.08 183.342ZM5355.67 233.91C5361.71 234.462 5367.65 235.795 5373.36 237.878C5376.88 239.256 5379.35 240.756 5380.85 242.134C5381.5 242.654 5382.02 243.334 5382.35 244.113L5382.42 244.468L5382.35 244.824C5382.02 245.603 5381.5 246.283 5380.85 246.802C5379.35 248.18 5376.88 249.692 5373.36 251.048C5366.36 253.782 5356.33 255.582 5344.99 255.582C5333.65 255.582 5323.62 253.782 5316.61 251.048C5313.1 249.681 5310.63 248.18 5309.12 246.802C5308.47 246.283 5307.95 245.603 5307.62 244.824L5307.56 244.468C5307.56 244.324 5307.61 243.524 5309.12 242.134C5310.63 240.745 5313.1 239.245 5316.61 237.889C5321.32 236.055 5327.38 234.632 5334.3 233.91C5334.43 236.769 5335.61 239.468 5337.6 241.446C5339.59 243.423 5342.24 244.527 5344.99 244.527C5347.74 244.527 5350.39 243.423 5352.38 241.446C5354.37 239.468 5355.55 236.769 5355.67 233.91Z" fill="#696969"/>
<defs>
<linearGradient id="paint0_linear_3551_12308" x1="90" y1="250" x2="410" y2="250" gradientUnits="userSpaceOnUse">
<stop stop-color="#7666C4"/>
<stop offset="1" stop-color="#E39359"/>
</linearGradient>
</defs>
</svg>
