<svg width="2700" height="570" viewBox="0 0 2700 570" fill="none" xmlns="http://www.w3.org/2000/svg">
<rect width="2700" height="570" rx="125" fill="url(#paint0_linear_3296_10458)"/>
<path d="M877.344 197.375V368H848.047V220.812H772.227V368H742.93V197.375H877.344ZM938.281 265.578V416.75H910.039V241.203H936.055L938.281 265.578ZM1020.9 303.43V305.891C1020.9 315.109 1019.8 323.664 1017.62 331.555C1015.51 339.367 1012.34 346.203 1008.12 352.062C1003.98 357.844 998.867 362.336 992.773 365.539C986.68 368.742 979.648 370.344 971.68 370.344C963.789 370.344 956.875 368.898 950.938 366.008C945.078 363.039 940.117 358.859 936.055 353.469C931.992 348.078 928.711 341.75 926.211 334.484C923.789 327.141 922.07 319.094 921.055 310.344V300.852C922.07 291.555 923.789 283.117 926.211 275.539C928.711 267.961 931.992 261.438 936.055 255.969C940.117 250.5 945.078 246.281 950.938 243.312C956.797 240.344 963.633 238.859 971.445 238.859C979.414 238.859 986.484 240.422 992.656 243.547C998.828 246.594 1004.02 250.969 1008.24 256.672C1012.46 262.297 1015.62 269.094 1017.73 277.062C1019.84 284.953 1020.9 293.742 1020.9 303.43ZM992.656 305.891V303.43C992.656 297.57 992.109 292.141 991.016 287.141C989.922 282.062 988.203 277.609 985.859 273.781C983.516 269.953 980.508 266.984 976.836 264.875C973.242 262.688 968.906 261.594 963.828 261.594C958.828 261.594 954.531 262.453 950.938 264.172C947.344 265.812 944.336 268.117 941.914 271.086C939.492 274.055 937.617 277.531 936.289 281.516C934.961 285.422 934.023 289.68 933.477 294.289V317.023C934.414 322.648 936.016 327.805 938.281 332.492C940.547 337.18 943.75 340.93 947.891 343.742C952.109 346.477 957.5 347.844 964.062 347.844C969.141 347.844 973.477 346.75 977.07 344.562C980.664 342.375 983.594 339.367 985.859 335.539C988.203 331.633 989.922 327.141 991.016 322.062C992.109 316.984 992.656 311.594 992.656 305.891ZM1039.53 306.008V303.312C1039.53 294.172 1040.86 285.695 1043.52 277.883C1046.17 269.992 1050 263.156 1055 257.375C1060.08 251.516 1066.25 246.984 1073.52 243.781C1080.86 240.5 1089.14 238.859 1098.36 238.859C1107.66 238.859 1115.94 240.5 1123.2 243.781C1130.55 246.984 1136.76 251.516 1141.84 257.375C1146.91 263.156 1150.78 269.992 1153.44 277.883C1156.09 285.695 1157.42 294.172 1157.42 303.312V306.008C1157.42 315.148 1156.09 323.625 1153.44 331.438C1150.78 339.25 1146.91 346.086 1141.84 351.945C1136.76 357.727 1130.59 362.258 1123.32 365.539C1116.05 368.742 1107.81 370.344 1098.59 370.344C1089.3 370.344 1080.98 368.742 1073.63 365.539C1066.37 362.258 1060.2 357.727 1055.12 351.945C1050.04 346.086 1046.17 339.25 1043.52 331.438C1040.86 323.625 1039.53 315.148 1039.53 306.008ZM1067.77 303.312V306.008C1067.77 311.711 1068.36 317.102 1069.53 322.18C1070.7 327.258 1072.54 331.711 1075.04 335.539C1077.54 339.367 1080.74 342.375 1084.65 344.562C1088.55 346.75 1093.2 347.844 1098.59 347.844C1103.83 347.844 1108.36 346.75 1112.19 344.562C1116.09 342.375 1119.3 339.367 1121.8 335.539C1124.3 331.711 1126.13 327.258 1127.3 322.18C1128.55 317.102 1129.18 311.711 1129.18 306.008V303.312C1129.18 297.688 1128.55 292.375 1127.3 287.375C1126.13 282.297 1124.26 277.805 1121.68 273.898C1119.18 269.992 1115.98 266.945 1112.07 264.758C1108.24 262.492 1103.67 261.359 1098.36 261.359C1093.05 261.359 1088.44 262.492 1084.53 264.758C1080.7 266.945 1077.54 269.992 1075.04 273.898C1072.54 277.805 1070.7 282.297 1069.53 287.375C1068.36 292.375 1067.77 297.688 1067.77 303.312ZM1256.45 333.781L1294.18 241.203H1318.67L1266.05 368H1246.84L1194.34 241.203H1218.83L1256.45 333.781ZM1211.56 241.203V368H1183.32V241.203H1211.56ZM1301.33 368V241.203H1329.69V368H1301.33ZM1432.81 342.57V282.102C1432.81 277.57 1431.99 273.664 1430.35 270.383C1428.71 267.102 1426.21 264.562 1422.85 262.766C1419.57 260.969 1415.43 260.07 1410.43 260.07C1405.82 260.07 1401.84 260.852 1398.48 262.414C1395.12 263.977 1392.5 266.086 1390.62 268.742C1388.75 271.398 1387.81 274.406 1387.81 277.766H1359.69C1359.69 272.766 1360.9 267.922 1363.32 263.234C1365.74 258.547 1369.26 254.367 1373.87 250.695C1378.48 247.023 1383.98 244.133 1390.39 242.023C1396.8 239.914 1403.98 238.859 1411.95 238.859C1421.48 238.859 1429.92 240.461 1437.27 243.664C1444.69 246.867 1450.51 251.711 1454.73 258.195C1459.02 264.602 1461.17 272.648 1461.17 282.336V338.703C1461.17 344.484 1461.56 349.68 1462.34 354.289C1463.2 358.82 1464.41 362.766 1465.98 366.125V368H1437.03C1435.7 364.953 1434.65 361.086 1433.87 356.398C1433.16 351.633 1432.81 347.023 1432.81 342.57ZM1436.91 290.891L1437.15 308.352H1416.88C1411.64 308.352 1407.03 308.859 1403.05 309.875C1399.06 310.812 1395.74 312.219 1393.09 314.094C1390.43 315.969 1388.44 318.234 1387.11 320.891C1385.78 323.547 1385.12 326.555 1385.12 329.914C1385.12 333.273 1385.9 336.359 1387.46 339.172C1389.02 341.906 1391.29 344.055 1394.26 345.617C1397.3 347.18 1400.98 347.961 1405.27 347.961C1411.05 347.961 1416.09 346.789 1420.39 344.445C1424.77 342.023 1428.2 339.094 1430.7 335.656C1433.2 332.141 1434.53 328.82 1434.69 325.695L1443.83 338.234C1442.89 341.438 1441.29 344.875 1439.02 348.547C1436.76 352.219 1433.79 355.734 1430.12 359.094C1426.52 362.375 1422.19 365.07 1417.11 367.18C1412.11 369.289 1406.33 370.344 1399.77 370.344C1391.48 370.344 1384.1 368.703 1377.62 365.422C1371.13 362.062 1366.05 357.57 1362.38 351.945C1358.71 346.242 1356.88 339.797 1356.88 332.609C1356.88 325.891 1358.12 319.953 1360.62 314.797C1363.2 309.562 1366.95 305.188 1371.88 301.672C1376.88 298.156 1382.97 295.5 1390.16 293.703C1397.34 291.828 1405.55 290.891 1414.77 290.891H1436.91ZM1512.27 241.203L1536.41 283.273L1561.02 241.203H1592.07L1553.63 303.43L1593.59 368H1562.54L1536.76 324.172L1510.98 368H1479.8L1519.65 303.43L1481.33 241.203H1512.27Z" fill="white"/>
<path d="M2149.06 254.469L2165.16 282.516L2181.56 254.469H2202.27L2176.64 295.953L2203.28 339H2182.58L2165.39 309.781L2148.2 339H2127.42L2153.98 295.953L2128.44 254.469H2149.06ZM2292.42 298.453V313.453H2210.39L2209.77 302.125L2258.83 225.25H2273.91L2257.58 253.219L2229.38 298.453H2292.42ZM2278.2 225.25V339H2259.38V225.25H2278.2ZM2323.75 320.875L2323.67 334.312C2323.67 339.625 2322.34 345.094 2319.69 350.719C2317.03 356.344 2313.52 360.979 2309.14 364.625L2299.06 358.766C2300.52 356.422 2301.85 354.052 2303.05 351.656C2304.24 349.26 2305.21 346.708 2305.94 344C2306.67 341.292 2307.03 338.297 2307.03 335.016V320.875H2323.75ZM2362.89 273.609H2374.14C2378.52 273.609 2382.14 272.854 2385 271.344C2387.92 269.833 2390.08 267.75 2391.48 265.094C2392.89 262.438 2393.59 259.391 2393.59 255.953C2393.59 252.359 2392.94 249.286 2391.64 246.734C2390.39 244.13 2388.46 242.125 2385.86 240.719C2383.31 239.312 2380.05 238.609 2376.09 238.609C2372.76 238.609 2369.74 239.286 2367.03 240.641C2364.38 241.943 2362.27 243.818 2360.7 246.266C2359.14 248.661 2358.36 251.526 2358.36 254.859H2339.45C2339.45 248.818 2341.04 243.453 2344.22 238.766C2347.4 234.078 2351.72 230.406 2357.19 227.75C2362.71 225.042 2368.91 223.688 2375.78 223.688C2383.12 223.688 2389.53 224.911 2395 227.359C2400.52 229.755 2404.82 233.349 2407.89 238.141C2410.96 242.932 2412.5 248.87 2412.5 255.953C2412.5 259.182 2411.74 262.464 2410.23 265.797C2408.72 269.13 2406.48 272.177 2403.52 274.938C2400.55 277.646 2396.85 279.859 2392.42 281.578C2387.99 283.245 2382.86 284.078 2377.03 284.078H2362.89V273.609ZM2362.89 288.297V277.984H2377.03C2383.7 277.984 2389.38 278.766 2394.06 280.328C2398.8 281.891 2402.66 284.052 2405.62 286.812C2408.59 289.521 2410.76 292.62 2412.11 296.109C2413.52 299.599 2414.22 303.297 2414.22 307.203C2414.22 312.516 2413.26 317.255 2411.33 321.422C2409.45 325.536 2406.77 329.026 2403.28 331.891C2399.79 334.755 2395.7 336.917 2391.02 338.375C2386.38 339.833 2381.33 340.562 2375.86 340.562C2370.96 340.562 2366.28 339.885 2361.8 338.531C2357.32 337.177 2353.31 335.172 2349.77 332.516C2346.22 329.807 2343.41 326.448 2341.33 322.438C2339.3 318.375 2338.28 313.688 2338.28 308.375H2357.11C2357.11 311.76 2357.89 314.755 2359.45 317.359C2361.07 319.911 2363.31 321.917 2366.17 323.375C2369.09 324.833 2372.42 325.562 2376.17 325.562C2380.13 325.562 2383.54 324.859 2386.41 323.453C2389.27 322.047 2391.46 319.964 2392.97 317.203C2394.53 314.443 2395.31 311.109 2395.31 307.203C2395.31 302.776 2394.45 299.182 2392.73 296.422C2391.02 293.661 2388.57 291.63 2385.39 290.328C2382.21 288.974 2378.46 288.297 2374.14 288.297H2362.89ZM2451.48 286.109L2436.48 282.438L2442.66 225.25H2503.98V241.188H2458.28L2455.16 269.078C2456.93 268.036 2459.38 267.021 2462.5 266.031C2465.62 264.99 2469.19 264.469 2473.2 264.469C2478.57 264.469 2483.36 265.354 2487.58 267.125C2491.85 268.844 2495.47 271.37 2498.44 274.703C2501.41 277.984 2503.67 281.995 2505.23 286.734C2506.8 291.422 2507.58 296.708 2507.58 302.594C2507.58 307.854 2506.8 312.776 2505.23 317.359C2503.72 321.943 2501.43 325.979 2498.36 329.469C2495.29 332.958 2491.41 335.693 2486.72 337.672C2482.08 339.599 2476.59 340.562 2470.23 340.562C2465.49 340.562 2460.94 339.885 2456.56 338.531C2452.24 337.125 2448.36 335.068 2444.92 332.359C2441.48 329.599 2438.72 326.214 2436.64 322.203C2434.56 318.141 2433.36 313.479 2433.05 308.219H2451.48C2451.95 311.917 2452.97 315.068 2454.53 317.672C2456.15 320.224 2458.28 322.177 2460.94 323.531C2463.59 324.885 2466.67 325.562 2470.16 325.562C2473.33 325.562 2476.07 325.016 2478.36 323.922C2480.65 322.776 2482.55 321.161 2484.06 319.078C2485.62 316.943 2486.77 314.443 2487.5 311.578C2488.28 308.714 2488.67 305.536 2488.67 302.047C2488.67 298.714 2488.23 295.667 2487.34 292.906C2486.51 290.146 2485.23 287.75 2483.52 285.719C2481.85 283.688 2479.74 282.125 2477.19 281.031C2474.64 279.885 2471.69 279.312 2468.36 279.312C2463.88 279.312 2460.44 279.964 2458.05 281.266C2455.7 282.568 2453.52 284.182 2451.48 286.109Z" fill="#F0F0F0"/>
<rect x="125" y="125" width="320" height="320" rx="75" fill="url(#paint1_linear_3296_10458)"/>
<path fill-rule="evenodd" clip-rule="evenodd" d="M352.097 180.014C357.557 180.014 361.996 184.452 361.996 189.912V208.013H380.099C382.057 208.012 383.971 208.593 385.6 209.68C387.228 210.768 388.497 212.314 389.246 214.122C389.996 215.931 390.192 217.922 389.81 219.842C389.428 221.762 388.484 223.526 387.1 224.91L366.658 245.349C363.673 248.327 359.631 250.003 355.415 250.011H334.833L285.41 299.429C283.419 301.283 280.786 302.293 278.066 302.245C275.345 302.197 272.75 301.095 270.826 299.171C268.902 297.248 267.8 294.652 267.752 291.932C267.704 289.212 268.713 286.58 270.568 284.589L319.992 235.172V214.593C319.992 210.379 321.672 206.333 324.655 203.337L345.096 182.898C346.012 181.975 347.103 181.243 348.305 180.745C349.507 180.248 350.796 179.994 352.097 180M200.983 292.009C200.981 280.593 203.519 269.32 208.411 259.005C213.304 248.69 220.429 239.592 229.271 232.37C238.113 225.148 248.451 219.982 259.535 217.246C270.62 214.51 282.175 214.273 293.362 216.552C296.077 217.07 298.887 216.497 301.182 214.957C303.477 213.417 305.073 211.034 305.622 208.325C306.171 205.616 305.63 202.8 304.116 200.488C302.602 198.176 300.237 196.554 297.534 195.973C276.892 191.777 255.447 194.342 236.377 203.289C217.307 212.235 201.628 227.087 191.662 245.643C181.696 264.199 177.975 285.471 181.05 306.307C184.124 327.144 193.831 346.435 208.731 361.323C223.632 376.211 242.933 385.902 263.774 388.961C284.615 392.02 305.888 388.283 324.439 378.305C342.989 368.327 357.831 352.639 366.765 333.565C375.699 314.491 378.249 293.047 374.037 272.41C373.481 269.681 371.865 267.284 369.542 265.747C367.22 264.21 364.382 263.658 361.653 264.213C358.923 264.768 356.526 266.385 354.989 268.707C353.452 271.029 352.9 273.867 353.455 276.596C354.472 281.57 354.986 286.708 354.995 292.009C354.995 312.43 346.882 332.014 332.44 346.454C317.999 360.893 298.412 369.006 277.989 369.006C257.566 369.006 237.979 360.893 223.537 346.454C209.096 332.014 200.983 312.43 200.983 292.009ZM276.085 257.067C278.866 256.918 281.474 255.671 283.336 253.599C285.198 251.528 286.16 248.802 286.012 246.021C285.863 243.24 284.616 240.632 282.544 238.771C280.472 236.909 277.746 235.947 274.965 236.096C264.211 236.675 253.852 240.342 245.13 246.658C236.407 252.974 229.691 261.671 225.786 271.706C221.881 281.741 220.952 292.69 223.111 303.239C225.27 313.789 230.426 323.492 237.96 331.187C245.494 338.881 255.087 344.24 265.59 346.622C276.093 349.004 287.06 348.308 297.177 344.616C307.294 340.925 316.132 334.395 322.632 325.81C329.132 317.224 333.018 306.947 333.825 296.209C334.031 293.432 333.126 290.686 331.307 288.577C329.489 286.467 326.907 285.166 324.13 284.96C321.352 284.754 318.606 285.66 316.497 287.478C314.387 289.296 313.086 291.878 312.88 294.655C312.369 301.363 309.936 307.781 305.871 313.142C301.807 318.502 296.283 322.578 289.962 324.882C283.641 327.185 276.789 327.618 270.228 326.128C263.667 324.639 257.675 321.29 252.968 316.484C248.261 311.677 245.039 305.616 243.688 299.026C242.337 292.436 242.914 285.596 245.35 279.326C247.786 273.055 251.978 267.619 257.424 263.669C262.87 259.719 269.339 257.422 276.057 257.053" fill="#0F0F0F"/>
<defs>
<linearGradient id="paint0_linear_3296_10458" x1="2700" y1="285.861" x2="9.4149e-06" y2="285.861" gradientUnits="userSpaceOnUse">
<stop stop-color="#E39359" stop-opacity="0.9"/>
<stop offset="0.45" stop-color="#7D6CD0" stop-opacity="0.75"/>
<stop offset="0.95" stop-color="#0F0F0F" stop-opacity="0"/>
</linearGradient>
<linearGradient id="paint1_linear_3296_10458" x1="125" y1="285" x2="445" y2="285" gradientUnits="userSpaceOnUse">
<stop stop-color="#7666C4"/>
<stop offset="1" stop-color="#E39359"/>
</linearGradient>
</defs>
</svg>
