<svg width="1125" height="1125" viewBox="0 0 1125 1125" fill="none" xmlns="http://www.w3.org/2000/svg">
<path fill-rule="evenodd" clip-rule="evenodd" d="M921.947 0.0754956C951.2 0.0754956 974.977 23.8494 974.977 53.0981V150.069H1071.96C1082.45 150.066 1092.7 153.175 1101.43 159.001C1110.15 164.827 1116.95 173.109 1120.96 182.799C1124.98 192.489 1126.03 203.152 1123.98 213.439C1121.93 223.725 1116.88 233.174 1109.46 240.59L999.954 350.085C983.964 366.037 962.311 375.015 939.724 375.059H829.465L564.694 639.797C554.03 649.732 539.925 655.141 525.352 654.884C510.778 654.627 496.873 648.724 486.566 638.418C476.259 628.113 470.355 614.209 470.098 599.638C469.841 585.066 475.251 570.963 485.187 560.3L749.959 295.562V185.317C749.959 162.743 758.959 141.069 774.936 125.02L884.444 15.5248C889.352 10.5781 895.196 6.65781 901.635 3.99248C908.074 1.32715 914.979 -0.0298787 921.947 0.000498946M112.408 600.048C112.4 538.891 125.993 478.498 152.203 423.24C178.413 367.983 216.584 319.244 263.952 280.553C311.32 241.862 366.7 214.187 426.083 199.532C485.465 184.877 547.364 183.607 607.297 195.817C621.843 198.592 636.896 195.52 649.191 187.269C661.486 179.018 670.032 166.252 672.974 151.741C675.916 137.23 673.017 122.145 664.906 109.757C656.796 97.3699 644.127 88.6795 629.649 85.5716C519.065 63.0916 404.18 76.8338 302.021 124.761C199.861 172.689 115.863 252.252 62.4756 351.658C9.08826 451.064 -10.8473 565.023 5.62333 676.647C22.094 788.271 74.0944 891.618 153.918 971.373C233.741 1051.13 337.14 1103.05 448.79 1119.43C560.439 1135.82 674.398 1115.8 773.778 1062.35C873.157 1008.9 952.668 924.851 1000.53 822.669C1048.39 720.487 1062.05 605.606 1039.48 495.053C1036.51 480.434 1027.85 467.594 1015.41 459.359C1002.96 451.125 987.76 448.169 973.139 451.143C958.518 454.116 945.677 462.775 937.441 475.216C929.205 487.656 926.249 502.858 929.223 517.477C934.673 544.126 937.424 571.65 937.474 600.048C937.474 709.445 894.011 814.361 816.646 891.717C739.281 969.072 634.351 1012.53 524.941 1012.53C415.53 1012.53 310.601 969.072 233.236 891.717C155.871 814.361 112.408 709.445 112.408 600.048ZM514.74 412.857C529.64 412.061 543.613 405.38 553.586 394.283C563.559 383.186 568.715 368.582 567.919 353.684C567.123 338.787 560.441 324.815 549.343 314.843C538.245 304.871 523.639 299.716 508.739 300.512C451.129 303.616 395.636 323.263 348.908 357.099C302.181 390.934 266.201 437.523 245.281 491.283C224.36 545.044 219.385 603.695 230.953 660.21C242.52 716.726 270.139 768.708 310.501 809.928C350.862 851.148 402.254 879.858 458.518 892.619C514.783 905.379 573.534 901.648 627.732 881.874C681.93 862.099 729.277 827.118 764.098 781.124C798.92 735.129 819.74 680.072 824.065 622.547C825.169 607.669 820.316 592.962 810.575 581.661C800.835 570.36 787.003 563.391 772.123 562.288C757.243 561.184 742.534 566.035 731.232 575.775C719.929 585.515 712.96 599.345 711.856 614.223C709.12 650.157 696.084 684.541 674.31 713.259C652.536 741.977 622.946 763.813 589.082 776.151C555.218 788.489 518.515 790.808 483.367 782.829C448.219 774.851 416.115 756.913 390.899 731.163C365.683 705.414 348.423 672.943 341.186 637.64C333.949 602.336 337.04 565.694 350.091 532.102C363.141 498.509 385.598 469.389 414.772 448.228C443.946 427.066 478.602 414.76 514.59 412.782" fill="#212121"/>
</svg>
