<svg width="2700" height="570" viewBox="0 0 2700 570" fill="none" xmlns="http://www.w3.org/2000/svg">
<rect width="2700" height="570" rx="125" fill="url(#paint0_linear_3296_10431)"/>
<path d="M897.148 344.445L894.922 409.133H867.852V368H852.617V344.445H897.148ZM741.641 368V197.375H771.172V344.68H846.758V197.375H876.289V368H741.641ZM974.492 370.344C965.117 370.344 956.641 368.82 949.062 365.773C941.562 362.648 935.156 358.312 929.844 352.766C924.609 347.219 920.586 340.695 917.773 333.195C914.961 325.695 913.555 317.609 913.555 308.938V304.25C913.555 294.328 915 285.344 917.891 277.297C920.781 269.25 924.805 262.375 929.961 256.672C935.117 250.891 941.211 246.477 948.242 243.43C955.273 240.383 962.891 238.859 971.094 238.859C980.156 238.859 988.086 240.383 994.883 243.43C1001.68 246.477 1007.3 250.773 1011.76 256.32C1016.29 261.789 1019.65 268.312 1021.84 275.891C1024.1 283.469 1025.23 291.828 1025.23 300.969V313.039H927.266V292.766H997.344V290.539C997.188 285.461 996.172 280.695 994.297 276.242C992.5 271.789 989.727 268.195 985.977 265.461C982.227 262.727 977.227 261.359 970.977 261.359C966.289 261.359 962.109 262.375 958.438 264.406C954.844 266.359 951.836 269.211 949.414 272.961C946.992 276.711 945.117 281.242 943.789 286.555C942.539 291.789 941.914 297.688 941.914 304.25V308.938C941.914 314.484 942.656 319.641 944.141 324.406C945.703 329.094 947.969 333.195 950.938 336.711C953.906 340.227 957.5 343 961.719 345.031C965.938 346.984 970.742 347.961 976.133 347.961C982.93 347.961 988.984 346.594 994.297 343.859C999.609 341.125 1004.22 337.258 1008.12 332.258L1023.01 346.672C1020.27 350.656 1016.72 354.484 1012.34 358.156C1007.97 361.75 1002.62 364.68 996.289 366.945C990.039 369.211 982.773 370.344 974.492 370.344ZM1133.87 294.172V316.438H1068.24V294.172H1133.87ZM1076.45 241.203V368H1048.2V241.203H1076.45ZM1154.26 241.203V368H1126.02V241.203H1154.26ZM1243.2 241.203V368H1214.84V241.203H1243.2ZM1284.8 241.203V263.469H1173.95V241.203H1284.8ZM1332.03 265.578V416.75H1303.79V241.203H1329.8L1332.03 265.578ZM1414.65 303.43V305.891C1414.65 315.109 1413.55 323.664 1411.37 331.555C1409.26 339.367 1406.09 346.203 1401.88 352.062C1397.73 357.844 1392.62 362.336 1386.52 365.539C1380.43 368.742 1373.4 370.344 1365.43 370.344C1357.54 370.344 1350.62 368.898 1344.69 366.008C1338.83 363.039 1333.87 358.859 1329.8 353.469C1325.74 348.078 1322.46 341.75 1319.96 334.484C1317.54 327.141 1315.82 319.094 1314.8 310.344V300.852C1315.82 291.555 1317.54 283.117 1319.96 275.539C1322.46 267.961 1325.74 261.438 1329.8 255.969C1333.87 250.5 1338.83 246.281 1344.69 243.312C1350.55 240.344 1357.38 238.859 1365.2 238.859C1373.16 238.859 1380.23 240.422 1386.41 243.547C1392.58 246.594 1397.77 250.969 1401.99 256.672C1406.21 262.297 1409.38 269.094 1411.48 277.062C1413.59 284.953 1414.65 293.742 1414.65 303.43ZM1386.41 305.891V303.43C1386.41 297.57 1385.86 292.141 1384.77 287.141C1383.67 282.062 1381.95 277.609 1379.61 273.781C1377.27 269.953 1374.26 266.984 1370.59 264.875C1366.99 262.688 1362.66 261.594 1357.58 261.594C1352.58 261.594 1348.28 262.453 1344.69 264.172C1341.09 265.812 1338.09 268.117 1335.66 271.086C1333.24 274.055 1331.37 277.531 1330.04 281.516C1328.71 285.422 1327.77 289.68 1327.23 294.289V317.023C1328.16 322.648 1329.77 327.805 1332.03 332.492C1334.3 337.18 1337.5 340.93 1341.64 343.742C1345.86 346.477 1351.25 347.844 1357.81 347.844C1362.89 347.844 1367.23 346.75 1370.82 344.562C1374.41 342.375 1377.34 339.367 1379.61 335.539C1381.95 331.633 1383.67 327.141 1384.77 322.062C1385.86 316.984 1386.41 311.594 1386.41 305.891Z" fill="white"/>
<path d="M2149.06 254.469L2165.16 282.516L2181.56 254.469H2202.27L2176.64 295.953L2203.28 339H2182.58L2165.39 309.781L2148.2 339H2127.42L2153.98 295.953L2128.44 254.469H2149.06ZM2292.42 298.453V313.453H2210.39L2209.77 302.125L2258.83 225.25H2273.91L2257.58 253.219L2229.38 298.453H2292.42ZM2278.2 225.25V339H2259.38V225.25H2278.2ZM2323.75 320.875L2323.67 334.312C2323.67 339.625 2322.34 345.094 2319.69 350.719C2317.03 356.344 2313.52 360.979 2309.14 364.625L2299.06 358.766C2300.52 356.422 2301.85 354.052 2303.05 351.656C2304.24 349.26 2305.21 346.708 2305.94 344C2306.67 341.292 2307.03 338.297 2307.03 335.016V320.875H2323.75ZM2362.89 273.609H2374.14C2378.52 273.609 2382.14 272.854 2385 271.344C2387.92 269.833 2390.08 267.75 2391.48 265.094C2392.89 262.438 2393.59 259.391 2393.59 255.953C2393.59 252.359 2392.94 249.286 2391.64 246.734C2390.39 244.13 2388.46 242.125 2385.86 240.719C2383.31 239.312 2380.05 238.609 2376.09 238.609C2372.76 238.609 2369.74 239.286 2367.03 240.641C2364.38 241.943 2362.27 243.818 2360.7 246.266C2359.14 248.661 2358.36 251.526 2358.36 254.859H2339.45C2339.45 248.818 2341.04 243.453 2344.22 238.766C2347.4 234.078 2351.72 230.406 2357.19 227.75C2362.71 225.042 2368.91 223.688 2375.78 223.688C2383.12 223.688 2389.53 224.911 2395 227.359C2400.52 229.755 2404.82 233.349 2407.89 238.141C2410.96 242.932 2412.5 248.87 2412.5 255.953C2412.5 259.182 2411.74 262.464 2410.23 265.797C2408.72 269.13 2406.48 272.177 2403.52 274.938C2400.55 277.646 2396.85 279.859 2392.42 281.578C2387.99 283.245 2382.86 284.078 2377.03 284.078H2362.89V273.609ZM2362.89 288.297V277.984H2377.03C2383.7 277.984 2389.38 278.766 2394.06 280.328C2398.8 281.891 2402.66 284.052 2405.62 286.812C2408.59 289.521 2410.76 292.62 2412.11 296.109C2413.52 299.599 2414.22 303.297 2414.22 307.203C2414.22 312.516 2413.26 317.255 2411.33 321.422C2409.45 325.536 2406.77 329.026 2403.28 331.891C2399.79 334.755 2395.7 336.917 2391.02 338.375C2386.38 339.833 2381.33 340.562 2375.86 340.562C2370.96 340.562 2366.28 339.885 2361.8 338.531C2357.32 337.177 2353.31 335.172 2349.77 332.516C2346.22 329.807 2343.41 326.448 2341.33 322.438C2339.3 318.375 2338.28 313.688 2338.28 308.375H2357.11C2357.11 311.76 2357.89 314.755 2359.45 317.359C2361.07 319.911 2363.31 321.917 2366.17 323.375C2369.09 324.833 2372.42 325.562 2376.17 325.562C2380.13 325.562 2383.54 324.859 2386.41 323.453C2389.27 322.047 2391.46 319.964 2392.97 317.203C2394.53 314.443 2395.31 311.109 2395.31 307.203C2395.31 302.776 2394.45 299.182 2392.73 296.422C2391.02 293.661 2388.57 291.63 2385.39 290.328C2382.21 288.974 2378.46 288.297 2374.14 288.297H2362.89ZM2451.48 286.109L2436.48 282.438L2442.66 225.25H2503.98V241.188H2458.28L2455.16 269.078C2456.93 268.036 2459.38 267.021 2462.5 266.031C2465.62 264.99 2469.19 264.469 2473.2 264.469C2478.57 264.469 2483.36 265.354 2487.58 267.125C2491.85 268.844 2495.47 271.37 2498.44 274.703C2501.41 277.984 2503.67 281.995 2505.23 286.734C2506.8 291.422 2507.58 296.708 2507.58 302.594C2507.58 307.854 2506.8 312.776 2505.23 317.359C2503.72 321.943 2501.43 325.979 2498.36 329.469C2495.29 332.958 2491.41 335.693 2486.72 337.672C2482.08 339.599 2476.59 340.562 2470.23 340.562C2465.49 340.562 2460.94 339.885 2456.56 338.531C2452.24 337.125 2448.36 335.068 2444.92 332.359C2441.48 329.599 2438.72 326.214 2436.64 322.203C2434.56 318.141 2433.36 313.479 2433.05 308.219H2451.48C2451.95 311.917 2452.97 315.068 2454.53 317.672C2456.15 320.224 2458.28 322.177 2460.94 323.531C2463.59 324.885 2466.67 325.562 2470.16 325.562C2473.33 325.562 2476.07 325.016 2478.36 323.922C2480.65 322.776 2482.55 321.161 2484.06 319.078C2485.62 316.943 2486.77 314.443 2487.5 311.578C2488.28 308.714 2488.67 305.536 2488.67 302.047C2488.67 298.714 2488.23 295.667 2487.34 292.906C2486.51 290.146 2485.23 287.75 2483.52 285.719C2481.85 283.688 2479.74 282.125 2477.19 281.031C2474.64 279.885 2471.69 279.312 2468.36 279.312C2463.88 279.312 2460.44 279.964 2458.05 281.266C2455.7 282.568 2453.52 284.182 2451.48 286.109Z" fill="#F0F0F0"/>
<rect x="125" y="125" width="320" height="320" rx="75" fill="#696969"/>
<path fill-rule="evenodd" clip-rule="evenodd" d="M352.097 180.014C357.557 180.014 361.996 184.452 361.996 189.912V208.013H380.099C382.057 208.012 383.971 208.593 385.6 209.68C387.228 210.768 388.497 212.314 389.246 214.122C389.996 215.931 390.192 217.922 389.81 219.842C389.428 221.762 388.484 223.526 387.1 224.91L366.658 245.349C363.673 248.327 359.631 250.003 355.415 250.011H334.833L285.41 299.429C283.419 301.283 280.786 302.293 278.066 302.245C275.345 302.197 272.75 301.095 270.826 299.171C268.902 297.248 267.8 294.652 267.752 291.932C267.704 289.212 268.713 286.58 270.568 284.589L319.992 235.172V214.593C319.992 210.379 321.672 206.333 324.655 203.337L345.096 182.898C346.012 181.975 347.103 181.243 348.305 180.745C349.507 180.248 350.796 179.994 352.097 180M200.983 292.009C200.981 280.593 203.519 269.32 208.411 259.005C213.304 248.69 220.429 239.592 229.271 232.37C238.113 225.148 248.451 219.982 259.535 217.246C270.62 214.51 282.175 214.273 293.362 216.552C296.077 217.07 298.887 216.497 301.182 214.957C303.477 213.417 305.073 211.034 305.622 208.325C306.171 205.616 305.63 202.8 304.116 200.488C302.602 198.176 300.237 196.554 297.534 195.973C276.892 191.777 255.447 194.342 236.377 203.289C217.307 212.235 201.628 227.087 191.662 245.643C181.696 264.199 177.975 285.471 181.05 306.307C184.124 327.144 193.831 346.435 208.731 361.323C223.632 376.211 242.933 385.902 263.774 388.961C284.615 392.02 305.888 388.283 324.439 378.305C342.989 368.327 357.831 352.639 366.765 333.565C375.699 314.491 378.249 293.047 374.037 272.41C373.481 269.681 371.865 267.284 369.542 265.747C367.22 264.21 364.382 263.658 361.653 264.213C358.923 264.768 356.526 266.385 354.989 268.707C353.452 271.029 352.9 273.867 353.455 276.596C354.472 281.57 354.986 286.708 354.995 292.009C354.995 312.43 346.882 332.014 332.44 346.454C317.999 360.893 298.412 369.006 277.989 369.006C257.566 369.006 237.979 360.893 223.537 346.454C209.096 332.014 200.983 312.43 200.983 292.009ZM276.085 257.067C278.866 256.918 281.474 255.671 283.336 253.599C285.198 251.528 286.16 248.802 286.012 246.021C285.863 243.24 284.616 240.632 282.544 238.771C280.472 236.909 277.746 235.947 274.965 236.096C264.211 236.675 253.852 240.342 245.13 246.658C236.407 252.974 229.691 261.671 225.786 271.706C221.881 281.741 220.952 292.69 223.111 303.239C225.27 313.789 230.426 323.492 237.96 331.187C245.494 338.881 255.087 344.24 265.59 346.622C276.093 349.004 287.06 348.308 297.177 344.616C307.294 340.925 316.132 334.395 322.632 325.81C329.132 317.224 333.018 306.947 333.825 296.209C334.031 293.432 333.126 290.686 331.307 288.577C329.489 286.467 326.907 285.166 324.13 284.96C321.352 284.754 318.606 285.66 316.497 287.478C314.387 289.296 313.086 291.878 312.88 294.655C312.369 301.363 309.936 307.781 305.871 313.142C301.807 318.502 296.283 322.578 289.962 324.882C283.641 327.185 276.789 327.618 270.228 326.128C263.667 324.639 257.675 321.29 252.968 316.484C248.261 311.677 245.039 305.616 243.688 299.026C242.337 292.436 242.914 285.596 245.35 279.326C247.786 273.055 251.978 267.619 257.424 263.669C262.87 259.719 269.339 257.422 276.057 257.053" fill="#0F0F0F"/>
<defs>
<linearGradient id="paint0_linear_3296_10431" x1="0" y1="285" x2="2700" y2="285" gradientUnits="userSpaceOnUse">
<stop stop-color="#212121"/>
<stop offset="1" stop-color="#131313"/>
</linearGradient>
</defs>
</svg>
