<svg width="64" height="64" viewBox="0 0 64 64" fill="none" xmlns="http://www.w3.org/2000/svg">
<rect width="64" height="64" rx="15" fill="url(#paint0_linear_4135_12020)"/>
<path fill-rule="evenodd" clip-rule="evenodd" d="M45.4194 11.0028C46.5115 11.0028 47.3991 11.8904 47.3991 12.9823V16.6026H51.0198C51.4114 16.6025 51.7943 16.7185 52.1199 16.936C52.4456 17.1535 52.6994 17.4627 52.8493 17.8245C52.9992 18.1863 53.0384 18.5843 52.9619 18.9684C52.8855 19.3524 52.6969 19.7052 52.4199 19.982L48.3316 24.0698C47.7347 24.6654 46.9263 25.0006 46.083 25.0022H41.9667L32.0819 34.8857C31.6838 35.2567 31.1572 35.4586 30.6131 35.449C30.069 35.4394 29.5499 35.219 29.1651 34.8343C28.7803 34.4495 28.5599 33.9305 28.5503 33.3865C28.5407 32.8425 28.7427 32.3159 29.1137 31.9179L38.9985 22.0343V17.9185C38.9985 17.0757 39.3345 16.2666 39.9309 15.6674L44.0193 11.5796C44.2025 11.3949 44.4207 11.2486 44.661 11.1491C44.9014 11.0495 45.1592 10.9989 45.4194 11M15.1966 33.4018C15.1963 31.1186 15.7037 28.8639 16.6822 26.801C17.6607 24.738 19.0858 22.9185 20.8542 21.474C22.6226 20.0295 24.6901 18.9963 26.9071 18.4492C29.124 17.9021 31.4349 17.8547 33.6724 18.3105C34.2155 18.4141 34.7774 18.2994 35.2365 17.9914C35.6955 17.6833 36.0145 17.2067 36.1244 16.665C36.2342 16.1233 36.126 15.5601 35.8232 15.0976C35.5204 14.6351 35.0474 14.3107 34.5069 14.1947C30.3784 13.3554 26.0894 13.8685 22.2754 15.6578C18.4615 17.4471 15.3255 20.4174 13.3324 24.1286C11.3393 27.8397 10.595 32.0942 11.2099 36.2615C11.8248 40.4288 13.7662 44.2871 16.7463 47.2646C19.7263 50.2421 23.5866 52.1804 27.7548 52.7922C31.9231 53.404 36.1775 52.6567 39.8877 50.6611C43.5979 48.6655 46.5663 45.5278 48.353 41.713C50.1397 37.8982 50.6497 33.6093 49.8073 29.482C49.6963 28.9362 49.373 28.4569 48.9085 28.1494C48.444 27.842 47.8764 27.7316 47.3305 27.8427C46.7847 27.9537 46.3053 28.277 45.9978 28.7414C45.6903 29.2058 45.58 29.7734 45.691 30.3191C45.8945 31.314 45.9971 32.3416 45.999 33.4018C45.999 37.486 44.3764 41.4028 41.4881 44.2908C38.5998 47.1787 34.6824 48.8011 30.5978 48.8011C26.5131 48.8011 22.5958 47.1787 19.7075 44.2908C16.8192 41.4028 15.1966 37.486 15.1966 33.4018ZM30.217 26.4133C30.7732 26.3836 31.2949 26.1342 31.6672 25.7199C32.0395 25.3056 32.232 24.7604 32.2023 24.2042C32.1726 23.648 31.9231 23.1264 31.5088 22.7541C31.0945 22.3819 30.5492 22.1894 29.9929 22.2191C27.8422 22.335 25.7704 23.0685 24.0259 24.3317C22.2814 25.5949 20.9382 27.3342 20.1571 29.3412C19.3761 31.3483 19.1904 33.538 19.6222 35.6479C20.0541 37.7578 21.0852 39.6984 22.592 41.2373C24.0988 42.7762 26.0175 43.8481 28.118 44.3244C30.2186 44.8008 32.4119 44.6615 34.4353 43.9233C36.4587 43.185 38.2263 41.8791 39.5263 40.162C40.8264 38.4448 41.6036 36.3893 41.7651 34.2418C41.8063 33.6863 41.6251 33.1373 41.2615 32.7154C40.8978 32.2935 40.3814 32.0333 39.8259 31.9921C39.2704 31.9509 38.7213 32.132 38.2993 32.4956C37.8774 32.8592 37.6172 33.3755 37.5759 33.931C37.4738 35.2725 36.9872 36.5562 36.1743 37.6283C35.3614 38.7005 34.2566 39.5157 32.9924 39.9763C31.7281 40.4369 30.3579 40.5235 29.0457 40.2256C27.7335 39.9278 26.535 39.2581 25.5936 38.2968C24.6522 37.3354 24.0078 36.1232 23.7376 34.8052C23.4674 33.4872 23.5828 32.1193 24.0701 30.8651C24.5573 29.611 25.3957 28.5239 26.4848 27.7338C27.574 26.9438 28.8678 26.4844 30.2114 26.4105" fill="white"/>
<defs>
<linearGradient id="paint0_linear_4135_12020" x1="0" y1="32" x2="64" y2="32" gradientUnits="userSpaceOnUse">
<stop stop-color="#7666C4"/>
<stop offset="1" stop-color="#E39359"/>
</linearGradient>
</defs>
</svg>
