<svg width="5550" height="750" viewBox="0 0 5550 750" fill="none" xmlns="http://www.w3.org/2000/svg">
<rect width="5550" height="750" rx="100" fill="url(#paint0_linear_3368_10357)"/>
<path d="M2143.05 404.139H2173.56C2172.59 415.776 2169.33 426.152 2163.8 435.267C2158.26 444.3 2150.49 451.421 2140.48 456.629C2130.47 461.837 2118.31 464.441 2103.98 464.441C2093 464.441 2083.11 462.488 2074.32 458.582C2065.53 454.594 2058 448.979 2051.74 441.736C2045.47 434.412 2040.67 425.582 2037.33 415.247C2034.08 404.912 2032.45 393.356 2032.45 380.579V365.809C2032.45 353.032 2034.12 341.476 2037.46 331.141C2040.87 320.805 2045.76 311.976 2052.1 304.651C2058.45 297.246 2066.06 291.59 2074.93 287.684C2083.88 283.777 2093.93 281.824 2105.08 281.824C2119.24 281.824 2131.21 284.428 2140.97 289.637C2150.74 294.845 2158.31 302.047 2163.68 311.243C2169.13 320.439 2172.47 330.978 2173.69 342.859H2143.17C2142.36 335.21 2140.56 328.659 2137.8 323.206C2135.11 317.754 2131.12 313.603 2125.83 310.755C2120.55 307.825 2113.63 306.36 2105.08 306.36C2098.08 306.36 2091.98 307.662 2086.77 310.267C2081.56 312.871 2077.21 316.696 2073.71 321.741C2070.21 326.787 2067.57 333.012 2065.78 340.418C2064.07 347.742 2063.21 356.124 2063.21 365.564V380.579C2063.21 389.531 2063.99 397.669 2065.53 404.993C2067.16 412.236 2069.6 418.462 2072.86 423.67C2076.19 428.878 2080.42 432.907 2085.55 435.755C2090.68 438.603 2096.82 440.027 2103.98 440.027C2112.69 440.027 2119.73 438.644 2125.1 435.877C2130.56 433.11 2134.66 429.082 2137.43 423.792C2140.28 418.421 2142.15 411.87 2143.05 404.139ZM2222.39 329.92H2251.81L2250.35 376.429C2249.94 389.938 2248.39 401.535 2245.71 411.219C2243.02 420.903 2239.52 429.082 2235.21 435.755C2230.9 442.347 2226.01 447.758 2220.56 451.99C2215.19 456.222 2209.53 459.559 2203.59 462H2194.93V438.807L2199.08 438.562C2202.58 434.819 2205.59 431.076 2208.11 427.332C2210.71 423.507 2212.91 419.316 2214.7 414.759C2216.49 410.12 2217.88 404.708 2218.85 398.523C2219.91 392.339 2220.6 384.974 2220.93 376.429L2222.39 329.92ZM2230.21 329.92H2313.95V462H2284.65V354.822H2230.21V329.92ZM2188.21 438.562H2332.01V501.307H2302.59V462H2218V501.307H2188.09L2188.21 438.562ZM2411.24 464.441C2401.47 464.441 2392.64 462.854 2384.75 459.681C2376.93 456.425 2370.26 451.909 2364.73 446.131C2359.27 440.353 2355.08 433.558 2352.15 425.745C2349.22 417.933 2347.76 409.51 2347.76 400.477V395.594C2347.76 385.258 2349.26 375.9 2352.28 367.518C2355.29 359.135 2359.48 351.974 2364.85 346.033C2370.22 340.011 2376.57 335.413 2383.89 332.239C2391.22 329.065 2399.15 327.479 2407.7 327.479C2417.14 327.479 2425.4 329.065 2432.48 332.239C2439.56 335.413 2445.42 339.889 2450.05 345.667C2454.77 351.364 2458.27 358.159 2460.55 366.053C2462.91 373.947 2464.09 382.654 2464.09 392.176V404.749H2362.04V383.631H2435.04V381.312C2434.88 376.022 2433.82 371.058 2431.87 366.419C2429.99 361.78 2427.1 358.037 2423.2 355.188C2419.29 352.34 2414.08 350.916 2407.57 350.916C2402.69 350.916 2398.34 351.974 2394.51 354.09C2390.77 356.124 2387.64 359.095 2385.11 363.001C2382.59 366.907 2380.64 371.627 2379.25 377.161C2377.95 382.614 2377.3 388.758 2377.3 395.594V400.477C2377.3 406.255 2378.07 411.626 2379.62 416.59C2381.25 421.473 2383.61 425.745 2386.7 429.407C2389.79 433.069 2393.54 435.958 2397.93 438.074C2402.32 440.109 2407.33 441.126 2412.94 441.126C2420.02 441.126 2426.33 439.702 2431.87 436.854C2437.4 434.005 2442.2 429.977 2446.27 424.769L2461.77 439.783C2458.92 443.934 2455.22 447.921 2450.66 451.746C2446.11 455.49 2440.53 458.541 2433.94 460.901C2427.43 463.261 2419.86 464.441 2411.24 464.441ZM2575.79 329.92V353.357H2511.33V329.92H2575.79ZM2598.86 329.92V462H2569.44V329.92H2598.86ZM2504.13 329.92H2533.18L2529.64 395.228C2529.16 404.912 2528.18 413.457 2526.71 420.862C2525.33 428.187 2523.46 434.493 2521.1 439.783C2518.74 444.992 2515.85 449.223 2512.43 452.479C2509.01 455.734 2505.03 458.134 2500.47 459.681C2495.91 461.227 2490.78 462 2485.09 462H2475.93L2475.81 437.83L2480.45 437.464C2483.46 437.22 2486.06 436.447 2488.26 435.145C2490.46 433.761 2492.33 431.808 2493.88 429.285C2495.5 426.762 2496.81 423.507 2497.78 419.52C2498.84 415.532 2499.65 410.812 2500.22 405.359C2500.88 399.907 2501.36 393.559 2501.69 386.316L2504.13 329.92ZM2704.57 435.511V372.522C2704.57 367.802 2703.72 363.733 2702.01 360.315C2700.3 356.897 2697.69 354.253 2694.19 352.381C2690.78 350.509 2686.46 349.573 2681.25 349.573C2676.45 349.573 2672.3 350.387 2668.8 352.015C2665.3 353.642 2662.58 355.84 2660.62 358.606C2658.67 361.373 2657.7 364.507 2657.7 368.006H2628.4C2628.4 362.798 2629.66 357.752 2632.18 352.869C2634.71 347.986 2638.37 343.632 2643.17 339.808C2647.97 335.983 2653.71 332.972 2660.38 330.774C2667.05 328.577 2674.54 327.479 2682.84 327.479C2692.77 327.479 2701.56 329.147 2709.21 332.483C2716.94 335.82 2723 340.866 2727.4 347.62C2731.87 354.293 2734.11 362.675 2734.11 372.767V431.482C2734.11 437.505 2734.52 442.916 2735.33 447.718C2736.23 452.438 2737.49 456.548 2739.12 460.047V462H2708.96C2707.58 458.826 2706.48 454.798 2705.67 449.915C2704.94 444.951 2704.57 440.149 2704.57 435.511ZM2708.84 381.678L2709.09 399.866H2687.97C2682.52 399.866 2677.71 400.395 2673.56 401.453C2669.41 402.43 2665.96 403.895 2663.19 405.848C2660.42 407.801 2658.35 410.161 2656.96 412.928C2655.58 415.695 2654.89 418.828 2654.89 422.327C2654.89 425.826 2655.7 429.041 2657.33 431.971C2658.96 434.819 2661.32 437.057 2664.41 438.685C2667.58 440.312 2671.41 441.126 2675.88 441.126C2681.91 441.126 2687.15 439.905 2691.63 437.464C2696.19 434.941 2699.77 431.889 2702.37 428.309C2704.98 424.646 2706.36 421.188 2706.52 417.933L2716.04 430.994C2715.07 434.331 2713.4 437.911 2711.04 441.736C2708.68 445.561 2705.59 449.223 2701.76 452.723C2698.02 456.141 2693.5 458.948 2688.21 461.146C2683 463.343 2676.98 464.441 2670.15 464.441C2661.52 464.441 2653.83 462.732 2647.08 459.314C2640.32 455.815 2635.03 451.136 2631.21 445.276C2627.38 439.336 2625.47 432.622 2625.47 425.135C2625.47 418.136 2626.77 411.951 2629.38 406.58C2632.06 401.128 2635.97 396.57 2641.09 392.908C2646.3 389.246 2652.65 386.479 2660.14 384.607C2667.62 382.654 2676.17 381.678 2685.77 381.678H2708.84ZM2824.2 329.92V462H2794.66V329.92H2824.2ZM2867.53 329.92V353.113H2752.06V329.92H2867.53ZM2909.04 371.912H2947.98C2959.37 371.912 2969.06 373.825 2977.03 377.649C2985.01 381.474 2991.07 386.805 2995.22 393.641C2999.45 400.395 3001.57 408.126 3001.57 416.834C3001.57 423.263 3000.39 429.244 2998.03 434.778C2995.67 440.231 2992.17 444.992 2987.53 449.061C2982.97 453.13 2977.36 456.303 2970.68 458.582C2964.09 460.861 2956.52 462 2947.98 462H2889.51V329.92H2919.05V438.685H2947.98C2953.84 438.685 2958.52 437.667 2962.02 435.633C2965.52 433.598 2968.04 430.953 2969.58 427.698C2971.21 424.443 2972.03 420.984 2972.03 417.322C2972.03 413.579 2971.21 410.039 2969.58 406.702C2968.04 403.366 2965.52 400.639 2962.02 398.523C2958.52 396.408 2953.84 395.35 2947.98 395.35H2909.04V371.912ZM3195.29 404.139H3225.81C3224.83 415.776 3221.58 426.152 3216.04 435.267C3210.51 444.3 3202.74 451.421 3192.73 456.629C3182.72 461.837 3170.55 464.441 3156.23 464.441C3145.24 464.441 3135.36 462.488 3126.57 458.582C3117.78 454.594 3110.25 448.979 3103.98 441.736C3097.72 434.412 3092.92 425.582 3089.58 415.247C3086.32 404.912 3084.7 393.356 3084.7 380.579V365.809C3084.7 353.032 3086.37 341.476 3089.7 331.141C3093.12 320.805 3098 311.976 3104.35 304.651C3110.7 297.246 3118.31 291.59 3127.18 287.684C3136.13 283.777 3146.18 281.824 3157.33 281.824C3171.49 281.824 3183.45 284.428 3193.22 289.637C3202.98 294.845 3210.55 302.047 3215.92 311.243C3221.38 320.439 3224.71 330.978 3225.93 342.859H3195.42C3194.6 335.21 3192.81 328.659 3190.04 323.206C3187.36 317.754 3183.37 313.603 3178.08 310.755C3172.79 307.825 3165.87 306.36 3157.33 306.36C3150.33 306.36 3144.23 307.662 3139.02 310.267C3133.81 312.871 3129.46 316.696 3125.96 321.741C3122.46 326.787 3119.81 333.012 3118.02 340.418C3116.31 347.742 3115.46 356.124 3115.46 365.564V380.579C3115.46 389.531 3116.23 397.669 3117.78 404.993C3119.41 412.236 3121.85 418.462 3125.1 423.67C3128.44 428.878 3132.67 432.907 3137.8 435.755C3142.92 438.603 3149.07 440.027 3156.23 440.027C3164.94 440.027 3171.98 438.644 3177.35 435.877C3182.8 433.11 3186.91 429.082 3189.68 423.792C3192.53 418.421 3194.4 411.87 3195.29 404.139ZM3311.99 329.92V462H3282.45V329.92H3311.99ZM3355.33 329.92V353.113H3239.85V329.92H3355.33ZM3447.49 435.511V372.522C3447.49 367.802 3446.64 363.733 3444.93 360.315C3443.22 356.897 3440.61 354.253 3437.11 352.381C3433.7 350.509 3429.38 349.573 3424.17 349.573C3419.37 349.573 3415.22 350.387 3411.72 352.015C3408.22 353.642 3405.5 355.84 3403.54 358.606C3401.59 361.373 3400.62 364.507 3400.62 368.006H3371.32C3371.32 362.798 3372.58 357.752 3375.1 352.869C3377.63 347.986 3381.29 343.632 3386.09 339.808C3390.89 335.983 3396.63 332.972 3403.3 330.774C3409.97 328.577 3417.46 327.479 3425.76 327.479C3435.69 327.479 3444.48 329.147 3452.13 332.483C3459.86 335.82 3465.92 340.866 3470.32 347.62C3474.79 354.293 3477.03 362.675 3477.03 372.767V431.482C3477.03 437.505 3477.44 442.916 3478.25 447.718C3479.15 452.438 3480.41 456.548 3482.04 460.047V462H3451.88C3450.5 458.826 3449.4 454.798 3448.59 449.915C3447.86 444.951 3447.49 440.149 3447.49 435.511ZM3451.76 381.678L3452.01 399.866H3430.89C3425.44 399.866 3420.63 400.395 3416.48 401.453C3412.33 402.43 3408.88 403.895 3406.11 405.848C3403.34 407.801 3401.27 410.161 3399.88 412.928C3398.5 415.695 3397.81 418.828 3397.81 422.327C3397.81 425.826 3398.62 429.041 3400.25 431.971C3401.88 434.819 3404.24 437.057 3407.33 438.685C3410.5 440.312 3414.33 441.126 3418.8 441.126C3424.83 441.126 3430.07 439.905 3434.55 437.464C3439.11 434.941 3442.69 431.889 3445.29 428.309C3447.9 424.646 3449.28 421.188 3449.44 417.933L3458.96 430.994C3457.99 434.331 3456.32 437.911 3453.96 441.736C3451.6 445.561 3448.51 449.223 3444.68 452.723C3440.94 456.141 3436.42 458.948 3431.13 461.146C3425.92 463.343 3419.9 464.441 3413.07 464.441C3404.44 464.441 3396.75 462.732 3390 459.314C3383.24 455.815 3377.95 451.136 3374.13 445.276C3370.3 439.336 3368.39 432.622 3368.39 425.135C3368.39 418.136 3369.69 411.951 3372.29 406.58C3374.98 401.128 3378.89 396.57 3384.01 392.908C3389.22 389.246 3395.57 386.479 3403.06 384.607C3410.54 382.654 3419.09 381.678 3428.69 381.678H3451.76ZM3572 405.481H3529.77L3529.52 384.729H3564.19C3569.89 384.729 3574.57 384.16 3578.23 383.021C3581.97 381.881 3584.74 380.172 3586.53 377.894C3588.32 375.534 3589.21 372.685 3589.21 369.349C3589.21 366.582 3588.68 364.181 3587.63 362.146C3586.57 360.031 3584.94 358.322 3582.74 357.02C3580.63 355.636 3577.94 354.66 3574.69 354.09C3571.51 353.439 3567.81 353.113 3563.58 353.113H3539.53V462H3510.11V329.92H3563.58C3572.04 329.92 3579.65 330.652 3586.41 332.117C3593.24 333.582 3599.06 335.82 3603.86 338.831C3608.66 341.842 3612.33 345.667 3614.85 350.306C3617.45 354.863 3618.75 360.234 3618.75 366.419C3618.75 370.488 3617.86 374.313 3616.07 377.894C3614.36 381.474 3611.8 384.648 3608.38 387.415C3604.96 390.182 3600.77 392.461 3595.81 394.251C3590.84 395.96 3585.14 397.018 3578.72 397.425L3572 405.481ZM3572 462H3521.22L3532.94 438.807H3572C3577.21 438.807 3581.52 438.156 3584.94 436.854C3588.36 435.551 3590.88 433.68 3592.51 431.238C3594.22 428.715 3595.07 425.745 3595.07 422.327C3595.07 418.828 3594.26 415.817 3592.63 413.294C3591 410.771 3588.48 408.859 3585.06 407.557C3581.73 406.173 3577.37 405.481 3572 405.481H3538.43L3538.68 384.729H3578.59L3587.02 392.786C3595.4 393.356 3602.36 395.146 3607.89 398.157C3613.42 401.168 3617.57 404.952 3620.34 409.51C3623.11 414.067 3624.49 419.031 3624.49 424.402C3624.49 430.587 3623.31 436.04 3620.95 440.76C3618.67 445.48 3615.26 449.427 3610.7 452.601C3606.22 455.693 3600.73 458.053 3594.22 459.681C3587.71 461.227 3580.3 462 3572 462ZM3681.62 329.92V462H3652.2V329.92H3681.62ZM3767.8 329.92L3708.35 409.388H3674.79L3670.88 382.776H3695.42L3731.06 329.92H3767.8ZM3733.38 462L3693.58 404.383L3716.78 387.659L3772.08 462H3733.38ZM3826.4 447.596L3862.29 329.92H3893.78L3840.8 482.142C3839.58 485.397 3837.99 488.937 3836.04 492.762C3834.09 496.587 3831.52 500.208 3828.35 503.626C3825.26 507.125 3821.39 509.933 3816.75 512.049C3812.11 514.246 3806.5 515.345 3799.91 515.345C3797.3 515.345 3794.78 515.101 3792.34 514.612C3789.98 514.205 3787.74 513.758 3785.62 513.27L3785.5 490.809C3786.32 490.89 3787.29 490.971 3788.43 491.053C3789.65 491.134 3790.63 491.175 3791.36 491.175C3796.25 491.175 3800.31 490.564 3803.57 489.344C3806.82 488.204 3809.47 486.333 3811.5 483.729C3813.62 481.124 3815.41 477.625 3816.88 473.23L3826.4 447.596ZM3806.13 329.92L3837.5 428.797L3842.75 459.803L3822.37 465.052L3774.39 329.92H3806.13Z" fill="url(#paint1_linear_3368_10357)"/>
<path fill-rule="evenodd" clip-rule="evenodd" d="M1871.27 245.018C1878.29 245.018 1883.99 250.724 1883.99 257.744V281.016H1907.27C1909.79 281.016 1912.25 281.762 1914.34 283.16C1916.44 284.558 1918.07 286.546 1919.03 288.872C1919.99 291.197 1920.25 293.756 1919.76 296.225C1919.26 298.694 1918.05 300.962 1916.27 302.742L1889.99 329.02C1886.15 332.849 1880.95 335.004 1875.53 335.014H1849.07L1785.53 398.551C1782.97 400.936 1779.58 402.234 1776.08 402.172C1772.59 402.11 1769.25 400.694 1766.78 398.22C1764.3 395.747 1762.89 392.41 1762.82 388.913C1762.76 385.416 1764.06 382.031 1766.44 379.472L1829.99 315.935V289.476C1829.99 284.058 1832.15 278.857 1835.98 275.005L1862.27 248.726C1863.44 247.539 1864.85 246.598 1866.39 245.958C1867.94 245.319 1869.59 244.993 1871.27 245M1676.98 389.012C1676.98 374.334 1680.24 359.839 1686.53 346.578C1692.82 333.316 1701.98 321.619 1713.35 312.333C1724.72 303.047 1738.01 296.405 1752.26 292.888C1766.51 289.37 1781.37 289.066 1795.75 291.996C1799.24 292.662 1802.85 291.925 1805.81 289.945C1808.76 287.964 1810.81 284.9 1811.51 281.418C1812.22 277.935 1811.52 274.315 1809.58 271.342C1807.63 268.369 1804.59 266.283 1801.12 265.537C1774.58 260.142 1747 263.44 1722.48 274.943C1697.97 286.445 1677.81 305.54 1664.99 329.398C1652.18 353.255 1647.4 380.606 1651.35 407.395C1655.3 434.185 1667.78 458.988 1686.94 478.13C1706.1 497.271 1730.91 509.731 1757.71 513.664C1784.51 517.597 1811.86 512.793 1835.71 499.964C1859.56 487.135 1878.64 466.964 1890.13 442.441C1901.61 417.917 1904.89 390.346 1899.48 363.813C1898.76 360.304 1896.68 357.223 1893.7 355.246C1890.71 353.27 1887.06 352.561 1883.55 353.274C1880.04 353.988 1876.96 356.066 1874.99 359.052C1873.01 362.037 1872.3 365.686 1873.01 369.195C1874.32 375.59 1874.98 382.196 1874.99 389.012C1874.99 415.267 1864.56 440.447 1845.99 459.012C1827.43 477.577 1802.24 488.007 1775.99 488.007C1749.73 488.007 1724.54 477.577 1705.98 459.012C1687.41 440.447 1676.98 415.267 1676.98 389.012ZM1773.54 344.086C1777.11 343.895 1780.47 342.291 1782.86 339.628C1785.25 336.965 1786.49 333.46 1786.3 329.884C1786.11 326.309 1784.51 322.956 1781.84 320.562C1779.18 318.169 1775.67 316.932 1772.1 317.123C1758.27 317.868 1744.95 322.583 1733.74 330.704C1722.52 338.824 1713.89 350.006 1708.87 362.908C1703.85 375.81 1702.65 389.887 1705.43 403.451C1708.2 417.014 1714.83 429.49 1724.52 439.383C1734.21 449.276 1746.54 456.166 1760.04 459.229C1773.55 462.291 1787.65 461.396 1800.66 456.65C1813.66 451.904 1825.03 443.508 1833.38 432.47C1841.74 421.431 1846.74 408.217 1847.78 394.411C1848.04 390.841 1846.88 387.311 1844.54 384.599C1842.2 381.886 1838.88 380.214 1835.31 379.949C1831.74 379.684 1828.21 380.848 1825.5 383.186C1822.78 385.524 1821.11 388.843 1820.85 392.413C1820.19 401.038 1817.06 409.29 1811.83 416.182C1806.61 423.075 1799.51 428.315 1791.38 431.276C1783.25 434.237 1774.44 434.794 1766.01 432.879C1757.57 430.964 1749.87 426.659 1743.82 420.479C1737.76 414.299 1733.62 406.506 1731.88 398.034C1730.15 389.561 1730.89 380.767 1734.02 372.704C1737.15 364.642 1742.54 357.653 1749.55 352.575C1756.55 347.496 1764.86 344.542 1773.5 344.068" fill="#7666C4"/>
<defs>
<linearGradient id="paint0_linear_3368_10357" x1="0" y1="375" x2="5550" y2="375" gradientUnits="userSpaceOnUse">
<stop stop-color="#212121"/>
<stop offset="1" stop-color="#131313"/>
</linearGradient>
<linearGradient id="paint1_linear_3368_10357" x1="2020" y1="376.5" x2="3896" y2="376.5" gradientUnits="userSpaceOnUse">
<stop stop-color="#7666C4"/>
<stop offset="1" stop-color="#E39359" stop-opacity="0.9"/>
</linearGradient>
</defs>
</svg>
