<svg width="2700" height="570" viewBox="0 0 2700 570" fill="none" xmlns="http://www.w3.org/2000/svg">
<rect width="2700" height="570" rx="125" fill="url(#paint0_linear_3296_10301)"/>
<path d="M772.227 197.375V368H742.93V197.375H772.227ZM874.883 197.375L805.508 294.641H763.906L759.922 269.094H789.219L838.906 197.375H874.883ZM844.883 368L789.688 290.188L808.672 267.57L880.156 368H844.883ZM920.703 265.578V416.75H892.461V241.203H918.477L920.703 265.578ZM1003.32 303.43V305.891C1003.32 315.109 1002.23 323.664 1000.04 331.555C997.93 339.367 994.766 346.203 990.547 352.062C986.406 357.844 981.289 362.336 975.195 365.539C969.102 368.742 962.07 370.344 954.102 370.344C946.211 370.344 939.297 368.898 933.359 366.008C927.5 363.039 922.539 358.859 918.477 353.469C914.414 348.078 911.133 341.75 908.633 334.484C906.211 327.141 904.492 319.094 903.477 310.344V300.852C904.492 291.555 906.211 283.117 908.633 275.539C911.133 267.961 914.414 261.438 918.477 255.969C922.539 250.5 927.5 246.281 933.359 243.312C939.219 240.344 946.055 238.859 953.867 238.859C961.836 238.859 968.906 240.422 975.078 243.547C981.25 246.594 986.445 250.969 990.664 256.672C994.883 262.297 998.047 269.094 1000.16 277.062C1002.27 284.953 1003.32 293.742 1003.32 303.43ZM975.078 305.891V303.43C975.078 297.57 974.531 292.141 973.438 287.141C972.344 282.062 970.625 277.609 968.281 273.781C965.938 269.953 962.93 266.984 959.258 264.875C955.664 262.688 951.328 261.594 946.25 261.594C941.25 261.594 936.953 262.453 933.359 264.172C929.766 265.812 926.758 268.117 924.336 271.086C921.914 274.055 920.039 277.531 918.711 281.516C917.383 285.422 916.445 289.68 915.898 294.289V317.023C916.836 322.648 918.438 327.805 920.703 332.492C922.969 337.18 926.172 340.93 930.312 343.742C934.531 346.477 939.922 347.844 946.484 347.844C951.562 347.844 955.898 346.75 959.492 344.562C963.086 342.375 966.016 339.367 968.281 335.539C970.625 331.633 972.344 327.141 973.438 322.062C974.531 316.984 975.078 311.594 975.078 305.891ZM1098.83 342.57V282.102C1098.83 277.57 1098.01 273.664 1096.37 270.383C1094.73 267.102 1092.23 264.562 1088.87 262.766C1085.59 260.969 1081.45 260.07 1076.45 260.07C1071.84 260.07 1067.85 260.852 1064.49 262.414C1061.13 263.977 1058.52 266.086 1056.64 268.742C1054.77 271.398 1053.83 274.406 1053.83 277.766H1025.7C1025.7 272.766 1026.91 267.922 1029.34 263.234C1031.76 258.547 1035.27 254.367 1039.88 250.695C1044.49 247.023 1050 244.133 1056.41 242.023C1062.81 239.914 1070 238.859 1077.97 238.859C1087.5 238.859 1095.94 240.461 1103.28 243.664C1110.7 246.867 1116.52 251.711 1120.74 258.195C1125.04 264.602 1127.19 272.648 1127.19 282.336V338.703C1127.19 344.484 1127.58 349.68 1128.36 354.289C1129.22 358.82 1130.43 362.766 1131.99 366.125V368H1103.05C1101.72 364.953 1100.66 361.086 1099.88 356.398C1099.18 351.633 1098.83 347.023 1098.83 342.57ZM1102.93 290.891L1103.16 308.352H1082.89C1077.66 308.352 1073.05 308.859 1069.06 309.875C1065.08 310.812 1061.76 312.219 1059.1 314.094C1056.45 315.969 1054.45 318.234 1053.12 320.891C1051.8 323.547 1051.13 326.555 1051.13 329.914C1051.13 333.273 1051.91 336.359 1053.48 339.172C1055.04 341.906 1057.3 344.055 1060.27 345.617C1063.32 347.18 1066.99 347.961 1071.29 347.961C1077.07 347.961 1082.11 346.789 1086.41 344.445C1090.78 342.023 1094.22 339.094 1096.72 335.656C1099.22 332.141 1100.55 328.82 1100.7 325.695L1109.84 338.234C1108.91 341.438 1107.3 344.875 1105.04 348.547C1102.77 352.219 1099.8 355.734 1096.13 359.094C1092.54 362.375 1088.2 365.07 1083.12 367.18C1078.12 369.289 1072.34 370.344 1065.78 370.344C1057.5 370.344 1050.12 368.703 1043.63 365.422C1037.15 362.062 1032.07 357.57 1028.4 351.945C1024.73 346.242 1022.89 339.797 1022.89 332.609C1022.89 325.891 1024.14 319.953 1026.64 314.797C1029.22 309.562 1032.97 305.188 1037.89 301.672C1042.89 298.156 1048.98 295.5 1056.17 293.703C1063.36 291.828 1071.56 290.891 1080.78 290.891H1102.93ZM1208.52 347.844C1213.12 347.844 1217.27 346.945 1220.94 345.148C1224.69 343.273 1227.7 340.695 1229.96 337.414C1232.3 334.133 1233.59 330.344 1233.83 326.047H1260.43C1260.27 334.25 1257.85 341.711 1253.16 348.43C1248.48 355.148 1242.27 360.5 1234.53 364.484C1226.8 368.391 1218.24 370.344 1208.87 370.344C1199.18 370.344 1190.74 368.703 1183.55 365.422C1176.37 362.062 1170.39 357.453 1165.62 351.594C1160.86 345.734 1157.27 338.977 1154.84 331.32C1152.5 323.664 1151.33 315.461 1151.33 306.711V302.609C1151.33 293.859 1152.5 285.656 1154.84 278C1157.27 270.266 1160.86 263.469 1165.62 257.609C1170.39 251.75 1176.37 247.18 1183.55 243.898C1190.74 240.539 1199.14 238.859 1208.75 238.859C1218.91 238.859 1227.81 240.891 1235.47 244.953C1243.12 248.938 1249.14 254.523 1253.52 261.711C1257.97 268.82 1260.27 277.102 1260.43 286.555H1233.83C1233.59 281.867 1232.42 277.648 1230.31 273.898C1228.28 270.07 1225.39 267.023 1221.64 264.758C1217.97 262.492 1213.55 261.359 1208.4 261.359C1202.7 261.359 1197.97 262.531 1194.22 264.875C1190.47 267.141 1187.54 270.266 1185.43 274.25C1183.32 278.156 1181.8 282.57 1180.86 287.492C1180 292.336 1179.57 297.375 1179.57 302.609V306.711C1179.57 311.945 1180 317.023 1180.86 321.945C1181.72 326.867 1183.2 331.281 1185.31 335.188C1187.5 339.016 1190.47 342.102 1194.22 344.445C1197.97 346.711 1202.73 347.844 1208.52 347.844ZM1368.71 294.172V316.438H1303.09V294.172H1368.71ZM1311.29 241.203V368H1283.05V241.203H1311.29ZM1389.1 241.203V368H1360.86V241.203H1389.1ZM1413.83 306.008V303.312C1413.83 294.172 1415.16 285.695 1417.81 277.883C1420.47 269.992 1424.3 263.156 1429.3 257.375C1434.38 251.516 1440.55 246.984 1447.81 243.781C1455.16 240.5 1463.44 238.859 1472.66 238.859C1481.95 238.859 1490.23 240.5 1497.5 243.781C1504.84 246.984 1511.05 251.516 1516.13 257.375C1521.21 263.156 1525.08 269.992 1527.73 277.883C1530.39 285.695 1531.72 294.172 1531.72 303.312V306.008C1531.72 315.148 1530.39 323.625 1527.73 331.438C1525.08 339.25 1521.21 346.086 1516.13 351.945C1511.05 357.727 1504.88 362.258 1497.62 365.539C1490.35 368.742 1482.11 370.344 1472.89 370.344C1463.59 370.344 1455.27 368.742 1447.93 365.539C1440.66 362.258 1434.49 357.727 1429.41 351.945C1424.34 346.086 1420.47 339.25 1417.81 331.438C1415.16 323.625 1413.83 315.148 1413.83 306.008ZM1442.07 303.312V306.008C1442.07 311.711 1442.66 317.102 1443.83 322.18C1445 327.258 1446.84 331.711 1449.34 335.539C1451.84 339.367 1455.04 342.375 1458.95 344.562C1462.85 346.75 1467.5 347.844 1472.89 347.844C1478.12 347.844 1482.66 346.75 1486.48 344.562C1490.39 342.375 1493.59 339.367 1496.09 335.539C1498.59 331.711 1500.43 327.258 1501.6 322.18C1502.85 317.102 1503.48 311.711 1503.48 306.008V303.312C1503.48 297.688 1502.85 292.375 1501.6 287.375C1500.43 282.297 1498.55 277.805 1495.98 273.898C1493.48 269.992 1490.27 266.945 1486.37 264.758C1482.54 262.492 1477.97 261.359 1472.66 261.359C1467.34 261.359 1462.73 262.492 1458.83 264.758C1455 266.945 1451.84 269.992 1449.34 273.898C1446.84 277.805 1445 282.297 1443.83 287.375C1442.66 292.375 1442.07 297.688 1442.07 303.312ZM1611.29 370.344C1601.91 370.344 1593.44 368.82 1585.86 365.773C1578.36 362.648 1571.95 358.312 1566.64 352.766C1561.41 347.219 1557.38 340.695 1554.57 333.195C1551.76 325.695 1550.35 317.609 1550.35 308.938V304.25C1550.35 294.328 1551.8 285.344 1554.69 277.297C1557.58 269.25 1561.6 262.375 1566.76 256.672C1571.91 250.891 1578.01 246.477 1585.04 243.43C1592.07 240.383 1599.69 238.859 1607.89 238.859C1616.95 238.859 1624.88 240.383 1631.68 243.43C1638.48 246.477 1644.1 250.773 1648.55 256.32C1653.09 261.789 1656.45 268.312 1658.63 275.891C1660.9 283.469 1662.03 291.828 1662.03 300.969V313.039H1564.06V292.766H1634.14V290.539C1633.98 285.461 1632.97 280.695 1631.09 276.242C1629.3 271.789 1626.52 268.195 1622.77 265.461C1619.02 262.727 1614.02 261.359 1607.77 261.359C1603.09 261.359 1598.91 262.375 1595.23 264.406C1591.64 266.359 1588.63 269.211 1586.21 272.961C1583.79 276.711 1581.91 281.242 1580.59 286.555C1579.34 291.789 1578.71 297.688 1578.71 304.25V308.938C1578.71 314.484 1579.45 319.641 1580.94 324.406C1582.5 329.094 1584.77 333.195 1587.73 336.711C1590.7 340.227 1594.3 343 1598.52 345.031C1602.73 346.984 1607.54 347.961 1612.93 347.961C1619.73 347.961 1625.78 346.594 1631.09 343.859C1636.41 341.125 1641.02 337.258 1644.92 332.258L1659.8 346.672C1657.07 350.656 1653.52 354.484 1649.14 358.156C1644.77 361.75 1639.41 364.68 1633.09 366.945C1626.84 369.211 1619.57 370.344 1611.29 370.344Z" fill="white"/>
<path d="M2149.06 254.469L2165.16 282.516L2181.56 254.469H2202.27L2176.64 295.953L2203.28 339H2182.58L2165.39 309.781L2148.2 339H2127.42L2153.98 295.953L2128.44 254.469H2149.06ZM2265.47 224.859V339H2246.64V247.203L2218.75 256.656V241.109L2263.2 224.859H2265.47ZM2323.75 320.875L2323.67 334.312C2323.67 339.625 2322.34 345.094 2319.69 350.719C2317.03 356.344 2313.52 360.979 2309.14 364.625L2299.06 358.766C2300.52 356.422 2301.85 354.052 2303.05 351.656C2304.24 349.26 2305.21 346.708 2305.94 344C2306.67 341.292 2307.03 338.297 2307.03 335.016V320.875H2323.75ZM2415.16 307.984C2415.16 315.068 2413.52 321.031 2410.23 325.875C2406.95 330.719 2402.47 334.391 2396.8 336.891C2391.17 339.339 2384.82 340.562 2377.73 340.562C2370.65 340.562 2364.27 339.339 2358.59 336.891C2352.92 334.391 2348.44 330.719 2345.16 325.875C2341.88 321.031 2340.23 315.068 2340.23 307.984C2340.23 303.297 2341.15 299.052 2342.97 295.25C2344.79 291.396 2347.37 288.089 2350.7 285.328C2354.09 282.516 2358.05 280.354 2362.58 278.844C2367.16 277.333 2372.16 276.578 2377.58 276.578C2384.77 276.578 2391.2 277.906 2396.88 280.562C2402.55 283.219 2407.01 286.891 2410.23 291.578C2413.52 296.266 2415.16 301.734 2415.16 307.984ZM2396.25 307.047C2396.25 303.245 2395.47 299.911 2393.91 297.047C2392.34 294.182 2390.16 291.969 2387.34 290.406C2384.53 288.844 2381.28 288.062 2377.58 288.062C2373.83 288.062 2370.57 288.844 2367.81 290.406C2365.05 291.969 2362.89 294.182 2361.33 297.047C2359.82 299.911 2359.06 303.245 2359.06 307.047C2359.06 310.901 2359.82 314.234 2361.33 317.047C2362.84 319.807 2365 321.917 2367.81 323.375C2370.62 324.833 2373.93 325.562 2377.73 325.562C2381.54 325.562 2384.82 324.833 2387.58 323.375C2390.34 321.917 2392.47 319.807 2393.98 317.047C2395.49 314.234 2396.25 310.901 2396.25 307.047ZM2412.58 255.172C2412.58 260.849 2411.07 265.901 2408.05 270.328C2405.08 274.755 2400.96 278.245 2395.7 280.797C2390.44 283.297 2384.45 284.547 2377.73 284.547C2370.96 284.547 2364.92 283.297 2359.61 280.797C2354.35 278.245 2350.21 274.755 2347.19 270.328C2344.22 265.901 2342.73 260.849 2342.73 255.172C2342.73 248.401 2344.22 242.698 2347.19 238.062C2350.21 233.375 2354.35 229.807 2359.61 227.359C2364.87 224.911 2370.89 223.688 2377.66 223.688C2384.43 223.688 2390.44 224.911 2395.7 227.359C2400.96 229.807 2405.08 233.375 2408.05 238.062C2411.07 242.698 2412.58 248.401 2412.58 255.172ZM2393.75 255.797C2393.75 252.411 2393.07 249.443 2391.72 246.891C2390.42 244.286 2388.57 242.255 2386.17 240.797C2383.78 239.339 2380.94 238.609 2377.66 238.609C2374.38 238.609 2371.54 239.312 2369.14 240.719C2366.74 242.125 2364.9 244.104 2363.59 246.656C2362.29 249.208 2361.64 252.255 2361.64 255.797C2361.64 259.286 2362.29 262.333 2363.59 264.938C2364.9 267.49 2366.74 269.495 2369.14 270.953C2371.59 272.411 2374.45 273.141 2377.73 273.141C2381.02 273.141 2383.85 272.411 2386.25 270.953C2388.65 269.495 2390.49 267.49 2391.8 264.938C2393.1 262.333 2393.75 259.286 2393.75 255.797ZM2451.48 286.109L2436.48 282.438L2442.66 225.25H2503.98V241.188H2458.28L2455.16 269.078C2456.93 268.036 2459.38 267.021 2462.5 266.031C2465.62 264.99 2469.19 264.469 2473.2 264.469C2478.57 264.469 2483.36 265.354 2487.58 267.125C2491.85 268.844 2495.47 271.37 2498.44 274.703C2501.41 277.984 2503.67 281.995 2505.23 286.734C2506.8 291.422 2507.58 296.708 2507.58 302.594C2507.58 307.854 2506.8 312.776 2505.23 317.359C2503.72 321.943 2501.43 325.979 2498.36 329.469C2495.29 332.958 2491.41 335.693 2486.72 337.672C2482.08 339.599 2476.59 340.562 2470.23 340.562C2465.49 340.562 2460.94 339.885 2456.56 338.531C2452.24 337.125 2448.36 335.068 2444.92 332.359C2441.48 329.599 2438.72 326.214 2436.64 322.203C2434.56 318.141 2433.36 313.479 2433.05 308.219H2451.48C2451.95 311.917 2452.97 315.068 2454.53 317.672C2456.15 320.224 2458.28 322.177 2460.94 323.531C2463.59 324.885 2466.67 325.562 2470.16 325.562C2473.33 325.562 2476.07 325.016 2478.36 323.922C2480.65 322.776 2482.55 321.161 2484.06 319.078C2485.62 316.943 2486.77 314.443 2487.5 311.578C2488.28 308.714 2488.67 305.536 2488.67 302.047C2488.67 298.714 2488.23 295.667 2487.34 292.906C2486.51 290.146 2485.23 287.75 2483.52 285.719C2481.85 283.688 2479.74 282.125 2477.19 281.031C2474.64 279.885 2471.69 279.312 2468.36 279.312C2463.88 279.312 2460.44 279.964 2458.05 281.266C2455.7 282.568 2453.52 284.182 2451.48 286.109Z" fill="#F0F0F0"/>
<rect x="125" y="125" width="320" height="320" rx="75" fill="#696969"/>
<path fill-rule="evenodd" clip-rule="evenodd" d="M352.097 180.014C357.557 180.014 361.996 184.452 361.996 189.912V208.013H380.099C382.057 208.012 383.971 208.593 385.6 209.68C387.228 210.768 388.497 212.314 389.246 214.122C389.996 215.931 390.192 217.922 389.81 219.842C389.428 221.762 388.484 223.526 387.1 224.91L366.658 245.349C363.673 248.327 359.631 250.003 355.415 250.011H334.833L285.41 299.429C283.419 301.283 280.786 302.293 278.066 302.245C275.345 302.197 272.75 301.095 270.826 299.171C268.902 297.248 267.8 294.652 267.752 291.932C267.704 289.212 268.713 286.58 270.568 284.589L319.992 235.172V214.593C319.992 210.379 321.672 206.333 324.655 203.337L345.096 182.898C346.012 181.975 347.103 181.243 348.305 180.745C349.507 180.248 350.796 179.994 352.097 180M200.983 292.009C200.981 280.593 203.519 269.32 208.411 259.005C213.304 248.69 220.429 239.592 229.271 232.37C238.113 225.148 248.451 219.982 259.535 217.246C270.62 214.51 282.175 214.273 293.362 216.552C296.077 217.07 298.887 216.497 301.182 214.957C303.477 213.417 305.073 211.034 305.622 208.325C306.171 205.616 305.63 202.8 304.116 200.488C302.602 198.176 300.237 196.554 297.534 195.973C276.892 191.777 255.447 194.342 236.377 203.289C217.307 212.235 201.628 227.087 191.662 245.643C181.696 264.199 177.975 285.471 181.05 306.307C184.124 327.144 193.831 346.435 208.731 361.323C223.632 376.211 242.933 385.902 263.774 388.961C284.615 392.02 305.888 388.283 324.439 378.305C342.989 368.327 357.831 352.639 366.765 333.565C375.699 314.491 378.249 293.047 374.037 272.41C373.481 269.681 371.865 267.284 369.542 265.747C367.22 264.21 364.382 263.658 361.653 264.213C358.923 264.768 356.526 266.385 354.989 268.707C353.452 271.029 352.9 273.867 353.455 276.596C354.472 281.57 354.986 286.708 354.995 292.009C354.995 312.43 346.882 332.014 332.44 346.454C317.999 360.893 298.412 369.006 277.989 369.006C257.566 369.006 237.979 360.893 223.537 346.454C209.096 332.014 200.983 312.43 200.983 292.009ZM276.085 257.067C278.866 256.918 281.474 255.671 283.336 253.599C285.198 251.528 286.16 248.802 286.012 246.021C285.863 243.24 284.616 240.632 282.544 238.771C280.472 236.909 277.746 235.947 274.965 236.096C264.211 236.675 253.852 240.342 245.13 246.658C236.407 252.974 229.691 261.671 225.786 271.706C221.881 281.741 220.952 292.69 223.111 303.239C225.27 313.789 230.426 323.492 237.96 331.187C245.494 338.881 255.087 344.24 265.59 346.622C276.093 349.004 287.06 348.308 297.177 344.616C307.294 340.925 316.132 334.395 322.632 325.81C329.132 317.224 333.018 306.947 333.825 296.209C334.031 293.432 333.126 290.686 331.307 288.577C329.489 286.467 326.907 285.166 324.13 284.96C321.352 284.754 318.606 285.66 316.497 287.478C314.387 289.296 313.086 291.878 312.88 294.655C312.369 301.363 309.936 307.781 305.871 313.142C301.807 318.502 296.283 322.578 289.962 324.882C283.641 327.185 276.789 327.618 270.228 326.128C263.667 324.639 257.675 321.29 252.968 316.484C248.261 311.677 245.039 305.616 243.688 299.026C242.337 292.436 242.914 285.596 245.35 279.326C247.786 273.055 251.978 267.619 257.424 263.669C262.87 259.719 269.339 257.422 276.057 257.053" fill="#0F0F0F"/>
<defs>
<linearGradient id="paint0_linear_3296_10301" x1="0" y1="285" x2="2700" y2="285" gradientUnits="userSpaceOnUse">
<stop stop-color="#212121"/>
<stop offset="1" stop-color="#131313"/>
</linearGradient>
</defs>
</svg>
