<svg width="2700" height="570" viewBox="0 0 2700 570" fill="none" xmlns="http://www.w3.org/2000/svg">
<rect width="2700" height="570" rx="125" fill="url(#paint0_linear_3296_10466)"/>
<path d="M850.508 197.375V220.812H771.172V368H741.875V197.375H850.508ZM762.266 262.883H805.156C818.125 262.883 829.219 265.07 838.438 269.445C847.656 273.742 854.688 279.797 859.531 287.609C864.375 295.422 866.797 304.523 866.797 314.914C866.797 322.727 865.43 329.875 862.695 336.359C859.961 342.844 855.938 348.469 850.625 353.234C845.312 357.922 838.828 361.555 831.172 364.133C823.594 366.711 814.922 368 805.156 368H741.875V197.375H771.406V344.68H805.156C812.578 344.68 818.672 343.312 823.438 340.578C828.203 337.766 831.719 334.094 833.984 329.562C836.328 325.031 837.5 320.07 837.5 314.68C837.5 309.445 836.328 304.68 833.984 300.383C831.719 296.086 828.203 292.648 823.438 290.07C818.672 287.492 812.578 286.203 805.156 286.203H762.266V262.883ZM946.367 370.344C936.992 370.344 928.516 368.82 920.938 365.773C913.438 362.648 907.031 358.312 901.719 352.766C896.484 347.219 892.461 340.695 889.648 333.195C886.836 325.695 885.43 317.609 885.43 308.938V304.25C885.43 294.328 886.875 285.344 889.766 277.297C892.656 269.25 896.68 262.375 901.836 256.672C906.992 250.891 913.086 246.477 920.117 243.43C927.148 240.383 934.766 238.859 942.969 238.859C952.031 238.859 959.961 240.383 966.758 243.43C973.555 246.477 979.18 250.773 983.633 256.32C988.164 261.789 991.523 268.312 993.711 275.891C995.977 283.469 997.109 291.828 997.109 300.969V313.039H899.141V292.766H969.219V290.539C969.062 285.461 968.047 280.695 966.172 276.242C964.375 271.789 961.602 268.195 957.852 265.461C954.102 262.727 949.102 261.359 942.852 261.359C938.164 261.359 933.984 262.375 930.312 264.406C926.719 266.359 923.711 269.211 921.289 272.961C918.867 276.711 916.992 281.242 915.664 286.555C914.414 291.789 913.789 297.688 913.789 304.25V308.938C913.789 314.484 914.531 319.641 916.016 324.406C917.578 329.094 919.844 333.195 922.812 336.711C925.781 340.227 929.375 343 933.594 345.031C937.812 346.984 942.617 347.961 948.008 347.961C954.805 347.961 960.859 346.594 966.172 343.859C971.484 341.125 976.094 337.258 980 332.258L994.883 346.672C992.148 350.656 988.594 354.484 984.219 358.156C979.844 361.75 974.492 364.68 968.164 366.945C961.914 369.211 954.648 370.344 946.367 370.344ZM1104.34 241.203V263.703H1042.46V241.203H1104.34ZM1126.48 241.203V368H1098.24V241.203H1126.48ZM1035.55 241.203H1063.44L1060.04 303.898C1059.57 313.195 1058.63 321.398 1057.23 328.508C1055.9 335.539 1054.1 341.594 1051.84 346.672C1049.57 351.672 1046.8 355.734 1043.52 358.859C1040.23 361.984 1036.41 364.289 1032.03 365.773C1027.66 367.258 1022.73 368 1017.27 368H1008.48L1008.36 344.797L1012.81 344.445C1015.7 344.211 1018.2 343.469 1020.31 342.219C1022.42 340.891 1024.22 339.016 1025.7 336.594C1027.27 334.172 1028.52 331.047 1029.45 327.219C1030.47 323.391 1031.25 318.859 1031.8 313.625C1032.42 308.391 1032.89 302.297 1033.2 295.344L1035.55 241.203ZM1151.09 306.008V303.312C1151.09 294.172 1152.42 285.695 1155.08 277.883C1157.73 269.992 1161.56 263.156 1166.56 257.375C1171.64 251.516 1177.81 246.984 1185.08 243.781C1192.42 240.5 1200.7 238.859 1209.92 238.859C1219.22 238.859 1227.5 240.5 1234.77 243.781C1242.11 246.984 1248.32 251.516 1253.4 257.375C1258.48 263.156 1262.34 269.992 1265 277.883C1267.66 285.695 1268.98 294.172 1268.98 303.312V306.008C1268.98 315.148 1267.66 323.625 1265 331.438C1262.34 339.25 1258.48 346.086 1253.4 351.945C1248.32 357.727 1242.15 362.258 1234.88 365.539C1227.62 368.742 1219.38 370.344 1210.16 370.344C1200.86 370.344 1192.54 368.742 1185.2 365.539C1177.93 362.258 1171.76 357.727 1166.68 351.945C1161.6 346.086 1157.73 339.25 1155.08 331.438C1152.42 323.625 1151.09 315.148 1151.09 306.008ZM1179.34 303.312V306.008C1179.34 311.711 1179.92 317.102 1181.09 322.18C1182.27 327.258 1184.1 331.711 1186.6 335.539C1189.1 339.367 1192.3 342.375 1196.21 344.562C1200.12 346.75 1204.77 347.844 1210.16 347.844C1215.39 347.844 1219.92 346.75 1223.75 344.562C1227.66 342.375 1230.86 339.367 1233.36 335.539C1235.86 331.711 1237.7 327.258 1238.87 322.18C1240.12 317.102 1240.74 311.711 1240.74 306.008V303.312C1240.74 297.688 1240.12 292.375 1238.87 287.375C1237.7 282.297 1235.82 277.805 1233.24 273.898C1230.74 269.992 1227.54 266.945 1223.63 264.758C1219.8 262.492 1215.23 261.359 1209.92 261.359C1204.61 261.359 1200 262.492 1196.09 264.758C1192.27 266.945 1189.1 269.992 1186.6 273.898C1184.1 277.805 1182.27 282.297 1181.09 287.375C1179.92 292.375 1179.34 297.688 1179.34 303.312ZM1348.55 370.344C1339.18 370.344 1330.7 368.82 1323.12 365.773C1315.62 362.648 1309.22 358.312 1303.91 352.766C1298.67 347.219 1294.65 340.695 1291.84 333.195C1289.02 325.695 1287.62 317.609 1287.62 308.938V304.25C1287.62 294.328 1289.06 285.344 1291.95 277.297C1294.84 269.25 1298.87 262.375 1304.02 256.672C1309.18 250.891 1315.27 246.477 1322.3 243.43C1329.34 240.383 1336.95 238.859 1345.16 238.859C1354.22 238.859 1362.15 240.383 1368.95 243.43C1375.74 246.477 1381.37 250.773 1385.82 256.32C1390.35 261.789 1393.71 268.312 1395.9 275.891C1398.16 283.469 1399.3 291.828 1399.3 300.969V313.039H1301.33V292.766H1371.41V290.539C1371.25 285.461 1370.23 280.695 1368.36 276.242C1366.56 271.789 1363.79 268.195 1360.04 265.461C1356.29 262.727 1351.29 261.359 1345.04 261.359C1340.35 261.359 1336.17 262.375 1332.5 264.406C1328.91 266.359 1325.9 269.211 1323.48 272.961C1321.05 276.711 1319.18 281.242 1317.85 286.555C1316.6 291.789 1315.98 297.688 1315.98 304.25V308.938C1315.98 314.484 1316.72 319.641 1318.2 324.406C1319.77 329.094 1322.03 333.195 1325 336.711C1327.97 340.227 1331.56 343 1335.78 345.031C1340 346.984 1344.8 347.961 1350.2 347.961C1356.99 347.961 1363.05 346.594 1368.36 343.859C1373.67 341.125 1378.28 337.258 1382.19 332.258L1397.07 346.672C1394.34 350.656 1390.78 354.484 1386.41 358.156C1382.03 361.75 1376.68 364.68 1370.35 366.945C1364.1 369.211 1356.84 370.344 1348.55 370.344Z" fill="white"/>
<path d="M2149.06 254.469L2165.16 282.516L2181.56 254.469H2202.27L2176.64 295.953L2203.28 339H2182.58L2165.39 309.781L2148.2 339H2127.42L2153.98 295.953L2128.44 254.469H2149.06ZM2290.31 324V339H2214.06V326.109L2251.09 285.719C2255.16 281.135 2258.36 277.177 2260.7 273.844C2263.05 270.51 2264.69 267.516 2265.62 264.859C2266.61 262.151 2267.11 259.521 2267.11 256.969C2267.11 253.375 2266.43 250.224 2265.08 247.516C2263.78 244.755 2261.85 242.594 2259.3 241.031C2256.74 239.417 2253.65 238.609 2250 238.609C2245.78 238.609 2242.24 239.521 2239.38 241.344C2236.51 243.167 2234.35 245.693 2232.89 248.922C2231.43 252.099 2230.7 255.745 2230.7 259.859H2211.88C2211.88 253.245 2213.39 247.203 2216.41 241.734C2219.43 236.214 2223.8 231.839 2229.53 228.609C2235.26 225.328 2242.16 223.688 2250.23 223.688C2257.84 223.688 2264.3 224.964 2269.61 227.516C2274.92 230.068 2278.96 233.688 2281.72 238.375C2284.53 243.062 2285.94 248.609 2285.94 255.016C2285.94 258.557 2285.36 262.073 2284.22 265.562C2283.07 269.052 2281.43 272.542 2279.3 276.031C2277.21 279.469 2274.74 282.932 2271.88 286.422C2269.01 289.859 2265.86 293.349 2262.42 296.891L2237.81 324H2290.31ZM2323.75 320.875L2323.67 334.312C2323.67 339.625 2322.34 345.094 2319.69 350.719C2317.03 356.344 2313.52 360.979 2309.14 364.625L2299.06 358.766C2300.52 356.422 2301.85 354.052 2303.05 351.656C2304.24 349.26 2305.21 346.708 2305.94 344C2306.67 341.292 2307.03 338.297 2307.03 335.016V320.875H2323.75ZM2415.16 307.984C2415.16 315.068 2413.52 321.031 2410.23 325.875C2406.95 330.719 2402.47 334.391 2396.8 336.891C2391.17 339.339 2384.82 340.562 2377.73 340.562C2370.65 340.562 2364.27 339.339 2358.59 336.891C2352.92 334.391 2348.44 330.719 2345.16 325.875C2341.88 321.031 2340.23 315.068 2340.23 307.984C2340.23 303.297 2341.15 299.052 2342.97 295.25C2344.79 291.396 2347.37 288.089 2350.7 285.328C2354.09 282.516 2358.05 280.354 2362.58 278.844C2367.16 277.333 2372.16 276.578 2377.58 276.578C2384.77 276.578 2391.2 277.906 2396.88 280.562C2402.55 283.219 2407.01 286.891 2410.23 291.578C2413.52 296.266 2415.16 301.734 2415.16 307.984ZM2396.25 307.047C2396.25 303.245 2395.47 299.911 2393.91 297.047C2392.34 294.182 2390.16 291.969 2387.34 290.406C2384.53 288.844 2381.28 288.062 2377.58 288.062C2373.83 288.062 2370.57 288.844 2367.81 290.406C2365.05 291.969 2362.89 294.182 2361.33 297.047C2359.82 299.911 2359.06 303.245 2359.06 307.047C2359.06 310.901 2359.82 314.234 2361.33 317.047C2362.84 319.807 2365 321.917 2367.81 323.375C2370.62 324.833 2373.93 325.562 2377.73 325.562C2381.54 325.562 2384.82 324.833 2387.58 323.375C2390.34 321.917 2392.47 319.807 2393.98 317.047C2395.49 314.234 2396.25 310.901 2396.25 307.047ZM2412.58 255.172C2412.58 260.849 2411.07 265.901 2408.05 270.328C2405.08 274.755 2400.96 278.245 2395.7 280.797C2390.44 283.297 2384.45 284.547 2377.73 284.547C2370.96 284.547 2364.92 283.297 2359.61 280.797C2354.35 278.245 2350.21 274.755 2347.19 270.328C2344.22 265.901 2342.73 260.849 2342.73 255.172C2342.73 248.401 2344.22 242.698 2347.19 238.062C2350.21 233.375 2354.35 229.807 2359.61 227.359C2364.87 224.911 2370.89 223.688 2377.66 223.688C2384.43 223.688 2390.44 224.911 2395.7 227.359C2400.96 229.807 2405.08 233.375 2408.05 238.062C2411.07 242.698 2412.58 248.401 2412.58 255.172ZM2393.75 255.797C2393.75 252.411 2393.07 249.443 2391.72 246.891C2390.42 244.286 2388.57 242.255 2386.17 240.797C2383.78 239.339 2380.94 238.609 2377.66 238.609C2374.38 238.609 2371.54 239.312 2369.14 240.719C2366.74 242.125 2364.9 244.104 2363.59 246.656C2362.29 249.208 2361.64 252.255 2361.64 255.797C2361.64 259.286 2362.29 262.333 2363.59 264.938C2364.9 267.49 2366.74 269.495 2369.14 270.953C2371.59 272.411 2374.45 273.141 2377.73 273.141C2381.02 273.141 2383.85 272.411 2386.25 270.953C2388.65 269.495 2390.49 267.49 2391.8 264.938C2393.1 262.333 2393.75 259.286 2393.75 255.797ZM2451.48 286.109L2436.48 282.438L2442.66 225.25H2503.98V241.188H2458.28L2455.16 269.078C2456.93 268.036 2459.38 267.021 2462.5 266.031C2465.62 264.99 2469.19 264.469 2473.2 264.469C2478.57 264.469 2483.36 265.354 2487.58 267.125C2491.85 268.844 2495.47 271.37 2498.44 274.703C2501.41 277.984 2503.67 281.995 2505.23 286.734C2506.8 291.422 2507.58 296.708 2507.58 302.594C2507.58 307.854 2506.8 312.776 2505.23 317.359C2503.72 321.943 2501.43 325.979 2498.36 329.469C2495.29 332.958 2491.41 335.693 2486.72 337.672C2482.08 339.599 2476.59 340.562 2470.23 340.562C2465.49 340.562 2460.94 339.885 2456.56 338.531C2452.24 337.125 2448.36 335.068 2444.92 332.359C2441.48 329.599 2438.72 326.214 2436.64 322.203C2434.56 318.141 2433.36 313.479 2433.05 308.219H2451.48C2451.95 311.917 2452.97 315.068 2454.53 317.672C2456.15 320.224 2458.28 322.177 2460.94 323.531C2463.59 324.885 2466.67 325.562 2470.16 325.562C2473.33 325.562 2476.07 325.016 2478.36 323.922C2480.65 322.776 2482.55 321.161 2484.06 319.078C2485.62 316.943 2486.77 314.443 2487.5 311.578C2488.28 308.714 2488.67 305.536 2488.67 302.047C2488.67 298.714 2488.23 295.667 2487.34 292.906C2486.51 290.146 2485.23 287.75 2483.52 285.719C2481.85 283.688 2479.74 282.125 2477.19 281.031C2474.64 279.885 2471.69 279.312 2468.36 279.312C2463.88 279.312 2460.44 279.964 2458.05 281.266C2455.7 282.568 2453.52 284.182 2451.48 286.109Z" fill="#F0F0F0"/>
<rect x="125" y="125" width="320" height="320" rx="75" fill="url(#paint1_linear_3296_10466)"/>
<path fill-rule="evenodd" clip-rule="evenodd" d="M352.097 180.014C357.557 180.014 361.996 184.452 361.996 189.912V208.013H380.099C382.057 208.012 383.971 208.593 385.6 209.68C387.228 210.768 388.497 212.314 389.246 214.122C389.996 215.931 390.192 217.922 389.81 219.842C389.428 221.762 388.484 223.526 387.1 224.91L366.658 245.349C363.673 248.327 359.631 250.003 355.415 250.011H334.833L285.41 299.429C283.419 301.283 280.786 302.293 278.066 302.245C275.345 302.197 272.75 301.095 270.826 299.171C268.902 297.248 267.8 294.652 267.752 291.932C267.704 289.212 268.713 286.58 270.568 284.589L319.992 235.172V214.593C319.992 210.379 321.672 206.333 324.655 203.337L345.096 182.898C346.012 181.975 347.103 181.243 348.305 180.745C349.507 180.248 350.796 179.994 352.097 180M200.983 292.009C200.981 280.593 203.519 269.32 208.411 259.005C213.304 248.69 220.429 239.592 229.271 232.37C238.113 225.148 248.451 219.982 259.535 217.246C270.62 214.51 282.175 214.273 293.362 216.552C296.077 217.07 298.887 216.497 301.182 214.957C303.477 213.417 305.073 211.034 305.622 208.325C306.171 205.616 305.63 202.8 304.116 200.488C302.602 198.176 300.237 196.554 297.534 195.973C276.892 191.777 255.447 194.342 236.377 203.289C217.307 212.235 201.628 227.087 191.662 245.643C181.696 264.199 177.975 285.471 181.05 306.307C184.124 327.144 193.831 346.435 208.731 361.323C223.632 376.211 242.933 385.902 263.774 388.961C284.615 392.02 305.888 388.283 324.439 378.305C342.989 368.327 357.831 352.639 366.765 333.565C375.699 314.491 378.249 293.047 374.037 272.41C373.481 269.681 371.865 267.284 369.542 265.747C367.22 264.21 364.382 263.658 361.653 264.213C358.923 264.768 356.526 266.385 354.989 268.707C353.452 271.029 352.9 273.867 353.455 276.596C354.472 281.57 354.986 286.708 354.995 292.009C354.995 312.43 346.882 332.014 332.44 346.454C317.999 360.893 298.412 369.006 277.989 369.006C257.566 369.006 237.979 360.893 223.537 346.454C209.096 332.014 200.983 312.43 200.983 292.009ZM276.085 257.067C278.866 256.918 281.474 255.671 283.336 253.599C285.198 251.528 286.16 248.802 286.012 246.021C285.863 243.24 284.616 240.632 282.544 238.771C280.472 236.909 277.746 235.947 274.965 236.096C264.211 236.675 253.852 240.342 245.13 246.658C236.407 252.974 229.691 261.671 225.786 271.706C221.881 281.741 220.952 292.69 223.111 303.239C225.27 313.789 230.426 323.492 237.96 331.187C245.494 338.881 255.087 344.24 265.59 346.622C276.093 349.004 287.06 348.308 297.177 344.616C307.294 340.925 316.132 334.395 322.632 325.81C329.132 317.224 333.018 306.947 333.825 296.209C334.031 293.432 333.126 290.686 331.307 288.577C329.489 286.467 326.907 285.166 324.13 284.96C321.352 284.754 318.606 285.66 316.497 287.478C314.387 289.296 313.086 291.878 312.88 294.655C312.369 301.363 309.936 307.781 305.871 313.142C301.807 318.502 296.283 322.578 289.962 324.882C283.641 327.185 276.789 327.618 270.228 326.128C263.667 324.639 257.675 321.29 252.968 316.484C248.261 311.677 245.039 305.616 243.688 299.026C242.337 292.436 242.914 285.596 245.35 279.326C247.786 273.055 251.978 267.619 257.424 263.669C262.87 259.719 269.339 257.422 276.057 257.053" fill="#0F0F0F"/>
<defs>
<linearGradient id="paint0_linear_3296_10466" x1="2700" y1="285.861" x2="9.4149e-06" y2="285.861" gradientUnits="userSpaceOnUse">
<stop stop-color="#E39359" stop-opacity="0.9"/>
<stop offset="0.45" stop-color="#7D6CD0" stop-opacity="0.75"/>
<stop offset="0.95" stop-color="#0F0F0F" stop-opacity="0"/>
</linearGradient>
<linearGradient id="paint1_linear_3296_10466" x1="125" y1="285" x2="445" y2="285" gradientUnits="userSpaceOnUse">
<stop stop-color="#7666C4"/>
<stop offset="1" stop-color="#E39359"/>
</linearGradient>
</defs>
</svg>
