<svg width="550" height="710" viewBox="0 0 550 710" fill="none" xmlns="http://www.w3.org/2000/svg">
<rect y="110" width="550" height="600" rx="25" fill="url(#paint0_linear_2960_8076)"/>
<path d="M171.281 579.414L186.422 554.875H192.305V589H186.422V564.438L171.281 589H165.422V554.875H171.281V579.414ZM221.18 554.875V559.562H205.336V589H199.477V554.875H221.18ZM239.039 576.273H230.156V571.609H239.039C240.586 571.609 241.836 571.359 242.789 570.859C243.742 570.359 244.438 569.672 244.875 568.797C245.328 567.906 245.555 566.891 245.555 565.75C245.555 564.672 245.328 563.664 244.875 562.727C244.438 561.773 243.742 561.008 242.789 560.43C241.836 559.852 240.586 559.562 239.039 559.562H231.961V589H226.078V554.875H239.039C241.68 554.875 243.922 555.344 245.766 556.281C247.625 557.203 249.039 558.484 250.008 560.125C250.977 561.75 251.461 563.609 251.461 565.703C251.461 567.906 250.977 569.797 250.008 571.375C249.039 572.953 247.625 574.164 245.766 575.008C243.922 575.852 241.68 576.273 239.039 576.273ZM266.461 559.422L256.266 589H250.102L262.945 554.875H266.883L266.461 559.422ZM274.992 589L264.773 559.422L264.328 554.875H268.289L281.18 589H274.992ZM274.5 576.344V581.008H255.938V576.344H274.5ZM296.086 554.875V589H290.25V554.875H296.086ZM306.797 554.875V559.562H279.633V554.875H306.797ZM315.656 567.977H324.234C326.828 567.977 329.047 568.414 330.891 569.289C332.734 570.148 334.141 571.359 335.109 572.922C336.078 574.484 336.562 576.305 336.562 578.383C336.562 579.945 336.289 581.375 335.742 582.672C335.195 583.969 334.391 585.094 333.328 586.047C332.266 586.984 330.969 587.711 329.438 588.227C327.922 588.742 326.188 589 324.234 589H311.578V554.875H317.484V584.336H324.234C325.719 584.336 326.938 584.062 327.891 583.516C328.844 582.953 329.547 582.219 330 581.312C330.469 580.406 330.703 579.414 330.703 578.336C330.703 577.289 330.469 576.336 330 575.477C329.547 574.617 328.844 573.93 327.891 573.414C326.938 572.898 325.719 572.641 324.234 572.641H315.656V567.977ZM380.883 574.539L365.109 568.656V563.195L385.359 571.891V575.594L380.883 574.539ZM365.109 579.602L380.93 573.602L385.359 572.664V576.344L365.109 585.062V579.602Z" fill="url(#paint1_linear_2960_8076)"/>
<rect width="550" height="100" rx="25" fill="#F0F0F0"/>
<path fill-rule="evenodd" clip-rule="evenodd" d="M498.857 52.0769L480 68.5765L475.287 64.4523L491.787 50.0148L475.287 35.5773L480 31.4531L498.857 47.9527C499.482 48.4997 499.833 49.2414 499.833 50.0148C499.833 50.7882 499.482 51.5299 498.857 52.0769Z" fill="#8A8B8F"/>
<path d="M0 35C0 29.4772 4.47715 25 10 25H40C45.5228 25 50 29.4772 50 35V65C50 70.5228 45.5228 75 40 75H10C4.47715 75 0 70.5228 0 65V35Z" fill="url(#paint2_linear_2960_8076)"/>
<path d="M88.3828 66H81.0938L81.1406 61.3359H88.3828C90.4922 61.3359 92.2578 60.875 93.6797 59.9531C95.1172 59.0312 96.1953 57.7109 96.9141 55.9922C97.6484 54.2734 98.0156 52.2266 98.0156 49.8516V48C98.0156 46.1562 97.8047 44.5234 97.3828 43.1016C96.9766 41.6797 96.3672 40.4844 95.5547 39.5156C94.7578 38.5469 93.7734 37.8125 92.6016 37.3125C91.4453 36.8125 90.1094 36.5625 88.5938 36.5625H80.9531V31.875H88.5938C90.8594 31.875 92.9297 32.2578 94.8047 33.0234C96.6797 33.7734 98.2969 34.8594 99.6562 36.2812C101.031 37.7031 102.086 39.4062 102.82 41.3906C103.555 43.375 103.922 45.5938 103.922 48.0469V49.8516C103.922 52.3047 103.555 54.5234 102.82 56.5078C102.086 58.4922 101.031 60.1953 99.6562 61.6172C98.2812 63.0234 96.6406 64.1094 94.7344 64.875C92.8438 65.625 90.7266 66 88.3828 66ZM84.3516 31.875V66H78.4688V31.875H84.3516ZM123.562 60.9141V48.8203C123.562 47.9141 123.398 47.1328 123.07 46.4766C122.742 45.8203 122.242 45.3125 121.57 44.9531C120.914 44.5938 120.086 44.4141 119.086 44.4141C118.164 44.4141 117.367 44.5703 116.695 44.8828C116.023 45.1953 115.5 45.6172 115.125 46.1484C114.75 46.6797 114.562 47.2812 114.562 47.9531H108.938C108.938 46.9531 109.18 45.9844 109.664 45.0469C110.148 44.1094 110.852 43.2734 111.773 42.5391C112.695 41.8047 113.797 41.2266 115.078 40.8047C116.359 40.3828 117.797 40.1719 119.391 40.1719C121.297 40.1719 122.984 40.4922 124.453 41.1328C125.938 41.7734 127.102 42.7422 127.945 44.0391C128.805 45.3203 129.234 46.9297 129.234 48.8672V60.1406C129.234 61.2969 129.312 62.3359 129.469 63.2578C129.641 64.1641 129.883 64.9531 130.195 65.625V66H124.406C124.141 65.3906 123.93 64.6172 123.773 63.6797C123.633 62.7266 123.562 61.8047 123.562 60.9141ZM124.383 50.5781L124.43 54.0703H120.375C119.328 54.0703 118.406 54.1719 117.609 54.375C116.812 54.5625 116.148 54.8438 115.617 55.2188C115.086 55.5938 114.688 56.0469 114.422 56.5781C114.156 57.1094 114.023 57.7109 114.023 58.3828C114.023 59.0547 114.18 59.6719 114.492 60.2344C114.805 60.7812 115.258 61.2109 115.852 61.5234C116.461 61.8359 117.195 61.9922 118.055 61.9922C119.211 61.9922 120.219 61.7578 121.078 61.2891C121.953 60.8047 122.641 60.2188 123.141 59.5312C123.641 58.8281 123.906 58.1641 123.938 57.5391L125.766 60.0469C125.578 60.6875 125.258 61.375 124.805 62.1094C124.352 62.8438 123.758 63.5469 123.023 64.2188C122.305 64.875 121.438 65.4141 120.422 65.8359C119.422 66.2578 118.266 66.4688 116.953 66.4688C115.297 66.4688 113.82 66.1406 112.523 65.4844C111.227 64.8125 110.211 63.9141 109.477 62.7891C108.742 61.6484 108.375 60.3594 108.375 58.9219C108.375 57.5781 108.625 56.3906 109.125 55.3594C109.641 54.3125 110.391 53.4375 111.375 52.7344C112.375 52.0312 113.594 51.5 115.031 51.1406C116.469 50.7656 118.109 50.5781 119.953 50.5781H124.383ZM140.812 45.4688V66H135.164V40.6406H140.555L140.812 45.4688ZM148.57 40.4766L148.523 45.7266C148.18 45.6641 147.805 45.6172 147.398 45.5859C147.008 45.5547 146.617 45.5391 146.227 45.5391C145.258 45.5391 144.406 45.6797 143.672 45.9609C142.938 46.2266 142.32 46.6172 141.82 47.1328C141.336 47.6328 140.961 48.2422 140.695 48.9609C140.43 49.6797 140.273 50.4844 140.227 51.375L138.938 51.4688C138.938 49.875 139.094 48.3984 139.406 47.0391C139.719 45.6797 140.188 44.4844 140.812 43.4531C141.453 42.4219 142.25 41.6172 143.203 41.0391C144.172 40.4609 145.289 40.1719 146.555 40.1719C146.898 40.1719 147.266 40.2031 147.656 40.2656C148.062 40.3281 148.367 40.3984 148.57 40.4766ZM164.906 40.6406V44.7656H150.609V40.6406H164.906ZM154.734 34.4297H160.383V58.9922C160.383 59.7734 160.492 60.375 160.711 60.7969C160.945 61.2031 161.266 61.4766 161.672 61.6172C162.078 61.7578 162.555 61.8281 163.102 61.8281C163.492 61.8281 163.867 61.8047 164.227 61.7578C164.586 61.7109 164.875 61.6641 165.094 61.6172L165.117 65.9297C164.648 66.0703 164.102 66.1953 163.477 66.3047C162.867 66.4141 162.164 66.4688 161.367 66.4688C160.07 66.4688 158.922 66.2422 157.922 65.7891C156.922 65.3203 156.141 64.5625 155.578 63.5156C155.016 62.4688 154.734 61.0781 154.734 59.3438V34.4297ZM183.492 59.1328C183.492 58.5703 183.352 58.0625 183.07 57.6094C182.789 57.1406 182.25 56.7188 181.453 56.3438C180.672 55.9688 179.516 55.625 177.984 55.3125C176.641 55.0156 175.406 54.6641 174.281 54.2578C173.172 53.8359 172.219 53.3281 171.422 52.7344C170.625 52.1406 170.008 51.4375 169.57 50.625C169.133 49.8125 168.914 48.875 168.914 47.8125C168.914 46.7812 169.141 45.8047 169.594 44.8828C170.047 43.9609 170.695 43.1484 171.539 42.4453C172.383 41.7422 173.406 41.1875 174.609 40.7812C175.828 40.375 177.188 40.1719 178.688 40.1719C180.812 40.1719 182.633 40.5312 184.148 41.25C185.68 41.9531 186.852 42.9141 187.664 44.1328C188.477 45.3359 188.883 46.6953 188.883 48.2109H183.234C183.234 47.5391 183.062 46.9141 182.719 46.3359C182.391 45.7422 181.891 45.2656 181.219 44.9062C180.547 44.5312 179.703 44.3438 178.688 44.3438C177.719 44.3438 176.914 44.5 176.273 44.8125C175.648 45.1094 175.18 45.5 174.867 45.9844C174.57 46.4688 174.422 47 174.422 47.5781C174.422 48 174.5 48.3828 174.656 48.7266C174.828 49.0547 175.109 49.3594 175.5 49.6406C175.891 49.9062 176.422 50.1562 177.094 50.3906C177.781 50.625 178.641 50.8516 179.672 51.0703C181.609 51.4766 183.273 52 184.664 52.6406C186.07 53.2656 187.148 54.0781 187.898 55.0781C188.648 56.0625 189.023 57.3125 189.023 58.8281C189.023 59.9531 188.781 60.9844 188.297 61.9219C187.828 62.8438 187.141 63.6484 186.234 64.3359C185.328 65.0078 184.242 65.5312 182.977 65.9062C181.727 66.2812 180.32 66.4688 178.758 66.4688C176.461 66.4688 174.516 66.0625 172.922 65.25C171.328 64.4219 170.117 63.3672 169.289 62.0859C168.477 60.7891 168.07 59.4453 168.07 58.0547H173.531C173.594 59.1016 173.883 59.9375 174.398 60.5625C174.93 61.1719 175.586 61.6172 176.367 61.8984C177.164 62.1641 177.984 62.2969 178.828 62.2969C179.844 62.2969 180.695 62.1641 181.383 61.8984C182.07 61.6172 182.594 61.2422 182.953 60.7734C183.312 60.2891 183.492 59.7422 183.492 59.1328Z" fill="#8A8B8F"/>
<path fill-rule="evenodd" clip-rule="evenodd" d="M36.9101 32.0023C37.7876 32.0023 38.5009 32.7155 38.5009 33.593V36.5023H41.4101C41.7248 36.5022 42.0324 36.5955 42.2941 36.7702C42.5557 36.945 42.7597 37.1935 42.8801 37.4842C43.0005 37.7749 43.032 38.0948 42.9706 38.4034C42.9092 38.7121 42.7577 38.9955 42.5351 39.218L39.2501 42.503C38.7705 42.9816 38.1209 43.251 37.4434 43.2523H34.1359L26.1934 51.1948C25.8735 51.4928 25.4504 51.6551 25.0132 51.6474C24.576 51.6397 24.1589 51.4626 23.8497 51.1534C23.5405 50.8442 23.3634 50.4271 23.3557 49.9899C23.348 49.5528 23.5103 49.1297 23.8084 48.8098L31.7509 40.8673V37.5598C31.7509 36.8825 32.0209 36.2323 32.5001 35.7508L35.7851 32.4658C35.9323 32.3174 36.1076 32.1997 36.3008 32.1198C36.4939 32.0398 36.7011 31.9991 36.9101 32M12.6259 50.0023C12.6256 48.1675 13.0334 46.3556 13.8196 44.6978C14.6059 43.04 15.7509 41.5778 17.1718 40.417C18.5928 39.2562 20.254 38.4259 22.0354 37.9862C23.8167 37.5465 25.6735 37.5085 27.4714 37.8748C27.9077 37.958 28.3593 37.8659 28.7281 37.6183C29.0969 37.3708 29.3533 36.9878 29.4415 36.5524C29.5298 36.1171 29.4428 35.6645 29.1995 35.2929C28.9562 34.9212 28.5762 34.6605 28.1419 34.5673C24.8246 33.8928 21.3783 34.3051 18.3138 35.743C15.2493 37.1809 12.7295 39.5679 11.128 42.5502C9.52653 45.5325 8.92851 48.9515 9.42259 52.3003C9.91667 55.6492 11.4766 58.7498 13.8711 61.1425C16.2656 63.5353 19.3673 65.0929 22.7165 65.5845C26.0657 66.0761 29.4842 65.4756 32.4654 63.8719C35.4465 62.2683 37.8317 59.7468 39.2673 56.6812C40.703 53.6156 41.1127 50.169 40.4359 46.8523C40.3467 46.4137 40.0869 46.0285 39.7136 45.7814C39.3404 45.5344 38.8843 45.4457 38.4457 45.5349C38.0071 45.6241 37.6219 45.8839 37.3749 46.2571C37.1278 46.6303 37.0392 47.0864 37.1284 47.525C37.2919 48.3245 37.3744 49.1503 37.3759 50.0023C37.3759 53.2843 36.0721 56.4319 33.7513 58.7527C31.4306 61.0735 28.2829 62.3773 25.0009 62.3773C21.7188 62.3773 18.5712 61.0735 16.2504 58.7527C13.9297 56.4319 12.6259 53.2843 12.6259 50.0023ZM24.6949 44.3863C25.1418 44.3624 25.561 44.1619 25.8602 43.829C26.1593 43.4961 26.314 43.058 26.2901 42.611C26.2662 42.1641 26.0658 41.7449 25.7329 41.4457C25.4 41.1466 24.9618 40.9919 24.5149 41.0158C22.7867 41.1089 21.122 41.6983 19.7203 42.7134C18.3186 43.7286 17.2393 45.1263 16.6117 46.7392C15.9842 48.352 15.8349 50.1117 16.1819 51.8072C16.5289 53.5027 17.3574 55.0623 18.5682 56.2989C19.7789 57.5356 21.3206 58.3969 23.0084 58.7798C24.6962 59.1626 26.4586 59.0507 28.0844 58.4574C29.7102 57.8641 31.1305 56.8147 32.175 55.4348C33.2196 54.0549 33.8442 52.4031 33.9739 50.6773C34.007 50.2309 33.8614 49.7897 33.5692 49.4506C33.277 49.1116 32.8621 48.9025 32.4157 48.8694C31.9694 48.8363 31.5281 48.9818 31.1891 49.274C30.8501 49.5662 30.641 49.9812 30.6079 50.4275C30.5258 51.5056 30.1348 52.5372 29.4816 53.3987C28.8284 54.2603 27.9408 54.9154 26.9249 55.2856C25.9091 55.6558 24.8081 55.7253 23.7537 55.4859C22.6994 55.2466 21.7364 54.7084 20.9799 53.9359C20.2235 53.1634 19.7058 52.1892 19.4887 51.1301C19.2716 50.0709 19.3643 48.9716 19.7558 47.9638C20.1473 46.956 20.8209 46.0823 21.6961 45.4474C22.5712 44.8126 23.6108 44.4434 24.6904 44.384" fill="#F0F0F0"/>
<defs>
<linearGradient id="paint0_linear_2960_8076" x1="275" y1="710" x2="275" y2="110" gradientUnits="userSpaceOnUse">
<stop stop-color="#FAFAFA"/>
<stop offset="1" stop-color="white"/>
</linearGradient>
<linearGradient id="paint1_linear_2960_8076" x1="162" y1="573" x2="388" y2="573" gradientUnits="userSpaceOnUse">
<stop stop-color="#7666C4"/>
<stop offset="1" stop-color="#E39359"/>
</linearGradient>
<linearGradient id="paint2_linear_2960_8076" x1="0" y1="50" x2="50" y2="50" gradientUnits="userSpaceOnUse">
<stop stop-color="#7666C4"/>
<stop offset="1" stop-color="#E39359"/>
</linearGradient>
</defs>
</svg>
