<svg width="2700" height="570" viewBox="0 0 2700 570" fill="none" xmlns="http://www.w3.org/2000/svg">
<rect width="2700" height="570" rx="125" fill="url(#paint0_linear_3294_10252)"/>
<path d="M741.992 197.375H771.406V250.227C771.406 258.273 772.617 264.602 775.039 269.211C777.461 273.742 781.133 276.945 786.055 278.82C791.055 280.695 797.266 281.633 804.688 281.633C808.281 281.633 812.07 281.477 816.055 281.164C820.039 280.852 824.023 280.422 828.008 279.875C832.07 279.25 835.977 278.547 839.727 277.766C843.477 276.906 846.914 275.969 850.039 274.953V298.273C846.992 299.211 843.633 300.109 839.961 300.969C836.367 301.828 832.617 302.57 828.711 303.195C824.805 303.742 820.82 304.172 816.758 304.484C812.695 304.797 808.672 304.953 804.688 304.953C791.797 304.953 780.664 303.117 771.289 299.445C761.914 295.695 754.688 289.797 749.609 281.75C744.531 273.703 741.992 263.195 741.992 250.227V197.375ZM843.359 197.375H872.773V368H843.359V197.375ZM961.133 370.344C951.758 370.344 943.281 368.82 935.703 365.773C928.203 362.648 921.797 358.312 916.484 352.766C911.25 347.219 907.227 340.695 904.414 333.195C901.602 325.695 900.195 317.609 900.195 308.938V304.25C900.195 294.328 901.641 285.344 904.531 277.297C907.422 269.25 911.445 262.375 916.602 256.672C921.758 250.891 927.852 246.477 934.883 243.43C941.914 240.383 949.531 238.859 957.734 238.859C966.797 238.859 974.727 240.383 981.523 243.43C988.32 246.477 993.945 250.773 998.398 256.32C1002.93 261.789 1006.29 268.312 1008.48 275.891C1010.74 283.469 1011.88 291.828 1011.88 300.969V313.039H913.906V292.766H983.984V290.539C983.828 285.461 982.812 280.695 980.938 276.242C979.141 271.789 976.367 268.195 972.617 265.461C968.867 262.727 963.867 261.359 957.617 261.359C952.93 261.359 948.75 262.375 945.078 264.406C941.484 266.359 938.477 269.211 936.055 272.961C933.633 276.711 931.758 281.242 930.43 286.555C929.18 291.789 928.555 297.688 928.555 304.25V308.938C928.555 314.484 929.297 319.641 930.781 324.406C932.344 329.094 934.609 333.195 937.578 336.711C940.547 340.227 944.141 343 948.359 345.031C952.578 346.984 957.383 347.961 962.773 347.961C969.57 347.961 975.625 346.594 980.938 343.859C986.25 341.125 990.859 337.258 994.766 332.258L1009.65 346.672C1006.91 350.656 1003.36 354.484 998.984 358.156C994.609 361.75 989.258 364.68 982.93 366.945C976.68 369.211 969.414 370.344 961.133 370.344ZM1091.33 241.203V368H1062.97V241.203H1091.33ZM1132.93 241.203V263.469H1022.07V241.203H1132.93ZM1238.4 294.172V316.438H1172.77V294.172H1238.4ZM1180.98 241.203V368H1152.73V241.203H1180.98ZM1258.79 241.203V368H1230.55V241.203H1258.79ZM1283.52 306.008V303.312C1283.52 294.172 1284.84 285.695 1287.5 277.883C1290.16 269.992 1293.98 263.156 1298.98 257.375C1304.06 251.516 1310.23 246.984 1317.5 243.781C1324.84 240.5 1333.12 238.859 1342.34 238.859C1351.64 238.859 1359.92 240.5 1367.19 243.781C1374.53 246.984 1380.74 251.516 1385.82 257.375C1390.9 263.156 1394.77 269.992 1397.42 277.883C1400.08 285.695 1401.41 294.172 1401.41 303.312V306.008C1401.41 315.148 1400.08 323.625 1397.42 331.438C1394.77 339.25 1390.9 346.086 1385.82 351.945C1380.74 357.727 1374.57 362.258 1367.3 365.539C1360.04 368.742 1351.8 370.344 1342.58 370.344C1333.28 370.344 1324.96 368.742 1317.62 365.539C1310.35 362.258 1304.18 357.727 1299.1 351.945C1294.02 346.086 1290.16 339.25 1287.5 331.438C1284.84 323.625 1283.52 315.148 1283.52 306.008ZM1311.76 303.312V306.008C1311.76 311.711 1312.34 317.102 1313.52 322.18C1314.69 327.258 1316.52 331.711 1319.02 335.539C1321.52 339.367 1324.73 342.375 1328.63 344.562C1332.54 346.75 1337.19 347.844 1342.58 347.844C1347.81 347.844 1352.34 346.75 1356.17 344.562C1360.08 342.375 1363.28 339.367 1365.78 335.539C1368.28 331.711 1370.12 327.258 1371.29 322.18C1372.54 317.102 1373.16 311.711 1373.16 306.008V303.312C1373.16 297.688 1372.54 292.375 1371.29 287.375C1370.12 282.297 1368.24 277.805 1365.66 273.898C1363.16 269.992 1359.96 266.945 1356.05 264.758C1352.23 262.492 1347.66 261.359 1342.34 261.359C1337.03 261.359 1332.42 262.492 1328.52 264.758C1324.69 266.945 1321.52 269.992 1319.02 273.898C1316.52 277.805 1314.69 282.297 1313.52 287.375C1312.34 292.375 1311.76 297.688 1311.76 303.312ZM1480.98 370.344C1471.6 370.344 1463.12 368.82 1455.55 365.773C1448.05 362.648 1441.64 358.312 1436.33 352.766C1431.09 347.219 1427.07 340.695 1424.26 333.195C1421.45 325.695 1420.04 317.609 1420.04 308.938V304.25C1420.04 294.328 1421.48 285.344 1424.38 277.297C1427.27 269.25 1431.29 262.375 1436.45 256.672C1441.6 250.891 1447.7 246.477 1454.73 243.43C1461.76 240.383 1469.38 238.859 1477.58 238.859C1486.64 238.859 1494.57 240.383 1501.37 243.43C1508.16 246.477 1513.79 250.773 1518.24 256.32C1522.77 261.789 1526.13 268.312 1528.32 275.891C1530.59 283.469 1531.72 291.828 1531.72 300.969V313.039H1433.75V292.766H1503.83V290.539C1503.67 285.461 1502.66 280.695 1500.78 276.242C1498.98 271.789 1496.21 268.195 1492.46 265.461C1488.71 262.727 1483.71 261.359 1477.46 261.359C1472.77 261.359 1468.59 262.375 1464.92 264.406C1461.33 266.359 1458.32 269.211 1455.9 272.961C1453.48 276.711 1451.6 281.242 1450.27 286.555C1449.02 291.789 1448.4 297.688 1448.4 304.25V308.938C1448.4 314.484 1449.14 319.641 1450.62 324.406C1452.19 329.094 1454.45 333.195 1457.42 336.711C1460.39 340.227 1463.98 343 1468.2 345.031C1472.42 346.984 1477.23 347.961 1482.62 347.961C1489.41 347.961 1495.47 346.594 1500.78 343.859C1506.09 341.125 1510.7 337.258 1514.61 332.258L1529.49 346.672C1526.76 350.656 1523.2 354.484 1518.83 358.156C1514.45 361.75 1509.1 364.68 1502.77 366.945C1496.52 369.211 1489.26 370.344 1480.98 370.344Z" fill="white"/>
<path d="M2149.06 254.469L2165.16 282.516L2181.56 254.469H2202.27L2176.64 295.953L2203.28 339H2182.58L2165.39 309.781L2148.2 339H2127.42L2153.98 295.953L2128.44 254.469H2149.06ZM2265.47 224.859V339H2246.64V247.203L2218.75 256.656V241.109L2263.2 224.859H2265.47ZM2323.75 320.875L2323.67 334.312C2323.67 339.625 2322.34 345.094 2319.69 350.719C2317.03 356.344 2313.52 360.979 2309.14 364.625L2299.06 358.766C2300.52 356.422 2301.85 354.052 2303.05 351.656C2304.24 349.26 2305.21 346.708 2305.94 344C2306.67 341.292 2307.03 338.297 2307.03 335.016V320.875H2323.75ZM2415.16 307.984C2415.16 315.068 2413.52 321.031 2410.23 325.875C2406.95 330.719 2402.47 334.391 2396.8 336.891C2391.17 339.339 2384.82 340.562 2377.73 340.562C2370.65 340.562 2364.27 339.339 2358.59 336.891C2352.92 334.391 2348.44 330.719 2345.16 325.875C2341.88 321.031 2340.23 315.068 2340.23 307.984C2340.23 303.297 2341.15 299.052 2342.97 295.25C2344.79 291.396 2347.37 288.089 2350.7 285.328C2354.09 282.516 2358.05 280.354 2362.58 278.844C2367.16 277.333 2372.16 276.578 2377.58 276.578C2384.77 276.578 2391.2 277.906 2396.88 280.562C2402.55 283.219 2407.01 286.891 2410.23 291.578C2413.52 296.266 2415.16 301.734 2415.16 307.984ZM2396.25 307.047C2396.25 303.245 2395.47 299.911 2393.91 297.047C2392.34 294.182 2390.16 291.969 2387.34 290.406C2384.53 288.844 2381.28 288.062 2377.58 288.062C2373.83 288.062 2370.57 288.844 2367.81 290.406C2365.05 291.969 2362.89 294.182 2361.33 297.047C2359.82 299.911 2359.06 303.245 2359.06 307.047C2359.06 310.901 2359.82 314.234 2361.33 317.047C2362.84 319.807 2365 321.917 2367.81 323.375C2370.62 324.833 2373.93 325.562 2377.73 325.562C2381.54 325.562 2384.82 324.833 2387.58 323.375C2390.34 321.917 2392.47 319.807 2393.98 317.047C2395.49 314.234 2396.25 310.901 2396.25 307.047ZM2412.58 255.172C2412.58 260.849 2411.07 265.901 2408.05 270.328C2405.08 274.755 2400.96 278.245 2395.7 280.797C2390.44 283.297 2384.45 284.547 2377.73 284.547C2370.96 284.547 2364.92 283.297 2359.61 280.797C2354.35 278.245 2350.21 274.755 2347.19 270.328C2344.22 265.901 2342.73 260.849 2342.73 255.172C2342.73 248.401 2344.22 242.698 2347.19 238.062C2350.21 233.375 2354.35 229.807 2359.61 227.359C2364.87 224.911 2370.89 223.688 2377.66 223.688C2384.43 223.688 2390.44 224.911 2395.7 227.359C2400.96 229.807 2405.08 233.375 2408.05 238.062C2411.07 242.698 2412.58 248.401 2412.58 255.172ZM2393.75 255.797C2393.75 252.411 2393.07 249.443 2391.72 246.891C2390.42 244.286 2388.57 242.255 2386.17 240.797C2383.78 239.339 2380.94 238.609 2377.66 238.609C2374.38 238.609 2371.54 239.312 2369.14 240.719C2366.74 242.125 2364.9 244.104 2363.59 246.656C2362.29 249.208 2361.64 252.255 2361.64 255.797C2361.64 259.286 2362.29 262.333 2363.59 264.938C2364.9 267.49 2366.74 269.495 2369.14 270.953C2371.59 272.411 2374.45 273.141 2377.73 273.141C2381.02 273.141 2383.85 272.411 2386.25 270.953C2388.65 269.495 2390.49 267.49 2391.8 264.938C2393.1 262.333 2393.75 259.286 2393.75 255.797ZM2451.48 286.109L2436.48 282.438L2442.66 225.25H2503.98V241.188H2458.28L2455.16 269.078C2456.93 268.036 2459.38 267.021 2462.5 266.031C2465.62 264.99 2469.19 264.469 2473.2 264.469C2478.57 264.469 2483.36 265.354 2487.58 267.125C2491.85 268.844 2495.47 271.37 2498.44 274.703C2501.41 277.984 2503.67 281.995 2505.23 286.734C2506.8 291.422 2507.58 296.708 2507.58 302.594C2507.58 307.854 2506.8 312.776 2505.23 317.359C2503.72 321.943 2501.43 325.979 2498.36 329.469C2495.29 332.958 2491.41 335.693 2486.72 337.672C2482.08 339.599 2476.59 340.562 2470.23 340.562C2465.49 340.562 2460.94 339.885 2456.56 338.531C2452.24 337.125 2448.36 335.068 2444.92 332.359C2441.48 329.599 2438.72 326.214 2436.64 322.203C2434.56 318.141 2433.36 313.479 2433.05 308.219H2451.48C2451.95 311.917 2452.97 315.068 2454.53 317.672C2456.15 320.224 2458.28 322.177 2460.94 323.531C2463.59 324.885 2466.67 325.562 2470.16 325.562C2473.33 325.562 2476.07 325.016 2478.36 323.922C2480.65 322.776 2482.55 321.161 2484.06 319.078C2485.62 316.943 2486.77 314.443 2487.5 311.578C2488.28 308.714 2488.67 305.536 2488.67 302.047C2488.67 298.714 2488.23 295.667 2487.34 292.906C2486.51 290.146 2485.23 287.75 2483.52 285.719C2481.85 283.688 2479.74 282.125 2477.19 281.031C2474.64 279.885 2471.69 279.312 2468.36 279.312C2463.88 279.312 2460.44 279.964 2458.05 281.266C2455.7 282.568 2453.52 284.182 2451.48 286.109Z" fill="#F0F0F0"/>
<rect x="125" y="125" width="320" height="320" rx="75" fill="#696969"/>
<path d="M185 207.222C185 201.329 187.341 195.676 191.509 191.509C195.676 187.341 201.329 185 207.222 185H362.778C368.671 185 374.324 187.341 378.491 191.509C382.659 195.676 385 201.329 385 207.222V362.778C385 368.671 382.659 374.324 378.491 378.491C374.324 382.659 368.671 385 362.778 385H207.222C201.329 385 195.676 382.659 191.509 378.491C187.341 374.324 185 368.671 185 362.778V207.222Z" stroke="#0F0F0F" stroke-width="22.2222" stroke-linecap="round" stroke-linejoin="round"/>
<path d="M246.112 251.619C249.18 251.619 251.668 249.132 251.668 246.063C251.668 242.995 249.18 240.508 246.112 240.508C243.044 240.508 240.557 242.995 240.557 246.063C240.557 249.132 243.044 251.619 246.112 251.619Z" fill="#0F0F0F" stroke="#0F0F0F" stroke-width="22.2222" stroke-linecap="round" stroke-linejoin="round"/>
<path d="M323.876 251.619C326.944 251.619 329.431 249.132 329.431 246.063C329.431 242.995 326.944 240.508 323.876 240.508C320.808 240.508 318.32 242.995 318.32 246.063C318.32 249.132 320.808 251.619 323.876 251.619Z" fill="#0F0F0F" stroke="#0F0F0F" stroke-width="22.2222" stroke-linecap="round" stroke-linejoin="round"/>
<path d="M323.876 329.392C326.944 329.392 329.431 326.905 329.431 323.837C329.431 320.769 326.944 318.281 323.876 318.281C320.808 318.281 318.32 320.769 318.32 323.837C318.32 326.905 320.808 329.392 323.876 329.392Z" fill="#0F0F0F" stroke="#0F0F0F" stroke-width="22.2222" stroke-linecap="round" stroke-linejoin="round"/>
<path d="M246.112 329.392C249.18 329.392 251.668 326.905 251.668 323.837C251.668 320.769 249.18 318.281 246.112 318.281C243.044 318.281 240.557 320.769 240.557 323.837C240.557 326.905 243.044 329.392 246.112 329.392Z" fill="#0F0F0F" stroke="#0F0F0F" stroke-width="22.2222" stroke-linecap="round" stroke-linejoin="round"/>
<defs>
<linearGradient id="paint0_linear_3294_10252" x1="0" y1="285" x2="2700" y2="285" gradientUnits="userSpaceOnUse">
<stop stop-color="#212121"/>
<stop offset="1" stop-color="#131313"/>
</linearGradient>
</defs>
</svg>
