<svg width="2700" height="570" viewBox="0 0 2700 570" fill="none" xmlns="http://www.w3.org/2000/svg">
<rect width="2700" height="570" rx="125" fill="url(#paint0_linear_3294_10293)"/>
<path d="M805.078 268.625V291.945H714.492V268.625H805.078ZM721.758 197.375V368H692.344V197.375H721.758ZM827.695 197.375V368H798.398V197.375H827.695ZM915.82 370.344C906.445 370.344 897.969 368.82 890.391 365.773C882.891 362.648 876.484 358.312 871.172 352.766C865.938 347.219 861.914 340.695 859.102 333.195C856.289 325.695 854.883 317.609 854.883 308.938V304.25C854.883 294.328 856.328 285.344 859.219 277.297C862.109 269.25 866.133 262.375 871.289 256.672C876.445 250.891 882.539 246.477 889.57 243.43C896.602 240.383 904.219 238.859 912.422 238.859C921.484 238.859 929.414 240.383 936.211 243.43C943.008 246.477 948.633 250.773 953.086 256.32C957.617 261.789 960.977 268.312 963.164 275.891C965.43 283.469 966.562 291.828 966.562 300.969V313.039H868.594V292.766H938.672V290.539C938.516 285.461 937.5 280.695 935.625 276.242C933.828 271.789 931.055 268.195 927.305 265.461C923.555 262.727 918.555 261.359 912.305 261.359C907.617 261.359 903.438 262.375 899.766 264.406C896.172 266.359 893.164 269.211 890.742 272.961C888.32 276.711 886.445 281.242 885.117 286.555C883.867 291.789 883.242 297.688 883.242 304.25V308.938C883.242 314.484 883.984 319.641 885.469 324.406C887.031 329.094 889.297 333.195 892.266 336.711C895.234 340.227 898.828 343 903.047 345.031C907.266 346.984 912.07 347.961 917.461 347.961C924.258 347.961 930.312 346.594 935.625 343.859C940.938 341.125 945.547 337.258 949.453 332.258L964.336 346.672C961.602 350.656 958.047 354.484 953.672 358.156C949.297 361.75 943.945 364.68 937.617 366.945C931.367 369.211 924.102 370.344 915.82 370.344ZM1090.43 241.203V368H1062.19V241.203H1090.43ZM1078.48 297.336V319.719C1075.04 321.203 1071.17 322.57 1066.88 323.82C1062.66 324.992 1058.2 325.969 1053.52 326.75C1048.83 327.453 1044.1 327.805 1039.34 327.805C1028.16 327.805 1018.52 326.086 1010.39 322.648C1002.34 319.211 996.133 313.938 991.758 306.828C987.461 299.641 985.312 290.539 985.312 279.523V241.086H1013.44V279.523C1013.44 285.852 1014.38 290.891 1016.25 294.641C1018.2 298.391 1021.09 301.086 1024.92 302.727C1028.75 304.367 1033.55 305.188 1039.34 305.188C1044.18 305.188 1048.75 304.875 1053.05 304.25C1057.34 303.547 1061.6 302.609 1065.82 301.438C1070.04 300.266 1074.26 298.898 1078.48 297.336ZM1176.45 370.344C1167.07 370.344 1158.59 368.82 1151.02 365.773C1143.52 362.648 1137.11 358.312 1131.8 352.766C1126.56 347.219 1122.54 340.695 1119.73 333.195C1116.91 325.695 1115.51 317.609 1115.51 308.938V304.25C1115.51 294.328 1116.95 285.344 1119.84 277.297C1122.73 269.25 1126.76 262.375 1131.91 256.672C1137.07 250.891 1143.16 246.477 1150.2 243.43C1157.23 240.383 1164.84 238.859 1173.05 238.859C1182.11 238.859 1190.04 240.383 1196.84 243.43C1203.63 246.477 1209.26 250.773 1213.71 256.32C1218.24 261.789 1221.6 268.312 1223.79 275.891C1226.05 283.469 1227.19 291.828 1227.19 300.969V313.039H1129.22V292.766H1199.3V290.539C1199.14 285.461 1198.12 280.695 1196.25 276.242C1194.45 271.789 1191.68 268.195 1187.93 265.461C1184.18 262.727 1179.18 261.359 1172.93 261.359C1168.24 261.359 1164.06 262.375 1160.39 264.406C1156.8 266.359 1153.79 269.211 1151.37 272.961C1148.95 276.711 1147.07 281.242 1145.74 286.555C1144.49 291.789 1143.87 297.688 1143.87 304.25V308.938C1143.87 314.484 1144.61 319.641 1146.09 324.406C1147.66 329.094 1149.92 333.195 1152.89 336.711C1155.86 340.227 1159.45 343 1163.67 345.031C1167.89 346.984 1172.7 347.961 1178.09 347.961C1184.88 347.961 1190.94 346.594 1196.25 343.859C1201.56 341.125 1206.17 337.258 1210.08 332.258L1224.96 346.672C1222.23 350.656 1218.67 354.484 1214.3 358.156C1209.92 361.75 1204.57 364.68 1198.24 366.945C1191.99 369.211 1184.73 370.344 1176.45 370.344ZM1306.64 241.203V368H1278.28V241.203H1306.64ZM1348.24 241.203V263.469H1237.38V241.203H1348.24ZM1453.71 294.172V316.438H1388.09V294.172H1453.71ZM1396.29 241.203V368H1368.05V241.203H1396.29ZM1474.1 241.203V368H1445.86V241.203H1474.1ZM1498.83 306.008V303.312C1498.83 294.172 1500.16 285.695 1502.81 277.883C1505.47 269.992 1509.3 263.156 1514.3 257.375C1519.38 251.516 1525.55 246.984 1532.81 243.781C1540.16 240.5 1548.44 238.859 1557.66 238.859C1566.95 238.859 1575.23 240.5 1582.5 243.781C1589.84 246.984 1596.05 251.516 1601.13 257.375C1606.21 263.156 1610.08 269.992 1612.73 277.883C1615.39 285.695 1616.72 294.172 1616.72 303.312V306.008C1616.72 315.148 1615.39 323.625 1612.73 331.438C1610.08 339.25 1606.21 346.086 1601.13 351.945C1596.05 357.727 1589.88 362.258 1582.62 365.539C1575.35 368.742 1567.11 370.344 1557.89 370.344C1548.59 370.344 1540.27 368.742 1532.93 365.539C1525.66 362.258 1519.49 357.727 1514.41 351.945C1509.34 346.086 1505.47 339.25 1502.81 331.438C1500.16 323.625 1498.83 315.148 1498.83 306.008ZM1527.07 303.312V306.008C1527.07 311.711 1527.66 317.102 1528.83 322.18C1530 327.258 1531.84 331.711 1534.34 335.539C1536.84 339.367 1540.04 342.375 1543.95 344.562C1547.85 346.75 1552.5 347.844 1557.89 347.844C1563.12 347.844 1567.66 346.75 1571.48 344.562C1575.39 342.375 1578.59 339.367 1581.09 335.539C1583.59 331.711 1585.43 327.258 1586.6 322.18C1587.85 317.102 1588.48 311.711 1588.48 306.008V303.312C1588.48 297.688 1587.85 292.375 1586.6 287.375C1585.43 282.297 1583.55 277.805 1580.98 273.898C1578.48 269.992 1575.27 266.945 1571.37 264.758C1567.54 262.492 1562.97 261.359 1557.66 261.359C1552.34 261.359 1547.73 262.492 1543.83 264.758C1540 266.945 1536.84 269.992 1534.34 273.898C1531.84 277.805 1530 282.297 1528.83 287.375C1527.66 292.375 1527.07 297.688 1527.07 303.312ZM1696.29 370.344C1686.91 370.344 1678.44 368.82 1670.86 365.773C1663.36 362.648 1656.95 358.312 1651.64 352.766C1646.41 347.219 1642.38 340.695 1639.57 333.195C1636.76 325.695 1635.35 317.609 1635.35 308.938V304.25C1635.35 294.328 1636.8 285.344 1639.69 277.297C1642.58 269.25 1646.6 262.375 1651.76 256.672C1656.91 250.891 1663.01 246.477 1670.04 243.43C1677.07 240.383 1684.69 238.859 1692.89 238.859C1701.95 238.859 1709.88 240.383 1716.68 243.43C1723.48 246.477 1729.1 250.773 1733.55 256.32C1738.09 261.789 1741.45 268.312 1743.63 275.891C1745.9 283.469 1747.03 291.828 1747.03 300.969V313.039H1649.06V292.766H1719.14V290.539C1718.98 285.461 1717.97 280.695 1716.09 276.242C1714.3 271.789 1711.52 268.195 1707.77 265.461C1704.02 262.727 1699.02 261.359 1692.77 261.359C1688.09 261.359 1683.91 262.375 1680.23 264.406C1676.64 266.359 1673.63 269.211 1671.21 272.961C1668.79 276.711 1666.91 281.242 1665.59 286.555C1664.34 291.789 1663.71 297.688 1663.71 304.25V308.938C1663.71 314.484 1664.45 319.641 1665.94 324.406C1667.5 329.094 1669.77 333.195 1672.73 336.711C1675.7 340.227 1679.3 343 1683.52 345.031C1687.73 346.984 1692.54 347.961 1697.93 347.961C1704.73 347.961 1710.78 346.594 1716.09 343.859C1721.41 341.125 1726.02 337.258 1729.92 332.258L1744.8 346.672C1742.07 350.656 1738.52 354.484 1734.14 358.156C1729.77 361.75 1724.41 364.68 1718.09 366.945C1711.84 369.211 1704.57 370.344 1696.29 370.344Z" fill="white"/>
<path d="M2149.06 254.469L2165.16 282.516L2181.56 254.469H2202.27L2176.64 295.953L2203.28 339H2182.58L2165.39 309.781L2148.2 339H2127.42L2153.98 295.953L2128.44 254.469H2149.06ZM2265.47 224.859V339H2246.64V247.203L2218.75 256.656V241.109L2263.2 224.859H2265.47ZM2323.75 320.875L2323.67 334.312C2323.67 339.625 2322.34 345.094 2319.69 350.719C2317.03 356.344 2313.52 360.979 2309.14 364.625L2299.06 358.766C2300.52 356.422 2301.85 354.052 2303.05 351.656C2304.24 349.26 2305.21 346.708 2305.94 344C2306.67 341.292 2307.03 338.297 2307.03 335.016V320.875H2323.75ZM2415.16 307.984C2415.16 315.068 2413.52 321.031 2410.23 325.875C2406.95 330.719 2402.47 334.391 2396.8 336.891C2391.17 339.339 2384.82 340.562 2377.73 340.562C2370.65 340.562 2364.27 339.339 2358.59 336.891C2352.92 334.391 2348.44 330.719 2345.16 325.875C2341.88 321.031 2340.23 315.068 2340.23 307.984C2340.23 303.297 2341.15 299.052 2342.97 295.25C2344.79 291.396 2347.37 288.089 2350.7 285.328C2354.09 282.516 2358.05 280.354 2362.58 278.844C2367.16 277.333 2372.16 276.578 2377.58 276.578C2384.77 276.578 2391.2 277.906 2396.88 280.562C2402.55 283.219 2407.01 286.891 2410.23 291.578C2413.52 296.266 2415.16 301.734 2415.16 307.984ZM2396.25 307.047C2396.25 303.245 2395.47 299.911 2393.91 297.047C2392.34 294.182 2390.16 291.969 2387.34 290.406C2384.53 288.844 2381.28 288.062 2377.58 288.062C2373.83 288.062 2370.57 288.844 2367.81 290.406C2365.05 291.969 2362.89 294.182 2361.33 297.047C2359.82 299.911 2359.06 303.245 2359.06 307.047C2359.06 310.901 2359.82 314.234 2361.33 317.047C2362.84 319.807 2365 321.917 2367.81 323.375C2370.62 324.833 2373.93 325.562 2377.73 325.562C2381.54 325.562 2384.82 324.833 2387.58 323.375C2390.34 321.917 2392.47 319.807 2393.98 317.047C2395.49 314.234 2396.25 310.901 2396.25 307.047ZM2412.58 255.172C2412.58 260.849 2411.07 265.901 2408.05 270.328C2405.08 274.755 2400.96 278.245 2395.7 280.797C2390.44 283.297 2384.45 284.547 2377.73 284.547C2370.96 284.547 2364.92 283.297 2359.61 280.797C2354.35 278.245 2350.21 274.755 2347.19 270.328C2344.22 265.901 2342.73 260.849 2342.73 255.172C2342.73 248.401 2344.22 242.698 2347.19 238.062C2350.21 233.375 2354.35 229.807 2359.61 227.359C2364.87 224.911 2370.89 223.688 2377.66 223.688C2384.43 223.688 2390.44 224.911 2395.7 227.359C2400.96 229.807 2405.08 233.375 2408.05 238.062C2411.07 242.698 2412.58 248.401 2412.58 255.172ZM2393.75 255.797C2393.75 252.411 2393.07 249.443 2391.72 246.891C2390.42 244.286 2388.57 242.255 2386.17 240.797C2383.78 239.339 2380.94 238.609 2377.66 238.609C2374.38 238.609 2371.54 239.312 2369.14 240.719C2366.74 242.125 2364.9 244.104 2363.59 246.656C2362.29 249.208 2361.64 252.255 2361.64 255.797C2361.64 259.286 2362.29 262.333 2363.59 264.938C2364.9 267.49 2366.74 269.495 2369.14 270.953C2371.59 272.411 2374.45 273.141 2377.73 273.141C2381.02 273.141 2383.85 272.411 2386.25 270.953C2388.65 269.495 2390.49 267.49 2391.8 264.938C2393.1 262.333 2393.75 259.286 2393.75 255.797ZM2451.48 286.109L2436.48 282.438L2442.66 225.25H2503.98V241.188H2458.28L2455.16 269.078C2456.93 268.036 2459.38 267.021 2462.5 266.031C2465.62 264.99 2469.19 264.469 2473.2 264.469C2478.57 264.469 2483.36 265.354 2487.58 267.125C2491.85 268.844 2495.47 271.37 2498.44 274.703C2501.41 277.984 2503.67 281.995 2505.23 286.734C2506.8 291.422 2507.58 296.708 2507.58 302.594C2507.58 307.854 2506.8 312.776 2505.23 317.359C2503.72 321.943 2501.43 325.979 2498.36 329.469C2495.29 332.958 2491.41 335.693 2486.72 337.672C2482.08 339.599 2476.59 340.562 2470.23 340.562C2465.49 340.562 2460.94 339.885 2456.56 338.531C2452.24 337.125 2448.36 335.068 2444.92 332.359C2441.48 329.599 2438.72 326.214 2436.64 322.203C2434.56 318.141 2433.36 313.479 2433.05 308.219H2451.48C2451.95 311.917 2452.97 315.068 2454.53 317.672C2456.15 320.224 2458.28 322.177 2460.94 323.531C2463.59 324.885 2466.67 325.562 2470.16 325.562C2473.33 325.562 2476.07 325.016 2478.36 323.922C2480.65 322.776 2482.55 321.161 2484.06 319.078C2485.62 316.943 2486.77 314.443 2487.5 311.578C2488.28 308.714 2488.67 305.536 2488.67 302.047C2488.67 298.714 2488.23 295.667 2487.34 292.906C2486.51 290.146 2485.23 287.75 2483.52 285.719C2481.85 283.688 2479.74 282.125 2477.19 281.031C2474.64 279.885 2471.69 279.312 2468.36 279.312C2463.88 279.312 2460.44 279.964 2458.05 281.266C2455.7 282.568 2453.52 284.182 2451.48 286.109Z" fill="#F0F0F0"/>
<rect x="125" y="125" width="320" height="320" rx="75" fill="url(#paint1_linear_3294_10293)"/>
<path d="M185 207.222C185 201.329 187.341 195.676 191.509 191.509C195.676 187.341 201.329 185 207.222 185H362.778C368.671 185 374.324 187.341 378.491 191.509C382.659 195.676 385 201.329 385 207.222V362.778C385 368.671 382.659 374.324 378.491 378.491C374.324 382.659 368.671 385 362.778 385H207.222C201.329 385 195.676 382.659 191.509 378.491C187.341 374.324 185 368.671 185 362.778V207.222Z" stroke="#0F0F0F" stroke-width="22.2222" stroke-linecap="round" stroke-linejoin="round"/>
<path d="M246.112 251.619C249.18 251.619 251.668 249.132 251.668 246.063C251.668 242.995 249.18 240.508 246.112 240.508C243.044 240.508 240.557 242.995 240.557 246.063C240.557 249.132 243.044 251.619 246.112 251.619Z" fill="#0F0F0F" stroke="#0F0F0F" stroke-width="22.2222" stroke-linecap="round" stroke-linejoin="round"/>
<path d="M323.876 251.619C326.944 251.619 329.431 249.132 329.431 246.063C329.431 242.995 326.944 240.508 323.876 240.508C320.808 240.508 318.32 242.995 318.32 246.063C318.32 249.132 320.808 251.619 323.876 251.619Z" fill="#0F0F0F" stroke="#0F0F0F" stroke-width="22.2222" stroke-linecap="round" stroke-linejoin="round"/>
<path d="M323.876 329.392C326.944 329.392 329.431 326.905 329.431 323.837C329.431 320.769 326.944 318.281 323.876 318.281C320.808 318.281 318.32 320.769 318.32 323.837C318.32 326.905 320.808 329.392 323.876 329.392Z" fill="#0F0F0F" stroke="#0F0F0F" stroke-width="22.2222" stroke-linecap="round" stroke-linejoin="round"/>
<path d="M246.112 329.392C249.18 329.392 251.668 326.905 251.668 323.837C251.668 320.769 249.18 318.281 246.112 318.281C243.044 318.281 240.557 320.769 240.557 323.837C240.557 326.905 243.044 329.392 246.112 329.392Z" fill="#0F0F0F" stroke="#0F0F0F" stroke-width="22.2222" stroke-linecap="round" stroke-linejoin="round"/>
<defs>
<linearGradient id="paint0_linear_3294_10293" x1="2.44702e-05" y1="285" x2="2700" y2="285" gradientUnits="userSpaceOnUse">
<stop offset="0.05" stop-color="#0F0F0F" stop-opacity="0"/>
<stop offset="0.55" stop-color="#7D6CD0" stop-opacity="0.75"/>
<stop offset="1" stop-color="#66BBC4" stop-opacity="0.9"/>
</linearGradient>
<linearGradient id="paint1_linear_3294_10293" x1="125" y1="285" x2="445" y2="285" gradientUnits="userSpaceOnUse">
<stop stop-color="#7666C4"/>
<stop offset="1" stop-color="#66BBC4"/>
</linearGradient>
</defs>
</svg>
