<svg width="550" height="600" viewBox="0 0 550 600" fill="none" xmlns="http://www.w3.org/2000/svg">
<path d="M0 25C0 11.1929 11.1929 0 25 0H525C538.807 0 550 11.1929 550 25V575C550 588.807 538.807 600 525 600H25C11.1929 600 0 588.807 0 575V25Z" fill="#131313"/>
<rect x="142" y="494" width="240" height="72" rx="36" fill="#0F0F0F"/>
<rect x="319" y="503" width="54" height="54" rx="27" fill="url(#paint0_linear_4134_11990)"/>
<path d="M182.366 536.393L194.381 516.919H199.05V544H194.381V524.507L182.366 544H177.716V516.919H182.366V536.393ZM217.594 523.875V527.446H208.815V544H204.332V523.875H217.594ZM224.699 527.744V551.738H220.216V523.875H224.345L224.699 527.744ZM237.812 533.751V534.142C237.812 535.605 237.638 536.963 237.291 538.215C236.956 539.455 236.454 540.54 235.784 541.47C235.127 542.388 234.315 543.101 233.348 543.609C232.381 544.118 231.265 544.372 230 544.372C228.747 544.372 227.65 544.143 226.708 543.684C225.778 543.213 224.99 542.549 224.345 541.694C223.701 540.838 223.18 539.834 222.783 538.68C222.399 537.515 222.126 536.238 221.965 534.849V533.342C222.126 531.867 222.399 530.527 222.783 529.325C223.18 528.122 223.701 527.087 224.345 526.219C224.99 525.351 225.778 524.681 226.708 524.21C227.638 523.739 228.723 523.503 229.963 523.503C231.227 523.503 232.35 523.751 233.329 524.247C234.309 524.731 235.133 525.425 235.803 526.33C236.473 527.223 236.975 528.302 237.31 529.567C237.644 530.819 237.812 532.214 237.812 533.751ZM233.329 534.142V533.751C233.329 532.821 233.242 531.96 233.069 531.166C232.895 530.36 232.622 529.653 232.25 529.046C231.878 528.438 231.401 527.967 230.818 527.632C230.248 527.285 229.56 527.111 228.754 527.111C227.96 527.111 227.278 527.248 226.708 527.521C226.137 527.781 225.66 528.147 225.275 528.618C224.891 529.089 224.593 529.641 224.383 530.273C224.172 530.893 224.023 531.569 223.936 532.301V535.909C224.085 536.802 224.339 537.62 224.699 538.364C225.058 539.108 225.567 539.703 226.224 540.15C226.894 540.584 227.749 540.801 228.791 540.801C229.597 540.801 230.285 540.627 230.855 540.28C231.426 539.933 231.891 539.455 232.25 538.848C232.622 538.228 232.895 537.515 233.069 536.709C233.242 535.903 233.329 535.047 233.329 534.142ZM252.971 539.964V530.366C252.971 529.647 252.84 529.027 252.58 528.506C252.32 527.986 251.923 527.583 251.39 527.297C250.869 527.012 250.212 526.87 249.418 526.87C248.686 526.87 248.054 526.994 247.521 527.242C246.988 527.49 246.572 527.824 246.275 528.246C245.977 528.668 245.828 529.145 245.828 529.678H241.364C241.364 528.885 241.557 528.116 241.941 527.372C242.325 526.628 242.883 525.964 243.615 525.382C244.347 524.799 245.221 524.34 246.237 524.005C247.254 523.67 248.395 523.503 249.66 523.503C251.173 523.503 252.512 523.757 253.677 524.266C254.855 524.774 255.779 525.543 256.449 526.572C257.131 527.589 257.472 528.866 257.472 530.403V539.35C257.472 540.268 257.534 541.092 257.658 541.824C257.794 542.543 257.986 543.169 258.234 543.702V544H253.64C253.429 543.516 253.262 542.903 253.138 542.159C253.026 541.402 252.971 540.671 252.971 539.964ZM253.622 531.761L253.659 534.533H250.441C249.61 534.533 248.879 534.613 248.246 534.774C247.614 534.923 247.087 535.146 246.665 535.444C246.244 535.742 245.927 536.101 245.717 536.523C245.506 536.944 245.4 537.422 245.4 537.955C245.4 538.488 245.524 538.978 245.772 539.424C246.02 539.858 246.38 540.199 246.851 540.447C247.335 540.695 247.918 540.819 248.6 540.819C249.517 540.819 250.317 540.633 250.999 540.261C251.693 539.877 252.239 539.412 252.636 538.866C253.033 538.308 253.243 537.781 253.268 537.285L254.719 539.276C254.57 539.784 254.316 540.33 253.956 540.912C253.597 541.495 253.126 542.053 252.543 542.586C251.972 543.107 251.284 543.535 250.478 543.87C249.685 544.205 248.767 544.372 247.725 544.372C246.411 544.372 245.239 544.112 244.21 543.591C243.181 543.058 242.375 542.345 241.792 541.452C241.209 540.547 240.918 539.524 240.918 538.383C240.918 537.316 241.116 536.374 241.513 535.556C241.922 534.725 242.518 534.03 243.299 533.472C244.092 532.914 245.059 532.493 246.2 532.208C247.341 531.91 248.643 531.761 250.106 531.761H253.622ZM271.199 523.875V544H266.697V523.875H271.199ZM277.801 523.875V527.409H260.206V523.875H277.801ZM284.125 530.273H290.059C291.795 530.273 293.27 530.565 294.486 531.147C295.701 531.73 296.625 532.542 297.257 533.584C297.902 534.613 298.224 535.791 298.224 537.118C298.224 538.098 298.044 539.009 297.685 539.852C297.325 540.683 296.792 541.408 296.085 542.028C295.391 542.648 294.535 543.132 293.518 543.479C292.514 543.826 291.361 544 290.059 544H281.149V523.875H285.651V540.447H290.059C290.952 540.447 291.665 540.292 292.198 539.982C292.731 539.672 293.115 539.269 293.351 538.773C293.599 538.277 293.723 537.75 293.723 537.192C293.723 536.622 293.599 536.083 293.351 535.574C293.115 535.066 292.731 534.65 292.198 534.328C291.665 534.006 290.952 533.844 290.059 533.844H284.125V530.273Z" fill="white"/>
<path fill-rule="evenodd" clip-rule="evenodd" d="M357.205 531.666L341.84 545L338 541.667L351.444 530L338 518.333L341.84 515L357.205 528.334C357.714 528.776 358 529.375 358 530C358 530.625 357.714 531.224 357.205 531.666Z" fill="#F0F0F0"/>
<defs>
<linearGradient id="paint0_linear_4134_11990" x1="319" y1="530" x2="373" y2="530" gradientUnits="userSpaceOnUse">
<stop stop-color="#7666C4"/>
<stop offset="1" stop-color="#66BBC4"/>
</linearGradient>
</defs>
</svg>
