<svg width="5650" height="500" viewBox="0 0 5650 500" fill="none" xmlns="http://www.w3.org/2000/svg">
<rect width="5650" height="500" rx="125" fill="url(#paint0_linear_3551_12271)"/>
<path d="M125 156.667C125 149.594 127.81 142.811 132.81 137.81C137.811 132.81 144.594 130 151.667 130H338.333C345.406 130 352.189 132.81 357.19 137.81C362.19 142.811 365 149.594 365 156.667V343.333C365 350.406 362.19 357.189 357.19 362.19C352.189 367.19 345.406 370 338.333 370H151.667C144.594 370 137.811 367.19 132.81 362.19C127.81 357.189 125 350.406 125 343.333V156.667Z" stroke="white" stroke-width="26.6667" stroke-linecap="round" stroke-linejoin="round"/>
<path d="M198.346 209.935C202.028 209.935 205.013 206.95 205.013 203.268C205.013 199.586 202.028 196.602 198.346 196.602C194.664 196.602 191.68 199.586 191.68 203.268C191.68 206.95 194.664 209.935 198.346 209.935Z" fill="white" stroke="white" stroke-width="26.6667" stroke-linecap="round" stroke-linejoin="round"/>
<path d="M291.647 209.935C295.329 209.935 298.314 206.95 298.314 203.268C298.314 199.586 295.329 196.602 291.647 196.602C287.965 196.602 284.98 199.586 284.98 203.268C284.98 206.95 287.965 209.935 291.647 209.935Z" fill="white" stroke="white" stroke-width="26.6667" stroke-linecap="round" stroke-linejoin="round"/>
<path d="M291.647 303.255C295.329 303.255 298.314 300.27 298.314 296.589C298.314 292.907 295.329 289.922 291.647 289.922C287.965 289.922 284.98 292.907 284.98 296.589C284.98 300.27 287.965 303.255 291.647 303.255Z" fill="white" stroke="white" stroke-width="26.6667" stroke-linecap="round" stroke-linejoin="round"/>
<path d="M198.346 303.255C202.028 303.255 205.013 300.27 205.013 296.589C205.013 292.907 202.028 289.922 198.346 289.922C194.664 289.922 191.68 292.907 191.68 296.589C191.68 300.27 194.664 303.255 198.346 303.255Z" fill="white" stroke="white" stroke-width="26.6667" stroke-linecap="round" stroke-linejoin="round"/>
<path d="M575.186 217H547.852L548.027 199.51H575.186C583.096 199.51 589.717 197.781 595.049 194.324C600.439 190.867 604.482 185.916 607.178 179.471C609.932 173.025 611.309 165.35 611.309 156.443V149.5C611.309 142.586 610.518 136.463 608.936 131.131C607.412 125.799 605.127 121.316 602.08 117.684C599.092 114.051 595.4 111.297 591.006 109.422C586.67 107.547 581.66 106.609 575.977 106.609H547.324V89.0312H575.977C584.473 89.0312 592.236 90.4668 599.268 93.3379C606.299 96.1504 612.363 100.223 617.461 105.555C622.617 110.887 626.572 117.273 629.326 124.715C632.08 132.156 633.457 140.477 633.457 149.676V156.443C633.457 165.643 632.08 173.963 629.326 181.404C626.572 188.846 622.617 195.232 617.461 200.564C612.305 205.838 606.152 209.91 599.004 212.781C591.914 215.594 583.975 217 575.186 217ZM560.068 89.0312V217H538.008V89.0312H560.068ZM676.172 121.902V217H654.902V121.902H676.172ZM653.496 96.9414C653.496 93.7188 654.551 91.0527 656.66 88.9434C658.828 86.7754 661.816 85.6914 665.625 85.6914C669.375 85.6914 672.334 86.7754 674.502 88.9434C676.67 91.0527 677.754 93.7188 677.754 96.9414C677.754 100.105 676.67 102.742 674.502 104.852C672.334 106.961 669.375 108.016 665.625 108.016C661.816 108.016 658.828 106.961 656.66 104.852C654.551 102.742 653.496 100.105 653.496 96.9414ZM738.223 201.883C741.68 201.883 744.785 201.209 747.539 199.861C750.352 198.455 752.607 196.521 754.307 194.061C756.064 191.6 757.031 188.758 757.207 185.535H777.158C777.041 191.688 775.225 197.283 771.709 202.322C768.193 207.361 763.535 211.375 757.734 214.363C751.934 217.293 745.518 218.758 738.486 218.758C731.221 218.758 724.893 217.527 719.502 215.066C714.111 212.547 709.629 209.09 706.055 204.695C702.48 200.301 699.785 195.232 697.969 189.49C696.211 183.748 695.332 177.596 695.332 171.033V167.957C695.332 161.395 696.211 155.242 697.969 149.5C699.785 143.699 702.48 138.602 706.055 134.207C709.629 129.812 714.111 126.385 719.502 123.924C724.893 121.404 731.191 120.145 738.398 120.145C746.016 120.145 752.695 121.668 758.438 124.715C764.18 127.703 768.691 131.893 771.973 137.283C775.312 142.615 777.041 148.826 777.158 155.916H757.207C757.031 152.4 756.152 149.236 754.57 146.424C753.047 143.553 750.879 141.268 748.066 139.568C745.312 137.869 742.002 137.02 738.135 137.02C733.857 137.02 730.312 137.898 727.5 139.656C724.688 141.355 722.49 143.699 720.908 146.688C719.326 149.617 718.184 152.928 717.48 156.619C716.836 160.252 716.514 164.031 716.514 167.957V171.033C716.514 174.959 716.836 178.768 717.48 182.459C718.125 186.15 719.238 189.461 720.82 192.391C722.461 195.262 724.688 197.576 727.5 199.334C730.312 201.033 733.887 201.883 738.223 201.883ZM835.342 218.758C828.311 218.758 821.953 217.615 816.27 215.33C810.645 212.986 805.84 209.734 801.855 205.574C797.93 201.414 794.912 196.521 792.803 190.896C790.693 185.271 789.639 179.207 789.639 172.703V169.188C789.639 161.746 790.723 155.008 792.891 148.973C795.059 142.938 798.076 137.781 801.943 133.504C805.811 129.168 810.381 125.857 815.654 123.572C820.928 121.287 826.641 120.145 832.793 120.145C839.59 120.145 845.537 121.287 850.635 123.572C855.732 125.857 859.951 129.08 863.291 133.24C866.689 137.342 869.209 142.234 870.85 147.918C872.549 153.602 873.398 159.871 873.398 166.727V175.779H799.922V160.574H852.48V158.904C852.363 155.096 851.602 151.521 850.195 148.182C848.848 144.842 846.768 142.146 843.955 140.096C841.143 138.045 837.393 137.02 832.705 137.02C829.189 137.02 826.055 137.781 823.301 139.305C820.605 140.77 818.35 142.908 816.533 145.721C814.717 148.533 813.311 151.932 812.314 155.916C811.377 159.842 810.908 164.266 810.908 169.188V172.703C810.908 176.863 811.465 180.73 812.578 184.305C813.75 187.82 815.449 190.896 817.676 193.533C819.902 196.17 822.598 198.25 825.762 199.773C828.926 201.238 832.529 201.971 836.572 201.971C841.67 201.971 846.211 200.945 850.195 198.895C854.18 196.844 857.637 193.943 860.566 190.193L871.729 201.004C869.678 203.992 867.012 206.863 863.73 209.617C860.449 212.312 856.436 214.51 851.689 216.209C847.002 217.908 841.553 218.758 835.342 218.758Z" fill="white"/>
<path d="M5402.96 150C5406.73 150.001 5410.43 151.038 5413.69 153.005C5416.95 154.973 5419.65 157.801 5421.52 161.203L5457.18 226.019C5459.51 230.252 5460.43 235.162 5459.81 239.994C5459.19 244.826 5457.06 249.311 5453.74 252.759L5354.45 355.93C5353.21 357.22 5351.74 358.244 5350.12 358.942C5348.49 359.641 5346.76 360 5345 360C5343.24 360 5341.51 359.641 5339.88 358.942C5338.26 358.244 5336.79 357.22 5335.55 355.93L5236.26 252.759C5232.94 249.311 5230.81 244.826 5230.19 239.994C5229.57 235.162 5230.49 230.252 5232.82 226.019L5268.46 161.192C5270.34 157.793 5273.04 154.969 5276.29 153.003C5279.55 151.038 5283.25 150.002 5287.02 150H5402.96ZM5377.08 183.342H5312.9C5310.18 183.345 5307.56 184.43 5305.57 186.374C5303.59 188.319 5302.4 190.976 5302.24 193.804C5302.08 196.632 5302.96 199.417 5304.71 201.589C5306.46 203.761 5308.95 205.157 5311.65 205.492L5312.9 205.57H5334.29V222.741C5326.19 223.519 5318.82 225.152 5312.86 227.475C5308.64 229.12 5304.85 231.209 5302.03 233.821C5299.2 236.433 5296.86 240.012 5296.86 244.468C5296.86 248.925 5299.2 252.515 5302.03 255.115C5304.85 257.727 5308.64 259.817 5312.86 261.45C5319.21 263.929 5327.17 265.64 5335.93 266.34C5335.09 267.742 5334.55 269.321 5334.37 270.964L5334.29 272.253V294.481C5334.3 297.314 5335.34 300.038 5337.21 302.098C5339.08 304.158 5341.64 305.397 5344.36 305.563C5347.08 305.729 5349.76 304.809 5351.85 302.991C5353.94 301.173 5355.29 298.594 5355.61 295.781L5355.68 294.481V272.253C5355.69 270.161 5355.12 268.112 5354.05 266.34C5362.81 265.64 5370.76 263.94 5377.12 261.45C5381.34 259.817 5385.13 257.727 5387.95 255.115C5390.78 252.504 5393.12 248.925 5393.12 244.468C5393.12 240.012 5390.78 236.422 5387.95 233.821C5385.13 231.209 5381.34 229.12 5377.12 227.486C5371.3 225.318 5365.26 223.856 5359.12 223.13L5355.68 222.741V205.57H5377.08C5379.8 205.566 5382.42 204.482 5384.41 202.537C5386.39 200.593 5387.58 197.935 5387.74 195.107C5387.9 192.279 5387.01 189.495 5385.26 187.322C5383.52 185.15 5381.03 183.754 5378.33 183.42L5377.08 183.342ZM5355.67 233.91C5361.71 234.462 5367.65 235.795 5373.36 237.878C5376.88 239.256 5379.35 240.756 5380.85 242.134C5381.5 242.654 5382.02 243.334 5382.35 244.113L5382.42 244.468L5382.35 244.824C5382.02 245.603 5381.5 246.283 5380.85 246.802C5379.35 248.18 5376.88 249.692 5373.36 251.048C5366.36 253.782 5356.33 255.582 5344.99 255.582C5333.65 255.582 5323.62 253.782 5316.61 251.048C5313.1 249.681 5310.63 248.18 5309.12 246.802C5308.47 246.283 5307.95 245.603 5307.62 244.824L5307.56 244.468C5307.56 244.324 5307.61 243.524 5309.12 242.134C5310.63 240.745 5313.1 239.245 5316.61 237.889C5321.32 236.055 5327.38 234.632 5334.3 233.91C5334.43 236.769 5335.61 239.468 5337.6 241.446C5339.59 243.423 5342.24 244.527 5344.99 244.527C5347.74 244.527 5350.39 243.423 5352.38 241.446C5354.37 239.468 5355.55 236.769 5355.67 233.91Z" fill="#696969"/>
<defs>
<linearGradient id="paint0_linear_3551_12271" x1="4.31449e-05" y1="250" x2="5650" y2="250" gradientUnits="userSpaceOnUse">
<stop stop-color="#66BBC4" stop-opacity="0.9"/>
<stop offset="0.4" stop-color="#7D6CD0" stop-opacity="0.9"/>
<stop offset="0.75" stop-color="#212121"/>
</linearGradient>
</defs>
</svg>
