<svg width="64" height="64" viewBox="0 0 64 64" fill="none" xmlns="http://www.w3.org/2000/svg">
<rect width="64" height="64" rx="15" fill="url(#paint0_linear_4091_11635)"/>
<path d="M12 16.4444C12 15.2657 12.4683 14.1352 13.3017 13.3017C14.1352 12.4683 15.2657 12 16.4444 12H47.5556C48.7343 12 49.8648 12.4683 50.6983 13.3017C51.5317 14.1352 52 15.2657 52 16.4444V47.5556C52 48.7343 51.5317 49.8648 50.6983 50.6983C49.8648 51.5317 48.7343 52 47.5556 52H16.4444C15.2657 52 14.1352 51.5317 13.3017 50.6983C12.4683 49.8648 12 48.7343 12 47.5556V16.4444Z" stroke="white" stroke-width="4.44444" stroke-linecap="round" stroke-linejoin="round"/>
<path d="M24.2205 25.3238C24.8341 25.3238 25.3316 24.8263 25.3316 24.2127C25.3316 23.599 24.8341 23.1016 24.2205 23.1016C23.6068 23.1016 23.1094 23.599 23.1094 24.2127C23.1094 24.8263 23.6068 25.3238 24.2205 25.3238Z" fill="white" stroke="white" stroke-width="4.44444" stroke-linecap="round" stroke-linejoin="round"/>
<path d="M39.7752 25.3238C40.3888 25.3238 40.8863 24.8263 40.8863 24.2127C40.8863 23.599 40.3888 23.1016 39.7752 23.1016C39.1615 23.1016 38.6641 23.599 38.6641 24.2127C38.6641 24.8263 39.1615 25.3238 39.7752 25.3238Z" fill="white" stroke="white" stroke-width="4.44444" stroke-linecap="round" stroke-linejoin="round"/>
<path d="M39.7752 40.8785C40.3888 40.8785 40.8863 40.381 40.8863 39.7674C40.8863 39.1537 40.3888 38.6562 39.7752 38.6562C39.1615 38.6562 38.6641 39.1537 38.6641 39.7674C38.6641 40.381 39.1615 40.8785 39.7752 40.8785Z" fill="white" stroke="white" stroke-width="4.44444" stroke-linecap="round" stroke-linejoin="round"/>
<path d="M24.2205 40.8785C24.8341 40.8785 25.3316 40.381 25.3316 39.7674C25.3316 39.1537 24.8341 38.6562 24.2205 38.6562C23.6068 38.6562 23.1094 39.1537 23.1094 39.7674C23.1094 40.381 23.6068 40.8785 24.2205 40.8785Z" fill="white" stroke="white" stroke-width="4.44444" stroke-linecap="round" stroke-linejoin="round"/>
<defs>
<linearGradient id="paint0_linear_4091_11635" x1="0" y1="32" x2="64" y2="32" gradientUnits="userSpaceOnUse">
<stop stop-color="#7666C4"/>
<stop offset="1" stop-color="#66BBC4"/>
</linearGradient>
</defs>
</svg>
