<svg width="2700" height="570" viewBox="0 0 2700 570" fill="none" xmlns="http://www.w3.org/2000/svg">
<rect y="0.0078125" width="2700" height="570" rx="125" fill="url(#paint0_linear_3294_10266)"/>
<path d="M805.078 268.633V291.953H714.492V268.633H805.078ZM721.758 197.383V368.008H692.344V197.383H721.758ZM827.695 197.383V368.008H798.398V197.383H827.695ZM915.82 370.352C906.445 370.352 897.969 368.828 890.391 365.781C882.891 362.656 876.484 358.32 871.172 352.773C865.938 347.227 861.914 340.703 859.102 333.203C856.289 325.703 854.883 317.617 854.883 308.945V304.258C854.883 294.336 856.328 285.352 859.219 277.305C862.109 269.258 866.133 262.383 871.289 256.68C876.445 250.898 882.539 246.484 889.57 243.438C896.602 240.391 904.219 238.867 912.422 238.867C921.484 238.867 929.414 240.391 936.211 243.438C943.008 246.484 948.633 250.781 953.086 256.328C957.617 261.797 960.977 268.32 963.164 275.898C965.43 283.477 966.562 291.836 966.562 300.977V313.047H868.594V292.773H938.672V290.547C938.516 285.469 937.5 280.703 935.625 276.25C933.828 271.797 931.055 268.203 927.305 265.469C923.555 262.734 918.555 261.367 912.305 261.367C907.617 261.367 903.438 262.383 899.766 264.414C896.172 266.367 893.164 269.219 890.742 272.969C888.32 276.719 886.445 281.25 885.117 286.562C883.867 291.797 883.242 297.695 883.242 304.258V308.945C883.242 314.492 883.984 319.648 885.469 324.414C887.031 329.102 889.297 333.203 892.266 336.719C895.234 340.234 898.828 343.008 903.047 345.039C907.266 346.992 912.07 347.969 917.461 347.969C924.258 347.969 930.312 346.602 935.625 343.867C940.938 341.133 945.547 337.266 949.453 332.266L964.336 346.68C961.602 350.664 958.047 354.492 953.672 358.164C949.297 361.758 943.945 364.688 937.617 366.953C931.367 369.219 924.102 370.352 915.82 370.352ZM1090.43 241.211V368.008H1062.19V241.211H1090.43ZM1078.48 297.344V319.727C1075.04 321.211 1071.17 322.578 1066.88 323.828C1062.66 325 1058.2 325.977 1053.52 326.758C1048.83 327.461 1044.1 327.812 1039.34 327.812C1028.16 327.812 1018.52 326.094 1010.39 322.656C1002.34 319.219 996.133 313.945 991.758 306.836C987.461 299.648 985.312 290.547 985.312 279.531V241.094H1013.44V279.531C1013.44 285.859 1014.38 290.898 1016.25 294.648C1018.2 298.398 1021.09 301.094 1024.92 302.734C1028.75 304.375 1033.55 305.195 1039.34 305.195C1044.18 305.195 1048.75 304.883 1053.05 304.258C1057.34 303.555 1061.6 302.617 1065.82 301.445C1070.04 300.273 1074.26 298.906 1078.48 297.344ZM1176.45 370.352C1167.07 370.352 1158.59 368.828 1151.02 365.781C1143.52 362.656 1137.11 358.32 1131.8 352.773C1126.56 347.227 1122.54 340.703 1119.73 333.203C1116.91 325.703 1115.51 317.617 1115.51 308.945V304.258C1115.51 294.336 1116.95 285.352 1119.84 277.305C1122.73 269.258 1126.76 262.383 1131.91 256.68C1137.07 250.898 1143.16 246.484 1150.2 243.438C1157.23 240.391 1164.84 238.867 1173.05 238.867C1182.11 238.867 1190.04 240.391 1196.84 243.438C1203.63 246.484 1209.26 250.781 1213.71 256.328C1218.24 261.797 1221.6 268.32 1223.79 275.898C1226.05 283.477 1227.19 291.836 1227.19 300.977V313.047H1129.22V292.773H1199.3V290.547C1199.14 285.469 1198.12 280.703 1196.25 276.25C1194.45 271.797 1191.68 268.203 1187.93 265.469C1184.18 262.734 1179.18 261.367 1172.93 261.367C1168.24 261.367 1164.06 262.383 1160.39 264.414C1156.8 266.367 1153.79 269.219 1151.37 272.969C1148.95 276.719 1147.07 281.25 1145.74 286.562C1144.49 291.797 1143.87 297.695 1143.87 304.258V308.945C1143.87 314.492 1144.61 319.648 1146.09 324.414C1147.66 329.102 1149.92 333.203 1152.89 336.719C1155.86 340.234 1159.45 343.008 1163.67 345.039C1167.89 346.992 1172.7 347.969 1178.09 347.969C1184.88 347.969 1190.94 346.602 1196.25 343.867C1201.56 341.133 1206.17 337.266 1210.08 332.266L1224.96 346.68C1222.23 350.664 1218.67 354.492 1214.3 358.164C1209.92 361.758 1204.57 364.688 1198.24 366.953C1191.99 369.219 1184.73 370.352 1176.45 370.352ZM1306.64 241.211V368.008H1278.28V241.211H1306.64ZM1348.24 241.211V263.477H1237.38V241.211H1348.24ZM1453.71 294.18V316.445H1388.09V294.18H1453.71ZM1396.29 241.211V368.008H1368.05V241.211H1396.29ZM1474.1 241.211V368.008H1445.86V241.211H1474.1ZM1498.83 306.016V303.32C1498.83 294.18 1500.16 285.703 1502.81 277.891C1505.47 270 1509.3 263.164 1514.3 257.383C1519.38 251.523 1525.55 246.992 1532.81 243.789C1540.16 240.508 1548.44 238.867 1557.66 238.867C1566.95 238.867 1575.23 240.508 1582.5 243.789C1589.84 246.992 1596.05 251.523 1601.13 257.383C1606.21 263.164 1610.08 270 1612.73 277.891C1615.39 285.703 1616.72 294.18 1616.72 303.32V306.016C1616.72 315.156 1615.39 323.633 1612.73 331.445C1610.08 339.258 1606.21 346.094 1601.13 351.953C1596.05 357.734 1589.88 362.266 1582.62 365.547C1575.35 368.75 1567.11 370.352 1557.89 370.352C1548.59 370.352 1540.27 368.75 1532.93 365.547C1525.66 362.266 1519.49 357.734 1514.41 351.953C1509.34 346.094 1505.47 339.258 1502.81 331.445C1500.16 323.633 1498.83 315.156 1498.83 306.016ZM1527.07 303.32V306.016C1527.07 311.719 1527.66 317.109 1528.83 322.188C1530 327.266 1531.84 331.719 1534.34 335.547C1536.84 339.375 1540.04 342.383 1543.95 344.57C1547.85 346.758 1552.5 347.852 1557.89 347.852C1563.12 347.852 1567.66 346.758 1571.48 344.57C1575.39 342.383 1578.59 339.375 1581.09 335.547C1583.59 331.719 1585.43 327.266 1586.6 322.188C1587.85 317.109 1588.48 311.719 1588.48 306.016V303.32C1588.48 297.695 1587.85 292.383 1586.6 287.383C1585.43 282.305 1583.55 277.812 1580.98 273.906C1578.48 270 1575.27 266.953 1571.37 264.766C1567.54 262.5 1562.97 261.367 1557.66 261.367C1552.34 261.367 1547.73 262.5 1543.83 264.766C1540 266.953 1536.84 270 1534.34 273.906C1531.84 277.812 1530 282.305 1528.83 287.383C1527.66 292.383 1527.07 297.695 1527.07 303.32ZM1696.29 370.352C1686.91 370.352 1678.44 368.828 1670.86 365.781C1663.36 362.656 1656.95 358.32 1651.64 352.773C1646.41 347.227 1642.38 340.703 1639.57 333.203C1636.76 325.703 1635.35 317.617 1635.35 308.945V304.258C1635.35 294.336 1636.8 285.352 1639.69 277.305C1642.58 269.258 1646.6 262.383 1651.76 256.68C1656.91 250.898 1663.01 246.484 1670.04 243.438C1677.07 240.391 1684.69 238.867 1692.89 238.867C1701.95 238.867 1709.88 240.391 1716.68 243.438C1723.48 246.484 1729.1 250.781 1733.55 256.328C1738.09 261.797 1741.45 268.32 1743.63 275.898C1745.9 283.477 1747.03 291.836 1747.03 300.977V313.047H1649.06V292.773H1719.14V290.547C1718.98 285.469 1717.97 280.703 1716.09 276.25C1714.3 271.797 1711.52 268.203 1707.77 265.469C1704.02 262.734 1699.02 261.367 1692.77 261.367C1688.09 261.367 1683.91 262.383 1680.23 264.414C1676.64 266.367 1673.63 269.219 1671.21 272.969C1668.79 276.719 1666.91 281.25 1665.59 286.562C1664.34 291.797 1663.71 297.695 1663.71 304.258V308.945C1663.71 314.492 1664.45 319.648 1665.94 324.414C1667.5 329.102 1669.77 333.203 1672.73 336.719C1675.7 340.234 1679.3 343.008 1683.52 345.039C1687.73 346.992 1692.54 347.969 1697.93 347.969C1704.73 347.969 1710.78 346.602 1716.09 343.867C1721.41 341.133 1726.02 337.266 1729.92 332.266L1744.8 346.68C1742.07 350.664 1738.52 354.492 1734.14 358.164C1729.77 361.758 1724.41 364.688 1718.09 366.953C1711.84 369.219 1704.57 370.352 1696.29 370.352Z" fill="white"/>
<path d="M2149.06 254.477L2165.16 282.523L2181.56 254.477H2202.27L2176.64 295.961L2203.28 339.008H2182.58L2165.39 309.789L2148.2 339.008H2127.42L2153.98 295.961L2128.44 254.477H2149.06ZM2265.47 224.867V339.008H2246.64V247.211L2218.75 256.664V241.117L2263.2 224.867H2265.47ZM2323.75 320.883L2323.67 334.32C2323.67 339.633 2322.34 345.102 2319.69 350.727C2317.03 356.352 2313.52 360.987 2309.14 364.633L2299.06 358.773C2300.52 356.43 2301.85 354.06 2303.05 351.664C2304.24 349.268 2305.21 346.716 2305.94 344.008C2306.67 341.299 2307.03 338.305 2307.03 335.023V320.883H2323.75ZM2415.16 307.992C2415.16 315.076 2413.52 321.039 2410.23 325.883C2406.95 330.727 2402.47 334.398 2396.8 336.898C2391.17 339.346 2384.82 340.57 2377.73 340.57C2370.65 340.57 2364.27 339.346 2358.59 336.898C2352.92 334.398 2348.44 330.727 2345.16 325.883C2341.88 321.039 2340.23 315.076 2340.23 307.992C2340.23 303.305 2341.15 299.06 2342.97 295.258C2344.79 291.404 2347.37 288.096 2350.7 285.336C2354.09 282.523 2358.05 280.362 2362.58 278.852C2367.16 277.341 2372.16 276.586 2377.58 276.586C2384.77 276.586 2391.2 277.914 2396.88 280.57C2402.55 283.227 2407.01 286.898 2410.23 291.586C2413.52 296.273 2415.16 301.742 2415.16 307.992ZM2396.25 307.055C2396.25 303.253 2395.47 299.919 2393.91 297.055C2392.34 294.19 2390.16 291.977 2387.34 290.414C2384.53 288.852 2381.28 288.07 2377.58 288.07C2373.83 288.07 2370.57 288.852 2367.81 290.414C2365.05 291.977 2362.89 294.19 2361.33 297.055C2359.82 299.919 2359.06 303.253 2359.06 307.055C2359.06 310.909 2359.82 314.242 2361.33 317.055C2362.84 319.815 2365 321.924 2367.81 323.383C2370.62 324.841 2373.93 325.57 2377.73 325.57C2381.54 325.57 2384.82 324.841 2387.58 323.383C2390.34 321.924 2392.47 319.815 2393.98 317.055C2395.49 314.242 2396.25 310.909 2396.25 307.055ZM2412.58 255.18C2412.58 260.857 2411.07 265.909 2408.05 270.336C2405.08 274.763 2400.96 278.253 2395.7 280.805C2390.44 283.305 2384.45 284.555 2377.73 284.555C2370.96 284.555 2364.92 283.305 2359.61 280.805C2354.35 278.253 2350.21 274.763 2347.19 270.336C2344.22 265.909 2342.73 260.857 2342.73 255.18C2342.73 248.409 2344.22 242.706 2347.19 238.07C2350.21 233.383 2354.35 229.815 2359.61 227.367C2364.87 224.919 2370.89 223.695 2377.66 223.695C2384.43 223.695 2390.44 224.919 2395.7 227.367C2400.96 229.815 2405.08 233.383 2408.05 238.07C2411.07 242.706 2412.58 248.409 2412.58 255.18ZM2393.75 255.805C2393.75 252.419 2393.07 249.451 2391.72 246.898C2390.42 244.294 2388.57 242.263 2386.17 240.805C2383.78 239.346 2380.94 238.617 2377.66 238.617C2374.38 238.617 2371.54 239.32 2369.14 240.727C2366.74 242.133 2364.9 244.112 2363.59 246.664C2362.29 249.216 2361.64 252.263 2361.64 255.805C2361.64 259.294 2362.29 262.341 2363.59 264.945C2364.9 267.497 2366.74 269.503 2369.14 270.961C2371.59 272.419 2374.45 273.148 2377.73 273.148C2381.02 273.148 2383.85 272.419 2386.25 270.961C2388.65 269.503 2390.49 267.497 2391.8 264.945C2393.1 262.341 2393.75 259.294 2393.75 255.805ZM2451.48 286.117L2436.48 282.445L2442.66 225.258H2503.98V241.195H2458.28L2455.16 269.086C2456.93 268.044 2459.38 267.029 2462.5 266.039C2465.62 264.997 2469.19 264.477 2473.2 264.477C2478.57 264.477 2483.36 265.362 2487.58 267.133C2491.85 268.852 2495.47 271.378 2498.44 274.711C2501.41 277.992 2503.67 282.003 2505.23 286.742C2506.8 291.43 2507.58 296.716 2507.58 302.602C2507.58 307.862 2506.8 312.784 2505.23 317.367C2503.72 321.951 2501.43 325.987 2498.36 329.477C2495.29 332.966 2491.41 335.701 2486.72 337.68C2482.08 339.607 2476.59 340.57 2470.23 340.57C2465.49 340.57 2460.94 339.893 2456.56 338.539C2452.24 337.133 2448.36 335.076 2444.92 332.367C2441.48 329.607 2438.72 326.221 2436.64 322.211C2434.56 318.148 2433.36 313.487 2433.05 308.227H2451.48C2451.95 311.924 2452.97 315.076 2454.53 317.68C2456.15 320.232 2458.28 322.185 2460.94 323.539C2463.59 324.893 2466.67 325.57 2470.16 325.57C2473.33 325.57 2476.07 325.023 2478.36 323.93C2480.65 322.784 2482.55 321.169 2484.06 319.086C2485.62 316.951 2486.77 314.451 2487.5 311.586C2488.28 308.721 2488.67 305.544 2488.67 302.055C2488.67 298.721 2488.23 295.674 2487.34 292.914C2486.51 290.154 2485.23 287.758 2483.52 285.727C2481.85 283.695 2479.74 282.133 2477.19 281.039C2474.64 279.893 2471.69 279.32 2468.36 279.32C2463.88 279.32 2460.44 279.971 2458.05 281.273C2455.7 282.576 2453.52 284.19 2451.48 286.117Z" fill="#F0F0F0"/>
<rect x="125" y="125.008" width="320" height="320" rx="75" fill="#696969"/>
<path d="M185 207.23C185 201.336 187.341 195.684 191.509 191.517C195.676 187.349 201.329 185.008 207.222 185.008H362.778C368.671 185.008 374.324 187.349 378.491 191.517C382.659 195.684 385 201.336 385 207.23V362.786C385 368.679 382.659 374.332 378.491 378.499C374.324 382.667 368.671 385.008 362.778 385.008H207.222C201.329 385.008 195.676 382.667 191.509 378.499C187.341 374.332 185 368.679 185 362.786V207.23Z" stroke="#0F0F0F" stroke-width="22.2222" stroke-linecap="round" stroke-linejoin="round"/>
<path d="M246.112 251.627C249.18 251.627 251.668 249.139 251.668 246.071C251.668 243.003 249.18 240.516 246.112 240.516C243.044 240.516 240.557 243.003 240.557 246.071C240.557 249.139 243.044 251.627 246.112 251.627Z" fill="#0F0F0F" stroke="#0F0F0F" stroke-width="22.2222" stroke-linecap="round" stroke-linejoin="round"/>
<path d="M323.876 251.627C326.944 251.627 329.431 249.139 329.431 246.071C329.431 243.003 326.944 240.516 323.876 240.516C320.808 240.516 318.32 243.003 318.32 246.071C318.32 249.139 320.808 251.627 323.876 251.627Z" fill="#0F0F0F" stroke="#0F0F0F" stroke-width="22.2222" stroke-linecap="round" stroke-linejoin="round"/>
<path d="M323.876 329.4C326.944 329.4 329.431 326.913 329.431 323.845C329.431 320.776 326.944 318.289 323.876 318.289C320.808 318.289 318.32 320.776 318.32 323.845C318.32 326.913 320.808 329.4 323.876 329.4Z" fill="#0F0F0F" stroke="#0F0F0F" stroke-width="22.2222" stroke-linecap="round" stroke-linejoin="round"/>
<path d="M246.112 329.4C249.18 329.4 251.668 326.913 251.668 323.845C251.668 320.776 249.18 318.289 246.112 318.289C243.044 318.289 240.557 320.776 240.557 323.845C240.557 326.913 243.044 329.4 246.112 329.4Z" fill="#0F0F0F" stroke="#0F0F0F" stroke-width="22.2222" stroke-linecap="round" stroke-linejoin="round"/>
<defs>
<linearGradient id="paint0_linear_3294_10266" x1="0" y1="285.008" x2="2700" y2="285.008" gradientUnits="userSpaceOnUse">
<stop stop-color="#212121"/>
<stop offset="1" stop-color="#131313"/>
</linearGradient>
</defs>
</svg>
