<svg width="1134" height="1134" viewBox="0 0 1134 1134" fill="none" xmlns="http://www.w3.org/2000/svg">
<path d="M57 170.333C57 140.275 68.9404 111.449 90.1946 90.1946C111.449 68.9404 140.275 57 170.333 57H963.667C993.725 57 1022.55 68.9404 1043.81 90.1946C1065.06 111.449 1077 140.275 1077 170.333V963.667C1077 993.725 1065.06 1022.55 1043.81 1043.81C1022.55 1065.06 993.725 1077 963.667 1077H170.333C140.275 1077 111.449 1065.06 90.1946 1043.81C68.9404 1022.55 57 993.725 57 963.667V170.333Z" stroke="#212121" stroke-width="113.333" stroke-linecap="round" stroke-linejoin="round"/>
<path d="M368.673 396.753C384.321 396.753 397.007 384.067 397.007 368.419C397.007 352.771 384.321 340.086 368.673 340.086C353.025 340.086 340.34 352.771 340.34 368.419C340.34 384.067 353.025 396.753 368.673 396.753Z" fill="#212121" stroke="#212121" stroke-width="113.333" stroke-linecap="round" stroke-linejoin="round"/>
<path d="M765.265 396.753C780.913 396.753 793.598 384.067 793.598 368.419C793.598 352.771 780.913 340.086 765.265 340.086C749.617 340.086 736.932 352.771 736.932 368.419C736.932 384.067 749.617 396.753 765.265 396.753Z" fill="#212121" stroke="#212121" stroke-width="113.333" stroke-linecap="round" stroke-linejoin="round"/>
<path d="M765.265 793.393C780.913 793.393 793.598 780.708 793.598 765.06C793.598 749.412 780.913 736.727 765.265 736.727C749.617 736.727 736.932 749.412 736.932 765.06C736.932 780.708 749.617 793.393 765.265 793.393Z" fill="#212121" stroke="#212121" stroke-width="113.333" stroke-linecap="round" stroke-linejoin="round"/>
<path d="M368.673 793.393C384.321 793.393 397.007 780.708 397.007 765.06C397.007 749.412 384.321 736.727 368.673 736.727C353.025 736.727 340.34 749.412 340.34 765.06C340.34 780.708 353.025 793.393 368.673 793.393Z" fill="#212121" stroke="#212121" stroke-width="113.333" stroke-linecap="round" stroke-linejoin="round"/>
</svg>
