<svg width="140" height="140" viewBox="0 0 140 140" fill="none" xmlns="http://www.w3.org/2000/svg">
<circle cx="70" cy="70" r="70" fill="#292929"/>
<path d="M97.3483 62.4475L100.315 59.481C102.674 57.1212 104 53.9206 104 50.5833C104 47.246 102.674 44.0454 100.315 41.6856C97.9549 39.3257 94.7545 38 91.4173 38C88.0802 38 84.8798 39.3257 82.5201 41.6856L79.5538 44.652L52.2843 71.9164C50.438 73.766 49.5132 74.6908 48.7197 75.7084C47.7834 76.91 46.9798 78.2093 46.323 79.5837C45.7694 80.7485 45.3566 81.9901 44.531 84.467L41.0303 94.9663M97.3483 62.4475C97.3483 62.4475 91.0478 62.0762 85.4864 56.5146C79.925 50.9561 79.557 44.652 79.557 44.652M97.3483 62.4475L70.0821 89.7118C68.2358 91.5583 67.311 92.4831 66.2934 93.2767C65.092 94.213 63.7927 95.0167 62.4184 95.6735C61.2536 96.2271 60.0153 96.6399 57.5354 97.4655L47.0365 100.966M47.0365 100.966L44.4702 101.824C43.872 102.025 43.2297 102.054 42.6155 101.91C42.0013 101.766 41.4396 101.453 40.9935 101.006C40.5473 100.56 40.2345 99.9986 40.09 99.3843C39.9456 98.7701 39.9754 98.1278 40.176 97.5296L41.0335 94.9631L47.0365 100.966Z" stroke="#A1A1A1" stroke-width="8"/>
</svg>
