<svg width="2241" height="240" viewBox="0 0 2241 240" fill="none" xmlns="http://www.w3.org/2000/svg">
<rect x="0.5" width="2240" height="240" rx="30" fill="#131313"/>
<path d="M433.709 125.369H421.258V118.197H433.709C435.745 118.197 437.395 117.865 438.656 117.201C439.94 116.515 440.881 115.585 441.479 114.412C442.076 113.217 442.375 111.855 442.375 110.328C442.375 108.845 442.076 107.462 441.479 106.178C440.881 104.894 439.94 103.854 438.656 103.057C437.395 102.26 435.745 101.861 433.709 101.861H424.246V143H415.115V94.6562H433.709C437.472 94.6562 440.682 95.3314 443.338 96.6816C446.016 98.0098 448.053 99.8581 449.447 102.227C450.864 104.573 451.572 107.251 451.572 110.262C451.572 113.383 450.864 116.072 449.447 118.33C448.053 120.588 446.016 122.326 443.338 123.543C440.682 124.76 437.472 125.369 433.709 125.369ZM477.471 135.363V118.795C477.471 117.577 477.26 116.526 476.84 115.641C476.419 114.755 475.777 114.069 474.914 113.582C474.051 113.095 472.955 112.852 471.627 112.852C470.454 112.852 469.424 113.051 468.539 113.449C467.676 113.848 467.012 114.412 466.547 115.143C466.082 115.851 465.85 116.67 465.85 117.6H457.051C457.051 116.117 457.405 114.711 458.113 113.383C458.822 112.033 459.829 110.837 461.135 109.797C462.463 108.734 464.046 107.904 465.883 107.307C467.742 106.709 469.823 106.41 472.125 106.41C474.848 106.41 477.271 106.875 479.396 107.805C481.544 108.712 483.226 110.085 484.443 111.922C485.683 113.759 486.303 116.072 486.303 118.861V134.533C486.303 136.326 486.413 137.865 486.635 139.148C486.878 140.41 487.232 141.506 487.697 142.436V143H478.766C478.345 142.092 478.024 140.941 477.803 139.547C477.581 138.13 477.471 136.736 477.471 135.363ZM478.699 121.119L478.766 126.332H473.221C471.848 126.332 470.642 126.476 469.602 126.764C468.561 127.029 467.709 127.428 467.045 127.959C466.381 128.468 465.883 129.088 465.551 129.818C465.219 130.527 465.053 131.335 465.053 132.242C465.053 133.128 465.252 133.924 465.65 134.633C466.071 135.341 466.669 135.906 467.443 136.326C468.24 136.725 469.17 136.924 470.232 136.924C471.782 136.924 473.132 136.614 474.283 135.994C475.434 135.352 476.331 134.577 476.973 133.67C477.615 132.762 477.958 131.899 478.002 131.08L480.525 134.865C480.215 135.773 479.751 136.736 479.131 137.754C478.511 138.772 477.714 139.724 476.74 140.609C475.766 141.495 474.593 142.225 473.221 142.801C471.848 143.376 470.255 143.664 468.439 143.664C466.115 143.664 464.035 143.199 462.197 142.27C460.36 141.34 458.91 140.067 457.848 138.451C456.785 136.835 456.254 134.998 456.254 132.939C456.254 131.036 456.608 129.354 457.316 127.893C458.025 126.432 459.076 125.203 460.471 124.207C461.865 123.189 463.592 122.425 465.65 121.916C467.731 121.385 470.111 121.119 472.789 121.119H478.699ZM509.611 125.867H502.605V121.684H507.951C509.257 121.684 510.298 121.507 511.072 121.152C511.869 120.798 512.434 120.3 512.766 119.658C513.12 119.016 513.297 118.275 513.297 117.434C513.297 116.681 513.131 115.973 512.799 115.309C512.467 114.622 511.913 114.069 511.139 113.648C510.364 113.206 509.29 112.984 507.918 112.984C506.789 112.984 505.782 113.161 504.896 113.516C504.011 113.87 503.314 114.368 502.805 115.01C502.296 115.652 502.041 116.415 502.041 117.301H493.242C493.242 115.043 493.884 113.106 495.168 111.49C496.474 109.874 498.212 108.635 500.381 107.771C502.55 106.886 504.93 106.443 507.52 106.443C509.755 106.443 511.77 106.676 513.562 107.141C515.355 107.583 516.883 108.247 518.145 109.133C519.406 110.018 520.38 111.114 521.066 112.42C521.753 113.704 522.096 115.198 522.096 116.902C522.096 118.12 521.808 119.271 521.232 120.355C520.657 121.44 519.827 122.403 518.742 123.244C517.658 124.063 516.34 124.705 514.791 125.17C513.264 125.635 511.537 125.867 509.611 125.867ZM502.605 123.477H509.611C511.758 123.477 513.64 123.687 515.256 124.107C516.894 124.506 518.266 125.104 519.373 125.9C520.48 126.697 521.31 127.682 521.863 128.855C522.439 130.007 522.727 131.335 522.727 132.84C522.727 134.544 522.35 136.072 521.598 137.422C520.867 138.75 519.827 139.879 518.477 140.809C517.126 141.738 515.521 142.447 513.662 142.934C511.803 143.421 509.755 143.664 507.52 143.664C505.107 143.664 502.76 143.266 500.48 142.469C498.223 141.672 496.352 140.443 494.869 138.783C493.408 137.123 492.678 134.987 492.678 132.375H501.477C501.477 133.216 501.731 134.002 502.24 134.732C502.749 135.463 503.48 136.049 504.432 136.492C505.406 136.913 506.579 137.123 507.951 137.123C509.346 137.123 510.486 136.902 511.371 136.459C512.257 136.016 512.898 135.43 513.297 134.699C513.717 133.947 513.928 133.161 513.928 132.342C513.928 131.213 513.706 130.305 513.264 129.619C512.843 128.911 512.179 128.391 511.271 128.059C510.386 127.727 509.279 127.561 507.951 127.561H502.605V123.477ZM535.543 107.074H544.309L543.977 119.426C543.866 123.167 543.423 126.398 542.648 129.121C541.896 131.822 540.889 134.09 539.627 135.928C538.387 137.765 536.971 139.248 535.377 140.377C533.805 141.506 532.156 142.38 530.43 143H528.338L528.305 136.16L529.334 136.094C530.374 134.987 531.249 133.902 531.957 132.84C532.688 131.755 533.274 130.593 533.717 129.354C534.16 128.114 534.492 126.697 534.713 125.104C534.956 123.488 535.111 121.595 535.178 119.426L535.543 107.074ZM537.9 107.074H561.176V143H552.41V114.279H537.9V107.074ZM526.346 136.094H566.189V153.758H557.424V143H535.277V153.758H526.312L526.346 136.094ZM587.705 143.664C584.982 143.664 582.536 143.221 580.367 142.336C578.198 141.451 576.35 140.222 574.822 138.65C573.317 137.057 572.155 135.208 571.336 133.105C570.539 130.98 570.141 128.701 570.141 126.266V124.938C570.141 122.171 570.539 119.658 571.336 117.4C572.133 115.12 573.262 113.161 574.723 111.523C576.184 109.885 577.932 108.624 579.969 107.738C582.005 106.853 584.252 106.41 586.709 106.41C589.255 106.41 591.501 106.842 593.449 107.705C595.397 108.546 597.024 109.742 598.33 111.291C599.636 112.84 600.621 114.7 601.285 116.869C601.949 119.016 602.281 121.396 602.281 124.008V127.693H574.125V121.65H593.648V120.986C593.604 119.592 593.339 118.319 592.852 117.168C592.365 115.995 591.612 115.065 590.594 114.379C589.576 113.671 588.258 113.316 586.643 113.316C585.337 113.316 584.197 113.604 583.223 114.18C582.271 114.733 581.474 115.53 580.832 116.57C580.212 117.589 579.747 118.806 579.438 120.223C579.128 121.639 578.973 123.211 578.973 124.938V126.266C578.973 127.771 579.172 129.165 579.57 130.449C579.991 131.733 580.6 132.851 581.396 133.803C582.215 134.732 583.189 135.463 584.318 135.994C585.469 136.503 586.775 136.758 588.236 136.758C590.074 136.758 591.734 136.404 593.217 135.695C594.722 134.965 596.028 133.891 597.135 132.475L601.551 137.057C600.798 138.163 599.78 139.226 598.496 140.244C597.234 141.262 595.707 142.092 593.914 142.734C592.121 143.354 590.051 143.664 587.705 143.664ZM632.297 107.074V114.014H614.699V107.074H632.297ZM638.904 107.074V143H630.139V107.074H638.904ZM612.508 107.074H621.174L620.211 125.004C620.056 127.638 619.779 129.951 619.381 131.943C618.982 133.913 618.451 135.607 617.787 137.023C617.123 138.418 616.315 139.558 615.363 140.443C614.411 141.329 613.305 141.982 612.043 142.402C610.803 142.801 609.409 143 607.859 143H605.17L605.07 135.928L606.332 135.828C607.107 135.762 607.771 135.551 608.324 135.197C608.9 134.843 609.387 134.334 609.785 133.67C610.206 133.006 610.549 132.154 610.814 131.113C611.102 130.051 611.324 128.811 611.479 127.395C611.656 125.956 611.777 124.296 611.844 122.414L612.508 107.074ZM673.668 94.6562V143H664.537V94.6562H673.668ZM693.158 115.541V122.746H671.277V115.541H693.158ZM695.715 94.6562V101.861H671.277V94.6562H695.715ZM715.105 101.994L701.326 143H691.664L709.727 94.6562H715.902L715.105 101.994ZM726.627 143L712.781 101.994L711.951 94.6562H718.16L736.322 143H726.627ZM725.996 125.037V132.242H700.064V125.037H725.996ZM766.637 136.193L779.52 146.42L773.676 151.5L760.992 141.34L766.637 136.193ZM779.752 117.6V120.09C779.752 123.742 779.265 127.029 778.291 129.951C777.317 132.851 775.923 135.319 774.107 137.355C772.314 139.392 770.178 140.952 767.699 142.037C765.22 143.122 762.475 143.664 759.465 143.664C756.477 143.664 753.732 143.122 751.23 142.037C748.751 140.952 746.604 139.392 744.789 137.355C742.974 135.319 741.568 132.851 740.572 129.951C739.576 127.029 739.078 123.742 739.078 120.09V117.6C739.078 113.925 739.565 110.638 740.539 107.738C741.535 104.839 742.93 102.37 744.723 100.334C746.538 98.2754 748.685 96.7038 751.164 95.6191C753.665 94.5345 756.41 93.9922 759.398 93.9922C762.409 93.9922 765.154 94.5345 767.633 95.6191C770.134 96.7038 772.281 98.2754 774.074 100.334C775.889 102.37 777.284 104.839 778.258 107.738C779.254 110.638 779.752 113.925 779.752 117.6ZM770.521 120.09V117.533C770.521 114.899 770.278 112.586 769.791 110.594C769.304 108.579 768.574 106.886 767.6 105.514C766.648 104.141 765.486 103.112 764.113 102.426C762.741 101.717 761.169 101.363 759.398 101.363C757.65 101.363 756.089 101.717 754.717 102.426C753.344 103.112 752.182 104.141 751.23 105.514C750.279 106.886 749.548 108.579 749.039 110.594C748.552 112.586 748.309 114.899 748.309 117.533V120.09C748.309 122.702 748.552 125.015 749.039 127.029C749.548 129.044 750.279 130.748 751.23 132.143C752.204 133.515 753.378 134.555 754.75 135.264C756.145 135.972 757.716 136.326 759.465 136.326C761.236 136.326 762.807 135.972 764.18 135.264C765.552 134.555 766.703 133.515 767.633 132.143C768.585 130.748 769.304 129.044 769.791 127.029C770.278 125.015 770.521 122.702 770.521 120.09ZM821.521 127.793H810.133L810.066 121.85H819.43C820.824 121.85 821.964 121.706 822.85 121.418C823.735 121.13 824.388 120.699 824.809 120.123C825.251 119.548 825.473 118.85 825.473 118.031C825.473 117.323 825.34 116.714 825.074 116.205C824.809 115.674 824.41 115.242 823.879 114.91C823.37 114.578 822.717 114.335 821.92 114.18C821.145 114.003 820.238 113.914 819.197 113.914H813.254V143H804.455V107.074H819.197C821.521 107.074 823.613 107.285 825.473 107.705C827.332 108.104 828.915 108.712 830.221 109.531C831.527 110.35 832.523 111.391 833.209 112.652C833.917 113.892 834.271 115.353 834.271 117.035C834.271 118.142 834.028 119.182 833.541 120.156C833.054 121.13 832.335 121.993 831.383 122.746C830.431 123.499 829.258 124.118 827.863 124.605C826.469 125.07 824.875 125.358 823.082 125.469L821.521 127.793ZM821.521 143H807.775L811.029 136.16H821.521C822.805 136.16 823.868 136.005 824.709 135.695C825.55 135.363 826.17 134.887 826.568 134.268C826.989 133.648 827.199 132.895 827.199 132.01C827.199 131.146 827 130.405 826.602 129.785C826.225 129.143 825.617 128.656 824.775 128.324C823.956 127.97 822.872 127.793 821.521 127.793H812.457L812.523 121.85H823.049L825.373 124.207C827.764 124.362 829.745 124.849 831.316 125.668C832.888 126.465 834.061 127.483 834.836 128.723C835.611 129.94 835.998 131.279 835.998 132.74C835.998 134.445 835.677 135.939 835.035 137.223C834.393 138.507 833.452 139.58 832.213 140.443C830.973 141.285 829.457 141.926 827.664 142.369C825.871 142.79 823.824 143 821.521 143ZM851.139 113.98V156.812H842.34V107.074H850.475L851.139 113.98ZM874.215 124.672V125.369C874.215 127.981 873.905 130.405 873.285 132.641C872.688 134.854 871.802 136.791 870.629 138.451C869.456 140.089 867.995 141.373 866.246 142.303C864.52 143.21 862.527 143.664 860.27 143.664C858.056 143.664 856.13 143.243 854.492 142.402C852.854 141.539 851.471 140.322 850.342 138.75C849.213 137.178 848.305 135.352 847.619 133.271C846.955 131.169 846.457 128.878 846.125 126.398V124.174C846.457 121.54 846.955 119.149 847.619 117.002C848.305 114.833 849.213 112.962 850.342 111.391C851.471 109.797 852.843 108.568 854.459 107.705C856.097 106.842 858.012 106.41 860.203 106.41C862.483 106.41 864.486 106.842 866.213 107.705C867.962 108.568 869.434 109.808 870.629 111.424C871.824 113.04 872.721 114.965 873.318 117.201C873.916 119.437 874.215 121.927 874.215 124.672ZM865.416 125.369V124.672C865.416 123.078 865.272 121.606 864.984 120.256C864.697 118.883 864.254 117.688 863.656 116.67C863.059 115.63 862.284 114.822 861.332 114.246C860.38 113.671 859.229 113.383 857.879 113.383C856.529 113.383 855.367 113.604 854.393 114.047C853.419 114.49 852.622 115.12 852.002 115.939C851.382 116.758 850.895 117.732 850.541 118.861C850.209 119.968 849.988 121.197 849.877 122.547V128.059C850.076 129.697 850.464 131.169 851.039 132.475C851.615 133.781 852.456 134.821 853.562 135.596C854.691 136.37 856.152 136.758 857.945 136.758C859.296 136.758 860.447 136.459 861.398 135.861C862.35 135.264 863.125 134.445 863.723 133.404C864.32 132.342 864.752 131.124 865.018 129.752C865.283 128.38 865.416 126.919 865.416 125.369ZM896.76 143.664C894.037 143.664 891.591 143.221 889.422 142.336C887.253 141.451 885.404 140.222 883.877 138.65C882.372 137.057 881.21 135.208 880.391 133.105C879.594 130.98 879.195 128.701 879.195 126.266V124.938C879.195 122.171 879.594 119.658 880.391 117.4C881.188 115.12 882.316 113.161 883.777 111.523C885.238 109.885 886.987 108.624 889.023 107.738C891.06 106.853 893.307 106.41 895.764 106.41C898.309 106.41 900.556 106.842 902.504 107.705C904.452 108.546 906.079 109.742 907.385 111.291C908.691 112.84 909.676 114.7 910.34 116.869C911.004 119.016 911.336 121.396 911.336 124.008V127.693H883.18V121.65H902.703V120.986C902.659 119.592 902.393 118.319 901.906 117.168C901.419 115.995 900.667 115.065 899.648 114.379C898.63 113.671 897.313 113.316 895.697 113.316C894.391 113.316 893.251 113.604 892.277 114.18C891.326 114.733 890.529 115.53 889.887 116.57C889.267 117.589 888.802 118.806 888.492 120.223C888.182 121.639 888.027 123.211 888.027 124.938V126.266C888.027 127.771 888.227 129.165 888.625 130.449C889.046 131.733 889.654 132.851 890.451 133.803C891.27 134.732 892.244 135.463 893.373 135.994C894.524 136.503 895.83 136.758 897.291 136.758C899.128 136.758 900.788 136.404 902.271 135.695C903.777 134.965 905.083 133.891 906.189 132.475L910.605 137.057C909.853 138.163 908.835 139.226 907.551 140.244C906.289 141.262 904.762 142.092 902.969 142.734C901.176 143.354 899.106 143.664 896.76 143.664ZM938.762 132.641L948.855 107.074H956.193L941.75 143H935.807L921.396 107.074H928.768L938.762 132.641ZM926.609 107.074V143H917.811V107.074H926.609ZM951.08 143V107.074H959.879V143H951.08ZM984.748 143.664C982.025 143.664 979.579 143.221 977.41 142.336C975.241 141.451 973.393 140.222 971.865 138.65C970.36 137.057 969.198 135.208 968.379 133.105C967.582 130.98 967.184 128.701 967.184 126.266V124.938C967.184 122.171 967.582 119.658 968.379 117.4C969.176 115.12 970.305 113.161 971.766 111.523C973.227 109.885 974.975 108.624 977.012 107.738C979.048 106.853 981.295 106.41 983.752 106.41C986.298 106.41 988.544 106.842 990.492 107.705C992.44 108.546 994.067 109.742 995.373 111.291C996.679 112.84 997.664 114.7 998.328 116.869C998.992 119.016 999.324 121.396 999.324 124.008V127.693H971.168V121.65H990.691V120.986C990.647 119.592 990.382 118.319 989.895 117.168C989.408 115.995 988.655 115.065 987.637 114.379C986.618 113.671 985.301 113.316 983.686 113.316C982.38 113.316 981.24 113.604 980.266 114.18C979.314 114.733 978.517 115.53 977.875 116.57C977.255 117.589 976.79 118.806 976.48 120.223C976.171 121.639 976.016 123.211 976.016 124.938V126.266C976.016 127.771 976.215 129.165 976.613 130.449C977.034 131.733 977.643 132.851 978.439 133.803C979.258 134.732 980.232 135.463 981.361 135.994C982.512 136.503 983.818 136.758 985.279 136.758C987.117 136.758 988.777 136.404 990.26 135.695C991.765 134.965 993.071 133.891 994.178 132.475L998.594 137.057C997.841 138.163 996.823 139.226 995.539 140.244C994.277 141.262 992.75 142.092 990.957 142.734C989.164 143.354 987.094 143.664 984.748 143.664ZM1029.74 121.816V128.689H1011.31V121.816H1029.74ZM1014.07 107.074V143H1005.27V107.074H1014.07ZM1035.88 107.074V143H1027.05V107.074H1035.88ZM1068.39 121.816V128.689H1049.96V121.816H1068.39ZM1052.71 107.074V143H1043.92V107.074H1052.71ZM1074.53 107.074V143H1065.7V107.074H1074.53ZM1080.94 125.402V124.705C1080.94 122.071 1081.31 119.647 1082.07 117.434C1082.82 115.198 1083.91 113.261 1085.35 111.623C1086.79 109.985 1088.55 108.712 1090.63 107.805C1092.71 106.875 1095.08 106.41 1097.74 106.41C1100.44 106.41 1102.83 106.875 1104.91 107.805C1107.01 108.712 1108.78 109.985 1110.22 111.623C1111.66 113.261 1112.76 115.198 1113.51 117.434C1114.26 119.647 1114.64 122.071 1114.64 124.705V125.402C1114.64 128.014 1114.26 130.438 1113.51 132.674C1112.76 134.887 1111.66 136.824 1110.22 138.484C1108.78 140.122 1107.02 141.395 1104.94 142.303C1102.86 143.21 1100.48 143.664 1097.8 143.664C1095.15 143.664 1092.77 143.21 1090.67 142.303C1088.56 141.395 1086.79 140.122 1085.35 138.484C1083.91 136.824 1082.82 134.887 1082.07 132.674C1081.31 130.438 1080.94 128.014 1080.94 125.402ZM1089.7 124.705V125.402C1089.7 126.974 1089.86 128.446 1090.17 129.818C1090.48 131.191 1090.95 132.397 1091.6 133.438C1092.24 134.478 1093.07 135.297 1094.09 135.895C1095.13 136.47 1096.37 136.758 1097.8 136.758C1099.22 136.758 1100.44 136.47 1101.46 135.895C1102.48 135.297 1103.31 134.478 1103.95 133.438C1104.61 132.397 1105.1 131.191 1105.41 129.818C1105.72 128.446 1105.87 126.974 1105.87 125.402V124.705C1105.87 123.156 1105.72 121.706 1105.41 120.355C1105.1 118.983 1104.61 117.777 1103.95 116.736C1103.31 115.674 1102.46 114.844 1101.42 114.246C1100.41 113.626 1099.18 113.316 1097.74 113.316C1096.32 113.316 1095.1 113.626 1094.09 114.246C1093.07 114.844 1092.24 115.674 1091.6 116.736C1090.95 117.777 1090.48 118.983 1090.17 120.355C1089.86 121.706 1089.7 123.156 1089.7 124.705ZM1162.48 121.816V128.689H1144.06V121.816H1162.48ZM1146.81 107.074V143H1138.01V107.074H1146.81ZM1168.63 107.074V143H1159.79V107.074H1168.63ZM1192.73 143.664C1190.01 143.664 1187.56 143.221 1185.39 142.336C1183.23 141.451 1181.38 140.222 1179.85 138.65C1178.34 137.057 1177.18 135.208 1176.36 133.105C1175.57 130.98 1175.17 128.701 1175.17 126.266V124.938C1175.17 122.171 1175.57 119.658 1176.36 117.4C1177.16 115.12 1178.29 113.161 1179.75 111.523C1181.21 109.885 1182.96 108.624 1185 107.738C1187.03 106.853 1189.28 106.41 1191.74 106.41C1194.28 106.41 1196.53 106.842 1198.48 107.705C1200.42 108.546 1202.05 109.742 1203.36 111.291C1204.66 112.84 1205.65 114.7 1206.31 116.869C1206.98 119.016 1207.31 121.396 1207.31 124.008V127.693H1179.15V121.65H1198.68V120.986C1198.63 119.592 1198.37 118.319 1197.88 117.168C1197.39 115.995 1196.64 115.065 1195.62 114.379C1194.6 113.671 1193.29 113.316 1191.67 113.316C1190.36 113.316 1189.22 113.604 1188.25 114.18C1187.3 114.733 1186.5 115.53 1185.86 116.57C1185.24 117.589 1184.77 118.806 1184.46 120.223C1184.15 121.639 1184 123.211 1184 124.938V126.266C1184 127.771 1184.2 129.165 1184.6 130.449C1185.02 131.733 1185.63 132.851 1186.42 133.803C1187.24 134.732 1188.22 135.463 1189.35 135.994C1190.5 136.503 1191.8 136.758 1193.26 136.758C1195.1 136.758 1196.76 136.404 1198.24 135.695C1199.75 134.965 1201.06 133.891 1202.16 132.475L1206.58 137.057C1205.83 138.163 1204.81 139.226 1203.52 140.244C1202.26 141.262 1200.73 142.092 1198.94 142.734C1197.15 143.354 1195.08 143.664 1192.73 143.664ZM1219.66 107.074H1228.43L1228.09 119.426C1227.98 123.167 1227.54 126.398 1226.77 129.121C1226.01 131.822 1225.01 134.09 1223.74 135.928C1222.5 137.765 1221.09 139.248 1219.49 140.377C1217.92 141.506 1216.27 142.38 1214.55 143H1212.46L1212.42 136.16L1213.45 136.094C1214.49 134.987 1215.37 133.902 1216.07 132.84C1216.8 131.755 1217.39 130.593 1217.83 129.354C1218.28 128.114 1218.61 126.697 1218.83 125.104C1219.07 123.488 1219.23 121.595 1219.29 119.426L1219.66 107.074ZM1222.02 107.074H1245.29V143H1236.53V114.279H1222.02V107.074ZM1210.46 136.094H1250.31V153.758H1241.54V143H1219.39V153.758H1210.43L1210.46 136.094ZM1254.12 125.402V124.705C1254.12 122.071 1254.5 119.647 1255.25 117.434C1256.01 115.198 1257.1 113.261 1258.54 111.623C1259.98 109.985 1261.74 108.712 1263.82 107.805C1265.9 106.875 1268.27 106.41 1270.93 106.41C1273.63 106.41 1276.02 106.875 1278.1 107.805C1280.2 108.712 1281.97 109.985 1283.41 111.623C1284.85 113.261 1285.94 115.198 1286.7 117.434C1287.45 119.647 1287.83 122.071 1287.83 124.705V125.402C1287.83 128.014 1287.45 130.438 1286.7 132.674C1285.94 134.887 1284.85 136.824 1283.41 138.484C1281.97 140.122 1280.21 141.395 1278.13 142.303C1276.05 143.21 1273.67 143.664 1270.99 143.664C1268.34 143.664 1265.96 143.21 1263.85 142.303C1261.75 141.395 1259.98 140.122 1258.54 138.484C1257.1 136.824 1256.01 134.887 1255.25 132.674C1254.5 130.438 1254.12 128.014 1254.12 125.402ZM1262.89 124.705V125.402C1262.89 126.974 1263.05 128.446 1263.36 129.818C1263.67 131.191 1264.14 132.397 1264.78 133.438C1265.43 134.478 1266.26 135.297 1267.27 135.895C1268.31 136.47 1269.55 136.758 1270.99 136.758C1272.41 136.758 1273.63 136.47 1274.64 135.895C1275.66 135.297 1276.49 134.478 1277.13 133.438C1277.8 132.397 1278.29 131.191 1278.6 129.818C1278.91 128.446 1279.06 126.974 1279.06 125.402V124.705C1279.06 123.156 1278.91 121.706 1278.6 120.355C1278.29 118.983 1277.8 117.777 1277.13 116.736C1276.49 115.674 1275.65 114.844 1274.61 114.246C1273.59 113.626 1272.36 113.316 1270.93 113.316C1269.51 113.316 1268.29 113.626 1267.27 114.246C1266.26 114.844 1265.43 115.674 1264.78 116.736C1264.14 117.777 1263.67 118.983 1263.36 120.355C1263.05 121.706 1262.89 123.156 1262.89 124.705ZM1308.94 136.758C1310.18 136.758 1311.29 136.514 1312.26 136.027C1313.24 135.54 1314.01 134.854 1314.59 133.969C1315.19 133.083 1315.51 132.054 1315.55 130.881H1323.82C1323.77 133.316 1323.09 135.496 1321.76 137.422C1320.43 139.348 1318.66 140.875 1316.45 142.004C1314.26 143.111 1311.8 143.664 1309.08 143.664C1306.31 143.664 1303.9 143.199 1301.84 142.27C1299.78 141.34 1298.06 140.045 1296.69 138.385C1295.34 136.725 1294.32 134.799 1293.64 132.607C1292.97 130.416 1292.64 128.07 1292.64 125.568V124.506C1292.64 122.005 1292.97 119.658 1293.64 117.467C1294.32 115.275 1295.34 113.35 1296.69 111.689C1298.06 110.029 1299.78 108.734 1301.84 107.805C1303.9 106.875 1306.3 106.41 1309.04 106.41C1311.94 106.41 1314.49 106.975 1316.68 108.104C1318.89 109.232 1320.62 110.826 1321.86 112.885C1323.12 114.943 1323.77 117.367 1323.82 120.156H1315.55C1315.51 118.872 1315.22 117.721 1314.69 116.703C1314.16 115.685 1313.4 114.866 1312.43 114.246C1311.46 113.626 1310.27 113.316 1308.88 113.316C1307.39 113.316 1306.15 113.626 1305.16 114.246C1304.18 114.866 1303.42 115.718 1302.87 116.803C1302.34 117.865 1301.96 119.061 1301.74 120.389C1301.54 121.695 1301.44 123.067 1301.44 124.506V125.568C1301.44 127.029 1301.54 128.424 1301.74 129.752C1301.96 131.08 1302.34 132.275 1302.87 133.338C1303.42 134.378 1304.18 135.208 1305.16 135.828C1306.15 136.448 1307.42 136.758 1308.94 136.758ZM1347.09 107.074V143H1338.29V107.074H1347.09ZM1358.78 107.074V113.914H1326.81V107.074H1358.78ZM1374.85 139.016L1384.48 107.074H1393.88L1379.47 148.445C1379.13 149.331 1378.7 150.294 1378.17 151.334C1377.66 152.374 1376.98 153.359 1376.11 154.289C1375.25 155.241 1374.17 156.016 1372.86 156.613C1371.58 157.211 1370.01 157.51 1368.18 157.51C1367.38 157.51 1366.67 157.454 1366.05 157.344C1365.43 157.233 1364.78 157.089 1364.09 156.912V150.338C1364.32 150.36 1364.57 150.371 1364.86 150.371C1365.17 150.393 1365.43 150.404 1365.65 150.404C1366.94 150.404 1368 150.249 1368.84 149.939C1369.68 149.652 1370.36 149.176 1370.87 148.512C1371.4 147.87 1371.84 147.029 1372.2 145.988L1374.85 139.016ZM1370.1 107.074L1378.24 133.537L1379.67 142.801L1373.62 143.896L1360.64 107.074H1370.1ZM1422.23 107.074V114.014H1404.67V107.074H1422.23ZM1406.99 107.074V143H1398.19V107.074H1406.99ZM1428.87 107.074V143H1420.04V107.074H1428.87ZM1452.98 143.664C1450.26 143.664 1447.81 143.221 1445.64 142.336C1443.47 141.451 1441.62 140.222 1440.1 138.65C1438.59 137.057 1437.43 135.208 1436.61 133.105C1435.81 130.98 1435.41 128.701 1435.41 126.266V124.938C1435.41 122.171 1435.81 119.658 1436.61 117.4C1437.41 115.12 1438.54 113.161 1440 111.523C1441.46 109.885 1443.21 108.624 1445.24 107.738C1447.28 106.853 1449.53 106.41 1451.98 106.41C1454.53 106.41 1456.77 106.842 1458.72 107.705C1460.67 108.546 1462.3 109.742 1463.6 111.291C1464.91 112.84 1465.89 114.7 1466.56 116.869C1467.22 119.016 1467.55 121.396 1467.55 124.008V127.693H1439.4V121.65H1458.92V120.986C1458.88 119.592 1458.61 118.319 1458.12 117.168C1457.64 115.995 1456.89 115.065 1455.87 114.379C1454.85 113.671 1453.53 113.316 1451.92 113.316C1450.61 113.316 1449.47 113.604 1448.5 114.18C1447.54 114.733 1446.75 115.53 1446.11 116.57C1445.49 117.589 1445.02 118.806 1444.71 120.223C1444.4 121.639 1444.25 123.211 1444.25 124.938V126.266C1444.25 127.771 1444.45 129.165 1444.84 130.449C1445.26 131.733 1445.87 132.851 1446.67 133.803C1447.49 134.732 1448.46 135.463 1449.59 135.994C1450.74 136.503 1452.05 136.758 1453.51 136.758C1455.35 136.758 1457.01 136.404 1458.49 135.695C1460 134.965 1461.3 133.891 1462.41 132.475L1466.82 137.057C1466.07 138.163 1465.05 139.226 1463.77 140.244C1462.51 141.262 1460.98 142.092 1459.19 142.734C1457.39 143.354 1455.32 143.664 1452.98 143.664ZM1497.97 121.816V128.689H1479.54V121.816H1497.97ZM1482.3 107.074V143H1473.5V107.074H1482.3ZM1504.11 107.074V143H1495.28V107.074H1504.11Z" fill="white"/>
<path d="M1933.98 148.781C1930.85 148.781 1928.03 148.273 1925.5 147.258C1923 146.216 1920.86 144.771 1919.09 142.922C1917.35 141.073 1916.01 138.898 1915.07 136.398C1914.13 133.898 1913.66 131.203 1913.66 128.312V126.75C1913.66 123.443 1914.15 120.448 1915.11 117.766C1916.07 115.083 1917.41 112.792 1919.13 110.891C1920.85 108.964 1922.88 107.492 1925.23 106.477C1927.57 105.461 1930.11 104.953 1932.84 104.953C1935.86 104.953 1938.51 105.461 1940.77 106.477C1943.04 107.492 1944.91 108.924 1946.4 110.773C1947.91 112.596 1949.03 114.771 1949.76 117.297C1950.51 119.823 1950.89 122.609 1950.89 125.656V129.68H1918.23V122.922H1941.59V122.18C1941.54 120.487 1941.2 118.898 1940.58 117.414C1939.98 115.93 1939.05 114.732 1937.8 113.82C1936.55 112.909 1934.89 112.453 1932.8 112.453C1931.24 112.453 1929.85 112.792 1928.62 113.469C1927.43 114.12 1926.42 115.07 1925.62 116.32C1924.81 117.57 1924.18 119.081 1923.74 120.852C1923.33 122.596 1923.12 124.562 1923.12 126.75V128.312C1923.12 130.161 1923.36 131.88 1923.86 133.469C1924.38 135.031 1925.14 136.398 1926.12 137.57C1927.11 138.742 1928.31 139.667 1929.72 140.344C1931.12 140.995 1932.73 141.32 1934.52 141.32C1936.79 141.32 1938.81 140.865 1940.58 139.953C1942.35 139.042 1943.89 137.753 1945.19 136.086L1950.15 140.891C1949.24 142.219 1948.05 143.495 1946.59 144.719C1945.14 145.917 1943.35 146.893 1941.24 147.648C1939.16 148.404 1936.74 148.781 1933.98 148.781ZM1967.69 113.781V148H1958.27V105.734H1967.26L1967.69 113.781ZM1980.62 105.461L1980.54 114.211C1979.97 114.107 1979.34 114.029 1978.66 113.977C1978.01 113.924 1977.36 113.898 1976.71 113.898C1975.1 113.898 1973.68 114.133 1972.45 114.602C1971.23 115.044 1970.2 115.695 1969.37 116.555C1968.56 117.388 1967.93 118.404 1967.49 119.602C1967.05 120.799 1966.79 122.141 1966.71 123.625L1964.56 123.781C1964.56 121.125 1964.82 118.664 1965.34 116.398C1965.86 114.133 1966.65 112.141 1967.69 110.422C1968.76 108.703 1970.08 107.362 1971.67 106.398C1973.29 105.435 1975.15 104.953 1977.26 104.953C1977.83 104.953 1978.44 105.005 1979.09 105.109C1979.77 105.214 1980.28 105.331 1980.62 105.461ZM2024.09 140.5V148H1985.97V141.555L2004.48 121.359C2006.52 119.068 2008.12 117.089 2009.29 115.422C2010.46 113.755 2011.28 112.258 2011.75 110.93C2012.24 109.576 2012.49 108.26 2012.49 106.984C2012.49 105.188 2012.15 103.612 2011.48 102.258C2010.83 100.878 2009.86 99.7969 2008.59 99.0156C2007.31 98.2083 2005.76 97.8047 2003.94 97.8047C2001.83 97.8047 2000.06 98.2604 1998.62 99.1719C1997.19 100.083 1996.11 101.346 1995.38 102.961C1994.65 104.549 1994.29 106.372 1994.29 108.43H1984.88C1984.88 105.122 1985.63 102.102 1987.14 99.3672C1988.65 96.6068 1990.84 94.4193 1993.7 92.8047C1996.57 91.1641 2000.02 90.3438 2004.05 90.3438C2007.86 90.3438 2011.09 90.9818 2013.74 92.2578C2016.4 93.5339 2018.42 95.3438 2019.8 97.6875C2021.2 100.031 2021.91 102.805 2021.91 106.008C2021.91 107.779 2021.62 109.536 2021.05 111.281C2020.47 113.026 2019.65 114.771 2018.59 116.516C2017.54 118.234 2016.31 119.966 2014.88 121.711C2013.44 123.43 2011.87 125.174 2010.15 126.945L1997.84 140.5H2024.09ZM2068.51 114.797V124.094C2068.51 128.547 2068.07 132.349 2067.18 135.5C2066.32 138.625 2065.07 141.164 2063.43 143.117C2061.79 145.07 2059.82 146.503 2057.53 147.414C2055.27 148.326 2052.73 148.781 2049.91 148.781C2047.67 148.781 2045.59 148.495 2043.66 147.922C2041.76 147.349 2040.04 146.451 2038.51 145.227C2036.97 144.003 2035.66 142.427 2034.56 140.5C2033.49 138.547 2032.66 136.216 2032.06 133.508C2031.49 130.799 2031.2 127.661 2031.2 124.094V114.797C2031.2 110.318 2031.65 106.542 2032.53 103.469C2033.42 100.37 2034.68 97.8568 2036.32 95.9297C2037.96 93.9766 2039.91 92.5573 2042.18 91.6719C2044.47 90.7865 2047.02 90.3438 2049.84 90.3438C2052.1 90.3438 2054.18 90.6302 2056.09 91.2031C2058.01 91.75 2059.73 92.6224 2061.24 93.8203C2062.78 95.0182 2064.08 96.5807 2065.15 98.5078C2066.24 100.409 2067.08 102.714 2067.65 105.422C2068.22 108.104 2068.51 111.229 2068.51 114.797ZM2059.09 125.422V113.391C2059.09 111.125 2058.96 109.133 2058.7 107.414C2058.44 105.669 2058.05 104.198 2057.53 103C2057.04 101.776 2056.41 100.786 2055.66 100.031C2054.9 99.25 2054.04 98.6901 2053.08 98.3516C2052.11 97.987 2051.03 97.8047 2049.84 97.8047C2048.38 97.8047 2047.08 98.0911 2045.93 98.6641C2044.78 99.2109 2043.82 100.096 2043.04 101.32C2042.26 102.544 2041.66 104.159 2041.24 106.164C2040.85 108.143 2040.66 110.552 2040.66 113.391V125.422C2040.66 127.714 2040.79 129.732 2041.05 131.477C2041.31 133.221 2041.7 134.719 2042.22 135.969C2042.74 137.193 2043.36 138.208 2044.09 139.016C2044.85 139.797 2045.71 140.37 2046.67 140.734C2047.66 141.099 2048.74 141.281 2049.91 141.281C2051.4 141.281 2052.71 140.995 2053.86 140.422C2055.01 139.849 2055.97 138.938 2056.75 137.688C2057.53 136.411 2058.12 134.758 2058.51 132.727C2058.9 130.695 2059.09 128.26 2059.09 125.422ZM2102.61 90.9297V148H2093.2V102.102L2079.25 106.828V99.0547L2101.48 90.9297H2102.61ZM2123.31 143.312C2123.31 141.854 2123.81 140.63 2124.8 139.641C2125.79 138.625 2127.13 138.117 2128.82 138.117C2130.54 138.117 2131.88 138.625 2132.84 139.641C2133.83 140.63 2134.33 141.854 2134.33 143.312C2134.33 144.771 2133.83 145.995 2132.84 146.984C2131.88 147.974 2130.54 148.469 2128.82 148.469C2127.13 148.469 2125.79 147.974 2124.8 146.984C2123.81 145.995 2123.31 144.771 2123.31 143.312Z" fill="#7666C4"/>
<path fill-rule="evenodd" clip-rule="evenodd" d="M248.5 120C248.5 79.1298 215.37 46 174.5 46C133.63 46 100.5 79.1298 100.5 120C100.5 160.87 133.63 194 174.5 194C215.37 194 248.5 160.87 248.5 120ZM174.5 83C176.463 83 178.345 83.7796 179.733 85.1674C181.12 86.5552 181.9 88.4374 181.9 90.4V127.4C181.9 129.363 181.12 131.245 179.733 132.633C178.345 134.02 176.463 134.8 174.5 134.8C172.537 134.8 170.655 134.02 169.267 132.633C167.88 131.245 167.1 129.363 167.1 127.4V90.4C167.1 88.4374 167.88 86.5552 169.267 85.1674C170.655 83.7796 172.537 83 174.5 83ZM167.1 149.6C167.1 147.637 167.88 145.755 169.267 144.367C170.655 142.98 172.537 142.2 174.5 142.2H174.559C176.522 142.2 178.404 142.98 179.792 144.367C181.18 145.755 181.959 147.637 181.959 149.6C181.959 151.563 181.18 153.445 179.792 154.833C178.404 156.22 176.522 157 174.559 157H174.5C172.537 157 170.655 156.22 169.267 154.833C167.88 153.445 167.1 151.563 167.1 149.6Z" fill="#E6E6E6"/>
</svg>
