<svg width="2241" height="240" viewBox="0 0 2241 240" fill="none" xmlns="http://www.w3.org/2000/svg">
<rect x="0.5" width="2240" height="240" rx="30" fill="#131313"/>
<path d="M433.643 81.4512H421.291L421.225 75.0098H431.816C433.632 75.0098 435.148 74.7552 436.365 74.2461C437.583 73.737 438.501 72.9954 439.121 72.0215C439.763 71.0475 440.084 69.8633 440.084 68.4688C440.084 66.9193 439.785 65.6576 439.188 64.6836C438.612 63.7096 437.704 63.0013 436.465 62.5586C435.225 62.0938 433.654 61.8613 431.75 61.8613H424.246V103H415.115V54.6562H431.75C434.495 54.6562 436.941 54.9219 439.088 55.4531C441.257 55.9622 443.094 56.7591 444.6 57.8438C446.105 58.9284 447.245 60.2897 448.02 61.9277C448.816 63.5658 449.215 65.5137 449.215 67.7715C449.215 69.7637 448.75 71.6009 447.82 73.2832C446.913 74.9434 445.507 76.2936 443.604 77.334C441.722 78.3743 439.331 78.972 436.432 79.127L433.643 81.4512ZM433.244 103H418.602L422.42 95.8281H433.244C435.059 95.8281 436.553 95.5293 437.727 94.9316C438.922 94.334 439.807 93.515 440.383 92.4746C440.98 91.4121 441.279 90.1947 441.279 88.8223C441.279 87.3171 441.014 86.0111 440.482 84.9043C439.973 83.7975 439.154 82.9453 438.025 82.3477C436.919 81.75 435.458 81.4512 433.643 81.4512H424.146L424.213 75.0098H436.299L438.391 77.5C441.18 77.5221 443.449 78.0755 445.197 79.1602C446.968 80.2448 448.274 81.6393 449.115 83.3438C449.956 85.0482 450.377 86.8854 450.377 88.8555C450.377 91.9544 449.702 94.5553 448.352 96.6582C447.023 98.7611 445.076 100.344 442.508 101.406C439.962 102.469 436.874 103 433.244 103ZM456.055 85.4023V84.7051C456.055 82.071 456.431 79.6471 457.184 77.4336C457.936 75.1979 459.032 73.2611 460.471 71.623C461.91 69.985 463.669 68.7122 465.75 67.8047C467.831 66.875 470.199 66.4102 472.855 66.4102C475.556 66.4102 477.947 66.875 480.027 67.8047C482.13 68.7122 483.901 69.985 485.34 71.623C486.779 73.2611 487.874 75.1979 488.627 77.4336C489.38 79.6471 489.756 82.071 489.756 84.7051V85.4023C489.756 88.0143 489.38 90.4382 488.627 92.6738C487.874 94.8874 486.779 96.8242 485.34 98.4844C483.901 100.122 482.141 101.395 480.061 102.303C477.98 103.21 475.6 103.664 472.922 103.664C470.266 103.664 467.886 103.21 465.783 102.303C463.68 101.395 461.91 100.122 460.471 98.4844C459.032 96.8242 457.936 94.8874 457.184 92.6738C456.431 90.4382 456.055 88.0143 456.055 85.4023ZM464.82 84.7051V85.4023C464.82 86.974 464.975 88.446 465.285 89.8184C465.595 91.1908 466.071 92.3971 466.713 93.4375C467.355 94.4779 468.185 95.2969 469.203 95.8945C470.243 96.4701 471.483 96.7578 472.922 96.7578C474.339 96.7578 475.556 96.4701 476.574 95.8945C477.592 95.2969 478.423 94.4779 479.064 93.4375C479.729 92.3971 480.215 91.1908 480.525 89.8184C480.835 88.446 480.99 86.974 480.99 85.4023V84.7051C480.99 83.1556 480.835 81.7057 480.525 80.3555C480.215 78.9831 479.729 77.7767 479.064 76.7363C478.423 75.6738 477.581 74.8438 476.541 74.2461C475.523 73.6263 474.294 73.3164 472.855 73.3164C471.439 73.3164 470.221 73.6263 469.203 74.2461C468.185 74.8438 467.355 75.6738 466.713 76.7363C466.071 77.7767 465.595 78.9831 465.285 80.3555C464.975 81.7057 464.82 83.1556 464.82 84.7051ZM511.537 85.8672H504.531V81.6836H509.877C511.183 81.6836 512.223 81.5065 512.998 81.1523C513.795 80.7982 514.359 80.3001 514.691 79.6582C515.046 79.0163 515.223 78.2747 515.223 77.4336C515.223 76.681 515.057 75.9727 514.725 75.3086C514.393 74.6224 513.839 74.069 513.064 73.6484C512.29 73.2057 511.216 72.9844 509.844 72.9844C508.715 72.9844 507.708 73.1615 506.822 73.5156C505.937 73.8698 505.24 74.3678 504.73 75.0098C504.221 75.6517 503.967 76.4154 503.967 77.3008H495.168C495.168 75.043 495.81 73.1061 497.094 71.4902C498.4 69.8743 500.137 68.6348 502.307 67.7715C504.476 66.8861 506.855 66.4434 509.445 66.4434C511.681 66.4434 513.695 66.6758 515.488 67.1406C517.281 67.5833 518.809 68.2474 520.07 69.1328C521.332 70.0182 522.306 71.1139 522.992 72.4199C523.678 73.7038 524.021 75.1979 524.021 76.9023C524.021 78.1198 523.734 79.2708 523.158 80.3555C522.583 81.4401 521.753 82.403 520.668 83.2441C519.583 84.0632 518.266 84.7051 516.717 85.1699C515.189 85.6348 513.463 85.8672 511.537 85.8672ZM504.531 83.4766H511.537C513.684 83.4766 515.566 83.6868 517.182 84.1074C518.82 84.5059 520.192 85.1035 521.299 85.9004C522.406 86.6973 523.236 87.6823 523.789 88.8555C524.365 90.0065 524.652 91.3346 524.652 92.8398C524.652 94.5443 524.276 96.0716 523.523 97.4219C522.793 98.75 521.753 99.8789 520.402 100.809C519.052 101.738 517.447 102.447 515.588 102.934C513.729 103.421 511.681 103.664 509.445 103.664C507.033 103.664 504.686 103.266 502.406 102.469C500.148 101.672 498.278 100.443 496.795 98.7832C495.334 97.123 494.604 94.987 494.604 92.375H503.402C503.402 93.2161 503.657 94.002 504.166 94.7324C504.675 95.4629 505.406 96.0495 506.357 96.4922C507.331 96.9128 508.505 97.123 509.877 97.123C511.271 97.123 512.411 96.9017 513.297 96.459C514.182 96.0163 514.824 95.4297 515.223 94.6992C515.643 93.9466 515.854 93.1608 515.854 92.3418C515.854 91.2129 515.632 90.3053 515.189 89.6191C514.769 88.9108 514.105 88.3906 513.197 88.0586C512.312 87.7266 511.205 87.5605 509.877 87.5605H504.531V83.4766ZM555.531 81.8164V88.6895H537.104V81.8164H555.531ZM539.859 67.0742V103H531.061V67.0742H539.859ZM561.674 67.0742V103H552.842V67.0742H561.674ZM578.508 90.4824L591.59 67.0742H600.389V103H591.59V79.5586L578.508 103H569.709V67.0742H578.508V90.4824ZM617.721 67.0742V103H608.955V67.0742H617.721ZM641.129 67.0742L625.291 89.1211H615.961L614.865 81.0859H621.34L630.072 67.0742H641.129ZM630.604 103L620.775 87.5938L628.08 83.0117L642.258 103H630.604ZM670.414 67.0742V74.0137H652.816V67.0742H670.414ZM677.021 67.0742V103H668.256V67.0742H677.021ZM650.625 67.0742H659.291L658.328 85.0039C658.173 87.638 657.896 89.9512 657.498 91.9434C657.1 93.9134 656.568 95.6068 655.904 97.0234C655.24 98.418 654.432 99.5579 653.48 100.443C652.529 101.329 651.422 101.982 650.16 102.402C648.921 102.801 647.526 103 645.977 103H643.287L643.188 95.9277L644.449 95.8281C645.224 95.7617 645.888 95.5514 646.441 95.1973C647.017 94.8431 647.504 94.334 647.902 93.6699C648.323 93.0059 648.666 92.1536 648.932 91.1133C649.219 90.0508 649.441 88.8112 649.596 87.3945C649.773 85.9557 649.895 84.2956 649.961 82.4141L650.625 67.0742ZM704.846 95.3633V78.7949C704.846 77.5775 704.635 76.526 704.215 75.6406C703.794 74.7552 703.152 74.069 702.289 73.582C701.426 73.0951 700.33 72.8516 699.002 72.8516C697.829 72.8516 696.799 73.0508 695.914 73.4492C695.051 73.8477 694.387 74.4121 693.922 75.1426C693.457 75.8509 693.225 76.6699 693.225 77.5996H684.426C684.426 76.1165 684.78 74.7109 685.488 73.3828C686.197 72.0326 687.204 70.8372 688.51 69.7969C689.838 68.7344 691.421 67.9043 693.258 67.3066C695.117 66.709 697.198 66.4102 699.5 66.4102C702.223 66.4102 704.646 66.875 706.771 67.8047C708.919 68.7122 710.601 70.0846 711.818 71.9219C713.058 73.7591 713.678 76.0723 713.678 78.8613V94.5332C713.678 96.3262 713.788 97.8646 714.01 99.1484C714.253 100.41 714.607 101.506 715.072 102.436V103H706.141C705.72 102.092 705.399 100.941 705.178 99.5469C704.956 98.1302 704.846 96.7357 704.846 95.3633ZM706.074 81.1191L706.141 86.332H700.596C699.223 86.332 698.017 86.4759 696.977 86.7637C695.936 87.0293 695.084 87.4277 694.42 87.959C693.756 88.4681 693.258 89.0879 692.926 89.8184C692.594 90.5267 692.428 91.3346 692.428 92.2422C692.428 93.1276 692.627 93.9245 693.025 94.6328C693.446 95.3411 694.044 95.9056 694.818 96.3262C695.615 96.7246 696.545 96.9238 697.607 96.9238C699.157 96.9238 700.507 96.6139 701.658 95.9941C702.809 95.3522 703.706 94.5775 704.348 93.6699C704.99 92.7624 705.333 91.8991 705.377 91.0801L707.9 94.8652C707.59 95.7728 707.126 96.7357 706.506 97.7539C705.886 98.7721 705.089 99.724 704.115 100.609C703.141 101.495 701.968 102.225 700.596 102.801C699.223 103.376 697.63 103.664 695.814 103.664C693.49 103.664 691.41 103.199 689.572 102.27C687.735 101.34 686.285 100.067 685.223 98.4512C684.16 96.8353 683.629 94.998 683.629 92.9395C683.629 91.0358 683.983 89.3535 684.691 87.8926C685.4 86.4316 686.451 85.2031 687.846 84.207C689.24 83.1888 690.967 82.4251 693.025 81.916C695.106 81.3848 697.486 81.1191 700.164 81.1191H706.074ZM763.051 81.8164V88.6895H744.623V81.8164H763.051ZM747.379 67.0742V103H738.58V67.0742H747.379ZM769.193 67.0742V103H760.361V67.0742H769.193ZM793.299 103.664C790.576 103.664 788.13 103.221 785.961 102.336C783.792 101.451 781.943 100.222 780.416 98.6504C778.911 97.0566 777.749 95.2083 776.93 93.1055C776.133 90.9805 775.734 88.7005 775.734 86.2656V84.9375C775.734 82.1706 776.133 79.6582 776.93 77.4004C777.727 75.1204 778.855 73.1615 780.316 71.5234C781.777 69.8854 783.526 68.6237 785.562 67.7383C787.599 66.8529 789.846 66.4102 792.303 66.4102C794.848 66.4102 797.095 66.8418 799.043 67.7051C800.991 68.5462 802.618 69.7415 803.924 71.291C805.23 72.8405 806.215 74.6999 806.879 76.8691C807.543 79.0163 807.875 81.3958 807.875 84.0078V87.6934H779.719V81.6504H799.242V80.9863C799.198 79.5918 798.932 78.319 798.445 77.168C797.958 75.9948 797.206 75.0651 796.188 74.3789C795.169 73.6706 793.852 73.3164 792.236 73.3164C790.93 73.3164 789.79 73.6042 788.816 74.1797C787.865 74.7331 787.068 75.5299 786.426 76.5703C785.806 77.5885 785.341 78.806 785.031 80.2227C784.721 81.6393 784.566 83.2109 784.566 84.9375V86.2656C784.566 87.7708 784.766 89.1654 785.164 90.4492C785.585 91.7331 786.193 92.8509 786.99 93.8027C787.809 94.7324 788.783 95.4629 789.912 95.9941C791.063 96.5033 792.369 96.7578 793.83 96.7578C795.667 96.7578 797.327 96.4036 798.811 95.6953C800.316 94.9648 801.622 93.8913 802.729 92.4746L807.145 97.0566C806.392 98.1634 805.374 99.2259 804.09 100.244C802.828 101.262 801.301 102.092 799.508 102.734C797.715 103.354 795.645 103.664 793.299 103.664ZM837.857 67.0742V74.0137H820.293V67.0742H837.857ZM822.617 67.0742V103H813.818V67.0742H822.617ZM844.498 67.0742V103H835.666V67.0742H844.498ZM861.232 73.9805V116.812H852.434V67.0742H860.568L861.232 73.9805ZM884.309 84.6719V85.3691C884.309 87.9811 883.999 90.4049 883.379 92.6406C882.781 94.8542 881.896 96.791 880.723 98.4512C879.549 100.089 878.089 101.373 876.34 102.303C874.613 103.21 872.621 103.664 870.363 103.664C868.15 103.664 866.224 103.243 864.586 102.402C862.948 101.539 861.564 100.322 860.436 98.75C859.307 97.1784 858.399 95.3522 857.713 93.2715C857.049 91.1686 856.551 88.8776 856.219 86.3984V84.1738C856.551 81.5397 857.049 79.1491 857.713 77.002C858.399 74.8327 859.307 72.9622 860.436 71.3906C861.564 69.7969 862.937 68.5684 864.553 67.7051C866.191 66.8418 868.105 66.4102 870.297 66.4102C872.577 66.4102 874.58 66.8418 876.307 67.7051C878.055 68.5684 879.527 69.8079 880.723 71.4238C881.918 73.0397 882.814 74.9655 883.412 77.2012C884.01 79.4368 884.309 81.9271 884.309 84.6719ZM875.51 85.3691V84.6719C875.51 83.0781 875.366 81.6061 875.078 80.2559C874.79 78.8835 874.348 77.6882 873.75 76.6699C873.152 75.6296 872.378 74.8216 871.426 74.2461C870.474 73.6706 869.323 73.3828 867.973 73.3828C866.622 73.3828 865.46 73.6042 864.486 74.0469C863.512 74.4896 862.715 75.1204 862.096 75.9395C861.476 76.7585 860.989 77.7324 860.635 78.8613C860.303 79.9681 860.081 81.1966 859.971 82.5469V88.0586C860.17 89.6966 860.557 91.1686 861.133 92.4746C861.708 93.7806 862.549 94.821 863.656 95.5957C864.785 96.3704 866.246 96.7578 868.039 96.7578C869.389 96.7578 870.54 96.459 871.492 95.8613C872.444 95.2637 873.219 94.4447 873.816 93.4043C874.414 92.3418 874.846 91.1243 875.111 89.752C875.377 88.3796 875.51 86.9186 875.51 85.3691ZM906.854 103.664C904.131 103.664 901.685 103.221 899.516 102.336C897.346 101.451 895.498 100.222 893.971 98.6504C892.465 97.0566 891.303 95.2083 890.484 93.1055C889.688 90.9805 889.289 88.7005 889.289 86.2656V84.9375C889.289 82.1706 889.688 79.6582 890.484 77.4004C891.281 75.1204 892.41 73.1615 893.871 71.5234C895.332 69.8854 897.081 68.6237 899.117 67.7383C901.154 66.8529 903.4 66.4102 905.857 66.4102C908.403 66.4102 910.65 66.8418 912.598 67.7051C914.546 68.5462 916.173 69.7415 917.479 71.291C918.785 72.8405 919.77 74.6999 920.434 76.8691C921.098 79.0163 921.43 81.3958 921.43 84.0078V87.6934H893.273V81.6504H912.797V80.9863C912.753 79.5918 912.487 78.319 912 77.168C911.513 75.9948 910.76 75.0651 909.742 74.3789C908.724 73.6706 907.407 73.3164 905.791 73.3164C904.485 73.3164 903.345 73.6042 902.371 74.1797C901.419 74.7331 900.622 75.5299 899.98 76.5703C899.361 77.5885 898.896 78.806 898.586 80.2227C898.276 81.6393 898.121 83.2109 898.121 84.9375V86.2656C898.121 87.7708 898.32 89.1654 898.719 90.4492C899.139 91.7331 899.748 92.8509 900.545 93.8027C901.364 94.7324 902.338 95.4629 903.467 95.9941C904.618 96.5033 905.924 96.7578 907.385 96.7578C909.222 96.7578 910.882 96.4036 912.365 95.6953C913.87 94.9648 915.176 93.8913 916.283 92.4746L920.699 97.0566C919.947 98.1634 918.928 99.2259 917.645 100.244C916.383 101.262 914.855 102.092 913.062 102.734C911.27 103.354 909.2 103.664 906.854 103.664ZM933.781 67.0742H942.547L942.215 79.4258C942.104 83.1667 941.661 86.3984 940.887 89.1211C940.134 91.8216 939.127 94.0905 937.865 95.9277C936.626 97.765 935.209 99.248 933.615 100.377C932.044 101.506 930.395 102.38 928.668 103H926.576L926.543 96.1602L927.572 96.0938C928.613 94.987 929.487 93.9023 930.195 92.8398C930.926 91.7552 931.512 90.5931 931.955 89.3535C932.398 88.1139 932.73 86.6973 932.951 85.1035C933.195 83.4876 933.35 81.5951 933.416 79.4258L933.781 67.0742ZM936.139 67.0742H959.414V103H950.648V74.2793H936.139V67.0742ZM924.584 96.0938H964.428V113.758H955.662V103H933.516V113.758H924.551L924.584 96.0938ZM987.471 87.793H976.082L976.016 81.8496H985.379C986.773 81.8496 987.913 81.7057 988.799 81.418C989.684 81.1302 990.337 80.6986 990.758 80.123C991.201 79.5475 991.422 78.8503 991.422 78.0312C991.422 77.3229 991.289 76.7142 991.023 76.2051C990.758 75.6738 990.359 75.2422 989.828 74.9102C989.319 74.5781 988.666 74.3346 987.869 74.1797C987.094 74.0026 986.187 73.9141 985.146 73.9141H979.203V103H970.404V67.0742H985.146C987.471 67.0742 989.562 67.2845 991.422 67.7051C993.281 68.1035 994.864 68.7122 996.17 69.5312C997.476 70.3503 998.472 71.3906 999.158 72.6523C999.867 73.8919 1000.22 75.3529 1000.22 77.0352C1000.22 78.1419 999.977 79.1823 999.49 80.1562C999.003 81.1302 998.284 81.9935 997.332 82.7461C996.38 83.4987 995.207 84.1185 993.812 84.6055C992.418 85.0703 990.824 85.3581 989.031 85.4688L987.471 87.793ZM987.471 103H973.725L976.979 96.1602H987.471C988.755 96.1602 989.817 96.0052 990.658 95.6953C991.499 95.3633 992.119 94.8874 992.518 94.2676C992.938 93.6478 993.148 92.8952 993.148 92.0098C993.148 91.1465 992.949 90.4049 992.551 89.7852C992.174 89.1432 991.566 88.6562 990.725 88.3242C989.906 87.9701 988.821 87.793 987.471 87.793H978.406L978.473 81.8496H988.998L991.322 84.207C993.713 84.362 995.694 84.849 997.266 85.668C998.837 86.4648 1000.01 87.4831 1000.79 88.7227C1001.56 89.9401 1001.95 91.2793 1001.95 92.7402C1001.95 94.4447 1001.63 95.9388 1000.98 97.2227C1000.34 98.5065 999.402 99.5801 998.162 100.443C996.923 101.285 995.406 101.926 993.613 102.369C991.82 102.79 989.773 103 987.471 103ZM1017.19 90.4824L1030.27 67.0742H1039.07V103H1030.27V79.5586L1017.19 103H1008.39V67.0742H1017.19V90.4824ZM1053.51 67.0742H1062.28L1061.95 79.4258C1061.83 83.1667 1061.39 86.3984 1060.62 89.1211C1059.86 91.8216 1058.86 94.0905 1057.6 95.9277C1056.36 97.765 1054.94 99.248 1053.35 100.377C1051.77 101.506 1050.12 102.38 1048.4 103H1046.31L1046.27 96.1602L1047.3 96.0938C1048.34 94.987 1049.22 93.9023 1049.93 92.8398C1050.66 91.7552 1051.24 90.5931 1051.69 89.3535C1052.13 88.1139 1052.46 86.6973 1052.68 85.1035C1052.93 83.4876 1053.08 81.5951 1053.15 79.4258L1053.51 67.0742ZM1055.87 67.0742H1079.14V103H1070.38V74.2793H1055.87V67.0742ZM1044.31 96.0938H1084.16V113.758H1075.39V103H1053.25V113.758H1044.28L1044.31 96.0938ZM1105.67 103.664C1102.95 103.664 1100.51 103.221 1098.34 102.336C1096.17 101.451 1094.32 100.222 1092.79 98.6504C1091.29 97.0566 1090.12 95.2083 1089.3 93.1055C1088.51 90.9805 1088.11 88.7005 1088.11 86.2656V84.9375C1088.11 82.1706 1088.51 79.6582 1089.3 77.4004C1090.1 75.1204 1091.23 73.1615 1092.69 71.5234C1094.15 69.8854 1095.9 68.6237 1097.94 67.7383C1099.97 66.8529 1102.22 66.4102 1104.68 66.4102C1107.22 66.4102 1109.47 66.8418 1111.42 67.7051C1113.37 68.5462 1114.99 69.7415 1116.3 71.291C1117.6 72.8405 1118.59 74.6999 1119.25 76.8691C1119.92 79.0163 1120.25 81.3958 1120.25 84.0078V87.6934H1092.09V81.6504H1111.62V80.9863C1111.57 79.5918 1111.31 78.319 1110.82 77.168C1110.33 75.9948 1109.58 75.0651 1108.56 74.3789C1107.54 73.6706 1106.23 73.3164 1104.61 73.3164C1103.31 73.3164 1102.17 73.6042 1101.19 74.1797C1100.24 74.7331 1099.44 75.5299 1098.8 76.5703C1098.18 77.5885 1097.72 78.806 1097.41 80.2227C1097.1 81.6393 1096.94 83.2109 1096.94 84.9375V86.2656C1096.94 87.7708 1097.14 89.1654 1097.54 90.4492C1097.96 91.7331 1098.57 92.8509 1099.37 93.8027C1100.18 94.7324 1101.16 95.4629 1102.29 95.9941C1103.44 96.5033 1104.74 96.7578 1106.21 96.7578C1108.04 96.7578 1109.7 96.4036 1111.19 95.6953C1112.69 94.9648 1114 93.8913 1115.1 92.4746L1119.52 97.0566C1118.77 98.1634 1117.75 99.2259 1116.46 100.244C1115.2 101.262 1113.68 102.092 1111.88 102.734C1110.09 103.354 1108.02 103.664 1105.67 103.664ZM1150.66 81.8164V88.6895H1132.24V81.8164H1150.66ZM1134.99 67.0742V103H1126.19V67.0742H1134.99ZM1156.81 67.0742V103H1147.97V67.0742H1156.81ZM1189.31 81.8164V88.6895H1170.88V81.8164H1189.31ZM1173.64 67.0742V103H1164.84V67.0742H1173.64ZM1195.46 67.0742V103H1186.62V67.0742H1195.46ZM1223.21 95.3633V78.7949C1223.21 77.5775 1223 76.526 1222.58 75.6406C1222.16 74.7552 1221.52 74.069 1220.66 73.582C1219.79 73.0951 1218.7 72.8516 1217.37 72.8516C1216.2 72.8516 1215.17 73.0508 1214.28 73.4492C1213.42 73.8477 1212.75 74.4121 1212.29 75.1426C1211.82 75.8509 1211.59 76.6699 1211.59 77.5996H1202.79C1202.79 76.1165 1203.15 74.7109 1203.86 73.3828C1204.56 72.0326 1205.57 70.8372 1206.88 69.7969C1208.21 68.7344 1209.79 67.9043 1211.62 67.3066C1213.48 66.709 1215.57 66.4102 1217.87 66.4102C1220.59 66.4102 1223.01 66.875 1225.14 67.8047C1227.29 68.7122 1228.97 70.0846 1230.19 71.9219C1231.43 73.7591 1232.04 76.0723 1232.04 78.8613V94.5332C1232.04 96.3262 1232.16 97.8646 1232.38 99.1484C1232.62 100.41 1232.97 101.506 1233.44 102.436V103H1224.51C1224.09 102.092 1223.77 100.941 1223.54 99.5469C1223.32 98.1302 1223.21 96.7357 1223.21 95.3633ZM1224.44 81.1191L1224.51 86.332H1218.96C1217.59 86.332 1216.38 86.4759 1215.34 86.7637C1214.3 87.0293 1213.45 87.4277 1212.79 87.959C1212.12 88.4681 1211.62 89.0879 1211.29 89.8184C1210.96 90.5267 1210.79 91.3346 1210.79 92.2422C1210.79 93.1276 1210.99 93.9245 1211.39 94.6328C1211.81 95.3411 1212.41 95.9056 1213.19 96.3262C1213.98 96.7246 1214.91 96.9238 1215.97 96.9238C1217.52 96.9238 1218.87 96.6139 1220.03 95.9941C1221.18 95.3522 1222.07 94.5775 1222.71 93.6699C1223.36 92.7624 1223.7 91.8991 1223.74 91.0801L1226.27 94.8652C1225.96 95.7728 1225.49 96.7357 1224.87 97.7539C1224.25 98.7721 1223.46 99.724 1222.48 100.609C1221.51 101.495 1220.34 102.225 1218.96 102.801C1217.59 103.376 1216 103.664 1214.18 103.664C1211.86 103.664 1209.78 103.199 1207.94 102.27C1206.1 101.34 1204.65 100.067 1203.59 98.4512C1202.53 96.8353 1202 94.998 1202 92.9395C1202 91.0358 1202.35 89.3535 1203.06 87.8926C1203.77 86.4316 1204.82 85.2031 1206.21 84.207C1207.61 83.1888 1209.33 82.4251 1211.39 81.916C1213.47 81.3848 1215.85 81.1191 1218.53 81.1191H1224.44ZM1247.58 85.2695H1256.58L1246.49 103H1237.49L1247.58 85.2695ZM1253.69 67.0742H1269.3V103H1260.53V73.9141H1253.69C1252.3 73.9141 1251.14 74.1686 1250.21 74.6777C1249.3 75.1868 1248.62 75.8398 1248.18 76.6367C1247.74 77.4115 1247.52 78.2083 1247.52 79.0273C1247.52 79.8242 1247.73 80.599 1248.15 81.3516C1248.57 82.1042 1249.21 82.724 1250.07 83.2109C1250.96 83.6979 1252.07 83.9414 1253.39 83.9414H1263.65V90.1172H1253.39C1251.11 90.1172 1249.07 89.8405 1247.25 89.2871C1245.46 88.7116 1243.92 87.9147 1242.64 86.8965C1241.38 85.8783 1240.41 84.6829 1239.75 83.3105C1239.08 81.916 1238.75 80.3997 1238.75 78.7617C1238.75 77.0794 1239.08 75.5299 1239.75 74.1133C1240.43 72.6966 1241.42 71.457 1242.7 70.3945C1244.01 69.332 1245.58 68.513 1247.42 67.9375C1249.28 67.362 1251.37 67.0742 1253.69 67.0742ZM1293.24 85.4023V84.7051C1293.24 82.071 1293.61 79.6471 1294.37 77.4336C1295.12 75.1979 1296.22 73.2611 1297.65 71.623C1299.09 69.985 1300.85 68.7122 1302.93 67.8047C1305.01 66.875 1307.38 66.4102 1310.04 66.4102C1312.74 66.4102 1315.13 66.875 1317.21 67.8047C1319.31 68.7122 1321.08 69.985 1322.52 71.623C1323.96 73.2611 1325.06 75.1979 1325.81 77.4336C1326.56 79.6471 1326.94 82.071 1326.94 84.7051V85.4023C1326.94 88.0143 1326.56 90.4382 1325.81 92.6738C1325.06 94.8874 1323.96 96.8242 1322.52 98.4844C1321.08 100.122 1319.32 101.395 1317.24 102.303C1315.16 103.21 1312.78 103.664 1310.11 103.664C1307.45 103.664 1305.07 103.21 1302.97 102.303C1300.86 101.395 1299.09 100.122 1297.65 98.4844C1296.22 96.8242 1295.12 94.8874 1294.37 92.6738C1293.61 90.4382 1293.24 88.0143 1293.24 85.4023ZM1302 84.7051V85.4023C1302 86.974 1302.16 88.446 1302.47 89.8184C1302.78 91.1908 1303.25 92.3971 1303.9 93.4375C1304.54 94.4779 1305.37 95.2969 1306.39 95.8945C1307.43 96.4701 1308.67 96.7578 1310.11 96.7578C1311.52 96.7578 1312.74 96.4701 1313.76 95.8945C1314.78 95.2969 1315.61 94.4779 1316.25 93.4375C1316.91 92.3971 1317.4 91.1908 1317.71 89.8184C1318.02 88.446 1318.17 86.974 1318.17 85.4023V84.7051C1318.17 83.1556 1318.02 81.7057 1317.71 80.3555C1317.4 78.9831 1316.91 77.7767 1316.25 76.7363C1315.61 75.6738 1314.76 74.8438 1313.72 74.2461C1312.71 73.6263 1311.48 73.3164 1310.04 73.3164C1308.62 73.3164 1307.4 73.6263 1306.39 74.2461C1305.37 74.8438 1304.54 75.6738 1303.9 76.7363C1303.25 77.7767 1302.78 78.9831 1302.47 80.3555C1302.16 81.7057 1302 83.1556 1302 84.7051ZM1333.38 67.0742H1342.18V96.0938H1352.84V67.0742H1361.67V96.0938H1372.33V67.0742H1381.09V103H1333.38V67.0742ZM1398.16 90.4824L1411.24 67.0742H1420.04V103H1411.24V79.5586L1398.16 103H1389.36V67.0742H1398.16V90.4824ZM1450.26 51.3027H1457.36C1457.36 53.1842 1457.12 54.7669 1456.63 56.0508C1456.14 57.3125 1455.39 58.375 1454.37 59.2383C1453.35 60.0794 1452.05 60.7767 1450.46 61.3301C1448.86 61.8835 1446.96 62.3704 1444.74 62.791C1442.88 63.1673 1441.25 63.7871 1439.83 64.6504C1438.41 65.5137 1437.23 66.6979 1436.28 68.2031C1435.35 69.7083 1434.67 71.623 1434.25 73.9473C1433.83 76.2715 1433.7 79.0716 1433.85 82.3477V84.2734L1426.98 85.0703V83.1445C1426.98 78.8724 1427.37 75.1536 1428.14 71.9883C1428.92 68.8008 1430.01 66.1224 1431.43 63.9531C1432.85 61.7617 1434.54 60.0241 1436.51 58.7402C1438.5 57.4342 1440.73 56.5156 1443.18 55.9844C1444.82 55.6523 1446.16 55.3092 1447.2 54.9551C1448.26 54.6009 1449.04 54.1471 1449.53 53.5938C1450.01 53.0182 1450.26 52.2546 1450.26 51.3027ZM1445.34 69.0996C1447.75 69.0996 1449.89 69.5202 1451.75 70.3613C1453.63 71.1803 1455.21 72.3424 1456.5 73.8477C1457.78 75.3307 1458.76 77.0905 1459.42 79.127C1460.11 81.1413 1460.45 83.3438 1460.45 85.7344V86.4316C1460.45 88.9108 1460.07 91.2018 1459.32 93.3047C1458.59 95.4076 1457.52 97.2337 1456.1 98.7832C1454.68 100.333 1452.93 101.539 1450.85 102.402C1448.77 103.266 1446.39 103.697 1443.71 103.697C1441.06 103.697 1438.69 103.243 1436.61 102.336C1434.53 101.406 1432.77 100.122 1431.33 98.4844C1429.89 96.8464 1428.81 94.9206 1428.08 92.707C1427.35 90.4714 1426.98 88.0365 1426.98 85.4023V84.7051C1426.96 84.2624 1427.1 83.8418 1427.41 83.4434C1427.72 83.0449 1428.09 82.6022 1428.51 82.1152C1428.95 81.6283 1429.35 81.0417 1429.7 80.3555C1430.92 78.0091 1432.29 75.9948 1433.82 74.3125C1435.37 72.6302 1437.1 71.3464 1439 70.4609C1440.9 69.5534 1443.02 69.0996 1445.34 69.0996ZM1443.65 76.0059C1441.77 76.0059 1440.24 76.4596 1439.07 77.3672C1437.92 78.2526 1437.07 79.4368 1436.54 80.9199C1436.01 82.3809 1435.75 83.9857 1435.75 85.7344V86.4316C1435.75 87.8483 1435.89 89.1875 1436.18 90.4492C1436.49 91.6888 1436.95 92.7845 1437.57 93.7363C1438.19 94.6882 1439.01 95.4408 1440.03 95.9941C1441.05 96.5254 1442.28 96.791 1443.71 96.791C1445.15 96.791 1446.37 96.5254 1447.37 95.9941C1448.39 95.4408 1449.2 94.6882 1449.82 93.7363C1450.44 92.7845 1450.9 91.6888 1451.19 90.4492C1451.5 89.1875 1451.65 87.8483 1451.65 86.4316V85.7344C1451.65 84.4284 1451.5 83.1888 1451.19 82.0156C1450.9 80.8424 1450.44 79.8132 1449.82 78.9277C1449.2 78.0202 1448.37 77.3118 1447.33 76.8027C1446.32 76.2715 1445.09 76.0059 1443.65 76.0059ZM1475.29 67.0742V103H1466.53V67.0742H1475.29ZM1498.7 67.0742L1482.86 89.1211H1473.53L1472.44 81.0859H1478.91L1487.64 67.0742H1498.7ZM1488.17 103L1478.35 87.5938L1485.65 83.0117L1499.83 103H1488.17ZM1523.63 95.3633V78.7949C1523.63 77.5775 1523.42 76.526 1523 75.6406C1522.58 74.7552 1521.94 74.069 1521.08 73.582C1520.21 73.0951 1519.12 72.8516 1517.79 72.8516C1516.62 72.8516 1515.59 73.0508 1514.7 73.4492C1513.84 73.8477 1513.18 74.4121 1512.71 75.1426C1512.25 75.8509 1512.01 76.6699 1512.01 77.5996H1503.21C1503.21 76.1165 1503.57 74.7109 1504.28 73.3828C1504.99 72.0326 1505.99 70.8372 1507.3 69.7969C1508.63 68.7344 1510.21 67.9043 1512.05 67.3066C1513.91 66.709 1515.99 66.4102 1518.29 66.4102C1521.01 66.4102 1523.44 66.875 1525.56 67.8047C1527.71 68.7122 1529.39 70.0846 1530.61 71.9219C1531.85 73.7591 1532.47 76.0723 1532.47 78.8613V94.5332C1532.47 96.3262 1532.58 97.8646 1532.8 99.1484C1533.04 100.41 1533.4 101.506 1533.86 102.436V103H1524.93C1524.51 102.092 1524.19 100.941 1523.97 99.5469C1523.75 98.1302 1523.63 96.7357 1523.63 95.3633ZM1524.86 81.1191L1524.93 86.332H1519.38C1518.01 86.332 1516.81 86.4759 1515.77 86.7637C1514.73 87.0293 1513.87 87.4277 1513.21 87.959C1512.54 88.4681 1512.05 89.0879 1511.71 89.8184C1511.38 90.5267 1511.22 91.3346 1511.22 92.2422C1511.22 93.1276 1511.42 93.9245 1511.81 94.6328C1512.24 95.3411 1512.83 95.9056 1513.61 96.3262C1514.4 96.7246 1515.33 96.9238 1516.4 96.9238C1517.95 96.9238 1519.3 96.6139 1520.45 95.9941C1521.6 95.3522 1522.49 94.5775 1523.14 93.6699C1523.78 92.7624 1524.12 91.8991 1524.17 91.0801L1526.69 94.8652C1526.38 95.7728 1525.91 96.7357 1525.29 97.7539C1524.68 98.7721 1523.88 99.724 1522.9 100.609C1521.93 101.495 1520.76 102.225 1519.38 102.801C1518.01 103.376 1516.42 103.664 1514.6 103.664C1512.28 103.664 1510.2 103.199 1508.36 102.27C1506.52 101.34 1505.07 100.067 1504.01 98.4512C1502.95 96.8353 1502.42 94.998 1502.42 92.9395C1502.42 91.0358 1502.77 89.3535 1503.48 87.8926C1504.19 86.4316 1505.24 85.2031 1506.63 84.207C1508.03 83.1888 1509.76 82.4251 1511.81 81.916C1513.9 81.3848 1516.27 81.1191 1518.95 81.1191H1524.86ZM453.93 134.656V183H444.799V141.861H424.346V183H415.215V134.656H453.93ZM461.102 165.402V164.705C461.102 162.071 461.478 159.647 462.23 157.434C462.983 155.198 464.079 153.261 465.518 151.623C466.956 149.985 468.716 148.712 470.797 147.805C472.878 146.875 475.246 146.41 477.902 146.41C480.603 146.41 482.993 146.875 485.074 147.805C487.177 148.712 488.948 149.985 490.387 151.623C491.826 153.261 492.921 155.198 493.674 157.434C494.426 159.647 494.803 162.071 494.803 164.705V165.402C494.803 168.014 494.426 170.438 493.674 172.674C492.921 174.887 491.826 176.824 490.387 178.484C488.948 180.122 487.188 181.395 485.107 182.303C483.027 183.21 480.647 183.664 477.969 183.664C475.312 183.664 472.933 183.21 470.83 182.303C468.727 181.395 466.956 180.122 465.518 178.484C464.079 176.824 462.983 174.887 462.23 172.674C461.478 170.438 461.102 168.014 461.102 165.402ZM469.867 164.705V165.402C469.867 166.974 470.022 168.446 470.332 169.818C470.642 171.191 471.118 172.397 471.76 173.438C472.402 174.478 473.232 175.297 474.25 175.895C475.29 176.47 476.53 176.758 477.969 176.758C479.385 176.758 480.603 176.47 481.621 175.895C482.639 175.297 483.469 174.478 484.111 173.438C484.775 172.397 485.262 171.191 485.572 169.818C485.882 168.446 486.037 166.974 486.037 165.402V164.705C486.037 163.156 485.882 161.706 485.572 160.355C485.262 158.983 484.775 157.777 484.111 156.736C483.469 155.674 482.628 154.844 481.588 154.246C480.57 153.626 479.341 153.316 477.902 153.316C476.486 153.316 475.268 153.626 474.25 154.246C473.232 154.844 472.402 155.674 471.76 156.736C471.118 157.777 470.642 158.983 470.332 160.355C470.022 161.706 469.867 163.156 469.867 164.705ZM512.699 168.988L498.09 147.074H508.914L516.916 160.92H523.855L522.76 168.988H512.699ZM517.082 167.594L508.383 183H497.725L510.176 163.012L517.082 167.594ZM529.367 147.074V183H520.602V147.074H529.367ZM551.979 147.074L537.336 168.988H527.275L526.18 160.92H533.119L541.121 147.074H551.979ZM541.652 183L532.953 167.594L540.092 163.012L552.51 183H541.652ZM577.146 175.363V158.795C577.146 157.577 576.936 156.526 576.516 155.641C576.095 154.755 575.453 154.069 574.59 153.582C573.727 153.095 572.631 152.852 571.303 152.852C570.13 152.852 569.1 153.051 568.215 153.449C567.352 153.848 566.688 154.412 566.223 155.143C565.758 155.851 565.525 156.67 565.525 157.6H556.727C556.727 156.117 557.081 154.711 557.789 153.383C558.497 152.033 559.505 150.837 560.811 149.797C562.139 148.734 563.721 147.904 565.559 147.307C567.418 146.709 569.499 146.41 571.801 146.41C574.523 146.41 576.947 146.875 579.072 147.805C581.219 148.712 582.902 150.085 584.119 151.922C585.359 153.759 585.979 156.072 585.979 158.861V174.533C585.979 176.326 586.089 177.865 586.311 179.148C586.554 180.41 586.908 181.506 587.373 182.436V183H578.441C578.021 182.092 577.7 180.941 577.479 179.547C577.257 178.13 577.146 176.736 577.146 175.363ZM578.375 161.119L578.441 166.332H572.896C571.524 166.332 570.318 166.476 569.277 166.764C568.237 167.029 567.385 167.428 566.721 167.959C566.057 168.468 565.559 169.088 565.227 169.818C564.895 170.527 564.729 171.335 564.729 172.242C564.729 173.128 564.928 173.924 565.326 174.633C565.747 175.341 566.344 175.906 567.119 176.326C567.916 176.725 568.846 176.924 569.908 176.924C571.458 176.924 572.808 176.614 573.959 175.994C575.11 175.352 576.007 174.577 576.648 173.67C577.29 172.762 577.633 171.899 577.678 171.08L580.201 174.865C579.891 175.773 579.426 176.736 578.807 177.754C578.187 178.772 577.39 179.724 576.416 180.609C575.442 181.495 574.269 182.225 572.896 182.801C571.524 183.376 569.93 183.664 568.115 183.664C565.791 183.664 563.71 183.199 561.873 182.27C560.036 181.34 558.586 180.067 557.523 178.451C556.461 176.835 555.93 174.998 555.93 172.939C555.93 171.036 556.284 169.354 556.992 167.893C557.701 166.432 558.752 165.203 560.146 164.207C561.541 163.189 563.268 162.425 565.326 161.916C567.407 161.385 569.786 161.119 572.465 161.119H578.375ZM618.02 147.074V154.014H600.422V147.074H618.02ZM624.627 147.074V183H615.861V147.074H624.627ZM598.23 147.074H606.896L605.934 165.004C605.779 167.638 605.502 169.951 605.104 171.943C604.705 173.913 604.174 175.607 603.51 177.023C602.846 178.418 602.038 179.558 601.086 180.443C600.134 181.329 599.027 181.982 597.766 182.402C596.526 182.801 595.132 183 593.582 183H590.893L590.793 175.928L592.055 175.828C592.829 175.762 593.493 175.551 594.047 175.197C594.622 174.843 595.109 174.334 595.508 173.67C595.928 173.006 596.271 172.154 596.537 171.113C596.825 170.051 597.046 168.811 597.201 167.395C597.378 165.956 597.5 164.296 597.566 162.414L598.23 147.074ZM643.188 179.016L652.816 147.074H662.213L647.803 188.445C647.471 189.331 647.039 190.294 646.508 191.334C645.999 192.374 645.312 193.359 644.449 194.289C643.586 195.241 642.501 196.016 641.195 196.613C639.911 197.211 638.351 197.51 636.514 197.51C635.717 197.51 635.008 197.454 634.389 197.344C633.769 197.233 633.116 197.089 632.43 196.912V190.338C632.651 190.36 632.906 190.371 633.193 190.371C633.503 190.393 633.769 190.404 633.99 190.404C635.274 190.404 636.337 190.249 637.178 189.939C638.019 189.652 638.694 189.176 639.203 188.512C639.734 187.87 640.177 187.029 640.531 185.988L643.188 179.016ZM638.439 147.074L646.574 173.537L648.002 182.801L641.959 183.896L628.977 147.074H638.439ZM675.328 170.482L688.41 147.074H697.209V183H688.41V159.559L675.328 183H666.529V147.074H675.328V170.482ZM686.783 132.963H693.158C693.158 134.822 692.704 136.471 691.797 137.91C690.889 139.349 689.594 140.478 687.912 141.297C686.252 142.094 684.282 142.492 682.002 142.492C678.571 142.492 675.848 141.607 673.834 139.836C671.82 138.065 670.812 135.774 670.812 132.963H677.188C677.188 134.136 677.553 135.188 678.283 136.117C679.014 137.047 680.253 137.512 682.002 137.512C683.751 137.512 684.979 137.047 685.688 136.117C686.418 135.188 686.783 134.136 686.783 132.963ZM719.92 176.758C721.16 176.758 722.266 176.514 723.24 176.027C724.214 175.54 724.989 174.854 725.564 173.969C726.162 173.083 726.483 172.054 726.527 170.881H734.795C734.751 173.316 734.064 175.496 732.736 177.422C731.408 179.348 729.637 180.875 727.424 182.004C725.232 183.111 722.775 183.664 720.053 183.664C717.286 183.664 714.873 183.199 712.814 182.27C710.756 181.34 709.04 180.045 707.668 178.385C706.318 176.725 705.299 174.799 704.613 172.607C703.949 170.416 703.617 168.07 703.617 165.568V164.506C703.617 162.005 703.949 159.658 704.613 157.467C705.299 155.275 706.318 153.35 707.668 151.689C709.04 150.029 710.756 148.734 712.814 147.805C714.873 146.875 717.275 146.41 720.02 146.41C722.919 146.41 725.465 146.975 727.656 148.104C729.87 149.232 731.596 150.826 732.836 152.885C734.098 154.943 734.751 157.367 734.795 160.156H726.527C726.483 158.872 726.195 157.721 725.664 156.703C725.133 155.685 724.38 154.866 723.406 154.246C722.432 153.626 721.248 153.316 719.854 153.316C718.37 153.316 717.131 153.626 716.135 154.246C715.161 154.866 714.397 155.718 713.844 156.803C713.312 157.865 712.936 159.061 712.715 160.389C712.516 161.695 712.416 163.067 712.416 164.506V165.568C712.416 167.029 712.516 168.424 712.715 169.752C712.936 171.08 713.312 172.275 713.844 173.338C714.397 174.378 715.161 175.208 716.135 175.828C717.131 176.448 718.393 176.758 719.92 176.758ZM758.07 147.074V183H749.271V147.074H758.07ZM769.758 147.074V153.914H737.783V147.074H769.758ZM794.162 175.363V158.795C794.162 157.577 793.952 156.526 793.531 155.641C793.111 154.755 792.469 154.069 791.605 153.582C790.742 153.095 789.646 152.852 788.318 152.852C787.145 152.852 786.116 153.051 785.23 153.449C784.367 153.848 783.703 154.412 783.238 155.143C782.773 155.851 782.541 156.67 782.541 157.6H773.742C773.742 156.117 774.096 154.711 774.805 153.383C775.513 152.033 776.52 150.837 777.826 149.797C779.154 148.734 780.737 147.904 782.574 147.307C784.434 146.709 786.514 146.41 788.816 146.41C791.539 146.41 793.963 146.875 796.088 147.805C798.235 148.712 799.917 150.085 801.135 151.922C802.374 153.759 802.994 156.072 802.994 158.861V174.533C802.994 176.326 803.105 177.865 803.326 179.148C803.57 180.41 803.924 181.506 804.389 182.436V183H795.457C795.036 182.092 794.715 180.941 794.494 179.547C794.273 178.13 794.162 176.736 794.162 175.363ZM795.391 161.119L795.457 166.332H789.912C788.54 166.332 787.333 166.476 786.293 166.764C785.253 167.029 784.4 167.428 783.736 167.959C783.072 168.468 782.574 169.088 782.242 169.818C781.91 170.527 781.744 171.335 781.744 172.242C781.744 173.128 781.943 173.924 782.342 174.633C782.762 175.341 783.36 175.906 784.135 176.326C784.932 176.725 785.861 176.924 786.924 176.924C788.473 176.924 789.824 176.614 790.975 175.994C792.126 175.352 793.022 174.577 793.664 173.67C794.306 172.762 794.649 171.899 794.693 171.08L797.217 174.865C796.907 175.773 796.442 176.736 795.822 177.754C795.202 178.772 794.406 179.724 793.432 180.609C792.458 181.495 791.285 182.225 789.912 182.801C788.54 183.376 786.946 183.664 785.131 183.664C782.807 183.664 780.726 183.199 778.889 182.27C777.051 181.34 775.602 180.067 774.539 178.451C773.477 176.835 772.945 174.998 772.945 172.939C772.945 171.036 773.299 169.354 774.008 167.893C774.716 166.432 775.768 165.203 777.162 164.207C778.557 163.189 780.283 162.425 782.342 161.916C784.423 161.385 786.802 161.119 789.48 161.119H795.391ZM819.164 175.098L819.098 181.174C819.098 183.542 818.511 185.944 817.338 188.379C816.165 190.814 814.648 192.828 812.789 194.422L808.141 191.865C808.738 190.869 809.292 189.862 809.801 188.844C810.332 187.826 810.753 186.719 811.062 185.523C811.395 184.35 811.561 183.033 811.561 181.572V175.098H819.164ZM867.939 147.074V154.014H850.375V147.074H867.939ZM852.699 147.074V183H843.9V147.074H852.699ZM874.58 147.074V183H865.748V147.074H874.58ZM898.686 183.664C895.963 183.664 893.517 183.221 891.348 182.336C889.178 181.451 887.33 180.222 885.803 178.65C884.298 177.057 883.135 175.208 882.316 173.105C881.52 170.98 881.121 168.701 881.121 166.266V164.938C881.121 162.171 881.52 159.658 882.316 157.4C883.113 155.12 884.242 153.161 885.703 151.523C887.164 149.885 888.913 148.624 890.949 147.738C892.986 146.853 895.232 146.41 897.689 146.41C900.235 146.41 902.482 146.842 904.43 147.705C906.378 148.546 908.005 149.742 909.311 151.291C910.617 152.84 911.602 154.7 912.266 156.869C912.93 159.016 913.262 161.396 913.262 164.008V167.693H885.105V161.65H904.629V160.986C904.585 159.592 904.319 158.319 903.832 157.168C903.345 155.995 902.592 155.065 901.574 154.379C900.556 153.671 899.239 153.316 897.623 153.316C896.317 153.316 895.177 153.604 894.203 154.18C893.251 154.733 892.454 155.53 891.812 156.57C891.193 157.589 890.728 158.806 890.418 160.223C890.108 161.639 889.953 163.211 889.953 164.938V166.266C889.953 167.771 890.152 169.165 890.551 170.449C890.971 171.733 891.58 172.851 892.377 173.803C893.196 174.732 894.17 175.463 895.299 175.994C896.45 176.503 897.756 176.758 899.217 176.758C901.054 176.758 902.714 176.404 904.197 175.695C905.702 174.965 907.008 173.891 908.115 172.475L912.531 177.057C911.779 178.163 910.76 179.226 909.477 180.244C908.215 181.262 906.688 182.092 904.895 182.734C903.102 183.354 901.032 183.664 898.686 183.664ZM927.904 153.98V196.812H919.105V147.074H927.24L927.904 153.98ZM950.98 164.672V165.369C950.98 167.981 950.671 170.405 950.051 172.641C949.453 174.854 948.568 176.791 947.395 178.451C946.221 180.089 944.76 181.373 943.012 182.303C941.285 183.21 939.293 183.664 937.035 183.664C934.822 183.664 932.896 183.243 931.258 182.402C929.62 181.539 928.236 180.322 927.107 178.75C925.979 177.178 925.071 175.352 924.385 173.271C923.721 171.169 923.223 168.878 922.891 166.398V164.174C923.223 161.54 923.721 159.149 924.385 157.002C925.071 154.833 925.979 152.962 927.107 151.391C928.236 149.797 929.609 148.568 931.225 147.705C932.863 146.842 934.777 146.41 936.969 146.41C939.249 146.41 941.252 146.842 942.979 147.705C944.727 148.568 946.199 149.808 947.395 151.424C948.59 153.04 949.486 154.965 950.084 157.201C950.682 159.437 950.98 161.927 950.98 164.672ZM942.182 165.369V164.672C942.182 163.078 942.038 161.606 941.75 160.256C941.462 158.883 941.02 157.688 940.422 156.67C939.824 155.63 939.049 154.822 938.098 154.246C937.146 153.671 935.995 153.383 934.645 153.383C933.294 153.383 932.132 153.604 931.158 154.047C930.184 154.49 929.387 155.12 928.768 155.939C928.148 156.758 927.661 157.732 927.307 158.861C926.975 159.968 926.753 161.197 926.643 162.547V168.059C926.842 169.697 927.229 171.169 927.805 172.475C928.38 173.781 929.221 174.821 930.328 175.596C931.457 176.37 932.918 176.758 934.711 176.758C936.061 176.758 937.212 176.459 938.164 175.861C939.116 175.264 939.891 174.445 940.488 173.404C941.086 172.342 941.518 171.124 941.783 169.752C942.049 168.38 942.182 166.919 942.182 165.369ZM973.525 183.664C970.803 183.664 968.357 183.221 966.188 182.336C964.018 181.451 962.17 180.222 960.643 178.65C959.137 177.057 957.975 175.208 957.156 173.105C956.359 170.98 955.961 168.701 955.961 166.266V164.938C955.961 162.171 956.359 159.658 957.156 157.4C957.953 155.12 959.082 153.161 960.543 151.523C962.004 149.885 963.753 148.624 965.789 147.738C967.826 146.853 970.072 146.41 972.529 146.41C975.075 146.41 977.322 146.842 979.27 147.705C981.217 148.546 982.844 149.742 984.15 151.291C985.456 152.84 986.441 154.7 987.105 156.869C987.77 159.016 988.102 161.396 988.102 164.008V167.693H959.945V161.65H979.469V160.986C979.424 159.592 979.159 158.319 978.672 157.168C978.185 155.995 977.432 155.065 976.414 154.379C975.396 153.671 974.079 153.316 972.463 153.316C971.157 153.316 970.017 153.604 969.043 154.18C968.091 154.733 967.294 155.53 966.652 156.57C966.033 157.589 965.568 158.806 965.258 160.223C964.948 161.639 964.793 163.211 964.793 164.938V166.266C964.793 167.771 964.992 169.165 965.391 170.449C965.811 171.733 966.42 172.851 967.217 173.803C968.036 174.732 969.01 175.463 970.139 175.994C971.29 176.503 972.596 176.758 974.057 176.758C975.894 176.758 977.554 176.404 979.037 175.695C980.542 174.965 981.848 173.891 982.955 172.475L987.371 177.057C986.618 178.163 985.6 179.226 984.316 180.244C983.055 181.262 981.527 182.092 979.734 182.734C977.941 183.354 975.872 183.664 973.525 183.664ZM1009.38 165.867H1002.38V161.684H1007.72C1009.03 161.684 1010.07 161.507 1010.85 161.152C1011.64 160.798 1012.21 160.3 1012.54 159.658C1012.89 159.016 1013.07 158.275 1013.07 157.434C1013.07 156.681 1012.9 155.973 1012.57 155.309C1012.24 154.622 1011.69 154.069 1010.91 153.648C1010.14 153.206 1009.06 152.984 1007.69 152.984C1006.56 152.984 1005.56 153.161 1004.67 153.516C1003.78 153.87 1003.09 154.368 1002.58 155.01C1002.07 155.652 1001.81 156.415 1001.81 157.301H993.016C993.016 155.043 993.658 153.106 994.941 151.49C996.247 149.874 997.985 148.635 1000.15 147.771C1002.32 146.886 1004.7 146.443 1007.29 146.443C1009.53 146.443 1011.54 146.676 1013.34 147.141C1015.13 147.583 1016.66 148.247 1017.92 149.133C1019.18 150.018 1020.15 151.114 1020.84 152.42C1021.53 153.704 1021.87 155.198 1021.87 156.902C1021.87 158.12 1021.58 159.271 1021.01 160.355C1020.43 161.44 1019.6 162.403 1018.52 163.244C1017.43 164.063 1016.11 164.705 1014.56 165.17C1013.04 165.635 1011.31 165.867 1009.38 165.867ZM1002.38 163.477H1009.38C1011.53 163.477 1013.41 163.687 1015.03 164.107C1016.67 164.506 1018.04 165.104 1019.15 165.9C1020.25 166.697 1021.08 167.682 1021.64 168.855C1022.21 170.007 1022.5 171.335 1022.5 172.84C1022.5 174.544 1022.12 176.072 1021.37 177.422C1020.64 178.75 1019.6 179.879 1018.25 180.809C1016.9 181.738 1015.29 182.447 1013.44 182.934C1011.58 183.421 1009.53 183.664 1007.29 183.664C1004.88 183.664 1002.53 183.266 1000.25 182.469C997.996 181.672 996.126 180.443 994.643 178.783C993.182 177.123 992.451 174.987 992.451 172.375H1001.25C1001.25 173.216 1001.5 174.002 1002.01 174.732C1002.52 175.463 1003.25 176.049 1004.21 176.492C1005.18 176.913 1006.35 177.123 1007.72 177.123C1009.12 177.123 1010.26 176.902 1011.14 176.459C1012.03 176.016 1012.67 175.43 1013.07 174.699C1013.49 173.947 1013.7 173.161 1013.7 172.342C1013.7 171.213 1013.48 170.305 1013.04 169.619C1012.62 168.911 1011.95 168.391 1011.04 168.059C1010.16 167.727 1009.05 167.561 1007.72 167.561H1002.38V163.477ZM1048.63 175.363V158.795C1048.63 157.577 1048.42 156.526 1048 155.641C1047.58 154.755 1046.94 154.069 1046.07 153.582C1045.21 153.095 1044.12 152.852 1042.79 152.852C1041.61 152.852 1040.58 153.051 1039.7 153.449C1038.84 153.848 1038.17 154.412 1037.71 155.143C1037.24 155.851 1037.01 156.67 1037.01 157.6H1028.21C1028.21 156.117 1028.57 154.711 1029.27 153.383C1029.98 152.033 1030.99 150.837 1032.29 149.797C1033.62 148.734 1035.21 147.904 1037.04 147.307C1038.9 146.709 1040.98 146.41 1043.29 146.41C1046.01 146.41 1048.43 146.875 1050.56 147.805C1052.7 148.712 1054.39 150.085 1055.6 151.922C1056.84 153.759 1057.46 156.072 1057.46 158.861V174.533C1057.46 176.326 1057.57 177.865 1057.79 179.148C1058.04 180.41 1058.39 181.506 1058.86 182.436V183H1049.93C1049.51 182.092 1049.18 180.941 1048.96 179.547C1048.74 178.13 1048.63 176.736 1048.63 175.363ZM1049.86 161.119L1049.93 166.332H1044.38C1043.01 166.332 1041.8 166.476 1040.76 166.764C1039.72 167.029 1038.87 167.428 1038.21 167.959C1037.54 168.468 1037.04 169.088 1036.71 169.818C1036.38 170.527 1036.21 171.335 1036.21 172.242C1036.21 173.128 1036.41 173.924 1036.81 174.633C1037.23 175.341 1037.83 175.906 1038.6 176.326C1039.4 176.725 1040.33 176.924 1041.39 176.924C1042.94 176.924 1044.29 176.614 1045.44 175.994C1046.59 175.352 1047.49 174.577 1048.13 173.67C1048.77 172.762 1049.12 171.899 1049.16 171.08L1051.69 174.865C1051.38 175.773 1050.91 176.736 1050.29 177.754C1049.67 178.772 1048.87 179.724 1047.9 180.609C1046.93 181.495 1045.75 182.225 1044.38 182.801C1043.01 183.376 1041.41 183.664 1039.6 183.664C1037.28 183.664 1035.19 183.199 1033.36 182.27C1031.52 181.34 1030.07 180.067 1029.01 178.451C1027.95 176.835 1027.41 174.998 1027.41 172.939C1027.41 171.036 1027.77 169.354 1028.48 167.893C1029.18 166.432 1030.24 165.203 1031.63 164.207C1033.03 163.189 1034.75 162.425 1036.81 161.916C1038.89 161.385 1041.27 161.119 1043.95 161.119H1049.86ZM1074.23 170.482L1087.31 147.074H1096.11V183H1087.31V159.559L1074.23 183H1065.43V147.074H1074.23V170.482ZM1085.69 132.963H1092.06C1092.06 134.822 1091.61 136.471 1090.7 137.91C1089.79 139.349 1088.5 140.478 1086.81 141.297C1085.15 142.094 1083.18 142.492 1080.9 142.492C1077.47 142.492 1074.75 141.607 1072.74 139.836C1070.72 138.065 1069.71 135.774 1069.71 132.963H1076.09C1076.09 134.136 1076.46 135.188 1077.19 136.117C1077.92 137.047 1079.16 137.512 1080.9 137.512C1082.65 137.512 1083.88 137.047 1084.59 136.117C1085.32 135.188 1085.69 134.136 1085.69 132.963ZM1110.55 147.074H1119.32L1118.99 159.426C1118.88 163.167 1118.43 166.398 1117.66 169.121C1116.91 171.822 1115.9 174.09 1114.64 175.928C1113.4 177.765 1111.98 179.248 1110.39 180.377C1108.82 181.506 1107.17 182.38 1105.44 183H1103.35L1103.32 176.16L1104.35 176.094C1105.39 174.987 1106.26 173.902 1106.97 172.84C1107.7 171.755 1108.29 170.593 1108.73 169.354C1109.17 168.114 1109.5 166.697 1109.72 165.104C1109.97 163.488 1110.12 161.595 1110.19 159.426L1110.55 147.074ZM1112.91 147.074H1136.19V183H1127.42V154.279H1112.91V147.074ZM1101.36 176.094H1141.2V193.758H1132.44V183H1110.29V193.758H1101.32L1101.36 176.094ZM1155.11 170.482L1168.2 147.074H1176.99V183H1168.2V159.559L1155.11 183H1146.31V147.074H1155.11V170.482ZM1202.39 147.074V183H1193.6V147.074H1202.39ZM1214.08 147.074V153.914H1182.11V147.074H1214.08ZM1232.97 183.664C1230.25 183.664 1227.81 183.221 1225.64 182.336C1223.47 181.451 1221.62 180.222 1220.09 178.65C1218.59 177.057 1217.42 175.208 1216.61 173.105C1215.81 170.98 1215.41 168.701 1215.41 166.266V164.938C1215.41 162.171 1215.81 159.658 1216.61 157.4C1217.4 155.12 1218.53 153.161 1219.99 151.523C1221.45 149.885 1223.2 148.624 1225.24 147.738C1227.27 146.853 1229.52 146.41 1231.98 146.41C1234.52 146.41 1236.77 146.842 1238.72 147.705C1240.67 148.546 1242.29 149.742 1243.6 151.291C1244.91 152.84 1245.89 154.7 1246.55 156.869C1247.22 159.016 1247.55 161.396 1247.55 164.008V167.693H1219.39V161.65H1238.92V160.986C1238.87 159.592 1238.61 158.319 1238.12 157.168C1237.63 155.995 1236.88 155.065 1235.86 154.379C1234.85 153.671 1233.53 153.316 1231.91 153.316C1230.61 153.316 1229.47 153.604 1228.49 154.18C1227.54 154.733 1226.74 155.53 1226.1 156.57C1225.48 157.589 1225.02 158.806 1224.71 160.223C1224.4 161.639 1224.24 163.211 1224.24 164.938V166.266C1224.24 167.771 1224.44 169.165 1224.84 170.449C1225.26 171.733 1225.87 172.851 1226.67 173.803C1227.49 174.732 1228.46 175.463 1229.59 175.994C1230.74 176.503 1232.04 176.758 1233.51 176.758C1235.34 176.758 1237 176.404 1238.49 175.695C1239.99 174.965 1241.3 173.891 1242.4 172.475L1246.82 177.057C1246.07 178.163 1245.05 179.226 1243.77 180.244C1242.5 181.262 1240.98 182.092 1239.18 182.734C1237.39 183.354 1235.32 183.664 1232.97 183.664ZM1288.03 167.793H1276.64L1276.57 161.85H1285.93C1287.33 161.85 1288.47 161.706 1289.35 161.418C1290.24 161.13 1290.89 160.699 1291.31 160.123C1291.76 159.548 1291.98 158.85 1291.98 158.031C1291.98 157.323 1291.84 156.714 1291.58 156.205C1291.31 155.674 1290.91 155.242 1290.38 154.91C1289.87 154.578 1289.22 154.335 1288.42 154.18C1287.65 154.003 1286.74 153.914 1285.7 153.914H1279.76V183H1270.96V147.074H1285.7C1288.03 147.074 1290.12 147.285 1291.98 147.705C1293.84 148.104 1295.42 148.712 1296.72 149.531C1298.03 150.35 1299.03 151.391 1299.71 152.652C1300.42 153.892 1300.78 155.353 1300.78 157.035C1300.78 158.142 1300.53 159.182 1300.04 160.156C1299.56 161.13 1298.84 161.993 1297.89 162.746C1296.93 163.499 1295.76 164.118 1294.37 164.605C1292.97 165.07 1291.38 165.358 1289.59 165.469L1288.03 167.793ZM1288.03 183H1274.28L1277.53 176.16H1288.03C1289.31 176.16 1290.37 176.005 1291.21 175.695C1292.05 175.363 1292.67 174.887 1293.07 174.268C1293.49 173.648 1293.7 172.895 1293.7 172.01C1293.7 171.146 1293.5 170.405 1293.11 169.785C1292.73 169.143 1292.12 168.656 1291.28 168.324C1290.46 167.97 1289.38 167.793 1288.03 167.793H1278.96L1279.03 161.85H1289.55L1291.88 164.207C1294.27 164.362 1296.25 164.849 1297.82 165.668C1299.39 166.465 1300.57 167.483 1301.34 168.723C1302.11 169.94 1302.5 171.279 1302.5 172.74C1302.5 174.445 1302.18 175.939 1301.54 177.223C1300.9 178.507 1299.96 179.58 1298.72 180.443C1297.48 181.285 1295.96 181.926 1294.17 182.369C1292.38 182.79 1290.33 183 1288.03 183ZM1349.92 147.074V154.014H1332.35V147.074H1349.92ZM1334.68 147.074V183H1325.88V147.074H1334.68ZM1356.56 147.074V183H1347.72V147.074H1356.56ZM1373.29 153.98V196.812H1364.49V147.074H1372.63L1373.29 153.98ZM1396.37 164.672V165.369C1396.37 167.981 1396.06 170.405 1395.44 172.641C1394.84 174.854 1393.95 176.791 1392.78 178.451C1391.61 180.089 1390.15 181.373 1388.4 182.303C1386.67 183.21 1384.68 183.664 1382.42 183.664C1380.21 183.664 1378.28 183.243 1376.64 182.402C1375.01 181.539 1373.62 180.322 1372.49 178.75C1371.37 177.178 1370.46 175.352 1369.77 173.271C1369.11 171.169 1368.61 168.878 1368.28 166.398V164.174C1368.61 161.54 1369.11 159.149 1369.77 157.002C1370.46 154.833 1371.37 152.962 1372.49 151.391C1373.62 149.797 1375 148.568 1376.61 147.705C1378.25 146.842 1380.16 146.41 1382.36 146.41C1384.64 146.41 1386.64 146.842 1388.37 147.705C1390.11 148.568 1391.59 149.808 1392.78 151.424C1393.98 153.04 1394.87 154.965 1395.47 157.201C1396.07 159.437 1396.37 161.927 1396.37 164.672ZM1387.57 165.369V164.672C1387.57 163.078 1387.42 161.606 1387.14 160.256C1386.85 158.883 1386.41 157.688 1385.81 156.67C1385.21 155.63 1384.44 154.822 1383.48 154.246C1382.53 153.671 1381.38 153.383 1380.03 153.383C1378.68 153.383 1377.52 153.604 1376.54 154.047C1375.57 154.49 1374.77 155.12 1374.15 155.939C1373.53 156.758 1373.05 157.732 1372.69 158.861C1372.36 159.968 1372.14 161.197 1372.03 162.547V168.059C1372.23 169.697 1372.62 171.169 1373.19 172.475C1373.77 173.781 1374.61 174.821 1375.71 175.596C1376.84 176.37 1378.3 176.758 1380.1 176.758C1381.45 176.758 1382.6 176.459 1383.55 175.861C1384.5 175.264 1385.28 174.445 1385.88 173.404C1386.47 172.342 1386.9 171.124 1387.17 169.752C1387.44 168.38 1387.57 166.919 1387.57 165.369ZM1411.64 170.482L1424.72 147.074H1433.52V183H1424.72V159.559L1411.64 183H1402.84V147.074H1411.64V170.482ZM1465.63 147.074V154.014H1448.03V147.074H1465.63ZM1472.24 147.074V183H1463.47V147.074H1472.24ZM1445.84 147.074H1454.51L1453.54 165.004C1453.39 167.638 1453.11 169.951 1452.71 171.943C1452.31 173.913 1451.78 175.607 1451.12 177.023C1450.46 178.418 1449.65 179.558 1448.7 180.443C1447.74 181.329 1446.64 181.982 1445.38 182.402C1444.14 182.801 1442.74 183 1441.19 183H1438.5L1438.4 175.928L1439.66 175.828C1440.44 175.762 1441.1 175.551 1441.66 175.197C1442.23 174.843 1442.72 174.334 1443.12 173.67C1443.54 173.006 1443.88 172.154 1444.15 171.113C1444.43 170.051 1444.66 168.811 1444.81 167.395C1444.99 165.956 1445.11 164.296 1445.18 162.414L1445.84 147.074ZM1478.71 165.402V164.705C1478.71 162.071 1479.09 159.647 1479.84 157.434C1480.59 155.198 1481.69 153.261 1483.13 151.623C1484.57 149.985 1486.33 148.712 1488.41 147.805C1490.49 146.875 1492.86 146.41 1495.51 146.41C1498.21 146.41 1500.6 146.875 1502.68 147.805C1504.79 148.712 1506.56 149.985 1508 151.623C1509.43 153.261 1510.53 155.198 1511.28 157.434C1512.04 159.647 1512.41 162.071 1512.41 164.705V165.402C1512.41 168.014 1512.04 170.438 1511.28 172.674C1510.53 174.887 1509.43 176.824 1508 178.484C1506.56 180.122 1504.8 181.395 1502.72 182.303C1500.64 183.21 1498.26 183.664 1495.58 183.664C1492.92 183.664 1490.54 183.21 1488.44 182.303C1486.34 181.395 1484.57 180.122 1483.13 178.484C1481.69 176.824 1480.59 174.887 1479.84 172.674C1479.09 170.438 1478.71 168.014 1478.71 165.402ZM1487.48 164.705V165.402C1487.48 166.974 1487.63 168.446 1487.94 169.818C1488.25 171.191 1488.73 172.397 1489.37 173.438C1490.01 174.478 1490.84 175.297 1491.86 175.895C1492.9 176.47 1494.14 176.758 1495.58 176.758C1496.99 176.758 1498.21 176.47 1499.23 175.895C1500.25 175.297 1501.08 174.478 1501.72 173.438C1502.38 172.397 1502.87 171.191 1503.18 169.818C1503.49 168.446 1503.65 166.974 1503.65 165.402V164.705C1503.65 163.156 1503.49 161.706 1503.18 160.355C1502.87 158.983 1502.38 157.777 1501.72 156.736C1501.08 155.674 1500.24 154.844 1499.2 154.246C1498.18 153.626 1496.95 153.316 1495.51 153.316C1494.1 153.316 1492.88 153.626 1491.86 154.246C1490.84 154.844 1490.01 155.674 1489.37 156.736C1488.73 157.777 1488.25 158.983 1487.94 160.355C1487.63 161.706 1487.48 163.156 1487.48 164.705ZM1530.31 168.988L1515.7 147.074H1526.52L1534.53 160.92H1541.46L1540.37 168.988H1530.31ZM1534.69 167.594L1525.99 183H1515.33L1527.79 163.012L1534.69 167.594ZM1546.98 147.074V183H1538.21V147.074H1546.98ZM1569.59 147.074L1554.95 168.988H1544.88L1543.79 160.92H1550.73L1558.73 147.074H1569.59ZM1559.26 183L1550.56 167.594L1557.7 163.012L1570.12 183H1559.26ZM1590.44 183.664C1587.72 183.664 1585.27 183.221 1583.1 182.336C1580.93 181.451 1579.08 180.222 1577.56 178.65C1576.05 177.057 1574.89 175.208 1574.07 173.105C1573.27 170.98 1572.88 168.701 1572.88 166.266V164.938C1572.88 162.171 1573.27 159.658 1574.07 157.4C1574.87 155.12 1576 153.161 1577.46 151.523C1578.92 149.885 1580.67 148.624 1582.7 147.738C1584.74 146.853 1586.99 146.41 1589.44 146.41C1591.99 146.41 1594.24 146.842 1596.18 147.705C1598.13 148.546 1599.76 149.742 1601.06 151.291C1602.37 152.84 1603.36 154.7 1604.02 156.869C1604.68 159.016 1605.02 161.396 1605.02 164.008V167.693H1576.86V161.65H1596.38V160.986C1596.34 159.592 1596.07 158.319 1595.59 157.168C1595.1 155.995 1594.35 155.065 1593.33 154.379C1592.31 153.671 1590.99 153.316 1589.38 153.316C1588.07 153.316 1586.93 153.604 1585.96 154.18C1585.01 154.733 1584.21 155.53 1583.57 156.57C1582.95 157.589 1582.48 158.806 1582.17 160.223C1581.86 161.639 1581.71 163.211 1581.71 164.938V166.266C1581.71 167.771 1581.91 169.165 1582.3 170.449C1582.73 171.733 1583.33 172.851 1584.13 173.803C1584.95 174.732 1585.92 175.463 1587.05 175.994C1588.2 176.503 1589.51 176.758 1590.97 176.758C1592.81 176.758 1594.47 176.404 1595.95 175.695C1597.46 174.965 1598.76 173.891 1599.87 172.475L1604.29 177.057C1603.53 178.163 1602.51 179.226 1601.23 180.244C1599.97 181.262 1598.44 182.092 1596.65 182.734C1594.86 183.354 1592.79 183.664 1590.44 183.664ZM1635.43 161.816V168.689H1617V161.816H1635.43ZM1619.76 147.074V183H1610.96V147.074H1619.76ZM1641.57 147.074V183H1632.74V147.074H1641.57ZM1658.41 170.482L1671.49 147.074H1680.29V183H1671.49V159.559L1658.41 183H1649.61V147.074H1658.41V170.482ZM1704.39 183.664C1701.67 183.664 1699.22 183.221 1697.05 182.336C1694.89 181.451 1693.04 180.222 1691.51 178.65C1690 177.057 1688.84 175.208 1688.02 173.105C1687.23 170.98 1686.83 168.701 1686.83 166.266V164.938C1686.83 162.171 1687.23 159.658 1688.02 157.4C1688.82 155.12 1689.95 153.161 1691.41 151.523C1692.87 149.885 1694.62 148.624 1696.66 147.738C1698.69 146.853 1700.94 146.41 1703.4 146.41C1705.94 146.41 1708.19 146.842 1710.14 147.705C1712.08 148.546 1713.71 149.742 1715.02 151.291C1716.32 152.84 1717.31 154.7 1717.97 156.869C1718.64 159.016 1718.97 161.396 1718.97 164.008V167.693H1690.81V161.65H1710.34V160.986C1710.29 159.592 1710.03 158.319 1709.54 157.168C1709.05 155.995 1708.3 155.065 1707.28 154.379C1706.26 153.671 1704.95 153.316 1703.33 153.316C1702.02 153.316 1700.88 153.604 1699.91 154.18C1698.96 154.733 1698.16 155.53 1697.52 156.57C1696.9 157.589 1696.43 158.806 1696.12 160.223C1695.82 161.639 1695.66 163.211 1695.66 164.938V166.266C1695.66 167.771 1695.86 169.165 1696.26 170.449C1696.68 171.733 1697.29 172.851 1698.08 173.803C1698.9 174.732 1699.88 175.463 1701.01 175.994C1702.16 176.503 1703.46 176.758 1704.92 176.758C1706.76 176.758 1708.42 176.404 1709.9 175.695C1711.41 174.965 1712.72 173.891 1713.82 172.475L1718.24 177.057C1717.49 178.163 1716.47 179.226 1715.18 180.244C1713.92 181.262 1712.39 182.092 1710.6 182.734C1708.81 183.354 1706.74 183.664 1704.39 183.664ZM1734.84 134.656L1733.88 168.49H1726.47L1725.51 134.656H1734.84ZM1725.24 178.916C1725.24 177.61 1725.69 176.514 1726.57 175.629C1727.48 174.721 1728.7 174.268 1730.22 174.268C1731.75 174.268 1732.96 174.721 1733.84 175.629C1734.75 176.514 1735.21 177.61 1735.21 178.916C1735.21 180.2 1734.75 181.285 1733.84 182.17C1732.96 183.055 1731.75 183.498 1730.22 183.498C1728.7 183.498 1727.48 183.055 1726.57 182.17C1725.69 181.285 1725.24 180.2 1725.24 178.916Z" fill="white"/>
<path d="M1933.98 148.781C1930.85 148.781 1928.03 148.273 1925.5 147.258C1923 146.216 1920.86 144.771 1919.09 142.922C1917.35 141.073 1916.01 138.898 1915.07 136.398C1914.13 133.898 1913.66 131.203 1913.66 128.312V126.75C1913.66 123.443 1914.15 120.448 1915.11 117.766C1916.07 115.083 1917.41 112.792 1919.13 110.891C1920.85 108.964 1922.88 107.492 1925.23 106.477C1927.57 105.461 1930.11 104.953 1932.84 104.953C1935.86 104.953 1938.51 105.461 1940.77 106.477C1943.04 107.492 1944.91 108.924 1946.4 110.773C1947.91 112.596 1949.03 114.771 1949.76 117.297C1950.51 119.823 1950.89 122.609 1950.89 125.656V129.68H1918.23V122.922H1941.59V122.18C1941.54 120.487 1941.2 118.898 1940.58 117.414C1939.98 115.93 1939.05 114.732 1937.8 113.82C1936.55 112.909 1934.89 112.453 1932.8 112.453C1931.24 112.453 1929.85 112.792 1928.62 113.469C1927.43 114.12 1926.42 115.07 1925.62 116.32C1924.81 117.57 1924.18 119.081 1923.74 120.852C1923.33 122.596 1923.12 124.562 1923.12 126.75V128.312C1923.12 130.161 1923.36 131.88 1923.86 133.469C1924.38 135.031 1925.14 136.398 1926.12 137.57C1927.11 138.742 1928.31 139.667 1929.72 140.344C1931.12 140.995 1932.73 141.32 1934.52 141.32C1936.79 141.32 1938.81 140.865 1940.58 139.953C1942.35 139.042 1943.89 137.753 1945.19 136.086L1950.15 140.891C1949.24 142.219 1948.05 143.495 1946.59 144.719C1945.14 145.917 1943.35 146.893 1941.24 147.648C1939.16 148.404 1936.74 148.781 1933.98 148.781ZM1967.69 113.781V148H1958.27V105.734H1967.26L1967.69 113.781ZM1980.62 105.461L1980.54 114.211C1979.97 114.107 1979.34 114.029 1978.66 113.977C1978.01 113.924 1977.36 113.898 1976.71 113.898C1975.1 113.898 1973.68 114.133 1972.45 114.602C1971.23 115.044 1970.2 115.695 1969.37 116.555C1968.56 117.388 1967.93 118.404 1967.49 119.602C1967.05 120.799 1966.79 122.141 1966.71 123.625L1964.56 123.781C1964.56 121.125 1964.82 118.664 1965.34 116.398C1965.86 114.133 1966.65 112.141 1967.69 110.422C1968.76 108.703 1970.08 107.362 1971.67 106.398C1973.29 105.435 1975.15 104.953 1977.26 104.953C1977.83 104.953 1978.44 105.005 1979.09 105.109C1979.77 105.214 1980.28 105.331 1980.62 105.461ZM2025.15 127.727V135.227H1984.13L1983.82 129.562L2008.35 91.125H2015.89L2007.73 105.109L1993.62 127.727H2025.15ZM2018.04 91.125V148H2008.62V91.125H2018.04ZM2068.51 114.797V124.094C2068.51 128.547 2068.07 132.349 2067.18 135.5C2066.32 138.625 2065.07 141.164 2063.43 143.117C2061.79 145.07 2059.82 146.503 2057.53 147.414C2055.27 148.326 2052.73 148.781 2049.91 148.781C2047.67 148.781 2045.59 148.495 2043.66 147.922C2041.76 147.349 2040.04 146.451 2038.51 145.227C2036.97 144.003 2035.66 142.427 2034.56 140.5C2033.49 138.547 2032.66 136.216 2032.06 133.508C2031.49 130.799 2031.2 127.661 2031.2 124.094V114.797C2031.2 110.318 2031.65 106.542 2032.53 103.469C2033.42 100.37 2034.68 97.8568 2036.32 95.9297C2037.96 93.9766 2039.91 92.5573 2042.18 91.6719C2044.47 90.7865 2047.02 90.3438 2049.84 90.3438C2052.1 90.3438 2054.18 90.6302 2056.09 91.2031C2058.01 91.75 2059.73 92.6224 2061.24 93.8203C2062.78 95.0182 2064.08 96.5807 2065.15 98.5078C2066.24 100.409 2067.08 102.714 2067.65 105.422C2068.22 108.104 2068.51 111.229 2068.51 114.797ZM2059.09 125.422V113.391C2059.09 111.125 2058.96 109.133 2058.7 107.414C2058.44 105.669 2058.05 104.198 2057.53 103C2057.04 101.776 2056.41 100.786 2055.66 100.031C2054.9 99.25 2054.04 98.6901 2053.08 98.3516C2052.11 97.987 2051.03 97.8047 2049.84 97.8047C2048.38 97.8047 2047.08 98.0911 2045.93 98.6641C2044.78 99.2109 2043.82 100.096 2043.04 101.32C2042.26 102.544 2041.66 104.159 2041.24 106.164C2040.85 108.143 2040.66 110.552 2040.66 113.391V125.422C2040.66 127.714 2040.79 129.732 2041.05 131.477C2041.31 133.221 2041.7 134.719 2042.22 135.969C2042.74 137.193 2043.36 138.208 2044.09 139.016C2044.85 139.797 2045.71 140.37 2046.67 140.734C2047.66 141.099 2048.74 141.281 2049.91 141.281C2051.4 141.281 2052.71 140.995 2053.86 140.422C2055.01 139.849 2055.97 138.938 2056.75 137.688C2057.53 136.411 2058.12 134.758 2058.51 132.727C2058.9 130.695 2059.09 128.26 2059.09 125.422ZM2116.09 127.727V135.227H2075.07L2074.76 129.562L2099.29 91.125H2106.83L2098.66 105.109L2084.56 127.727H2116.09ZM2108.98 91.125V148H2099.56V91.125H2108.98ZM2123.31 143.312C2123.31 141.854 2123.81 140.63 2124.8 139.641C2125.79 138.625 2127.13 138.117 2128.82 138.117C2130.54 138.117 2131.88 138.625 2132.84 139.641C2133.83 140.63 2134.33 141.854 2134.33 143.312C2134.33 144.771 2133.83 145.995 2132.84 146.984C2131.88 147.974 2130.54 148.469 2128.82 148.469C2127.13 148.469 2125.79 147.974 2124.8 146.984C2123.81 145.995 2123.31 144.771 2123.31 143.312Z" fill="#7666C4"/>
<path fill-rule="evenodd" clip-rule="evenodd" d="M248.5 120C248.5 79.1298 215.37 46 174.5 46C133.63 46 100.5 79.1298 100.5 120C100.5 160.87 133.63 194 174.5 194C215.37 194 248.5 160.87 248.5 120ZM174.5 83C176.463 83 178.345 83.7796 179.733 85.1674C181.12 86.5552 181.9 88.4374 181.9 90.4V127.4C181.9 129.363 181.12 131.245 179.733 132.633C178.345 134.02 176.463 134.8 174.5 134.8C172.537 134.8 170.655 134.02 169.267 132.633C167.88 131.245 167.1 129.363 167.1 127.4V90.4C167.1 88.4374 167.88 86.5552 169.267 85.1674C170.655 83.7796 172.537 83 174.5 83ZM167.1 149.6C167.1 147.637 167.88 145.755 169.267 144.367C170.655 142.98 172.537 142.2 174.5 142.2H174.559C176.522 142.2 178.404 142.98 179.792 144.367C181.18 145.755 181.959 147.637 181.959 149.6C181.959 151.563 181.18 153.445 179.792 154.833C178.404 156.22 176.522 157 174.559 157H174.5C172.537 157 170.655 156.22 169.267 154.833C167.88 153.445 167.1 151.563 167.1 149.6Z" fill="#E6E6E6"/>
</svg>
