<svg width="2241" height="240" viewBox="0 0 2241 240" fill="none" xmlns="http://www.w3.org/2000/svg">
<rect x="0.5" width="2240" height="240" rx="30" fill="#131313"/>
<path d="M447.156 95.8281V103H421.457V95.8281H447.156ZM424.246 54.6562V103H415.115V54.6562H424.246ZM443.803 74.6113V81.6172H421.457V74.6113H443.803ZM447.057 54.6562V61.8613H421.457V54.6562H447.057ZM466.912 96.7578C468.152 96.7578 469.258 96.5143 470.232 96.0273C471.206 95.5404 471.981 94.8542 472.557 93.9688C473.154 93.0833 473.475 92.054 473.52 90.8809H481.787C481.743 93.3158 481.057 95.4961 479.729 97.4219C478.4 99.3477 476.63 100.875 474.416 102.004C472.225 103.111 469.768 103.664 467.045 103.664C464.278 103.664 461.865 103.199 459.807 102.27C457.748 101.34 456.033 100.045 454.66 98.3848C453.31 96.7246 452.292 94.7988 451.605 92.6074C450.941 90.416 450.609 88.0697 450.609 85.5684V84.5059C450.609 82.0046 450.941 79.6582 451.605 77.4668C452.292 75.2754 453.31 73.3496 454.66 71.6895C456.033 70.0293 457.748 68.7344 459.807 67.8047C461.865 66.875 464.267 66.4102 467.012 66.4102C469.911 66.4102 472.457 66.9746 474.648 68.1035C476.862 69.2324 478.589 70.8262 479.828 72.8848C481.09 74.9434 481.743 77.3672 481.787 80.1562H473.52C473.475 78.8724 473.188 77.7214 472.656 76.7031C472.125 75.6849 471.372 74.8659 470.398 74.2461C469.424 73.6263 468.24 73.3164 466.846 73.3164C465.363 73.3164 464.123 73.6263 463.127 74.2461C462.153 74.8659 461.389 75.7181 460.836 76.8027C460.305 77.8652 459.928 79.0605 459.707 80.3887C459.508 81.6947 459.408 83.0671 459.408 84.5059V85.5684C459.408 87.0293 459.508 88.4238 459.707 89.752C459.928 91.0801 460.305 92.2754 460.836 93.3379C461.389 94.3783 462.153 95.2083 463.127 95.8281C464.123 96.4479 465.385 96.7578 466.912 96.7578ZM511.77 67.0742V74.0137H494.172V67.0742H511.77ZM518.377 67.0742V103H509.611V67.0742H518.377ZM491.98 67.0742H500.646L499.684 85.0039C499.529 87.638 499.252 89.9512 498.854 91.9434C498.455 93.9134 497.924 95.6068 497.26 97.0234C496.596 98.418 495.788 99.5579 494.836 100.443C493.884 101.329 492.777 101.982 491.516 102.402C490.276 102.801 488.882 103 487.332 103H484.643L484.543 95.9277L485.805 95.8281C486.579 95.7617 487.243 95.5514 487.797 95.1973C488.372 94.8431 488.859 94.334 489.258 93.6699C489.678 93.0059 490.021 92.1536 490.287 91.1133C490.575 90.0508 490.796 88.8112 490.951 87.3945C491.128 85.9557 491.25 84.2956 491.316 82.4141L491.98 67.0742ZM535.277 90.4824L548.359 67.0742H557.158V103H548.359V79.5586L535.277 103H526.479V67.0742H535.277V90.4824ZM606.166 67.0742V74.0137H588.602V67.0742H606.166ZM590.926 67.0742V103H582.127V67.0742H590.926ZM612.807 67.0742V103H603.975V67.0742H612.807ZM629.541 73.9805V116.812H620.742V67.0742H628.877L629.541 73.9805ZM652.617 84.6719V85.3691C652.617 87.9811 652.307 90.4049 651.688 92.6406C651.09 94.8542 650.204 96.791 649.031 98.4512C647.858 100.089 646.397 101.373 644.648 102.303C642.922 103.21 640.93 103.664 638.672 103.664C636.458 103.664 634.533 103.243 632.895 102.402C631.257 101.539 629.873 100.322 628.744 98.75C627.615 97.1784 626.708 95.3522 626.021 93.2715C625.357 91.1686 624.859 88.8776 624.527 86.3984V84.1738C624.859 81.5397 625.357 79.1491 626.021 77.002C626.708 74.8327 627.615 72.9622 628.744 71.3906C629.873 69.7969 631.245 68.5684 632.861 67.7051C634.499 66.8418 636.414 66.4102 638.605 66.4102C640.885 66.4102 642.889 66.8418 644.615 67.7051C646.364 68.5684 647.836 69.8079 649.031 71.4238C650.227 73.0397 651.123 74.9655 651.721 77.2012C652.318 79.4368 652.617 81.9271 652.617 84.6719ZM643.818 85.3691V84.6719C643.818 83.0781 643.674 81.6061 643.387 80.2559C643.099 78.8835 642.656 77.6882 642.059 76.6699C641.461 75.6296 640.686 74.8216 639.734 74.2461C638.783 73.6706 637.632 73.3828 636.281 73.3828C634.931 73.3828 633.769 73.6042 632.795 74.0469C631.821 74.4896 631.024 75.1204 630.404 75.9395C629.785 76.7585 629.298 77.7324 628.943 78.8613C628.611 79.9681 628.39 81.1966 628.279 82.5469V88.0586C628.479 89.6966 628.866 91.1686 629.441 92.4746C630.017 93.7806 630.858 94.821 631.965 95.5957C633.094 96.3704 634.555 96.7578 636.348 96.7578C637.698 96.7578 638.849 96.459 639.801 95.8613C640.753 95.2637 641.527 94.4447 642.125 93.4043C642.723 92.3418 643.154 91.1243 643.42 89.752C643.686 88.3796 643.818 86.9186 643.818 85.3691ZM667.891 90.4824L680.973 67.0742H689.771V103H680.973V79.5586L667.891 103H659.092V67.0742H667.891V90.4824ZM721.879 67.0742V74.0137H704.281V67.0742H721.879ZM728.486 67.0742V103H719.721V67.0742H728.486ZM702.09 67.0742H710.756L709.793 85.0039C709.638 87.638 709.361 89.9512 708.963 91.9434C708.564 93.9134 708.033 95.6068 707.369 97.0234C706.705 98.418 705.897 99.5579 704.945 100.443C703.993 101.329 702.887 101.982 701.625 102.402C700.385 102.801 698.991 103 697.441 103H694.752L694.652 95.9277L695.914 95.8281C696.689 95.7617 697.353 95.5514 697.906 95.1973C698.482 94.8431 698.969 94.334 699.367 93.6699C699.788 93.0059 700.131 92.1536 700.396 91.1133C700.684 90.0508 700.906 88.8112 701.061 87.3945C701.238 85.9557 701.359 84.2956 701.426 82.4141L702.09 67.0742ZM734.961 85.4023V84.7051C734.961 82.071 735.337 79.6471 736.09 77.4336C736.842 75.1979 737.938 73.2611 739.377 71.623C740.816 69.985 742.576 68.7122 744.656 67.8047C746.737 66.875 749.105 66.4102 751.762 66.4102C754.462 66.4102 756.853 66.875 758.934 67.8047C761.036 68.7122 762.807 69.985 764.246 71.623C765.685 73.2611 766.781 75.1979 767.533 77.4336C768.286 79.6471 768.662 82.071 768.662 84.7051V85.4023C768.662 88.0143 768.286 90.4382 767.533 92.6738C766.781 94.8874 765.685 96.8242 764.246 98.4844C762.807 100.122 761.048 101.395 758.967 102.303C756.886 103.21 754.507 103.664 751.828 103.664C749.172 103.664 746.792 103.21 744.689 102.303C742.587 101.395 740.816 100.122 739.377 98.4844C737.938 96.8242 736.842 94.8874 736.09 92.6738C735.337 90.4382 734.961 88.0143 734.961 85.4023ZM743.727 84.7051V85.4023C743.727 86.974 743.882 88.446 744.191 89.8184C744.501 91.1908 744.977 92.3971 745.619 93.4375C746.261 94.4779 747.091 95.2969 748.109 95.8945C749.15 96.4701 750.389 96.7578 751.828 96.7578C753.245 96.7578 754.462 96.4701 755.48 95.8945C756.499 95.2969 757.329 94.4779 757.971 93.4375C758.635 92.3971 759.122 91.1908 759.432 89.8184C759.742 88.446 759.896 86.974 759.896 85.4023V84.7051C759.896 83.1556 759.742 81.7057 759.432 80.3555C759.122 78.9831 758.635 77.7767 757.971 76.7363C757.329 75.6738 756.488 74.8438 755.447 74.2461C754.429 73.6263 753.201 73.3164 751.762 73.3164C750.345 73.3164 749.128 73.6263 748.109 74.2461C747.091 74.8438 746.261 75.6738 745.619 76.7363C744.977 77.7767 744.501 78.9831 744.191 80.3555C743.882 81.7057 743.727 83.1556 743.727 84.7051ZM786.559 88.9883L771.949 67.0742H782.773L790.775 80.9199H797.715L796.619 88.9883H786.559ZM790.941 87.5938L782.242 103H771.584L784.035 83.0117L790.941 87.5938ZM803.227 67.0742V103H794.461V67.0742H803.227ZM825.838 67.0742L811.195 88.9883H801.135L800.039 80.9199H806.979L814.98 67.0742H825.838ZM815.512 103L806.812 87.5938L813.951 83.0117L826.369 103H815.512ZM846.689 103.664C843.967 103.664 841.521 103.221 839.352 102.336C837.182 101.451 835.334 100.222 833.807 98.6504C832.301 97.0566 831.139 95.2083 830.32 93.1055C829.523 90.9805 829.125 88.7005 829.125 86.2656V84.9375C829.125 82.1706 829.523 79.6582 830.32 77.4004C831.117 75.1204 832.246 73.1615 833.707 71.5234C835.168 69.8854 836.917 68.6237 838.953 67.7383C840.99 66.8529 843.236 66.4102 845.693 66.4102C848.239 66.4102 850.486 66.8418 852.434 67.7051C854.382 68.5462 856.008 69.7415 857.314 71.291C858.62 72.8405 859.605 74.6999 860.27 76.8691C860.934 79.0163 861.266 81.3958 861.266 84.0078V87.6934H833.109V81.6504H852.633V80.9863C852.589 79.5918 852.323 78.319 851.836 77.168C851.349 75.9948 850.596 75.0651 849.578 74.3789C848.56 73.6706 847.243 73.3164 845.627 73.3164C844.321 73.3164 843.181 73.6042 842.207 74.1797C841.255 74.7331 840.458 75.5299 839.816 76.5703C839.197 77.5885 838.732 78.806 838.422 80.2227C838.112 81.6393 837.957 83.2109 837.957 84.9375V86.2656C837.957 87.7708 838.156 89.1654 838.555 90.4492C838.975 91.7331 839.584 92.8509 840.381 93.8027C841.2 94.7324 842.174 95.4629 843.303 95.9941C844.454 96.5033 845.76 96.7578 847.221 96.7578C849.058 96.7578 850.718 96.4036 852.201 95.6953C853.706 94.9648 855.012 93.8913 856.119 92.4746L860.535 97.0566C859.783 98.1634 858.764 99.2259 857.48 100.244C856.219 101.262 854.691 102.092 852.898 102.734C851.105 103.354 849.036 103.664 846.689 103.664ZM891.68 81.8164V88.6895H873.252V81.8164H891.68ZM876.008 67.0742V103H867.209V67.0742H876.008ZM897.822 67.0742V103H888.99V67.0742H897.822ZM914.656 90.4824L927.738 67.0742H936.537V103H927.738V79.5586L914.656 103H905.857V67.0742H914.656V90.4824ZM960.643 103.664C957.92 103.664 955.474 103.221 953.305 102.336C951.135 101.451 949.287 100.222 947.76 98.6504C946.255 97.0566 945.092 95.2083 944.273 93.1055C943.477 90.9805 943.078 88.7005 943.078 86.2656V84.9375C943.078 82.1706 943.477 79.6582 944.273 77.4004C945.07 75.1204 946.199 73.1615 947.66 71.5234C949.121 69.8854 950.87 68.6237 952.906 67.7383C954.943 66.8529 957.189 66.4102 959.646 66.4102C962.192 66.4102 964.439 66.8418 966.387 67.7051C968.335 68.5462 969.962 69.7415 971.268 71.291C972.574 72.8405 973.559 74.6999 974.223 76.8691C974.887 79.0163 975.219 81.3958 975.219 84.0078V87.6934H947.062V81.6504H966.586V80.9863C966.542 79.5918 966.276 78.319 965.789 77.168C965.302 75.9948 964.549 75.0651 963.531 74.3789C962.513 73.6706 961.196 73.3164 959.58 73.3164C958.274 73.3164 957.134 73.6042 956.16 74.1797C955.208 74.7331 954.411 75.5299 953.77 76.5703C953.15 77.5885 952.685 78.806 952.375 80.2227C952.065 81.6393 951.91 83.2109 951.91 84.9375V86.2656C951.91 87.7708 952.109 89.1654 952.508 90.4492C952.928 91.7331 953.537 92.8509 954.334 93.8027C955.153 94.7324 956.127 95.4629 957.256 95.9941C958.407 96.5033 959.713 96.7578 961.174 96.7578C963.011 96.7578 964.671 96.4036 966.154 95.6953C967.66 94.9648 968.965 93.8913 970.072 92.4746L974.488 97.0566C973.736 98.1634 972.717 99.2259 971.434 100.244C970.172 101.262 968.645 102.092 966.852 102.734C965.059 103.354 962.989 103.664 960.643 103.664ZM1022.57 81.8164V88.6895H1004.14V81.8164H1022.57ZM1006.89 67.0742V103H998.096V67.0742H1006.89ZM1028.71 67.0742V103H1019.88V67.0742H1028.71ZM1052.81 103.664C1050.09 103.664 1047.65 103.221 1045.48 102.336C1043.31 101.451 1041.46 100.222 1039.93 98.6504C1038.43 97.0566 1037.26 95.2083 1036.45 93.1055C1035.65 90.9805 1035.25 88.7005 1035.25 86.2656V84.9375C1035.25 82.1706 1035.65 79.6582 1036.45 77.4004C1037.24 75.1204 1038.37 73.1615 1039.83 71.5234C1041.29 69.8854 1043.04 68.6237 1045.08 67.7383C1047.11 66.8529 1049.36 66.4102 1051.82 66.4102C1054.36 66.4102 1056.61 66.8418 1058.56 67.7051C1060.51 68.5462 1062.13 69.7415 1063.44 71.291C1064.75 72.8405 1065.73 74.6999 1066.39 76.8691C1067.06 79.0163 1067.39 81.3958 1067.39 84.0078V87.6934H1039.23V81.6504H1058.76V80.9863C1058.71 79.5918 1058.45 78.319 1057.96 77.168C1057.47 75.9948 1056.72 75.0651 1055.7 74.3789C1054.68 73.6706 1053.37 73.3164 1051.75 73.3164C1050.45 73.3164 1049.31 73.6042 1048.33 74.1797C1047.38 74.7331 1046.58 75.5299 1045.94 76.5703C1045.32 77.5885 1044.86 78.806 1044.55 80.2227C1044.24 81.6393 1044.08 83.2109 1044.08 84.9375V86.2656C1044.08 87.7708 1044.28 89.1654 1044.68 90.4492C1045.1 91.7331 1045.71 92.8509 1046.51 93.8027C1047.32 94.7324 1048.3 95.4629 1049.43 95.9941C1050.58 96.5033 1051.88 96.7578 1053.35 96.7578C1055.18 96.7578 1056.84 96.4036 1058.33 95.6953C1059.83 94.9648 1061.14 93.8913 1062.24 92.4746L1066.66 97.0566C1065.91 98.1634 1064.89 99.2259 1063.61 100.244C1062.34 101.262 1060.82 102.092 1059.02 102.734C1057.23 103.354 1055.16 103.664 1052.81 103.664ZM1104.94 96.7578C1106.18 96.7578 1107.29 96.5143 1108.26 96.0273C1109.24 95.5404 1110.01 94.8542 1110.59 93.9688C1111.19 93.0833 1111.51 92.054 1111.55 90.8809H1119.82C1119.77 93.3158 1119.09 95.4961 1117.76 97.4219C1116.43 99.3477 1114.66 100.875 1112.45 102.004C1110.26 103.111 1107.8 103.664 1105.08 103.664C1102.31 103.664 1099.9 103.199 1097.84 102.27C1095.78 101.34 1094.06 100.045 1092.69 98.3848C1091.34 96.7246 1090.32 94.7988 1089.64 92.6074C1088.97 90.416 1088.64 88.0697 1088.64 85.5684V84.5059C1088.64 82.0046 1088.97 79.6582 1089.64 77.4668C1090.32 75.2754 1091.34 73.3496 1092.69 71.6895C1094.06 70.0293 1095.78 68.7344 1097.84 67.8047C1099.9 66.875 1102.3 66.4102 1105.04 66.4102C1107.94 66.4102 1110.49 66.9746 1112.68 68.1035C1114.89 69.2324 1116.62 70.8262 1117.86 72.8848C1119.12 74.9434 1119.77 77.3672 1119.82 80.1562H1111.55C1111.51 78.8724 1111.22 77.7214 1110.69 76.7031C1110.16 75.6849 1109.4 74.8659 1108.43 74.2461C1107.46 73.6263 1106.27 73.3164 1104.88 73.3164C1103.39 73.3164 1102.15 73.6263 1101.16 74.2461C1100.18 74.8659 1099.42 75.7181 1098.87 76.8027C1098.34 77.8652 1097.96 79.0605 1097.74 80.3887C1097.54 81.6947 1097.44 83.0671 1097.44 84.5059V85.5684C1097.44 87.0293 1097.54 88.4238 1097.74 89.752C1097.96 91.0801 1098.34 92.2754 1098.87 93.3379C1099.42 94.3783 1100.18 95.2083 1101.16 95.8281C1102.15 96.4479 1103.42 96.7578 1104.94 96.7578ZM1143.33 87.793H1131.94L1131.87 81.8496H1141.23C1142.63 81.8496 1143.77 81.7057 1144.65 81.418C1145.54 81.1302 1146.19 80.6986 1146.61 80.123C1147.06 79.5475 1147.28 78.8503 1147.28 78.0312C1147.28 77.3229 1147.14 76.7142 1146.88 76.2051C1146.61 75.6738 1146.21 75.2422 1145.68 74.9102C1145.17 74.5781 1144.52 74.3346 1143.72 74.1797C1142.95 74.0026 1142.04 73.9141 1141 73.9141H1135.06V103H1126.26V67.0742H1141C1143.33 67.0742 1145.42 67.2845 1147.28 67.7051C1149.14 68.1035 1150.72 68.7122 1152.03 69.5312C1153.33 70.3503 1154.33 71.3906 1155.01 72.6523C1155.72 73.8919 1156.08 75.3529 1156.08 77.0352C1156.08 78.1419 1155.83 79.1823 1155.35 80.1562C1154.86 81.1302 1154.14 81.9935 1153.19 82.7461C1152.24 83.4987 1151.06 84.1185 1149.67 84.6055C1148.27 85.0703 1146.68 85.3581 1144.89 85.4688L1143.33 87.793ZM1143.33 103H1129.58L1132.83 96.1602H1143.33C1144.61 96.1602 1145.67 96.0052 1146.51 95.6953C1147.35 95.3633 1147.97 94.8874 1148.37 94.2676C1148.79 93.6478 1149 92.8952 1149 92.0098C1149 91.1465 1148.8 90.4049 1148.41 89.7852C1148.03 89.1432 1147.42 88.6562 1146.58 88.3242C1145.76 87.9701 1144.68 87.793 1143.33 87.793H1134.26L1134.33 81.8496H1144.85L1147.18 84.207C1149.57 84.362 1151.55 84.849 1153.12 85.668C1154.69 86.4648 1155.87 87.4831 1156.64 88.7227C1157.42 89.9401 1157.8 91.2793 1157.8 92.7402C1157.8 94.4447 1157.48 95.9388 1156.84 97.2227C1156.2 98.5065 1155.26 99.5801 1154.02 100.443C1152.78 101.285 1151.26 101.926 1149.47 102.369C1147.68 102.79 1145.63 103 1143.33 103ZM1180.31 103.664C1177.59 103.664 1175.15 103.221 1172.98 102.336C1170.81 101.451 1168.96 100.222 1167.43 98.6504C1165.93 97.0566 1164.76 95.2083 1163.95 93.1055C1163.15 90.9805 1162.75 88.7005 1162.75 86.2656V84.9375C1162.75 82.1706 1163.15 79.6582 1163.95 77.4004C1164.74 75.1204 1165.87 73.1615 1167.33 71.5234C1168.79 69.8854 1170.54 68.6237 1172.58 67.7383C1174.61 66.8529 1176.86 66.4102 1179.32 66.4102C1181.86 66.4102 1184.11 66.8418 1186.06 67.7051C1188.01 68.5462 1189.63 69.7415 1190.94 71.291C1192.25 72.8405 1193.23 74.6999 1193.89 76.8691C1194.56 79.0163 1194.89 81.3958 1194.89 84.0078V87.6934H1166.73V81.6504H1186.26V80.9863C1186.21 79.5918 1185.95 78.319 1185.46 77.168C1184.97 75.9948 1184.22 75.0651 1183.2 74.3789C1182.18 73.6706 1180.87 73.3164 1179.25 73.3164C1177.95 73.3164 1176.81 73.6042 1175.83 74.1797C1174.88 74.7331 1174.08 75.5299 1173.44 76.5703C1172.82 77.5885 1172.36 78.806 1172.05 80.2227C1171.74 81.6393 1171.58 83.2109 1171.58 84.9375V86.2656C1171.58 87.7708 1171.78 89.1654 1172.18 90.4492C1172.6 91.7331 1173.21 92.8509 1174.01 93.8027C1174.82 94.7324 1175.8 95.4629 1176.93 95.9941C1178.08 96.5033 1179.38 96.7578 1180.85 96.7578C1182.68 96.7578 1184.34 96.4036 1185.83 95.6953C1187.33 94.9648 1188.64 93.8913 1189.74 92.4746L1194.16 97.0566C1193.41 98.1634 1192.39 99.2259 1191.11 100.244C1189.84 101.262 1188.32 102.092 1186.52 102.734C1184.73 103.354 1182.66 103.664 1180.31 103.664ZM1209.53 73.9805V116.812H1200.73V67.0742H1208.87L1209.53 73.9805ZM1232.61 84.6719V85.3691C1232.61 87.9811 1232.3 90.4049 1231.68 92.6406C1231.08 94.8542 1230.2 96.791 1229.02 98.4512C1227.85 100.089 1226.39 101.373 1224.64 102.303C1222.91 103.21 1220.92 103.664 1218.66 103.664C1216.45 103.664 1214.52 103.243 1212.89 102.402C1211.25 101.539 1209.87 100.322 1208.74 98.75C1207.61 97.1784 1206.7 95.3522 1206.01 93.2715C1205.35 91.1686 1204.85 88.8776 1204.52 86.3984V84.1738C1204.85 81.5397 1205.35 79.1491 1206.01 77.002C1206.7 74.8327 1207.61 72.9622 1208.74 71.3906C1209.87 69.7969 1211.24 68.5684 1212.85 67.7051C1214.49 66.8418 1216.41 66.4102 1218.6 66.4102C1220.88 66.4102 1222.88 66.8418 1224.61 67.7051C1226.36 68.5684 1227.83 69.8079 1229.02 71.4238C1230.22 73.0397 1231.12 74.9655 1231.71 77.2012C1232.31 79.4368 1232.61 81.9271 1232.61 84.6719ZM1223.81 85.3691V84.6719C1223.81 83.0781 1223.67 81.6061 1223.38 80.2559C1223.09 78.8835 1222.65 77.6882 1222.05 76.6699C1221.45 75.6296 1220.68 74.8216 1219.73 74.2461C1218.77 73.6706 1217.62 73.3828 1216.27 73.3828C1214.92 73.3828 1213.76 73.6042 1212.79 74.0469C1211.81 74.4896 1211.02 75.1204 1210.4 75.9395C1209.78 76.7585 1209.29 77.7324 1208.94 78.8613C1208.6 79.9681 1208.38 81.1966 1208.27 82.5469V88.0586C1208.47 89.6966 1208.86 91.1686 1209.43 92.4746C1210.01 93.7806 1210.85 94.821 1211.96 95.5957C1213.09 96.3704 1214.55 96.7578 1216.34 96.7578C1217.69 96.7578 1218.84 96.459 1219.79 95.8613C1220.74 95.2637 1221.52 94.4447 1222.12 93.4043C1222.71 92.3418 1223.15 91.1243 1223.41 89.752C1223.68 88.3796 1223.81 86.9186 1223.81 85.3691ZM1263.55 81.8164V88.6895H1245.13V81.8164H1263.55ZM1247.88 67.0742V103H1239.08V67.0742H1247.88ZM1269.7 67.0742V103H1260.87V67.0742H1269.7ZM1288.19 99.0156L1297.82 67.0742H1307.22L1292.81 108.445C1292.47 109.331 1292.04 110.294 1291.51 111.334C1291 112.374 1290.32 113.359 1289.45 114.289C1288.59 115.241 1287.51 116.016 1286.2 116.613C1284.92 117.211 1283.35 117.51 1281.52 117.51C1280.72 117.51 1280.01 117.454 1279.39 117.344C1278.77 117.233 1278.12 117.089 1277.43 116.912V110.338C1277.65 110.36 1277.91 110.371 1278.2 110.371C1278.51 110.393 1278.77 110.404 1278.99 110.404C1280.28 110.404 1281.34 110.249 1282.18 109.939C1283.02 109.652 1283.7 109.176 1284.21 108.512C1284.74 107.87 1285.18 107.029 1285.54 105.988L1288.19 99.0156ZM1283.44 67.0742L1291.58 93.5371L1293.01 102.801L1286.96 103.896L1273.98 67.0742H1283.44ZM1334.21 67.0742V74.0137H1316.61V67.0742H1334.21ZM1340.82 67.0742V103H1332.05V67.0742H1340.82ZM1314.42 67.0742H1323.09L1322.12 85.0039C1321.97 87.638 1321.69 89.9512 1321.29 91.9434C1320.9 93.9134 1320.37 95.6068 1319.7 97.0234C1319.04 98.418 1318.23 99.5579 1317.28 100.443C1316.33 101.329 1315.22 101.982 1313.96 102.402C1312.72 102.801 1311.32 103 1309.77 103H1307.08L1306.98 95.9277L1308.25 95.8281C1309.02 95.7617 1309.68 95.5514 1310.24 95.1973C1310.81 94.8431 1311.3 94.334 1311.7 93.6699C1312.12 93.0059 1312.46 92.1536 1312.73 91.1133C1313.02 90.0508 1313.24 88.8112 1313.39 87.3945C1313.57 85.9557 1313.69 84.2956 1313.76 82.4141L1314.42 67.0742ZM1347.29 85.4023V84.7051C1347.29 82.071 1347.67 79.6471 1348.42 77.4336C1349.17 75.1979 1350.27 73.2611 1351.71 71.623C1353.15 69.985 1354.91 68.7122 1356.99 67.8047C1359.07 66.875 1361.44 66.4102 1364.09 66.4102C1366.79 66.4102 1369.18 66.875 1371.27 67.8047C1373.37 68.7122 1375.14 69.985 1376.58 71.623C1378.02 73.2611 1379.11 75.1979 1379.87 77.4336C1380.62 79.6471 1380.99 82.071 1380.99 84.7051V85.4023C1380.99 88.0143 1380.62 90.4382 1379.87 92.6738C1379.11 94.8874 1378.02 96.8242 1376.58 98.4844C1375.14 100.122 1373.38 101.395 1371.3 102.303C1369.22 103.21 1366.84 103.664 1364.16 103.664C1361.5 103.664 1359.12 103.21 1357.02 102.303C1354.92 101.395 1353.15 100.122 1351.71 98.4844C1350.27 96.8242 1349.17 94.8874 1348.42 92.6738C1347.67 90.4382 1347.29 88.0143 1347.29 85.4023ZM1356.06 84.7051V85.4023C1356.06 86.974 1356.21 88.446 1356.52 89.8184C1356.83 91.1908 1357.31 92.3971 1357.95 93.4375C1358.59 94.4779 1359.42 95.2969 1360.44 95.8945C1361.48 96.4701 1362.72 96.7578 1364.16 96.7578C1365.58 96.7578 1366.79 96.4701 1367.81 95.8945C1368.83 95.2969 1369.66 94.4779 1370.3 93.4375C1370.97 92.3971 1371.45 91.1908 1371.76 89.8184C1372.07 88.446 1372.23 86.974 1372.23 85.4023V84.7051C1372.23 83.1556 1372.07 81.7057 1371.76 80.3555C1371.45 78.9831 1370.97 77.7767 1370.3 76.7363C1369.66 75.6738 1368.82 74.8438 1367.78 74.2461C1366.76 73.6263 1365.53 73.3164 1364.09 73.3164C1362.68 73.3164 1361.46 73.6263 1360.44 74.2461C1359.42 74.8438 1358.59 75.6738 1357.95 76.7363C1357.31 77.7767 1356.83 78.9831 1356.52 80.3555C1356.21 81.7057 1356.06 83.1556 1356.06 84.7051ZM1402.11 96.7578C1403.35 96.7578 1404.46 96.5143 1405.43 96.0273C1406.41 95.5404 1407.18 94.8542 1407.76 93.9688C1408.35 93.0833 1408.67 92.054 1408.72 90.8809H1416.99C1416.94 93.3158 1416.26 95.4961 1414.93 97.4219C1413.6 99.3477 1411.83 100.875 1409.62 102.004C1407.42 103.111 1404.97 103.664 1402.24 103.664C1399.48 103.664 1397.06 103.199 1395.01 102.27C1392.95 101.34 1391.23 100.045 1389.86 98.3848C1388.51 96.7246 1387.49 94.7988 1386.8 92.6074C1386.14 90.416 1385.81 88.0697 1385.81 85.5684V84.5059C1385.81 82.0046 1386.14 79.6582 1386.8 77.4668C1387.49 75.2754 1388.51 73.3496 1389.86 71.6895C1391.23 70.0293 1392.95 68.7344 1395.01 67.8047C1397.06 66.875 1399.47 66.4102 1402.21 66.4102C1405.11 66.4102 1407.66 66.9746 1409.85 68.1035C1412.06 69.2324 1413.79 70.8262 1415.03 72.8848C1416.29 74.9434 1416.94 77.3672 1416.99 80.1562H1408.72C1408.67 78.8724 1408.39 77.7214 1407.86 76.7031C1407.32 75.6849 1406.57 74.8659 1405.6 74.2461C1404.62 73.6263 1403.44 73.3164 1402.04 73.3164C1400.56 73.3164 1399.32 73.6263 1398.33 74.2461C1397.35 74.8659 1396.59 75.7181 1396.04 76.8027C1395.5 77.8652 1395.13 79.0605 1394.91 80.3887C1394.71 81.6947 1394.61 83.0671 1394.61 84.5059V85.5684C1394.61 87.0293 1394.71 88.4238 1394.91 89.752C1395.13 91.0801 1395.5 92.2754 1396.04 93.3379C1396.59 94.3783 1397.35 95.2083 1398.33 95.8281C1399.32 96.4479 1400.58 96.7578 1402.11 96.7578ZM1429.07 78.1309H1439.56C1442.75 78.1309 1445.46 78.6621 1447.7 79.7246C1449.96 80.765 1451.67 82.2259 1452.85 84.1074C1454.04 85.9668 1454.64 88.125 1454.64 90.582C1454.64 92.3529 1454.3 94.002 1453.61 95.5293C1452.95 97.0345 1451.97 98.3516 1450.69 99.4805C1449.4 100.587 1447.82 101.451 1445.94 102.07C1444.08 102.69 1441.96 103 1439.56 103H1423.43V67.0742H1432.23V96.127H1439.56C1441.09 96.127 1442.31 95.8724 1443.22 95.3633C1444.15 94.832 1444.81 94.1569 1445.21 93.3379C1445.63 92.4967 1445.84 91.6003 1445.84 90.6484C1445.84 89.6745 1445.63 88.7669 1445.21 87.9258C1444.81 87.0625 1444.15 86.3652 1443.22 85.834C1442.31 85.3027 1441.09 85.0371 1439.56 85.0371H1429.07V78.1309ZM1468.82 95.0977L1468.75 101.174C1468.75 103.542 1468.16 105.944 1466.99 108.379C1465.82 110.814 1464.3 112.828 1462.44 114.422L1457.79 111.865C1458.39 110.869 1458.94 109.862 1459.45 108.844C1459.98 107.826 1460.4 106.719 1460.71 105.523C1461.05 104.35 1461.21 103.033 1461.21 101.572V95.0977H1468.82ZM438.557 147.074V154.014H420.992V147.074H438.557ZM423.316 147.074V183H414.518V147.074H423.316ZM445.197 147.074V183H436.365V147.074H445.197ZM451.605 165.402V164.705C451.605 162.071 451.982 159.647 452.734 157.434C453.487 155.198 454.583 153.261 456.021 151.623C457.46 149.985 459.22 148.712 461.301 147.805C463.382 146.875 465.75 146.41 468.406 146.41C471.107 146.41 473.497 146.875 475.578 147.805C477.681 148.712 479.452 149.985 480.891 151.623C482.329 153.261 483.425 155.198 484.178 157.434C484.93 159.647 485.307 162.071 485.307 164.705V165.402C485.307 168.014 484.93 170.438 484.178 172.674C483.425 174.887 482.329 176.824 480.891 178.484C479.452 180.122 477.692 181.395 475.611 182.303C473.531 183.21 471.151 183.664 468.473 183.664C465.816 183.664 463.437 183.21 461.334 182.303C459.231 181.395 457.46 180.122 456.021 178.484C454.583 176.824 453.487 174.887 452.734 172.674C451.982 170.438 451.605 168.014 451.605 165.402ZM460.371 164.705V165.402C460.371 166.974 460.526 168.446 460.836 169.818C461.146 171.191 461.622 172.397 462.264 173.438C462.906 174.478 463.736 175.297 464.754 175.895C465.794 176.47 467.034 176.758 468.473 176.758C469.889 176.758 471.107 176.47 472.125 175.895C473.143 175.297 473.973 174.478 474.615 173.438C475.279 172.397 475.766 171.191 476.076 169.818C476.386 168.446 476.541 166.974 476.541 165.402V164.705C476.541 163.156 476.386 161.706 476.076 160.355C475.766 158.983 475.279 157.777 474.615 156.736C473.973 155.674 473.132 154.844 472.092 154.246C471.074 153.626 469.845 153.316 468.406 153.316C466.99 153.316 465.772 153.626 464.754 154.246C463.736 154.844 462.906 155.674 462.264 156.736C461.622 157.777 461.146 158.983 460.836 160.355C460.526 161.706 460.371 163.156 460.371 164.705ZM503.203 168.988L488.594 147.074H499.418L507.42 160.92H514.359L513.264 168.988H503.203ZM507.586 167.594L498.887 183H488.229L500.68 163.012L507.586 167.594ZM519.871 147.074V183H511.105V147.074H519.871ZM542.482 147.074L527.84 168.988H517.779L516.684 160.92H523.623L531.625 147.074H542.482ZM532.156 183L523.457 167.594L530.596 163.012L543.014 183H532.156ZM567.65 175.363V158.795C567.65 157.577 567.44 156.526 567.02 155.641C566.599 154.755 565.957 154.069 565.094 153.582C564.23 153.095 563.135 152.852 561.807 152.852C560.633 152.852 559.604 153.051 558.719 153.449C557.855 153.848 557.191 154.412 556.727 155.143C556.262 155.851 556.029 156.67 556.029 157.6H547.23C547.23 156.117 547.585 154.711 548.293 153.383C549.001 152.033 550.008 150.837 551.314 149.797C552.643 148.734 554.225 147.904 556.062 147.307C557.922 146.709 560.003 146.41 562.305 146.41C565.027 146.41 567.451 146.875 569.576 147.805C571.723 148.712 573.406 150.085 574.623 151.922C575.863 153.759 576.482 156.072 576.482 158.861V174.533C576.482 176.326 576.593 177.865 576.814 179.148C577.058 180.41 577.412 181.506 577.877 182.436V183H568.945C568.525 182.092 568.204 180.941 567.982 179.547C567.761 178.13 567.65 176.736 567.65 175.363ZM568.879 161.119L568.945 166.332H563.4C562.028 166.332 560.822 166.476 559.781 166.764C558.741 167.029 557.889 167.428 557.225 167.959C556.561 168.468 556.062 169.088 555.73 169.818C555.398 170.527 555.232 171.335 555.232 172.242C555.232 173.128 555.432 173.924 555.83 174.633C556.251 175.341 556.848 175.906 557.623 176.326C558.42 176.725 559.35 176.924 560.412 176.924C561.962 176.924 563.312 176.614 564.463 175.994C565.614 175.352 566.51 174.577 567.152 173.67C567.794 172.762 568.137 171.899 568.182 171.08L570.705 174.865C570.395 175.773 569.93 176.736 569.311 177.754C568.691 178.772 567.894 179.724 566.92 180.609C565.946 181.495 564.773 182.225 563.4 182.801C562.028 183.376 560.434 183.664 558.619 183.664C556.295 183.664 554.214 183.199 552.377 182.27C550.54 181.34 549.09 180.067 548.027 178.451C546.965 176.835 546.434 174.998 546.434 172.939C546.434 171.036 546.788 169.354 547.496 167.893C548.204 166.432 549.256 165.203 550.65 164.207C552.045 163.189 553.771 162.425 555.83 161.916C557.911 161.385 560.29 161.119 562.969 161.119H568.879ZM608.523 147.074V154.014H590.926V147.074H608.523ZM615.131 147.074V183H606.365V147.074H615.131ZM588.734 147.074H597.4L596.438 165.004C596.283 167.638 596.006 169.951 595.607 171.943C595.209 173.913 594.678 175.607 594.014 177.023C593.35 178.418 592.542 179.558 591.59 180.443C590.638 181.329 589.531 181.982 588.27 182.402C587.03 182.801 585.635 183 584.086 183H581.396L581.297 175.928L582.559 175.828C583.333 175.762 583.997 175.551 584.551 175.197C585.126 174.843 585.613 174.334 586.012 173.67C586.432 173.006 586.775 172.154 587.041 171.113C587.329 170.051 587.55 168.811 587.705 167.395C587.882 165.956 588.004 164.296 588.07 162.414L588.734 147.074ZM633.691 179.016L643.32 147.074H652.717L638.307 188.445C637.975 189.331 637.543 190.294 637.012 191.334C636.503 192.374 635.816 193.359 634.953 194.289C634.09 195.241 633.005 196.016 631.699 196.613C630.415 197.211 628.855 197.51 627.018 197.51C626.221 197.51 625.512 197.454 624.893 197.344C624.273 197.233 623.62 197.089 622.934 196.912V190.338C623.155 190.36 623.41 190.371 623.697 190.371C624.007 190.393 624.273 190.404 624.494 190.404C625.778 190.404 626.84 190.249 627.682 189.939C628.523 189.652 629.198 189.176 629.707 188.512C630.238 187.87 630.681 187.029 631.035 185.988L633.691 179.016ZM628.943 147.074L637.078 173.537L638.506 182.801L632.463 183.896L619.48 147.074H628.943ZM665.832 170.482L678.914 147.074H687.713V183H678.914V159.559L665.832 183H657.033V147.074H665.832V170.482ZM677.287 132.963H683.662C683.662 134.822 683.208 136.471 682.301 137.91C681.393 139.349 680.098 140.478 678.416 141.297C676.756 142.094 674.786 142.492 672.506 142.492C669.075 142.492 666.352 141.607 664.338 139.836C662.324 138.065 661.316 135.774 661.316 132.963H667.691C667.691 134.136 668.057 135.188 668.787 136.117C669.518 137.047 670.757 137.512 672.506 137.512C674.255 137.512 675.483 137.047 676.191 136.117C676.922 135.188 677.287 134.136 677.287 132.963ZM710.424 176.758C711.663 176.758 712.77 176.514 713.744 176.027C714.718 175.54 715.493 174.854 716.068 173.969C716.666 173.083 716.987 172.054 717.031 170.881H725.299C725.255 173.316 724.568 175.496 723.24 177.422C721.912 179.348 720.141 180.875 717.928 182.004C715.736 183.111 713.279 183.664 710.557 183.664C707.79 183.664 705.377 183.199 703.318 182.27C701.26 181.34 699.544 180.045 698.172 178.385C696.822 176.725 695.803 174.799 695.117 172.607C694.453 170.416 694.121 168.07 694.121 165.568V164.506C694.121 162.005 694.453 159.658 695.117 157.467C695.803 155.275 696.822 153.35 698.172 151.689C699.544 150.029 701.26 148.734 703.318 147.805C705.377 146.875 707.779 146.41 710.523 146.41C713.423 146.41 715.969 146.975 718.16 148.104C720.374 149.232 722.1 150.826 723.34 152.885C724.602 154.943 725.255 157.367 725.299 160.156H717.031C716.987 158.872 716.699 157.721 716.168 156.703C715.637 155.685 714.884 154.866 713.91 154.246C712.936 153.626 711.752 153.316 710.357 153.316C708.874 153.316 707.635 153.626 706.639 154.246C705.665 154.866 704.901 155.718 704.348 156.803C703.816 157.865 703.44 159.061 703.219 160.389C703.02 161.695 702.92 163.067 702.92 164.506V165.568C702.92 167.029 703.02 168.424 703.219 169.752C703.44 171.08 703.816 172.275 704.348 173.338C704.901 174.378 705.665 175.208 706.639 175.828C707.635 176.448 708.896 176.758 710.424 176.758ZM748.574 147.074V183H739.775V147.074H748.574ZM760.262 147.074V153.914H728.287V147.074H760.262ZM784.666 175.363V158.795C784.666 157.577 784.456 156.526 784.035 155.641C783.615 154.755 782.973 154.069 782.109 153.582C781.246 153.095 780.15 152.852 778.822 152.852C777.649 152.852 776.62 153.051 775.734 153.449C774.871 153.848 774.207 154.412 773.742 155.143C773.277 155.851 773.045 156.67 773.045 157.6H764.246C764.246 156.117 764.6 154.711 765.309 153.383C766.017 152.033 767.024 150.837 768.33 149.797C769.658 148.734 771.241 147.904 773.078 147.307C774.938 146.709 777.018 146.41 779.32 146.41C782.043 146.41 784.467 146.875 786.592 147.805C788.739 148.712 790.421 150.085 791.639 151.922C792.878 153.759 793.498 156.072 793.498 158.861V174.533C793.498 176.326 793.609 177.865 793.83 179.148C794.074 180.41 794.428 181.506 794.893 182.436V183H785.961C785.54 182.092 785.219 180.941 784.998 179.547C784.777 178.13 784.666 176.736 784.666 175.363ZM785.895 161.119L785.961 166.332H780.416C779.044 166.332 777.837 166.476 776.797 166.764C775.757 167.029 774.904 167.428 774.24 167.959C773.576 168.468 773.078 169.088 772.746 169.818C772.414 170.527 772.248 171.335 772.248 172.242C772.248 173.128 772.447 173.924 772.846 174.633C773.266 175.341 773.864 175.906 774.639 176.326C775.436 176.725 776.365 176.924 777.428 176.924C778.977 176.924 780.327 176.614 781.479 175.994C782.63 175.352 783.526 174.577 784.168 173.67C784.81 172.762 785.153 171.899 785.197 171.08L787.721 174.865C787.411 175.773 786.946 176.736 786.326 177.754C785.706 178.772 784.91 179.724 783.936 180.609C782.962 181.495 781.788 182.225 780.416 182.801C779.044 183.376 777.45 183.664 775.635 183.664C773.311 183.664 771.23 183.199 769.393 182.27C767.555 181.34 766.105 180.067 765.043 178.451C763.98 176.835 763.449 174.998 763.449 172.939C763.449 171.036 763.803 169.354 764.512 167.893C765.22 166.432 766.271 165.203 767.666 164.207C769.061 163.189 770.787 162.425 772.846 161.916C774.926 161.385 777.306 161.119 779.984 161.119H785.895ZM833.076 176.758C834.316 176.758 835.423 176.514 836.396 176.027C837.37 175.54 838.145 174.854 838.721 173.969C839.318 173.083 839.639 172.054 839.684 170.881H847.951C847.907 173.316 847.221 175.496 845.893 177.422C844.564 179.348 842.794 180.875 840.58 182.004C838.389 183.111 835.932 183.664 833.209 183.664C830.442 183.664 828.029 183.199 825.971 182.27C823.912 181.34 822.197 180.045 820.824 178.385C819.474 176.725 818.456 174.799 817.77 172.607C817.105 170.416 816.773 168.07 816.773 165.568V164.506C816.773 162.005 817.105 159.658 817.77 157.467C818.456 155.275 819.474 153.35 820.824 151.689C822.197 150.029 823.912 148.734 825.971 147.805C828.029 146.875 830.431 146.41 833.176 146.41C836.076 146.41 838.621 146.975 840.812 148.104C843.026 149.232 844.753 150.826 845.992 152.885C847.254 154.943 847.907 157.367 847.951 160.156H839.684C839.639 158.872 839.352 157.721 838.82 156.703C838.289 155.685 837.536 154.866 836.562 154.246C835.589 153.626 834.404 153.316 833.01 153.316C831.527 153.316 830.287 153.626 829.291 154.246C828.317 154.866 827.553 155.718 827 156.803C826.469 157.865 826.092 159.061 825.871 160.389C825.672 161.695 825.572 163.067 825.572 164.506V165.568C825.572 167.029 825.672 168.424 825.871 169.752C826.092 171.08 826.469 172.275 827 173.338C827.553 174.378 828.317 175.208 829.291 175.828C830.287 176.448 831.549 176.758 833.076 176.758ZM871.459 167.793H860.07L860.004 161.85H869.367C870.762 161.85 871.902 161.706 872.787 161.418C873.673 161.13 874.326 160.699 874.746 160.123C875.189 159.548 875.41 158.85 875.41 158.031C875.41 157.323 875.277 156.714 875.012 156.205C874.746 155.674 874.348 155.242 873.816 154.91C873.307 154.578 872.654 154.335 871.857 154.18C871.083 154.003 870.175 153.914 869.135 153.914H863.191V183H854.393V147.074H869.135C871.459 147.074 873.551 147.285 875.41 147.705C877.27 148.104 878.852 148.712 880.158 149.531C881.464 150.35 882.46 151.391 883.146 152.652C883.855 153.892 884.209 155.353 884.209 157.035C884.209 158.142 883.965 159.182 883.479 160.156C882.992 161.13 882.272 161.993 881.32 162.746C880.368 163.499 879.195 164.118 877.801 164.605C876.406 165.07 874.812 165.358 873.02 165.469L871.459 167.793ZM871.459 183H857.713L860.967 176.16H871.459C872.743 176.16 873.805 176.005 874.646 175.695C875.488 175.363 876.107 174.887 876.506 174.268C876.926 173.648 877.137 172.895 877.137 172.01C877.137 171.146 876.938 170.405 876.539 169.785C876.163 169.143 875.554 168.656 874.713 168.324C873.894 167.97 872.809 167.793 871.459 167.793H862.395L862.461 161.85H872.986L875.311 164.207C877.701 164.362 879.682 164.849 881.254 165.668C882.826 166.465 883.999 167.483 884.773 168.723C885.548 169.94 885.936 171.279 885.936 172.74C885.936 174.445 885.615 175.939 884.973 177.223C884.331 178.507 883.39 179.58 882.15 180.443C880.911 181.285 879.395 181.926 877.602 182.369C875.809 182.79 873.761 183 871.459 183ZM908.447 183.664C905.725 183.664 903.279 183.221 901.109 182.336C898.94 181.451 897.092 180.222 895.564 178.65C894.059 177.057 892.897 175.208 892.078 173.105C891.281 170.98 890.883 168.701 890.883 166.266V164.938C890.883 162.171 891.281 159.658 892.078 157.4C892.875 155.12 894.004 153.161 895.465 151.523C896.926 149.885 898.674 148.624 900.711 147.738C902.747 146.853 904.994 146.41 907.451 146.41C909.997 146.41 912.243 146.842 914.191 147.705C916.139 148.546 917.766 149.742 919.072 151.291C920.378 152.84 921.363 154.7 922.027 156.869C922.691 159.016 923.023 161.396 923.023 164.008V167.693H894.867V161.65H914.391V160.986C914.346 159.592 914.081 158.319 913.594 157.168C913.107 155.995 912.354 155.065 911.336 154.379C910.318 153.671 909.001 153.316 907.385 153.316C906.079 153.316 904.939 153.604 903.965 154.18C903.013 154.733 902.216 155.53 901.574 156.57C900.954 157.589 900.49 158.806 900.18 160.223C899.87 161.639 899.715 163.211 899.715 164.938V166.266C899.715 167.771 899.914 169.165 900.312 170.449C900.733 171.733 901.342 172.851 902.139 173.803C902.958 174.732 903.932 175.463 905.061 175.994C906.212 176.503 907.518 176.758 908.979 176.758C910.816 176.758 912.476 176.404 913.959 175.695C915.464 174.965 916.77 173.891 917.877 172.475L922.293 177.057C921.54 178.163 920.522 179.226 919.238 180.244C917.977 181.262 916.449 182.092 914.656 182.734C912.863 183.354 910.794 183.664 908.447 183.664ZM937.666 153.98V196.812H928.867V147.074H937.002L937.666 153.98ZM960.742 164.672V165.369C960.742 167.981 960.432 170.405 959.812 172.641C959.215 174.854 958.329 176.791 957.156 178.451C955.983 180.089 954.522 181.373 952.773 182.303C951.047 183.21 949.055 183.664 946.797 183.664C944.583 183.664 942.658 183.243 941.02 182.402C939.382 181.539 937.998 180.322 936.869 178.75C935.74 177.178 934.833 175.352 934.146 173.271C933.482 171.169 932.984 168.878 932.652 166.398V164.174C932.984 161.54 933.482 159.149 934.146 157.002C934.833 154.833 935.74 152.962 936.869 151.391C937.998 149.797 939.37 148.568 940.986 147.705C942.624 146.842 944.539 146.41 946.73 146.41C949.01 146.41 951.014 146.842 952.74 147.705C954.489 148.568 955.961 149.808 957.156 151.424C958.352 153.04 959.248 154.965 959.846 157.201C960.443 159.437 960.742 161.927 960.742 164.672ZM951.943 165.369V164.672C951.943 163.078 951.799 161.606 951.512 160.256C951.224 158.883 950.781 157.688 950.184 156.67C949.586 155.63 948.811 154.822 947.859 154.246C946.908 153.671 945.757 153.383 944.406 153.383C943.056 153.383 941.894 153.604 940.92 154.047C939.946 154.49 939.149 155.12 938.529 155.939C937.91 156.758 937.423 157.732 937.068 158.861C936.736 159.968 936.515 161.197 936.404 162.547V168.059C936.604 169.697 936.991 171.169 937.566 172.475C938.142 173.781 938.983 174.821 940.09 175.596C941.219 176.37 942.68 176.758 944.473 176.758C945.823 176.758 946.974 176.459 947.926 175.861C948.878 175.264 949.652 174.445 950.25 173.404C950.848 172.342 951.279 171.124 951.545 169.752C951.811 168.38 951.943 166.919 951.943 165.369ZM991.688 161.816V168.689H973.26V161.816H991.688ZM976.016 147.074V183H967.217V147.074H976.016ZM997.83 147.074V183H988.998V147.074H997.83ZM1014.66 170.482L1027.75 147.074H1036.54V183H1027.75V159.559L1014.66 183H1005.87V147.074H1014.66V170.482ZM1061.95 147.074V183H1053.15V147.074H1061.95ZM1073.63 147.074V153.914H1041.66V147.074H1073.63ZM1092.53 183.664C1089.8 183.664 1087.36 183.221 1085.19 182.336C1083.02 181.451 1081.17 180.222 1079.64 178.65C1078.14 177.057 1076.98 175.208 1076.16 173.105C1075.36 170.98 1074.96 168.701 1074.96 166.266V164.938C1074.96 162.171 1075.36 159.658 1076.16 157.4C1076.95 155.12 1078.08 153.161 1079.54 151.523C1081 149.885 1082.75 148.624 1084.79 147.738C1086.83 146.853 1089.07 146.41 1091.53 146.41C1094.07 146.41 1096.32 146.842 1098.27 147.705C1100.22 148.546 1101.84 149.742 1103.15 151.291C1104.46 152.84 1105.44 154.7 1106.11 156.869C1106.77 159.016 1107.1 161.396 1107.1 164.008V167.693H1078.95V161.65H1098.47V160.986C1098.42 159.592 1098.16 158.319 1097.67 157.168C1097.18 155.995 1096.43 155.065 1095.41 154.379C1094.4 153.671 1093.08 153.316 1091.46 153.316C1090.16 153.316 1089.02 153.604 1088.04 154.18C1087.09 154.733 1086.29 155.53 1085.65 156.57C1085.03 157.589 1084.57 158.806 1084.26 160.223C1083.95 161.639 1083.79 163.211 1083.79 164.938V166.266C1083.79 167.771 1083.99 169.165 1084.39 170.449C1084.81 171.733 1085.42 172.851 1086.22 173.803C1087.04 174.732 1088.01 175.463 1089.14 175.994C1090.29 176.503 1091.6 176.758 1093.06 176.758C1094.89 176.758 1096.55 176.404 1098.04 175.695C1099.54 174.965 1100.85 173.891 1101.96 172.475L1106.37 177.057C1105.62 178.163 1104.6 179.226 1103.32 180.244C1102.05 181.262 1100.53 182.092 1098.73 182.734C1096.94 183.354 1094.87 183.664 1092.53 183.664ZM1146.05 183.664C1143.33 183.664 1140.88 183.221 1138.71 182.336C1136.54 181.451 1134.69 180.222 1133.17 178.65C1131.66 177.057 1130.5 175.208 1129.68 173.105C1128.88 170.98 1128.48 168.701 1128.48 166.266V164.938C1128.48 162.171 1128.88 159.658 1129.68 157.4C1130.48 155.12 1131.61 153.161 1133.07 151.523C1134.53 149.885 1136.28 148.624 1138.31 147.738C1140.35 146.853 1142.6 146.41 1145.05 146.41C1147.6 146.41 1149.85 146.842 1151.79 147.705C1153.74 148.546 1155.37 149.742 1156.67 151.291C1157.98 152.84 1158.96 154.7 1159.63 156.869C1160.29 159.016 1160.62 161.396 1160.62 164.008V167.693H1132.47V161.65H1151.99V160.986C1151.95 159.592 1151.68 158.319 1151.2 157.168C1150.71 155.995 1149.96 155.065 1148.94 154.379C1147.92 153.671 1146.6 153.316 1144.99 153.316C1143.68 153.316 1142.54 153.604 1141.57 154.18C1140.61 154.733 1139.82 155.53 1139.18 156.57C1138.56 157.589 1138.09 158.806 1137.78 160.223C1137.47 161.639 1137.32 163.211 1137.32 164.938V166.266C1137.32 167.771 1137.52 169.165 1137.91 170.449C1138.33 171.733 1138.94 172.851 1139.74 173.803C1140.56 174.732 1141.53 175.463 1142.66 175.994C1143.81 176.503 1145.12 176.758 1146.58 176.758C1148.42 176.758 1150.08 176.404 1151.56 175.695C1153.07 174.965 1154.37 173.891 1155.48 172.475L1159.89 177.057C1159.14 178.163 1158.12 179.226 1156.84 180.244C1155.58 181.262 1154.05 182.092 1152.26 182.734C1150.46 183.354 1148.4 183.664 1146.05 183.664ZM1190.64 147.074V154.014H1175.33V183H1166.57V147.074H1190.64ZM1192.83 165.402V164.705C1192.83 162.071 1193.21 159.647 1193.96 157.434C1194.71 155.198 1195.81 153.261 1197.25 151.623C1198.69 149.985 1200.45 148.712 1202.53 147.805C1204.61 146.875 1206.98 146.41 1209.63 146.41C1212.33 146.41 1214.72 146.875 1216.8 147.805C1218.91 148.712 1220.68 149.985 1222.12 151.623C1223.56 153.261 1224.65 155.198 1225.4 157.434C1226.16 159.647 1226.53 162.071 1226.53 164.705V165.402C1226.53 168.014 1226.16 170.438 1225.4 172.674C1224.65 174.887 1223.56 176.824 1222.12 178.484C1220.68 180.122 1218.92 181.395 1216.84 182.303C1214.76 183.21 1212.38 183.664 1209.7 183.664C1207.04 183.664 1204.66 183.21 1202.56 182.303C1200.46 181.395 1198.69 180.122 1197.25 178.484C1195.81 176.824 1194.71 174.887 1193.96 172.674C1193.21 170.438 1192.83 168.014 1192.83 165.402ZM1201.6 164.705V165.402C1201.6 166.974 1201.75 168.446 1202.06 169.818C1202.37 171.191 1202.85 172.397 1203.49 173.438C1204.13 174.478 1204.96 175.297 1205.98 175.895C1207.02 176.47 1208.26 176.758 1209.7 176.758C1211.12 176.758 1212.33 176.47 1213.35 175.895C1214.37 175.297 1215.2 174.478 1215.84 173.438C1216.51 172.397 1216.99 171.191 1217.3 169.818C1217.61 168.446 1217.77 166.974 1217.77 165.402V164.705C1217.77 163.156 1217.61 161.706 1217.3 160.355C1216.99 158.983 1216.51 157.777 1215.84 156.736C1215.2 155.674 1214.36 154.844 1213.32 154.246C1212.3 153.626 1211.07 153.316 1209.63 153.316C1208.22 153.316 1207 153.626 1205.98 154.246C1204.96 154.844 1204.13 155.674 1203.49 156.736C1202.85 157.777 1202.37 158.983 1202.06 160.355C1201.75 161.706 1201.6 163.156 1201.6 164.705ZM1264.58 176.758C1265.82 176.758 1266.93 176.514 1267.9 176.027C1268.88 175.54 1269.65 174.854 1270.23 173.969C1270.83 173.083 1271.15 172.054 1271.19 170.881H1279.46C1279.41 173.316 1278.73 175.496 1277.4 177.422C1276.07 179.348 1274.3 180.875 1272.09 182.004C1269.9 183.111 1267.44 183.664 1264.72 183.664C1261.95 183.664 1259.54 183.199 1257.48 182.27C1255.42 181.34 1253.7 180.045 1252.33 178.385C1250.98 176.725 1249.96 174.799 1249.28 172.607C1248.61 170.416 1248.28 168.07 1248.28 165.568V164.506C1248.28 162.005 1248.61 159.658 1249.28 157.467C1249.96 155.275 1250.98 153.35 1252.33 151.689C1253.7 150.029 1255.42 148.734 1257.48 147.805C1259.54 146.875 1261.94 146.41 1264.68 146.41C1267.58 146.41 1270.13 146.975 1272.32 148.104C1274.53 149.232 1276.26 150.826 1277.5 152.885C1278.76 154.943 1279.41 157.367 1279.46 160.156H1271.19C1271.15 158.872 1270.86 157.721 1270.33 156.703C1269.8 155.685 1269.04 154.866 1268.07 154.246C1267.1 153.626 1265.91 153.316 1264.52 153.316C1263.03 153.316 1261.79 153.626 1260.8 154.246C1259.82 154.866 1259.06 155.718 1258.51 156.803C1257.98 157.865 1257.6 159.061 1257.38 160.389C1257.18 161.695 1257.08 163.067 1257.08 164.506V165.568C1257.08 167.029 1257.18 168.424 1257.38 169.752C1257.6 171.08 1257.98 172.275 1258.51 173.338C1259.06 174.378 1259.82 175.208 1260.8 175.828C1261.79 176.448 1263.06 176.758 1264.58 176.758ZM1305.09 175.363V158.795C1305.09 157.577 1304.88 156.526 1304.46 155.641C1304.04 154.755 1303.4 154.069 1302.54 153.582C1301.67 153.095 1300.58 152.852 1299.25 152.852C1298.07 152.852 1297.05 153.051 1296.16 153.449C1295.3 153.848 1294.63 154.412 1294.17 155.143C1293.7 155.851 1293.47 156.67 1293.47 157.6H1284.67C1284.67 156.117 1285.03 154.711 1285.73 153.383C1286.44 152.033 1287.45 150.837 1288.76 149.797C1290.08 148.734 1291.67 147.904 1293.5 147.307C1295.36 146.709 1297.44 146.41 1299.75 146.41C1302.47 146.41 1304.89 146.875 1307.02 147.805C1309.16 148.712 1310.85 150.085 1312.06 151.922C1313.3 153.759 1313.92 156.072 1313.92 158.861V174.533C1313.92 176.326 1314.03 177.865 1314.26 179.148C1314.5 180.41 1314.85 181.506 1315.32 182.436V183H1306.39C1305.97 182.092 1305.65 180.941 1305.42 179.547C1305.2 178.13 1305.09 176.736 1305.09 175.363ZM1306.32 161.119L1306.39 166.332H1300.84C1299.47 166.332 1298.26 166.476 1297.22 166.764C1296.18 167.029 1295.33 167.428 1294.67 167.959C1294 168.468 1293.5 169.088 1293.17 169.818C1292.84 170.527 1292.67 171.335 1292.67 172.242C1292.67 173.128 1292.87 173.924 1293.27 174.633C1293.69 175.341 1294.29 175.906 1295.06 176.326C1295.86 176.725 1296.79 176.924 1297.85 176.924C1299.4 176.924 1300.75 176.614 1301.9 175.994C1303.06 175.352 1303.95 174.577 1304.59 173.67C1305.24 172.762 1305.58 171.899 1305.62 171.08L1308.15 174.865C1307.84 175.773 1307.37 176.736 1306.75 177.754C1306.13 178.772 1305.34 179.724 1304.36 180.609C1303.39 181.495 1302.21 182.225 1300.84 182.801C1299.47 183.376 1297.88 183.664 1296.06 183.664C1293.74 183.664 1291.66 183.199 1289.82 182.27C1287.98 181.34 1286.53 180.067 1285.47 178.451C1284.41 176.835 1283.88 174.998 1283.88 172.939C1283.88 171.036 1284.23 169.354 1284.94 167.893C1285.65 166.432 1286.7 165.203 1288.09 164.207C1289.49 163.189 1291.21 162.425 1293.27 161.916C1295.35 161.385 1297.73 161.119 1300.41 161.119H1306.32ZM1343.38 172.641L1353.47 147.074H1360.81L1346.36 183H1340.42L1326.01 147.074H1333.38L1343.38 172.641ZM1331.22 147.074V183H1322.42V147.074H1331.22ZM1355.69 183V147.074H1364.49V183H1355.69ZM1371.66 165.402V164.705C1371.66 162.071 1372.04 159.647 1372.79 157.434C1373.55 155.198 1374.64 153.261 1376.08 151.623C1377.52 149.985 1379.28 148.712 1381.36 147.805C1383.44 146.875 1385.81 146.41 1388.46 146.41C1391.17 146.41 1393.56 146.875 1395.64 147.805C1397.74 148.712 1399.51 149.985 1400.95 151.623C1402.39 153.261 1403.48 155.198 1404.24 157.434C1404.99 159.647 1405.37 162.071 1405.37 164.705V165.402C1405.37 168.014 1404.99 170.438 1404.24 172.674C1403.48 174.887 1402.39 176.824 1400.95 178.484C1399.51 180.122 1397.75 181.395 1395.67 182.303C1393.59 183.21 1391.21 183.664 1388.53 183.664C1385.88 183.664 1383.5 183.21 1381.39 182.303C1379.29 181.395 1377.52 180.122 1376.08 178.484C1374.64 176.824 1373.55 174.887 1372.79 172.674C1372.04 170.438 1371.66 168.014 1371.66 165.402ZM1380.43 164.705V165.402C1380.43 166.974 1380.58 168.446 1380.89 169.818C1381.2 171.191 1381.68 172.397 1382.32 173.438C1382.96 174.478 1383.79 175.297 1384.81 175.895C1385.85 176.47 1387.09 176.758 1388.53 176.758C1389.95 176.758 1391.17 176.47 1392.18 175.895C1393.2 175.297 1394.03 174.478 1394.67 173.438C1395.34 172.397 1395.82 171.191 1396.13 169.818C1396.44 168.446 1396.6 166.974 1396.6 165.402V164.705C1396.6 163.156 1396.44 161.706 1396.13 160.355C1395.82 158.983 1395.34 157.777 1394.67 156.736C1394.03 155.674 1393.19 154.844 1392.15 154.246C1391.13 153.626 1389.9 153.316 1388.46 153.316C1387.05 153.316 1385.83 153.626 1384.81 154.246C1383.79 154.844 1382.96 155.674 1382.32 156.736C1381.68 157.777 1381.2 158.983 1380.89 160.355C1380.58 161.706 1380.43 163.156 1380.43 164.705ZM1426.48 176.758C1427.72 176.758 1428.83 176.514 1429.8 176.027C1430.78 175.54 1431.55 174.854 1432.13 173.969C1432.72 173.083 1433.05 172.054 1433.09 170.881H1441.36C1441.31 173.316 1440.63 175.496 1439.3 177.422C1437.97 179.348 1436.2 180.875 1433.99 182.004C1431.79 183.111 1429.34 183.664 1426.62 183.664C1423.85 183.664 1421.44 183.199 1419.38 182.27C1417.32 181.34 1415.6 180.045 1414.23 178.385C1412.88 176.725 1411.86 174.799 1411.18 172.607C1410.51 170.416 1410.18 168.07 1410.18 165.568V164.506C1410.18 162.005 1410.51 159.658 1411.18 157.467C1411.86 155.275 1412.88 153.35 1414.23 151.689C1415.6 150.029 1417.32 148.734 1419.38 147.805C1421.44 146.875 1423.84 146.41 1426.58 146.41C1429.48 146.41 1432.03 146.975 1434.22 148.104C1436.43 149.232 1438.16 150.826 1439.4 152.885C1440.66 154.943 1441.31 157.367 1441.36 160.156H1433.09C1433.05 158.872 1432.76 157.721 1432.23 156.703C1431.7 155.685 1430.94 154.866 1429.97 154.246C1428.99 153.626 1427.81 153.316 1426.42 153.316C1424.93 153.316 1423.69 153.626 1422.7 154.246C1421.72 154.866 1420.96 155.718 1420.41 156.803C1419.88 157.865 1419.5 159.061 1419.28 160.389C1419.08 161.695 1418.98 163.067 1418.98 164.506V165.568C1418.98 167.029 1419.08 168.424 1419.28 169.752C1419.5 171.08 1419.88 172.275 1420.41 173.338C1420.96 174.378 1421.72 175.208 1422.7 175.828C1423.69 176.448 1424.96 176.758 1426.48 176.758ZM1464.63 147.074V183H1455.83V147.074H1464.63ZM1476.32 147.074V153.914H1444.35V147.074H1476.32ZM1478.71 165.402V164.705C1478.71 162.071 1479.09 159.647 1479.84 157.434C1480.59 155.198 1481.69 153.261 1483.13 151.623C1484.57 149.985 1486.33 148.712 1488.41 147.805C1490.49 146.875 1492.86 146.41 1495.51 146.41C1498.21 146.41 1500.6 146.875 1502.68 147.805C1504.79 148.712 1506.56 149.985 1508 151.623C1509.43 153.261 1510.53 155.198 1511.28 157.434C1512.04 159.647 1512.41 162.071 1512.41 164.705V165.402C1512.41 168.014 1512.04 170.438 1511.28 172.674C1510.53 174.887 1509.43 176.824 1508 178.484C1506.56 180.122 1504.8 181.395 1502.72 182.303C1500.64 183.21 1498.26 183.664 1495.58 183.664C1492.92 183.664 1490.54 183.21 1488.44 182.303C1486.34 181.395 1484.57 180.122 1483.13 178.484C1481.69 176.824 1480.59 174.887 1479.84 172.674C1479.09 170.438 1478.71 168.014 1478.71 165.402ZM1487.48 164.705V165.402C1487.48 166.974 1487.63 168.446 1487.94 169.818C1488.25 171.191 1488.73 172.397 1489.37 173.438C1490.01 174.478 1490.84 175.297 1491.86 175.895C1492.9 176.47 1494.14 176.758 1495.58 176.758C1496.99 176.758 1498.21 176.47 1499.23 175.895C1500.25 175.297 1501.08 174.478 1501.72 173.438C1502.38 172.397 1502.87 171.191 1503.18 169.818C1503.49 168.446 1503.65 166.974 1503.65 165.402V164.705C1503.65 163.156 1503.49 161.706 1503.18 160.355C1502.87 158.983 1502.38 157.777 1501.72 156.736C1501.08 155.674 1500.24 154.844 1499.2 154.246C1498.18 153.626 1496.95 153.316 1495.51 153.316C1494.1 153.316 1492.88 153.626 1491.86 154.246C1490.84 154.844 1490.01 155.674 1489.37 156.736C1488.73 157.777 1488.25 158.983 1487.94 160.355C1487.63 161.706 1487.48 163.156 1487.48 164.705ZM1526.42 165.27H1535.42L1525.33 183H1516.33L1526.42 165.27ZM1532.53 147.074H1548.14V183H1539.37V153.914H1532.53C1531.14 153.914 1529.98 154.169 1529.05 154.678C1528.14 155.187 1527.46 155.84 1527.02 156.637C1526.58 157.411 1526.36 158.208 1526.36 159.027C1526.36 159.824 1526.57 160.599 1526.99 161.352C1527.41 162.104 1528.05 162.724 1528.91 163.211C1529.8 163.698 1530.91 163.941 1532.23 163.941H1542.49V170.117H1532.23C1529.95 170.117 1527.91 169.84 1526.09 169.287C1524.3 168.712 1522.76 167.915 1521.48 166.896C1520.21 165.878 1519.25 164.683 1518.59 163.311C1517.92 161.916 1517.59 160.4 1517.59 158.762C1517.59 157.079 1517.92 155.53 1518.59 154.113C1519.27 152.697 1520.26 151.457 1521.54 150.395C1522.85 149.332 1524.42 148.513 1526.26 147.938C1528.12 147.362 1530.21 147.074 1532.53 147.074ZM1574.14 147.074V183H1565.34V147.074H1574.14ZM1585.82 147.074V153.914H1553.85V147.074H1585.82ZM1604.72 183.664C1601.99 183.664 1599.55 183.221 1597.38 182.336C1595.21 181.451 1593.36 180.222 1591.83 178.65C1590.33 177.057 1589.17 175.208 1588.35 173.105C1587.55 170.98 1587.15 168.701 1587.15 166.266V164.938C1587.15 162.171 1587.55 159.658 1588.35 157.4C1589.14 155.12 1590.27 153.161 1591.73 151.523C1593.2 149.885 1594.94 148.624 1596.98 147.738C1599.02 146.853 1601.26 146.41 1603.72 146.41C1606.27 146.41 1608.51 146.842 1610.46 147.705C1612.41 148.546 1614.04 149.742 1615.34 151.291C1616.65 152.84 1617.63 154.7 1618.3 156.869C1618.96 159.016 1619.29 161.396 1619.29 164.008V167.693H1591.14V161.65H1610.66V160.986C1610.62 159.592 1610.35 158.319 1609.86 157.168C1609.38 155.995 1608.62 155.065 1607.61 154.379C1606.59 153.671 1605.27 153.316 1603.65 153.316C1602.35 153.316 1601.21 153.604 1600.23 154.18C1599.28 154.733 1598.49 155.53 1597.84 156.57C1597.22 157.589 1596.76 158.806 1596.45 160.223C1596.14 161.639 1595.98 163.211 1595.98 164.938V166.266C1595.98 167.771 1596.18 169.165 1596.58 170.449C1597 171.733 1597.61 172.851 1598.41 173.803C1599.23 174.732 1600.2 175.463 1601.33 175.994C1602.48 176.503 1603.79 176.758 1605.25 176.758C1607.09 176.758 1608.75 176.404 1610.23 175.695C1611.73 174.965 1613.04 173.891 1614.15 172.475L1618.56 177.057C1617.81 178.163 1616.79 179.226 1615.51 180.244C1614.25 181.262 1612.72 182.092 1610.93 182.734C1609.13 183.354 1607.06 183.664 1604.72 183.664ZM1649.31 147.074V154.014H1631.71V147.074H1649.31ZM1655.92 147.074V183H1647.15V147.074H1655.92ZM1629.52 147.074H1638.19L1637.22 165.004C1637.07 167.638 1636.79 169.951 1636.39 171.943C1635.99 173.913 1635.46 175.607 1634.8 177.023C1634.13 178.418 1633.33 179.558 1632.38 180.443C1631.42 181.329 1630.32 181.982 1629.05 182.402C1627.82 182.801 1626.42 183 1624.87 183H1622.18L1622.08 175.928L1623.34 175.828C1624.12 175.762 1624.78 175.551 1625.34 175.197C1625.91 174.843 1626.4 174.334 1626.8 173.67C1627.22 173.006 1627.56 172.154 1627.83 171.113C1628.11 170.051 1628.34 168.811 1628.49 167.395C1628.67 165.956 1628.79 164.296 1628.86 162.414L1629.52 147.074ZM1670.19 158.131H1680.69C1683.87 158.131 1686.58 158.662 1688.82 159.725C1691.08 160.765 1692.79 162.226 1693.97 164.107C1695.16 165.967 1695.76 168.125 1695.76 170.582C1695.76 172.353 1695.42 174.002 1694.73 175.529C1694.07 177.035 1693.09 178.352 1691.81 179.48C1690.52 180.587 1688.94 181.451 1687.06 182.07C1685.2 182.69 1683.08 183 1680.69 183H1664.55V147.074H1673.35V176.127H1680.69C1682.21 176.127 1683.43 175.872 1684.34 175.363C1685.27 174.832 1685.93 174.157 1686.33 173.338C1686.75 172.497 1686.96 171.6 1686.96 170.648C1686.96 169.674 1686.75 168.767 1686.33 167.926C1685.93 167.062 1685.27 166.365 1684.34 165.834C1683.43 165.303 1682.21 165.037 1680.69 165.037H1670.19V158.131ZM1726.21 161.816V168.689H1707.78V161.816H1726.21ZM1710.54 147.074V183H1701.74V147.074H1710.54ZM1732.35 147.074V183H1723.52V147.074H1732.35ZM1738.76 165.402V164.705C1738.76 162.071 1739.13 159.647 1739.89 157.434C1740.64 155.198 1741.74 153.261 1743.17 151.623C1744.61 149.985 1746.37 148.712 1748.45 147.805C1750.53 146.875 1752.9 146.41 1755.56 146.41C1758.26 146.41 1760.65 146.875 1762.73 147.805C1764.83 148.712 1766.6 149.985 1768.04 151.623C1769.48 153.261 1770.58 155.198 1771.33 157.434C1772.08 159.647 1772.46 162.071 1772.46 164.705V165.402C1772.46 168.014 1772.08 170.438 1771.33 172.674C1770.58 174.887 1769.48 176.824 1768.04 178.484C1766.6 180.122 1764.84 181.395 1762.76 182.303C1760.68 183.21 1758.3 183.664 1755.62 183.664C1752.97 183.664 1750.59 183.21 1748.49 182.303C1746.38 181.395 1744.61 180.122 1743.17 178.484C1741.74 176.824 1740.64 174.887 1739.89 172.674C1739.13 170.438 1738.76 168.014 1738.76 165.402ZM1747.52 164.705V165.402C1747.52 166.974 1747.68 168.446 1747.99 169.818C1748.3 171.191 1748.77 172.397 1749.42 173.438C1750.06 174.478 1750.89 175.297 1751.91 175.895C1752.95 176.47 1754.19 176.758 1755.62 176.758C1757.04 176.758 1758.26 176.47 1759.28 175.895C1760.3 175.297 1761.13 174.478 1761.77 173.438C1762.43 172.397 1762.92 171.191 1763.23 169.818C1763.54 168.446 1763.69 166.974 1763.69 165.402V164.705C1763.69 163.156 1763.54 161.706 1763.23 160.355C1762.92 158.983 1762.43 157.777 1761.77 156.736C1761.13 155.674 1760.28 154.844 1759.24 154.246C1758.23 153.626 1757 153.316 1755.56 153.316C1754.14 153.316 1752.92 153.626 1751.91 154.246C1750.89 154.844 1750.06 155.674 1749.42 156.736C1748.77 157.777 1748.3 158.983 1747.99 160.355C1747.68 161.706 1747.52 163.156 1747.52 164.705Z" fill="white"/>
<path d="M1933.98 148.781C1930.85 148.781 1928.03 148.273 1925.5 147.258C1923 146.216 1920.86 144.771 1919.09 142.922C1917.35 141.073 1916.01 138.898 1915.07 136.398C1914.13 133.898 1913.66 131.203 1913.66 128.312V126.75C1913.66 123.443 1914.15 120.448 1915.11 117.766C1916.07 115.083 1917.41 112.792 1919.13 110.891C1920.85 108.964 1922.88 107.492 1925.23 106.477C1927.57 105.461 1930.11 104.953 1932.84 104.953C1935.86 104.953 1938.51 105.461 1940.77 106.477C1943.04 107.492 1944.91 108.924 1946.4 110.773C1947.91 112.596 1949.03 114.771 1949.76 117.297C1950.51 119.823 1950.89 122.609 1950.89 125.656V129.68H1918.23V122.922H1941.59V122.18C1941.54 120.487 1941.2 118.898 1940.58 117.414C1939.98 115.93 1939.05 114.732 1937.8 113.82C1936.55 112.909 1934.89 112.453 1932.8 112.453C1931.24 112.453 1929.85 112.792 1928.62 113.469C1927.43 114.12 1926.42 115.07 1925.62 116.32C1924.81 117.57 1924.18 119.081 1923.74 120.852C1923.33 122.596 1923.12 124.562 1923.12 126.75V128.312C1923.12 130.161 1923.36 131.88 1923.86 133.469C1924.38 135.031 1925.14 136.398 1926.12 137.57C1927.11 138.742 1928.31 139.667 1929.72 140.344C1931.12 140.995 1932.73 141.32 1934.52 141.32C1936.79 141.32 1938.81 140.865 1940.58 139.953C1942.35 139.042 1943.89 137.753 1945.19 136.086L1950.15 140.891C1949.24 142.219 1948.05 143.495 1946.59 144.719C1945.14 145.917 1943.35 146.893 1941.24 147.648C1939.16 148.404 1936.74 148.781 1933.98 148.781ZM1967.69 113.781V148H1958.27V105.734H1967.26L1967.69 113.781ZM1980.62 105.461L1980.54 114.211C1979.97 114.107 1979.34 114.029 1978.66 113.977C1978.01 113.924 1977.36 113.898 1976.71 113.898C1975.1 113.898 1973.68 114.133 1972.45 114.602C1971.23 115.044 1970.2 115.695 1969.37 116.555C1968.56 117.388 1967.93 118.404 1967.49 119.602C1967.05 120.799 1966.79 122.141 1966.71 123.625L1964.56 123.781C1964.56 121.125 1964.82 118.664 1965.34 116.398C1965.86 114.133 1966.65 112.141 1967.69 110.422C1968.76 108.703 1970.08 107.362 1971.67 106.398C1973.29 105.435 1975.15 104.953 1977.26 104.953C1977.83 104.953 1978.44 105.005 1979.09 105.109C1979.77 105.214 1980.28 105.331 1980.62 105.461ZM2024.09 140.5V148H1985.97V141.555L2004.48 121.359C2006.52 119.068 2008.12 117.089 2009.29 115.422C2010.46 113.755 2011.28 112.258 2011.75 110.93C2012.24 109.576 2012.49 108.26 2012.49 106.984C2012.49 105.188 2012.15 103.612 2011.48 102.258C2010.83 100.878 2009.86 99.7969 2008.59 99.0156C2007.31 98.2083 2005.76 97.8047 2003.94 97.8047C2001.83 97.8047 2000.06 98.2604 1998.62 99.1719C1997.19 100.083 1996.11 101.346 1995.38 102.961C1994.65 104.549 1994.29 106.372 1994.29 108.43H1984.88C1984.88 105.122 1985.63 102.102 1987.14 99.3672C1988.65 96.6068 1990.84 94.4193 1993.7 92.8047C1996.57 91.1641 2000.02 90.3438 2004.05 90.3438C2007.86 90.3438 2011.09 90.9818 2013.74 92.2578C2016.4 93.5339 2018.42 95.3438 2019.8 97.6875C2021.2 100.031 2021.91 102.805 2021.91 106.008C2021.91 107.779 2021.62 109.536 2021.05 111.281C2020.47 113.026 2019.65 114.771 2018.59 116.516C2017.54 118.234 2016.31 119.966 2014.88 121.711C2013.44 123.43 2011.87 125.174 2010.15 126.945L1997.84 140.5H2024.09ZM2068.51 114.797V124.094C2068.51 128.547 2068.07 132.349 2067.18 135.5C2066.32 138.625 2065.07 141.164 2063.43 143.117C2061.79 145.07 2059.82 146.503 2057.53 147.414C2055.27 148.326 2052.73 148.781 2049.91 148.781C2047.67 148.781 2045.59 148.495 2043.66 147.922C2041.76 147.349 2040.04 146.451 2038.51 145.227C2036.97 144.003 2035.66 142.427 2034.56 140.5C2033.49 138.547 2032.66 136.216 2032.06 133.508C2031.49 130.799 2031.2 127.661 2031.2 124.094V114.797C2031.2 110.318 2031.65 106.542 2032.53 103.469C2033.42 100.37 2034.68 97.8568 2036.32 95.9297C2037.96 93.9766 2039.91 92.5573 2042.18 91.6719C2044.47 90.7865 2047.02 90.3438 2049.84 90.3438C2052.1 90.3438 2054.18 90.6302 2056.09 91.2031C2058.01 91.75 2059.73 92.6224 2061.24 93.8203C2062.78 95.0182 2064.08 96.5807 2065.15 98.5078C2066.24 100.409 2067.08 102.714 2067.65 105.422C2068.22 108.104 2068.51 111.229 2068.51 114.797ZM2059.09 125.422V113.391C2059.09 111.125 2058.96 109.133 2058.7 107.414C2058.44 105.669 2058.05 104.198 2057.53 103C2057.04 101.776 2056.41 100.786 2055.66 100.031C2054.9 99.25 2054.04 98.6901 2053.08 98.3516C2052.11 97.987 2051.03 97.8047 2049.84 97.8047C2048.38 97.8047 2047.08 98.0911 2045.93 98.6641C2044.78 99.2109 2043.82 100.096 2043.04 101.32C2042.26 102.544 2041.66 104.159 2041.24 106.164C2040.85 108.143 2040.66 110.552 2040.66 113.391V125.422C2040.66 127.714 2040.79 129.732 2041.05 131.477C2041.31 133.221 2041.7 134.719 2042.22 135.969C2042.74 137.193 2043.36 138.208 2044.09 139.016C2044.85 139.797 2045.71 140.37 2046.67 140.734C2047.66 141.099 2048.74 141.281 2049.91 141.281C2051.4 141.281 2052.71 140.995 2053.86 140.422C2055.01 139.849 2055.97 138.938 2056.75 137.688C2057.53 136.411 2058.12 134.758 2058.51 132.727C2058.9 130.695 2059.09 128.26 2059.09 125.422ZM2102.61 90.9297V148H2093.2V102.102L2079.25 106.828V99.0547L2101.48 90.9297H2102.61ZM2123.31 143.312C2123.31 141.854 2123.81 140.63 2124.8 139.641C2125.79 138.625 2127.13 138.117 2128.82 138.117C2130.54 138.117 2131.88 138.625 2132.84 139.641C2133.83 140.63 2134.33 141.854 2134.33 143.312C2134.33 144.771 2133.83 145.995 2132.84 146.984C2131.88 147.974 2130.54 148.469 2128.82 148.469C2127.13 148.469 2125.79 147.974 2124.8 146.984C2123.81 145.995 2123.31 144.771 2123.31 143.312Z" fill="#7666C4"/>
<path fill-rule="evenodd" clip-rule="evenodd" d="M248.5 120C248.5 79.1298 215.37 46 174.5 46C133.63 46 100.5 79.1298 100.5 120C100.5 160.87 133.63 194 174.5 194C215.37 194 248.5 160.87 248.5 120ZM174.5 83C176.463 83 178.345 83.7796 179.733 85.1674C181.12 86.5552 181.9 88.4374 181.9 90.4V127.4C181.9 129.363 181.12 131.245 179.733 132.633C178.345 134.02 176.463 134.8 174.5 134.8C172.537 134.8 170.655 134.02 169.267 132.633C167.88 131.245 167.1 129.363 167.1 127.4V90.4C167.1 88.4374 167.88 86.5552 169.267 85.1674C170.655 83.7796 172.537 83 174.5 83ZM167.1 149.6C167.1 147.637 167.88 145.755 169.267 144.367C170.655 142.98 172.537 142.2 174.5 142.2H174.559C176.522 142.2 178.404 142.98 179.792 144.367C181.18 145.755 181.959 147.637 181.959 149.6C181.959 151.563 181.18 153.445 179.792 154.833C178.404 156.22 176.522 157 174.559 157H174.5C172.537 157 170.655 156.22 169.267 154.833C167.88 153.445 167.1 151.563 167.1 149.6Z" fill="#E6E6E6"/>
</svg>
