<svg width="2241" height="240" viewBox="0 0 2241 240" fill="none" xmlns="http://www.w3.org/2000/svg">
<rect x="0.5" width="2240" height="240" rx="30" fill="#131313"/>
<path d="M433.643 81.4512H421.291L421.225 75.0098H431.816C433.632 75.0098 435.148 74.7552 436.365 74.2461C437.583 73.737 438.501 72.9954 439.121 72.0215C439.763 71.0475 440.084 69.8633 440.084 68.4688C440.084 66.9193 439.785 65.6576 439.188 64.6836C438.612 63.7096 437.704 63.0013 436.465 62.5586C435.225 62.0938 433.654 61.8613 431.75 61.8613H424.246V103H415.115V54.6562H431.75C434.495 54.6562 436.941 54.9219 439.088 55.4531C441.257 55.9622 443.094 56.7591 444.6 57.8438C446.105 58.9284 447.245 60.2897 448.02 61.9277C448.816 63.5658 449.215 65.5137 449.215 67.7715C449.215 69.7637 448.75 71.6009 447.82 73.2832C446.913 74.9434 445.507 76.2936 443.604 77.334C441.722 78.3743 439.331 78.972 436.432 79.127L433.643 81.4512ZM433.244 103H418.602L422.42 95.8281H433.244C435.059 95.8281 436.553 95.5293 437.727 94.9316C438.922 94.334 439.807 93.515 440.383 92.4746C440.98 91.4121 441.279 90.1947 441.279 88.8223C441.279 87.3171 441.014 86.0111 440.482 84.9043C439.973 83.7975 439.154 82.9453 438.025 82.3477C436.919 81.75 435.458 81.4512 433.643 81.4512H424.146L424.213 75.0098H436.299L438.391 77.5C441.18 77.5221 443.449 78.0755 445.197 79.1602C446.968 80.2448 448.274 81.6393 449.115 83.3438C449.956 85.0482 450.377 86.8854 450.377 88.8555C450.377 91.9544 449.702 94.5553 448.352 96.6582C447.023 98.7611 445.076 100.344 442.508 101.406C439.962 102.469 436.874 103 433.244 103ZM475.279 87.793H463.891L463.824 81.8496H473.188C474.582 81.8496 475.722 81.7057 476.607 81.418C477.493 81.1302 478.146 80.6986 478.566 80.123C479.009 79.5475 479.23 78.8503 479.23 78.0312C479.23 77.3229 479.098 76.7142 478.832 76.2051C478.566 75.6738 478.168 75.2422 477.637 74.9102C477.128 74.5781 476.475 74.3346 475.678 74.1797C474.903 74.0026 473.995 73.9141 472.955 73.9141H467.012V103H458.213V67.0742H472.955C475.279 67.0742 477.371 67.2845 479.23 67.7051C481.09 68.1035 482.673 68.7122 483.979 69.5312C485.285 70.3503 486.281 71.3906 486.967 72.6523C487.675 73.8919 488.029 75.3529 488.029 77.0352C488.029 78.1419 487.786 79.1823 487.299 80.1562C486.812 81.1302 486.092 81.9935 485.141 82.7461C484.189 83.4987 483.016 84.1185 481.621 84.6055C480.227 85.0703 478.633 85.3581 476.84 85.4688L475.279 87.793ZM475.279 103H461.533L464.787 96.1602H475.279C476.563 96.1602 477.626 96.0052 478.467 95.6953C479.308 95.3633 479.928 94.8874 480.326 94.2676C480.747 93.6478 480.957 92.8952 480.957 92.0098C480.957 91.1465 480.758 90.4049 480.359 89.7852C479.983 89.1432 479.374 88.6562 478.533 88.3242C477.714 87.9701 476.63 87.793 475.279 87.793H466.215L466.281 81.8496H476.807L479.131 84.207C481.521 84.362 483.503 84.849 485.074 85.668C486.646 86.4648 487.819 87.4831 488.594 88.7227C489.368 89.9401 489.756 91.2793 489.756 92.7402C489.756 94.4447 489.435 95.9388 488.793 97.2227C488.151 98.5065 487.21 99.5801 485.971 100.443C484.731 101.285 483.215 101.926 481.422 102.369C479.629 102.79 477.581 103 475.279 103ZM512.268 103.664C509.545 103.664 507.099 103.221 504.93 102.336C502.76 101.451 500.912 100.222 499.385 98.6504C497.88 97.0566 496.717 95.2083 495.898 93.1055C495.102 90.9805 494.703 88.7005 494.703 86.2656V84.9375C494.703 82.1706 495.102 79.6582 495.898 77.4004C496.695 75.1204 497.824 73.1615 499.285 71.5234C500.746 69.8854 502.495 68.6237 504.531 67.7383C506.568 66.8529 508.814 66.4102 511.271 66.4102C513.817 66.4102 516.064 66.8418 518.012 67.7051C519.96 68.5462 521.587 69.7415 522.893 71.291C524.199 72.8405 525.184 74.6999 525.848 76.8691C526.512 79.0163 526.844 81.3958 526.844 84.0078V87.6934H498.688V81.6504H518.211V80.9863C518.167 79.5918 517.901 78.319 517.414 77.168C516.927 75.9948 516.174 75.0651 515.156 74.3789C514.138 73.6706 512.821 73.3164 511.205 73.3164C509.899 73.3164 508.759 73.6042 507.785 74.1797C506.833 74.7331 506.036 75.5299 505.395 76.5703C504.775 77.5885 504.31 78.806 504 80.2227C503.69 81.6393 503.535 83.2109 503.535 84.9375V86.2656C503.535 87.7708 503.734 89.1654 504.133 90.4492C504.553 91.7331 505.162 92.8509 505.959 93.8027C506.778 94.7324 507.752 95.4629 508.881 95.9941C510.032 96.5033 511.338 96.7578 512.799 96.7578C514.636 96.7578 516.296 96.4036 517.779 95.6953C519.285 94.9648 520.59 93.8913 521.697 92.4746L526.113 97.0566C525.361 98.1634 524.342 99.2259 523.059 100.244C521.797 101.262 520.27 102.092 518.477 102.734C516.684 103.354 514.614 103.664 512.268 103.664ZM539.195 67.0742H547.961L547.629 79.4258C547.518 83.1667 547.076 86.3984 546.301 89.1211C545.548 91.8216 544.541 94.0905 543.279 95.9277C542.04 97.765 540.623 99.248 539.029 100.377C537.458 101.506 535.809 102.38 534.082 103H531.99L531.957 96.1602L532.986 96.0938C534.027 94.987 534.901 93.9023 535.609 92.8398C536.34 91.7552 536.926 90.5931 537.369 89.3535C537.812 88.1139 538.144 86.6973 538.365 85.1035C538.609 83.4876 538.764 81.5951 538.83 79.4258L539.195 67.0742ZM541.553 67.0742H564.828V103H556.062V74.2793H541.553V67.0742ZM529.998 96.0938H569.842V113.758H561.076V103H538.93V113.758H529.965L529.998 96.0938ZM591.357 103.664C588.635 103.664 586.189 103.221 584.02 102.336C581.85 101.451 580.002 100.222 578.475 98.6504C576.969 97.0566 575.807 95.2083 574.988 93.1055C574.191 90.9805 573.793 88.7005 573.793 86.2656V84.9375C573.793 82.1706 574.191 79.6582 574.988 77.4004C575.785 75.1204 576.914 73.1615 578.375 71.5234C579.836 69.8854 581.585 68.6237 583.621 67.7383C585.658 66.8529 587.904 66.4102 590.361 66.4102C592.907 66.4102 595.154 66.8418 597.102 67.7051C599.049 68.5462 600.676 69.7415 601.982 71.291C603.288 72.8405 604.273 74.6999 604.938 76.8691C605.602 79.0163 605.934 81.3958 605.934 84.0078V87.6934H577.777V81.6504H597.301V80.9863C597.257 79.5918 596.991 78.319 596.504 77.168C596.017 75.9948 595.264 75.0651 594.246 74.3789C593.228 73.6706 591.911 73.3164 590.295 73.3164C588.989 73.3164 587.849 73.6042 586.875 74.1797C585.923 74.7331 585.126 75.5299 584.484 76.5703C583.865 77.5885 583.4 78.806 583.09 80.2227C582.78 81.6393 582.625 83.2109 582.625 84.9375V86.2656C582.625 87.7708 582.824 89.1654 583.223 90.4492C583.643 91.7331 584.252 92.8509 585.049 93.8027C585.868 94.7324 586.842 95.4629 587.971 95.9941C589.122 96.5033 590.428 96.7578 591.889 96.7578C593.726 96.7578 595.386 96.4036 596.869 95.6953C598.374 94.9648 599.68 93.8913 600.787 92.4746L605.203 97.0566C604.451 98.1634 603.432 99.2259 602.148 100.244C600.887 101.262 599.359 102.092 597.566 102.734C595.773 103.354 593.704 103.664 591.357 103.664ZM636.348 81.8164V88.6895H617.92V81.8164H636.348ZM620.676 67.0742V103H611.877V67.0742H620.676ZM642.49 67.0742V103H633.658V67.0742H642.49ZM674.996 81.8164V88.6895H656.568V81.8164H674.996ZM659.324 67.0742V103H650.525V67.0742H659.324ZM681.139 67.0742V103H672.307V67.0742H681.139ZM708.896 95.3633V78.7949C708.896 77.5775 708.686 76.526 708.266 75.6406C707.845 74.7552 707.203 74.069 706.34 73.582C705.477 73.0951 704.381 72.8516 703.053 72.8516C701.88 72.8516 700.85 73.0508 699.965 73.4492C699.102 73.8477 698.438 74.4121 697.973 75.1426C697.508 75.8509 697.275 76.6699 697.275 77.5996H688.477C688.477 76.1165 688.831 74.7109 689.539 73.3828C690.247 72.0326 691.255 70.8372 692.561 69.7969C693.889 68.7344 695.471 67.9043 697.309 67.3066C699.168 66.709 701.249 66.4102 703.551 66.4102C706.273 66.4102 708.697 66.875 710.822 67.8047C712.969 68.7122 714.652 70.0846 715.869 71.9219C717.109 73.7591 717.729 76.0723 717.729 78.8613V94.5332C717.729 96.3262 717.839 97.8646 718.061 99.1484C718.304 100.41 718.658 101.506 719.123 102.436V103H710.191C709.771 102.092 709.45 100.941 709.229 99.5469C709.007 98.1302 708.896 96.7357 708.896 95.3633ZM710.125 81.1191L710.191 86.332H704.646C703.274 86.332 702.068 86.4759 701.027 86.7637C699.987 87.0293 699.135 87.4277 698.471 87.959C697.807 88.4681 697.309 89.0879 696.977 89.8184C696.645 90.5267 696.479 91.3346 696.479 92.2422C696.479 93.1276 696.678 93.9245 697.076 94.6328C697.497 95.3411 698.094 95.9056 698.869 96.3262C699.666 96.7246 700.596 96.9238 701.658 96.9238C703.208 96.9238 704.558 96.6139 705.709 95.9941C706.86 95.3522 707.757 94.5775 708.398 93.6699C709.04 92.7624 709.383 91.8991 709.428 91.0801L711.951 94.8652C711.641 95.7728 711.176 96.7357 710.557 97.7539C709.937 98.7721 709.14 99.724 708.166 100.609C707.192 101.495 706.019 102.225 704.646 102.801C703.274 103.376 701.68 103.664 699.865 103.664C697.541 103.664 695.46 103.199 693.623 102.27C691.786 101.34 690.336 100.067 689.273 98.4512C688.211 96.8353 687.68 94.998 687.68 92.9395C687.68 91.0358 688.034 89.3535 688.742 87.8926C689.451 86.4316 690.502 85.2031 691.896 84.207C693.291 83.1888 695.018 82.4251 697.076 81.916C699.157 81.3848 701.536 81.1191 704.215 81.1191H710.125ZM733.268 85.2695H742.266L732.172 103H723.174L733.268 85.2695ZM739.377 67.0742H754.982V103H746.217V73.9141H739.377C737.982 73.9141 736.82 74.1686 735.891 74.6777C734.983 75.1868 734.308 75.8398 733.865 76.6367C733.423 77.4115 733.201 78.2083 733.201 79.0273C733.201 79.8242 733.411 80.599 733.832 81.3516C734.253 82.1042 734.895 82.724 735.758 83.2109C736.643 83.6979 737.75 83.9414 739.078 83.9414H749.338V90.1172H739.078C736.798 90.1172 734.751 89.8405 732.936 89.2871C731.143 88.7116 729.604 87.9147 728.32 86.8965C727.059 85.8783 726.096 84.6829 725.432 83.3105C724.768 81.916 724.436 80.3997 724.436 78.7617C724.436 77.0794 724.768 75.5299 725.432 74.1133C726.118 72.6966 727.103 71.457 728.387 70.3945C729.693 69.332 731.264 68.513 733.102 67.9375C734.961 67.362 737.053 67.0742 739.377 67.0742ZM798.146 87.793H786.758L786.691 81.8496H796.055C797.449 81.8496 798.589 81.7057 799.475 81.418C800.36 81.1302 801.013 80.6986 801.434 80.123C801.876 79.5475 802.098 78.8503 802.098 78.0312C802.098 77.3229 801.965 76.7142 801.699 76.2051C801.434 75.6738 801.035 75.2422 800.504 74.9102C799.995 74.5781 799.342 74.3346 798.545 74.1797C797.77 74.0026 796.863 73.9141 795.822 73.9141H789.879V103H781.08V67.0742H795.822C798.146 67.0742 800.238 67.2845 802.098 67.7051C803.957 68.1035 805.54 68.7122 806.846 69.5312C808.152 70.3503 809.148 71.3906 809.834 72.6523C810.542 73.8919 810.896 75.3529 810.896 77.0352C810.896 78.1419 810.653 79.1823 810.166 80.1562C809.679 81.1302 808.96 81.9935 808.008 82.7461C807.056 83.4987 805.883 84.1185 804.488 84.6055C803.094 85.0703 801.5 85.3581 799.707 85.4688L798.146 87.793ZM798.146 103H784.4L787.654 96.1602H798.146C799.43 96.1602 800.493 96.0052 801.334 95.6953C802.175 95.3633 802.795 94.8874 803.193 94.2676C803.614 93.6478 803.824 92.8952 803.824 92.0098C803.824 91.1465 803.625 90.4049 803.227 89.7852C802.85 89.1432 802.242 88.6562 801.4 88.3242C800.581 87.9701 799.497 87.793 798.146 87.793H789.082L789.148 81.8496H799.674L801.998 84.207C804.389 84.362 806.37 84.849 807.941 85.668C809.513 86.4648 810.686 87.4831 811.461 88.7227C812.236 89.9401 812.623 91.2793 812.623 92.7402C812.623 94.4447 812.302 95.9388 811.66 97.2227C811.018 98.5065 810.077 99.5801 808.838 100.443C807.598 101.285 806.082 101.926 804.289 102.369C802.496 102.79 800.449 103 798.146 103ZM838.787 95.3633V78.7949C838.787 77.5775 838.577 76.526 838.156 75.6406C837.736 74.7552 837.094 74.069 836.23 73.582C835.367 73.0951 834.271 72.8516 832.943 72.8516C831.77 72.8516 830.741 73.0508 829.855 73.4492C828.992 73.8477 828.328 74.4121 827.863 75.1426C827.398 75.8509 827.166 76.6699 827.166 77.5996H818.367C818.367 76.1165 818.721 74.7109 819.43 73.3828C820.138 72.0326 821.145 70.8372 822.451 69.7969C823.779 68.7344 825.362 67.9043 827.199 67.3066C829.059 66.709 831.139 66.4102 833.441 66.4102C836.164 66.4102 838.588 66.875 840.713 67.8047C842.86 68.7122 844.542 70.0846 845.76 71.9219C846.999 73.7591 847.619 76.0723 847.619 78.8613V94.5332C847.619 96.3262 847.73 97.8646 847.951 99.1484C848.195 100.41 848.549 101.506 849.014 102.436V103H840.082C839.661 102.092 839.34 100.941 839.119 99.5469C838.898 98.1302 838.787 96.7357 838.787 95.3633ZM840.016 81.1191L840.082 86.332H834.537C833.165 86.332 831.958 86.4759 830.918 86.7637C829.878 87.0293 829.025 87.4277 828.361 87.959C827.697 88.4681 827.199 89.0879 826.867 89.8184C826.535 90.5267 826.369 91.3346 826.369 92.2422C826.369 93.1276 826.568 93.9245 826.967 94.6328C827.387 95.3411 827.985 95.9056 828.76 96.3262C829.557 96.7246 830.486 96.9238 831.549 96.9238C833.098 96.9238 834.449 96.6139 835.6 95.9941C836.751 95.3522 837.647 94.5775 838.289 93.6699C838.931 92.7624 839.274 91.8991 839.318 91.0801L841.842 94.8652C841.532 95.7728 841.067 96.7357 840.447 97.7539C839.827 98.7721 839.031 99.724 838.057 100.609C837.083 101.495 835.91 102.225 834.537 102.801C833.165 103.376 831.571 103.664 829.756 103.664C827.432 103.664 825.351 103.199 823.514 102.27C821.676 101.34 820.227 100.067 819.164 98.4512C818.102 96.8353 817.57 94.998 817.57 92.9395C817.57 91.0358 817.924 89.3535 818.633 87.8926C819.341 86.4316 820.393 85.2031 821.787 84.207C823.182 83.1888 824.908 82.4251 826.967 81.916C829.048 81.3848 831.427 81.1191 834.105 81.1191H840.016ZM877.07 92.6406L887.164 67.0742H894.502L880.059 103H874.115L859.705 67.0742H867.076L877.07 92.6406ZM864.918 67.0742V103H856.119V67.0742H864.918ZM889.389 103V67.0742H898.188V103H889.389ZM915.785 90.4824L928.867 67.0742H937.666V103H928.867V79.5586L915.785 103H906.986V67.0742H915.785V90.4824ZM977.311 96.7578C978.55 96.7578 979.657 96.5143 980.631 96.0273C981.605 95.5404 982.38 94.8542 982.955 93.9688C983.553 93.0833 983.874 92.054 983.918 90.8809H992.186C992.141 93.3158 991.455 95.4961 990.127 97.4219C988.799 99.3477 987.028 100.875 984.814 102.004C982.623 103.111 980.166 103.664 977.443 103.664C974.676 103.664 972.264 103.199 970.205 102.27C968.146 101.34 966.431 100.045 965.059 98.3848C963.708 96.7246 962.69 94.7988 962.004 92.6074C961.34 90.416 961.008 88.0697 961.008 85.5684V84.5059C961.008 82.0046 961.34 79.6582 962.004 77.4668C962.69 75.2754 963.708 73.3496 965.059 71.6895C966.431 70.0293 968.146 68.7344 970.205 67.8047C972.264 66.875 974.665 66.4102 977.41 66.4102C980.31 66.4102 982.855 66.9746 985.047 68.1035C987.26 69.2324 988.987 70.8262 990.227 72.8848C991.488 74.9434 992.141 77.3672 992.186 80.1562H983.918C983.874 78.8724 983.586 77.7214 983.055 76.7031C982.523 75.6849 981.771 74.8659 980.797 74.2461C979.823 73.6263 978.639 73.3164 977.244 73.3164C975.761 73.3164 974.521 73.6263 973.525 74.2461C972.551 74.8659 971.788 75.7181 971.234 76.8027C970.703 77.8652 970.327 79.0605 970.105 80.3887C969.906 81.6947 969.807 83.0671 969.807 84.5059V85.5684C969.807 87.0293 969.906 88.4238 970.105 89.752C970.327 91.0801 970.703 92.2754 971.234 93.3379C971.788 94.3783 972.551 95.2083 973.525 95.8281C974.521 96.4479 975.783 96.7578 977.311 96.7578ZM1008.55 99.0156L1018.18 67.0742H1027.58L1013.17 108.445C1012.84 109.331 1012.41 110.294 1011.88 111.334C1011.37 112.374 1010.68 113.359 1009.82 114.289C1008.95 115.241 1007.87 116.016 1006.56 116.613C1005.28 117.211 1003.72 117.51 1001.88 117.51C1001.08 117.51 1000.38 117.454 999.756 117.344C999.136 117.233 998.483 117.089 997.797 116.912V110.338C998.018 110.36 998.273 110.371 998.561 110.371C998.87 110.393 999.136 110.404 999.357 110.404C1000.64 110.404 1001.7 110.249 1002.54 109.939C1003.39 109.652 1004.06 109.176 1004.57 108.512C1005.1 107.87 1005.54 107.029 1005.9 105.988L1008.55 99.0156ZM1003.81 67.0742L1011.94 93.5371L1013.37 102.801L1007.33 103.896L994.344 67.0742H1003.81ZM1053.38 92.6406L1063.47 67.0742H1070.81L1056.37 103H1050.42L1036.01 67.0742H1043.38L1053.38 92.6406ZM1041.23 67.0742V103H1032.43V67.0742H1041.23ZM1065.7 103V67.0742H1074.5V103H1065.7ZM1104.78 92.6406L1114.87 67.0742H1122.21L1107.77 103H1101.82L1087.41 67.0742H1094.78L1104.78 92.6406ZM1092.62 67.0742V103H1083.83V67.0742H1092.62ZM1117.1 103V67.0742H1125.89V103H1117.1ZM1154.42 95.3633V78.7949C1154.42 77.5775 1154.21 76.526 1153.79 75.6406C1153.36 74.7552 1152.72 74.069 1151.86 73.582C1151 73.0951 1149.9 72.8516 1148.57 72.8516C1147.4 72.8516 1146.37 73.0508 1145.48 73.4492C1144.62 73.8477 1143.96 74.4121 1143.49 75.1426C1143.03 75.8509 1142.79 76.6699 1142.79 77.5996H1134C1134 76.1165 1134.35 74.7109 1135.06 73.3828C1135.77 72.0326 1136.77 70.8372 1138.08 69.7969C1139.41 68.7344 1140.99 67.9043 1142.83 67.3066C1144.69 66.709 1146.77 66.4102 1149.07 66.4102C1151.79 66.4102 1154.22 66.875 1156.34 67.8047C1158.49 68.7122 1160.17 70.0846 1161.39 71.9219C1162.63 73.7591 1163.25 76.0723 1163.25 78.8613V94.5332C1163.25 96.3262 1163.36 97.8646 1163.58 99.1484C1163.82 100.41 1164.18 101.506 1164.64 102.436V103H1155.71C1155.29 102.092 1154.97 100.941 1154.75 99.5469C1154.53 98.1302 1154.42 96.7357 1154.42 95.3633ZM1155.64 81.1191L1155.71 86.332H1150.17C1148.79 86.332 1147.59 86.4759 1146.55 86.7637C1145.51 87.0293 1144.65 87.4277 1143.99 87.959C1143.33 88.4681 1142.83 89.0879 1142.5 89.8184C1142.16 90.5267 1142 91.3346 1142 92.2422C1142 93.1276 1142.2 93.9245 1142.6 94.6328C1143.02 95.3411 1143.61 95.9056 1144.39 96.3262C1145.19 96.7246 1146.12 96.9238 1147.18 96.9238C1148.73 96.9238 1150.08 96.6139 1151.23 95.9941C1152.38 95.3522 1153.28 94.5775 1153.92 93.6699C1154.56 92.7624 1154.9 91.8991 1154.95 91.0801L1157.47 94.8652C1157.16 95.7728 1156.7 96.7357 1156.08 97.7539C1155.46 98.7721 1154.66 99.724 1153.69 100.609C1152.71 101.495 1151.54 102.225 1150.17 102.801C1148.79 103.376 1147.2 103.664 1145.38 103.664C1143.06 103.664 1140.98 103.199 1139.14 102.27C1137.31 101.34 1135.86 100.067 1134.79 98.4512C1133.73 96.8353 1133.2 94.998 1133.2 92.9395C1133.2 91.0358 1133.55 89.3535 1134.26 87.8926C1134.97 86.4316 1136.02 85.2031 1137.42 84.207C1138.81 83.1888 1140.54 82.4251 1142.6 81.916C1144.68 81.3848 1147.06 81.1191 1149.73 81.1191H1155.64ZM1209.63 92.6406L1219.73 67.0742H1227.06L1212.62 103H1206.68L1192.27 67.0742H1199.64L1209.63 92.6406ZM1197.48 67.0742V103H1188.68V67.0742H1197.48ZM1221.95 103V67.0742H1230.75V103H1221.95ZM1255.62 103.664C1252.9 103.664 1250.45 103.221 1248.28 102.336C1246.11 101.451 1244.26 100.222 1242.74 98.6504C1241.23 97.0566 1240.07 95.2083 1239.25 93.1055C1238.45 90.9805 1238.05 88.7005 1238.05 86.2656V84.9375C1238.05 82.1706 1238.45 79.6582 1239.25 77.4004C1240.05 75.1204 1241.18 73.1615 1242.64 71.5234C1244.1 69.8854 1245.85 68.6237 1247.88 67.7383C1249.92 66.8529 1252.17 66.4102 1254.62 66.4102C1257.17 66.4102 1259.42 66.8418 1261.36 67.7051C1263.31 68.5462 1264.94 69.7415 1266.24 71.291C1267.55 72.8405 1268.54 74.6999 1269.2 76.8691C1269.86 79.0163 1270.2 81.3958 1270.2 84.0078V87.6934H1242.04V81.6504H1261.56V80.9863C1261.52 79.5918 1261.25 78.319 1260.77 77.168C1260.28 75.9948 1259.53 75.0651 1258.51 74.3789C1257.49 73.6706 1256.17 73.3164 1254.56 73.3164C1253.25 73.3164 1252.11 73.6042 1251.14 74.1797C1250.18 74.7331 1249.39 75.5299 1248.75 76.5703C1248.13 77.5885 1247.66 78.806 1247.35 80.2227C1247.04 81.6393 1246.89 83.2109 1246.89 84.9375V86.2656C1246.89 87.7708 1247.09 89.1654 1247.48 90.4492C1247.9 91.7331 1248.51 92.8509 1249.31 93.8027C1250.13 94.7324 1251.1 95.4629 1252.23 95.9941C1253.38 96.5033 1254.69 96.7578 1256.15 96.7578C1257.99 96.7578 1259.65 96.4036 1261.13 95.6953C1262.64 94.9648 1263.94 93.8913 1265.05 92.4746L1269.46 97.0566C1268.71 98.1634 1267.69 99.2259 1266.41 100.244C1265.15 101.262 1263.62 102.092 1261.83 102.734C1260.04 103.354 1257.97 103.664 1255.62 103.664ZM1300.61 81.8164V88.6895H1282.18V81.8164H1300.61ZM1284.94 67.0742V103H1276.14V67.0742H1284.94ZM1306.75 67.0742V103H1297.92V67.0742H1306.75ZM1320.96 78.1309H1331.46C1334.64 78.1309 1337.35 78.6621 1339.59 79.7246C1341.85 80.765 1343.56 82.2259 1344.74 84.1074C1345.93 85.9668 1346.53 88.125 1346.53 90.582C1346.53 92.3529 1346.19 94.002 1345.5 95.5293C1344.84 97.0345 1343.86 98.3516 1342.58 99.4805C1341.29 100.587 1339.71 101.451 1337.83 102.07C1335.97 102.69 1333.85 103 1331.46 103H1315.32V67.0742H1324.12V96.127H1331.46C1332.98 96.127 1334.2 95.8724 1335.11 95.3633C1336.04 94.832 1336.7 94.1569 1337.1 93.3379C1337.52 92.4967 1337.73 91.6003 1337.73 90.6484C1337.73 89.6745 1337.52 88.7669 1337.1 87.9258C1336.7 87.0625 1336.04 86.3652 1335.11 85.834C1334.2 85.3027 1332.98 85.0371 1331.46 85.0371H1320.96V78.1309ZM1352.51 67.0742H1361.3V96.0938H1371.96V67.0742H1380.79V96.0938H1391.45V67.0742H1400.22V103H1352.51V67.0742ZM1424.56 103.664C1421.83 103.664 1419.39 103.221 1417.22 102.336C1415.05 101.451 1413.2 100.222 1411.67 98.6504C1410.17 97.0566 1409.01 95.2083 1408.19 93.1055C1407.39 90.9805 1406.99 88.7005 1406.99 86.2656V84.9375C1406.99 82.1706 1407.39 79.6582 1408.19 77.4004C1408.98 75.1204 1410.11 73.1615 1411.57 71.5234C1413.04 69.8854 1414.78 68.6237 1416.82 67.7383C1418.86 66.8529 1421.1 66.4102 1423.56 66.4102C1426.11 66.4102 1428.35 66.8418 1430.3 67.7051C1432.25 68.5462 1433.88 69.7415 1435.18 71.291C1436.49 72.8405 1437.47 74.6999 1438.14 76.8691C1438.8 79.0163 1439.13 81.3958 1439.13 84.0078V87.6934H1410.98V81.6504H1430.5V80.9863C1430.46 79.5918 1430.19 78.319 1429.7 77.168C1429.22 75.9948 1428.46 75.0651 1427.45 74.3789C1426.43 73.6706 1425.11 73.3164 1423.49 73.3164C1422.19 73.3164 1421.05 73.6042 1420.07 74.1797C1419.12 74.7331 1418.33 75.5299 1417.68 76.5703C1417.06 77.5885 1416.6 78.806 1416.29 80.2227C1415.98 81.6393 1415.82 83.2109 1415.82 84.9375V86.2656C1415.82 87.7708 1416.02 89.1654 1416.42 90.4492C1416.84 91.7331 1417.45 92.8509 1418.25 93.8027C1419.07 94.7324 1420.04 95.4629 1421.17 95.9941C1422.32 96.5033 1423.63 96.7578 1425.09 96.7578C1426.93 96.7578 1428.59 96.4036 1430.07 95.6953C1431.57 94.9648 1432.88 93.8913 1433.99 92.4746L1438.4 97.0566C1437.65 98.1634 1436.63 99.2259 1435.35 100.244C1434.09 101.262 1432.56 102.092 1430.77 102.734C1428.97 103.354 1426.9 103.664 1424.56 103.664ZM436 172.641L446.094 147.074H453.432L438.988 183H433.045L418.635 147.074H426.006L436 172.641ZM423.848 147.074V183H415.049V147.074H423.848ZM448.318 183V147.074H457.117V183H448.318ZM474.715 170.482L487.797 147.074H496.596V183H487.797V159.559L474.715 183H465.916V147.074H474.715V170.482ZM529.102 161.816V168.689H510.674V161.816H529.102ZM513.43 147.074V183H504.631V147.074H513.43ZM535.244 147.074V183H526.412V147.074H535.244ZM552.078 170.482L565.16 147.074H573.959V183H565.16V159.559L552.078 183H543.279V147.074H552.078V170.482ZM603.477 172.641L613.57 147.074H620.908L606.465 183H600.521L586.111 147.074H593.482L603.477 172.641ZM591.324 147.074V183H582.525V147.074H591.324ZM615.795 183V147.074H624.594V183H615.795ZM653.115 175.363V158.795C653.115 157.577 652.905 156.526 652.484 155.641C652.064 154.755 651.422 154.069 650.559 153.582C649.695 153.095 648.6 152.852 647.271 152.852C646.098 152.852 645.069 153.051 644.184 153.449C643.32 153.848 642.656 154.412 642.191 155.143C641.727 155.851 641.494 156.67 641.494 157.6H632.695C632.695 156.117 633.049 154.711 633.758 153.383C634.466 152.033 635.473 150.837 636.779 149.797C638.107 148.734 639.69 147.904 641.527 147.307C643.387 146.709 645.467 146.41 647.77 146.41C650.492 146.41 652.916 146.875 655.041 147.805C657.188 148.712 658.87 150.085 660.088 151.922C661.327 153.759 661.947 156.072 661.947 158.861V174.533C661.947 176.326 662.058 177.865 662.279 179.148C662.523 180.41 662.877 181.506 663.342 182.436V183H654.41C653.99 182.092 653.669 180.941 653.447 179.547C653.226 178.13 653.115 176.736 653.115 175.363ZM654.344 161.119L654.41 166.332H648.865C647.493 166.332 646.286 166.476 645.246 166.764C644.206 167.029 643.354 167.428 642.689 167.959C642.025 168.468 641.527 169.088 641.195 169.818C640.863 170.527 640.697 171.335 640.697 172.242C640.697 173.128 640.896 173.924 641.295 174.633C641.715 175.341 642.313 175.906 643.088 176.326C643.885 176.725 644.814 176.924 645.877 176.924C647.426 176.924 648.777 176.614 649.928 175.994C651.079 175.352 651.975 174.577 652.617 173.67C653.259 172.762 653.602 171.899 653.646 171.08L656.17 174.865C655.86 175.773 655.395 176.736 654.775 177.754C654.156 178.772 653.359 179.724 652.385 180.609C651.411 181.495 650.238 182.225 648.865 182.801C647.493 183.376 645.899 183.664 644.084 183.664C641.76 183.664 639.679 183.199 637.842 182.27C636.005 181.34 634.555 180.067 633.492 178.451C632.43 176.835 631.898 174.998 631.898 172.939C631.898 171.036 632.253 169.354 632.961 167.893C633.669 166.432 634.721 165.203 636.115 164.207C637.51 163.189 639.236 162.425 641.295 161.916C643.376 161.385 645.755 161.119 648.434 161.119H654.344ZM693.988 147.074V154.014H676.391V147.074H693.988ZM700.596 147.074V183H691.83V147.074H700.596ZM674.199 147.074H682.865L681.902 165.004C681.747 167.638 681.471 169.951 681.072 171.943C680.674 173.913 680.143 175.607 679.479 177.023C678.814 178.418 678.007 179.558 677.055 180.443C676.103 181.329 674.996 181.982 673.734 182.402C672.495 182.801 671.1 183 669.551 183H666.861L666.762 175.928L668.023 175.828C668.798 175.762 669.462 175.551 670.016 175.197C670.591 174.843 671.078 174.334 671.477 173.67C671.897 173.006 672.24 172.154 672.506 171.113C672.794 170.051 673.015 168.811 673.17 167.395C673.347 165.956 673.469 164.296 673.535 162.414L674.199 147.074ZM714.873 158.131H725.365C728.553 158.131 731.264 158.662 733.5 159.725C735.758 160.765 737.473 162.226 738.646 164.107C739.842 165.967 740.439 168.125 740.439 170.582C740.439 172.353 740.096 174.002 739.41 175.529C738.746 177.035 737.772 178.352 736.488 179.48C735.204 180.587 733.622 181.451 731.74 182.07C729.881 182.69 727.756 183 725.365 183H709.229V147.074H718.027V176.127H725.365C726.893 176.127 728.11 175.872 729.018 175.363C729.947 174.832 730.611 174.157 731.01 173.338C731.43 172.497 731.641 171.6 731.641 170.648C731.641 169.674 731.43 168.767 731.01 167.926C730.611 167.062 729.947 166.365 729.018 165.834C728.11 165.303 726.893 165.037 725.365 165.037H714.873V158.131ZM770.887 161.816V168.689H752.459V161.816H770.887ZM755.215 147.074V183H746.416V147.074H755.215ZM777.029 147.074V183H768.197V147.074H777.029ZM783.438 165.402V164.705C783.438 162.071 783.814 159.647 784.566 157.434C785.319 155.198 786.415 153.261 787.854 151.623C789.292 149.985 791.052 148.712 793.133 147.805C795.214 146.875 797.582 146.41 800.238 146.41C802.939 146.41 805.329 146.875 807.41 147.805C809.513 148.712 811.284 149.985 812.723 151.623C814.161 153.261 815.257 155.198 816.01 157.434C816.762 159.647 817.139 162.071 817.139 164.705V165.402C817.139 168.014 816.762 170.438 816.01 172.674C815.257 174.887 814.161 176.824 812.723 178.484C811.284 180.122 809.524 181.395 807.443 182.303C805.363 183.21 802.983 183.664 800.305 183.664C797.648 183.664 795.269 183.21 793.166 182.303C791.063 181.395 789.292 180.122 787.854 178.484C786.415 176.824 785.319 174.887 784.566 172.674C783.814 170.438 783.438 168.014 783.438 165.402ZM792.203 164.705V165.402C792.203 166.974 792.358 168.446 792.668 169.818C792.978 171.191 793.454 172.397 794.096 173.438C794.738 174.478 795.568 175.297 796.586 175.895C797.626 176.47 798.866 176.758 800.305 176.758C801.721 176.758 802.939 176.47 803.957 175.895C804.975 175.297 805.805 174.478 806.447 173.438C807.111 172.397 807.598 171.191 807.908 169.818C808.218 168.446 808.373 166.974 808.373 165.402V164.705C808.373 163.156 808.218 161.706 807.908 160.355C807.598 158.983 807.111 157.777 806.447 156.736C805.805 155.674 804.964 154.844 803.924 154.246C802.906 153.626 801.677 153.316 800.238 153.316C798.822 153.316 797.604 153.626 796.586 154.246C795.568 154.844 794.738 155.674 794.096 156.736C793.454 157.777 792.978 158.983 792.668 160.355C792.358 161.706 792.203 163.156 792.203 164.705ZM832.379 170.482L845.461 147.074H854.26V183H845.461V159.559L832.379 183H823.58V147.074H832.379V170.482ZM843.834 132.963H850.209C850.209 134.822 849.755 136.471 848.848 137.91C847.94 139.349 846.645 140.478 844.963 141.297C843.303 142.094 841.333 142.492 839.053 142.492C835.622 142.492 832.899 141.607 830.885 139.836C828.87 138.065 827.863 135.774 827.863 132.963H834.238C834.238 134.136 834.604 135.188 835.334 136.117C836.064 137.047 837.304 137.512 839.053 137.512C840.801 137.512 842.03 137.047 842.738 136.117C843.469 135.188 843.834 134.136 843.834 132.963ZM893.904 176.758C895.144 176.758 896.251 176.514 897.225 176.027C898.199 175.54 898.973 174.854 899.549 173.969C900.146 173.083 900.467 172.054 900.512 170.881H908.779C908.735 173.316 908.049 175.496 906.721 177.422C905.393 179.348 903.622 180.875 901.408 182.004C899.217 183.111 896.76 183.664 894.037 183.664C891.27 183.664 888.857 183.199 886.799 182.27C884.74 181.34 883.025 180.045 881.652 178.385C880.302 176.725 879.284 174.799 878.598 172.607C877.934 170.416 877.602 168.07 877.602 165.568V164.506C877.602 162.005 877.934 159.658 878.598 157.467C879.284 155.275 880.302 153.35 881.652 151.689C883.025 150.029 884.74 148.734 886.799 147.805C888.857 146.875 891.259 146.41 894.004 146.41C896.904 146.41 899.449 146.975 901.641 148.104C903.854 149.232 905.581 150.826 906.82 152.885C908.082 154.943 908.735 157.367 908.779 160.156H900.512C900.467 158.872 900.18 157.721 899.648 156.703C899.117 155.685 898.365 154.866 897.391 154.246C896.417 153.626 895.232 153.316 893.838 153.316C892.355 153.316 891.115 153.626 890.119 154.246C889.145 154.866 888.382 155.718 887.828 156.803C887.297 157.865 886.921 159.061 886.699 160.389C886.5 161.695 886.4 163.067 886.4 164.506V165.568C886.4 167.029 886.5 168.424 886.699 169.752C886.921 171.08 887.297 172.275 887.828 173.338C888.382 174.378 889.145 175.208 890.119 175.828C891.115 176.448 892.377 176.758 893.904 176.758ZM932.055 147.074V183H923.256V147.074H932.055ZM943.742 147.074V153.914H911.768V147.074H943.742ZM968.146 175.363V158.795C968.146 157.577 967.936 156.526 967.516 155.641C967.095 154.755 966.453 154.069 965.59 153.582C964.727 153.095 963.631 152.852 962.303 152.852C961.13 152.852 960.1 153.051 959.215 153.449C958.352 153.848 957.688 154.412 957.223 155.143C956.758 155.851 956.525 156.67 956.525 157.6H947.727C947.727 156.117 948.081 154.711 948.789 153.383C949.497 152.033 950.505 150.837 951.811 149.797C953.139 148.734 954.721 147.904 956.559 147.307C958.418 146.709 960.499 146.41 962.801 146.41C965.523 146.41 967.947 146.875 970.072 147.805C972.219 148.712 973.902 150.085 975.119 151.922C976.359 153.759 976.979 156.072 976.979 158.861V174.533C976.979 176.326 977.089 177.865 977.311 179.148C977.554 180.41 977.908 181.506 978.373 182.436V183H969.441C969.021 182.092 968.7 180.941 968.479 179.547C968.257 178.13 968.146 176.736 968.146 175.363ZM969.375 161.119L969.441 166.332H963.896C962.524 166.332 961.318 166.476 960.277 166.764C959.237 167.029 958.385 167.428 957.721 167.959C957.057 168.468 956.559 169.088 956.227 169.818C955.895 170.527 955.729 171.335 955.729 172.242C955.729 173.128 955.928 173.924 956.326 174.633C956.747 175.341 957.344 175.906 958.119 176.326C958.916 176.725 959.846 176.924 960.908 176.924C962.458 176.924 963.808 176.614 964.959 175.994C966.11 175.352 967.007 174.577 967.648 173.67C968.29 172.762 968.633 171.899 968.678 171.08L971.201 174.865C970.891 175.773 970.426 176.736 969.807 177.754C969.187 178.772 968.39 179.724 967.416 180.609C966.442 181.495 965.269 182.225 963.896 182.801C962.524 183.376 960.93 183.664 959.115 183.664C956.791 183.664 954.71 183.199 952.873 182.27C951.036 181.34 949.586 180.067 948.523 178.451C947.461 176.835 946.93 174.998 946.93 172.939C946.93 171.036 947.284 169.354 947.992 167.893C948.701 166.432 949.752 165.203 951.146 164.207C952.541 163.189 954.268 162.425 956.326 161.916C958.407 161.385 960.786 161.119 963.465 161.119H969.375ZM1002.54 167.793H991.156L991.09 161.85H1000.45C1001.85 161.85 1002.99 161.706 1003.87 161.418C1004.76 161.13 1005.41 160.699 1005.83 160.123C1006.27 159.548 1006.5 158.85 1006.5 158.031C1006.5 157.323 1006.36 156.714 1006.1 156.205C1005.83 155.674 1005.43 155.242 1004.9 154.91C1004.39 154.578 1003.74 154.335 1002.94 154.18C1002.17 154.003 1001.26 153.914 1000.22 153.914H994.277V183H985.479V147.074H1000.22C1002.54 147.074 1004.64 147.285 1006.5 147.705C1008.36 148.104 1009.94 148.712 1011.24 149.531C1012.55 150.35 1013.55 151.391 1014.23 152.652C1014.94 153.892 1015.29 155.353 1015.29 157.035C1015.29 158.142 1015.05 159.182 1014.56 160.156C1014.08 161.13 1013.36 161.993 1012.41 162.746C1011.45 163.499 1010.28 164.118 1008.89 164.605C1007.49 165.07 1005.9 165.358 1004.11 165.469L1002.54 167.793ZM1002.54 183H988.799L992.053 176.16H1002.54C1003.83 176.16 1004.89 176.005 1005.73 175.695C1006.57 175.363 1007.19 174.887 1007.59 174.268C1008.01 173.648 1008.22 172.895 1008.22 172.01C1008.22 171.146 1008.02 170.405 1007.62 169.785C1007.25 169.143 1006.64 168.656 1005.8 168.324C1004.98 167.97 1003.9 167.793 1002.54 167.793H993.48L993.547 161.85H1004.07L1006.4 164.207C1008.79 164.362 1010.77 164.849 1012.34 165.668C1013.91 166.465 1015.08 167.483 1015.86 168.723C1016.63 169.94 1017.02 171.279 1017.02 172.74C1017.02 174.445 1016.7 175.939 1016.06 177.223C1015.42 178.507 1014.48 179.58 1013.24 180.443C1012 181.285 1010.48 181.926 1008.69 182.369C1006.89 182.79 1004.85 183 1002.54 183ZM1032.76 147.074V183H1023.99V147.074H1032.76ZM1056.17 147.074L1040.33 169.121H1031L1029.9 161.086H1036.38L1045.11 147.074H1056.17ZM1045.64 183L1035.81 167.594L1043.12 163.012L1057.3 183H1045.64ZM1070.18 170.482L1083.26 147.074H1092.06V183H1083.26V159.559L1070.18 183H1061.38V147.074H1070.18V170.482Z" fill="white"/>
<path d="M1933.98 148.781C1930.85 148.781 1928.03 148.273 1925.5 147.258C1923 146.216 1920.86 144.771 1919.09 142.922C1917.35 141.073 1916.01 138.898 1915.07 136.398C1914.13 133.898 1913.66 131.203 1913.66 128.312V126.75C1913.66 123.443 1914.15 120.448 1915.11 117.766C1916.07 115.083 1917.41 112.792 1919.13 110.891C1920.85 108.964 1922.88 107.492 1925.23 106.477C1927.57 105.461 1930.11 104.953 1932.84 104.953C1935.86 104.953 1938.51 105.461 1940.77 106.477C1943.04 107.492 1944.91 108.924 1946.4 110.773C1947.91 112.596 1949.03 114.771 1949.76 117.297C1950.51 119.823 1950.89 122.609 1950.89 125.656V129.68H1918.23V122.922H1941.59V122.18C1941.54 120.487 1941.2 118.898 1940.58 117.414C1939.98 115.93 1939.05 114.732 1937.8 113.82C1936.55 112.909 1934.89 112.453 1932.8 112.453C1931.24 112.453 1929.85 112.792 1928.62 113.469C1927.43 114.12 1926.42 115.07 1925.62 116.32C1924.81 117.57 1924.18 119.081 1923.74 120.852C1923.33 122.596 1923.12 124.562 1923.12 126.75V128.312C1923.12 130.161 1923.36 131.88 1923.86 133.469C1924.38 135.031 1925.14 136.398 1926.12 137.57C1927.11 138.742 1928.31 139.667 1929.72 140.344C1931.12 140.995 1932.73 141.32 1934.52 141.32C1936.79 141.32 1938.81 140.865 1940.58 139.953C1942.35 139.042 1943.89 137.753 1945.19 136.086L1950.15 140.891C1949.24 142.219 1948.05 143.495 1946.59 144.719C1945.14 145.917 1943.35 146.893 1941.24 147.648C1939.16 148.404 1936.74 148.781 1933.98 148.781ZM1967.69 113.781V148H1958.27V105.734H1967.26L1967.69 113.781ZM1980.62 105.461L1980.54 114.211C1979.97 114.107 1979.34 114.029 1978.66 113.977C1978.01 113.924 1977.36 113.898 1976.71 113.898C1975.1 113.898 1973.68 114.133 1972.45 114.602C1971.23 115.044 1970.2 115.695 1969.37 116.555C1968.56 117.388 1967.93 118.404 1967.49 119.602C1967.05 120.799 1966.79 122.141 1966.71 123.625L1964.56 123.781C1964.56 121.125 1964.82 118.664 1965.34 116.398C1965.86 114.133 1966.65 112.141 1967.69 110.422C1968.76 108.703 1970.08 107.362 1971.67 106.398C1973.29 105.435 1975.15 104.953 1977.26 104.953C1977.83 104.953 1978.44 105.005 1979.09 105.109C1979.77 105.214 1980.28 105.331 1980.62 105.461ZM2024.09 140.5V148H1985.97V141.555L2004.48 121.359C2006.52 119.068 2008.12 117.089 2009.29 115.422C2010.46 113.755 2011.28 112.258 2011.75 110.93C2012.24 109.576 2012.49 108.26 2012.49 106.984C2012.49 105.188 2012.15 103.612 2011.48 102.258C2010.83 100.878 2009.86 99.7969 2008.59 99.0156C2007.31 98.2083 2005.76 97.8047 2003.94 97.8047C2001.83 97.8047 2000.06 98.2604 1998.62 99.1719C1997.19 100.083 1996.11 101.346 1995.38 102.961C1994.65 104.549 1994.29 106.372 1994.29 108.43H1984.88C1984.88 105.122 1985.63 102.102 1987.14 99.3672C1988.65 96.6068 1990.84 94.4193 1993.7 92.8047C1996.57 91.1641 2000.02 90.3438 2004.05 90.3438C2007.86 90.3438 2011.09 90.9818 2013.74 92.2578C2016.4 93.5339 2018.42 95.3438 2019.8 97.6875C2021.2 100.031 2021.91 102.805 2021.91 106.008C2021.91 107.779 2021.62 109.536 2021.05 111.281C2020.47 113.026 2019.65 114.771 2018.59 116.516C2017.54 118.234 2016.31 119.966 2014.88 121.711C2013.44 123.43 2011.87 125.174 2010.15 126.945L1997.84 140.5H2024.09ZM2068.51 114.797V124.094C2068.51 128.547 2068.07 132.349 2067.18 135.5C2066.32 138.625 2065.07 141.164 2063.43 143.117C2061.79 145.07 2059.82 146.503 2057.53 147.414C2055.27 148.326 2052.73 148.781 2049.91 148.781C2047.67 148.781 2045.59 148.495 2043.66 147.922C2041.76 147.349 2040.04 146.451 2038.51 145.227C2036.97 144.003 2035.66 142.427 2034.56 140.5C2033.49 138.547 2032.66 136.216 2032.06 133.508C2031.49 130.799 2031.2 127.661 2031.2 124.094V114.797C2031.2 110.318 2031.65 106.542 2032.53 103.469C2033.42 100.37 2034.68 97.8568 2036.32 95.9297C2037.96 93.9766 2039.91 92.5573 2042.18 91.6719C2044.47 90.7865 2047.02 90.3438 2049.84 90.3438C2052.1 90.3438 2054.18 90.6302 2056.09 91.2031C2058.01 91.75 2059.73 92.6224 2061.24 93.8203C2062.78 95.0182 2064.08 96.5807 2065.15 98.5078C2066.24 100.409 2067.08 102.714 2067.65 105.422C2068.22 108.104 2068.51 111.229 2068.51 114.797ZM2059.09 125.422V113.391C2059.09 111.125 2058.96 109.133 2058.7 107.414C2058.44 105.669 2058.05 104.198 2057.53 103C2057.04 101.776 2056.41 100.786 2055.66 100.031C2054.9 99.25 2054.04 98.6901 2053.08 98.3516C2052.11 97.987 2051.03 97.8047 2049.84 97.8047C2048.38 97.8047 2047.08 98.0911 2045.93 98.6641C2044.78 99.2109 2043.82 100.096 2043.04 101.32C2042.26 102.544 2041.66 104.159 2041.24 106.164C2040.85 108.143 2040.66 110.552 2040.66 113.391V125.422C2040.66 127.714 2040.79 129.732 2041.05 131.477C2041.31 133.221 2041.7 134.719 2042.22 135.969C2042.74 137.193 2043.36 138.208 2044.09 139.016C2044.85 139.797 2045.71 140.37 2046.67 140.734C2047.66 141.099 2048.74 141.281 2049.91 141.281C2051.4 141.281 2052.71 140.995 2053.86 140.422C2055.01 139.849 2055.97 138.938 2056.75 137.688C2057.53 136.411 2058.12 134.758 2058.51 132.727C2058.9 130.695 2059.09 128.26 2059.09 125.422ZM2102.61 90.9297V148H2093.2V102.102L2079.25 106.828V99.0547L2101.48 90.9297H2102.61ZM2123.31 143.312C2123.31 141.854 2123.81 140.63 2124.8 139.641C2125.79 138.625 2127.13 138.117 2128.82 138.117C2130.54 138.117 2131.88 138.625 2132.84 139.641C2133.83 140.63 2134.33 141.854 2134.33 143.312C2134.33 144.771 2133.83 145.995 2132.84 146.984C2131.88 147.974 2130.54 148.469 2128.82 148.469C2127.13 148.469 2125.79 147.974 2124.8 146.984C2123.81 145.995 2123.31 144.771 2123.31 143.312Z" fill="#7666C4"/>
<path fill-rule="evenodd" clip-rule="evenodd" d="M248.5 120C248.5 79.1298 215.37 46 174.5 46C133.63 46 100.5 79.1298 100.5 120C100.5 160.87 133.63 194 174.5 194C215.37 194 248.5 160.87 248.5 120ZM174.5 83C176.463 83 178.345 83.7796 179.733 85.1674C181.12 86.5552 181.9 88.4374 181.9 90.4V127.4C181.9 129.363 181.12 131.245 179.733 132.633C178.345 134.02 176.463 134.8 174.5 134.8C172.537 134.8 170.655 134.02 169.267 132.633C167.88 131.245 167.1 129.363 167.1 127.4V90.4C167.1 88.4374 167.88 86.5552 169.267 85.1674C170.655 83.7796 172.537 83 174.5 83ZM167.1 149.6C167.1 147.637 167.88 145.755 169.267 144.367C170.655 142.98 172.537 142.2 174.5 142.2H174.559C176.522 142.2 178.404 142.98 179.792 144.367C181.18 145.755 181.959 147.637 181.959 149.6C181.959 151.563 181.18 153.445 179.792 154.833C178.404 156.22 176.522 157 174.559 157H174.5C172.537 157 170.655 156.22 169.267 154.833C167.88 153.445 167.1 151.563 167.1 149.6Z" fill="#E6E6E6"/>
</svg>
