<svg width="2241" height="240" viewBox="0 0 2241 240" fill="none" xmlns="http://www.w3.org/2000/svg">
<rect x="0.5" width="2240" height="240" rx="30" fill="#131313"/>
<path d="M447.189 74.6113V81.7832H421.756V74.6113H447.189ZM424.246 54.6562V103H415.115V54.6562H424.246ZM453.963 54.6562V103H444.832V54.6562H453.963ZM482.385 95.3633V78.7949C482.385 77.5775 482.174 76.526 481.754 75.6406C481.333 74.7552 480.691 74.069 479.828 73.582C478.965 73.0951 477.869 72.8516 476.541 72.8516C475.368 72.8516 474.339 73.0508 473.453 73.4492C472.59 73.8477 471.926 74.4121 471.461 75.1426C470.996 75.8509 470.764 76.6699 470.764 77.5996H461.965C461.965 76.1165 462.319 74.7109 463.027 73.3828C463.736 72.0326 464.743 70.8372 466.049 69.7969C467.377 68.7344 468.96 67.9043 470.797 67.3066C472.656 66.709 474.737 66.4102 477.039 66.4102C479.762 66.4102 482.186 66.875 484.311 67.8047C486.458 68.7122 488.14 70.0846 489.357 71.9219C490.597 73.7591 491.217 76.0723 491.217 78.8613V94.5332C491.217 96.3262 491.327 97.8646 491.549 99.1484C491.792 100.41 492.146 101.506 492.611 102.436V103H483.68C483.259 102.092 482.938 100.941 482.717 99.5469C482.495 98.1302 482.385 96.7357 482.385 95.3633ZM483.613 81.1191L483.68 86.332H478.135C476.762 86.332 475.556 86.4759 474.516 86.7637C473.475 87.0293 472.623 87.4277 471.959 87.959C471.295 88.4681 470.797 89.0879 470.465 89.8184C470.133 90.5267 469.967 91.3346 469.967 92.2422C469.967 93.1276 470.166 93.9245 470.564 94.6328C470.985 95.3411 471.583 95.9056 472.357 96.3262C473.154 96.7246 474.084 96.9238 475.146 96.9238C476.696 96.9238 478.046 96.6139 479.197 95.9941C480.348 95.3522 481.245 94.5775 481.887 93.6699C482.529 92.7624 482.872 91.8991 482.916 91.0801L485.439 94.8652C485.13 95.7728 484.665 96.7357 484.045 97.7539C483.425 98.7721 482.628 99.724 481.654 100.609C480.68 101.495 479.507 102.225 478.135 102.801C476.762 103.376 475.169 103.664 473.354 103.664C471.029 103.664 468.949 103.199 467.111 102.27C465.274 101.34 463.824 100.067 462.762 98.4512C461.699 96.8353 461.168 94.998 461.168 92.9395C461.168 91.0358 461.522 89.3535 462.23 87.8926C462.939 86.4316 463.99 85.2031 465.385 84.207C466.779 83.1888 468.506 82.4251 470.564 81.916C472.645 81.3848 475.025 81.1191 477.703 81.1191H483.613ZM533.717 87.793H522.328L522.262 81.8496H531.625C533.02 81.8496 534.16 81.7057 535.045 81.418C535.93 81.1302 536.583 80.6986 537.004 80.123C537.447 79.5475 537.668 78.8503 537.668 78.0312C537.668 77.3229 537.535 76.7142 537.27 76.2051C537.004 75.6738 536.605 75.2422 536.074 74.9102C535.565 74.5781 534.912 74.3346 534.115 74.1797C533.34 74.0026 532.433 73.9141 531.393 73.9141H525.449V103H516.65V67.0742H531.393C533.717 67.0742 535.809 67.2845 537.668 67.7051C539.527 68.1035 541.11 68.7122 542.416 69.5312C543.722 70.3503 544.718 71.3906 545.404 72.6523C546.113 73.8919 546.467 75.3529 546.467 77.0352C546.467 78.1419 546.223 79.1823 545.736 80.1562C545.249 81.1302 544.53 81.9935 543.578 82.7461C542.626 83.4987 541.453 84.1185 540.059 84.6055C538.664 85.0703 537.07 85.3581 535.277 85.4688L533.717 87.793ZM533.717 103H519.971L523.225 96.1602H533.717C535.001 96.1602 536.063 96.0052 536.904 95.6953C537.745 95.3633 538.365 94.8874 538.764 94.2676C539.184 93.6478 539.395 92.8952 539.395 92.0098C539.395 91.1465 539.195 90.4049 538.797 89.7852C538.421 89.1432 537.812 88.6562 536.971 88.3242C536.152 87.9701 535.067 87.793 533.717 87.793H524.652L524.719 81.8496H535.244L537.568 84.207C539.959 84.362 541.94 84.849 543.512 85.668C545.083 86.4648 546.257 87.4831 547.031 88.7227C547.806 89.9401 548.193 91.2793 548.193 92.7402C548.193 94.4447 547.872 95.9388 547.23 97.2227C546.589 98.5065 545.648 99.5801 544.408 100.443C543.169 101.285 541.652 101.926 539.859 102.369C538.066 102.79 536.019 103 533.717 103ZM574.357 95.3633V78.7949C574.357 77.5775 574.147 76.526 573.727 75.6406C573.306 74.7552 572.664 74.069 571.801 73.582C570.938 73.0951 569.842 72.8516 568.514 72.8516C567.34 72.8516 566.311 73.0508 565.426 73.4492C564.562 73.8477 563.898 74.4121 563.434 75.1426C562.969 75.8509 562.736 76.6699 562.736 77.5996H553.938C553.938 76.1165 554.292 74.7109 555 73.3828C555.708 72.0326 556.715 70.8372 558.021 69.7969C559.35 68.7344 560.932 67.9043 562.77 67.3066C564.629 66.709 566.71 66.4102 569.012 66.4102C571.734 66.4102 574.158 66.875 576.283 67.8047C578.43 68.7122 580.113 70.0846 581.33 71.9219C582.57 73.7591 583.189 76.0723 583.189 78.8613V94.5332C583.189 96.3262 583.3 97.8646 583.521 99.1484C583.765 100.41 584.119 101.506 584.584 102.436V103H575.652C575.232 102.092 574.911 100.941 574.689 99.5469C574.468 98.1302 574.357 96.7357 574.357 95.3633ZM575.586 81.1191L575.652 86.332H570.107C568.735 86.332 567.529 86.4759 566.488 86.7637C565.448 87.0293 564.596 87.4277 563.932 87.959C563.268 88.4681 562.77 89.0879 562.438 89.8184C562.105 90.5267 561.939 91.3346 561.939 92.2422C561.939 93.1276 562.139 93.9245 562.537 94.6328C562.958 95.3411 563.555 95.9056 564.33 96.3262C565.127 96.7246 566.057 96.9238 567.119 96.9238C568.669 96.9238 570.019 96.6139 571.17 95.9941C572.321 95.3522 573.217 94.5775 573.859 93.6699C574.501 92.7624 574.844 91.8991 574.889 91.0801L577.412 94.8652C577.102 95.7728 576.637 96.7357 576.018 97.7539C575.398 98.7721 574.601 99.724 573.627 100.609C572.653 101.495 571.48 102.225 570.107 102.801C568.735 103.376 567.141 103.664 565.326 103.664C563.002 103.664 560.921 103.199 559.084 102.27C557.247 101.34 555.797 100.067 554.734 98.4512C553.672 96.8353 553.141 94.998 553.141 92.9395C553.141 91.0358 553.495 89.3535 554.203 87.8926C554.911 86.4316 555.963 85.2031 557.357 84.207C558.752 83.1888 560.479 82.4251 562.537 81.916C564.618 81.3848 566.997 81.1191 569.676 81.1191H575.586ZM591.158 67.0742H599.957V96.0938H610.615V67.0742H619.447V96.0938H630.105V67.0742H638.871V103H591.158V67.0742ZM663.209 103.664C660.486 103.664 658.04 103.221 655.871 102.336C653.702 101.451 651.854 100.222 650.326 98.6504C648.821 97.0566 647.659 95.2083 646.84 93.1055C646.043 90.9805 645.645 88.7005 645.645 86.2656V84.9375C645.645 82.1706 646.043 79.6582 646.84 77.4004C647.637 75.1204 648.766 73.1615 650.227 71.5234C651.688 69.8854 653.436 68.6237 655.473 67.7383C657.509 66.8529 659.756 66.4102 662.213 66.4102C664.758 66.4102 667.005 66.8418 668.953 67.7051C670.901 68.5462 672.528 69.7415 673.834 71.291C675.14 72.8405 676.125 74.6999 676.789 76.8691C677.453 79.0163 677.785 81.3958 677.785 84.0078V87.6934H649.629V81.6504H669.152V80.9863C669.108 79.5918 668.842 78.319 668.355 77.168C667.868 75.9948 667.116 75.0651 666.098 74.3789C665.079 73.6706 663.762 73.3164 662.146 73.3164C660.84 73.3164 659.701 73.6042 658.727 74.1797C657.775 74.7331 656.978 75.5299 656.336 76.5703C655.716 77.5885 655.251 78.806 654.941 80.2227C654.632 81.6393 654.477 83.2109 654.477 84.9375V86.2656C654.477 87.7708 654.676 89.1654 655.074 90.4492C655.495 91.7331 656.104 92.8509 656.9 93.8027C657.719 94.7324 658.693 95.4629 659.822 95.9941C660.973 96.5033 662.279 96.7578 663.74 96.7578C665.577 96.7578 667.238 96.4036 668.721 95.6953C670.226 94.9648 671.532 93.8913 672.639 92.4746L677.055 97.0566C676.302 98.1634 675.284 99.2259 674 100.244C672.738 101.262 671.211 102.092 669.418 102.734C667.625 103.354 665.555 103.664 663.209 103.664ZM705.211 92.6406L715.305 67.0742H722.643L708.199 103H702.256L687.846 67.0742H695.217L705.211 92.6406ZM693.059 67.0742V103H684.26V67.0742H693.059ZM717.529 103V67.0742H726.328V103H717.529ZM774.24 51.3027H781.346C781.346 53.1842 781.102 54.7669 780.615 56.0508C780.128 57.3125 779.376 58.375 778.357 59.2383C777.339 60.0794 776.033 60.7767 774.439 61.3301C772.846 61.8835 770.942 62.3704 768.729 62.791C766.869 63.1673 765.231 63.7871 763.814 64.6504C762.398 65.5137 761.214 66.6979 760.262 68.2031C759.332 69.7083 758.657 71.623 758.236 73.9473C757.816 76.2715 757.683 79.0716 757.838 82.3477V84.2734L750.965 85.0703V83.1445C750.965 78.8724 751.352 75.1536 752.127 71.9883C752.902 68.8008 753.997 66.1224 755.414 63.9531C756.831 61.7617 758.524 60.0241 760.494 58.7402C762.486 57.4342 764.711 56.5156 767.168 55.9844C768.806 55.6523 770.145 55.3092 771.186 54.9551C772.248 54.6009 773.023 54.1471 773.51 53.5938C773.997 53.0182 774.24 52.2546 774.24 51.3027ZM769.326 69.0996C771.739 69.0996 773.875 69.5202 775.734 70.3613C777.616 71.1803 779.199 72.3424 780.482 73.8477C781.766 75.3307 782.74 77.0905 783.404 79.127C784.09 81.1413 784.434 83.3438 784.434 85.7344V86.4316C784.434 88.9108 784.057 91.2018 783.305 93.3047C782.574 95.4076 781.501 97.2337 780.084 98.7832C778.667 100.333 776.919 101.539 774.838 102.402C772.757 103.266 770.378 103.697 767.699 103.697C765.043 103.697 762.674 103.243 760.594 102.336C758.513 101.406 756.753 100.122 755.314 98.4844C753.876 96.8464 752.791 94.9206 752.061 92.707C751.33 90.4714 750.965 88.0365 750.965 85.4023V84.7051C750.943 84.2624 751.087 83.8418 751.396 83.4434C751.706 83.0449 752.072 82.6022 752.492 82.1152C752.935 81.6283 753.333 81.0417 753.688 80.3555C754.905 78.0091 756.277 75.9948 757.805 74.3125C759.354 72.6302 761.081 71.3464 762.984 70.4609C764.888 69.5534 767.002 69.0996 769.326 69.0996ZM767.633 76.0059C765.751 76.0059 764.224 76.4596 763.051 77.3672C761.9 78.2526 761.059 79.4368 760.527 80.9199C759.996 82.3809 759.73 83.9857 759.73 85.7344V86.4316C759.73 87.8483 759.874 89.1875 760.162 90.4492C760.472 91.6888 760.937 92.7845 761.557 93.7363C762.176 94.6882 762.995 95.4408 764.014 95.9941C765.032 96.5254 766.26 96.791 767.699 96.791C769.138 96.791 770.355 96.5254 771.352 95.9941C772.37 95.4408 773.189 94.6882 773.809 93.7363C774.428 92.7845 774.882 91.6888 775.17 90.4492C775.48 89.1875 775.635 87.8483 775.635 86.4316V85.7344C775.635 84.4284 775.48 83.1888 775.17 82.0156C774.882 80.8424 774.428 79.8132 773.809 78.9277C773.189 78.0202 772.359 77.3118 771.318 76.8027C770.3 76.2715 769.072 76.0059 767.633 76.0059ZM810.299 95.3633V78.7949C810.299 77.5775 810.089 76.526 809.668 75.6406C809.247 74.7552 808.605 74.069 807.742 73.582C806.879 73.0951 805.783 72.8516 804.455 72.8516C803.282 72.8516 802.253 73.0508 801.367 73.4492C800.504 73.8477 799.84 74.4121 799.375 75.1426C798.91 75.8509 798.678 76.6699 798.678 77.5996H789.879C789.879 76.1165 790.233 74.7109 790.941 73.3828C791.65 72.0326 792.657 70.8372 793.963 69.7969C795.291 68.7344 796.874 67.9043 798.711 67.3066C800.57 66.709 802.651 66.4102 804.953 66.4102C807.676 66.4102 810.1 66.875 812.225 67.8047C814.372 68.7122 816.054 70.0846 817.271 71.9219C818.511 73.7591 819.131 76.0723 819.131 78.8613V94.5332C819.131 96.3262 819.242 97.8646 819.463 99.1484C819.706 100.41 820.061 101.506 820.525 102.436V103H811.594C811.173 102.092 810.852 100.941 810.631 99.5469C810.41 98.1302 810.299 96.7357 810.299 95.3633ZM811.527 81.1191L811.594 86.332H806.049C804.676 86.332 803.47 86.4759 802.43 86.7637C801.389 87.0293 800.537 87.4277 799.873 87.959C799.209 88.4681 798.711 89.0879 798.379 89.8184C798.047 90.5267 797.881 91.3346 797.881 92.2422C797.881 93.1276 798.08 93.9245 798.479 94.6328C798.899 95.3411 799.497 95.9056 800.271 96.3262C801.068 96.7246 801.998 96.9238 803.061 96.9238C804.61 96.9238 805.96 96.6139 807.111 95.9941C808.262 95.3522 809.159 94.5775 809.801 93.6699C810.443 92.7624 810.786 91.8991 810.83 91.0801L813.354 94.8652C813.044 95.7728 812.579 96.7357 811.959 97.7539C811.339 98.7721 810.542 99.724 809.568 100.609C808.594 101.495 807.421 102.225 806.049 102.801C804.676 103.376 803.083 103.664 801.268 103.664C798.943 103.664 796.863 103.199 795.025 102.27C793.188 101.34 791.738 100.067 790.676 98.4512C789.613 96.8353 789.082 94.998 789.082 92.9395C789.082 91.0358 789.436 89.3535 790.145 87.8926C790.853 86.4316 791.904 85.2031 793.299 84.207C794.693 83.1888 796.42 82.4251 798.479 81.916C800.559 81.3848 802.939 81.1191 805.617 81.1191H811.527ZM851.172 67.0742V74.0137H833.574V67.0742H851.172ZM857.779 67.0742V103H849.014V67.0742H857.779ZM831.383 67.0742H840.049L839.086 85.0039C838.931 87.638 838.654 89.9512 838.256 91.9434C837.857 93.9134 837.326 95.6068 836.662 97.0234C835.998 98.418 835.19 99.5579 834.238 100.443C833.286 101.329 832.18 101.982 830.918 102.402C829.678 102.801 828.284 103 826.734 103H824.045L823.945 95.9277L825.207 95.8281C825.982 95.7617 826.646 95.5514 827.199 95.1973C827.775 94.8431 828.262 94.334 828.66 93.6699C829.081 93.0059 829.424 92.1536 829.689 91.1133C829.977 90.0508 830.199 88.8112 830.354 87.3945C830.531 85.9557 830.652 84.2956 830.719 82.4141L831.383 67.0742ZM885.604 95.3633V78.7949C885.604 77.5775 885.393 76.526 884.973 75.6406C884.552 74.7552 883.91 74.069 883.047 73.582C882.184 73.0951 881.088 72.8516 879.76 72.8516C878.587 72.8516 877.557 73.0508 876.672 73.4492C875.809 73.8477 875.145 74.4121 874.68 75.1426C874.215 75.8509 873.982 76.6699 873.982 77.5996H865.184C865.184 76.1165 865.538 74.7109 866.246 73.3828C866.954 72.0326 867.962 70.8372 869.268 69.7969C870.596 68.7344 872.178 67.9043 874.016 67.3066C875.875 66.709 877.956 66.4102 880.258 66.4102C882.98 66.4102 885.404 66.875 887.529 67.8047C889.676 68.7122 891.359 70.0846 892.576 71.9219C893.816 73.7591 894.436 76.0723 894.436 78.8613V94.5332C894.436 96.3262 894.546 97.8646 894.768 99.1484C895.011 100.41 895.365 101.506 895.83 102.436V103H886.898C886.478 102.092 886.157 100.941 885.936 99.5469C885.714 98.1302 885.604 96.7357 885.604 95.3633ZM886.832 81.1191L886.898 86.332H881.354C879.981 86.332 878.775 86.4759 877.734 86.7637C876.694 87.0293 875.842 87.4277 875.178 87.959C874.514 88.4681 874.016 89.0879 873.684 89.8184C873.352 90.5267 873.186 91.3346 873.186 92.2422C873.186 93.1276 873.385 93.9245 873.783 94.6328C874.204 95.3411 874.801 95.9056 875.576 96.3262C876.373 96.7246 877.303 96.9238 878.365 96.9238C879.915 96.9238 881.265 96.6139 882.416 95.9941C883.567 95.3522 884.464 94.5775 885.105 93.6699C885.747 92.7624 886.09 91.8991 886.135 91.0801L888.658 94.8652C888.348 95.7728 887.883 96.7357 887.264 97.7539C886.644 98.7721 885.847 99.724 884.873 100.609C883.899 101.495 882.726 102.225 881.354 102.801C879.981 103.376 878.387 103.664 876.572 103.664C874.248 103.664 872.167 103.199 870.33 102.27C868.493 101.34 867.043 100.067 865.98 98.4512C864.918 96.8353 864.387 94.998 864.387 92.9395C864.387 91.0358 864.741 89.3535 865.449 87.8926C866.158 86.4316 867.209 85.2031 868.604 84.207C869.998 83.1888 871.725 82.4251 873.783 81.916C875.864 81.3848 878.243 81.1191 880.922 81.1191H886.832ZM926.875 81.8164V88.6895H908.447V81.8164H926.875ZM911.203 67.0742V103H902.404V67.0742H911.203ZM933.018 67.0742V103H924.186V67.0742H933.018ZM955.729 96.7578C956.968 96.7578 958.075 96.5143 959.049 96.0273C960.023 95.5404 960.798 94.8542 961.373 93.9688C961.971 93.0833 962.292 92.054 962.336 90.8809H970.604C970.559 93.3158 969.873 95.4961 968.545 97.4219C967.217 99.3477 965.446 100.875 963.232 102.004C961.041 103.111 958.584 103.664 955.861 103.664C953.094 103.664 950.682 103.199 948.623 102.27C946.564 101.34 944.849 100.045 943.477 98.3848C942.126 96.7246 941.108 94.7988 940.422 92.6074C939.758 90.416 939.426 88.0697 939.426 85.5684V84.5059C939.426 82.0046 939.758 79.6582 940.422 77.4668C941.108 75.2754 942.126 73.3496 943.477 71.6895C944.849 70.0293 946.564 68.7344 948.623 67.8047C950.682 66.875 953.083 66.4102 955.828 66.4102C958.728 66.4102 961.273 66.9746 963.465 68.1035C965.678 69.2324 967.405 70.8262 968.645 72.8848C969.906 74.9434 970.559 77.3672 970.604 80.1562H962.336C962.292 78.8724 962.004 77.7214 961.473 76.7031C960.941 75.6849 960.189 74.8659 959.215 74.2461C958.241 73.6263 957.057 73.3164 955.662 73.3164C954.179 73.3164 952.939 73.6263 951.943 74.2461C950.969 74.8659 950.206 75.7181 949.652 76.8027C949.121 77.8652 948.745 79.0605 948.523 80.3887C948.324 81.6947 948.225 83.0671 948.225 84.5059V85.5684C948.225 87.0293 948.324 88.4238 948.523 89.752C948.745 91.0801 949.121 92.2754 949.652 93.3379C950.206 94.3783 950.969 95.2083 951.943 95.8281C952.939 96.4479 954.201 96.7578 955.729 96.7578ZM992.584 103.664C989.861 103.664 987.415 103.221 985.246 102.336C983.077 101.451 981.229 100.222 979.701 98.6504C978.196 97.0566 977.034 95.2083 976.215 93.1055C975.418 90.9805 975.02 88.7005 975.02 86.2656V84.9375C975.02 82.1706 975.418 79.6582 976.215 77.4004C977.012 75.1204 978.141 73.1615 979.602 71.5234C981.062 69.8854 982.811 68.6237 984.848 67.7383C986.884 66.8529 989.131 66.4102 991.588 66.4102C994.133 66.4102 996.38 66.8418 998.328 67.7051C1000.28 68.5462 1001.9 69.7415 1003.21 71.291C1004.51 72.8405 1005.5 74.6999 1006.16 76.8691C1006.83 79.0163 1007.16 81.3958 1007.16 84.0078V87.6934H979.004V81.6504H998.527V80.9863C998.483 79.5918 998.217 78.319 997.73 77.168C997.243 75.9948 996.491 75.0651 995.473 74.3789C994.454 73.6706 993.137 73.3164 991.521 73.3164C990.215 73.3164 989.076 73.6042 988.102 74.1797C987.15 74.7331 986.353 75.5299 985.711 76.5703C985.091 77.5885 984.626 78.806 984.316 80.2227C984.007 81.6393 983.852 83.2109 983.852 84.9375V86.2656C983.852 87.7708 984.051 89.1654 984.449 90.4492C984.87 91.7331 985.479 92.8509 986.275 93.8027C987.094 94.7324 988.068 95.4629 989.197 95.9941C990.348 96.5033 991.654 96.7578 993.115 96.7578C994.952 96.7578 996.613 96.4036 998.096 95.6953C999.601 94.9648 1000.91 93.8913 1002.01 92.4746L1006.43 97.0566C1005.68 98.1634 1004.66 99.2259 1003.38 100.244C1002.11 101.262 1000.59 102.092 998.793 102.734C997 103.354 994.93 103.664 992.584 103.664ZM1054.51 81.8164V88.6895H1036.08V81.8164H1054.51ZM1038.84 67.0742V103H1030.04V67.0742H1038.84ZM1060.65 67.0742V103H1051.82V67.0742H1060.65ZM1084.76 103.664C1082.03 103.664 1079.59 103.221 1077.42 102.336C1075.25 101.451 1073.4 100.222 1071.87 98.6504C1070.37 97.0566 1069.21 95.2083 1068.39 93.1055C1067.59 90.9805 1067.19 88.7005 1067.19 86.2656V84.9375C1067.19 82.1706 1067.59 79.6582 1068.39 77.4004C1069.18 75.1204 1070.31 73.1615 1071.77 71.5234C1073.23 69.8854 1074.98 68.6237 1077.02 67.7383C1079.06 66.8529 1081.3 66.4102 1083.76 66.4102C1086.31 66.4102 1088.55 66.8418 1090.5 67.7051C1092.45 68.5462 1094.07 69.7415 1095.38 71.291C1096.69 72.8405 1097.67 74.6999 1098.34 76.8691C1099 79.0163 1099.33 81.3958 1099.33 84.0078V87.6934H1071.18V81.6504H1090.7V80.9863C1090.65 79.5918 1090.39 78.319 1089.9 77.168C1089.42 75.9948 1088.66 75.0651 1087.64 74.3789C1086.63 73.6706 1085.31 73.3164 1083.69 73.3164C1082.39 73.3164 1081.25 73.6042 1080.27 74.1797C1079.32 74.7331 1078.52 75.5299 1077.88 76.5703C1077.26 77.5885 1076.8 78.806 1076.49 80.2227C1076.18 81.6393 1076.02 83.2109 1076.02 84.9375V86.2656C1076.02 87.7708 1076.22 89.1654 1076.62 90.4492C1077.04 91.7331 1077.65 92.8509 1078.45 93.8027C1079.27 94.7324 1080.24 95.4629 1081.37 95.9941C1082.52 96.5033 1083.83 96.7578 1085.29 96.7578C1087.12 96.7578 1088.78 96.4036 1090.27 95.6953C1091.77 94.9648 1093.08 93.8913 1094.19 92.4746L1098.6 97.0566C1097.85 98.1634 1096.83 99.2259 1095.55 100.244C1094.29 101.262 1092.76 102.092 1090.96 102.734C1089.17 103.354 1087.1 103.664 1084.76 103.664ZM1111.68 67.0742H1120.45L1120.12 79.4258C1120.01 83.1667 1119.56 86.3984 1118.79 89.1211C1118.04 91.8216 1117.03 94.0905 1115.77 95.9277C1114.53 97.765 1113.11 99.248 1111.52 100.377C1109.95 101.506 1108.3 102.38 1106.57 103H1104.48L1104.45 96.1602L1105.47 96.0938C1106.51 94.987 1107.39 93.9023 1108.1 92.8398C1108.83 91.7552 1109.41 90.5931 1109.86 89.3535C1110.3 88.1139 1110.63 86.6973 1110.85 85.1035C1111.1 83.4876 1111.25 81.5951 1111.32 79.4258L1111.68 67.0742ZM1114.04 67.0742H1137.32V103H1128.55V74.2793H1114.04V67.0742ZM1102.49 96.0938H1142.33V113.758H1133.56V103H1111.42V113.758H1102.45L1102.49 96.0938ZM1146.15 85.4023V84.7051C1146.15 82.071 1146.52 79.6471 1147.28 77.4336C1148.03 75.1979 1149.13 73.2611 1150.56 71.623C1152 69.985 1153.76 68.7122 1155.84 67.8047C1157.92 66.875 1160.29 66.4102 1162.95 66.4102C1165.65 66.4102 1168.04 66.875 1170.12 67.8047C1172.22 68.7122 1173.99 69.985 1175.43 71.623C1176.87 73.2611 1177.97 75.1979 1178.72 77.4336C1179.47 79.6471 1179.85 82.071 1179.85 84.7051V85.4023C1179.85 88.0143 1179.47 90.4382 1178.72 92.6738C1177.97 94.8874 1176.87 96.8242 1175.43 98.4844C1173.99 100.122 1172.24 101.395 1170.15 102.303C1168.07 103.21 1165.69 103.664 1163.02 103.664C1160.36 103.664 1157.98 103.21 1155.88 102.303C1153.77 101.395 1152 100.122 1150.56 98.4844C1149.13 96.8242 1148.03 94.8874 1147.28 92.6738C1146.52 90.4382 1146.15 88.0143 1146.15 85.4023ZM1154.91 84.7051V85.4023C1154.91 86.974 1155.07 88.446 1155.38 89.8184C1155.69 91.1908 1156.16 92.3971 1156.81 93.4375C1157.45 94.4779 1158.28 95.2969 1159.3 95.8945C1160.34 96.4701 1161.58 96.7578 1163.02 96.7578C1164.43 96.7578 1165.65 96.4701 1166.67 95.8945C1167.69 95.2969 1168.52 94.4779 1169.16 93.4375C1169.82 92.3971 1170.31 91.1908 1170.62 89.8184C1170.93 88.446 1171.08 86.974 1171.08 85.4023V84.7051C1171.08 83.1556 1170.93 81.7057 1170.62 80.3555C1170.31 78.9831 1169.82 77.7767 1169.16 76.7363C1168.52 75.6738 1167.68 74.8438 1166.63 74.2461C1165.62 73.6263 1164.39 73.3164 1162.95 73.3164C1161.53 73.3164 1160.32 73.6263 1159.3 74.2461C1158.28 74.8438 1157.45 75.6738 1156.81 76.7363C1156.16 77.7767 1155.69 78.9831 1155.38 80.3555C1155.07 81.7057 1154.91 83.1556 1154.91 84.7051ZM1200.97 96.7578C1202.21 96.7578 1203.31 96.5143 1204.29 96.0273C1205.26 95.5404 1206.04 94.8542 1206.61 93.9688C1207.21 93.0833 1207.53 92.054 1207.57 90.8809H1215.84C1215.8 93.3158 1215.11 95.4961 1213.78 97.4219C1212.46 99.3477 1210.68 100.875 1208.47 102.004C1206.28 103.111 1203.82 103.664 1201.1 103.664C1198.33 103.664 1195.92 103.199 1193.86 102.27C1191.8 101.34 1190.09 100.045 1188.71 98.3848C1187.36 96.7246 1186.35 94.7988 1185.66 92.6074C1185 90.416 1184.66 88.0697 1184.66 85.5684V84.5059C1184.66 82.0046 1185 79.6582 1185.66 77.4668C1186.35 75.2754 1187.36 73.3496 1188.71 71.6895C1190.09 70.0293 1191.8 68.7344 1193.86 67.8047C1195.92 66.875 1198.32 66.4102 1201.07 66.4102C1203.97 66.4102 1206.51 66.9746 1208.7 68.1035C1210.92 69.2324 1212.64 70.8262 1213.88 72.8848C1215.14 74.9434 1215.8 77.3672 1215.84 80.1562H1207.57C1207.53 78.8724 1207.24 77.7214 1206.71 76.7031C1206.18 75.6849 1205.43 74.8659 1204.45 74.2461C1203.48 73.6263 1202.29 73.3164 1200.9 73.3164C1199.42 73.3164 1198.18 73.6263 1197.18 74.2461C1196.21 74.8659 1195.44 75.7181 1194.89 76.8027C1194.36 77.8652 1193.98 79.0605 1193.76 80.3887C1193.56 81.6947 1193.46 83.0671 1193.46 84.5059V85.5684C1193.46 87.0293 1193.56 88.4238 1193.76 89.752C1193.98 91.0801 1194.36 92.2754 1194.89 93.3379C1195.44 94.3783 1196.21 95.2083 1197.18 95.8281C1198.18 96.4479 1199.44 96.7578 1200.97 96.7578ZM1239.12 67.0742V103H1230.32V67.0742H1239.12ZM1250.8 67.0742V73.9141H1218.83V67.0742H1250.8ZM1275.21 95.3633V78.7949C1275.21 77.5775 1275 76.526 1274.58 75.6406C1274.16 74.7552 1273.52 74.069 1272.65 73.582C1271.79 73.0951 1270.69 72.8516 1269.37 72.8516C1268.19 72.8516 1267.16 73.0508 1266.28 73.4492C1265.41 73.8477 1264.75 74.4121 1264.29 75.1426C1263.82 75.8509 1263.59 76.6699 1263.59 77.5996H1254.79C1254.79 76.1165 1255.14 74.7109 1255.85 73.3828C1256.56 72.0326 1257.57 70.8372 1258.87 69.7969C1260.2 68.7344 1261.78 67.9043 1263.62 67.3066C1265.48 66.709 1267.56 66.4102 1269.86 66.4102C1272.59 66.4102 1275.01 66.875 1277.13 67.8047C1279.28 68.7122 1280.96 70.0846 1282.18 71.9219C1283.42 73.7591 1284.04 76.0723 1284.04 78.8613V94.5332C1284.04 96.3262 1284.15 97.8646 1284.37 99.1484C1284.62 100.41 1284.97 101.506 1285.44 102.436V103H1276.5C1276.08 102.092 1275.76 100.941 1275.54 99.5469C1275.32 98.1302 1275.21 96.7357 1275.21 95.3633ZM1276.44 81.1191L1276.5 86.332H1270.96C1269.59 86.332 1268.38 86.4759 1267.34 86.7637C1266.3 87.0293 1265.45 87.4277 1264.78 87.959C1264.12 88.4681 1263.62 89.0879 1263.29 89.8184C1262.96 90.5267 1262.79 91.3346 1262.79 92.2422C1262.79 93.1276 1262.99 93.9245 1263.39 94.6328C1263.81 95.3411 1264.41 95.9056 1265.18 96.3262C1265.98 96.7246 1266.91 96.9238 1267.97 96.9238C1269.52 96.9238 1270.87 96.6139 1272.02 95.9941C1273.17 95.3522 1274.07 94.5775 1274.71 93.6699C1275.35 92.7624 1275.7 91.8991 1275.74 91.0801L1278.26 94.8652C1277.95 95.7728 1277.49 96.7357 1276.87 97.7539C1276.25 98.7721 1275.45 99.724 1274.48 100.609C1273.5 101.495 1272.33 102.225 1270.96 102.801C1269.59 103.376 1267.99 103.664 1266.18 103.664C1263.85 103.664 1261.77 103.199 1259.94 102.27C1258.1 101.34 1256.65 100.067 1255.59 98.4512C1254.52 96.8353 1253.99 94.998 1253.99 92.9395C1253.99 91.0358 1254.35 89.3535 1255.05 87.8926C1255.76 86.4316 1256.81 85.2031 1258.21 84.207C1259.6 83.1888 1261.33 82.4251 1263.39 81.916C1265.47 81.3848 1267.85 81.1191 1270.53 81.1191H1276.44ZM1308.84 67.0742V103H1300.04V67.0742H1308.84ZM1320.53 67.0742V73.9141H1288.56V67.0742H1320.53ZM1322.92 85.4023V84.7051C1322.92 82.071 1323.3 79.6471 1324.05 77.4336C1324.8 75.1979 1325.9 73.2611 1327.34 71.623C1328.78 69.985 1330.54 68.7122 1332.62 67.8047C1334.7 66.875 1337.07 66.4102 1339.72 66.4102C1342.42 66.4102 1344.81 66.875 1346.89 67.8047C1349 68.7122 1350.77 69.985 1352.21 71.623C1353.65 73.2611 1354.74 75.1979 1355.49 77.4336C1356.25 79.6471 1356.62 82.071 1356.62 84.7051V85.4023C1356.62 88.0143 1356.25 90.4382 1355.49 92.6738C1354.74 94.8874 1353.65 96.8242 1352.21 98.4844C1350.77 100.122 1349.01 101.395 1346.93 102.303C1344.85 103.21 1342.47 103.664 1339.79 103.664C1337.13 103.664 1334.75 103.21 1332.65 102.303C1330.55 101.395 1328.78 100.122 1327.34 98.4844C1325.9 96.8242 1324.8 94.8874 1324.05 92.6738C1323.3 90.4382 1322.92 88.0143 1322.92 85.4023ZM1331.69 84.7051V85.4023C1331.69 86.974 1331.84 88.446 1332.15 89.8184C1332.46 91.1908 1332.94 92.3971 1333.58 93.4375C1334.22 94.4779 1335.05 95.2969 1336.07 95.8945C1337.11 96.4701 1338.35 96.7578 1339.79 96.7578C1341.21 96.7578 1342.42 96.4701 1343.44 95.8945C1344.46 95.2969 1345.29 94.4779 1345.93 93.4375C1346.6 92.3971 1347.08 91.1908 1347.39 89.8184C1347.7 88.446 1347.86 86.974 1347.86 85.4023V84.7051C1347.86 83.1556 1347.7 81.7057 1347.39 80.3555C1347.08 78.9831 1346.6 77.7767 1345.93 76.7363C1345.29 75.6738 1344.45 74.8438 1343.41 74.2461C1342.39 73.6263 1341.16 73.3164 1339.72 73.3164C1338.31 73.3164 1337.09 73.6263 1336.07 74.2461C1335.05 74.8438 1334.22 75.6738 1333.58 76.7363C1332.94 77.7767 1332.46 78.9831 1332.15 80.3555C1331.84 81.7057 1331.69 83.1556 1331.69 84.7051ZM1392.55 67.0742V103H1383.75V67.0742H1392.55ZM1388.56 82.7129V89.6191C1387.72 90.0176 1386.71 90.3939 1385.51 90.748C1384.34 91.0801 1383.1 91.3457 1381.79 91.5449C1380.51 91.7441 1379.26 91.8438 1378.04 91.8438C1374.74 91.8438 1371.9 91.3568 1369.51 90.3828C1367.14 89.4089 1365.31 87.9147 1364.03 85.9004C1362.74 83.8639 1362.1 81.263 1362.1 78.0977V67.041H1370.87V78.0977C1370.87 79.8021 1371.12 81.1523 1371.63 82.1484C1372.14 83.1445 1372.93 83.8529 1373.99 84.2734C1375.05 84.694 1376.4 84.9043 1378.04 84.9043C1379.3 84.9043 1380.51 84.8158 1381.66 84.6387C1382.81 84.4395 1383.95 84.1849 1385.08 83.875C1386.23 83.543 1387.39 83.1556 1388.56 82.7129ZM1425.05 81.8164V88.6895H1406.63V81.8164H1425.05ZM1409.38 67.0742V103H1400.58V67.0742H1409.38ZM1431.2 67.0742V103H1422.37V67.0742H1431.2ZM1437.61 85.4023V84.7051C1437.61 82.071 1437.98 79.6471 1438.73 77.4336C1439.49 75.1979 1440.58 73.2611 1442.02 71.623C1443.46 69.985 1445.22 68.7122 1447.3 67.8047C1449.38 66.875 1451.75 66.4102 1454.41 66.4102C1457.11 66.4102 1459.5 66.875 1461.58 67.8047C1463.68 68.7122 1465.45 69.985 1466.89 71.623C1468.33 73.2611 1469.43 75.1979 1470.18 77.4336C1470.93 79.6471 1471.31 82.071 1471.31 84.7051V85.4023C1471.31 88.0143 1470.93 90.4382 1470.18 92.6738C1469.43 94.8874 1468.33 96.8242 1466.89 98.4844C1465.45 100.122 1463.69 101.395 1461.61 102.303C1459.53 103.21 1457.15 103.664 1454.47 103.664C1451.82 103.664 1449.44 103.21 1447.33 102.303C1445.23 101.395 1443.46 100.122 1442.02 98.4844C1440.58 96.8242 1439.49 94.8874 1438.73 92.6738C1437.98 90.4382 1437.61 88.0143 1437.61 85.4023ZM1446.37 84.7051V85.4023C1446.37 86.974 1446.53 88.446 1446.84 89.8184C1447.15 91.1908 1447.62 92.3971 1448.26 93.4375C1448.91 94.4779 1449.74 95.2969 1450.75 95.8945C1451.79 96.4701 1453.03 96.7578 1454.47 96.7578C1455.89 96.7578 1457.11 96.4701 1458.12 95.8945C1459.14 95.2969 1459.97 94.4779 1460.62 93.4375C1461.28 92.3971 1461.77 91.1908 1462.08 89.8184C1462.39 88.446 1462.54 86.974 1462.54 85.4023V84.7051C1462.54 83.1556 1462.39 81.7057 1462.08 80.3555C1461.77 78.9831 1461.28 77.7767 1460.62 76.7363C1459.97 75.6738 1459.13 74.8438 1458.09 74.2461C1457.07 73.6263 1455.85 73.3164 1454.41 73.3164C1452.99 73.3164 1451.77 73.6263 1450.75 74.2461C1449.74 74.8438 1448.91 75.6738 1448.26 76.7363C1447.62 77.7767 1447.15 78.9831 1446.84 80.3555C1446.53 81.7057 1446.37 83.1556 1446.37 84.7051ZM429.193 176.758C430.433 176.758 431.54 176.514 432.514 176.027C433.488 175.54 434.262 174.854 434.838 173.969C435.436 173.083 435.757 172.054 435.801 170.881H444.068C444.024 173.316 443.338 175.496 442.01 177.422C440.682 179.348 438.911 180.875 436.697 182.004C434.506 183.111 432.049 183.664 429.326 183.664C426.559 183.664 424.146 183.199 422.088 182.27C420.029 181.34 418.314 180.045 416.941 178.385C415.591 176.725 414.573 174.799 413.887 172.607C413.223 170.416 412.891 168.07 412.891 165.568V164.506C412.891 162.005 413.223 159.658 413.887 157.467C414.573 155.275 415.591 153.35 416.941 151.689C418.314 150.029 420.029 148.734 422.088 147.805C424.146 146.875 426.548 146.41 429.293 146.41C432.193 146.41 434.738 146.975 436.93 148.104C439.143 149.232 440.87 150.826 442.109 152.885C443.371 154.943 444.024 157.367 444.068 160.156H435.801C435.757 158.872 435.469 157.721 434.938 156.703C434.406 155.685 433.654 154.866 432.68 154.246C431.706 153.626 430.521 153.316 429.127 153.316C427.644 153.316 426.404 153.626 425.408 154.246C424.434 154.866 423.671 155.718 423.117 156.803C422.586 157.865 422.21 159.061 421.988 160.389C421.789 161.695 421.689 163.067 421.689 164.506V165.568C421.689 167.029 421.789 168.424 421.988 169.752C422.21 171.08 422.586 172.275 423.117 173.338C423.671 174.378 424.434 175.208 425.408 175.828C426.404 176.448 427.666 176.758 429.193 176.758ZM458.678 153.98V196.812H449.879V147.074H458.014L458.678 153.98ZM481.754 164.672V165.369C481.754 167.981 481.444 170.405 480.824 172.641C480.227 174.854 479.341 176.791 478.168 178.451C476.995 180.089 475.534 181.373 473.785 182.303C472.059 183.21 470.066 183.664 467.809 183.664C465.595 183.664 463.669 183.243 462.031 182.402C460.393 181.539 459.01 180.322 457.881 178.75C456.752 177.178 455.844 175.352 455.158 173.271C454.494 171.169 453.996 168.878 453.664 166.398V164.174C453.996 161.54 454.494 159.149 455.158 157.002C455.844 154.833 456.752 152.962 457.881 151.391C459.01 149.797 460.382 148.568 461.998 147.705C463.636 146.842 465.551 146.41 467.742 146.41C470.022 146.41 472.025 146.842 473.752 147.705C475.501 148.568 476.973 149.808 478.168 151.424C479.363 153.04 480.26 154.965 480.857 157.201C481.455 159.437 481.754 161.927 481.754 164.672ZM472.955 165.369V164.672C472.955 163.078 472.811 161.606 472.523 160.256C472.236 158.883 471.793 157.688 471.195 156.67C470.598 155.63 469.823 154.822 468.871 154.246C467.919 153.671 466.768 153.383 465.418 153.383C464.068 153.383 462.906 153.604 461.932 154.047C460.958 154.49 460.161 155.12 459.541 155.939C458.921 156.758 458.434 157.732 458.08 158.861C457.748 159.968 457.527 161.197 457.416 162.547V168.059C457.615 169.697 458.003 171.169 458.578 172.475C459.154 173.781 459.995 174.821 461.102 175.596C462.23 176.37 463.691 176.758 465.484 176.758C466.835 176.758 467.986 176.459 468.938 175.861C469.889 175.264 470.664 174.445 471.262 173.404C471.859 172.342 472.291 171.124 472.557 169.752C472.822 168.38 472.955 166.919 472.955 165.369ZM504.299 183.664C501.576 183.664 499.13 183.221 496.961 182.336C494.792 181.451 492.943 180.222 491.416 178.65C489.911 177.057 488.749 175.208 487.93 173.105C487.133 170.98 486.734 168.701 486.734 166.266V164.938C486.734 162.171 487.133 159.658 487.93 157.4C488.727 155.12 489.855 153.161 491.316 151.523C492.777 149.885 494.526 148.624 496.562 147.738C498.599 146.853 500.846 146.41 503.303 146.41C505.848 146.41 508.095 146.842 510.043 147.705C511.991 148.546 513.618 149.742 514.924 151.291C516.23 152.84 517.215 154.7 517.879 156.869C518.543 159.016 518.875 161.396 518.875 164.008V167.693H490.719V161.65H510.242V160.986C510.198 159.592 509.932 158.319 509.445 157.168C508.958 155.995 508.206 155.065 507.188 154.379C506.169 153.671 504.852 153.316 503.236 153.316C501.93 153.316 500.79 153.604 499.816 154.18C498.865 154.733 498.068 155.53 497.426 156.57C496.806 157.589 496.341 158.806 496.031 160.223C495.721 161.639 495.566 163.211 495.566 164.938V166.266C495.566 167.771 495.766 169.165 496.164 170.449C496.585 171.733 497.193 172.851 497.99 173.803C498.809 174.732 499.783 175.463 500.912 175.994C502.063 176.503 503.369 176.758 504.83 176.758C506.667 176.758 508.327 176.404 509.811 175.695C511.316 174.965 512.622 173.891 513.729 172.475L518.145 177.057C517.392 178.163 516.374 179.226 515.09 180.244C513.828 181.262 512.301 182.092 510.508 182.734C508.715 183.354 506.645 183.664 504.299 183.664ZM531.227 147.074H539.992L539.66 159.426C539.549 163.167 539.107 166.398 538.332 169.121C537.579 171.822 536.572 174.09 535.311 175.928C534.071 177.765 532.654 179.248 531.061 180.377C529.489 181.506 527.84 182.38 526.113 183H524.021L523.988 176.16L525.018 176.094C526.058 174.987 526.932 173.902 527.641 172.84C528.371 171.755 528.958 170.593 529.4 169.354C529.843 168.114 530.175 166.697 530.396 165.104C530.64 163.488 530.795 161.595 530.861 159.426L531.227 147.074ZM533.584 147.074H556.859V183H548.094V154.279H533.584V147.074ZM522.029 176.094H561.873V193.758H553.107V183H530.961V193.758H521.996L522.029 176.094ZM581.994 176.758C583.234 176.758 584.34 176.514 585.314 176.027C586.288 175.54 587.063 174.854 587.639 173.969C588.236 173.083 588.557 172.054 588.602 170.881H596.869C596.825 173.316 596.139 175.496 594.811 177.422C593.482 179.348 591.712 180.875 589.498 182.004C587.307 183.111 584.85 183.664 582.127 183.664C579.36 183.664 576.947 183.199 574.889 182.27C572.83 181.34 571.115 180.045 569.742 178.385C568.392 176.725 567.374 174.799 566.688 172.607C566.023 170.416 565.691 168.07 565.691 165.568V164.506C565.691 162.005 566.023 159.658 566.688 157.467C567.374 155.275 568.392 153.35 569.742 151.689C571.115 150.029 572.83 148.734 574.889 147.805C576.947 146.875 579.349 146.41 582.094 146.41C584.993 146.41 587.539 146.975 589.73 148.104C591.944 149.232 593.671 150.826 594.91 152.885C596.172 154.943 596.825 157.367 596.869 160.156H588.602C588.557 158.872 588.27 157.721 587.738 156.703C587.207 155.685 586.454 154.866 585.48 154.246C584.507 153.626 583.322 153.316 581.928 153.316C580.445 153.316 579.205 153.626 578.209 154.246C577.235 154.866 576.471 155.718 575.918 156.803C575.387 157.865 575.01 159.061 574.789 160.389C574.59 161.695 574.49 163.067 574.49 164.506V165.568C574.49 167.029 574.59 168.424 574.789 169.752C575.01 171.08 575.387 172.275 575.918 173.338C576.471 174.378 577.235 175.208 578.209 175.828C579.205 176.448 580.467 176.758 581.994 176.758ZM620.145 147.074V183H611.346V147.074H620.145ZM631.832 147.074V153.914H599.857V147.074H631.832ZM654.643 167.793H643.254L643.188 161.85H652.551C653.945 161.85 655.085 161.706 655.971 161.418C656.856 161.13 657.509 160.699 657.93 160.123C658.372 159.548 658.594 158.85 658.594 158.031C658.594 157.323 658.461 156.714 658.195 156.205C657.93 155.674 657.531 155.242 657 154.91C656.491 154.578 655.838 154.335 655.041 154.18C654.266 154.003 653.359 153.914 652.318 153.914H646.375V183H637.576V147.074H652.318C654.643 147.074 656.734 147.285 658.594 147.705C660.453 148.104 662.036 148.712 663.342 149.531C664.648 150.35 665.644 151.391 666.33 152.652C667.038 153.892 667.393 155.353 667.393 157.035C667.393 158.142 667.149 159.182 666.662 160.156C666.175 161.13 665.456 161.993 664.504 162.746C663.552 163.499 662.379 164.118 660.984 164.605C659.59 165.07 657.996 165.358 656.203 165.469L654.643 167.793ZM654.643 183H640.896L644.15 176.16H654.643C655.926 176.16 656.989 176.005 657.83 175.695C658.671 175.363 659.291 174.887 659.689 174.268C660.11 173.648 660.32 172.895 660.32 172.01C660.32 171.146 660.121 170.405 659.723 169.785C659.346 169.143 658.738 168.656 657.896 168.324C657.077 167.97 655.993 167.793 654.643 167.793H645.578L645.645 161.85H656.17L658.494 164.207C660.885 164.362 662.866 164.849 664.438 165.668C666.009 166.465 667.182 167.483 667.957 168.723C668.732 169.94 669.119 171.279 669.119 172.74C669.119 174.445 668.798 175.939 668.156 177.223C667.514 178.507 666.574 179.58 665.334 180.443C664.094 181.285 662.578 181.926 660.785 182.369C658.992 182.79 656.945 183 654.643 183ZM698.902 147.074H707.668L707.336 159.426C707.225 163.167 706.783 166.398 706.008 169.121C705.255 171.822 704.248 174.09 702.986 175.928C701.747 177.765 700.33 179.248 698.736 180.377C697.165 181.506 695.516 182.38 693.789 183H691.697L691.664 176.16L692.693 176.094C693.734 174.987 694.608 173.902 695.316 172.84C696.047 171.755 696.633 170.593 697.076 169.354C697.519 168.114 697.851 166.697 698.072 165.104C698.316 163.488 698.471 161.595 698.537 159.426L698.902 147.074ZM701.26 147.074H724.535V183H715.77V154.279H701.26V147.074ZM689.705 176.094H729.549V193.758H720.783V183H698.637V193.758H689.672L689.705 176.094ZM759.066 147.074V154.014H741.469V147.074H759.066ZM765.674 147.074V183H756.908V147.074H765.674ZM739.277 147.074H747.943L746.98 165.004C746.826 167.638 746.549 169.951 746.15 171.943C745.752 173.913 745.221 175.607 744.557 177.023C743.893 178.418 743.085 179.558 742.133 180.443C741.181 181.329 740.074 181.982 738.812 182.402C737.573 182.801 736.178 183 734.629 183H731.939L731.84 175.928L733.102 175.828C733.876 175.762 734.54 175.551 735.094 175.197C735.669 174.843 736.156 174.334 736.555 173.67C736.975 173.006 737.318 172.154 737.584 171.113C737.872 170.051 738.093 168.811 738.248 167.395C738.425 165.956 738.547 164.296 738.613 162.414L739.277 147.074ZM781.346 165.27H790.344L780.25 183H771.252L781.346 165.27ZM787.455 147.074H803.061V183H794.295V153.914H787.455C786.061 153.914 784.898 154.169 783.969 154.678C783.061 155.187 782.386 155.84 781.943 156.637C781.501 157.411 781.279 158.208 781.279 159.027C781.279 159.824 781.49 160.599 781.91 161.352C782.331 162.104 782.973 162.724 783.836 163.211C784.721 163.698 785.828 163.941 787.156 163.941H797.416V170.117H787.156C784.876 170.117 782.829 169.84 781.014 169.287C779.221 168.712 777.682 167.915 776.398 166.896C775.137 165.878 774.174 164.683 773.51 163.311C772.846 161.916 772.514 160.4 772.514 158.762C772.514 157.079 772.846 155.53 773.51 154.113C774.196 152.697 775.181 151.457 776.465 150.395C777.771 149.332 779.342 148.513 781.18 147.938C783.039 147.362 785.131 147.074 787.455 147.074ZM846.225 167.793H834.836L834.77 161.85H844.133C845.527 161.85 846.667 161.706 847.553 161.418C848.438 161.13 849.091 160.699 849.512 160.123C849.954 159.548 850.176 158.85 850.176 158.031C850.176 157.323 850.043 156.714 849.777 156.205C849.512 155.674 849.113 155.242 848.582 154.91C848.073 154.578 847.42 154.335 846.623 154.18C845.848 154.003 844.941 153.914 843.9 153.914H837.957V183H829.158V147.074H843.9C846.225 147.074 848.316 147.285 850.176 147.705C852.035 148.104 853.618 148.712 854.924 149.531C856.23 150.35 857.226 151.391 857.912 152.652C858.62 153.892 858.975 155.353 858.975 157.035C858.975 158.142 858.731 159.182 858.244 160.156C857.757 161.13 857.038 161.993 856.086 162.746C855.134 163.499 853.961 164.118 852.566 164.605C851.172 165.07 849.578 165.358 847.785 165.469L846.225 167.793ZM846.225 183H832.479L835.732 176.16H846.225C847.508 176.16 848.571 176.005 849.412 175.695C850.253 175.363 850.873 174.887 851.271 174.268C851.692 173.648 851.902 172.895 851.902 172.01C851.902 171.146 851.703 170.405 851.305 169.785C850.928 169.143 850.32 168.656 849.479 168.324C848.66 167.97 847.575 167.793 846.225 167.793H837.16L837.227 161.85H847.752L850.076 164.207C852.467 164.362 854.448 164.849 856.02 165.668C857.591 166.465 858.764 167.483 859.539 168.723C860.314 169.94 860.701 171.279 860.701 172.74C860.701 174.445 860.38 175.939 859.738 177.223C859.096 178.507 858.156 179.58 856.916 180.443C855.676 181.285 854.16 181.926 852.367 182.369C850.574 182.79 848.527 183 846.225 183ZM873.318 158.131H883.811C886.998 158.131 889.71 158.662 891.945 159.725C894.203 160.765 895.919 162.226 897.092 164.107C898.287 165.967 898.885 168.125 898.885 170.582C898.885 172.353 898.542 174.002 897.855 175.529C897.191 177.035 896.217 178.352 894.934 179.48C893.65 180.587 892.067 181.451 890.186 182.07C888.326 182.69 886.201 183 883.811 183H867.674V147.074H876.473V176.127H883.811C885.338 176.127 886.555 175.872 887.463 175.363C888.393 174.832 889.057 174.157 889.455 173.338C889.876 172.497 890.086 171.6 890.086 170.648C890.086 169.674 889.876 168.767 889.455 167.926C889.057 167.062 888.393 166.365 887.463 165.834C886.555 165.303 885.338 165.037 883.811 165.037H873.318V158.131ZM913.627 147.074V183H904.828V147.074H913.627ZM940.256 167.793H928.867L928.801 161.85H938.164C939.559 161.85 940.699 161.706 941.584 161.418C942.469 161.13 943.122 160.699 943.543 160.123C943.986 159.548 944.207 158.85 944.207 158.031C944.207 157.323 944.074 156.714 943.809 156.205C943.543 155.674 943.145 155.242 942.613 154.91C942.104 154.578 941.451 154.335 940.654 154.18C939.88 154.003 938.972 153.914 937.932 153.914H931.988V183H923.189V147.074H937.932C940.256 147.074 942.348 147.285 944.207 147.705C946.066 148.104 947.649 148.712 948.955 149.531C950.261 150.35 951.257 151.391 951.943 152.652C952.652 153.892 953.006 155.353 953.006 157.035C953.006 158.142 952.762 159.182 952.275 160.156C951.788 161.13 951.069 161.993 950.117 162.746C949.165 163.499 947.992 164.118 946.598 164.605C945.203 165.07 943.609 165.358 941.816 165.469L940.256 167.793ZM940.256 183H926.51L929.764 176.16H940.256C941.54 176.16 942.602 176.005 943.443 175.695C944.285 175.363 944.904 174.887 945.303 174.268C945.723 173.648 945.934 172.895 945.934 172.01C945.934 171.146 945.734 170.405 945.336 169.785C944.96 169.143 944.351 168.656 943.51 168.324C942.691 167.97 941.606 167.793 940.256 167.793H931.191L931.258 161.85H941.783L944.107 164.207C946.498 164.362 948.479 164.849 950.051 165.668C951.622 166.465 952.796 167.483 953.57 168.723C954.345 169.94 954.732 171.279 954.732 172.74C954.732 174.445 954.411 175.939 953.77 177.223C953.128 178.507 952.187 179.58 950.947 180.443C949.708 181.285 948.191 181.926 946.398 182.369C944.605 182.79 942.558 183 940.256 183ZM959.547 165.402V164.705C959.547 162.071 959.923 159.647 960.676 157.434C961.428 155.198 962.524 153.261 963.963 151.623C965.402 149.985 967.161 148.712 969.242 147.805C971.323 146.875 973.691 146.41 976.348 146.41C979.048 146.41 981.439 146.875 983.52 147.805C985.622 148.712 987.393 149.985 988.832 151.623C990.271 153.261 991.367 155.198 992.119 157.434C992.872 159.647 993.248 162.071 993.248 164.705V165.402C993.248 168.014 992.872 170.438 992.119 172.674C991.367 174.887 990.271 176.824 988.832 178.484C987.393 180.122 985.633 181.395 983.553 182.303C981.472 183.21 979.092 183.664 976.414 183.664C973.758 183.664 971.378 183.21 969.275 182.303C967.173 181.395 965.402 180.122 963.963 178.484C962.524 176.824 961.428 174.887 960.676 172.674C959.923 170.438 959.547 168.014 959.547 165.402ZM968.312 164.705V165.402C968.312 166.974 968.467 168.446 968.777 169.818C969.087 171.191 969.563 172.397 970.205 173.438C970.847 174.478 971.677 175.297 972.695 175.895C973.736 176.47 974.975 176.758 976.414 176.758C977.831 176.758 979.048 176.47 980.066 175.895C981.085 175.297 981.915 174.478 982.557 173.438C983.221 172.397 983.708 171.191 984.018 169.818C984.327 168.446 984.482 166.974 984.482 165.402V164.705C984.482 163.156 984.327 161.706 984.018 160.355C983.708 158.983 983.221 157.777 982.557 156.736C981.915 155.674 981.074 154.844 980.033 154.246C979.015 153.626 977.786 153.316 976.348 153.316C974.931 153.316 973.714 153.626 972.695 154.246C971.677 154.844 970.847 155.674 970.205 156.736C969.563 157.777 969.087 158.983 968.777 160.355C968.467 161.706 968.312 163.156 968.312 164.705ZM1003.71 147.074H1012.47L1012.14 159.426C1012.03 163.167 1011.59 166.398 1010.81 169.121C1010.06 171.822 1009.05 174.09 1007.79 175.928C1006.55 177.765 1005.13 179.248 1003.54 180.377C1001.97 181.506 1000.32 182.38 998.594 183H996.502L996.469 176.16L997.498 176.094C998.538 174.987 999.413 173.902 1000.12 172.84C1000.85 171.755 1001.44 170.593 1001.88 169.354C1002.32 168.114 1002.66 166.697 1002.88 165.104C1003.12 163.488 1003.28 161.595 1003.34 159.426L1003.71 147.074ZM1006.06 147.074H1029.34V183H1020.57V154.279H1006.06V147.074ZM994.51 176.094H1034.35V193.758H1025.59V183H1003.44V193.758H994.477L994.51 176.094ZM1059.52 175.363V158.795C1059.52 157.577 1059.31 156.526 1058.89 155.641C1058.47 154.755 1057.83 154.069 1056.96 153.582C1056.1 153.095 1055.01 152.852 1053.68 152.852C1052.5 152.852 1051.48 153.051 1050.59 153.449C1049.73 153.848 1049.06 154.412 1048.6 155.143C1048.13 155.851 1047.9 156.67 1047.9 157.6H1039.1C1039.1 156.117 1039.46 154.711 1040.16 153.383C1040.87 152.033 1041.88 150.837 1043.19 149.797C1044.51 148.734 1046.1 147.904 1047.93 147.307C1049.79 146.709 1051.87 146.41 1054.18 146.41C1056.9 146.41 1059.32 146.875 1061.45 147.805C1063.59 148.712 1065.28 150.085 1066.49 151.922C1067.73 153.759 1068.35 156.072 1068.35 158.861V174.533C1068.35 176.326 1068.46 177.865 1068.69 179.148C1068.93 180.41 1069.28 181.506 1069.75 182.436V183H1060.82C1060.4 182.092 1060.07 180.941 1059.85 179.547C1059.63 178.13 1059.52 176.736 1059.52 175.363ZM1060.75 161.119L1060.82 166.332H1055.27C1053.9 166.332 1052.69 166.476 1051.65 166.764C1050.61 167.029 1049.76 167.428 1049.1 167.959C1048.43 168.468 1047.93 169.088 1047.6 169.818C1047.27 170.527 1047.1 171.335 1047.1 172.242C1047.1 173.128 1047.3 173.924 1047.7 174.633C1048.12 175.341 1048.72 175.906 1049.49 176.326C1050.29 176.725 1051.22 176.924 1052.28 176.924C1053.83 176.924 1055.18 176.614 1056.33 175.994C1057.49 175.352 1058.38 174.577 1059.02 173.67C1059.67 172.762 1060.01 171.899 1060.05 171.08L1062.58 174.865C1062.27 175.773 1061.8 176.736 1061.18 177.754C1060.56 178.772 1059.76 179.724 1058.79 180.609C1057.82 181.495 1056.64 182.225 1055.27 182.801C1053.9 183.376 1052.31 183.664 1050.49 183.664C1048.17 183.664 1046.09 183.199 1044.25 182.27C1042.41 181.34 1040.96 180.067 1039.9 178.451C1038.84 176.835 1038.3 174.998 1038.3 172.939C1038.3 171.036 1038.66 169.354 1039.37 167.893C1040.08 166.432 1041.13 165.203 1042.52 164.207C1043.92 163.189 1045.64 162.425 1047.7 161.916C1049.78 161.385 1052.16 161.119 1054.84 161.119H1060.75ZM1086.25 134.656L1085.29 168.49H1077.88L1076.92 134.656H1086.25ZM1076.65 178.916C1076.65 177.61 1077.1 176.514 1077.98 175.629C1078.89 174.721 1080.11 174.268 1081.63 174.268C1083.16 174.268 1084.37 174.721 1085.25 175.629C1086.16 176.514 1086.62 177.61 1086.62 178.916C1086.62 180.2 1086.16 181.285 1085.25 182.17C1084.37 183.055 1083.16 183.498 1081.63 183.498C1080.11 183.498 1078.89 183.055 1077.98 182.17C1077.1 181.285 1076.65 180.2 1076.65 178.916Z" fill="white"/>
<path d="M1933.98 148.781C1930.85 148.781 1928.03 148.273 1925.5 147.258C1923 146.216 1920.86 144.771 1919.09 142.922C1917.35 141.073 1916.01 138.898 1915.07 136.398C1914.13 133.898 1913.66 131.203 1913.66 128.312V126.75C1913.66 123.443 1914.15 120.448 1915.11 117.766C1916.07 115.083 1917.41 112.792 1919.13 110.891C1920.85 108.964 1922.88 107.492 1925.23 106.477C1927.57 105.461 1930.11 104.953 1932.84 104.953C1935.86 104.953 1938.51 105.461 1940.77 106.477C1943.04 107.492 1944.91 108.924 1946.4 110.773C1947.91 112.596 1949.03 114.771 1949.76 117.297C1950.51 119.823 1950.89 122.609 1950.89 125.656V129.68H1918.23V122.922H1941.59V122.18C1941.54 120.487 1941.2 118.898 1940.58 117.414C1939.98 115.93 1939.05 114.732 1937.8 113.82C1936.55 112.909 1934.89 112.453 1932.8 112.453C1931.24 112.453 1929.85 112.792 1928.62 113.469C1927.43 114.12 1926.42 115.07 1925.62 116.32C1924.81 117.57 1924.18 119.081 1923.74 120.852C1923.33 122.596 1923.12 124.562 1923.12 126.75V128.312C1923.12 130.161 1923.36 131.88 1923.86 133.469C1924.38 135.031 1925.14 136.398 1926.12 137.57C1927.11 138.742 1928.31 139.667 1929.72 140.344C1931.12 140.995 1932.73 141.32 1934.52 141.32C1936.79 141.32 1938.81 140.865 1940.58 139.953C1942.35 139.042 1943.89 137.753 1945.19 136.086L1950.15 140.891C1949.24 142.219 1948.05 143.495 1946.59 144.719C1945.14 145.917 1943.35 146.893 1941.24 147.648C1939.16 148.404 1936.74 148.781 1933.98 148.781ZM1967.69 113.781V148H1958.27V105.734H1967.26L1967.69 113.781ZM1980.62 105.461L1980.54 114.211C1979.97 114.107 1979.34 114.029 1978.66 113.977C1978.01 113.924 1977.36 113.898 1976.71 113.898C1975.1 113.898 1973.68 114.133 1972.45 114.602C1971.23 115.044 1970.2 115.695 1969.37 116.555C1968.56 117.388 1967.93 118.404 1967.49 119.602C1967.05 120.799 1966.79 122.141 1966.71 123.625L1964.56 123.781C1964.56 121.125 1964.82 118.664 1965.34 116.398C1965.86 114.133 1966.65 112.141 1967.69 110.422C1968.76 108.703 1970.08 107.362 1971.67 106.398C1973.29 105.435 1975.15 104.953 1977.26 104.953C1977.83 104.953 1978.44 105.005 1979.09 105.109C1979.77 105.214 1980.28 105.331 1980.62 105.461ZM2011.67 90.9297V148H2002.26V102.102L1988.31 106.828V99.0547L2010.54 90.9297H2011.67ZM2068.51 114.797V124.094C2068.51 128.547 2068.07 132.349 2067.18 135.5C2066.32 138.625 2065.07 141.164 2063.43 143.117C2061.79 145.07 2059.82 146.503 2057.53 147.414C2055.27 148.326 2052.73 148.781 2049.91 148.781C2047.67 148.781 2045.59 148.495 2043.66 147.922C2041.76 147.349 2040.04 146.451 2038.51 145.227C2036.97 144.003 2035.66 142.427 2034.56 140.5C2033.49 138.547 2032.66 136.216 2032.06 133.508C2031.49 130.799 2031.2 127.661 2031.2 124.094V114.797C2031.2 110.318 2031.65 106.542 2032.53 103.469C2033.42 100.37 2034.68 97.8568 2036.32 95.9297C2037.96 93.9766 2039.91 92.5573 2042.18 91.6719C2044.47 90.7865 2047.02 90.3438 2049.84 90.3438C2052.1 90.3438 2054.18 90.6302 2056.09 91.2031C2058.01 91.75 2059.73 92.6224 2061.24 93.8203C2062.78 95.0182 2064.08 96.5807 2065.15 98.5078C2066.24 100.409 2067.08 102.714 2067.65 105.422C2068.22 108.104 2068.51 111.229 2068.51 114.797ZM2059.09 125.422V113.391C2059.09 111.125 2058.96 109.133 2058.7 107.414C2058.44 105.669 2058.05 104.198 2057.53 103C2057.04 101.776 2056.41 100.786 2055.66 100.031C2054.9 99.25 2054.04 98.6901 2053.08 98.3516C2052.11 97.987 2051.03 97.8047 2049.84 97.8047C2048.38 97.8047 2047.08 98.0911 2045.93 98.6641C2044.78 99.2109 2043.82 100.096 2043.04 101.32C2042.26 102.544 2041.66 104.159 2041.24 106.164C2040.85 108.143 2040.66 110.552 2040.66 113.391V125.422C2040.66 127.714 2040.79 129.732 2041.05 131.477C2041.31 133.221 2041.7 134.719 2042.22 135.969C2042.74 137.193 2043.36 138.208 2044.09 139.016C2044.85 139.797 2045.71 140.37 2046.67 140.734C2047.66 141.099 2048.74 141.281 2049.91 141.281C2051.4 141.281 2052.71 140.995 2053.86 140.422C2055.01 139.849 2055.97 138.938 2056.75 137.688C2057.53 136.411 2058.12 134.758 2058.51 132.727C2058.9 130.695 2059.09 128.26 2059.09 125.422ZM2114.09 132.492C2114.09 136.034 2113.27 139.016 2111.63 141.438C2109.99 143.859 2107.75 145.695 2104.91 146.945C2102.1 148.169 2098.92 148.781 2095.38 148.781C2091.84 148.781 2088.65 148.169 2085.81 146.945C2082.97 145.695 2080.73 143.859 2079.09 141.438C2077.45 139.016 2076.63 136.034 2076.63 132.492C2076.63 130.148 2077.09 128.026 2078 126.125C2078.91 124.198 2080.2 122.544 2081.87 121.164C2083.56 119.758 2085.54 118.677 2087.8 117.922C2090.1 117.167 2092.6 116.789 2095.3 116.789C2098.9 116.789 2102.11 117.453 2104.95 118.781C2107.79 120.109 2110.02 121.945 2111.63 124.289C2113.27 126.633 2114.09 129.367 2114.09 132.492ZM2104.64 132.023C2104.64 130.122 2104.25 128.456 2103.47 127.023C2102.69 125.591 2101.59 124.484 2100.19 123.703C2098.78 122.922 2097.15 122.531 2095.3 122.531C2093.43 122.531 2091.8 122.922 2090.42 123.703C2089.04 124.484 2087.96 125.591 2087.18 127.023C2086.42 128.456 2086.05 130.122 2086.05 132.023C2086.05 133.951 2086.42 135.617 2087.18 137.023C2087.93 138.404 2089.02 139.458 2090.42 140.188C2091.83 140.917 2093.48 141.281 2095.38 141.281C2097.28 141.281 2098.92 140.917 2100.3 140.188C2101.68 139.458 2102.75 138.404 2103.51 137.023C2104.26 135.617 2104.64 133.951 2104.64 132.023ZM2112.8 106.086C2112.8 108.924 2112.05 111.451 2110.54 113.664C2109.05 115.878 2107 117.622 2104.37 118.898C2101.74 120.148 2098.74 120.773 2095.38 120.773C2092 120.773 2088.98 120.148 2086.32 118.898C2083.69 117.622 2081.62 115.878 2080.11 113.664C2078.62 111.451 2077.88 108.924 2077.88 106.086C2077.88 102.701 2078.62 99.849 2080.11 97.5312C2081.62 95.1875 2083.69 93.4036 2086.32 92.1797C2088.95 90.9557 2091.96 90.3438 2095.34 90.3438C2098.73 90.3438 2101.74 90.9557 2104.37 92.1797C2107 93.4036 2109.05 95.1875 2110.54 97.5312C2112.05 99.849 2112.8 102.701 2112.8 106.086ZM2103.39 106.398C2103.39 104.706 2103.05 103.221 2102.38 101.945C2101.72 100.643 2100.8 99.6276 2099.6 98.8984C2098.4 98.1693 2096.98 97.8047 2095.34 97.8047C2093.7 97.8047 2092.28 98.1562 2091.09 98.8594C2089.89 99.5625 2088.96 100.552 2088.31 101.828C2087.66 103.104 2087.34 104.628 2087.34 106.398C2087.34 108.143 2087.66 109.667 2088.31 110.969C2088.96 112.245 2089.89 113.247 2091.09 113.977C2092.31 114.706 2093.74 115.07 2095.38 115.07C2097.02 115.07 2098.44 114.706 2099.64 113.977C2100.84 113.247 2101.76 112.245 2102.41 110.969C2103.07 109.667 2103.39 108.143 2103.39 106.398ZM2123.31 143.312C2123.31 141.854 2123.81 140.63 2124.8 139.641C2125.79 138.625 2127.13 138.117 2128.82 138.117C2130.54 138.117 2131.88 138.625 2132.84 139.641C2133.83 140.63 2134.33 141.854 2134.33 143.312C2134.33 144.771 2133.83 145.995 2132.84 146.984C2131.88 147.974 2130.54 148.469 2128.82 148.469C2127.13 148.469 2125.79 147.974 2124.8 146.984C2123.81 145.995 2123.31 144.771 2123.31 143.312Z" fill="#7666C4"/>
<path fill-rule="evenodd" clip-rule="evenodd" d="M248.5 120C248.5 79.1298 215.37 46 174.5 46C133.63 46 100.5 79.1298 100.5 120C100.5 160.87 133.63 194 174.5 194C215.37 194 248.5 160.87 248.5 120ZM174.5 83C176.463 83 178.345 83.7796 179.733 85.1674C181.12 86.5552 181.9 88.4374 181.9 90.4V127.4C181.9 129.363 181.12 131.245 179.733 132.633C178.345 134.02 176.463 134.8 174.5 134.8C172.537 134.8 170.655 134.02 169.267 132.633C167.88 131.245 167.1 129.363 167.1 127.4V90.4C167.1 88.4374 167.88 86.5552 169.267 85.1674C170.655 83.7796 172.537 83 174.5 83ZM167.1 149.6C167.1 147.637 167.88 145.755 169.267 144.367C170.655 142.98 172.537 142.2 174.5 142.2H174.559C176.522 142.2 178.404 142.98 179.792 144.367C181.18 145.755 181.959 147.637 181.959 149.6C181.959 151.563 181.18 153.445 179.792 154.833C178.404 156.22 176.522 157 174.559 157H174.5C172.537 157 170.655 156.22 169.267 154.833C167.88 153.445 167.1 151.563 167.1 149.6Z" fill="#E6E6E6"/>
</svg>
