<svg width="2241" height="240" viewBox="0 0 2241 240" fill="none" xmlns="http://www.w3.org/2000/svg">
<rect x="0.5" width="2240" height="240" rx="30" fill="#131313"/>
<path d="M430.256 85.834L442.342 54.6562H452.27L435.602 93.9355C435.048 95.1973 434.417 96.4147 433.709 97.5879C433.001 98.7611 432.148 99.8125 431.152 100.742C430.178 101.65 428.994 102.369 427.6 102.9C426.227 103.432 424.567 103.697 422.619 103.697C422.11 103.697 421.501 103.675 420.793 103.631C420.085 103.609 419.542 103.576 419.166 103.531V96.3594C419.432 96.4258 419.863 96.4701 420.461 96.4922C421.081 96.5143 421.523 96.5254 421.789 96.5254C423.073 96.5254 424.091 96.3262 424.844 95.9277C425.618 95.5072 426.227 94.9427 426.67 94.2344C427.135 93.5039 427.544 92.6738 427.898 91.7441L430.256 85.834ZM421.689 54.6562L433.277 79.9902L436 89.8516L429.061 90.0508L411.795 54.6562H421.689ZM491.947 87.793H480.559L480.492 81.8496H489.855C491.25 81.8496 492.39 81.7057 493.275 81.418C494.161 81.1302 494.814 80.6986 495.234 80.123C495.677 79.5475 495.898 78.8503 495.898 78.0312C495.898 77.3229 495.766 76.7142 495.5 76.2051C495.234 75.6738 494.836 75.2422 494.305 74.9102C493.796 74.5781 493.143 74.3346 492.346 74.1797C491.571 74.0026 490.663 73.9141 489.623 73.9141H483.68V103H474.881V67.0742H489.623C491.947 67.0742 494.039 67.2845 495.898 67.7051C497.758 68.1035 499.34 68.7122 500.646 69.5312C501.952 70.3503 502.949 71.3906 503.635 72.6523C504.343 73.8919 504.697 75.3529 504.697 77.0352C504.697 78.1419 504.454 79.1823 503.967 80.1562C503.48 81.1302 502.76 81.9935 501.809 82.7461C500.857 83.4987 499.684 84.1185 498.289 84.6055C496.895 85.0703 495.301 85.3581 493.508 85.4688L491.947 87.793ZM491.947 103H478.201L481.455 96.1602H491.947C493.231 96.1602 494.294 96.0052 495.135 95.6953C495.976 95.3633 496.596 94.8874 496.994 94.2676C497.415 93.6478 497.625 92.8952 497.625 92.0098C497.625 91.1465 497.426 90.4049 497.027 89.7852C496.651 89.1432 496.042 88.6562 495.201 88.3242C494.382 87.9701 493.298 87.793 491.947 87.793H482.883L482.949 81.8496H493.475L495.799 84.207C498.189 84.362 500.171 84.849 501.742 85.668C503.314 86.4648 504.487 87.4831 505.262 88.7227C506.036 89.9401 506.424 91.2793 506.424 92.7402C506.424 94.4447 506.103 95.9388 505.461 97.2227C504.819 98.5065 503.878 99.5801 502.639 100.443C501.399 101.285 499.883 101.926 498.09 102.369C496.297 102.79 494.249 103 491.947 103ZM532.588 95.3633V78.7949C532.588 77.5775 532.378 76.526 531.957 75.6406C531.536 74.7552 530.895 74.069 530.031 73.582C529.168 73.0951 528.072 72.8516 526.744 72.8516C525.571 72.8516 524.542 73.0508 523.656 73.4492C522.793 73.8477 522.129 74.4121 521.664 75.1426C521.199 75.8509 520.967 76.6699 520.967 77.5996H512.168C512.168 76.1165 512.522 74.7109 513.23 73.3828C513.939 72.0326 514.946 70.8372 516.252 69.7969C517.58 68.7344 519.163 67.9043 521 67.3066C522.859 66.709 524.94 66.4102 527.242 66.4102C529.965 66.4102 532.389 66.875 534.514 67.8047C536.661 68.7122 538.343 70.0846 539.561 71.9219C540.8 73.7591 541.42 76.0723 541.42 78.8613V94.5332C541.42 96.3262 541.531 97.8646 541.752 99.1484C541.995 100.41 542.35 101.506 542.814 102.436V103H533.883C533.462 102.092 533.141 100.941 532.92 99.5469C532.699 98.1302 532.588 96.7357 532.588 95.3633ZM533.816 81.1191L533.883 86.332H528.338C526.965 86.332 525.759 86.4759 524.719 86.7637C523.678 87.0293 522.826 87.4277 522.162 87.959C521.498 88.4681 521 89.0879 520.668 89.8184C520.336 90.5267 520.17 91.3346 520.17 92.2422C520.17 93.1276 520.369 93.9245 520.768 94.6328C521.188 95.3411 521.786 95.9056 522.561 96.3262C523.357 96.7246 524.287 96.9238 525.35 96.9238C526.899 96.9238 528.249 96.6139 529.4 95.9941C530.551 95.3522 531.448 94.5775 532.09 93.6699C532.732 92.7624 533.075 91.8991 533.119 91.0801L535.643 94.8652C535.333 95.7728 534.868 96.7357 534.248 97.7539C533.628 98.7721 532.831 99.724 531.857 100.609C530.883 101.495 529.71 102.225 528.338 102.801C526.965 103.376 525.372 103.664 523.557 103.664C521.232 103.664 519.152 103.199 517.314 102.27C515.477 101.34 514.027 100.067 512.965 98.4512C511.902 96.8353 511.371 94.998 511.371 92.9395C511.371 91.0358 511.725 89.3535 512.434 87.8926C513.142 86.4316 514.193 85.2031 515.588 84.207C516.982 83.1888 518.709 82.4251 520.768 81.916C522.848 81.3848 525.228 81.1191 527.906 81.1191H533.816ZM564.064 96.7578C565.304 96.7578 566.411 96.5143 567.385 96.0273C568.359 95.5404 569.133 94.8542 569.709 93.9688C570.307 93.0833 570.628 92.054 570.672 90.8809H578.939C578.895 93.3158 578.209 95.4961 576.881 97.4219C575.553 99.3477 573.782 100.875 571.568 102.004C569.377 103.111 566.92 103.664 564.197 103.664C561.43 103.664 559.018 103.199 556.959 102.27C554.9 101.34 553.185 100.045 551.812 98.3848C550.462 96.7246 549.444 94.7988 548.758 92.6074C548.094 90.416 547.762 88.0697 547.762 85.5684V84.5059C547.762 82.0046 548.094 79.6582 548.758 77.4668C549.444 75.2754 550.462 73.3496 551.812 71.6895C553.185 70.0293 554.9 68.7344 556.959 67.8047C559.018 66.875 561.419 66.4102 564.164 66.4102C567.064 66.4102 569.609 66.9746 571.801 68.1035C574.014 69.2324 575.741 70.8262 576.98 72.8848C578.242 74.9434 578.895 77.3672 578.939 80.1562H570.672C570.628 78.8724 570.34 77.7214 569.809 76.7031C569.277 75.6849 568.525 74.8659 567.551 74.2461C566.577 73.6263 565.393 73.3164 563.998 73.3164C562.515 73.3164 561.275 73.6263 560.279 74.2461C559.305 74.8659 558.542 75.7181 557.988 76.8027C557.457 77.8652 557.081 79.0605 556.859 80.3887C556.66 81.6947 556.561 83.0671 556.561 84.5059V85.5684C556.561 87.0293 556.66 88.4238 556.859 89.752C557.081 91.0801 557.457 92.2754 557.988 93.3379C558.542 94.3783 559.305 95.2083 560.279 95.8281C561.275 96.4479 562.537 96.7578 564.064 96.7578ZM1335.67 95.0977L1335.61 101.174C1335.61 103.542 1335.02 105.944 1333.85 108.379C1332.67 110.814 1331.16 112.828 1329.3 114.422L1324.65 111.865C1325.25 110.869 1325.8 109.862 1326.31 108.844C1326.84 107.826 1327.26 106.719 1327.57 105.523C1327.9 104.35 1328.07 103.033 1328.07 101.572V95.0977H1335.67ZM438.557 147.074V154.014H420.992V147.074H438.557ZM423.316 147.074V183H414.518V147.074H423.316ZM445.197 147.074V183H436.365V147.074H445.197ZM451.605 165.402V164.705C451.605 162.071 451.982 159.647 452.734 157.434C453.487 155.198 454.583 153.261 456.021 151.623C457.46 149.985 459.22 148.712 461.301 147.805C463.382 146.875 465.75 146.41 468.406 146.41C471.107 146.41 473.497 146.875 475.578 147.805C477.681 148.712 479.452 149.985 480.891 151.623C482.329 153.261 483.425 155.198 484.178 157.434C484.93 159.647 485.307 162.071 485.307 164.705V165.402C485.307 168.014 484.93 170.438 484.178 172.674C483.425 174.887 482.329 176.824 480.891 178.484C479.452 180.122 477.692 181.395 475.611 182.303C473.531 183.21 471.151 183.664 468.473 183.664C465.816 183.664 463.437 183.21 461.334 182.303C459.231 181.395 457.46 180.122 456.021 178.484C454.583 176.824 453.487 174.887 452.734 172.674C451.982 170.438 451.605 168.014 451.605 165.402ZM460.371 164.705V165.402C460.371 166.974 460.526 168.446 460.836 169.818C461.146 171.191 461.622 172.397 462.264 173.438C462.906 174.478 463.736 175.297 464.754 175.895C465.794 176.47 467.034 176.758 468.473 176.758C469.889 176.758 471.107 176.47 472.125 175.895C473.143 175.297 473.973 174.478 474.615 173.438C475.279 172.397 475.766 171.191 476.076 169.818C476.386 168.446 476.541 166.974 476.541 165.402V164.705C476.541 163.156 476.386 161.706 476.076 160.355C475.766 158.983 475.279 157.777 474.615 156.736C473.973 155.674 473.132 154.844 472.092 154.246C471.074 153.626 469.845 153.316 468.406 153.316C466.99 153.316 465.772 153.626 464.754 154.246C463.736 154.844 462.906 155.674 462.264 156.736C461.622 157.777 461.146 158.983 460.836 160.355C460.526 161.706 460.371 163.156 460.371 164.705ZM503.203 168.988L488.594 147.074H499.418L507.42 160.92H514.359L513.264 168.988H503.203ZM507.586 167.594L498.887 183H488.229L500.68 163.012L507.586 167.594ZM519.871 147.074V183H511.105V147.074H519.871ZM542.482 147.074L527.84 168.988H517.779L516.684 160.92H523.623L531.625 147.074H542.482ZM532.156 183L523.457 167.594L530.596 163.012L543.014 183H532.156ZM567.65 175.363V158.795C567.65 157.577 567.44 156.526 567.02 155.641C566.599 154.755 565.957 154.069 565.094 153.582C564.23 153.095 563.135 152.852 561.807 152.852C560.633 152.852 559.604 153.051 558.719 153.449C557.855 153.848 557.191 154.412 556.727 155.143C556.262 155.851 556.029 156.67 556.029 157.6H547.23C547.23 156.117 547.585 154.711 548.293 153.383C549.001 152.033 550.008 150.837 551.314 149.797C552.643 148.734 554.225 147.904 556.062 147.307C557.922 146.709 560.003 146.41 562.305 146.41C565.027 146.41 567.451 146.875 569.576 147.805C571.723 148.712 573.406 150.085 574.623 151.922C575.863 153.759 576.482 156.072 576.482 158.861V174.533C576.482 176.326 576.593 177.865 576.814 179.148C577.058 180.41 577.412 181.506 577.877 182.436V183H568.945C568.525 182.092 568.204 180.941 567.982 179.547C567.761 178.13 567.65 176.736 567.65 175.363ZM568.879 161.119L568.945 166.332H563.4C562.028 166.332 560.822 166.476 559.781 166.764C558.741 167.029 557.889 167.428 557.225 167.959C556.561 168.468 556.062 169.088 555.73 169.818C555.398 170.527 555.232 171.335 555.232 172.242C555.232 173.128 555.432 173.924 555.83 174.633C556.251 175.341 556.848 175.906 557.623 176.326C558.42 176.725 559.35 176.924 560.412 176.924C561.962 176.924 563.312 176.614 564.463 175.994C565.614 175.352 566.51 174.577 567.152 173.67C567.794 172.762 568.137 171.899 568.182 171.08L570.705 174.865C570.395 175.773 569.93 176.736 569.311 177.754C568.691 178.772 567.894 179.724 566.92 180.609C565.946 181.495 564.773 182.225 563.4 182.801C562.028 183.376 560.434 183.664 558.619 183.664C556.295 183.664 554.214 183.199 552.377 182.27C550.54 181.34 549.09 180.067 548.027 178.451C546.965 176.835 546.434 174.998 546.434 172.939C546.434 171.036 546.788 169.354 547.496 167.893C548.204 166.432 549.256 165.203 550.65 164.207C552.045 163.189 553.771 162.425 555.83 161.916C557.911 161.385 560.29 161.119 562.969 161.119H568.879ZM608.523 147.074V154.014H590.926V147.074H608.523ZM615.131 147.074V183H606.365V147.074H615.131ZM588.734 147.074H597.4L596.438 165.004C596.283 167.638 596.006 169.951 595.607 171.943C595.209 173.913 594.678 175.607 594.014 177.023C593.35 178.418 592.542 179.558 591.59 180.443C590.638 181.329 589.531 181.982 588.27 182.402C587.03 182.801 585.635 183 584.086 183H581.396L581.297 175.928L582.559 175.828C583.333 175.762 583.997 175.551 584.551 175.197C585.126 174.843 585.613 174.334 586.012 173.67C586.432 173.006 586.775 172.154 587.041 171.113C587.329 170.051 587.55 168.811 587.705 167.395C587.882 165.956 588.004 164.296 588.07 162.414L588.734 147.074ZM633.691 179.016L643.32 147.074H652.717L638.307 188.445C637.975 189.331 637.543 190.294 637.012 191.334C636.503 192.374 635.816 193.359 634.953 194.289C634.09 195.241 633.005 196.016 631.699 196.613C630.415 197.211 628.855 197.51 627.018 197.51C626.221 197.51 625.512 197.454 624.893 197.344C624.273 197.233 623.62 197.089 622.934 196.912V190.338C623.155 190.36 623.41 190.371 623.697 190.371C624.007 190.393 624.273 190.404 624.494 190.404C625.778 190.404 626.84 190.249 627.682 189.939C628.523 189.652 629.198 189.176 629.707 188.512C630.238 187.87 630.681 187.029 631.035 185.988L633.691 179.016ZM628.943 147.074L637.078 173.537L638.506 182.801L632.463 183.896L619.48 147.074H628.943ZM665.832 170.482L678.914 147.074H687.713V183H678.914V159.559L665.832 183H657.033V147.074H665.832V170.482ZM677.287 132.963H683.662C683.662 134.822 683.208 136.471 682.301 137.91C681.393 139.349 680.098 140.478 678.416 141.297C676.756 142.094 674.786 142.492 672.506 142.492C669.075 142.492 666.352 141.607 664.338 139.836C662.324 138.065 661.316 135.774 661.316 132.963H667.691C667.691 134.136 668.057 135.188 668.787 136.117C669.518 137.047 670.757 137.512 672.506 137.512C674.255 137.512 675.483 137.047 676.191 136.117C676.922 135.188 677.287 134.136 677.287 132.963ZM710.424 176.758C711.663 176.758 712.77 176.514 713.744 176.027C714.718 175.54 715.493 174.854 716.068 173.969C716.666 173.083 716.987 172.054 717.031 170.881H725.299C725.255 173.316 724.568 175.496 723.24 177.422C721.912 179.348 720.141 180.875 717.928 182.004C715.736 183.111 713.279 183.664 710.557 183.664C707.79 183.664 705.377 183.199 703.318 182.27C701.26 181.34 699.544 180.045 698.172 178.385C696.822 176.725 695.803 174.799 695.117 172.607C694.453 170.416 694.121 168.07 694.121 165.568V164.506C694.121 162.005 694.453 159.658 695.117 157.467C695.803 155.275 696.822 153.35 698.172 151.689C699.544 150.029 701.26 148.734 703.318 147.805C705.377 146.875 707.779 146.41 710.523 146.41C713.423 146.41 715.969 146.975 718.16 148.104C720.374 149.232 722.1 150.826 723.34 152.885C724.602 154.943 725.255 157.367 725.299 160.156H717.031C716.987 158.872 716.699 157.721 716.168 156.703C715.637 155.685 714.884 154.866 713.91 154.246C712.936 153.626 711.752 153.316 710.357 153.316C708.874 153.316 707.635 153.626 706.639 154.246C705.665 154.866 704.901 155.718 704.348 156.803C703.816 157.865 703.44 159.061 703.219 160.389C703.02 161.695 702.92 163.067 702.92 164.506V165.568C702.92 167.029 703.02 168.424 703.219 169.752C703.44 171.08 703.816 172.275 704.348 173.338C704.901 174.378 705.665 175.208 706.639 175.828C707.635 176.448 708.896 176.758 710.424 176.758ZM748.574 147.074V183H739.775V147.074H748.574ZM760.262 147.074V153.914H728.287V147.074H760.262ZM784.666 175.363V158.795C784.666 157.577 784.456 156.526 784.035 155.641C783.615 154.755 782.973 154.069 782.109 153.582C781.246 153.095 780.15 152.852 778.822 152.852C777.649 152.852 776.62 153.051 775.734 153.449C774.871 153.848 774.207 154.412 773.742 155.143C773.277 155.851 773.045 156.67 773.045 157.6H764.246C764.246 156.117 764.6 154.711 765.309 153.383C766.017 152.033 767.024 150.837 768.33 149.797C769.658 148.734 771.241 147.904 773.078 147.307C774.938 146.709 777.018 146.41 779.32 146.41C782.043 146.41 784.467 146.875 786.592 147.805C788.739 148.712 790.421 150.085 791.639 151.922C792.878 153.759 793.498 156.072 793.498 158.861V174.533C793.498 176.326 793.609 177.865 793.83 179.148C794.074 180.41 794.428 181.506 794.893 182.436V183H785.961C785.54 182.092 785.219 180.941 784.998 179.547C784.777 178.13 784.666 176.736 784.666 175.363ZM785.895 161.119L785.961 166.332H780.416C779.044 166.332 777.837 166.476 776.797 166.764C775.757 167.029 774.904 167.428 774.24 167.959C773.576 168.468 773.078 169.088 772.746 169.818C772.414 170.527 772.248 171.335 772.248 172.242C772.248 173.128 772.447 173.924 772.846 174.633C773.266 175.341 773.864 175.906 774.639 176.326C775.436 176.725 776.365 176.924 777.428 176.924C778.977 176.924 780.327 176.614 781.479 175.994C782.63 175.352 783.526 174.577 784.168 173.67C784.81 172.762 785.153 171.899 785.197 171.08L787.721 174.865C787.411 175.773 786.946 176.736 786.326 177.754C785.706 178.772 784.91 179.724 783.936 180.609C782.962 181.495 781.788 182.225 780.416 182.801C779.044 183.376 777.45 183.664 775.635 183.664C773.311 183.664 771.23 183.199 769.393 182.27C767.555 181.34 766.105 180.067 765.043 178.451C763.98 176.835 763.449 174.998 763.449 172.939C763.449 171.036 763.803 169.354 764.512 167.893C765.22 166.432 766.271 165.203 767.666 164.207C769.061 163.189 770.787 162.425 772.846 161.916C774.926 161.385 777.306 161.119 779.984 161.119H785.895ZM842.439 147.074V154.014H824.875V147.074H842.439ZM827.199 147.074V183H818.4V147.074H827.199ZM849.08 147.074V183H840.248V147.074H849.08ZM855.488 165.402V164.705C855.488 162.071 855.865 159.647 856.617 157.434C857.37 155.198 858.465 153.261 859.904 151.623C861.343 149.985 863.103 148.712 865.184 147.805C867.264 146.875 869.633 146.41 872.289 146.41C874.99 146.41 877.38 146.875 879.461 147.805C881.564 148.712 883.335 149.985 884.773 151.623C886.212 153.261 887.308 155.198 888.061 157.434C888.813 159.647 889.189 162.071 889.189 164.705V165.402C889.189 168.014 888.813 170.438 888.061 172.674C887.308 174.887 886.212 176.824 884.773 178.484C883.335 180.122 881.575 181.395 879.494 182.303C877.413 183.21 875.034 183.664 872.355 183.664C869.699 183.664 867.32 183.21 865.217 182.303C863.114 181.395 861.343 180.122 859.904 178.484C858.465 176.824 857.37 174.887 856.617 172.674C855.865 170.438 855.488 168.014 855.488 165.402ZM864.254 164.705V165.402C864.254 166.974 864.409 168.446 864.719 169.818C865.029 171.191 865.505 172.397 866.146 173.438C866.788 174.478 867.618 175.297 868.637 175.895C869.677 176.47 870.917 176.758 872.355 176.758C873.772 176.758 874.99 176.47 876.008 175.895C877.026 175.297 877.856 174.478 878.498 173.438C879.162 172.397 879.649 171.191 879.959 169.818C880.269 168.446 880.424 166.974 880.424 165.402V164.705C880.424 163.156 880.269 161.706 879.959 160.355C879.649 158.983 879.162 157.777 878.498 156.736C877.856 155.674 877.015 154.844 875.975 154.246C874.956 153.626 873.728 153.316 872.289 153.316C870.872 153.316 869.655 153.626 868.637 154.246C867.618 154.844 866.788 155.674 866.146 156.736C865.505 157.777 865.029 158.983 864.719 160.355C864.409 161.706 864.254 163.156 864.254 164.705ZM919.67 147.074V154.014H902.105V147.074H919.67ZM904.43 147.074V183H895.631V147.074H904.43ZM926.311 147.074V183H917.479V147.074H926.311ZM932.719 165.402V164.705C932.719 162.071 933.095 159.647 933.848 157.434C934.6 155.198 935.696 153.261 937.135 151.623C938.574 149.985 940.333 148.712 942.414 147.805C944.495 146.875 946.863 146.41 949.52 146.41C952.22 146.41 954.611 146.875 956.691 147.805C958.794 148.712 960.565 149.985 962.004 151.623C963.443 153.261 964.538 155.198 965.291 157.434C966.044 159.647 966.42 162.071 966.42 164.705V165.402C966.42 168.014 966.044 170.438 965.291 172.674C964.538 174.887 963.443 176.824 962.004 178.484C960.565 180.122 958.805 181.395 956.725 182.303C954.644 183.21 952.264 183.664 949.586 183.664C946.93 183.664 944.55 183.21 942.447 182.303C940.344 181.395 938.574 180.122 937.135 178.484C935.696 176.824 934.6 174.887 933.848 172.674C933.095 170.438 932.719 168.014 932.719 165.402ZM941.484 164.705V165.402C941.484 166.974 941.639 168.446 941.949 169.818C942.259 171.191 942.735 172.397 943.377 173.438C944.019 174.478 944.849 175.297 945.867 175.895C946.908 176.47 948.147 176.758 949.586 176.758C951.003 176.758 952.22 176.47 953.238 175.895C954.257 175.297 955.087 174.478 955.729 173.438C956.393 172.397 956.88 171.191 957.189 169.818C957.499 168.446 957.654 166.974 957.654 165.402V164.705C957.654 163.156 957.499 161.706 957.189 160.355C956.88 158.983 956.393 157.777 955.729 156.736C955.087 155.674 954.245 154.844 953.205 154.246C952.187 153.626 950.958 153.316 949.52 153.316C948.103 153.316 946.885 153.626 945.867 154.246C944.849 154.844 944.019 155.674 943.377 156.736C942.735 157.777 942.259 158.983 941.949 160.355C941.639 161.706 941.484 163.156 941.484 164.705ZM996.402 147.074V154.014H978.805V147.074H996.402ZM1003.01 147.074V183H994.244V147.074H1003.01ZM976.613 147.074H985.279L984.316 165.004C984.161 167.638 983.885 169.951 983.486 171.943C983.088 173.913 982.557 175.607 981.893 177.023C981.229 178.418 980.421 179.558 979.469 180.443C978.517 181.329 977.41 181.982 976.148 182.402C974.909 182.801 973.514 183 971.965 183H969.275L969.176 175.928L970.438 175.828C971.212 175.762 971.876 175.551 972.43 175.197C973.005 174.843 973.492 174.334 973.891 173.67C974.311 173.006 974.654 172.154 974.92 171.113C975.208 170.051 975.429 168.811 975.584 167.395C975.761 165.956 975.883 164.296 975.949 162.414L976.613 147.074ZM1035.58 161.816V168.689H1017.15V161.816H1035.58ZM1019.91 147.074V183H1011.11V147.074H1019.91ZM1041.72 147.074V183H1032.89V147.074H1041.72ZM1058.56 170.482L1071.64 147.074H1080.44V183H1071.64V159.559L1058.56 183H1049.76V147.074H1058.56V170.482ZM1105.84 147.074V183H1097.04V147.074H1105.84ZM1117.53 147.074V153.914H1085.55V147.074H1117.53ZM1136.42 183.664C1133.7 183.664 1131.25 183.221 1129.08 182.336C1126.91 181.451 1125.06 180.222 1123.54 178.65C1122.03 177.057 1120.87 175.208 1120.05 173.105C1119.25 170.98 1118.86 168.701 1118.86 166.266V164.938C1118.86 162.171 1119.25 159.658 1120.05 157.4C1120.85 155.12 1121.98 153.161 1123.44 151.523C1124.9 149.885 1126.65 148.624 1128.68 147.738C1130.72 146.853 1132.97 146.41 1135.42 146.41C1137.97 146.41 1140.22 146.842 1142.16 147.705C1144.11 148.546 1145.74 149.742 1147.04 151.291C1148.35 152.84 1149.34 154.7 1150 156.869C1150.66 159.016 1151 161.396 1151 164.008V167.693H1122.84V161.65H1142.36V160.986C1142.32 159.592 1142.05 158.319 1141.57 157.168C1141.08 155.995 1140.33 155.065 1139.31 154.379C1138.29 153.671 1136.97 153.316 1135.36 153.316C1134.05 153.316 1132.91 153.604 1131.94 154.18C1130.99 154.733 1130.19 155.53 1129.55 156.57C1128.93 157.589 1128.46 158.806 1128.15 160.223C1127.84 161.639 1127.69 163.211 1127.69 164.938V166.266C1127.69 167.771 1127.89 169.165 1128.29 170.449C1128.71 171.733 1129.31 172.851 1130.11 173.803C1130.93 174.732 1131.9 175.463 1133.03 175.994C1134.18 176.503 1135.49 176.758 1136.95 176.758C1138.79 176.758 1140.45 176.404 1141.93 175.695C1143.44 174.965 1144.74 173.891 1145.85 172.475L1150.27 177.057C1149.51 178.163 1148.49 179.226 1147.21 180.244C1145.95 181.262 1144.42 182.092 1142.63 182.734C1140.84 183.354 1138.77 183.664 1136.42 183.664ZM1183.17 147.074V183H1174.4V147.074H1183.17ZM1206.58 147.074L1190.74 169.121H1181.41L1180.31 161.086H1186.79L1195.52 147.074H1206.58ZM1196.05 183L1186.22 167.594L1193.53 163.012L1207.71 183H1196.05ZM1208.84 165.402V164.705C1208.84 162.071 1209.21 159.647 1209.96 157.434C1210.72 155.198 1211.81 153.261 1213.25 151.623C1214.69 149.985 1216.45 148.712 1218.53 147.805C1220.61 146.875 1222.98 146.41 1225.64 146.41C1228.34 146.41 1230.73 146.875 1232.81 147.805C1234.91 148.712 1236.68 149.985 1238.12 151.623C1239.56 153.261 1240.66 155.198 1241.41 157.434C1242.16 159.647 1242.54 162.071 1242.54 164.705V165.402C1242.54 168.014 1242.16 170.438 1241.41 172.674C1240.66 174.887 1239.56 176.824 1238.12 178.484C1236.68 180.122 1234.92 181.395 1232.84 182.303C1230.76 183.21 1228.38 183.664 1225.7 183.664C1223.05 183.664 1220.67 183.21 1218.56 182.303C1216.46 181.395 1214.69 180.122 1213.25 178.484C1211.81 176.824 1210.72 174.887 1209.96 172.674C1209.21 170.438 1208.84 168.014 1208.84 165.402ZM1217.6 164.705V165.402C1217.6 166.974 1217.76 168.446 1218.07 169.818C1218.38 171.191 1218.85 172.397 1219.49 173.438C1220.14 174.478 1220.97 175.297 1221.98 175.895C1223.02 176.47 1224.26 176.758 1225.7 176.758C1227.12 176.758 1228.34 176.47 1229.36 175.895C1230.37 175.297 1231.2 174.478 1231.85 173.438C1232.51 172.397 1233 171.191 1233.31 169.818C1233.62 168.446 1233.77 166.974 1233.77 165.402V164.705C1233.77 163.156 1233.62 161.706 1233.31 160.355C1233 158.983 1232.51 157.777 1231.85 156.736C1231.2 155.674 1230.36 154.844 1229.32 154.246C1228.3 153.626 1227.08 153.316 1225.64 153.316C1224.22 153.316 1223 153.626 1221.98 154.246C1220.97 154.844 1220.14 155.674 1219.49 156.736C1218.85 157.777 1218.38 158.983 1218.07 160.355C1217.76 161.706 1217.6 163.156 1217.6 164.705ZM1248.98 147.074H1257.78V176.094H1268.44V147.074H1277.27V176.094H1287.93V147.074H1296.69V183H1248.98V147.074ZM1321.03 183.664C1318.31 183.664 1315.86 183.221 1313.69 182.336C1311.52 181.451 1309.67 180.222 1308.15 178.65C1306.64 177.057 1305.48 175.208 1304.66 173.105C1303.86 170.98 1303.46 168.701 1303.46 166.266V164.938C1303.46 162.171 1303.86 159.658 1304.66 157.4C1305.46 155.12 1306.59 153.161 1308.05 151.523C1309.51 149.885 1311.26 148.624 1313.29 147.738C1315.33 146.853 1317.58 146.41 1320.03 146.41C1322.58 146.41 1324.83 146.842 1326.77 147.705C1328.72 148.546 1330.35 149.742 1331.65 151.291C1332.96 152.84 1333.95 154.7 1334.61 156.869C1335.27 159.016 1335.61 161.396 1335.61 164.008V167.693H1307.45V161.65H1326.97V160.986C1326.93 159.592 1326.66 158.319 1326.18 157.168C1325.69 155.995 1324.94 155.065 1323.92 154.379C1322.9 153.671 1321.58 153.316 1319.97 153.316C1318.66 153.316 1317.52 153.604 1316.55 154.18C1315.6 154.733 1314.8 155.53 1314.16 156.57C1313.54 157.589 1313.07 158.806 1312.76 160.223C1312.45 161.639 1312.3 163.211 1312.3 164.938V166.266C1312.3 167.771 1312.5 169.165 1312.89 170.449C1313.32 171.733 1313.92 172.851 1314.72 173.803C1315.54 174.732 1316.51 175.463 1317.64 175.994C1318.79 176.503 1320.1 176.758 1321.56 176.758C1323.4 176.758 1325.06 176.404 1326.54 175.695C1328.05 174.965 1329.35 173.891 1330.46 172.475L1334.88 177.057C1334.12 178.163 1333.1 179.226 1331.82 180.244C1330.56 181.262 1329.03 182.092 1327.24 182.734C1325.45 183.354 1323.38 183.664 1321.03 183.664ZM1365.62 147.074V154.014H1348.02V147.074H1365.62ZM1372.23 147.074V183H1363.46V147.074H1372.23ZM1345.83 147.074H1354.5L1353.54 165.004C1353.38 167.638 1353.1 169.951 1352.71 171.943C1352.31 173.913 1351.78 175.607 1351.11 177.023C1350.45 178.418 1349.64 179.558 1348.69 180.443C1347.74 181.329 1346.63 181.982 1345.37 182.402C1344.13 182.801 1342.73 183 1341.18 183H1338.49L1338.39 175.928L1339.66 175.828C1340.43 175.762 1341.1 175.551 1341.65 175.197C1342.22 174.843 1342.71 174.334 1343.11 173.67C1343.53 173.006 1343.87 172.154 1344.14 171.113C1344.43 170.051 1344.65 168.811 1344.8 167.395C1344.98 165.956 1345.1 164.296 1345.17 162.414L1345.83 147.074ZM1396.4 183.664C1393.68 183.664 1391.23 183.221 1389.06 182.336C1386.89 181.451 1385.04 180.222 1383.52 178.65C1382.01 177.057 1380.85 175.208 1380.03 173.105C1379.23 170.98 1378.84 168.701 1378.84 166.266V164.938C1378.84 162.171 1379.23 159.658 1380.03 157.4C1380.83 155.12 1381.96 153.161 1383.42 151.523C1384.88 149.885 1386.63 148.624 1388.66 147.738C1390.7 146.853 1392.95 146.41 1395.4 146.41C1397.95 146.41 1400.2 146.842 1402.14 147.705C1404.09 148.546 1405.72 149.742 1407.03 151.291C1408.33 152.84 1409.32 154.7 1409.98 156.869C1410.64 159.016 1410.98 161.396 1410.98 164.008V167.693H1382.82V161.65H1402.34V160.986C1402.3 159.592 1402.03 158.319 1401.55 157.168C1401.06 155.995 1400.31 155.065 1399.29 154.379C1398.27 153.671 1396.95 153.316 1395.34 153.316C1394.03 153.316 1392.89 153.604 1391.92 154.18C1390.97 154.733 1390.17 155.53 1389.53 156.57C1388.91 157.589 1388.44 158.806 1388.13 160.223C1387.82 161.639 1387.67 163.211 1387.67 164.938V166.266C1387.67 167.771 1387.87 169.165 1388.27 170.449C1388.69 171.733 1389.29 172.851 1390.09 173.803C1390.91 174.732 1391.88 175.463 1393.01 175.994C1394.16 176.503 1395.47 176.758 1396.93 176.758C1398.77 176.758 1400.43 176.404 1401.91 175.695C1403.42 174.965 1404.72 173.891 1405.83 172.475L1410.25 177.057C1409.49 178.163 1408.48 179.226 1407.19 180.244C1405.93 181.262 1404.4 182.092 1402.61 182.734C1400.82 183.354 1398.75 183.664 1396.4 183.664ZM1426.22 147.074V183H1417.45V147.074H1426.22ZM1449.62 147.074L1433.79 169.121H1424.46L1423.36 161.086H1429.84L1438.57 147.074H1449.62ZM1439.1 183L1429.27 167.594L1436.58 163.012L1450.75 183H1439.1ZM1464.77 134.656L1463.8 168.49H1456.4L1455.44 134.656H1464.77ZM1455.17 178.916C1455.17 177.61 1455.61 176.514 1456.5 175.629C1457.41 174.721 1458.62 174.268 1460.15 174.268C1461.68 174.268 1462.88 174.721 1463.77 175.629C1464.68 176.514 1465.13 177.61 1465.13 178.916C1465.13 180.2 1464.68 181.285 1463.77 182.17C1462.88 183.055 1461.68 183.498 1460.15 183.498C1458.62 183.498 1457.41 183.055 1456.5 182.17C1455.61 181.285 1455.17 180.2 1455.17 178.916Z" fill="white"/>
<path d="M626.254 81.8164V88.6895H607.826V81.8164H626.254ZM610.582 67.0742V103H601.783V67.0742H610.582ZM632.396 67.0742V103H623.564V67.0742H632.396ZM656.502 103.664C653.779 103.664 651.333 103.221 649.164 102.336C646.995 101.451 645.146 100.222 643.619 98.6504C642.114 97.0566 640.952 95.2083 640.133 93.1055C639.336 90.9805 638.938 88.7005 638.938 86.2656V84.9375C638.938 82.1706 639.336 79.6582 640.133 77.4004C640.93 75.1204 642.059 73.1615 643.52 71.5234C644.98 69.8854 646.729 68.6237 648.766 67.7383C650.802 66.8529 653.049 66.4102 655.506 66.4102C658.051 66.4102 660.298 66.8418 662.246 67.7051C664.194 68.5462 665.821 69.7415 667.127 71.291C668.433 72.8405 669.418 74.6999 670.082 76.8691C670.746 79.0163 671.078 81.3958 671.078 84.0078V87.6934H642.922V81.6504H662.445V80.9863C662.401 79.5918 662.135 78.319 661.648 77.168C661.161 75.9948 660.409 75.0651 659.391 74.3789C658.372 73.6706 657.055 73.3164 655.439 73.3164C654.133 73.3164 652.993 73.6042 652.02 74.1797C651.068 74.7331 650.271 75.5299 649.629 76.5703C649.009 77.5885 648.544 78.806 648.234 80.2227C647.924 81.6393 647.77 83.2109 647.77 84.9375V86.2656C647.77 87.7708 647.969 89.1654 648.367 90.4492C648.788 91.7331 649.396 92.8509 650.193 93.8027C651.012 94.7324 651.986 95.4629 653.115 95.9941C654.266 96.5033 655.572 96.7578 657.033 96.7578C658.87 96.7578 660.531 96.4036 662.014 95.6953C663.519 94.9648 664.825 93.8913 665.932 92.4746L670.348 97.0566C669.595 98.1634 668.577 99.2259 667.293 100.244C666.031 101.262 664.504 102.092 662.711 102.734C660.918 103.354 658.848 103.664 656.502 103.664ZM683.43 67.0742H692.195L691.863 79.4258C691.753 83.1667 691.31 86.3984 690.535 89.1211C689.783 91.8216 688.775 94.0905 687.514 95.9277C686.274 97.765 684.857 99.248 683.264 100.377C681.692 101.506 680.043 102.38 678.316 103H676.225L676.191 96.1602L677.221 96.0938C678.261 94.987 679.135 93.9023 679.844 92.8398C680.574 91.7552 681.161 90.5931 681.604 89.3535C682.046 88.1139 682.378 86.6973 682.6 85.1035C682.843 83.4876 682.998 81.5951 683.064 79.4258L683.43 67.0742ZM685.787 67.0742H709.062V103H700.297V74.2793H685.787V67.0742ZM674.232 96.0938H714.076V113.758H705.311V103H683.164V113.758H674.199L674.232 96.0938ZM717.895 85.4023V84.7051C717.895 82.071 718.271 79.6471 719.023 77.4336C719.776 75.1979 720.872 73.2611 722.311 71.623C723.749 69.985 725.509 68.7122 727.59 67.8047C729.671 66.875 732.039 66.4102 734.695 66.4102C737.396 66.4102 739.786 66.875 741.867 67.8047C743.97 68.7122 745.741 69.985 747.18 71.623C748.618 73.2611 749.714 75.1979 750.467 77.4336C751.219 79.6471 751.596 82.071 751.596 84.7051V85.4023C751.596 88.0143 751.219 90.4382 750.467 92.6738C749.714 94.8874 748.618 96.8242 747.18 98.4844C745.741 100.122 743.981 101.395 741.9 102.303C739.82 103.21 737.44 103.664 734.762 103.664C732.105 103.664 729.726 103.21 727.623 102.303C725.52 101.395 723.749 100.122 722.311 98.4844C720.872 96.8242 719.776 94.8874 719.023 92.6738C718.271 90.4382 717.895 88.0143 717.895 85.4023ZM726.66 84.7051V85.4023C726.66 86.974 726.815 88.446 727.125 89.8184C727.435 91.1908 727.911 92.3971 728.553 93.4375C729.195 94.4779 730.025 95.2969 731.043 95.8945C732.083 96.4701 733.323 96.7578 734.762 96.7578C736.178 96.7578 737.396 96.4701 738.414 95.8945C739.432 95.2969 740.262 94.4779 740.904 93.4375C741.568 92.3971 742.055 91.1908 742.365 89.8184C742.675 88.446 742.83 86.974 742.83 85.4023V84.7051C742.83 83.1556 742.675 81.7057 742.365 80.3555C742.055 78.9831 741.568 77.7767 740.904 76.7363C740.262 75.6738 739.421 74.8438 738.381 74.2461C737.363 73.6263 736.134 73.3164 734.695 73.3164C733.279 73.3164 732.061 73.6263 731.043 74.2461C730.025 74.8438 729.195 75.6738 728.553 76.7363C727.911 77.7767 727.435 78.9831 727.125 80.3555C726.815 81.7057 726.66 83.1556 726.66 84.7051ZM772.713 96.7578C773.952 96.7578 775.059 96.5143 776.033 96.0273C777.007 95.5404 777.782 94.8542 778.357 93.9688C778.955 93.0833 779.276 92.054 779.32 90.8809H787.588C787.544 93.3158 786.857 95.4961 785.529 97.4219C784.201 99.3477 782.43 100.875 780.217 102.004C778.025 103.111 775.568 103.664 772.846 103.664C770.079 103.664 767.666 103.199 765.607 102.27C763.549 101.34 761.833 100.045 760.461 98.3848C759.111 96.7246 758.092 94.7988 757.406 92.6074C756.742 90.416 756.41 88.0697 756.41 85.5684V84.5059C756.41 82.0046 756.742 79.6582 757.406 77.4668C758.092 75.2754 759.111 73.3496 760.461 71.6895C761.833 70.0293 763.549 68.7344 765.607 67.8047C767.666 66.875 770.068 66.4102 772.812 66.4102C775.712 66.4102 778.258 66.9746 780.449 68.1035C782.663 69.2324 784.389 70.8262 785.629 72.8848C786.891 74.9434 787.544 77.3672 787.588 80.1562H779.32C779.276 78.8724 778.988 77.7214 778.457 76.7031C777.926 75.6849 777.173 74.8659 776.199 74.2461C775.225 73.6263 774.041 73.3164 772.646 73.3164C771.163 73.3164 769.924 73.6263 768.928 74.2461C767.954 74.8659 767.19 75.7181 766.637 76.8027C766.105 77.8652 765.729 79.0605 765.508 80.3887C765.309 81.6947 765.209 83.0671 765.209 84.5059V85.5684C765.209 87.0293 765.309 88.4238 765.508 89.752C765.729 91.0801 766.105 92.2754 766.637 93.3379C767.19 94.3783 767.954 95.2083 768.928 95.8281C769.924 96.4479 771.186 96.7578 772.713 96.7578ZM810.863 67.0742V103H802.064V67.0742H810.863ZM822.551 67.0742V73.9141H790.576V67.0742H822.551ZM846.955 95.3633V78.7949C846.955 77.5775 846.745 76.526 846.324 75.6406C845.904 74.7552 845.262 74.069 844.398 73.582C843.535 73.0951 842.439 72.8516 841.111 72.8516C839.938 72.8516 838.909 73.0508 838.023 73.4492C837.16 73.8477 836.496 74.4121 836.031 75.1426C835.566 75.8509 835.334 76.6699 835.334 77.5996H826.535C826.535 76.1165 826.889 74.7109 827.598 73.3828C828.306 72.0326 829.313 70.8372 830.619 69.7969C831.947 68.7344 833.53 67.9043 835.367 67.3066C837.227 66.709 839.307 66.4102 841.609 66.4102C844.332 66.4102 846.756 66.875 848.881 67.8047C851.028 68.7122 852.71 70.0846 853.928 71.9219C855.167 73.7591 855.787 76.0723 855.787 78.8613V94.5332C855.787 96.3262 855.898 97.8646 856.119 99.1484C856.363 100.41 856.717 101.506 857.182 102.436V103H848.25C847.829 102.092 847.508 100.941 847.287 99.5469C847.066 98.1302 846.955 96.7357 846.955 95.3633ZM848.184 81.1191L848.25 86.332H842.705C841.333 86.332 840.126 86.4759 839.086 86.7637C838.046 87.0293 837.193 87.4277 836.529 87.959C835.865 88.4681 835.367 89.0879 835.035 89.8184C834.703 90.5267 834.537 91.3346 834.537 92.2422C834.537 93.1276 834.736 93.9245 835.135 94.6328C835.555 95.3411 836.153 95.9056 836.928 96.3262C837.725 96.7246 838.654 96.9238 839.717 96.9238C841.266 96.9238 842.617 96.6139 843.768 95.9941C844.919 95.3522 845.815 94.5775 846.457 93.6699C847.099 92.7624 847.442 91.8991 847.486 91.0801L850.01 94.8652C849.7 95.7728 849.235 96.7357 848.615 97.7539C847.995 98.7721 847.199 99.724 846.225 100.609C845.251 101.495 844.077 102.225 842.705 102.801C841.333 103.376 839.739 103.664 837.924 103.664C835.6 103.664 833.519 103.199 831.682 102.27C829.844 101.34 828.395 100.067 827.332 98.4512C826.27 96.8353 825.738 94.998 825.738 92.9395C825.738 91.0358 826.092 89.3535 826.801 87.8926C827.509 86.4316 828.561 85.2031 829.955 84.207C831.35 83.1888 833.076 82.4251 835.135 81.916C837.215 81.3848 839.595 81.1191 842.273 81.1191H848.184ZM880.59 67.0742V103H871.791V67.0742H880.59ZM892.277 67.0742V73.9141H860.303V67.0742H892.277ZM894.668 85.4023V84.7051C894.668 82.071 895.044 79.6471 895.797 77.4336C896.549 75.1979 897.645 73.2611 899.084 71.623C900.523 69.985 902.283 68.7122 904.363 67.8047C906.444 66.875 908.812 66.4102 911.469 66.4102C914.169 66.4102 916.56 66.875 918.641 67.8047C920.743 68.7122 922.514 69.985 923.953 71.623C925.392 73.2611 926.488 75.1979 927.24 77.4336C927.993 79.6471 928.369 82.071 928.369 84.7051V85.4023C928.369 88.0143 927.993 90.4382 927.24 92.6738C926.488 94.8874 925.392 96.8242 923.953 98.4844C922.514 100.122 920.755 101.395 918.674 102.303C916.593 103.21 914.214 103.664 911.535 103.664C908.879 103.664 906.499 103.21 904.396 102.303C902.294 101.395 900.523 100.122 899.084 98.4844C897.645 96.8242 896.549 94.8874 895.797 92.6738C895.044 90.4382 894.668 88.0143 894.668 85.4023ZM903.434 84.7051V85.4023C903.434 86.974 903.589 88.446 903.898 89.8184C904.208 91.1908 904.684 92.3971 905.326 93.4375C905.968 94.4779 906.798 95.2969 907.816 95.8945C908.857 96.4701 910.096 96.7578 911.535 96.7578C912.952 96.7578 914.169 96.4701 915.188 95.8945C916.206 95.2969 917.036 94.4779 917.678 93.4375C918.342 92.3971 918.829 91.1908 919.139 89.8184C919.449 88.446 919.604 86.974 919.604 85.4023V84.7051C919.604 83.1556 919.449 81.7057 919.139 80.3555C918.829 78.9831 918.342 77.7767 917.678 76.7363C917.036 75.6738 916.195 74.8438 915.154 74.2461C914.136 73.6263 912.908 73.3164 911.469 73.3164C910.052 73.3164 908.835 73.6263 907.816 74.2461C906.798 74.8438 905.968 75.6738 905.326 76.7363C904.684 77.7767 904.208 78.9831 903.898 80.3555C903.589 81.7057 903.434 83.1556 903.434 84.7051ZM964.295 67.0742V103H955.496V67.0742H964.295ZM960.311 82.7129V89.6191C959.469 90.0176 958.451 90.3939 957.256 90.748C956.083 91.0801 954.843 91.3457 953.537 91.5449C952.253 91.7441 951.003 91.8438 949.785 91.8438C946.487 91.8438 943.643 91.3568 941.252 90.3828C938.883 89.4089 937.057 87.9147 935.773 85.9004C934.49 83.8639 933.848 81.263 933.848 78.0977V67.041H942.613V78.0977C942.613 79.8021 942.868 81.1523 943.377 82.1484C943.886 83.1445 944.672 83.8529 945.734 84.2734C946.797 84.694 948.147 84.9043 949.785 84.9043C951.047 84.9043 952.253 84.8158 953.404 84.6387C954.555 84.4395 955.695 84.1849 956.824 83.875C957.975 83.543 959.137 83.1556 960.311 82.7129ZM996.801 81.8164V88.6895H978.373V81.8164H996.801ZM981.129 67.0742V103H972.33V67.0742H981.129ZM1002.94 67.0742V103H994.111V67.0742H1002.94ZM1009.35 85.4023V84.7051C1009.35 82.071 1009.73 79.6471 1010.48 77.4336C1011.23 75.1979 1012.33 73.2611 1013.77 71.623C1015.21 69.985 1016.97 68.7122 1019.05 67.8047C1021.13 66.875 1023.5 66.4102 1026.15 66.4102C1028.85 66.4102 1031.24 66.875 1033.32 67.8047C1035.43 68.7122 1037.2 69.985 1038.64 71.623C1040.08 73.2611 1041.17 75.1979 1041.92 77.4336C1042.68 79.6471 1043.05 82.071 1043.05 84.7051V85.4023C1043.05 88.0143 1042.68 90.4382 1041.92 92.6738C1041.17 94.8874 1040.08 96.8242 1038.64 98.4844C1037.2 100.122 1035.44 101.395 1033.36 102.303C1031.28 103.21 1028.9 103.664 1026.22 103.664C1023.56 103.664 1021.18 103.21 1019.08 102.303C1016.98 101.395 1015.21 100.122 1013.77 98.4844C1012.33 96.8242 1011.23 94.8874 1010.48 92.6738C1009.73 90.4382 1009.35 88.0143 1009.35 85.4023ZM1018.12 84.7051V85.4023C1018.12 86.974 1018.27 88.446 1018.58 89.8184C1018.89 91.1908 1019.37 92.3971 1020.01 93.4375C1020.65 94.4779 1021.48 95.2969 1022.5 95.8945C1023.54 96.4701 1024.78 96.7578 1026.22 96.7578C1027.64 96.7578 1028.85 96.4701 1029.87 95.8945C1030.89 95.2969 1031.72 94.4779 1032.36 93.4375C1033.03 92.3971 1033.51 91.1908 1033.82 89.8184C1034.13 88.446 1034.29 86.974 1034.29 85.4023V84.7051C1034.29 83.1556 1034.13 81.7057 1033.82 80.3555C1033.51 78.9831 1033.03 77.7767 1032.36 76.7363C1031.72 75.6738 1030.88 74.8438 1029.84 74.2461C1028.82 73.6263 1027.59 73.3164 1026.15 73.3164C1024.74 73.3164 1023.52 73.6263 1022.5 74.2461C1021.48 74.8438 1020.65 75.6738 1020.01 76.7363C1019.37 77.7767 1018.89 78.9831 1018.58 80.3555C1018.27 81.7057 1018.12 83.1556 1018.12 84.7051ZM1081.1 96.7578C1082.34 96.7578 1083.45 96.5143 1084.42 96.0273C1085.4 95.5404 1086.17 94.8542 1086.75 93.9688C1087.35 93.0833 1087.67 92.054 1087.71 90.8809H1095.98C1095.93 93.3158 1095.25 95.4961 1093.92 97.4219C1092.59 99.3477 1090.82 100.875 1088.61 102.004C1086.42 103.111 1083.96 103.664 1081.24 103.664C1078.47 103.664 1076.06 103.199 1074 102.27C1071.94 101.34 1070.22 100.045 1068.85 98.3848C1067.5 96.7246 1066.48 94.7988 1065.8 92.6074C1065.13 90.416 1064.8 88.0697 1064.8 85.5684V84.5059C1064.8 82.0046 1065.13 79.6582 1065.8 77.4668C1066.48 75.2754 1067.5 73.3496 1068.85 71.6895C1070.22 70.0293 1071.94 68.7344 1074 67.8047C1076.06 66.875 1078.46 66.4102 1081.2 66.4102C1084.1 66.4102 1086.65 66.9746 1088.84 68.1035C1091.05 69.2324 1092.78 70.8262 1094.02 72.8848C1095.28 74.9434 1095.93 77.3672 1095.98 80.1562H1087.71C1087.67 78.8724 1087.38 77.7214 1086.85 76.7031C1086.32 75.6849 1085.56 74.8659 1084.59 74.2461C1083.62 73.6263 1082.43 73.3164 1081.04 73.3164C1079.55 73.3164 1078.31 73.6263 1077.32 74.2461C1076.34 74.8659 1075.58 75.7181 1075.03 76.8027C1074.5 77.8652 1074.12 79.0605 1073.9 80.3887C1073.7 81.6947 1073.6 83.0671 1073.6 84.5059V85.5684C1073.6 87.0293 1073.7 88.4238 1073.9 89.752C1074.12 91.0801 1074.5 92.2754 1075.03 93.3379C1075.58 94.3783 1076.34 95.2083 1077.32 95.8281C1078.31 96.4479 1079.58 96.7578 1081.1 96.7578ZM1110.59 73.9805V116.812H1101.79V67.0742H1109.92L1110.59 73.9805ZM1133.66 84.6719V85.3691C1133.66 87.9811 1133.35 90.4049 1132.73 92.6406C1132.14 94.8542 1131.25 96.791 1130.08 98.4512C1128.9 100.089 1127.44 101.373 1125.7 102.303C1123.97 103.21 1121.98 103.664 1119.72 103.664C1117.51 103.664 1115.58 103.243 1113.94 102.402C1112.3 101.539 1110.92 100.322 1109.79 98.75C1108.66 97.1784 1107.75 95.3522 1107.07 93.2715C1106.4 91.1686 1105.91 88.8776 1105.57 86.3984V84.1738C1105.91 81.5397 1106.4 79.1491 1107.07 77.002C1107.75 74.8327 1108.66 72.9622 1109.79 71.3906C1110.92 69.7969 1112.29 68.5684 1113.91 67.7051C1115.55 66.8418 1117.46 66.4102 1119.65 66.4102C1121.93 66.4102 1123.94 66.8418 1125.66 67.7051C1127.41 68.5684 1128.88 69.8079 1130.08 71.4238C1131.27 73.0397 1132.17 74.9655 1132.77 77.2012C1133.37 79.4368 1133.66 81.9271 1133.66 84.6719ZM1124.87 85.3691V84.6719C1124.87 83.0781 1124.72 81.6061 1124.43 80.2559C1124.15 78.8835 1123.7 77.6882 1123.11 76.6699C1122.51 75.6296 1121.73 74.8216 1120.78 74.2461C1119.83 73.6706 1118.68 73.3828 1117.33 73.3828C1115.98 73.3828 1114.82 73.6042 1113.84 74.0469C1112.87 74.4896 1112.07 75.1204 1111.45 75.9395C1110.83 76.7585 1110.34 77.7324 1109.99 78.8613C1109.66 79.9681 1109.44 81.1966 1109.33 82.5469V88.0586C1109.53 89.6966 1109.91 91.1686 1110.49 92.4746C1111.06 93.7806 1111.9 94.821 1113.01 95.5957C1114.14 96.3704 1115.6 96.7578 1117.39 96.7578C1118.74 96.7578 1119.9 96.459 1120.85 95.8613C1121.8 95.2637 1122.57 94.4447 1123.17 93.4043C1123.77 92.3418 1124.2 91.1243 1124.47 89.752C1124.73 88.3796 1124.87 86.9186 1124.87 85.3691ZM1156.21 103.664C1153.49 103.664 1151.04 103.221 1148.87 102.336C1146.7 101.451 1144.85 100.222 1143.33 98.6504C1141.82 97.0566 1140.66 95.2083 1139.84 93.1055C1139.04 90.9805 1138.64 88.7005 1138.64 86.2656V84.9375C1138.64 82.1706 1139.04 79.6582 1139.84 77.4004C1140.64 75.1204 1141.77 73.1615 1143.23 71.5234C1144.69 69.8854 1146.44 68.6237 1148.47 67.7383C1150.51 66.8529 1152.76 66.4102 1155.21 66.4102C1157.76 66.4102 1160.01 66.8418 1161.95 67.7051C1163.9 68.5462 1165.53 69.7415 1166.83 71.291C1168.14 72.8405 1169.12 74.6999 1169.79 76.8691C1170.45 79.0163 1170.79 81.3958 1170.79 84.0078V87.6934H1142.63V81.6504H1162.15V80.9863C1162.11 79.5918 1161.84 78.319 1161.36 77.168C1160.87 75.9948 1160.12 75.0651 1159.1 74.3789C1158.08 73.6706 1156.76 73.3164 1155.15 73.3164C1153.84 73.3164 1152.7 73.6042 1151.73 74.1797C1150.77 74.7331 1149.98 75.5299 1149.34 76.5703C1148.72 77.5885 1148.25 78.806 1147.94 80.2227C1147.63 81.6393 1147.48 83.2109 1147.48 84.9375V86.2656C1147.48 87.7708 1147.68 89.1654 1148.07 90.4492C1148.49 91.7331 1149.1 92.8509 1149.9 93.8027C1150.72 94.7324 1151.69 95.4629 1152.82 95.9941C1153.97 96.5033 1155.28 96.7578 1156.74 96.7578C1158.58 96.7578 1160.24 96.4036 1161.72 95.6953C1163.23 94.9648 1164.53 93.8913 1165.64 92.4746L1170.05 97.0566C1169.3 98.1634 1168.28 99.2259 1167 100.244C1165.74 101.262 1164.21 102.092 1162.42 102.734C1160.62 103.354 1158.56 103.664 1156.21 103.664ZM1183.14 67.0742H1191.9L1191.57 79.4258C1191.46 83.1667 1191.02 86.3984 1190.24 89.1211C1189.49 91.8216 1188.48 94.0905 1187.22 95.9277C1185.98 97.765 1184.56 99.248 1182.97 100.377C1181.4 101.506 1179.75 102.38 1178.02 103H1175.93L1175.9 96.1602L1176.93 96.0938C1177.97 94.987 1178.84 93.9023 1179.55 92.8398C1180.28 91.7552 1180.87 90.5931 1181.31 89.3535C1181.75 88.1139 1182.09 86.6973 1182.31 85.1035C1182.55 83.4876 1182.71 81.5951 1182.77 79.4258L1183.14 67.0742ZM1185.49 67.0742H1208.77V103H1200V74.2793H1185.49V67.0742ZM1173.94 96.0938H1213.78V113.758H1205.02V103H1182.87V113.758H1173.91L1173.94 96.0938ZM1233.9 96.7578C1235.14 96.7578 1236.25 96.5143 1237.22 96.0273C1238.2 95.5404 1238.97 94.8542 1239.55 93.9688C1240.15 93.0833 1240.47 92.054 1240.51 90.8809H1248.78C1248.74 93.3158 1248.05 95.4961 1246.72 97.4219C1245.39 99.3477 1243.62 100.875 1241.41 102.004C1239.22 103.111 1236.76 103.664 1234.04 103.664C1231.27 103.664 1228.86 103.199 1226.8 102.27C1224.74 101.34 1223.02 100.045 1221.65 98.3848C1220.3 96.7246 1219.28 94.7988 1218.6 92.6074C1217.93 90.416 1217.6 88.0697 1217.6 85.5684V84.5059C1217.6 82.0046 1217.93 79.6582 1218.6 77.4668C1219.28 75.2754 1220.3 73.3496 1221.65 71.6895C1223.02 70.0293 1224.74 68.7344 1226.8 67.8047C1228.86 66.875 1231.26 66.4102 1234 66.4102C1236.9 66.4102 1239.45 66.9746 1241.64 68.1035C1243.85 69.2324 1245.58 70.8262 1246.82 72.8848C1248.08 74.9434 1248.74 77.3672 1248.78 80.1562H1240.51C1240.47 78.8724 1240.18 77.7214 1239.65 76.7031C1239.12 75.6849 1238.36 74.8659 1237.39 74.2461C1236.42 73.6263 1235.23 73.3164 1233.84 73.3164C1232.35 73.3164 1231.12 73.6263 1230.12 74.2461C1229.15 74.8659 1228.38 75.7181 1227.83 76.8027C1227.3 77.8652 1226.92 79.0605 1226.7 80.3887C1226.5 81.6947 1226.4 83.0671 1226.4 84.5059V85.5684C1226.4 87.0293 1226.5 88.4238 1226.7 89.752C1226.92 91.0801 1227.3 92.2754 1227.83 93.3379C1228.38 94.3783 1229.15 95.2083 1230.12 95.8281C1231.12 96.4479 1232.38 96.7578 1233.9 96.7578ZM1272.05 67.0742V103H1263.26V67.0742H1272.05ZM1283.74 67.0742V73.9141H1251.77V67.0742H1283.74ZM1306.55 87.793H1295.16L1295.1 81.8496H1304.46C1305.86 81.8496 1307 81.7057 1307.88 81.418C1308.77 81.1302 1309.42 80.6986 1309.84 80.123C1310.28 79.5475 1310.5 78.8503 1310.5 78.0312C1310.5 77.3229 1310.37 76.7142 1310.11 76.2051C1309.84 75.6738 1309.44 75.2422 1308.91 74.9102C1308.4 74.5781 1307.75 74.3346 1306.95 74.1797C1306.18 74.0026 1305.27 73.9141 1304.23 73.9141H1298.29V103H1289.49V67.0742H1304.23C1306.55 67.0742 1308.64 67.2845 1310.5 67.7051C1312.36 68.1035 1313.95 68.7122 1315.25 69.5312C1316.56 70.3503 1317.55 71.3906 1318.24 72.6523C1318.95 73.8919 1319.3 75.3529 1319.3 77.0352C1319.3 78.1419 1319.06 79.1823 1318.57 80.1562C1318.09 81.1302 1317.37 81.9935 1316.41 82.7461C1315.46 83.4987 1314.29 84.1185 1312.89 84.6055C1311.5 85.0703 1309.91 85.3581 1308.11 85.4688L1306.55 87.793ZM1306.55 103H1292.81L1296.06 96.1602H1306.55C1307.84 96.1602 1308.9 96.0052 1309.74 95.6953C1310.58 95.3633 1311.2 94.8874 1311.6 94.2676C1312.02 93.6478 1312.23 92.8952 1312.23 92.0098C1312.23 91.1465 1312.03 90.4049 1311.63 89.7852C1311.26 89.1432 1310.65 88.6562 1309.81 88.3242C1308.99 87.9701 1307.9 87.793 1306.55 87.793H1297.49L1297.55 81.8496H1308.08L1310.4 84.207C1312.79 84.362 1314.78 84.849 1316.35 85.668C1317.92 86.4648 1319.09 87.4831 1319.87 88.7227C1320.64 89.9401 1321.03 91.2793 1321.03 92.7402C1321.03 94.4447 1320.71 95.9388 1320.07 97.2227C1319.42 98.5065 1318.48 99.5801 1317.24 100.443C1316 101.285 1314.49 101.926 1312.7 102.369C1310.9 102.79 1308.85 103 1306.55 103Z" fill="#7372D9"/>
<rect x="1640.5" y="58" width="500" height="124" rx="60" fill="#7666C4" fill-opacity="0.8"/>
<path d="M1758.2 94.6562V143H1748.23V102.459H1728.81V143H1718.85V94.6562H1758.2ZM1764.77 125.402V124.705C1764.77 122.071 1765.15 119.647 1765.9 117.434C1766.65 115.198 1767.75 113.261 1769.19 111.623C1770.62 109.985 1772.4 108.712 1774.5 107.805C1776.6 106.875 1779.01 106.41 1781.74 106.41C1784.46 106.41 1786.88 106.875 1789.01 107.805C1791.13 108.712 1792.91 109.985 1794.35 111.623C1795.81 113.261 1796.92 115.198 1797.67 117.434C1798.43 119.647 1798.8 122.071 1798.8 124.705V125.402C1798.8 128.014 1798.43 130.438 1797.67 132.674C1796.92 134.887 1795.81 136.824 1794.35 138.484C1792.91 140.122 1791.14 141.395 1789.04 142.303C1786.94 143.21 1784.53 143.664 1781.8 143.664C1779.08 143.664 1776.66 143.21 1774.53 142.303C1772.43 141.395 1770.65 140.122 1769.19 138.484C1767.75 136.824 1766.65 134.887 1765.9 132.674C1765.15 130.438 1764.77 128.014 1764.77 125.402ZM1774.33 124.705V125.402C1774.33 126.908 1774.46 128.313 1774.73 129.619C1775 130.925 1775.42 132.076 1775.99 133.072C1776.59 134.046 1777.36 134.81 1778.32 135.363C1779.27 135.917 1780.43 136.193 1781.8 136.193C1783.13 136.193 1784.27 135.917 1785.22 135.363C1786.17 134.81 1786.94 134.046 1787.51 133.072C1788.09 132.076 1788.51 130.925 1788.78 129.619C1789.06 128.313 1789.21 126.908 1789.21 125.402V124.705C1789.21 123.244 1789.06 121.872 1788.78 120.588C1788.51 119.282 1788.08 118.131 1787.48 117.135C1786.9 116.117 1786.14 115.32 1785.19 114.744C1784.24 114.169 1783.09 113.881 1781.74 113.881C1780.39 113.881 1779.24 114.169 1778.28 114.744C1777.35 115.32 1776.59 116.117 1775.99 117.135C1775.42 118.131 1775 119.282 1774.73 120.588C1774.46 121.872 1774.33 123.244 1774.33 124.705ZM1828.85 107.074V114.578H1811.45V107.074H1828.85ZM1814.21 107.074V143H1804.65V107.074H1814.21ZM1835.82 107.074V143H1826.23V107.074H1835.82ZM1841.67 125.402V124.705C1841.67 122.071 1842.04 119.647 1842.8 117.434C1843.55 115.198 1844.65 113.261 1846.08 111.623C1847.52 109.985 1849.29 108.712 1851.4 107.805C1853.5 106.875 1855.91 106.41 1858.63 106.41C1861.36 106.41 1863.78 106.875 1865.91 107.805C1868.03 108.712 1869.81 109.985 1871.25 111.623C1872.71 113.261 1873.82 115.198 1874.57 117.434C1875.32 119.647 1875.7 122.071 1875.7 124.705V125.402C1875.7 128.014 1875.32 130.438 1874.57 132.674C1873.82 134.887 1872.71 136.824 1871.25 138.484C1869.81 140.122 1868.04 141.395 1865.94 142.303C1863.84 143.21 1861.42 143.664 1858.7 143.664C1855.98 143.664 1853.55 143.21 1851.43 142.303C1849.33 141.395 1847.54 140.122 1846.08 138.484C1844.65 136.824 1843.55 134.887 1842.8 132.674C1842.04 130.438 1841.67 128.014 1841.67 125.402ZM1851.23 124.705V125.402C1851.23 126.908 1851.36 128.313 1851.63 129.619C1851.89 130.925 1852.32 132.076 1852.89 133.072C1853.49 134.046 1854.26 134.81 1855.21 135.363C1856.17 135.917 1857.33 136.193 1858.7 136.193C1860.03 136.193 1861.17 135.917 1862.12 135.363C1863.07 134.81 1863.84 134.046 1864.41 133.072C1864.99 132.076 1865.41 130.925 1865.67 129.619C1865.96 128.313 1866.11 126.908 1866.11 125.402V124.705C1866.11 123.244 1865.96 121.872 1865.67 120.588C1865.41 119.282 1864.98 118.131 1864.38 117.135C1863.8 116.117 1863.04 115.32 1862.09 114.744C1861.14 114.169 1859.99 113.881 1858.63 113.881C1857.28 113.881 1856.13 114.169 1855.18 114.744C1854.25 115.32 1853.49 116.117 1852.89 117.135C1852.32 118.131 1851.89 119.282 1851.63 120.588C1851.36 121.872 1851.23 123.244 1851.23 124.705ZM1905.22 107.074V114.578H1887.55V107.074H1905.22ZM1912.22 107.074V143H1902.66V107.074H1912.22ZM1885.16 107.074H1894.56L1893.6 125.203C1893.46 127.793 1893.19 130.073 1892.77 132.043C1892.35 134.013 1891.78 135.695 1891.07 137.09C1890.39 138.484 1889.56 139.624 1888.58 140.51C1887.63 141.373 1886.51 142.004 1885.23 142.402C1883.97 142.801 1882.57 143 1881.05 143H1878.12L1878.03 135.463L1879.25 135.33C1879.96 135.264 1880.58 135.064 1881.11 134.732C1881.67 134.378 1882.13 133.88 1882.51 133.238C1882.91 132.574 1883.24 131.744 1883.5 130.748C1883.77 129.73 1883.98 128.535 1884.13 127.162C1884.31 125.79 1884.43 124.207 1884.5 122.414L1885.16 107.074ZM1944.23 121.584V129.021H1925.97V121.584H1944.23ZM1929.16 107.074V143H1919.6V107.074H1929.16ZM1950.71 107.074V143H1941.11V107.074H1950.71ZM1967.67 129.652L1979.73 107.074H1989.29V143H1979.73V120.389L1967.67 143H1958.11V107.074H1967.67V129.652ZM2014.96 107.074V143H2005.36V107.074H2014.96ZM2026.51 107.074V114.479H1993.97V107.074H2026.51ZM2038 117.732H2048.42C2051.7 117.732 2054.49 118.275 2056.79 119.359C2059.12 120.422 2060.89 121.905 2062.1 123.809C2063.34 125.712 2063.96 127.915 2063.96 130.416C2063.96 132.231 2063.61 133.913 2062.9 135.463C2062.21 136.99 2061.21 138.318 2059.88 139.447C2058.55 140.576 2056.92 141.451 2055 142.07C2053.07 142.69 2050.88 143 2048.42 143H2032.02V107.074H2041.62V135.562H2048.42C2049.86 135.562 2051.01 135.33 2051.88 134.865C2052.76 134.378 2053.4 133.747 2053.8 132.973C2054.22 132.198 2054.43 131.357 2054.43 130.449C2054.43 129.497 2054.22 128.634 2053.8 127.859C2053.4 127.062 2052.76 126.421 2051.88 125.934C2051.01 125.447 2049.86 125.203 2048.42 125.203H2038V117.732Z" fill="white"/>
<path fill-rule="evenodd" clip-rule="evenodd" d="M248.5 120C248.5 79.1298 215.37 46 174.5 46C133.63 46 100.5 79.1298 100.5 120C100.5 160.87 133.63 194 174.5 194C215.37 194 248.5 160.87 248.5 120ZM174.5 83C176.463 83 178.345 83.7796 179.733 85.1674C181.12 86.5552 181.9 88.4374 181.9 90.4V127.4C181.9 129.363 181.12 131.245 179.733 132.633C178.345 134.02 176.463 134.8 174.5 134.8C172.537 134.8 170.655 134.02 169.267 132.633C167.88 131.245 167.1 129.363 167.1 127.4V90.4C167.1 88.4374 167.88 86.5552 169.267 85.1674C170.655 83.7796 172.537 83 174.5 83ZM167.1 149.6C167.1 147.637 167.88 145.755 169.267 144.367C170.655 142.98 172.537 142.2 174.5 142.2H174.559C176.522 142.2 178.404 142.98 179.792 144.367C181.18 145.755 181.959 147.637 181.959 149.6C181.959 151.563 181.18 153.445 179.792 154.833C178.404 156.22 176.522 157 174.559 157H174.5C172.537 157 170.655 156.22 169.267 154.833C167.88 153.445 167.1 151.563 167.1 149.6Z" fill="#E6E6E6"/>
</svg>
