<svg width="2241" height="240" viewBox="0 0 2241 240" fill="none" xmlns="http://www.w3.org/2000/svg">
<rect x="0.5" width="2240" height="240" rx="30" fill="#131313"/>
<path d="M433.709 85.3691H421.258V78.1973H433.709C435.745 78.1973 437.395 77.8652 438.656 77.2012C439.94 76.515 440.881 75.5853 441.479 74.4121C442.076 73.2168 442.375 71.8555 442.375 70.3281C442.375 68.8451 442.076 67.4616 441.479 66.1777C440.881 64.8939 439.94 63.8535 438.656 63.0566C437.395 62.2598 435.745 61.8613 433.709 61.8613H424.246V103H415.115V54.6562H433.709C437.472 54.6562 440.682 55.3314 443.338 56.6816C446.016 58.0098 448.053 59.8581 449.447 62.2266C450.864 64.5729 451.572 67.2513 451.572 70.2617C451.572 73.3828 450.864 76.0723 449.447 78.3301C448.053 80.5879 446.016 82.3255 443.338 83.543C440.682 84.7604 437.472 85.3691 433.709 85.3691ZM473.752 103.664C471.029 103.664 468.583 103.221 466.414 102.336C464.245 101.451 462.396 100.222 460.869 98.6504C459.364 97.0566 458.202 95.2083 457.383 93.1055C456.586 90.9805 456.188 88.7005 456.188 86.2656V84.9375C456.188 82.1706 456.586 79.6582 457.383 77.4004C458.18 75.1204 459.309 73.1615 460.77 71.5234C462.23 69.8854 463.979 68.6237 466.016 67.7383C468.052 66.8529 470.299 66.4102 472.756 66.4102C475.301 66.4102 477.548 66.8418 479.496 67.7051C481.444 68.5462 483.071 69.7415 484.377 71.291C485.683 72.8405 486.668 74.6999 487.332 76.8691C487.996 79.0163 488.328 81.3958 488.328 84.0078V87.6934H460.172V81.6504H479.695V80.9863C479.651 79.5918 479.385 78.319 478.898 77.168C478.411 75.9948 477.659 75.0651 476.641 74.3789C475.622 73.6706 474.305 73.3164 472.689 73.3164C471.383 73.3164 470.243 73.6042 469.27 74.1797C468.318 74.7331 467.521 75.5299 466.879 76.5703C466.259 77.5885 465.794 78.806 465.484 80.2227C465.174 81.6393 465.02 83.2109 465.02 84.9375V86.2656C465.02 87.7708 465.219 89.1654 465.617 90.4492C466.038 91.7331 466.646 92.8509 467.443 93.8027C468.262 94.7324 469.236 95.4629 470.365 95.9941C471.516 96.5033 472.822 96.7578 474.283 96.7578C476.12 96.7578 477.781 96.4036 479.264 95.6953C480.769 94.9648 482.075 93.8913 483.182 92.4746L487.598 97.0566C486.845 98.1634 485.827 99.2259 484.543 100.244C483.281 101.262 481.754 102.092 479.961 102.734C478.168 103.354 476.098 103.664 473.752 103.664ZM537.369 85.3691V86.0664C537.369 88.6341 537.081 90.9915 536.506 93.1387C535.952 95.2858 535.111 97.1452 533.982 98.7168C532.876 100.288 531.503 101.506 529.865 102.369C528.227 103.232 526.335 103.664 524.188 103.664C522.262 103.664 520.579 103.321 519.141 102.635C517.724 101.926 516.529 100.941 515.555 99.6797C514.603 98.3958 513.828 96.9017 513.23 95.1973C512.655 93.4707 512.223 91.6003 511.936 89.5859V81.4844C512.223 79.3151 512.655 77.3229 513.23 75.5078C513.806 73.6706 514.581 72.0768 515.555 70.7266C516.529 69.3542 517.713 68.2917 519.107 67.5391C520.524 66.7865 522.195 66.4102 524.121 66.4102C525.87 66.4102 527.441 66.709 528.836 67.3066C530.23 67.9043 531.459 68.7676 532.521 69.8965C533.584 71.0033 534.469 72.3424 535.178 73.9141C535.908 75.4635 536.451 77.2122 536.805 79.1602C537.181 81.0859 537.369 83.1556 537.369 85.3691ZM528.57 86.0664V85.3691C528.57 84.0632 528.493 82.8125 528.338 81.6172C528.183 80.3997 527.939 79.293 527.607 78.2969C527.275 77.3008 526.844 76.4264 526.312 75.6738C525.781 74.9212 525.139 74.3457 524.387 73.9473C523.634 73.5267 522.771 73.3164 521.797 73.3164C520.292 73.3164 519.052 73.5931 518.078 74.1465C517.126 74.6999 516.407 75.4635 515.92 76.4375C515.455 77.4115 515.178 78.5514 515.09 79.8574V91.2461C515.201 92.3529 515.499 93.3158 515.986 94.1348C516.473 94.9538 517.193 95.5957 518.145 96.0605C519.118 96.5254 520.358 96.7578 521.863 96.7578C523.081 96.7578 524.11 96.4922 524.951 95.9609C525.814 95.4076 526.512 94.6549 527.043 93.7031C527.574 92.7292 527.962 91.6003 528.205 90.3164C528.449 89.0104 528.57 87.5938 528.57 86.0664ZM492.744 86.0664V85.3691C492.744 83.1556 492.921 81.0859 493.275 79.1602C493.652 77.2122 494.205 75.4635 494.936 73.9141C495.666 72.3424 496.562 71.0033 497.625 69.8965C498.688 68.7676 499.916 67.9043 501.311 67.3066C502.705 66.709 504.266 66.4102 505.992 66.4102C507.918 66.4102 509.578 66.7865 510.973 67.5391C512.367 68.2917 513.54 69.3542 514.492 70.7266C515.444 72.0768 516.208 73.6706 516.783 75.5078C517.359 77.3229 517.801 79.3151 518.111 81.4844V89.2539C517.824 91.3125 517.381 93.2272 516.783 94.998C516.208 96.7467 515.433 98.2741 514.459 99.5801C513.507 100.886 512.334 101.893 510.939 102.602C509.545 103.31 507.874 103.664 505.926 103.664C503.801 103.664 501.919 103.232 500.281 102.369C498.643 101.506 497.26 100.288 496.131 98.7168C495.024 97.1452 494.183 95.2858 493.607 93.1387C493.032 90.9915 492.744 88.6341 492.744 86.0664ZM501.543 85.3691V86.0664C501.543 87.5938 501.654 89.0104 501.875 90.3164C502.118 91.6003 502.495 92.7292 503.004 93.7031C503.535 94.6549 504.221 95.4076 505.062 95.9609C505.904 96.4922 506.933 96.7578 508.15 96.7578C509.678 96.7578 510.917 96.5143 511.869 96.0273C512.821 95.5182 513.54 94.832 514.027 93.9688C514.536 93.0833 514.835 92.054 514.924 90.8809V79.8574C514.857 78.5514 514.581 77.4115 514.094 76.4375C513.607 75.4635 512.887 74.6999 511.936 74.1465C510.984 73.5931 509.744 73.3164 508.217 73.3164C506.999 73.3164 505.959 73.6374 505.096 74.2793C504.255 74.8991 503.568 75.7624 503.037 76.8691C502.528 77.9759 502.152 79.2598 501.908 80.7207C501.665 82.1816 501.543 83.7311 501.543 85.3691ZM510.541 116.812V52H519.373V116.812H510.541ZM560.014 103.664C557.291 103.664 554.845 103.221 552.676 102.336C550.507 101.451 548.658 100.222 547.131 98.6504C545.626 97.0566 544.464 95.2083 543.645 93.1055C542.848 90.9805 542.449 88.7005 542.449 86.2656V84.9375C542.449 82.1706 542.848 79.6582 543.645 77.4004C544.441 75.1204 545.57 73.1615 547.031 71.5234C548.492 69.8854 550.241 68.6237 552.277 67.7383C554.314 66.8529 556.561 66.4102 559.018 66.4102C561.563 66.4102 563.81 66.8418 565.758 67.7051C567.706 68.5462 569.333 69.7415 570.639 71.291C571.945 72.8405 572.93 74.6999 573.594 76.8691C574.258 79.0163 574.59 81.3958 574.59 84.0078V87.6934H546.434V81.6504H565.957V80.9863C565.913 79.5918 565.647 78.319 565.16 77.168C564.673 75.9948 563.921 75.0651 562.902 74.3789C561.884 73.6706 560.567 73.3164 558.951 73.3164C557.645 73.3164 556.505 73.6042 555.531 74.1797C554.579 74.7331 553.783 75.5299 553.141 76.5703C552.521 77.5885 552.056 78.806 551.746 80.2227C551.436 81.6393 551.281 83.2109 551.281 84.9375V86.2656C551.281 87.7708 551.48 89.1654 551.879 90.4492C552.299 91.7331 552.908 92.8509 553.705 93.8027C554.524 94.7324 555.498 95.4629 556.627 95.9941C557.778 96.5033 559.084 96.7578 560.545 96.7578C562.382 96.7578 564.042 96.4036 565.525 95.6953C567.031 94.9648 568.337 93.8913 569.443 92.4746L573.859 97.0566C573.107 98.1634 572.089 99.2259 570.805 100.244C569.543 101.262 568.016 102.092 566.223 102.734C564.43 103.354 562.36 103.664 560.014 103.664ZM589.232 73.9805V116.812H580.434V67.0742H588.568L589.232 73.9805ZM612.309 84.6719V85.3691C612.309 87.9811 611.999 90.4049 611.379 92.6406C610.781 94.8542 609.896 96.791 608.723 98.4512C607.549 100.089 606.089 101.373 604.34 102.303C602.613 103.21 600.621 103.664 598.363 103.664C596.15 103.664 594.224 103.243 592.586 102.402C590.948 101.539 589.564 100.322 588.436 98.75C587.307 97.1784 586.399 95.3522 585.713 93.2715C585.049 91.1686 584.551 88.8776 584.219 86.3984V84.1738C584.551 81.5397 585.049 79.1491 585.713 77.002C586.399 74.8327 587.307 72.9622 588.436 71.3906C589.564 69.7969 590.937 68.5684 592.553 67.7051C594.191 66.8418 596.105 66.4102 598.297 66.4102C600.577 66.4102 602.58 66.8418 604.307 67.7051C606.055 68.5684 607.527 69.8079 608.723 71.4238C609.918 73.0397 610.814 74.9655 611.412 77.2012C612.01 79.4368 612.309 81.9271 612.309 84.6719ZM603.51 85.3691V84.6719C603.51 83.0781 603.366 81.6061 603.078 80.2559C602.79 78.8835 602.348 77.6882 601.75 76.6699C601.152 75.6296 600.378 74.8216 599.426 74.2461C598.474 73.6706 597.323 73.3828 595.973 73.3828C594.622 73.3828 593.46 73.6042 592.486 74.0469C591.512 74.4896 590.715 75.1204 590.096 75.9395C589.476 76.7585 588.989 77.7324 588.635 78.8613C588.303 79.9681 588.081 81.1966 587.971 82.5469V88.0586C588.17 89.6966 588.557 91.1686 589.133 92.4746C589.708 93.7806 590.549 94.821 591.656 95.5957C592.785 96.3704 594.246 96.7578 596.039 96.7578C597.389 96.7578 598.54 96.459 599.492 95.8613C600.444 95.2637 601.219 94.4447 601.816 93.4043C602.414 92.3418 602.846 91.1243 603.111 89.752C603.377 88.3796 603.51 86.9186 603.51 85.3691ZM638.506 95.3633V78.7949C638.506 77.5775 638.296 76.526 637.875 75.6406C637.454 74.7552 636.812 74.069 635.949 73.582C635.086 73.0951 633.99 72.8516 632.662 72.8516C631.489 72.8516 630.46 73.0508 629.574 73.4492C628.711 73.8477 628.047 74.4121 627.582 75.1426C627.117 75.8509 626.885 76.6699 626.885 77.5996H618.086C618.086 76.1165 618.44 74.7109 619.148 73.3828C619.857 72.0326 620.864 70.8372 622.17 69.7969C623.498 68.7344 625.081 67.9043 626.918 67.3066C628.777 66.709 630.858 66.4102 633.16 66.4102C635.883 66.4102 638.307 66.875 640.432 67.8047C642.579 68.7122 644.261 70.0846 645.479 71.9219C646.718 73.7591 647.338 76.0723 647.338 78.8613V94.5332C647.338 96.3262 647.449 97.8646 647.67 99.1484C647.913 100.41 648.268 101.506 648.732 102.436V103H639.801C639.38 102.092 639.059 100.941 638.838 99.5469C638.617 98.1302 638.506 96.7357 638.506 95.3633ZM639.734 81.1191L639.801 86.332H634.256C632.883 86.332 631.677 86.4759 630.637 86.7637C629.596 87.0293 628.744 87.4277 628.08 87.959C627.416 88.4681 626.918 89.0879 626.586 89.8184C626.254 90.5267 626.088 91.3346 626.088 92.2422C626.088 93.1276 626.287 93.9245 626.686 94.6328C627.106 95.3411 627.704 95.9056 628.479 96.3262C629.275 96.7246 630.205 96.9238 631.268 96.9238C632.817 96.9238 634.167 96.6139 635.318 95.9941C636.469 95.3522 637.366 94.5775 638.008 93.6699C638.65 92.7624 638.993 91.8991 639.037 91.0801L641.561 94.8652C641.251 95.7728 640.786 96.7357 640.166 97.7539C639.546 98.7721 638.749 99.724 637.775 100.609C636.801 101.495 635.628 102.225 634.256 102.801C632.883 103.376 631.29 103.664 629.475 103.664C627.15 103.664 625.07 103.199 623.232 102.27C621.395 101.34 619.945 100.067 618.883 98.4512C617.82 96.8353 617.289 94.998 617.289 92.9395C617.289 91.0358 617.643 89.3535 618.352 87.8926C619.06 86.4316 620.111 85.2031 621.506 84.207C622.9 83.1888 624.627 82.4251 626.686 81.916C628.766 81.3848 631.146 81.1191 633.824 81.1191H639.734ZM679.379 67.0742V74.0137H661.781V67.0742H679.379ZM685.986 67.0742V103H677.221V67.0742H685.986ZM659.59 67.0742H668.256L667.293 85.0039C667.138 87.638 666.861 89.9512 666.463 91.9434C666.064 93.9134 665.533 95.6068 664.869 97.0234C664.205 98.418 663.397 99.5579 662.445 100.443C661.493 101.329 660.387 101.982 659.125 102.402C657.885 102.801 656.491 103 654.941 103H652.252L652.152 95.9277L653.414 95.8281C654.189 95.7617 654.853 95.5514 655.406 95.1973C655.982 94.8431 656.469 94.334 656.867 93.6699C657.288 93.0059 657.631 92.1536 657.896 91.1133C658.184 90.0508 658.406 88.8112 658.561 87.3945C658.738 85.9557 658.859 84.2956 658.926 82.4141L659.59 67.0742ZM700.264 78.1309H710.756C713.943 78.1309 716.655 78.6621 718.891 79.7246C721.148 80.765 722.864 82.2259 724.037 84.1074C725.232 85.9668 725.83 88.125 725.83 90.582C725.83 92.3529 725.487 94.002 724.801 95.5293C724.137 97.0345 723.163 98.3516 721.879 99.4805C720.595 100.587 719.012 101.451 717.131 102.07C715.271 102.69 713.146 103 710.756 103H694.619V67.0742H703.418V96.127H710.756C712.283 96.127 713.501 95.8724 714.408 95.3633C715.338 94.832 716.002 94.1569 716.4 93.3379C716.821 92.4967 717.031 91.6003 717.031 90.6484C717.031 89.6745 716.821 88.7669 716.4 87.9258C716.002 87.0625 715.338 86.3652 714.408 85.834C713.501 85.3027 712.283 85.0371 710.756 85.0371H700.264V78.1309ZM756.277 81.8164V88.6895H737.85V81.8164H756.277ZM740.605 67.0742V103H731.807V67.0742H740.605ZM762.42 67.0742V103H753.588V67.0742H762.42ZM790.178 95.3633V78.7949C790.178 77.5775 789.967 76.526 789.547 75.6406C789.126 74.7552 788.484 74.069 787.621 73.582C786.758 73.0951 785.662 72.8516 784.334 72.8516C783.161 72.8516 782.132 73.0508 781.246 73.4492C780.383 73.8477 779.719 74.4121 779.254 75.1426C778.789 75.8509 778.557 76.6699 778.557 77.5996H769.758C769.758 76.1165 770.112 74.7109 770.82 73.3828C771.529 72.0326 772.536 70.8372 773.842 69.7969C775.17 68.7344 776.753 67.9043 778.59 67.3066C780.449 66.709 782.53 66.4102 784.832 66.4102C787.555 66.4102 789.979 66.875 792.104 67.8047C794.251 68.7122 795.933 70.0846 797.15 71.9219C798.39 73.7591 799.01 76.0723 799.01 78.8613V94.5332C799.01 96.3262 799.12 97.8646 799.342 99.1484C799.585 100.41 799.939 101.506 800.404 102.436V103H791.473C791.052 102.092 790.731 100.941 790.51 99.5469C790.288 98.1302 790.178 96.7357 790.178 95.3633ZM791.406 81.1191L791.473 86.332H785.928C784.555 86.332 783.349 86.4759 782.309 86.7637C781.268 87.0293 780.416 87.4277 779.752 87.959C779.088 88.4681 778.59 89.0879 778.258 89.8184C777.926 90.5267 777.76 91.3346 777.76 92.2422C777.76 93.1276 777.959 93.9245 778.357 94.6328C778.778 95.3411 779.376 95.9056 780.15 96.3262C780.947 96.7246 781.877 96.9238 782.939 96.9238C784.489 96.9238 785.839 96.6139 786.99 95.9941C788.141 95.3522 789.038 94.5775 789.68 93.6699C790.322 92.7624 790.665 91.8991 790.709 91.0801L793.232 94.8652C792.923 95.7728 792.458 96.7357 791.838 97.7539C791.218 98.7721 790.421 99.724 789.447 100.609C788.473 101.495 787.3 102.225 785.928 102.801C784.555 103.376 782.962 103.664 781.146 103.664C778.822 103.664 776.742 103.199 774.904 102.27C773.067 101.34 771.617 100.067 770.555 98.4512C769.492 96.8353 768.961 94.998 768.961 92.9395C768.961 91.0358 769.315 89.3535 770.023 87.8926C770.732 86.4316 771.783 85.2031 773.178 84.207C774.572 83.1888 776.299 82.4251 778.357 81.916C780.438 81.3848 782.818 81.1191 785.496 81.1191H791.406ZM814.549 85.2695H823.547L813.453 103H804.455L814.549 85.2695ZM820.658 67.0742H836.264V103H827.498V73.9141H820.658C819.264 73.9141 818.102 74.1686 817.172 74.6777C816.264 75.1868 815.589 75.8398 815.146 76.6367C814.704 77.4115 814.482 78.2083 814.482 79.0273C814.482 79.8242 814.693 80.599 815.113 81.3516C815.534 82.1042 816.176 82.724 817.039 83.2109C817.924 83.6979 819.031 83.9414 820.359 83.9414H830.619V90.1172H820.359C818.079 90.1172 816.032 89.8405 814.217 89.2871C812.424 88.7116 810.885 87.9147 809.602 86.8965C808.34 85.8783 807.377 84.6829 806.713 83.3105C806.049 81.916 805.717 80.3997 805.717 78.7617C805.717 77.0794 806.049 75.5299 806.713 74.1133C807.399 72.6966 808.384 71.457 809.668 70.3945C810.974 69.332 812.546 68.513 814.383 67.9375C816.242 67.362 818.334 67.0742 820.658 67.0742ZM885.869 67.0742V74.0137H868.305V67.0742H885.869ZM870.629 67.0742V103H861.83V67.0742H870.629ZM892.51 67.0742V103H883.678V67.0742H892.51ZM909.244 73.9805V116.812H900.445V67.0742H908.58L909.244 73.9805ZM932.32 84.6719V85.3691C932.32 87.9811 932.01 90.4049 931.391 92.6406C930.793 94.8542 929.908 96.791 928.734 98.4512C927.561 100.089 926.1 101.373 924.352 102.303C922.625 103.21 920.633 103.664 918.375 103.664C916.161 103.664 914.236 103.243 912.598 102.402C910.96 101.539 909.576 100.322 908.447 98.75C907.318 97.1784 906.411 95.3522 905.725 93.2715C905.061 91.1686 904.562 88.8776 904.23 86.3984V84.1738C904.562 81.5397 905.061 79.1491 905.725 77.002C906.411 74.8327 907.318 72.9622 908.447 71.3906C909.576 69.7969 910.949 68.5684 912.564 67.7051C914.202 66.8418 916.117 66.4102 918.309 66.4102C920.589 66.4102 922.592 66.8418 924.318 67.7051C926.067 68.5684 927.539 69.8079 928.734 71.4238C929.93 73.0397 930.826 74.9655 931.424 77.2012C932.021 79.4368 932.32 81.9271 932.32 84.6719ZM923.521 85.3691V84.6719C923.521 83.0781 923.378 81.6061 923.09 80.2559C922.802 78.8835 922.359 77.6882 921.762 76.6699C921.164 75.6296 920.389 74.8216 919.438 74.2461C918.486 73.6706 917.335 73.3828 915.984 73.3828C914.634 73.3828 913.472 73.6042 912.498 74.0469C911.524 74.4896 910.727 75.1204 910.107 75.9395C909.488 76.7585 909.001 77.7324 908.646 78.8613C908.314 79.9681 908.093 81.1966 907.982 82.5469V88.0586C908.182 89.6966 908.569 91.1686 909.145 92.4746C909.72 93.7806 910.561 94.821 911.668 95.5957C912.797 96.3704 914.258 96.7578 916.051 96.7578C917.401 96.7578 918.552 96.459 919.504 95.8613C920.456 95.2637 921.23 94.4447 921.828 93.4043C922.426 92.3418 922.857 91.1243 923.123 89.752C923.389 88.3796 923.521 86.9186 923.521 85.3691ZM937.168 85.4023V84.7051C937.168 82.071 937.544 79.6471 938.297 77.4336C939.049 75.1979 940.145 73.2611 941.584 71.623C943.023 69.985 944.783 68.7122 946.863 67.8047C948.944 66.875 951.312 66.4102 953.969 66.4102C956.669 66.4102 959.06 66.875 961.141 67.8047C963.243 68.7122 965.014 69.985 966.453 71.623C967.892 73.2611 968.988 75.1979 969.74 77.4336C970.493 79.6471 970.869 82.071 970.869 84.7051V85.4023C970.869 88.0143 970.493 90.4382 969.74 92.6738C968.988 94.8874 967.892 96.8242 966.453 98.4844C965.014 100.122 963.255 101.395 961.174 102.303C959.093 103.21 956.714 103.664 954.035 103.664C951.379 103.664 948.999 103.21 946.896 102.303C944.794 101.395 943.023 100.122 941.584 98.4844C940.145 96.8242 939.049 94.8874 938.297 92.6738C937.544 90.4382 937.168 88.0143 937.168 85.4023ZM945.934 84.7051V85.4023C945.934 86.974 946.089 88.446 946.398 89.8184C946.708 91.1908 947.184 92.3971 947.826 93.4375C948.468 94.4779 949.298 95.2969 950.316 95.8945C951.357 96.4701 952.596 96.7578 954.035 96.7578C955.452 96.7578 956.669 96.4701 957.688 95.8945C958.706 95.2969 959.536 94.4779 960.178 93.4375C960.842 92.3971 961.329 91.1908 961.639 89.8184C961.949 88.446 962.104 86.974 962.104 85.4023V84.7051C962.104 83.1556 961.949 81.7057 961.639 80.3555C961.329 78.9831 960.842 77.7767 960.178 76.7363C959.536 75.6738 958.695 74.8438 957.654 74.2461C956.636 73.6263 955.408 73.3164 953.969 73.3164C952.552 73.3164 951.335 73.6263 950.316 74.2461C949.298 74.8438 948.468 75.6738 947.826 76.7363C947.184 77.7767 946.708 78.9831 946.398 80.3555C946.089 81.7057 945.934 83.1556 945.934 84.7051ZM1001.38 67.0742V74.0137H986.076V103H977.311V67.0742H1001.38ZM1014.56 73.9805V116.812H1005.77V67.0742H1013.9L1014.56 73.9805ZM1037.64 84.6719V85.3691C1037.64 87.9811 1037.33 90.4049 1036.71 92.6406C1036.11 94.8542 1035.23 96.791 1034.05 98.4512C1032.88 100.089 1031.42 101.373 1029.67 102.303C1027.95 103.21 1025.95 103.664 1023.7 103.664C1021.48 103.664 1019.56 103.243 1017.92 102.402C1016.28 101.539 1014.9 100.322 1013.77 98.75C1012.64 97.1784 1011.73 95.3522 1011.04 93.2715C1010.38 91.1686 1009.88 88.8776 1009.55 86.3984V84.1738C1009.88 81.5397 1010.38 79.1491 1011.04 77.002C1011.73 74.8327 1012.64 72.9622 1013.77 71.3906C1014.9 69.7969 1016.27 68.5684 1017.88 67.7051C1019.52 66.8418 1021.44 66.4102 1023.63 66.4102C1025.91 66.4102 1027.91 66.8418 1029.64 67.7051C1031.39 68.5684 1032.86 69.8079 1034.05 71.4238C1035.25 73.0397 1036.15 74.9655 1036.74 77.2012C1037.34 79.4368 1037.64 81.9271 1037.64 84.6719ZM1028.84 85.3691V84.6719C1028.84 83.0781 1028.7 81.6061 1028.41 80.2559C1028.12 78.8835 1027.68 77.6882 1027.08 76.6699C1026.48 75.6296 1025.71 74.8216 1024.76 74.2461C1023.81 73.6706 1022.65 73.3828 1021.3 73.3828C1019.95 73.3828 1018.79 73.6042 1017.82 74.0469C1016.84 74.4896 1016.05 75.1204 1015.43 75.9395C1014.81 76.7585 1014.32 77.7324 1013.97 78.8613C1013.63 79.9681 1013.41 81.1966 1013.3 82.5469V88.0586C1013.5 89.6966 1013.89 91.1686 1014.46 92.4746C1015.04 93.7806 1015.88 94.821 1016.99 95.5957C1018.12 96.3704 1019.58 96.7578 1021.37 96.7578C1022.72 96.7578 1023.87 96.459 1024.82 95.8613C1025.78 95.2637 1026.55 94.4447 1027.15 93.4043C1027.75 92.3418 1028.18 91.1243 1028.44 89.752C1028.71 88.3796 1028.84 86.9186 1028.84 85.3691ZM1063.84 95.3633V78.7949C1063.84 77.5775 1063.63 76.526 1063.21 75.6406C1062.79 74.7552 1062.14 74.069 1061.28 73.582C1060.42 73.0951 1059.32 72.8516 1057.99 72.8516C1056.82 72.8516 1055.79 73.0508 1054.91 73.4492C1054.04 73.8477 1053.38 74.4121 1052.91 75.1426C1052.45 75.8509 1052.22 76.6699 1052.22 77.5996H1043.42C1043.42 76.1165 1043.77 74.7109 1044.48 73.3828C1045.19 72.0326 1046.2 70.8372 1047.5 69.7969C1048.83 68.7344 1050.41 67.9043 1052.25 67.3066C1054.11 66.709 1056.19 66.4102 1058.49 66.4102C1061.21 66.4102 1063.64 66.875 1065.76 67.8047C1067.91 68.7122 1069.59 70.0846 1070.81 71.9219C1072.05 73.7591 1072.67 76.0723 1072.67 78.8613V94.5332C1072.67 96.3262 1072.78 97.8646 1073 99.1484C1073.25 100.41 1073.6 101.506 1074.06 102.436V103H1065.13C1064.71 102.092 1064.39 100.941 1064.17 99.5469C1063.95 98.1302 1063.84 96.7357 1063.84 95.3633ZM1065.07 81.1191L1065.13 86.332H1059.59C1058.22 86.332 1057.01 86.4759 1055.97 86.7637C1054.93 87.0293 1054.08 87.4277 1053.41 87.959C1052.75 88.4681 1052.25 89.0879 1051.92 89.8184C1051.59 90.5267 1051.42 91.3346 1051.42 92.2422C1051.42 93.1276 1051.62 93.9245 1052.02 94.6328C1052.44 95.3411 1053.04 95.9056 1053.81 96.3262C1054.61 96.7246 1055.54 96.9238 1056.6 96.9238C1058.15 96.9238 1059.5 96.6139 1060.65 95.9941C1061.8 95.3522 1062.7 94.5775 1063.34 93.6699C1063.98 92.7624 1064.32 91.8991 1064.37 91.0801L1066.89 94.8652C1066.58 95.7728 1066.12 96.7357 1065.5 97.7539C1064.88 98.7721 1064.08 99.724 1063.11 100.609C1062.13 101.495 1060.96 102.225 1059.59 102.801C1058.22 103.376 1056.62 103.664 1054.81 103.664C1052.48 103.664 1050.4 103.199 1048.56 102.27C1046.73 101.34 1045.28 100.067 1044.21 98.4512C1043.15 96.8353 1042.62 94.998 1042.62 92.9395C1042.62 91.0358 1042.98 89.3535 1043.68 87.8926C1044.39 86.4316 1045.44 85.2031 1046.84 84.207C1048.23 83.1888 1049.96 82.4251 1052.02 81.916C1054.1 81.3848 1056.48 81.1191 1059.16 81.1191H1065.07ZM1102.12 92.6406L1112.21 67.0742H1119.55L1105.11 103H1099.17L1084.76 67.0742H1092.13L1102.12 92.6406ZM1089.97 67.0742V103H1081.17V67.0742H1089.97ZM1114.44 103V67.0742H1123.24V103H1114.44ZM1153.52 92.6406L1163.61 67.0742H1170.95L1156.51 103H1150.56L1136.15 67.0742H1143.53L1153.52 92.6406ZM1141.37 67.0742V103H1132.57V67.0742H1141.37ZM1165.84 103V67.0742H1174.64V103H1165.84ZM1203.16 95.3633V78.7949C1203.16 77.5775 1202.95 76.526 1202.53 75.6406C1202.11 74.7552 1201.46 74.069 1200.6 73.582C1199.74 73.0951 1198.64 72.8516 1197.31 72.8516C1196.14 72.8516 1195.11 73.0508 1194.23 73.4492C1193.36 73.8477 1192.7 74.4121 1192.23 75.1426C1191.77 75.8509 1191.54 76.6699 1191.54 77.5996H1182.74C1182.74 76.1165 1183.09 74.7109 1183.8 73.3828C1184.51 72.0326 1185.52 70.8372 1186.82 69.7969C1188.15 68.7344 1189.73 67.9043 1191.57 67.3066C1193.43 66.709 1195.51 66.4102 1197.81 66.4102C1200.54 66.4102 1202.96 66.875 1205.08 67.8047C1207.23 68.7122 1208.91 70.0846 1210.13 71.9219C1211.37 73.7591 1211.99 76.0723 1211.99 78.8613V94.5332C1211.99 96.3262 1212.1 97.8646 1212.32 99.1484C1212.57 100.41 1212.92 101.506 1213.38 102.436V103H1204.45C1204.03 102.092 1203.71 100.941 1203.49 99.5469C1203.27 98.1302 1203.16 96.7357 1203.16 95.3633ZM1204.39 81.1191L1204.45 86.332H1198.91C1197.54 86.332 1196.33 86.4759 1195.29 86.7637C1194.25 87.0293 1193.4 87.4277 1192.73 87.959C1192.07 88.4681 1191.57 89.0879 1191.24 89.8184C1190.91 90.5267 1190.74 91.3346 1190.74 92.2422C1190.74 93.1276 1190.94 93.9245 1191.34 94.6328C1191.76 95.3411 1192.36 95.9056 1193.13 96.3262C1193.93 96.7246 1194.86 96.9238 1195.92 96.9238C1197.47 96.9238 1198.82 96.6139 1199.97 95.9941C1201.12 95.3522 1202.02 94.5775 1202.66 93.6699C1203.3 92.7624 1203.65 91.8991 1203.69 91.0801L1206.21 94.8652C1205.9 95.7728 1205.44 96.7357 1204.82 97.7539C1204.2 98.7721 1203.4 99.724 1202.43 100.609C1201.45 101.495 1200.28 102.225 1198.91 102.801C1197.54 103.376 1195.94 103.664 1194.13 103.664C1191.8 103.664 1189.72 103.199 1187.88 102.27C1186.05 101.34 1184.6 100.067 1183.54 98.4512C1182.47 96.8353 1181.94 94.998 1181.94 92.9395C1181.94 91.0358 1182.3 89.3535 1183 87.8926C1183.71 86.4316 1184.76 85.2031 1186.16 84.207C1187.55 83.1888 1189.28 82.4251 1191.34 81.916C1193.42 81.3848 1195.8 81.1191 1198.48 81.1191H1204.39ZM1254.49 87.793H1243.1L1243.04 81.8496H1252.4C1253.79 81.8496 1254.93 81.7057 1255.82 81.418C1256.7 81.1302 1257.36 80.6986 1257.78 80.123C1258.22 79.5475 1258.44 78.8503 1258.44 78.0312C1258.44 77.3229 1258.31 76.7142 1258.04 76.2051C1257.78 75.6738 1257.38 75.2422 1256.85 74.9102C1256.34 74.5781 1255.69 74.3346 1254.89 74.1797C1254.11 74.0026 1253.21 73.9141 1252.17 73.9141H1246.22V103H1237.42V67.0742H1252.17C1254.49 67.0742 1256.58 67.2845 1258.44 67.7051C1260.3 68.1035 1261.88 68.7122 1263.19 69.5312C1264.5 70.3503 1265.49 71.3906 1266.18 72.6523C1266.89 73.8919 1267.24 75.3529 1267.24 77.0352C1267.24 78.1419 1267 79.1823 1266.51 80.1562C1266.02 81.1302 1265.3 81.9935 1264.35 82.7461C1263.4 83.4987 1262.23 84.1185 1260.83 84.6055C1259.44 85.0703 1257.84 85.3581 1256.05 85.4688L1254.49 87.793ZM1254.49 103H1240.74L1244 96.1602H1254.49C1255.77 96.1602 1256.84 96.0052 1257.68 95.6953C1258.52 95.3633 1259.14 94.8874 1259.54 94.2676C1259.96 93.6478 1260.17 92.8952 1260.17 92.0098C1260.17 91.1465 1259.97 90.4049 1259.57 89.7852C1259.19 89.1432 1258.59 88.6562 1257.74 88.3242C1256.93 87.9701 1255.84 87.793 1254.49 87.793H1245.43L1245.49 81.8496H1256.02L1258.34 84.207C1260.73 84.362 1262.71 84.849 1264.29 85.668C1265.86 86.4648 1267.03 87.4831 1267.8 88.7227C1268.58 89.9401 1268.97 91.2793 1268.97 92.7402C1268.97 94.4447 1268.65 95.9388 1268 97.2227C1267.36 98.5065 1266.42 99.5801 1265.18 100.443C1263.94 101.285 1262.43 101.926 1260.63 102.369C1258.84 102.79 1256.79 103 1254.49 103ZM1284.11 73.9805V116.812H1275.31V67.0742H1283.44L1284.11 73.9805ZM1307.18 84.6719V85.3691C1307.18 87.9811 1306.87 90.4049 1306.25 92.6406C1305.66 94.8542 1304.77 96.791 1303.6 98.4512C1302.42 100.089 1300.96 101.373 1299.21 102.303C1297.49 103.21 1295.5 103.664 1293.24 103.664C1291.02 103.664 1289.1 103.243 1287.46 102.402C1285.82 101.539 1284.44 100.322 1283.31 98.75C1282.18 97.1784 1281.27 95.3522 1280.59 93.2715C1279.92 91.1686 1279.43 88.8776 1279.09 86.3984V84.1738C1279.43 81.5397 1279.92 79.1491 1280.59 77.002C1281.27 74.8327 1282.18 72.9622 1283.31 71.3906C1284.44 69.7969 1285.81 68.5684 1287.43 67.7051C1289.07 66.8418 1290.98 66.4102 1293.17 66.4102C1295.45 66.4102 1297.46 66.8418 1299.18 67.7051C1300.93 68.5684 1302.4 69.8079 1303.6 71.4238C1304.79 73.0397 1305.69 74.9655 1306.29 77.2012C1306.88 79.4368 1307.18 81.9271 1307.18 84.6719ZM1298.38 85.3691V84.6719C1298.38 83.0781 1298.24 81.6061 1297.95 80.2559C1297.67 78.8835 1297.22 77.6882 1296.62 76.6699C1296.03 75.6296 1295.25 74.8216 1294.3 74.2461C1293.35 73.6706 1292.2 73.3828 1290.85 73.3828C1289.5 73.3828 1288.34 73.6042 1287.36 74.0469C1286.39 74.4896 1285.59 75.1204 1284.97 75.9395C1284.35 76.7585 1283.86 77.7324 1283.51 78.8613C1283.18 79.9681 1282.96 81.1966 1282.85 82.5469V88.0586C1283.04 89.6966 1283.43 91.1686 1284.01 92.4746C1284.58 93.7806 1285.42 94.821 1286.53 95.5957C1287.66 96.3704 1289.12 96.7578 1290.91 96.7578C1292.26 96.7578 1293.42 96.459 1294.37 95.8613C1295.32 95.2637 1296.09 94.4447 1296.69 93.4043C1297.29 92.3418 1297.72 91.1243 1297.99 89.752C1298.25 88.3796 1298.38 86.9186 1298.38 85.3691ZM1329.73 103.664C1327.01 103.664 1324.56 103.221 1322.39 102.336C1320.22 101.451 1318.37 100.222 1316.85 98.6504C1315.34 97.0566 1314.18 95.2083 1313.36 93.1055C1312.56 90.9805 1312.16 88.7005 1312.16 86.2656V84.9375C1312.16 82.1706 1312.56 79.6582 1313.36 77.4004C1314.16 75.1204 1315.29 73.1615 1316.75 71.5234C1318.21 69.8854 1319.96 68.6237 1321.99 67.7383C1324.03 66.8529 1326.28 66.4102 1328.73 66.4102C1331.28 66.4102 1333.52 66.8418 1335.47 67.7051C1337.42 68.5462 1339.05 69.7415 1340.35 71.291C1341.66 72.8405 1342.64 74.6999 1343.31 76.8691C1343.97 79.0163 1344.3 81.3958 1344.3 84.0078V87.6934H1316.15V81.6504H1335.67V80.9863C1335.63 79.5918 1335.36 78.319 1334.88 77.168C1334.39 75.9948 1333.64 75.0651 1332.62 74.3789C1331.6 73.6706 1330.28 73.3164 1328.67 73.3164C1327.36 73.3164 1326.22 73.6042 1325.25 74.1797C1324.29 74.7331 1323.5 75.5299 1322.86 76.5703C1322.24 77.5885 1321.77 78.806 1321.46 80.2227C1321.15 81.6393 1321 83.2109 1321 84.9375V86.2656C1321 87.7708 1321.2 89.1654 1321.59 90.4492C1322.01 91.7331 1322.62 92.8509 1323.42 93.8027C1324.24 94.7324 1325.21 95.4629 1326.34 95.9941C1327.49 96.5033 1328.8 96.7578 1330.26 96.7578C1332.1 96.7578 1333.76 96.4036 1335.24 95.6953C1336.75 94.9648 1338.05 93.8913 1339.16 92.4746L1343.57 97.0566C1342.82 98.1634 1341.8 99.2259 1340.52 100.244C1339.26 101.262 1337.73 102.092 1335.94 102.734C1334.14 103.354 1332.07 103.664 1329.73 103.664ZM1371.73 92.6406L1381.82 67.0742H1389.16L1374.72 103H1368.78L1354.37 67.0742H1361.74L1371.73 92.6406ZM1359.58 67.0742V103H1350.78V67.0742H1359.58ZM1384.05 103V67.0742H1392.85V103H1384.05ZM1417.72 103.664C1414.99 103.664 1412.55 103.221 1410.38 102.336C1408.21 101.451 1406.36 100.222 1404.83 98.6504C1403.33 97.0566 1402.17 95.2083 1401.35 93.1055C1400.55 90.9805 1400.15 88.7005 1400.15 86.2656V84.9375C1400.15 82.1706 1400.55 79.6582 1401.35 77.4004C1402.14 75.1204 1403.27 73.1615 1404.73 71.5234C1406.2 69.8854 1407.94 68.6237 1409.98 67.7383C1412.02 66.8529 1414.26 66.4102 1416.72 66.4102C1419.27 66.4102 1421.51 66.8418 1423.46 67.7051C1425.41 68.5462 1427.04 69.7415 1428.34 71.291C1429.65 72.8405 1430.63 74.6999 1431.3 76.8691C1431.96 79.0163 1432.29 81.3958 1432.29 84.0078V87.6934H1404.14V81.6504H1423.66V80.9863C1423.62 79.5918 1423.35 78.319 1422.86 77.168C1422.38 75.9948 1421.62 75.0651 1420.61 74.3789C1419.59 73.6706 1418.27 73.3164 1416.65 73.3164C1415.35 73.3164 1414.21 73.6042 1413.23 74.1797C1412.28 74.7331 1411.49 75.5299 1410.84 76.5703C1410.22 77.5885 1409.76 78.806 1409.45 80.2227C1409.14 81.6393 1408.98 83.2109 1408.98 84.9375V86.2656C1408.98 87.7708 1409.18 89.1654 1409.58 90.4492C1410 91.7331 1410.61 92.8509 1411.41 93.8027C1412.23 94.7324 1413.2 95.4629 1414.33 95.9941C1415.48 96.5033 1416.79 96.7578 1418.25 96.7578C1420.09 96.7578 1421.75 96.4036 1423.23 95.6953C1424.73 94.9648 1426.04 93.8913 1427.15 92.4746L1431.56 97.0566C1430.81 98.1634 1429.79 99.2259 1428.51 100.244C1427.25 101.262 1425.72 102.092 1423.93 102.734C1422.13 103.354 1420.06 103.664 1417.72 103.664ZM1462.71 81.8164V88.6895H1444.28V81.8164H1462.71ZM1447.04 67.0742V103H1438.24V67.0742H1447.04ZM1468.85 67.0742V103H1460.02V67.0742H1468.85ZM1501.36 81.8164V88.6895H1482.93V81.8164H1501.36ZM1485.68 67.0742V103H1476.88V67.0742H1485.68ZM1507.5 67.0742V103H1498.67V67.0742H1507.5ZM1513.91 85.4023V84.7051C1513.91 82.071 1514.28 79.6471 1515.04 77.4336C1515.79 75.1979 1516.88 73.2611 1518.32 71.623C1519.76 69.985 1521.52 68.7122 1523.6 67.8047C1525.68 66.875 1528.05 66.4102 1530.71 66.4102C1533.41 66.4102 1535.8 66.875 1537.88 67.8047C1539.98 68.7122 1541.75 69.985 1543.19 71.623C1544.63 73.2611 1545.73 75.1979 1546.48 77.4336C1547.23 79.6471 1547.61 82.071 1547.61 84.7051V85.4023C1547.61 88.0143 1547.23 90.4382 1546.48 92.6738C1545.73 94.8874 1544.63 96.8242 1543.19 98.4844C1541.75 100.122 1539.99 101.395 1537.91 102.303C1535.83 103.21 1533.45 103.664 1530.77 103.664C1528.12 103.664 1525.74 103.21 1523.63 102.303C1521.53 101.395 1519.76 100.122 1518.32 98.4844C1516.88 96.8242 1515.79 94.8874 1515.04 92.6738C1514.28 90.4382 1513.91 88.0143 1513.91 85.4023ZM1522.67 84.7051V85.4023C1522.67 86.974 1522.83 88.446 1523.14 89.8184C1523.45 91.1908 1523.92 92.3971 1524.56 93.4375C1525.21 94.4779 1526.04 95.2969 1527.05 95.8945C1528.1 96.4701 1529.33 96.7578 1530.77 96.7578C1532.19 96.7578 1533.41 96.4701 1534.43 95.8945C1535.44 95.2969 1536.27 94.4779 1536.92 93.4375C1537.58 92.3971 1538.07 91.1908 1538.38 89.8184C1538.69 88.446 1538.84 86.974 1538.84 85.4023V84.7051C1538.84 83.1556 1538.69 81.7057 1538.38 80.3555C1538.07 78.9831 1537.58 77.7767 1536.92 76.7363C1536.27 75.6738 1535.43 74.8438 1534.39 74.2461C1533.37 73.6263 1532.15 73.3164 1530.71 73.3164C1529.29 73.3164 1528.07 73.6263 1527.05 74.2461C1526.04 74.8438 1525.21 75.6738 1524.56 76.7363C1523.92 77.7767 1523.45 78.9831 1523.14 80.3555C1522.83 81.7057 1522.67 83.1556 1522.67 84.7051ZM438.988 161.816V168.689H420.561V161.816H438.988ZM423.316 147.074V183H414.518V147.074H423.316ZM445.131 147.074V183H436.299V147.074H445.131ZM469.236 183.664C466.514 183.664 464.068 183.221 461.898 182.336C459.729 181.451 457.881 180.222 456.354 178.65C454.848 177.057 453.686 175.208 452.867 173.105C452.07 170.98 451.672 168.701 451.672 166.266V164.938C451.672 162.171 452.07 159.658 452.867 157.4C453.664 155.12 454.793 153.161 456.254 151.523C457.715 149.885 459.464 148.624 461.5 147.738C463.536 146.853 465.783 146.41 468.24 146.41C470.786 146.41 473.033 146.842 474.98 147.705C476.928 148.546 478.555 149.742 479.861 151.291C481.167 152.84 482.152 154.7 482.816 156.869C483.48 159.016 483.812 161.396 483.812 164.008V167.693H455.656V161.65H475.18V160.986C475.135 159.592 474.87 158.319 474.383 157.168C473.896 155.995 473.143 155.065 472.125 154.379C471.107 153.671 469.79 153.316 468.174 153.316C466.868 153.316 465.728 153.604 464.754 154.18C463.802 154.733 463.005 155.53 462.363 156.57C461.743 157.589 461.279 158.806 460.969 160.223C460.659 161.639 460.504 163.211 460.504 164.938V166.266C460.504 167.771 460.703 169.165 461.102 170.449C461.522 171.733 462.131 172.851 462.928 173.803C463.747 174.732 464.721 175.463 465.85 175.994C467.001 176.503 468.307 176.758 469.768 176.758C471.605 176.758 473.265 176.404 474.748 175.695C476.253 174.965 477.559 173.891 478.666 172.475L483.082 177.057C482.329 178.163 481.311 179.226 480.027 180.244C478.766 181.262 477.238 182.092 475.445 182.734C473.652 183.354 471.583 183.664 469.236 183.664ZM496.164 147.074H504.93L504.598 159.426C504.487 163.167 504.044 166.398 503.27 169.121C502.517 171.822 501.51 174.09 500.248 175.928C499.008 177.765 497.592 179.248 495.998 180.377C494.426 181.506 492.777 182.38 491.051 183H488.959L488.926 176.16L489.955 176.094C490.995 174.987 491.87 173.902 492.578 172.84C493.309 171.755 493.895 170.593 494.338 169.354C494.781 168.114 495.113 166.697 495.334 165.104C495.577 163.488 495.732 161.595 495.799 159.426L496.164 147.074ZM498.521 147.074H521.797V183H513.031V154.279H498.521V147.074ZM486.967 176.094H526.811V193.758H518.045V183H495.898V193.758H486.934L486.967 176.094ZM530.629 165.402V164.705C530.629 162.071 531.005 159.647 531.758 157.434C532.51 155.198 533.606 153.261 535.045 151.623C536.484 149.985 538.243 148.712 540.324 147.805C542.405 146.875 544.773 146.41 547.43 146.41C550.13 146.41 552.521 146.875 554.602 147.805C556.704 148.712 558.475 149.985 559.914 151.623C561.353 153.261 562.449 155.198 563.201 157.434C563.954 159.647 564.33 162.071 564.33 164.705V165.402C564.33 168.014 563.954 170.438 563.201 172.674C562.449 174.887 561.353 176.824 559.914 178.484C558.475 180.122 556.715 181.395 554.635 182.303C552.554 183.21 550.174 183.664 547.496 183.664C544.84 183.664 542.46 183.21 540.357 182.303C538.255 181.395 536.484 180.122 535.045 178.484C533.606 176.824 532.51 174.887 531.758 172.674C531.005 170.438 530.629 168.014 530.629 165.402ZM539.395 164.705V165.402C539.395 166.974 539.549 168.446 539.859 169.818C540.169 171.191 540.645 172.397 541.287 173.438C541.929 174.478 542.759 175.297 543.777 175.895C544.818 176.47 546.057 176.758 547.496 176.758C548.913 176.758 550.13 176.47 551.148 175.895C552.167 175.297 552.997 174.478 553.639 173.438C554.303 172.397 554.79 171.191 555.1 169.818C555.41 168.446 555.564 166.974 555.564 165.402V164.705C555.564 163.156 555.41 161.706 555.1 160.355C554.79 158.983 554.303 157.777 553.639 156.736C552.997 155.674 552.156 154.844 551.115 154.246C550.097 153.626 548.868 153.316 547.43 153.316C546.013 153.316 544.796 153.626 543.777 154.246C542.759 154.844 541.929 155.674 541.287 156.736C540.645 157.777 540.169 158.983 539.859 160.355C539.549 161.706 539.395 163.156 539.395 164.705ZM585.447 176.758C586.687 176.758 587.794 176.514 588.768 176.027C589.742 175.54 590.516 174.854 591.092 173.969C591.689 173.083 592.01 172.054 592.055 170.881H600.322C600.278 173.316 599.592 175.496 598.264 177.422C596.936 179.348 595.165 180.875 592.951 182.004C590.76 183.111 588.303 183.664 585.58 183.664C582.813 183.664 580.4 183.199 578.342 182.27C576.283 181.34 574.568 180.045 573.195 178.385C571.845 176.725 570.827 174.799 570.141 172.607C569.477 170.416 569.145 168.07 569.145 165.568V164.506C569.145 162.005 569.477 159.658 570.141 157.467C570.827 155.275 571.845 153.35 573.195 151.689C574.568 150.029 576.283 148.734 578.342 147.805C580.4 146.875 582.802 146.41 585.547 146.41C588.447 146.41 590.992 146.975 593.184 148.104C595.397 149.232 597.124 150.826 598.363 152.885C599.625 154.943 600.278 157.367 600.322 160.156H592.055C592.01 158.872 591.723 157.721 591.191 156.703C590.66 155.685 589.908 154.866 588.934 154.246C587.96 153.626 586.775 153.316 585.381 153.316C583.898 153.316 582.658 153.626 581.662 154.246C580.688 154.866 579.924 155.718 579.371 156.803C578.84 157.865 578.464 159.061 578.242 160.389C578.043 161.695 577.943 163.067 577.943 164.506V165.568C577.943 167.029 578.043 168.424 578.242 169.752C578.464 171.08 578.84 172.275 579.371 173.338C579.924 174.378 580.688 175.208 581.662 175.828C582.658 176.448 583.92 176.758 585.447 176.758ZM623.598 147.074V183H614.799V147.074H623.598ZM635.285 147.074V153.914H603.311V147.074H635.285ZM651.355 179.016L660.984 147.074H670.381L655.971 188.445C655.639 189.331 655.207 190.294 654.676 191.334C654.167 192.374 653.48 193.359 652.617 194.289C651.754 195.241 650.669 196.016 649.363 196.613C648.079 197.211 646.519 197.51 644.682 197.51C643.885 197.51 643.176 197.454 642.557 197.344C641.937 197.233 641.284 197.089 640.598 196.912V190.338C640.819 190.36 641.074 190.371 641.361 190.371C641.671 190.393 641.937 190.404 642.158 190.404C643.442 190.404 644.505 190.249 645.346 189.939C646.187 189.652 646.862 189.176 647.371 188.512C647.902 187.87 648.345 187.029 648.699 185.988L651.355 179.016ZM646.607 147.074L654.742 173.537L656.17 182.801L650.127 183.896L637.145 147.074H646.607ZM698.736 147.074V154.014H681.172V147.074H698.736ZM683.496 147.074V183H674.697V147.074H683.496ZM705.377 147.074V183H696.545V147.074H705.377ZM737.883 161.816V168.689H719.455V161.816H737.883ZM722.211 147.074V183H713.412V147.074H722.211ZM744.025 147.074V183H735.193V147.074H744.025ZM771.783 175.363V158.795C771.783 157.577 771.573 156.526 771.152 155.641C770.732 154.755 770.09 154.069 769.227 153.582C768.363 153.095 767.268 152.852 765.939 152.852C764.766 152.852 763.737 153.051 762.852 153.449C761.988 153.848 761.324 154.412 760.859 155.143C760.395 155.851 760.162 156.67 760.162 157.6H751.363C751.363 156.117 751.717 154.711 752.426 153.383C753.134 152.033 754.141 150.837 755.447 149.797C756.775 148.734 758.358 147.904 760.195 147.307C762.055 146.709 764.135 146.41 766.438 146.41C769.16 146.41 771.584 146.875 773.709 147.805C775.856 148.712 777.538 150.085 778.756 151.922C779.995 153.759 780.615 156.072 780.615 158.861V174.533C780.615 176.326 780.726 177.865 780.947 179.148C781.191 180.41 781.545 181.506 782.01 182.436V183H773.078C772.658 182.092 772.337 180.941 772.115 179.547C771.894 178.13 771.783 176.736 771.783 175.363ZM773.012 161.119L773.078 166.332H767.533C766.161 166.332 764.954 166.476 763.914 166.764C762.874 167.029 762.021 167.428 761.357 167.959C760.693 168.468 760.195 169.088 759.863 169.818C759.531 170.527 759.365 171.335 759.365 172.242C759.365 173.128 759.564 173.924 759.963 174.633C760.383 175.341 760.981 175.906 761.756 176.326C762.553 176.725 763.482 176.924 764.545 176.924C766.094 176.924 767.445 176.614 768.596 175.994C769.747 175.352 770.643 174.577 771.285 173.67C771.927 172.762 772.27 171.899 772.314 171.08L774.838 174.865C774.528 175.773 774.063 176.736 773.443 177.754C772.824 178.772 772.027 179.724 771.053 180.609C770.079 181.495 768.906 182.225 767.533 182.801C766.161 183.376 764.567 183.664 762.752 183.664C760.428 183.664 758.347 183.199 756.51 182.27C754.673 181.34 753.223 180.067 752.16 178.451C751.098 176.835 750.566 174.998 750.566 172.939C750.566 171.036 750.921 169.354 751.629 167.893C752.337 166.432 753.389 165.203 754.783 164.207C756.178 163.189 757.904 162.425 759.963 161.916C762.044 161.385 764.423 161.119 767.102 161.119H773.012Z" fill="white"/>
<path d="M1933.98 148.781C1930.85 148.781 1928.03 148.273 1925.5 147.258C1923 146.216 1920.86 144.771 1919.09 142.922C1917.35 141.073 1916.01 138.898 1915.07 136.398C1914.13 133.898 1913.66 131.203 1913.66 128.312V126.75C1913.66 123.443 1914.15 120.448 1915.11 117.766C1916.07 115.083 1917.41 112.792 1919.13 110.891C1920.85 108.964 1922.88 107.492 1925.23 106.477C1927.57 105.461 1930.11 104.953 1932.84 104.953C1935.86 104.953 1938.51 105.461 1940.77 106.477C1943.04 107.492 1944.91 108.924 1946.4 110.773C1947.91 112.596 1949.03 114.771 1949.76 117.297C1950.51 119.823 1950.89 122.609 1950.89 125.656V129.68H1918.23V122.922H1941.59V122.18C1941.54 120.487 1941.2 118.898 1940.58 117.414C1939.98 115.93 1939.05 114.732 1937.8 113.82C1936.55 112.909 1934.89 112.453 1932.8 112.453C1931.24 112.453 1929.85 112.792 1928.62 113.469C1927.43 114.12 1926.42 115.07 1925.62 116.32C1924.81 117.57 1924.18 119.081 1923.74 120.852C1923.33 122.596 1923.12 124.562 1923.12 126.75V128.312C1923.12 130.161 1923.36 131.88 1923.86 133.469C1924.38 135.031 1925.14 136.398 1926.12 137.57C1927.11 138.742 1928.31 139.667 1929.72 140.344C1931.12 140.995 1932.73 141.32 1934.52 141.32C1936.79 141.32 1938.81 140.865 1940.58 139.953C1942.35 139.042 1943.89 137.753 1945.19 136.086L1950.15 140.891C1949.24 142.219 1948.05 143.495 1946.59 144.719C1945.14 145.917 1943.35 146.893 1941.24 147.648C1939.16 148.404 1936.74 148.781 1933.98 148.781ZM1967.69 113.781V148H1958.27V105.734H1967.26L1967.69 113.781ZM1980.62 105.461L1980.54 114.211C1979.97 114.107 1979.34 114.029 1978.66 113.977C1978.01 113.924 1977.36 113.898 1976.71 113.898C1975.1 113.898 1973.68 114.133 1972.45 114.602C1971.23 115.044 1970.2 115.695 1969.37 116.555C1968.56 117.388 1967.93 118.404 1967.49 119.602C1967.05 120.799 1966.79 122.141 1966.71 123.625L1964.56 123.781C1964.56 121.125 1964.82 118.664 1965.34 116.398C1965.86 114.133 1966.65 112.141 1967.69 110.422C1968.76 108.703 1970.08 107.362 1971.67 106.398C1973.29 105.435 1975.15 104.953 1977.26 104.953C1977.83 104.953 1978.44 105.005 1979.09 105.109C1979.77 105.214 1980.28 105.331 1980.62 105.461ZM2024.09 140.5V148H1985.97V141.555L2004.48 121.359C2006.52 119.068 2008.12 117.089 2009.29 115.422C2010.46 113.755 2011.28 112.258 2011.75 110.93C2012.24 109.576 2012.49 108.26 2012.49 106.984C2012.49 105.188 2012.15 103.612 2011.48 102.258C2010.83 100.878 2009.86 99.7969 2008.59 99.0156C2007.31 98.2083 2005.76 97.8047 2003.94 97.8047C2001.83 97.8047 2000.06 98.2604 1998.62 99.1719C1997.19 100.083 1996.11 101.346 1995.38 102.961C1994.65 104.549 1994.29 106.372 1994.29 108.43H1984.88C1984.88 105.122 1985.63 102.102 1987.14 99.3672C1988.65 96.6068 1990.84 94.4193 1993.7 92.8047C1996.57 91.1641 2000.02 90.3438 2004.05 90.3438C2007.86 90.3438 2011.09 90.9818 2013.74 92.2578C2016.4 93.5339 2018.42 95.3438 2019.8 97.6875C2021.2 100.031 2021.91 102.805 2021.91 106.008C2021.91 107.779 2021.62 109.536 2021.05 111.281C2020.47 113.026 2019.65 114.771 2018.59 116.516C2017.54 118.234 2016.31 119.966 2014.88 121.711C2013.44 123.43 2011.87 125.174 2010.15 126.945L1997.84 140.5H2024.09ZM2068.51 114.797V124.094C2068.51 128.547 2068.07 132.349 2067.18 135.5C2066.32 138.625 2065.07 141.164 2063.43 143.117C2061.79 145.07 2059.82 146.503 2057.53 147.414C2055.27 148.326 2052.73 148.781 2049.91 148.781C2047.67 148.781 2045.59 148.495 2043.66 147.922C2041.76 147.349 2040.04 146.451 2038.51 145.227C2036.97 144.003 2035.66 142.427 2034.56 140.5C2033.49 138.547 2032.66 136.216 2032.06 133.508C2031.49 130.799 2031.2 127.661 2031.2 124.094V114.797C2031.2 110.318 2031.65 106.542 2032.53 103.469C2033.42 100.37 2034.68 97.8568 2036.32 95.9297C2037.96 93.9766 2039.91 92.5573 2042.18 91.6719C2044.47 90.7865 2047.02 90.3438 2049.84 90.3438C2052.1 90.3438 2054.18 90.6302 2056.09 91.2031C2058.01 91.75 2059.73 92.6224 2061.24 93.8203C2062.78 95.0182 2064.08 96.5807 2065.15 98.5078C2066.24 100.409 2067.08 102.714 2067.65 105.422C2068.22 108.104 2068.51 111.229 2068.51 114.797ZM2059.09 125.422V113.391C2059.09 111.125 2058.96 109.133 2058.7 107.414C2058.44 105.669 2058.05 104.198 2057.53 103C2057.04 101.776 2056.41 100.786 2055.66 100.031C2054.9 99.25 2054.04 98.6901 2053.08 98.3516C2052.11 97.987 2051.03 97.8047 2049.84 97.8047C2048.38 97.8047 2047.08 98.0911 2045.93 98.6641C2044.78 99.2109 2043.82 100.096 2043.04 101.32C2042.26 102.544 2041.66 104.159 2041.24 106.164C2040.85 108.143 2040.66 110.552 2040.66 113.391V125.422C2040.66 127.714 2040.79 129.732 2041.05 131.477C2041.31 133.221 2041.7 134.719 2042.22 135.969C2042.74 137.193 2043.36 138.208 2044.09 139.016C2044.85 139.797 2045.71 140.37 2046.67 140.734C2047.66 141.099 2048.74 141.281 2049.91 141.281C2051.4 141.281 2052.71 140.995 2053.86 140.422C2055.01 139.849 2055.97 138.938 2056.75 137.688C2057.53 136.411 2058.12 134.758 2058.51 132.727C2058.9 130.695 2059.09 128.26 2059.09 125.422ZM2102.61 90.9297V148H2093.2V102.102L2079.25 106.828V99.0547L2101.48 90.9297H2102.61ZM2123.31 143.312C2123.31 141.854 2123.81 140.63 2124.8 139.641C2125.79 138.625 2127.13 138.117 2128.82 138.117C2130.54 138.117 2131.88 138.625 2132.84 139.641C2133.83 140.63 2134.33 141.854 2134.33 143.312C2134.33 144.771 2133.83 145.995 2132.84 146.984C2131.88 147.974 2130.54 148.469 2128.82 148.469C2127.13 148.469 2125.79 147.974 2124.8 146.984C2123.81 145.995 2123.31 144.771 2123.31 143.312Z" fill="#7666C4"/>
<path fill-rule="evenodd" clip-rule="evenodd" d="M248.5 120C248.5 79.1298 215.37 46 174.5 46C133.63 46 100.5 79.1298 100.5 120C100.5 160.87 133.63 194 174.5 194C215.37 194 248.5 160.87 248.5 120ZM174.5 83C176.463 83 178.345 83.7796 179.733 85.1674C181.12 86.5552 181.9 88.4374 181.9 90.4V127.4C181.9 129.363 181.12 131.245 179.733 132.633C178.345 134.02 176.463 134.8 174.5 134.8C172.537 134.8 170.655 134.02 169.267 132.633C167.88 131.245 167.1 129.363 167.1 127.4V90.4C167.1 88.4374 167.88 86.5552 169.267 85.1674C170.655 83.7796 172.537 83 174.5 83ZM167.1 149.6C167.1 147.637 167.88 145.755 169.267 144.367C170.655 142.98 172.537 142.2 174.5 142.2H174.559C176.522 142.2 178.404 142.98 179.792 144.367C181.18 145.755 181.959 147.637 181.959 149.6C181.959 151.563 181.18 153.445 179.792 154.833C178.404 156.22 176.522 157 174.559 157H174.5C172.537 157 170.655 156.22 169.267 154.833C167.88 153.445 167.1 151.563 167.1 149.6Z" fill="#E6E6E6"/>
</svg>
