<svg width="1130" height="90" viewBox="0 0 1130 90" fill="none" xmlns="http://www.w3.org/2000/svg">
<rect width="1130" height="90" rx="25" fill="#212121"/>
<rect x="25" y="18" width="55" height="55" rx="27.5" fill="#7666C4"/>
<path d="M42.0008 36.8951C41.9955 37.0066 42.0159 37.1179 42.0606 37.2222C42.1053 37.3264 42.1735 37.4214 42.2609 37.5013C42.3483 37.5812 42.4531 37.6443 42.5688 37.6868C42.6846 37.7292 42.8089 37.7501 42.934 37.7481H46.1286C46.663 37.7481 47.089 37.3578 47.1587 36.8847C47.5072 34.6191 49.2497 32.9682 52.3552 32.9682C55.0116 32.9682 57.4433 34.1529 57.4433 37.0021C57.4433 39.1952 55.9951 40.2037 53.7066 41.7371C51.1006 43.4259 49.0367 45.398 49.1838 48.5995L49.1955 49.3489C49.1995 49.5755 49.3033 49.7916 49.4844 49.9505C49.6655 50.1095 49.9094 50.1986 50.1635 50.1985H53.3039C53.5606 50.1985 53.8069 50.1076 53.9884 49.9456C54.17 49.7837 54.272 49.5641 54.272 49.3351V48.9725C54.272 46.4928 55.3291 45.7709 58.1829 43.8404C60.5411 42.2413 63 40.4661 63 36.7396C63 31.5212 58.059 29 52.6495 29C47.7434 29 42.3687 31.0377 42.0008 36.8951ZM48.0299 56.7985C48.0299 58.6393 49.6756 60 51.9409 60C54.2991 60 55.9215 58.6393 55.9215 56.7985C55.9215 54.892 54.2952 53.552 51.937 53.552C49.6756 53.552 48.0299 54.892 48.0299 56.7985Z" fill="#212121"/>
<path d="M112.793 30.5625V59H107.891V30.5625H112.793ZM124.395 43.0039V46.8906H111.543V43.0039H124.395ZM126.016 30.5625V34.4688H111.543V30.5625H126.016ZM137.52 34.3516L129.023 59H123.887L134.59 30.5625H137.871L137.52 34.3516ZM144.629 59L136.113 34.3516L135.742 30.5625H139.043L149.785 59H144.629ZM144.219 48.4531V52.3398H128.75V48.4531H144.219ZM167.715 55.2109L175.195 61.1484L172.012 63.9414L164.668 58.0625L167.715 55.2109ZM175.254 44V45.5625C175.254 47.7109 174.974 49.638 174.414 51.3438C173.854 53.0495 173.053 54.5013 172.012 55.6992C170.97 56.8971 169.727 57.8151 168.281 58.4531C166.836 59.0781 165.234 59.3906 163.477 59.3906C161.732 59.3906 160.137 59.0781 158.691 58.4531C157.259 57.8151 156.016 56.8971 154.961 55.6992C153.906 54.5013 153.086 53.0495 152.5 51.3438C151.927 49.638 151.641 47.7109 151.641 45.5625V44C151.641 41.8516 151.927 39.931 152.5 38.2383C153.073 36.5326 153.88 35.0807 154.922 33.8828C155.977 32.6719 157.22 31.7539 158.652 31.1289C160.098 30.4909 161.693 30.1719 163.438 30.1719C165.195 30.1719 166.797 30.4909 168.242 31.1289C169.701 31.7539 170.951 32.6719 171.992 33.8828C173.034 35.0807 173.835 36.5326 174.395 38.2383C174.967 39.931 175.254 41.8516 175.254 44ZM170.332 45.5625V43.9609C170.332 42.3724 170.176 40.9727 169.863 39.7617C169.564 38.5378 169.115 37.5156 168.516 36.6953C167.93 35.862 167.207 35.237 166.348 34.8203C165.501 34.3906 164.531 34.1758 163.438 34.1758C162.37 34.1758 161.413 34.3906 160.566 34.8203C159.72 35.237 158.997 35.862 158.398 36.6953C157.799 37.5156 157.344 38.5378 157.031 39.7617C156.719 40.9727 156.562 42.3724 156.562 43.9609V45.5625C156.562 47.151 156.719 48.5573 157.031 49.7812C157.344 51.0052 157.799 52.0404 158.398 52.8867C159.01 53.7201 159.74 54.3516 160.586 54.7812C161.445 55.1979 162.409 55.4062 163.477 55.4062C164.57 55.4062 165.54 55.1979 166.387 54.7812C167.233 54.3516 167.949 53.7201 168.535 52.8867C169.121 52.0404 169.564 51.0052 169.863 49.7812C170.176 48.5573 170.332 47.151 170.332 45.5625Z" fill="#A1A1A1"/>
<path fill-rule="evenodd" clip-rule="evenodd" d="M1088.86 47.0769L1070 63.5765L1065.29 59.4523L1081.79 45.0148L1065.29 30.5773L1070 26.4531L1088.86 42.9527C1089.48 43.4997 1089.83 44.2414 1089.83 45.0148C1089.83 45.7882 1089.48 46.5299 1088.86 47.0769Z" fill="#A1A1A1"/>
</svg>
