<svg width="66" height="66" viewBox="0 0 66 66" fill="none" xmlns="http://www.w3.org/2000/svg">
<rect width="66" height="66" rx="20.7778" fill="#7666C4"/>
<path d="M19.0011 22.6965C18.994 22.8476 19.0211 22.9985 19.0808 23.1397C19.1404 23.281 19.2313 23.4097 19.3478 23.5179C19.4644 23.6262 19.6041 23.7117 19.7585 23.7692C19.9128 23.8267 20.0785 23.855 20.2454 23.8523H24.5048C25.2173 23.8523 25.7853 23.3235 25.8782 22.6825C26.3429 19.613 28.6662 17.3763 32.8069 17.3763C36.3487 17.3763 39.5911 18.9813 39.5911 22.8416C39.5911 25.8128 37.6601 27.1791 34.6088 29.2567C31.1341 31.5448 28.3823 34.2166 28.5784 38.5541L28.5939 39.5695C28.5994 39.8765 28.7377 40.1693 28.9792 40.3846C29.2207 40.6 29.5459 40.7206 29.8847 40.7206H34.0719C34.4142 40.7206 34.7425 40.5973 34.9846 40.378C35.2266 40.1586 35.3626 39.861 35.3626 39.5508V39.0595C35.3626 35.6999 36.7721 34.7219 40.5772 32.1063C43.7215 29.9398 47 27.5348 47 22.486C47 15.4158 40.412 12 33.1993 12C26.6578 12 19.4916 14.7607 19.0011 22.6965ZM27.0399 49.6624C27.0399 52.1564 29.2341 54 32.2545 54C35.3988 54 37.5621 52.1564 37.5621 49.6624C37.5621 47.0795 35.3936 45.264 32.2493 45.264C29.2341 45.264 27.0399 47.0795 27.0399 49.6624Z" fill="white"/>
</svg>
