<svg width="1130" height="100" viewBox="0 0 1130 100" fill="none" xmlns="http://www.w3.org/2000/svg">
<rect width="1130" height="100" rx="25" fill="#0F0F0F"/>
<path d="M57.5 16.8203C75.4497 16.8203 90 31.3706 90 49.3203C90 67.2701 75.4497 81.8203 57.5 81.8203C39.5502 81.8203 25 67.2701 25 49.3203C25 31.3706 39.5502 16.8203 57.5 16.8203ZM57.5 29.8203C56.638 29.8203 55.8114 30.1627 55.2019 30.7722C54.5924 31.3817 54.25 32.2084 54.25 33.0703V49.3203C54.2502 50.1822 54.5927 51.0087 55.2022 51.6181L64.9522 61.3681C65.5652 61.9601 66.3862 62.2877 67.2383 62.2803C68.0904 62.2728 68.9056 61.931 69.5082 61.3285C70.1107 60.7259 70.4525 59.9108 70.4599 59.0586C70.4673 58.2065 70.1398 57.3855 69.5477 56.7726L60.75 47.9748V33.0703C60.75 32.2084 60.4076 31.3817 59.7981 30.7722C59.1886 30.1627 58.3619 29.8203 57.5 29.8203Z" fill="#7666C4"/>
<path d="M155.469 31.875V66H149.609V36.5625H134.445V66H128.586V31.875H155.469ZM160.906 53.6016V53.0625C160.906 51.2344 161.172 49.5391 161.703 47.9766C162.234 46.3984 163 45.0312 164 43.875C165.016 42.7031 166.25 41.7969 167.703 41.1562C169.172 40.5 170.828 40.1719 172.672 40.1719C174.531 40.1719 176.188 40.5 177.641 41.1562C179.109 41.7969 180.352 42.7031 181.367 43.875C182.383 45.0312 183.156 46.3984 183.688 47.9766C184.219 49.5391 184.484 51.2344 184.484 53.0625V53.6016C184.484 55.4297 184.219 57.125 183.688 58.6875C183.156 60.25 182.383 61.6172 181.367 62.7891C180.352 63.9453 179.117 64.8516 177.664 65.5078C176.211 66.1484 174.562 66.4688 172.719 66.4688C170.859 66.4688 169.195 66.1484 167.727 65.5078C166.273 64.8516 165.039 63.9453 164.023 62.7891C163.008 61.6172 162.234 60.25 161.703 58.6875C161.172 57.125 160.906 55.4297 160.906 53.6016ZM166.555 53.0625V53.6016C166.555 54.7422 166.672 55.8203 166.906 56.8359C167.141 57.8516 167.508 58.7422 168.008 59.5078C168.508 60.2734 169.148 60.875 169.93 61.3125C170.711 61.75 171.641 61.9688 172.719 61.9688C173.766 61.9688 174.672 61.75 175.438 61.3125C176.219 60.875 176.859 60.2734 177.359 59.5078C177.859 58.7422 178.227 57.8516 178.461 56.8359C178.711 55.8203 178.836 54.7422 178.836 53.6016V53.0625C178.836 51.9375 178.711 50.875 178.461 49.875C178.227 48.8594 177.852 47.9609 177.336 47.1797C176.836 46.3984 176.195 45.7891 175.414 45.3516C174.648 44.8984 173.734 44.6719 172.672 44.6719C171.609 44.6719 170.688 44.8984 169.906 45.3516C169.141 45.7891 168.508 46.3984 168.008 47.1797C167.508 47.9609 167.141 48.8594 166.906 49.875C166.672 50.875 166.555 51.9375 166.555 53.0625ZM199.578 61.9688C200.5 61.9688 201.328 61.7891 202.062 61.4297C202.812 61.0547 203.414 60.5391 203.867 59.8828C204.336 59.2266 204.594 58.4688 204.641 57.6094H209.961C209.93 59.25 209.445 60.7422 208.508 62.0859C207.57 63.4297 206.328 64.5 204.781 65.2969C203.234 66.0781 201.523 66.4688 199.648 66.4688C197.711 66.4688 196.023 66.1406 194.586 65.4844C193.148 64.8125 191.953 63.8906 191 62.7188C190.047 61.5469 189.328 60.1953 188.844 58.6641C188.375 57.1328 188.141 55.4922 188.141 53.7422V52.9219C188.141 51.1719 188.375 49.5312 188.844 48C189.328 46.4531 190.047 45.0938 191 43.9219C191.953 42.75 193.148 41.8359 194.586 41.1797C196.023 40.5078 197.703 40.1719 199.625 40.1719C201.656 40.1719 203.438 40.5781 204.969 41.3906C206.5 42.1875 207.703 43.3047 208.578 44.7422C209.469 46.1641 209.93 47.8203 209.961 49.7109H204.641C204.594 48.7734 204.359 47.9297 203.938 47.1797C203.531 46.4141 202.953 45.8047 202.203 45.3516C201.469 44.8984 200.586 44.6719 199.555 44.6719C198.414 44.6719 197.469 44.9062 196.719 45.375C195.969 45.8281 195.383 46.4531 194.961 47.25C194.539 48.0312 194.234 48.9141 194.047 49.8984C193.875 50.8672 193.789 51.875 193.789 52.9219V53.7422C193.789 54.7891 193.875 55.8047 194.047 56.7891C194.219 57.7734 194.516 58.6562 194.938 59.4375C195.375 60.2031 195.969 60.8203 196.719 61.2891C197.469 61.7422 198.422 61.9688 199.578 61.9688ZM231.336 40.6406V45.1406H218.961V40.6406H231.336ZM235.766 40.6406V66H230.117V40.6406H235.766ZM217.578 40.6406H223.156L222.477 53.1797C222.383 55.0391 222.195 56.6797 221.914 58.1016C221.648 59.5078 221.289 60.7188 220.836 61.7344C220.383 62.7344 219.828 63.5469 219.172 64.1719C218.516 64.7969 217.75 65.2578 216.875 65.5547C216 65.8516 215.016 66 213.922 66H212.164L212.141 61.3594L213.031 61.2891C213.609 61.2422 214.109 61.0938 214.531 60.8438C214.953 60.5781 215.312 60.2031 215.609 59.7188C215.922 59.2344 216.172 58.6094 216.359 57.8438C216.562 57.0781 216.719 56.1719 216.828 55.125C216.953 54.0781 217.047 52.8594 217.109 51.4688L217.578 40.6406ZM252.945 66.4688C251.07 66.4688 249.375 66.1641 247.859 65.5547C246.359 64.9297 245.078 64.0625 244.016 62.9531C242.969 61.8438 242.164 60.5391 241.602 59.0391C241.039 57.5391 240.758 55.9219 240.758 54.1875V53.25C240.758 51.2656 241.047 49.4688 241.625 47.8594C242.203 46.25 243.008 44.875 244.039 43.7344C245.07 42.5781 246.289 41.6953 247.695 41.0859C249.102 40.4766 250.625 40.1719 252.266 40.1719C254.078 40.1719 255.664 40.4766 257.023 41.0859C258.383 41.6953 259.508 42.5547 260.398 43.6641C261.305 44.7578 261.977 46.0625 262.414 47.5781C262.867 49.0938 263.094 50.7656 263.094 52.5938V55.0078H243.5V50.9531H257.516V50.5078C257.484 49.4922 257.281 48.5391 256.906 47.6484C256.547 46.7578 255.992 46.0391 255.242 45.4922C254.492 44.9453 253.492 44.6719 252.242 44.6719C251.305 44.6719 250.469 44.875 249.734 45.2812C249.016 45.6719 248.414 46.2422 247.93 46.9922C247.445 47.7422 247.07 48.6484 246.805 49.7109C246.555 50.7578 246.43 51.9375 246.43 53.25V54.1875C246.43 55.2969 246.578 56.3281 246.875 57.2812C247.188 58.2188 247.641 59.0391 248.234 59.7422C248.828 60.4453 249.547 61 250.391 61.4062C251.234 61.7969 252.195 61.9922 253.273 61.9922C254.633 61.9922 255.844 61.7188 256.906 61.1719C257.969 60.625 258.891 59.8516 259.672 58.8516L262.648 61.7344C262.102 62.5312 261.391 63.2969 260.516 64.0312C259.641 64.75 258.57 65.3359 257.305 65.7891C256.055 66.2422 254.602 66.4688 252.945 66.4688ZM272.094 40.6406H277.742L277.461 49.5703C277.383 52.1641 277.086 54.3906 276.57 56.25C276.055 58.1094 275.383 59.6797 274.555 60.9609C273.727 62.2266 272.789 63.2656 271.742 64.0781C270.711 64.8906 269.625 65.5312 268.484 66H266.82V61.5469L267.617 61.5C268.289 60.7812 268.867 60.0625 269.352 59.3438C269.852 58.6094 270.273 57.8047 270.617 56.9297C270.961 56.0391 271.227 55 271.414 53.8125C271.617 52.625 271.75 51.2109 271.812 49.5703L272.094 40.6406ZM273.594 40.6406H289.672V66H284.047V45.4219H273.594V40.6406ZM265.531 61.5H293.141V73.5469H287.492V66H271.25V73.5469H265.508L265.531 61.5ZM314.352 51.2344V55.6875H301.227V51.2344H314.352ZM302.867 40.6406V66H297.219V40.6406H302.867ZM318.43 40.6406V66H312.781V40.6406H318.43ZM330.289 57.75L340.25 40.6406H345.898V66H340.25V48.8672L330.289 66H324.641V40.6406H330.289V57.75ZM363.055 66.4688C361.18 66.4688 359.484 66.1641 357.969 65.5547C356.469 64.9297 355.188 64.0625 354.125 62.9531C353.078 61.8438 352.273 60.5391 351.711 59.0391C351.148 57.5391 350.867 55.9219 350.867 54.1875V53.25C350.867 51.2656 351.156 49.4688 351.734 47.8594C352.312 46.25 353.117 44.875 354.148 43.7344C355.18 42.5781 356.398 41.6953 357.805 41.0859C359.211 40.4766 360.734 40.1719 362.375 40.1719C364.188 40.1719 365.773 40.4766 367.133 41.0859C368.492 41.6953 369.617 42.5547 370.508 43.6641C371.414 44.7578 372.086 46.0625 372.523 47.5781C372.977 49.0938 373.203 50.7656 373.203 52.5938V55.0078H353.609V50.9531H367.625V50.5078C367.594 49.4922 367.391 48.5391 367.016 47.6484C366.656 46.7578 366.102 46.0391 365.352 45.4922C364.602 44.9453 363.602 44.6719 362.352 44.6719C361.414 44.6719 360.578 44.875 359.844 45.2812C359.125 45.6719 358.523 46.2422 358.039 46.9922C357.555 47.7422 357.18 48.6484 356.914 49.7109C356.664 50.7578 356.539 51.9375 356.539 53.25V54.1875C356.539 55.2969 356.688 56.3281 356.984 57.2812C357.297 58.2188 357.75 59.0391 358.344 59.7422C358.938 60.4453 359.656 61 360.5 61.4062C361.344 61.7969 362.305 61.9922 363.383 61.9922C364.742 61.9922 365.953 61.7188 367.016 61.1719C368.078 60.625 369 59.8516 369.781 58.8516L372.758 61.7344C372.211 62.5312 371.5 63.2969 370.625 64.0312C369.75 64.75 368.68 65.3359 367.414 65.7891C366.164 66.2422 364.711 66.4688 363.055 66.4688ZM395.938 56.4141L411.078 31.875H416.961V66H411.078V41.4375L395.938 66H390.078V31.875H395.938V56.4141ZM440.328 40.6406V45.1406H429.266V66H423.617V40.6406H440.328ZM449.281 45.5156V75.75H443.633V40.6406H448.836L449.281 45.5156ZM465.805 53.0859V53.5781C465.805 55.4219 465.586 57.1328 465.148 58.7109C464.727 60.2734 464.094 61.6406 463.25 62.8125C462.422 63.9688 461.398 64.8672 460.18 65.5078C458.961 66.1484 457.555 66.4688 455.961 66.4688C454.383 66.4688 453 66.1797 451.812 65.6016C450.641 65.0078 449.648 64.1719 448.836 63.0938C448.023 62.0156 447.367 60.75 446.867 59.2969C446.383 57.8281 446.039 56.2188 445.836 54.4688V52.5703C446.039 50.7109 446.383 49.0234 446.867 47.5078C447.367 45.9922 448.023 44.6875 448.836 43.5938C449.648 42.5 450.641 41.6562 451.812 41.0625C452.984 40.4688 454.352 40.1719 455.914 40.1719C457.508 40.1719 458.922 40.4844 460.156 41.1094C461.391 41.7188 462.43 42.5938 463.273 43.7344C464.117 44.8594 464.75 46.2188 465.172 47.8125C465.594 49.3906 465.805 51.1484 465.805 53.0859ZM460.156 53.5781V53.0859C460.156 51.9141 460.047 50.8281 459.828 49.8281C459.609 48.8125 459.266 47.9219 458.797 47.1562C458.328 46.3906 457.727 45.7969 456.992 45.375C456.273 44.9375 455.406 44.7188 454.391 44.7188C453.391 44.7188 452.531 44.8906 451.812 45.2344C451.094 45.5625 450.492 46.0234 450.008 46.6172C449.523 47.2109 449.148 47.9062 448.883 48.7031C448.617 49.4844 448.43 50.3359 448.32 51.2578V55.8047C448.508 56.9297 448.828 57.9609 449.281 58.8984C449.734 59.8359 450.375 60.5859 451.203 61.1484C452.047 61.6953 453.125 61.9688 454.438 61.9688C455.453 61.9688 456.32 61.75 457.039 61.3125C457.758 60.875 458.344 60.2734 458.797 59.5078C459.266 58.7266 459.609 57.8281 459.828 56.8125C460.047 55.7969 460.156 54.7188 460.156 53.5781ZM474.805 48.7031H482.281C484.469 48.7031 486.328 49.0703 487.859 49.8047C489.391 50.5391 490.555 51.5625 491.352 52.875C492.164 54.1719 492.57 55.6562 492.57 57.3281C492.57 58.5625 492.344 59.7109 491.891 60.7734C491.438 61.8203 490.766 62.7344 489.875 63.5156C489 64.2969 487.922 64.9062 486.641 65.3438C485.375 65.7812 483.922 66 482.281 66H471.055V40.6406H476.727V61.5234H482.281C483.406 61.5234 484.305 61.3281 484.977 60.9375C485.648 60.5469 486.133 60.0391 486.43 59.4141C486.742 58.7891 486.898 58.125 486.898 57.4219C486.898 56.7031 486.742 56.0234 486.43 55.3828C486.133 54.7422 485.648 54.2188 484.977 53.8125C484.305 53.4062 483.406 53.2031 482.281 53.2031H474.805V48.7031ZM502.555 40.6406V66H496.906V40.6406H502.555Z" fill="#A1A1A1"/>
</svg>
