<svg width="2260" height="156" viewBox="0 0 2260 156" fill="none" xmlns="http://www.w3.org/2000/svg">
<path d="M0 50C0 22.3858 22.3858 0 50 0H2210C2237.61 0 2260 22.3858 2260 50V156H0V50Z" fill="#131313"/>
<path d="M203.922 88.6211L226.633 51.8125H235.457V103H226.633V66.1562L203.922 103H195.133V51.8125H203.922V88.6211ZM270.508 64.9609V71.7109H253.914V103H245.441V64.9609H270.508ZM283.938 72.2734V117.625H275.465V64.9609H283.27L283.938 72.2734ZM308.723 83.6289V84.3672C308.723 87.1328 308.395 89.6992 307.738 92.0664C307.105 94.4102 306.156 96.4609 304.891 98.2188C303.648 99.9531 302.113 101.301 300.285 102.262C298.457 103.223 296.348 103.703 293.957 103.703C291.59 103.703 289.516 103.27 287.734 102.402C285.977 101.512 284.488 100.258 283.27 98.6406C282.051 97.0234 281.066 95.125 280.316 92.9453C279.59 90.7422 279.074 88.3281 278.77 85.7031V82.8555C279.074 80.0664 279.59 77.5352 280.316 75.2617C281.066 72.9883 282.051 71.0312 283.27 69.3906C284.488 67.75 285.977 66.4844 287.734 65.5938C289.492 64.7031 291.543 64.2578 293.887 64.2578C296.277 64.2578 298.398 64.7266 300.25 65.6641C302.102 66.5781 303.66 67.8906 304.926 69.6016C306.191 71.2891 307.141 73.3281 307.773 75.7188C308.406 78.0859 308.723 80.7227 308.723 83.6289ZM300.25 84.3672V83.6289C300.25 81.8711 300.086 80.2422 299.758 78.7422C299.43 77.2188 298.914 75.8828 298.211 74.7344C297.508 73.5859 296.605 72.6953 295.504 72.0625C294.426 71.4062 293.125 71.0781 291.602 71.0781C290.102 71.0781 288.812 71.3359 287.734 71.8516C286.656 72.3438 285.754 73.0352 285.027 73.9258C284.301 74.8164 283.738 75.8594 283.34 77.0547C282.941 78.2266 282.66 79.5039 282.496 80.8867V87.707C282.777 89.3945 283.258 90.9414 283.938 92.3477C284.617 93.7539 285.578 94.8789 286.82 95.7227C288.086 96.543 289.703 96.9531 291.672 96.9531C293.195 96.9531 294.496 96.625 295.574 95.9688C296.652 95.3125 297.531 94.4102 298.211 93.2617C298.914 92.0898 299.43 90.7422 299.758 89.2188C300.086 87.6953 300.25 86.0781 300.25 84.3672ZM337.375 95.3711V77.2305C337.375 75.8711 337.129 74.6992 336.637 73.7148C336.145 72.7305 335.395 71.9688 334.387 71.4297C333.402 70.8906 332.16 70.6211 330.66 70.6211C329.277 70.6211 328.082 70.8555 327.074 71.3242C326.066 71.793 325.281 72.4258 324.719 73.2227C324.156 74.0195 323.875 74.9219 323.875 75.9297H315.438C315.438 74.4297 315.801 72.9766 316.527 71.5703C317.254 70.1641 318.309 68.9102 319.691 67.8086C321.074 66.707 322.727 65.8398 324.648 65.207C326.57 64.5742 328.727 64.2578 331.117 64.2578C333.977 64.2578 336.508 64.7383 338.711 65.6992C340.938 66.6602 342.684 68.1133 343.949 70.0586C345.238 71.9805 345.883 74.3945 345.883 77.3008V94.2109C345.883 95.9453 346 97.5039 346.234 98.8867C346.492 100.246 346.855 101.43 347.324 102.438V103H338.641C338.242 102.086 337.926 100.926 337.691 99.5195C337.48 98.0898 337.375 96.707 337.375 95.3711ZM338.605 79.8672L338.676 85.1055H332.594C331.023 85.1055 329.641 85.2578 328.445 85.5625C327.25 85.8438 326.254 86.2656 325.457 86.8281C324.66 87.3906 324.062 88.0703 323.664 88.8672C323.266 89.6641 323.066 90.5664 323.066 91.5742C323.066 92.582 323.301 93.5078 323.77 94.3516C324.238 95.1719 324.918 95.8164 325.809 96.2852C326.723 96.7539 327.824 96.9883 329.113 96.9883C330.848 96.9883 332.359 96.6367 333.648 95.9336C334.961 95.207 335.992 94.3281 336.742 93.2969C337.492 92.2422 337.891 91.2461 337.938 90.3086L340.68 94.0703C340.398 95.0312 339.918 96.0625 339.238 97.1641C338.559 98.2656 337.668 99.3203 336.566 100.328C335.488 101.312 334.188 102.121 332.664 102.754C331.164 103.387 329.43 103.703 327.461 103.703C324.977 103.703 322.762 103.211 320.816 102.227C318.871 101.219 317.348 99.8711 316.246 98.1836C315.145 96.4727 314.594 94.5391 314.594 92.3828C314.594 90.3672 314.969 88.5859 315.719 87.0391C316.492 85.4688 317.617 84.1562 319.094 83.1016C320.594 82.0469 322.422 81.25 324.578 80.7109C326.734 80.1484 329.195 79.8672 331.961 79.8672H338.605Z" fill="#A1A1A1"/>
<path d="M772.484 51.8125V103H763.66V51.8125H772.484ZM783.172 74.8398V81.5898H770.023V74.8398H783.172ZM821.422 76V78.8125C821.422 82.6797 820.918 86.1484 819.91 89.2188C818.902 92.2891 817.461 94.9023 815.586 97.0586C813.711 99.2148 811.473 100.867 808.871 102.016C806.293 103.141 803.41 103.703 800.223 103.703C797.105 103.703 794.246 103.141 791.645 102.016C789.043 100.867 786.793 99.2148 784.895 97.0586C782.996 94.9023 781.531 92.2891 780.5 89.2188C779.469 86.1484 778.953 82.6797 778.953 78.8125V76C778.953 72.1328 779.469 68.6758 780.5 65.6289C781.531 62.5586 782.984 59.9453 784.859 57.7891C786.734 55.6094 788.973 53.957 791.574 52.832C794.176 51.6836 797.035 51.1094 800.152 51.1094C803.34 51.1094 806.234 51.6836 808.836 52.832C811.438 53.957 813.676 55.6094 815.551 57.7891C817.426 59.9453 818.867 62.5586 819.875 65.6289C820.906 68.6758 821.422 72.1328 821.422 76ZM812.598 78.8125V75.9297C812.598 73.0703 812.316 70.5508 811.754 68.3711C811.191 66.168 810.383 64.3281 809.328 62.8516C808.273 61.3516 806.973 60.2266 805.426 59.4766C803.879 58.7031 802.121 58.3164 800.152 58.3164C798.23 58.3164 796.508 58.7031 794.984 59.4766C793.461 60.2266 792.16 61.3516 791.082 62.8516C790.027 64.3281 789.219 66.168 788.656 68.3711C788.094 70.5508 787.812 73.0703 787.812 75.9297V78.8125C787.812 81.6719 788.094 84.2031 788.656 86.4062C789.219 88.6094 790.039 90.4727 791.117 91.9961C792.219 93.4961 793.531 94.6328 795.055 95.4062C796.578 96.1562 798.301 96.5312 800.223 96.5312C802.215 96.5312 803.973 96.1562 805.496 95.4062C807.02 94.6328 808.309 93.4961 809.363 91.9961C810.418 90.4727 811.215 88.6094 811.754 86.4062C812.316 84.2031 812.598 81.6719 812.598 78.8125ZM844.555 84.8242H837.242V80.5352H843.148C844.648 80.5352 845.844 80.3359 846.734 79.9375C847.648 79.5391 848.293 78.9883 848.668 78.2852C849.066 77.5586 849.266 76.7148 849.266 75.7539C849.266 74.9102 849.066 74.1133 848.668 73.3633C848.293 72.5898 847.648 71.957 846.734 71.4648C845.82 70.9727 844.578 70.7266 843.008 70.7266C841.719 70.7266 840.559 70.9375 839.527 71.3594C838.52 71.7812 837.723 72.3672 837.137 73.1172C836.551 73.8672 836.258 74.7344 836.258 75.7188H827.785C827.785 73.3516 828.453 71.3125 829.789 69.6016C831.148 67.8906 832.965 66.5781 835.238 65.6641C837.512 64.75 840.008 64.293 842.727 64.293C845.047 64.293 847.133 64.5391 848.984 65.0312C850.836 65.5 852.406 66.2031 853.695 67.1406C855.008 68.0547 856.004 69.2031 856.684 70.5859C857.387 71.9453 857.738 73.5273 857.738 75.332C857.738 76.6211 857.434 77.8398 856.824 78.9883C856.215 80.1367 855.336 81.1562 854.188 82.0469C853.039 82.9141 851.645 83.5938 850.004 84.0859C848.387 84.5781 846.57 84.8242 844.555 84.8242ZM837.242 82.3633H844.555C846.805 82.3633 848.797 82.5859 850.531 83.0312C852.266 83.4531 853.719 84.0859 854.891 84.9297C856.062 85.7734 856.941 86.8164 857.527 88.0586C858.137 89.2773 858.441 90.6836 858.441 92.2773C858.441 94.0586 858.055 95.6641 857.281 97.0938C856.531 98.5 855.453 99.6953 854.047 100.68C852.664 101.664 851.012 102.414 849.09 102.93C847.168 103.445 845.047 103.703 842.727 103.703C840.195 103.703 837.734 103.281 835.344 102.438C832.977 101.594 831.02 100.293 829.473 98.5352C827.949 96.7539 827.188 94.4922 827.188 91.75H835.66C835.66 92.7109 835.953 93.6133 836.539 94.457C837.125 95.3008 837.969 95.9922 839.07 96.5312C840.172 97.0469 841.496 97.3047 843.043 97.3047C844.637 97.3047 845.938 97.0586 846.945 96.5664C847.953 96.0508 848.703 95.3828 849.195 94.5625C849.688 93.7188 849.934 92.8281 849.934 91.8906C849.934 90.625 849.688 89.6055 849.195 88.832C848.703 88.0586 847.953 87.4961 846.945 87.1445C845.938 86.7695 844.672 86.582 843.148 86.582H837.242V82.3633ZM882.418 103.703C879.605 103.703 877.062 103.246 874.789 102.332C872.539 101.395 870.617 100.094 869.023 98.4297C867.453 96.7656 866.246 94.8086 865.402 92.5586C864.559 90.3086 864.137 87.8828 864.137 85.2812V83.875C864.137 80.8984 864.57 78.2031 865.438 75.7891C866.305 73.375 867.512 71.3125 869.059 69.6016C870.605 67.8672 872.434 66.543 874.543 65.6289C876.652 64.7148 878.938 64.2578 881.398 64.2578C884.117 64.2578 886.496 64.7148 888.535 65.6289C890.574 66.543 892.262 67.832 893.598 69.4961C894.957 71.1367 895.965 73.0938 896.621 75.3672C897.301 77.6406 897.641 80.1484 897.641 82.8906V86.5117H868.25V80.4297H889.273V79.7617C889.227 78.2383 888.922 76.8086 888.359 75.4727C887.82 74.1367 886.988 73.0586 885.863 72.2383C884.738 71.418 883.238 71.0078 881.363 71.0078C879.957 71.0078 878.703 71.3125 877.602 71.9219C876.523 72.5078 875.621 73.3633 874.895 74.4883C874.168 75.6133 873.605 76.9727 873.207 78.5664C872.832 80.1367 872.645 81.9062 872.645 83.875V85.2812C872.645 86.9453 872.867 88.4922 873.312 89.9219C873.781 91.3281 874.461 92.5586 875.352 93.6133C876.242 94.668 877.32 95.5 878.586 96.1094C879.852 96.6953 881.293 96.9883 882.91 96.9883C884.949 96.9883 886.766 96.5781 888.359 95.7578C889.953 94.9375 891.336 93.7773 892.508 92.2773L896.973 96.6016C896.152 97.7969 895.086 98.9453 893.773 100.047C892.461 101.125 890.855 102.004 888.957 102.684C887.082 103.363 884.902 103.703 882.418 103.703ZM912.758 72.2734V117.625H904.285V64.9609H912.09L912.758 72.2734ZM937.543 83.6289V84.3672C937.543 87.1328 937.215 89.6992 936.559 92.0664C935.926 94.4102 934.977 96.4609 933.711 98.2188C932.469 99.9531 930.934 101.301 929.105 102.262C927.277 103.223 925.168 103.703 922.777 103.703C920.41 103.703 918.336 103.27 916.555 102.402C914.797 101.512 913.309 100.258 912.09 98.6406C910.871 97.0234 909.887 95.125 909.137 92.9453C908.41 90.7422 907.895 88.3281 907.59 85.7031V82.8555C907.895 80.0664 908.41 77.5352 909.137 75.2617C909.887 72.9883 910.871 71.0312 912.09 69.3906C913.309 67.75 914.797 66.4844 916.555 65.5938C918.312 64.7031 920.363 64.2578 922.707 64.2578C925.098 64.2578 927.219 64.7266 929.07 65.6641C930.922 66.5781 932.48 67.8906 933.746 69.6016C935.012 71.2891 935.961 73.3281 936.594 75.7188C937.227 78.0859 937.543 80.7227 937.543 83.6289ZM929.07 84.3672V83.6289C929.07 81.8711 928.906 80.2422 928.578 78.7422C928.25 77.2188 927.734 75.8828 927.031 74.7344C926.328 73.5859 925.426 72.6953 924.324 72.0625C923.246 71.4062 921.945 71.0781 920.422 71.0781C918.922 71.0781 917.633 71.3359 916.555 71.8516C915.477 72.3438 914.574 73.0352 913.848 73.9258C913.121 74.8164 912.559 75.8594 912.16 77.0547C911.762 78.2266 911.48 79.5039 911.316 80.8867V87.707C911.598 89.3945 912.078 90.9414 912.758 92.3477C913.438 93.7539 914.398 94.8789 915.641 95.7227C916.906 96.543 918.523 96.9531 920.492 96.9531C922.016 96.9531 923.316 96.625 924.395 95.9688C925.473 95.3125 926.352 94.4102 927.031 93.2617C927.734 92.0898 928.25 90.7422 928.578 89.2188C928.906 87.6953 929.07 86.0781 929.07 84.3672ZM970.73 80.8516V87.5312H951.043V80.8516H970.73ZM953.504 64.9609V103H945.031V64.9609H953.504ZM976.848 64.9609V103H968.375V64.9609H976.848ZM1002.65 103.703C999.84 103.703 997.297 103.246 995.023 102.332C992.773 101.395 990.852 100.094 989.258 98.4297C987.688 96.7656 986.48 94.8086 985.637 92.5586C984.793 90.3086 984.371 87.8828 984.371 85.2812V83.875C984.371 80.8984 984.805 78.2031 985.672 75.7891C986.539 73.375 987.746 71.3125 989.293 69.6016C990.84 67.8672 992.668 66.543 994.777 65.6289C996.887 64.7148 999.172 64.2578 1001.63 64.2578C1004.35 64.2578 1006.73 64.7148 1008.77 65.6289C1010.81 66.543 1012.5 67.832 1013.83 69.4961C1015.19 71.1367 1016.2 73.0938 1016.86 75.3672C1017.54 77.6406 1017.88 80.1484 1017.88 82.8906V86.5117H988.484V80.4297H1009.51V79.7617C1009.46 78.2383 1009.16 76.8086 1008.59 75.4727C1008.05 74.1367 1007.22 73.0586 1006.1 72.2383C1004.97 71.418 1003.47 71.0078 1001.6 71.0078C1000.19 71.0078 998.938 71.3125 997.836 71.9219C996.758 72.5078 995.855 73.3633 995.129 74.4883C994.402 75.6133 993.84 76.9727 993.441 78.5664C993.066 80.1367 992.879 81.9062 992.879 83.875V85.2812C992.879 86.9453 993.102 88.4922 993.547 89.9219C994.016 91.3281 994.695 92.5586 995.586 93.6133C996.477 94.668 997.555 95.5 998.82 96.1094C1000.09 96.6953 1001.53 96.9883 1003.14 96.9883C1005.18 96.9883 1007 96.5781 1008.59 95.7578C1010.19 94.9375 1011.57 93.7773 1012.74 92.2773L1017.21 96.6016C1016.39 97.7969 1015.32 98.9453 1014.01 100.047C1012.7 101.125 1011.09 102.004 1009.19 102.684C1007.32 103.363 1005.14 103.703 1002.65 103.703ZM1033.24 90.625L1048.18 64.9609H1056.65V103H1048.18V77.3008L1033.24 103H1024.77V64.9609H1033.24V90.625ZM1045.93 50.3359H1052.22C1052.22 52.2812 1051.75 54.0039 1050.82 55.5039C1049.9 56.9805 1048.59 58.1406 1046.88 58.9844C1045.19 59.8281 1043.18 60.25 1040.83 60.25C1037.29 60.25 1034.49 59.3359 1032.43 57.5078C1030.39 55.6562 1029.37 53.2656 1029.37 50.3359H1035.66C1035.66 51.6484 1036.05 52.8086 1036.82 53.8164C1037.62 54.8008 1038.96 55.293 1040.83 55.293C1042.68 55.293 1044 54.8008 1044.77 53.8164C1045.54 52.8086 1045.93 51.6484 1045.93 50.3359ZM1088.22 92.7344L1099.54 64.9609H1106.89L1091.11 103H1085.34L1069.59 64.9609H1076.94L1088.22 92.7344ZM1074.76 64.9609V103H1066.29V64.9609H1074.76ZM1101.69 103V64.9609H1110.2V103H1101.69Z" fill="#A1A1A1"/>
<path d="M1724.4 79.8672H1711.36L1711.29 73.4336H1722.68C1724.6 73.4336 1726.23 73.1523 1727.56 72.5898C1728.92 72.0039 1729.95 71.1719 1730.66 70.0938C1731.36 68.9922 1731.71 67.668 1731.71 66.1211C1731.71 64.4102 1731.38 63.0156 1730.73 61.9375C1730.07 60.8594 1729.06 60.0742 1727.7 59.582C1726.37 59.0898 1724.66 58.8438 1722.57 58.8438H1714.03V103H1705.2V51.8125H1722.57C1725.38 51.8125 1727.89 52.082 1730.09 52.6211C1732.32 53.1602 1734.21 54.0039 1735.75 55.1523C1737.32 56.2773 1738.51 57.707 1739.3 59.4414C1740.12 61.1758 1740.54 63.2383 1740.54 65.6289C1740.54 67.7383 1740.03 69.6719 1739.02 71.4297C1738.02 73.1641 1736.53 74.582 1734.56 75.6836C1732.59 76.7852 1730.14 77.4414 1727.21 77.6523L1724.4 79.8672ZM1724.01 103H1708.58L1712.55 96.0039H1724.01C1726 96.0039 1727.67 95.6758 1729 95.0195C1730.34 94.3398 1731.34 93.4141 1731.99 92.2422C1732.67 91.0469 1733.01 89.6523 1733.01 88.0586C1733.01 86.3945 1732.72 84.9531 1732.13 83.7344C1731.55 82.4922 1730.62 81.543 1729.36 80.8867C1728.09 80.207 1726.44 79.8672 1724.4 79.8672H1714.48L1714.55 73.4336H1727.46L1729.46 75.8594C1732.27 75.9531 1734.58 76.5742 1736.39 77.7227C1738.21 78.8711 1739.57 80.3594 1740.46 82.1875C1741.36 84.0156 1741.8 85.9844 1741.8 88.0938C1741.8 91.3516 1741.09 94.082 1739.66 96.2852C1738.25 98.4883 1736.22 100.164 1733.57 101.312C1730.93 102.438 1727.74 103 1724.01 103ZM1756.14 77.0547H1767.36C1770.64 77.0547 1773.43 77.6055 1775.73 78.707C1778.02 79.8086 1779.77 81.3438 1780.96 83.3125C1782.18 85.2578 1782.79 87.4844 1782.79 89.9922C1782.79 91.8438 1782.45 93.5664 1781.77 95.1602C1781.09 96.7305 1780.09 98.1016 1778.75 99.2734C1777.44 100.445 1775.82 101.359 1773.9 102.016C1772 102.672 1769.82 103 1767.36 103H1750.52V64.9609H1759.03V96.2852H1767.36C1769.05 96.2852 1770.39 95.9922 1771.4 95.4062C1772.41 94.8203 1773.14 94.0586 1773.58 93.1211C1774.05 92.1836 1774.29 91.1875 1774.29 90.1328C1774.29 89.0547 1774.05 88.0352 1773.58 87.0742C1773.14 86.1133 1772.41 85.3281 1771.4 84.7188C1770.39 84.1094 1769.05 83.8047 1767.36 83.8047H1756.14V77.0547ZM1797.77 64.9609V103H1789.3V64.9609H1797.77ZM1816.54 90.625L1831.48 64.9609H1839.96V103H1831.48V77.3008L1816.54 103H1808.07V64.9609H1816.54V90.625ZM1874.23 64.9609V71.7109H1857.64V103H1849.17V64.9609H1874.23ZM1887.66 72.2734V117.625H1879.19V64.9609H1887L1887.66 72.2734ZM1912.45 83.6289V84.3672C1912.45 87.1328 1912.12 89.6992 1911.46 92.0664C1910.83 94.4102 1909.88 96.4609 1908.62 98.2188C1907.38 99.9531 1905.84 101.301 1904.01 102.262C1902.18 103.223 1900.07 103.703 1897.68 103.703C1895.32 103.703 1893.24 103.27 1891.46 102.402C1889.7 101.512 1888.21 100.258 1887 98.6406C1885.78 97.0234 1884.79 95.125 1884.04 92.9453C1883.32 90.7422 1882.8 88.3281 1882.5 85.7031V82.8555C1882.8 80.0664 1883.32 77.5352 1884.04 75.2617C1884.79 72.9883 1885.78 71.0312 1887 69.3906C1888.21 67.75 1889.7 66.4844 1891.46 65.5938C1893.22 64.7031 1895.27 64.2578 1897.61 64.2578C1900 64.2578 1902.12 64.7266 1903.98 65.6641C1905.83 66.5781 1907.39 67.8906 1908.65 69.6016C1909.92 71.2891 1910.87 73.3281 1911.5 75.7188C1912.13 78.0859 1912.45 80.7227 1912.45 83.6289ZM1903.98 84.3672V83.6289C1903.98 81.8711 1903.81 80.2422 1903.48 78.7422C1903.16 77.2188 1902.64 75.8828 1901.94 74.7344C1901.23 73.5859 1900.33 72.6953 1899.23 72.0625C1898.15 71.4062 1896.85 71.0781 1895.33 71.0781C1893.83 71.0781 1892.54 71.3359 1891.46 71.8516C1890.38 72.3438 1889.48 73.0352 1888.75 73.9258C1888.03 74.8164 1887.46 75.8594 1887.07 77.0547C1886.67 78.2266 1886.39 79.5039 1886.22 80.8867V87.707C1886.5 89.3945 1886.98 90.9414 1887.66 92.3477C1888.34 93.7539 1889.3 94.8789 1890.55 95.7227C1891.81 96.543 1893.43 96.9531 1895.4 96.9531C1896.92 96.9531 1898.22 96.625 1899.3 95.9688C1900.38 95.3125 1901.26 94.4102 1901.94 93.2617C1902.64 92.0898 1903.16 90.7422 1903.48 89.2188C1903.81 87.6953 1903.98 86.0781 1903.98 84.3672ZM1925.95 77.0547H1937.16C1940.45 77.0547 1943.23 77.6055 1945.53 78.707C1947.83 79.8086 1949.57 81.3438 1950.77 83.3125C1951.99 85.2578 1952.6 87.4844 1952.6 89.9922C1952.6 91.8438 1952.26 93.5664 1951.58 95.1602C1950.9 96.7305 1949.89 98.1016 1948.55 99.2734C1947.24 100.445 1945.62 101.359 1943.7 102.016C1941.8 102.672 1939.62 103 1937.16 103H1920.32V64.9609H1928.83V96.2852H1937.16C1938.85 96.2852 1940.2 95.9922 1941.21 95.4062C1942.21 94.8203 1942.94 94.0586 1943.39 93.1211C1943.86 92.1836 1944.09 91.1875 1944.09 90.1328C1944.09 89.0547 1943.86 88.0352 1943.39 87.0742C1942.94 86.1133 1942.21 85.3281 1941.21 84.7188C1940.2 84.1094 1938.85 83.8047 1937.16 83.8047H1925.95V77.0547ZM1967.57 64.9609V103H1959.1V64.9609H1967.57ZM1977.88 64.9609H1986.35V96.25H1998.41V64.9609H2006.95V96.25H2018.97V64.9609H2027.45V103H1977.88V64.9609Z" fill="#A1A1A1"/>
</svg>
