<svg width="50" height="44" viewBox="0 0 50 44" fill="none" xmlns="http://www.w3.org/2000/svg">
<path d="M37.5995 0C38.4191 0.000264784 39.2241 0.217506 39.933 0.629713C40.6418 1.04192 41.2292 1.63445 41.6358 2.34726L49.3875 15.9278C49.8934 16.8147 50.0942 17.8436 49.9589 18.8559C49.8236 19.8683 49.3598 20.8081 48.6388 21.5305L27.0554 43.1472C26.7855 43.4176 26.465 43.632 26.1124 43.7784C25.7597 43.9247 25.3817 44 25 44C24.6183 44 24.2403 43.9247 23.8876 43.7784C23.535 43.632 23.2145 43.4176 22.9447 43.1472L1.36117 21.5305C0.640216 20.8081 0.176381 19.8683 0.0410994 18.8559C-0.094182 17.8436 0.106593 16.8147 0.612505 15.9278L8.36191 2.34493C8.76856 1.63289 9.35576 1.04106 10.0641 0.62929C10.7725 0.217524 11.5769 0.000440332 12.3959 0H37.5995ZM31.9728 6.98589H18.0225C17.4299 6.98655 16.8599 7.21381 16.429 7.62125C15.9981 8.02869 15.7388 8.58555 15.704 9.17805C15.6693 9.77055 15.8618 10.354 16.2421 10.8091C16.6225 11.2642 17.162 11.5567 17.7505 11.6268L18.0225 11.6431H22.6726V15.2409C20.9102 15.4039 19.3083 15.7462 18.0132 16.2329C17.0948 16.5775 16.2717 17.0153 15.6579 17.5625C15.0441 18.1098 14.5349 18.8596 14.5349 19.7934C14.5349 20.7271 15.0441 21.4793 15.6579 22.0242C16.2717 22.5714 17.0948 23.0092 18.0132 23.3515C19.3943 23.8708 21.1241 24.2294 23.0284 24.3761C22.8447 24.6697 22.7287 25.0006 22.6889 25.3448L22.6726 25.6149V30.2722C22.6733 30.8657 22.9002 31.4366 23.307 31.8682C23.7138 32.2997 24.2698 32.5594 24.8614 32.5942C25.453 32.629 26.0355 32.4362 26.49 32.0553C26.9444 31.6744 27.2365 31.134 27.3065 30.5446L27.3227 30.2722V25.6149C27.3229 25.1767 27.1996 24.7473 26.967 24.3761C28.8712 24.2294 30.6011 23.8731 31.9821 23.3515C32.9005 23.0092 33.7236 22.5714 34.3374 22.0242C34.9512 21.477 35.4604 20.7271 35.4604 19.7934C35.4604 18.8596 34.9512 18.1074 34.3374 17.5625C33.7236 17.0153 32.9005 16.5775 31.9821 16.2352C30.7173 15.7809 29.4042 15.4746 28.0691 15.3224L27.3227 15.2409V11.6431H31.9728C32.5654 11.6425 33.1354 11.4152 33.5664 11.0078C33.9973 10.6003 34.2566 10.0435 34.2913 9.45099C34.326 8.85849 34.1336 8.27507 33.7532 7.81993C33.3729 7.36479 32.8333 7.07229 32.2449 7.00219L31.9728 6.98589ZM27.3204 17.5812C28.6318 17.6968 29.9237 17.9761 31.166 18.4125C31.931 18.7012 32.4681 19.0156 32.7936 19.3043C32.9349 19.4132 33.0468 19.5557 33.1191 19.7188L33.1354 19.7934L33.1191 19.8679C33.0468 20.031 32.9349 20.1735 32.7936 20.2824C32.4681 20.5711 31.931 20.8878 31.166 21.1719C29.6431 21.7447 27.4622 22.122 24.9977 22.122C22.5331 22.122 20.3522 21.7447 18.8293 21.1719C18.0644 20.8855 17.5273 20.5711 17.1994 20.2824C17.0581 20.1735 16.9463 20.031 16.8739 19.8679L16.86 19.7934C16.86 19.7631 16.8716 19.5954 17.1994 19.3043C17.5273 19.0133 18.0644 18.6989 18.8293 18.4148C19.8523 18.0306 21.1706 17.7325 22.6749 17.5812C22.7017 18.1801 22.9581 18.7457 23.3908 19.16C23.8235 19.5744 24.399 19.8057 24.9977 19.8057C25.5963 19.8057 26.1719 19.5744 26.6046 19.16C27.0372 18.7457 27.2936 18.1801 27.3204 17.5812Z" fill="#696969"/>
</svg>
