<svg width="66" height="66" viewBox="0 0 66 66" fill="none" xmlns="http://www.w3.org/2000/svg">
<rect width="66" height="66" rx="20" fill="#7666C4"/>
<path d="M33 11C45.1506 11 55 20.8494 55 33C55 45.1506 45.1506 55 33 55C20.8494 55 11 45.1506 11 33C11 20.8494 20.8494 11 33 11ZM33 19.8C32.4165 19.8 31.8569 20.0318 31.4444 20.4444C31.0318 20.8569 30.8 21.4165 30.8 22V33C30.8001 33.5834 31.032 34.1429 31.4446 34.5554L38.0446 41.1554C38.4595 41.5561 39.0152 41.7779 39.5921 41.7729C40.1689 41.7679 40.7207 41.5365 41.1286 41.1286C41.5365 40.7207 41.7679 40.1689 41.7729 39.5921C41.7779 39.0152 41.5561 38.4595 41.1554 38.0446L35.2 32.0892V22C35.2 21.4165 34.9682 20.8569 34.5556 20.4444C34.1431 20.0318 33.5835 19.8 33 19.8Z" fill="white"/>
</svg>
