<svg width="66" height="66" viewBox="0 0 66 66" fill="none" xmlns="http://www.w3.org/2000/svg">
<rect width="66" height="66" rx="20" fill="#7666C4"/>
<path d="M54.9692 26.7441L54.9516 26.5446C54.7565 23.6868 53.5188 21.0109 51.4872 19.0548C49.4556 17.0987 46.7807 16.0074 44 16.0001H22.0001C19.1805 15.987 16.4649 17.0967 14.4205 19.0974C12.3761 21.0982 11.1609 23.8353 11.0287 26.7373C11.0082 26.9141 10.9987 27.1052 11.0001 27.3107V42.0667C11.0001 44.1634 11.8207 46.2101 13.2485 47.6789C14.6974 49.1633 16.6569 49.9976 18.7001 50C22.6601 50 24.2089 47.7333 26.4001 43.2C26.7213 42.5382 28.5825 38.6667 33.0001 38.6667C37.3913 38.6667 39.2767 42.5359 39.6001 43.2C41.8088 47.7333 43.34 50 47.3 50C49.335 50 51.3216 49.1545 52.7472 47.6835C54.1879 46.1907 54.9977 44.1718 55 42.0667V27.3334C55 27.1203 54.9897 26.9239 54.9692 26.7441ZM22.0001 31.937C21.4142 31.9506 20.8315 31.8436 20.2863 31.622C19.741 31.4004 19.2443 31.0689 18.8251 30.6468C18.406 30.2247 18.0729 29.7206 17.8455 29.1641C17.618 28.6076 17.5008 28.0098 17.5007 27.406C17.5005 26.8021 17.6175 26.2043 17.8446 25.6477C18.0718 25.091 18.4046 24.5867 18.8236 24.1645C19.2425 23.7422 19.7391 23.4103 20.2842 23.1885C20.8293 22.9667 21.412 22.8593 21.9979 22.8726C23.1475 22.8988 24.2415 23.3877 25.0457 24.2345C25.8499 25.0814 26.3003 26.2189 26.3006 27.4037C26.3009 28.5885 25.851 29.7263 25.0473 30.5735C24.2435 31.4208 23.1497 31.9102 22.0001 31.937ZM44 20.6037C44.5835 20.6037 45.1431 20.8425 45.5557 21.2676C45.9682 21.6927 46.2 22.2692 46.2 22.8704C46.2 23.4715 45.9682 24.048 45.5557 24.4731C45.1431 24.8982 44.5835 25.137 44 25.137C43.4166 25.137 42.857 24.8982 42.4444 24.4731C42.0318 24.048 41.8 23.4715 41.8 22.8704C41.8 22.2692 42.0318 21.6927 42.4444 21.2676C42.857 20.8425 43.4166 20.6037 44 20.6037ZM39.6001 29.6703C39.0166 29.6703 38.457 29.4315 38.0444 29.0064C37.6318 28.5814 37.4001 28.0048 37.4001 27.4037C37.4001 26.8025 37.6318 26.226 38.0444 25.8009C38.457 25.3758 39.0166 25.137 39.6001 25.137C40.1835 25.137 40.7431 25.3758 41.1557 25.8009C41.5683 26.226 41.8 26.8025 41.8 27.4037C41.8 28.0048 41.5683 28.5814 41.1557 29.0064C40.7431 29.4315 40.1835 29.6703 39.6001 29.6703ZM44 34.2037C43.4166 34.2037 42.857 33.9648 42.4444 33.5398C42.0318 33.1147 41.8 32.5382 41.8 31.937C41.8 31.3358 42.0318 30.7593 42.4444 30.3342C42.857 29.9091 43.4166 29.6703 44 29.6703C44.5835 29.6703 45.1431 29.9091 45.5557 30.3342C45.9682 30.7593 46.2 31.3358 46.2 31.937C46.2 32.5382 45.9682 33.1147 45.5557 33.5398C45.1431 33.9648 44.5835 34.2037 44 34.2037ZM48.4 29.6703C47.8165 29.6703 47.257 29.4315 46.8444 29.0064C46.4318 28.5814 46.2 28.0048 46.2 27.4037C46.2 26.8025 46.4318 26.226 46.8444 25.8009C47.257 25.3758 47.8165 25.137 48.4 25.137C48.9835 25.137 49.5431 25.3758 49.9557 25.8009C50.3682 26.226 50.6 26.8025 50.6 27.4037C50.6 28.0048 50.3682 28.5814 49.9557 29.0064C49.5431 29.4315 48.9835 29.6703 48.4 29.6703Z" fill="#F0F0F0"/>
</svg>
