<svg width="1130" height="100" viewBox="0 0 1130 100" fill="none" xmlns="http://www.w3.org/2000/svg">
<rect width="1130" height="100" rx="25" fill="#212121"/>
<rect x="25" y="18" width="65" height="65" rx="32.5" fill="#7666C4"/>
<path d="M151.016 46.125V50.7891H132.898V46.125H151.016ZM134.352 31.875V66H128.469V31.875H134.352ZM155.539 31.875V66H149.68V31.875H155.539ZM176.281 60.9141V48.8203C176.281 47.9141 176.117 47.1328 175.789 46.4766C175.461 45.8203 174.961 45.3125 174.289 44.9531C173.633 44.5938 172.805 44.4141 171.805 44.4141C170.883 44.4141 170.086 44.5703 169.414 44.8828C168.742 45.1953 168.219 45.6172 167.844 46.1484C167.469 46.6797 167.281 47.2812 167.281 47.9531H161.656C161.656 46.9531 161.898 45.9844 162.383 45.0469C162.867 44.1094 163.57 43.2734 164.492 42.5391C165.414 41.8047 166.516 41.2266 167.797 40.8047C169.078 40.3828 170.516 40.1719 172.109 40.1719C174.016 40.1719 175.703 40.4922 177.172 41.1328C178.656 41.7734 179.82 42.7422 180.664 44.0391C181.523 45.3203 181.953 46.9297 181.953 48.8672V60.1406C181.953 61.2969 182.031 62.3359 182.188 63.2578C182.359 64.1641 182.602 64.9531 182.914 65.625V66H177.125C176.859 65.3906 176.648 64.6172 176.492 63.6797C176.352 62.7266 176.281 61.8047 176.281 60.9141ZM177.102 50.5781L177.148 54.0703H173.094C172.047 54.0703 171.125 54.1719 170.328 54.375C169.531 54.5625 168.867 54.8438 168.336 55.2188C167.805 55.5938 167.406 56.0469 167.141 56.5781C166.875 57.1094 166.742 57.7109 166.742 58.3828C166.742 59.0547 166.898 59.6719 167.211 60.2344C167.523 60.7812 167.977 61.2109 168.57 61.5234C169.18 61.8359 169.914 61.9922 170.773 61.9922C171.93 61.9922 172.938 61.7578 173.797 61.2891C174.672 60.8047 175.359 60.2188 175.859 59.5312C176.359 58.8281 176.625 58.1641 176.656 57.5391L178.484 60.0469C178.297 60.6875 177.977 61.375 177.523 62.1094C177.07 62.8438 176.477 63.5469 175.742 64.2188C175.023 64.875 174.156 65.4141 173.141 65.8359C172.141 66.2578 170.984 66.4688 169.672 66.4688C168.016 66.4688 166.539 66.1406 165.242 65.4844C163.945 64.8125 162.93 63.9141 162.195 62.7891C161.461 61.6484 161.094 60.3594 161.094 58.9219C161.094 57.5781 161.344 56.3906 161.844 55.3594C162.359 54.3125 163.109 53.4375 164.094 52.7344C165.094 52.0312 166.312 51.5 167.75 51.1406C169.188 50.7656 170.828 50.5781 172.672 50.5781H177.102ZM188.047 40.6406H193.695V61.5H201.734V40.6406H207.43V61.5H215.445V40.6406H221.094V66H188.047V40.6406ZM233.023 57.75L242.984 40.6406H248.633V66H242.984V48.8672L233.023 66H227.375V40.6406H233.023V57.75ZM272.938 56.4141L288.078 31.875H293.961V66H288.078V41.4375L272.938 66H267.078V31.875H272.938V56.4141ZM317.328 40.6406V45.1406H306.266V66H300.617V40.6406H317.328ZM326.281 45.5156V75.75H320.633V40.6406H325.836L326.281 45.5156ZM342.805 53.0859V53.5781C342.805 55.4219 342.586 57.1328 342.148 58.7109C341.727 60.2734 341.094 61.6406 340.25 62.8125C339.422 63.9688 338.398 64.8672 337.18 65.5078C335.961 66.1484 334.555 66.4688 332.961 66.4688C331.383 66.4688 330 66.1797 328.812 65.6016C327.641 65.0078 326.648 64.1719 325.836 63.0938C325.023 62.0156 324.367 60.75 323.867 59.2969C323.383 57.8281 323.039 56.2188 322.836 54.4688V52.5703C323.039 50.7109 323.383 49.0234 323.867 47.5078C324.367 45.9922 325.023 44.6875 325.836 43.5938C326.648 42.5 327.641 41.6562 328.812 41.0625C329.984 40.4688 331.352 40.1719 332.914 40.1719C334.508 40.1719 335.922 40.4844 337.156 41.1094C338.391 41.7188 339.43 42.5938 340.273 43.7344C341.117 44.8594 341.75 46.2188 342.172 47.8125C342.594 49.3906 342.805 51.1484 342.805 53.0859ZM337.156 53.5781V53.0859C337.156 51.9141 337.047 50.8281 336.828 49.8281C336.609 48.8125 336.266 47.9219 335.797 47.1562C335.328 46.3906 334.727 45.7969 333.992 45.375C333.273 44.9375 332.406 44.7188 331.391 44.7188C330.391 44.7188 329.531 44.8906 328.812 45.2344C328.094 45.5625 327.492 46.0234 327.008 46.6172C326.523 47.2109 326.148 47.9062 325.883 48.7031C325.617 49.4844 325.43 50.3359 325.32 51.2578V55.8047C325.508 56.9297 325.828 57.9609 326.281 58.8984C326.734 59.8359 327.375 60.5859 328.203 61.1484C329.047 61.6953 330.125 61.9688 331.438 61.9688C332.453 61.9688 333.32 61.75 334.039 61.3125C334.758 60.875 335.344 60.2734 335.797 59.5078C336.266 58.7266 336.609 57.8281 336.828 56.8125C337.047 55.7969 337.156 54.7188 337.156 53.5781ZM351.805 48.7031H359.281C361.469 48.7031 363.328 49.0703 364.859 49.8047C366.391 50.5391 367.555 51.5625 368.352 52.875C369.164 54.1719 369.57 55.6562 369.57 57.3281C369.57 58.5625 369.344 59.7109 368.891 60.7734C368.438 61.8203 367.766 62.7344 366.875 63.5156C366 64.2969 364.922 64.9062 363.641 65.3438C362.375 65.7812 360.922 66 359.281 66H348.055V40.6406H353.727V61.5234H359.281C360.406 61.5234 361.305 61.3281 361.977 60.9375C362.648 60.5469 363.133 60.0391 363.43 59.4141C363.742 58.7891 363.898 58.125 363.898 57.4219C363.898 56.7031 363.742 56.0234 363.43 55.3828C363.133 54.7422 362.648 54.2188 361.977 53.8125C361.305 53.4062 360.406 53.2031 359.281 53.2031H351.805V48.7031ZM379.555 40.6406V66H373.906V40.6406H379.555Z" fill="#F0F0F0"/>
<path d="M44.375 65.5V61.75H70.625V65.5H44.375ZM44.375 58.9375L41.9844 43.8906C41.9219 43.8906 41.8513 43.8988 41.7725 43.915C41.6938 43.9313 41.6238 43.9388 41.5625 43.9375C40.7813 43.9375 40.1175 43.6638 39.5713 43.1163C39.025 42.5688 38.7513 41.905 38.75 41.125C38.7488 40.345 39.0225 39.6813 39.5713 39.1338C40.12 38.5863 40.7838 38.3125 41.5625 38.3125C42.3413 38.3125 43.0056 38.5863 43.5556 39.1338C44.1056 39.6813 44.3788 40.345 44.375 41.125C44.375 41.3438 44.3513 41.5469 44.3038 41.7344C44.2563 41.9219 44.2019 42.0938 44.1406 42.25L50 44.875L55.8594 36.8594C55.5156 36.6094 55.2344 36.2813 55.0156 35.875C54.7969 35.4688 54.6875 35.0313 54.6875 34.5625C54.6875 33.7813 54.9613 33.1169 55.5088 32.5694C56.0563 32.0219 56.72 31.7488 57.5 31.75C58.28 31.7513 58.9444 32.025 59.4931 32.5713C60.0419 33.1175 60.315 33.7813 60.3125 34.5625C60.3125 35.0313 60.2031 35.4688 59.9844 35.875C59.7656 36.2813 59.4844 36.6094 59.1406 36.8594L65 44.875L70.8594 42.25C70.7969 42.0938 70.7419 41.9219 70.6944 41.7344C70.6469 41.5469 70.6238 41.3438 70.625 41.125C70.625 40.3438 70.8988 39.6794 71.4463 39.1319C71.9938 38.5844 72.6575 38.3113 73.4375 38.3125C74.2175 38.3138 74.8819 38.5875 75.4306 39.1338C75.9794 39.68 76.2525 40.3438 76.25 41.125C76.2475 41.9063 75.9744 42.5706 75.4306 43.1181C74.8869 43.6656 74.2225 43.9388 73.4375 43.9375C73.375 43.9375 73.305 43.93 73.2275 43.915C73.15 43.9 73.0794 43.8919 73.0156 43.8906L70.625 58.9375H44.375Z" fill="white"/>
<path fill-rule="evenodd" clip-rule="evenodd" d="M1088.86 52.0769L1070 68.5765L1065.29 64.4523L1081.79 50.0148L1065.29 35.5773L1070 31.4531L1088.86 47.9527C1089.48 48.4997 1089.83 49.2414 1089.83 50.0148C1089.83 50.7882 1089.48 51.5299 1088.86 52.0769Z" fill="#A1A1A1"/>
</svg>
