<svg width="34" height="32" viewBox="0 0 34 32" fill="none" xmlns="http://www.w3.org/2000/svg">
<path d="M8.50065 10.6693C8.50065 9.96203 8.79916 9.28375 9.33051 8.78365C9.86187 8.28356 10.5825 8.0026 11.334 8.0026C12.0854 8.0026 12.8061 8.28356 13.3375 8.78365C13.8688 9.28375 14.1673 9.96203 14.1673 10.6693C14.1673 11.3765 13.8688 12.0548 13.3375 12.5549C12.8061 13.055 12.0854 13.3359 11.334 13.3359C10.5825 13.3359 9.86187 13.055 9.33051 12.5549C8.79916 12.0548 8.50065 11.3765 8.50065 10.6693ZM11.334 5.33594C9.83109 5.33594 8.38975 5.89784 7.32705 6.89803C6.26434 7.89823 5.66732 9.25478 5.66732 10.6693C5.66732 12.0838 6.26434 13.4403 7.32705 14.4405C8.38975 15.4407 9.83109 16.0026 11.334 16.0026C12.8369 16.0026 14.2782 15.4407 15.3409 14.4405C16.4036 13.4403 17.0007 12.0838 17.0007 10.6693C17.0007 9.25478 16.4036 7.89823 15.3409 6.89803C14.2782 5.89784 12.8369 5.33594 11.334 5.33594ZM22.6673 12.0026C22.6673 11.649 22.8166 11.3098 23.0822 11.0598C23.3479 10.8097 23.7083 10.6693 24.084 10.6693C24.4597 10.6693 24.82 10.8097 25.0857 11.0598C25.3514 11.3098 25.5007 11.649 25.5007 12.0026C25.5007 12.3562 25.3514 12.6954 25.0857 12.9454C24.82 13.1955 24.4597 13.3359 24.084 13.3359C23.7083 13.3359 23.3479 13.1955 23.0822 12.9454C22.8166 12.6954 22.6673 12.3562 22.6673 12.0026ZM24.084 8.0026C22.9568 8.0026 21.8758 8.42403 21.0788 9.17418C20.2817 9.92432 19.834 10.9417 19.834 12.0026C19.834 13.0635 20.2817 14.0809 21.0788 14.831C21.8758 15.5812 22.9568 16.0026 24.084 16.0026C25.2112 16.0026 26.2922 15.5812 27.0892 14.831C27.8862 14.0809 28.334 13.0635 28.334 12.0026C28.334 10.9417 27.8862 9.92432 27.0892 9.17418C26.2922 8.42403 25.2112 8.0026 24.084 8.0026ZM2.83398 22.0026C2.83398 20.1626 4.42065 18.6693 6.37565 18.6693H16.2923C18.2473 18.6693 19.834 20.1626 19.834 22.0026V22.1306C19.8321 22.2278 19.8245 22.3248 19.8113 22.4213C19.7851 22.6548 19.7425 22.8864 19.6838 23.1146C19.4925 23.8521 19.1509 24.5476 18.678 25.1626C17.4767 26.7173 15.2383 28.0026 11.334 28.0026C7.42965 28.0026 5.19132 26.7173 3.98998 25.1626C3.37099 24.3542 2.98095 23.4108 2.85665 22.4213L2.83398 22.1279V22.0026ZM5.66732 22.0719L5.67298 22.1439C5.68054 22.2204 5.70226 22.335 5.73815 22.4879C5.81465 22.7893 5.97048 23.1919 6.28215 23.5946C6.84882 24.3306 8.15215 25.3359 11.334 25.3359C14.5158 25.3359 15.8163 24.3306 16.3858 23.5946C16.7264 23.1462 16.9382 22.6227 17.0007 22.0746V22.0026C17.0007 21.8258 16.926 21.6562 16.7932 21.5312C16.6603 21.4062 16.4802 21.3359 16.2923 21.3359H6.37565C6.18779 21.3359 6.00762 21.4062 5.87478 21.5312C5.74195 21.6562 5.66732 21.8258 5.66732 22.0026V22.0719ZM24.0811 26.6693C23.0781 26.6657 22.197 26.5768 21.4377 26.4026C21.9537 25.632 22.3211 24.7816 22.5228 23.8906C22.961 23.9617 23.4805 23.999 24.0811 24.0026C26.6028 24.0026 27.5605 23.2773 27.9345 22.8373C28.1395 22.592 28.2758 22.3023 28.3311 21.9946V21.9813C28.3253 21.8082 28.248 21.644 28.1158 21.5236C27.9836 21.4031 27.8068 21.3358 27.6228 21.3359H22.6277C22.5156 20.3817 22.1609 19.467 21.5935 18.6693H27.6257C29.5807 18.6693 31.1673 20.1626 31.1673 22.0026V22.0479C31.1648 22.1308 31.1582 22.2136 31.1475 22.2959C31.0354 23.103 30.6905 23.8658 30.1501 24.5013C29.1046 25.7279 27.2318 26.6693 24.084 26.6693" fill="#A1A1A1"/>
</svg>
