<svg width="1130" height="90" viewBox="0 0 1130 90" fill="none" xmlns="http://www.w3.org/2000/svg">
<rect width="1130" height="90" rx="25" fill="#212121"/>
<rect x="25" y="18" width="55" height="55" rx="27.5" fill="#7666C4"/>
<path d="M48.4337 49.5681L58.5681 39.4337M44.6321 43.2334L42.0989 45.7666C41.4335 46.432 40.9056 47.222 40.5455 48.0915C40.1854 48.9609 40 49.8928 40 50.8338C40 51.7749 40.1854 52.7068 40.5455 53.5762C40.9056 54.4456 41.4335 55.2356 42.0989 55.9011C42.7644 56.5665 43.5544 57.0944 44.4238 57.4545C45.2932 57.8146 46.2251 58 47.1662 58C48.1072 58 49.0391 57.8146 49.9085 57.4545C50.778 57.0944 51.568 56.5665 52.2334 55.9011L54.763 53.3679M52.2316 35.6321L54.7648 33.0989C55.4302 32.4335 56.2202 31.9056 57.0897 31.5455C57.9591 31.1854 58.891 31 59.832 31C60.7731 31 61.705 31.1854 62.5744 31.5455C63.4439 31.9056 64.2338 32.4335 64.8993 33.0989C65.5647 33.7644 66.0926 34.5544 66.4527 35.4238C66.8129 36.2932 66.9982 37.2251 66.9982 38.1662C66.9982 39.1072 66.8129 40.0391 66.4527 40.9085C66.0926 41.778 65.5647 42.568 64.8993 43.2334L62.3661 45.7666" stroke="#212121" stroke-width="4" stroke-linecap="round" stroke-linejoin="round"/>
<path d="M118.691 48.3945H111.289V44.5078H118.691C119.98 44.5078 121.022 44.2995 121.816 43.8828C122.611 43.4661 123.19 42.8932 123.555 42.1641C123.932 41.4219 124.121 40.5755 124.121 39.625C124.121 38.7266 123.932 37.8867 123.555 37.1055C123.19 36.3112 122.611 35.6732 121.816 35.1914C121.022 34.7096 119.98 34.4688 118.691 34.4688H112.793V59H107.891V30.5625H118.691C120.892 30.5625 122.76 30.9531 124.297 31.7344C125.846 32.5026 127.025 33.5703 127.832 34.9375C128.639 36.2917 129.043 37.8411 129.043 39.5859C129.043 41.4219 128.639 42.9974 127.832 44.3125C127.025 45.6276 125.846 46.6367 124.297 47.3398C122.76 48.043 120.892 48.3945 118.691 48.3945ZM142.012 59.3906C140.449 59.3906 139.036 59.1367 137.773 58.6289C136.523 58.1081 135.456 57.3854 134.57 56.4609C133.698 55.5365 133.027 54.4492 132.559 53.1992C132.09 51.9492 131.855 50.6016 131.855 49.1562V48.375C131.855 46.7214 132.096 45.224 132.578 43.8828C133.06 42.5417 133.73 41.3958 134.59 40.4453C135.449 39.4818 136.465 38.7461 137.637 38.2383C138.809 37.7305 140.078 37.4766 141.445 37.4766C142.956 37.4766 144.277 37.7305 145.41 38.2383C146.543 38.7461 147.48 39.4622 148.223 40.3867C148.978 41.2982 149.538 42.3854 149.902 43.6484C150.28 44.9115 150.469 46.3047 150.469 47.8281V49.8398H134.141V46.4609H145.82V46.0898C145.794 45.2435 145.625 44.4492 145.312 43.707C145.013 42.9648 144.551 42.3659 143.926 41.9102C143.301 41.4544 142.467 41.2266 141.426 41.2266C140.645 41.2266 139.948 41.3958 139.336 41.7344C138.737 42.0599 138.236 42.5352 137.832 43.1602C137.428 43.7852 137.116 44.5404 136.895 45.4258C136.686 46.2982 136.582 47.2812 136.582 48.375V49.1562C136.582 50.0807 136.706 50.9401 136.953 51.7344C137.214 52.5156 137.591 53.1992 138.086 53.7852C138.581 54.3711 139.18 54.8333 139.883 55.1719C140.586 55.4974 141.387 55.6602 142.285 55.6602C143.418 55.6602 144.427 55.4323 145.312 54.9766C146.198 54.5208 146.966 53.8763 147.617 53.043L150.098 55.4453C149.642 56.1094 149.049 56.7474 148.32 57.3594C147.591 57.9583 146.699 58.4466 145.645 58.8242C144.603 59.2018 143.392 59.3906 142.012 59.3906ZM179.238 48.6875V49.0977C179.238 50.5951 179.069 51.9753 178.73 53.2383C178.405 54.4883 177.917 55.5755 177.266 56.5C176.615 57.4245 175.807 58.1406 174.844 58.6484C173.893 59.1562 172.786 59.4102 171.523 59.4102C170.417 59.4102 169.453 59.2214 168.633 58.8438C167.812 58.4661 167.122 57.9388 166.562 57.2617C166.003 56.5716 165.553 55.7643 165.215 54.8398C164.876 53.9023 164.629 52.8737 164.473 51.7539V45.6406C164.629 44.4427 164.87 43.349 165.195 42.3594C165.534 41.3568 165.983 40.4909 166.543 39.7617C167.116 39.0326 167.806 38.4727 168.613 38.082C169.421 37.6784 170.378 37.4766 171.484 37.4766C172.5 37.4766 173.418 37.6589 174.238 38.0234C175.059 38.375 175.781 38.8828 176.406 39.5469C177.031 40.1979 177.552 40.9857 177.969 41.9102C178.385 42.8216 178.698 43.8503 178.906 44.9961C179.128 46.1419 179.238 47.3724 179.238 48.6875ZM174.531 49.0977V48.6875C174.531 47.8672 174.479 47.0859 174.375 46.3438C174.271 45.6016 174.108 44.9245 173.887 44.3125C173.678 43.6875 173.405 43.1471 173.066 42.6914C172.728 42.2227 172.318 41.8646 171.836 41.6172C171.367 41.3568 170.82 41.2266 170.195 41.2266C169.349 41.2266 168.646 41.3698 168.086 41.6562C167.539 41.9297 167.122 42.3203 166.836 42.8281C166.562 43.3229 166.387 43.8958 166.309 44.5469V52.8672C166.4 53.4141 166.589 53.8958 166.875 54.3125C167.174 54.7292 167.598 55.0612 168.145 55.3086C168.691 55.543 169.388 55.6602 170.234 55.6602C171.016 55.6602 171.673 55.4974 172.207 55.1719C172.754 54.8333 173.197 54.3646 173.535 53.7656C173.887 53.1667 174.141 52.4701 174.297 51.6758C174.453 50.8815 174.531 50.0221 174.531 49.0977ZM153.34 49.0977V48.6875C153.34 47.3724 153.444 46.1419 153.652 44.9961C153.861 43.8503 154.173 42.8216 154.59 41.9102C155.02 40.9857 155.547 40.1979 156.172 39.5469C156.797 38.8828 157.52 38.375 158.34 38.0234C159.16 37.6589 160.078 37.4766 161.094 37.4766C162.188 37.4766 163.132 37.6784 163.926 38.082C164.72 38.4727 165.391 39.0326 165.938 39.7617C166.497 40.4909 166.94 41.3568 167.266 42.3594C167.604 43.349 167.852 44.4427 168.008 45.6406V51.5195C167.865 52.6654 167.624 53.7201 167.285 54.6836C166.947 55.6471 166.504 56.4805 165.957 57.1836C165.41 57.8867 164.733 58.4336 163.926 58.8242C163.118 59.2148 162.161 59.4102 161.055 59.4102C159.805 59.4102 158.698 59.1562 157.734 58.6484C156.771 58.1406 155.964 57.4245 155.312 56.5C154.661 55.5755 154.167 54.4883 153.828 53.2383C153.503 51.9753 153.34 50.5951 153.34 49.0977ZM158.047 48.6875V49.0977C158.047 50.0221 158.118 50.8815 158.262 51.6758C158.418 52.4701 158.659 53.1667 158.984 53.7656C159.31 54.3516 159.74 54.8138 160.273 55.1523C160.807 55.4909 161.465 55.6602 162.246 55.6602C163.105 55.6602 163.809 55.5299 164.355 55.2695C164.902 55.0091 165.319 54.651 165.605 54.1953C165.905 53.7396 166.1 53.2188 166.191 52.6328V44.5469C166.113 43.8958 165.931 43.3229 165.645 42.8281C165.358 42.3203 164.941 41.9297 164.395 41.6562C163.848 41.3698 163.145 41.2266 162.285 41.2266C161.504 41.2266 160.84 41.4219 160.293 41.8125C159.759 42.2031 159.323 42.7435 158.984 43.4336C158.659 44.1107 158.418 44.9049 158.262 45.8164C158.118 46.7148 158.047 47.6719 158.047 48.6875ZM163.828 67.125V29H168.555V67.125H163.828ZM192.598 59.3906C191.035 59.3906 189.622 59.1367 188.359 58.6289C187.109 58.1081 186.042 57.3854 185.156 56.4609C184.284 55.5365 183.613 54.4492 183.145 53.1992C182.676 51.9492 182.441 50.6016 182.441 49.1562V48.375C182.441 46.7214 182.682 45.224 183.164 43.8828C183.646 42.5417 184.316 41.3958 185.176 40.4453C186.035 39.4818 187.051 38.7461 188.223 38.2383C189.395 37.7305 190.664 37.4766 192.031 37.4766C193.542 37.4766 194.863 37.7305 195.996 38.2383C197.129 38.7461 198.066 39.4622 198.809 40.3867C199.564 41.2982 200.124 42.3854 200.488 43.6484C200.866 44.9115 201.055 46.3047 201.055 47.8281V49.8398H184.727V46.4609H196.406V46.0898C196.38 45.2435 196.211 44.4492 195.898 43.707C195.599 42.9648 195.137 42.3659 194.512 41.9102C193.887 41.4544 193.053 41.2266 192.012 41.2266C191.23 41.2266 190.534 41.3958 189.922 41.7344C189.323 42.0599 188.822 42.5352 188.418 43.1602C188.014 43.7852 187.702 44.5404 187.48 45.4258C187.272 46.2982 187.168 47.2812 187.168 48.375V49.1562C187.168 50.0807 187.292 50.9401 187.539 51.7344C187.799 52.5156 188.177 53.1992 188.672 53.7852C189.167 54.3711 189.766 54.8333 190.469 55.1719C191.172 55.4974 191.973 55.6602 192.871 55.6602C194.004 55.6602 195.013 55.4323 195.898 54.9766C196.784 54.5208 197.552 53.8763 198.203 53.043L200.684 55.4453C200.228 56.1094 199.635 56.7474 198.906 57.3594C198.177 57.9583 197.285 58.4466 196.23 58.8242C195.189 59.2018 193.978 59.3906 192.598 59.3906ZM209.453 41.9297V67.125H204.746V37.8672H209.082L209.453 41.9297ZM223.223 48.2383V48.6484C223.223 50.1849 223.04 51.6107 222.676 52.9258C222.324 54.2279 221.797 55.3672 221.094 56.3438C220.404 57.3073 219.551 58.056 218.535 58.5898C217.52 59.1237 216.348 59.3906 215.02 59.3906C213.704 59.3906 212.552 59.1497 211.562 58.668C210.586 58.1732 209.759 57.4766 209.082 56.5781C208.405 55.6797 207.858 54.625 207.441 53.4141C207.038 52.1901 206.751 50.849 206.582 49.3906V47.8086C206.751 46.2591 207.038 44.8529 207.441 43.5898C207.858 42.3268 208.405 41.2396 209.082 40.3281C209.759 39.4167 210.586 38.7135 211.562 38.2188C212.539 37.724 213.678 37.4766 214.98 37.4766C216.309 37.4766 217.487 37.737 218.516 38.2578C219.544 38.7656 220.41 39.4948 221.113 40.4453C221.816 41.3828 222.344 42.5156 222.695 43.8438C223.047 45.1589 223.223 46.6237 223.223 48.2383ZM218.516 48.6484V48.2383C218.516 47.2617 218.424 46.3568 218.242 45.5234C218.06 44.6771 217.773 43.9349 217.383 43.2969C216.992 42.6589 216.491 42.1641 215.879 41.8125C215.28 41.4479 214.557 41.2656 213.711 41.2656C212.878 41.2656 212.161 41.4089 211.562 41.6953C210.964 41.9688 210.462 42.3529 210.059 42.8477C209.655 43.3424 209.342 43.9219 209.121 44.5859C208.9 45.237 208.743 45.9466 208.652 46.7148V50.5039C208.809 51.4414 209.076 52.3008 209.453 53.082C209.831 53.8633 210.365 54.4883 211.055 54.957C211.758 55.4128 212.656 55.6406 213.75 55.6406C214.596 55.6406 215.319 55.4583 215.918 55.0938C216.517 54.7292 217.005 54.2279 217.383 53.5898C217.773 52.9388 218.06 52.1901 218.242 51.3438C218.424 50.4974 218.516 49.599 218.516 48.6484ZM239.141 54.7617V44.6836C239.141 43.9284 239.004 43.2773 238.73 42.7305C238.457 42.1836 238.04 41.7604 237.48 41.4609C236.934 41.1615 236.243 41.0117 235.41 41.0117C234.642 41.0117 233.978 41.1419 233.418 41.4023C232.858 41.6628 232.422 42.0143 232.109 42.457C231.797 42.8997 231.641 43.401 231.641 43.9609H226.953C226.953 43.1276 227.155 42.3203 227.559 41.5391C227.962 40.7578 228.548 40.0612 229.316 39.4492C230.085 38.8372 231.003 38.3555 232.07 38.0039C233.138 37.6523 234.336 37.4766 235.664 37.4766C237.253 37.4766 238.659 37.7435 239.883 38.2773C241.12 38.8112 242.09 39.6185 242.793 40.6992C243.509 41.7669 243.867 43.1081 243.867 44.7227V54.1172C243.867 55.0807 243.932 55.9466 244.062 56.7148C244.206 57.4701 244.408 58.1276 244.668 58.6875V59H239.844C239.622 58.4922 239.447 57.8477 239.316 57.0664C239.199 56.2721 239.141 55.5039 239.141 54.7617ZM239.824 46.1484L239.863 49.0586H236.484C235.612 49.0586 234.844 49.1432 234.18 49.3125C233.516 49.4688 232.962 49.7031 232.52 50.0156C232.077 50.3281 231.745 50.7057 231.523 51.1484C231.302 51.5911 231.191 52.0924 231.191 52.6523C231.191 53.2122 231.322 53.7266 231.582 54.1953C231.842 54.651 232.22 55.0091 232.715 55.2695C233.223 55.5299 233.835 55.6602 234.551 55.6602C235.514 55.6602 236.354 55.4648 237.07 55.0742C237.799 54.6706 238.372 54.1823 238.789 53.6094C239.206 53.0234 239.427 52.4701 239.453 51.9492L240.977 54.0391C240.82 54.5729 240.553 55.1458 240.176 55.7578C239.798 56.3698 239.303 56.9557 238.691 57.5156C238.092 58.0625 237.37 58.5117 236.523 58.8633C235.69 59.2148 234.727 59.3906 233.633 59.3906C232.253 59.3906 231.022 59.1172 229.941 58.5703C228.861 58.0104 228.014 57.2617 227.402 56.3242C226.79 55.3737 226.484 54.2995 226.484 53.1016C226.484 51.9818 226.693 50.9922 227.109 50.1328C227.539 49.2604 228.164 48.5312 228.984 47.9453C229.818 47.3594 230.833 46.9167 232.031 46.6172C233.229 46.3047 234.596 46.1484 236.133 46.1484H239.824ZM262.988 37.8672V41.6172H252.676V37.8672H262.988ZM266.68 37.8672V59H261.973V37.8672H266.68ZM251.523 37.8672H256.172L255.605 48.3164C255.527 49.8659 255.371 51.2331 255.137 52.418C254.915 53.5898 254.616 54.599 254.238 55.4453C253.861 56.2786 253.398 56.9557 252.852 57.4766C252.305 57.9974 251.667 58.3815 250.938 58.6289C250.208 58.8763 249.388 59 248.477 59H247.012L246.992 55.1328L247.734 55.0742C248.216 55.0352 248.633 54.9115 248.984 54.7031C249.336 54.4818 249.635 54.1693 249.883 53.7656C250.143 53.362 250.352 52.8411 250.508 52.2031C250.677 51.5651 250.807 50.8099 250.898 49.9375C251.003 49.0651 251.081 48.0495 251.133 46.8906L251.523 37.8672ZM275.176 44.5859H281.406C283.229 44.5859 284.779 44.8919 286.055 45.5039C287.331 46.1159 288.301 46.9688 288.965 48.0625C289.642 49.1432 289.98 50.3802 289.98 51.7734C289.98 52.8021 289.792 53.7591 289.414 54.6445C289.036 55.5169 288.477 56.2786 287.734 56.9297C287.005 57.5807 286.107 58.0885 285.039 58.4531C283.984 58.8177 282.773 59 281.406 59H272.051V37.8672H276.777V55.2695H281.406C282.344 55.2695 283.092 55.1068 283.652 54.7812C284.212 54.4557 284.616 54.0326 284.863 53.5117C285.124 52.9909 285.254 52.4375 285.254 51.8516C285.254 51.2526 285.124 50.6862 284.863 50.1523C284.616 49.6185 284.212 49.1823 283.652 48.8438C283.092 48.5052 282.344 48.3359 281.406 48.3359H275.176V44.5859ZM308.184 46.6953V50.4062H297.246V46.6953H308.184ZM298.613 37.8672V59H293.906V37.8672H298.613ZM311.582 37.8672V59H306.875V37.8672H311.582ZM328.516 54.7617V44.6836C328.516 43.9284 328.379 43.2773 328.105 42.7305C327.832 42.1836 327.415 41.7604 326.855 41.4609C326.309 41.1615 325.618 41.0117 324.785 41.0117C324.017 41.0117 323.353 41.1419 322.793 41.4023C322.233 41.6628 321.797 42.0143 321.484 42.457C321.172 42.8997 321.016 43.401 321.016 43.9609H316.328C316.328 43.1276 316.53 42.3203 316.934 41.5391C317.337 40.7578 317.923 40.0612 318.691 39.4492C319.46 38.8372 320.378 38.3555 321.445 38.0039C322.513 37.6523 323.711 37.4766 325.039 37.4766C326.628 37.4766 328.034 37.7435 329.258 38.2773C330.495 38.8112 331.465 39.6185 332.168 40.6992C332.884 41.7669 333.242 43.1081 333.242 44.7227V54.1172C333.242 55.0807 333.307 55.9466 333.438 56.7148C333.581 57.4701 333.783 58.1276 334.043 58.6875V59H329.219C328.997 58.4922 328.822 57.8477 328.691 57.0664C328.574 56.2721 328.516 55.5039 328.516 54.7617ZM329.199 46.1484L329.238 49.0586H325.859C324.987 49.0586 324.219 49.1432 323.555 49.3125C322.891 49.4688 322.337 49.7031 321.895 50.0156C321.452 50.3281 321.12 50.7057 320.898 51.1484C320.677 51.5911 320.566 52.0924 320.566 52.6523C320.566 53.2122 320.697 53.7266 320.957 54.1953C321.217 54.651 321.595 55.0091 322.09 55.2695C322.598 55.5299 323.21 55.6602 323.926 55.6602C324.889 55.6602 325.729 55.4648 326.445 55.0742C327.174 54.6706 327.747 54.1823 328.164 53.6094C328.581 53.0234 328.802 52.4701 328.828 51.9492L330.352 54.0391C330.195 54.5729 329.928 55.1458 329.551 55.7578C329.173 56.3698 328.678 56.9557 328.066 57.5156C327.467 58.0625 326.745 58.5117 325.898 58.8633C325.065 59.2148 324.102 59.3906 323.008 59.3906C321.628 59.3906 320.397 59.1172 319.316 58.5703C318.236 58.0104 317.389 57.2617 316.777 56.3242C316.165 55.3737 315.859 54.2995 315.859 53.1016C315.859 51.9818 316.068 50.9922 316.484 50.1328C316.914 49.2604 317.539 48.5312 318.359 47.9453C319.193 47.3594 320.208 46.9167 321.406 46.6172C322.604 46.3047 323.971 46.1484 325.508 46.1484H329.199ZM342.617 48.668H347.5L341.504 59H336.641L342.617 48.668ZM346.055 37.8672H355.117V59H350.43V41.5781H346.055C345.169 41.5781 344.44 41.7344 343.867 42.0469C343.294 42.3464 342.871 42.7435 342.598 43.2383C342.324 43.7201 342.188 44.2148 342.188 44.7227C342.188 45.2305 342.311 45.7188 342.559 46.1875C342.819 46.6562 343.216 47.0404 343.75 47.3398C344.297 47.6393 344.98 47.7891 345.801 47.7891H352.012V51.2266H345.801C344.499 51.2266 343.333 51.0638 342.305 50.7383C341.276 50.3997 340.404 49.9375 339.688 49.3516C338.971 48.7526 338.424 48.056 338.047 47.2617C337.669 46.4544 337.48 45.5755 337.48 44.625C337.48 43.6484 337.676 42.75 338.066 41.9297C338.457 41.1094 339.017 40.3932 339.746 39.7812C340.488 39.1693 341.387 38.7005 342.441 38.375C343.509 38.0365 344.714 37.8672 346.055 37.8672ZM384.492 37.8672V41.6172H374.062V37.8672H384.492ZM375.176 37.8672V59H370.469V37.8672H375.176ZM388.184 37.8672V59H383.457V37.8672H388.184ZM397.891 41.9297V67.125H393.184V37.8672H397.52L397.891 41.9297ZM411.66 48.2383V48.6484C411.66 50.1849 411.478 51.6107 411.113 52.9258C410.762 54.2279 410.234 55.3672 409.531 56.3438C408.841 57.3073 407.988 58.056 406.973 58.5898C405.957 59.1237 404.785 59.3906 403.457 59.3906C402.142 59.3906 400.99 59.1497 400 58.668C399.023 58.1732 398.197 57.4766 397.52 56.5781C396.842 55.6797 396.296 54.625 395.879 53.4141C395.475 52.1901 395.189 50.849 395.02 49.3906V47.8086C395.189 46.2591 395.475 44.8529 395.879 43.5898C396.296 42.3268 396.842 41.2396 397.52 40.3281C398.197 39.4167 399.023 38.7135 400 38.2188C400.977 37.724 402.116 37.4766 403.418 37.4766C404.746 37.4766 405.924 37.737 406.953 38.2578C407.982 38.7656 408.848 39.4948 409.551 40.4453C410.254 41.3828 410.781 42.5156 411.133 43.8438C411.484 45.1589 411.66 46.6237 411.66 48.2383ZM406.953 48.6484V48.2383C406.953 47.2617 406.862 46.3568 406.68 45.5234C406.497 44.6771 406.211 43.9349 405.82 43.2969C405.43 42.6589 404.928 42.1641 404.316 41.8125C403.717 41.4479 402.995 41.2656 402.148 41.2656C401.315 41.2656 400.599 41.4089 400 41.6953C399.401 41.9688 398.9 42.3529 398.496 42.8477C398.092 43.3424 397.78 43.9219 397.559 44.5859C397.337 45.237 397.181 45.9466 397.09 46.7148V50.5039C397.246 51.4414 397.513 52.3008 397.891 53.082C398.268 53.8633 398.802 54.4883 399.492 54.957C400.195 55.4128 401.094 55.6406 402.188 55.6406C403.034 55.6406 403.757 55.4583 404.355 55.0938C404.954 54.7292 405.443 54.2279 405.82 53.5898C406.211 52.9388 406.497 52.1901 406.68 51.3438C406.862 50.4974 406.953 49.599 406.953 48.6484ZM414.766 48.668V48.2188C414.766 46.6953 414.987 45.2826 415.43 43.9805C415.872 42.6654 416.51 41.526 417.344 40.5625C418.19 39.5859 419.219 38.8307 420.43 38.2969C421.654 37.75 423.034 37.4766 424.57 37.4766C426.12 37.4766 427.5 37.75 428.711 38.2969C429.935 38.8307 430.97 39.5859 431.816 40.5625C432.663 41.526 433.307 42.6654 433.75 43.9805C434.193 45.2826 434.414 46.6953 434.414 48.2188V48.668C434.414 50.1914 434.193 51.6042 433.75 52.9062C433.307 54.2083 432.663 55.3477 431.816 56.3242C430.97 57.2878 429.941 58.043 428.73 58.5898C427.52 59.1237 426.146 59.3906 424.609 59.3906C423.06 59.3906 421.673 59.1237 420.449 58.5898C419.238 58.043 418.21 57.2878 417.363 56.3242C416.517 55.3477 415.872 54.2083 415.43 52.9062C414.987 51.6042 414.766 50.1914 414.766 48.668ZM419.473 48.2188V48.668C419.473 49.6185 419.57 50.5169 419.766 51.3633C419.961 52.2096 420.267 52.9518 420.684 53.5898C421.1 54.2279 421.634 54.7292 422.285 55.0938C422.936 55.4583 423.711 55.6406 424.609 55.6406C425.482 55.6406 426.237 55.4583 426.875 55.0938C427.526 54.7292 428.06 54.2279 428.477 53.5898C428.893 52.9518 429.199 52.2096 429.395 51.3633C429.603 50.5169 429.707 49.6185 429.707 48.668V48.2188C429.707 47.2812 429.603 46.3958 429.395 45.5625C429.199 44.7161 428.887 43.9674 428.457 43.3164C428.04 42.6654 427.507 42.1576 426.855 41.793C426.217 41.4154 425.456 41.2266 424.57 41.2266C423.685 41.2266 422.917 41.4154 422.266 41.793C421.628 42.1576 421.1 42.6654 420.684 43.3164C420.267 43.9674 419.961 44.7161 419.766 45.5625C419.57 46.3958 419.473 47.2812 419.473 48.2188ZM452.422 37.8672V41.6172H443.203V59H438.496V37.8672H452.422ZM459.883 41.9297V67.125H455.176V37.8672H459.512L459.883 41.9297ZM473.652 48.2383V48.6484C473.652 50.1849 473.47 51.6107 473.105 52.9258C472.754 54.2279 472.227 55.3672 471.523 56.3438C470.833 57.3073 469.98 58.056 468.965 58.5898C467.949 59.1237 466.777 59.3906 465.449 59.3906C464.134 59.3906 462.982 59.1497 461.992 58.668C461.016 58.1732 460.189 57.4766 459.512 56.5781C458.835 55.6797 458.288 54.625 457.871 53.4141C457.467 52.1901 457.181 50.849 457.012 49.3906V47.8086C457.181 46.2591 457.467 44.8529 457.871 43.5898C458.288 42.3268 458.835 41.2396 459.512 40.3281C460.189 39.4167 461.016 38.7135 461.992 38.2188C462.969 37.724 464.108 37.4766 465.41 37.4766C466.738 37.4766 467.917 37.737 468.945 38.2578C469.974 38.7656 470.84 39.4948 471.543 40.4453C472.246 41.3828 472.773 42.5156 473.125 43.8438C473.477 45.1589 473.652 46.6237 473.652 48.2383ZM468.945 48.6484V48.2383C468.945 47.2617 468.854 46.3568 468.672 45.5234C468.49 44.6771 468.203 43.9349 467.812 43.2969C467.422 42.6589 466.921 42.1641 466.309 41.8125C465.71 41.4479 464.987 41.2656 464.141 41.2656C463.307 41.2656 462.591 41.4089 461.992 41.6953C461.393 41.9688 460.892 42.3529 460.488 42.8477C460.085 43.3424 459.772 43.9219 459.551 44.5859C459.329 45.237 459.173 45.9466 459.082 46.7148V50.5039C459.238 51.4414 459.505 52.3008 459.883 53.082C460.26 53.8633 460.794 54.4883 461.484 54.957C462.188 55.4128 463.086 55.6406 464.18 55.6406C465.026 55.6406 465.749 55.4583 466.348 55.0938C466.947 54.7292 467.435 54.2279 467.812 53.5898C468.203 52.9388 468.49 52.1901 468.672 51.3438C468.854 50.4974 468.945 49.599 468.945 48.6484ZM489.57 54.7617V44.6836C489.57 43.9284 489.434 43.2773 489.16 42.7305C488.887 42.1836 488.47 41.7604 487.91 41.4609C487.363 41.1615 486.673 41.0117 485.84 41.0117C485.072 41.0117 484.408 41.1419 483.848 41.4023C483.288 41.6628 482.852 42.0143 482.539 42.457C482.227 42.8997 482.07 43.401 482.07 43.9609H477.383C477.383 43.1276 477.585 42.3203 477.988 41.5391C478.392 40.7578 478.978 40.0612 479.746 39.4492C480.514 38.8372 481.432 38.3555 482.5 38.0039C483.568 37.6523 484.766 37.4766 486.094 37.4766C487.682 37.4766 489.089 37.7435 490.312 38.2773C491.549 38.8112 492.52 39.6185 493.223 40.6992C493.939 41.7669 494.297 43.1081 494.297 44.7227V54.1172C494.297 55.0807 494.362 55.9466 494.492 56.7148C494.635 57.4701 494.837 58.1276 495.098 58.6875V59H490.273C490.052 58.4922 489.876 57.8477 489.746 57.0664C489.629 56.2721 489.57 55.5039 489.57 54.7617ZM490.254 46.1484L490.293 49.0586H486.914C486.042 49.0586 485.273 49.1432 484.609 49.3125C483.945 49.4688 483.392 49.7031 482.949 50.0156C482.507 50.3281 482.174 50.7057 481.953 51.1484C481.732 51.5911 481.621 52.0924 481.621 52.6523C481.621 53.2122 481.751 53.7266 482.012 54.1953C482.272 54.651 482.65 55.0091 483.145 55.2695C483.652 55.5299 484.264 55.6602 484.98 55.6602C485.944 55.6602 486.784 55.4648 487.5 55.0742C488.229 54.6706 488.802 54.1823 489.219 53.6094C489.635 53.0234 489.857 52.4701 489.883 51.9492L491.406 54.0391C491.25 54.5729 490.983 55.1458 490.605 55.7578C490.228 56.3698 489.733 56.9557 489.121 57.5156C488.522 58.0625 487.799 58.5117 486.953 58.8633C486.12 59.2148 485.156 59.3906 484.062 59.3906C482.682 59.3906 481.452 59.1172 480.371 58.5703C479.29 58.0104 478.444 57.2617 477.832 56.3242C477.22 55.3737 476.914 54.2995 476.914 53.1016C476.914 51.9818 477.122 50.9922 477.539 50.1328C477.969 49.2604 478.594 48.5312 479.414 47.9453C480.247 47.3594 481.263 46.9167 482.461 46.6172C483.659 46.3047 485.026 46.1484 486.562 46.1484H490.254ZM511.777 53.2969L518.066 37.8672H522.148L513.379 59H510.176L501.426 37.8672H505.508L511.777 53.2969ZM504.297 37.8672V59H499.59V37.8672H504.297ZM519.258 59V37.8672H523.984V59H519.258ZM541.816 53.2969L548.105 37.8672H552.188L543.418 59H540.215L531.465 37.8672H535.547L541.816 53.2969ZM534.336 37.8672V59H529.629V37.8672H534.336ZM549.297 59V37.8672H554.023V59H549.297ZM571.211 54.7617V44.6836C571.211 43.9284 571.074 43.2773 570.801 42.7305C570.527 42.1836 570.111 41.7604 569.551 41.4609C569.004 41.1615 568.314 41.0117 567.48 41.0117C566.712 41.0117 566.048 41.1419 565.488 41.4023C564.928 41.6628 564.492 42.0143 564.18 42.457C563.867 42.8997 563.711 43.401 563.711 43.9609H559.023C559.023 43.1276 559.225 42.3203 559.629 41.5391C560.033 40.7578 560.618 40.0612 561.387 39.4492C562.155 38.8372 563.073 38.3555 564.141 38.0039C565.208 37.6523 566.406 37.4766 567.734 37.4766C569.323 37.4766 570.729 37.7435 571.953 38.2773C573.19 38.8112 574.16 39.6185 574.863 40.6992C575.579 41.7669 575.938 43.1081 575.938 44.7227V54.1172C575.938 55.0807 576.003 55.9466 576.133 56.7148C576.276 57.4701 576.478 58.1276 576.738 58.6875V59H571.914C571.693 58.4922 571.517 57.8477 571.387 57.0664C571.27 56.2721 571.211 55.5039 571.211 54.7617ZM571.895 46.1484L571.934 49.0586H568.555C567.682 49.0586 566.914 49.1432 566.25 49.3125C565.586 49.4688 565.033 49.7031 564.59 50.0156C564.147 50.3281 563.815 50.7057 563.594 51.1484C563.372 51.5911 563.262 52.0924 563.262 52.6523C563.262 53.2122 563.392 53.7266 563.652 54.1953C563.913 54.651 564.29 55.0091 564.785 55.2695C565.293 55.5299 565.905 55.6602 566.621 55.6602C567.585 55.6602 568.424 55.4648 569.141 55.0742C569.87 54.6706 570.443 54.1823 570.859 53.6094C571.276 53.0234 571.497 52.4701 571.523 51.9492L573.047 54.0391C572.891 54.5729 572.624 55.1458 572.246 55.7578C571.868 56.3698 571.374 56.9557 570.762 57.5156C570.163 58.0625 569.44 58.5117 568.594 58.8633C567.76 59.2148 566.797 59.3906 565.703 59.3906C564.323 59.3906 563.092 59.1172 562.012 58.5703C560.931 58.0104 560.085 57.2617 559.473 56.3242C558.861 55.3737 558.555 54.2995 558.555 53.1016C558.555 51.9818 558.763 50.9922 559.18 50.1328C559.609 49.2604 560.234 48.5312 561.055 47.9453C561.888 47.3594 562.904 46.9167 564.102 46.6172C565.299 46.3047 566.667 46.1484 568.203 46.1484H571.895Z" fill="#A1A1A1"/>
<path fill-rule="evenodd" clip-rule="evenodd" d="M1088.86 47.0769L1070 63.5765L1065.29 59.4523L1081.79 45.0148L1065.29 30.5773L1070 26.4531L1088.86 42.9527C1089.48 43.4997 1089.83 44.2414 1089.83 45.0148C1089.83 45.7882 1089.48 46.5299 1088.86 47.0769Z" fill="#A1A1A1"/>
</svg>
