<svg width="66" height="66" viewBox="0 0 66 66" fill="none" xmlns="http://www.w3.org/2000/svg">
<rect width="66" height="66" rx="20.7778" fill="#7666C4"/>
<path d="M25.8704 40.1329L40.1347 25.8696M20.5197 31.2174L16.9542 34.7826C16.0176 35.7192 15.2747 36.831 14.7678 38.0546C14.2609 39.2783 14 40.5898 14 41.9143C14 43.2388 14.2609 44.5503 14.7678 45.7739C15.2747 46.9976 16.0176 48.1094 16.9542 49.046C17.8908 49.9825 19.0028 50.7254 20.2265 51.2323C21.4502 51.7391 22.7618 52 24.0864 52C25.411 52 26.7225 51.7391 27.9463 51.2323C29.17 50.7254 30.2819 49.9825 31.2185 49.046L34.7789 45.4808M31.216 20.5192L34.7815 16.954C35.7181 16.0175 36.83 15.2746 38.0537 14.7677C39.2775 14.2609 40.5891 14 41.9136 14C43.2382 14 44.5498 14.2609 45.7735 14.7677C46.9972 15.2746 48.1092 16.0175 49.0458 16.954C49.9824 17.8906 50.7253 19.0024 51.2322 20.2261C51.7391 21.4497 52 22.7612 52 24.0857C52 25.4102 51.7391 26.7217 51.2322 27.9454C50.7253 29.169 49.9824 30.2809 49.0458 31.2174L45.4803 34.7826" stroke="white" stroke-width="4.88889" stroke-linecap="round" stroke-linejoin="round"/>
</svg>
