<svg width="1130" height="190" viewBox="0 0 1130 190" fill="none" xmlns="http://www.w3.org/2000/svg">
<rect width="1130" height="190" rx="30" fill="url(#paint0_linear_3188_8501)"/>
<circle cx="103" cy="98" r="57" fill="#7666C4"/>
<path d="M98.38 75.988L100 74.2176V84.9903C100 85.7861 100.316 86.5494 100.879 87.1121C101.441 87.6749 102.204 87.991 103 87.991C103.796 87.991 104.559 87.6749 105.121 87.1121C105.684 86.5494 106 85.7861 106 84.9903V74.2176L107.62 75.868C107.892 76.1756 108.225 76.4241 108.597 76.5979C108.969 76.7717 109.373 76.8672 109.784 76.8784C110.195 76.8897 110.603 76.8165 110.984 76.6633C111.366 76.5101 111.711 76.2803 112 75.988C112.281 75.7091 112.504 75.3772 112.657 75.0115C112.809 74.6458 112.887 74.2536 112.887 73.8575C112.887 73.4614 112.809 73.0691 112.657 72.7035C112.504 72.3378 112.281 72.0059 112 71.727L105.13 64.8553C104.845 64.5821 104.508 64.3679 104.14 64.2251C103.41 63.925 102.59 63.925 101.86 64.2251C101.492 64.3679 101.155 64.5821 100.87 64.8553L94 71.6069C93.4192 72.1879 93.0929 72.9759 93.0929 73.7975C93.0929 74.6191 93.4192 75.4071 94 75.988C94.5808 76.569 95.3686 76.8954 96.19 76.8954C97.0114 76.8954 97.7992 76.569 98.38 75.988ZM103 93.9925C101.22 93.9925 99.4799 94.5205 97.9999 95.5097C96.5198 96.4988 95.3663 97.9048 94.6851 99.5497C94.0039 101.195 93.8257 103.005 94.1729 104.751C94.5202 106.497 95.3774 108.101 96.636 109.36C97.8947 110.619 99.4984 111.477 101.244 111.824C102.99 112.171 104.8 111.993 106.444 111.312C108.089 110.63 109.494 109.477 110.483 107.996C111.472 106.516 112 104.775 112 102.995C112 100.607 111.052 98.3175 109.364 96.6292C107.676 94.941 105.387 93.9925 103 93.9925ZM103 105.996C102.407 105.996 101.827 105.82 101.333 105.49C100.84 105.16 100.455 104.691 100.228 104.143C100.001 103.595 99.9419 102.991 100.058 102.409C100.173 101.827 100.459 101.293 100.879 100.873C101.298 100.453 101.833 100.167 102.415 100.052C102.997 99.9359 103.6 99.9953 104.148 100.222C104.696 100.45 105.165 100.834 105.494 101.328C105.824 101.821 106 102.401 106 102.995C106 103.791 105.684 104.554 105.121 105.117C104.559 105.679 103.796 105.996 103 105.996ZM82 102.995C82 103.588 82.1759 104.168 82.5056 104.662C82.8352 105.155 83.3038 105.54 83.8519 105.767C84.4001 105.994 85.0033 106.054 85.5853 105.938C86.1672 105.822 86.7018 105.536 87.1213 105.117C87.5409 104.697 87.8266 104.162 87.9424 103.58C88.0581 102.998 87.9987 102.395 87.7716 101.846C87.5446 101.298 87.1601 100.829 86.6667 100.5C86.1734 100.17 85.5933 99.994 85 99.994C84.2043 99.994 83.4413 100.31 82.8787 100.873C82.3161 101.436 82 102.199 82 102.995ZM124 102.995C124 102.401 123.824 101.821 123.494 101.328C123.165 100.834 122.696 100.45 122.148 100.222C121.6 99.9953 120.997 99.9359 120.415 100.052C119.833 100.167 119.298 100.453 118.879 100.873C118.459 101.293 118.173 101.827 118.058 102.409C117.942 102.991 118.001 103.595 118.228 104.143C118.455 104.691 118.84 105.16 119.333 105.49C119.827 105.82 120.407 105.996 121 105.996C121.796 105.996 122.559 105.679 123.121 105.117C123.684 104.554 124 103.791 124 102.995ZM127 81.9895H115C114.204 81.9895 113.441 82.3057 112.879 82.8684C112.316 83.4312 112 84.1944 112 84.9903C112 85.7861 112.316 86.5494 112.879 87.1121C113.441 87.6749 114.204 87.991 115 87.991H127C127.796 87.991 128.559 88.3072 129.121 88.8699C129.684 89.4327 130 90.1959 130 90.9918V114.998C130 115.794 129.684 116.557 129.121 117.12C128.559 117.682 127.796 117.999 127 117.999H79C78.2043 117.999 77.4413 117.682 76.8787 117.12C76.3161 116.557 76 115.794 76 114.998V90.9918C76 90.1959 76.3161 89.4327 76.8787 88.8699C77.4413 88.3072 78.2043 87.991 79 87.991H91C91.7956 87.991 92.5587 87.6749 93.1213 87.1121C93.6839 86.5494 94 85.7861 94 84.9903C94 84.1944 93.6839 83.4312 93.1213 82.8684C92.5587 82.3057 91.7956 81.9895 91 81.9895H79C76.6131 81.9895 74.3239 82.938 72.636 84.6262C70.9482 86.3145 70 88.6042 70 90.9918V114.998C70 117.385 70.9482 119.675 72.636 121.363C74.3239 123.052 76.6131 124 79 124H127C129.387 124 131.676 123.052 133.364 121.363C135.052 119.675 136 117.385 136 114.998V90.9918C136 88.6042 135.052 86.3145 133.364 84.6262C131.676 82.938 129.387 81.9895 127 81.9895Z" fill="#F0F0F0"/>
<path d="M234.738 50.4531V86H228.635V55.3359H212.839V86H206.735V50.4531H234.738ZM240.402 73.085V72.5234C240.402 70.6191 240.679 68.8532 241.232 67.2256C241.786 65.5817 242.583 64.1576 243.625 62.9531C244.683 61.7324 245.969 60.7884 247.482 60.1211C249.012 59.4375 250.738 59.0957 252.658 59.0957C254.595 59.0957 256.32 59.4375 257.834 60.1211C259.364 60.7884 260.658 61.7324 261.716 62.9531C262.774 64.1576 263.579 65.5817 264.133 67.2256C264.686 68.8532 264.963 70.6191 264.963 72.5234V73.085C264.963 74.9893 264.686 76.7552 264.133 78.3828C263.579 80.0104 262.774 81.4346 261.716 82.6553C260.658 83.8597 259.372 84.8037 257.858 85.4873C256.345 86.1546 254.628 86.4883 252.707 86.4883C250.77 86.4883 249.037 86.1546 247.507 85.4873C245.993 84.8037 244.707 83.8597 243.649 82.6553C242.591 81.4346 241.786 80.0104 241.232 78.3828C240.679 76.7552 240.402 74.9893 240.402 73.085ZM246.286 72.5234V73.085C246.286 74.2731 246.408 75.3962 246.652 76.4541C246.896 77.512 247.279 78.4398 247.8 79.2373C248.321 80.0348 248.988 80.6615 249.802 81.1172C250.616 81.5729 251.584 81.8008 252.707 81.8008C253.798 81.8008 254.742 81.5729 255.539 81.1172C256.353 80.6615 257.02 80.0348 257.541 79.2373C258.062 78.4398 258.444 77.512 258.688 76.4541C258.949 75.3962 259.079 74.2731 259.079 73.085V72.5234C259.079 71.3516 258.949 70.2448 258.688 69.2031C258.444 68.1452 258.054 67.2093 257.517 66.3955C256.996 65.5817 256.328 64.9469 255.515 64.4912C254.717 64.0192 253.765 63.7832 252.658 63.7832C251.551 63.7832 250.591 64.0192 249.777 64.4912C248.98 64.9469 248.321 65.5817 247.8 66.3955C247.279 67.2093 246.896 68.1452 246.652 69.2031C246.408 70.2448 246.286 71.3516 246.286 72.5234ZM287.619 59.584V64.2715H274.582V59.584H287.619ZM275.974 59.584V86H270.09V59.584H275.974ZM292.233 59.584V86H286.325V59.584H292.233ZM297.336 73.085V72.5234C297.336 70.6191 297.613 68.8532 298.166 67.2256C298.719 65.5817 299.517 64.1576 300.559 62.9531C301.617 61.7324 302.902 60.7884 304.416 60.1211C305.946 59.4375 307.671 59.0957 309.592 59.0957C311.529 59.0957 313.254 59.4375 314.768 60.1211C316.298 60.7884 317.591 61.7324 318.649 62.9531C319.707 64.1576 320.513 65.5817 321.066 67.2256C321.62 68.8532 321.896 70.6191 321.896 72.5234V73.085C321.896 74.9893 321.62 76.7552 321.066 78.3828C320.513 80.0104 319.707 81.4346 318.649 82.6553C317.591 83.8597 316.306 84.8037 314.792 85.4873C313.278 86.1546 311.561 86.4883 309.641 86.4883C307.704 86.4883 305.97 86.1546 304.44 85.4873C302.927 84.8037 301.641 83.8597 300.583 82.6553C299.525 81.4346 298.719 80.0104 298.166 78.3828C297.613 76.7552 297.336 74.9893 297.336 73.085ZM303.22 72.5234V73.085C303.22 74.2731 303.342 75.3962 303.586 76.4541C303.83 77.512 304.213 78.4398 304.733 79.2373C305.254 80.0348 305.922 80.6615 306.735 81.1172C307.549 81.5729 308.518 81.8008 309.641 81.8008C310.731 81.8008 311.675 81.5729 312.473 81.1172C313.286 80.6615 313.954 80.0348 314.475 79.2373C314.995 78.4398 315.378 77.512 315.622 76.4541C315.882 75.3962 316.013 74.2731 316.013 73.085V72.5234C316.013 71.3516 315.882 70.2448 315.622 69.2031C315.378 68.1452 314.987 67.2093 314.45 66.3955C313.929 65.5817 313.262 64.9469 312.448 64.4912C311.651 64.0192 310.699 63.7832 309.592 63.7832C308.485 63.7832 307.525 64.0192 306.711 64.4912C305.913 64.9469 305.254 65.5817 304.733 66.3955C304.213 67.2093 303.83 68.1452 303.586 69.2031C303.342 70.2448 303.22 71.3516 303.22 72.5234ZM344.187 59.584V64.2715H331.296V59.584H344.187ZM348.801 59.584V86H342.917V59.584H348.801ZM329.855 59.584H335.666L334.958 72.6455C334.86 74.5824 334.665 76.2913 334.372 77.7725C334.095 79.2373 333.721 80.4987 333.249 81.5566C332.777 82.5983 332.199 83.4447 331.516 84.0957C330.832 84.7467 330.035 85.2269 329.123 85.5361C328.212 85.8454 327.186 86 326.047 86H324.216L324.191 81.166L325.119 81.0928C325.721 81.0439 326.242 80.8893 326.682 80.6289C327.121 80.3522 327.495 79.9616 327.805 79.457C328.13 78.9525 328.391 78.3014 328.586 77.5039C328.798 76.7064 328.96 75.7624 329.074 74.6719C329.204 73.5814 329.302 72.3118 329.367 70.8633L329.855 59.584ZM373.093 70.6191V75.2578H359.421V70.6191H373.093ZM361.13 59.584V86H355.246V59.584H361.13ZM377.341 59.584V86H371.457V59.584H377.341ZM395.261 86.4883C393.308 86.4883 391.542 86.1709 389.963 85.5361C388.4 84.8851 387.066 83.9818 385.959 82.8262C384.868 81.6706 384.03 80.3115 383.444 78.749C382.858 77.1865 382.565 75.502 382.565 73.6953V72.7188C382.565 70.6517 382.867 68.7799 383.469 67.1035C384.071 65.4271 384.909 63.9948 385.983 62.8066C387.058 61.6022 388.327 60.6826 389.792 60.0479C391.257 59.4131 392.844 59.0957 394.553 59.0957C396.441 59.0957 398.093 59.4131 399.509 60.0479C400.925 60.6826 402.097 61.5778 403.024 62.7334C403.968 63.8727 404.668 65.2318 405.124 66.8105C405.596 68.3893 405.832 70.1309 405.832 72.0352V74.5498H385.422V70.3262H400.021V69.8623C399.989 68.8044 399.777 67.8115 399.387 66.8838C399.012 65.9561 398.435 65.2074 397.653 64.6377C396.872 64.068 395.83 63.7832 394.528 63.7832C393.552 63.7832 392.681 63.9948 391.916 64.418C391.167 64.8249 390.541 65.4189 390.036 66.2002C389.532 66.9814 389.141 67.9255 388.864 69.0322C388.604 70.1227 388.474 71.3516 388.474 72.7188V73.6953C388.474 74.8509 388.628 75.9251 388.938 76.918C389.263 77.8945 389.735 78.749 390.354 79.4814C390.972 80.2139 391.721 80.7917 392.6 81.2148C393.479 81.6217 394.479 81.8252 395.603 81.8252C397.019 81.8252 398.28 81.5404 399.387 80.9707C400.493 80.401 401.454 79.5954 402.268 78.5537L405.368 81.5566C404.799 82.3867 404.058 83.1842 403.146 83.9492C402.235 84.6979 401.12 85.3083 399.802 85.7803C398.5 86.2523 396.986 86.4883 395.261 86.4883ZM428.464 70.6191V75.2578H414.792V70.6191H428.464ZM416.501 59.584V86H410.617V59.584H416.501ZM432.712 59.584V86H426.828V59.584H432.712ZM445.065 77.4062L455.441 59.584H461.325V86H455.441V68.1533L445.065 86H439.182V59.584H445.065V77.4062ZM479.196 86.4883C477.243 86.4883 475.477 86.1709 473.898 85.5361C472.336 84.8851 471.001 83.9818 469.895 82.8262C468.804 81.6706 467.966 80.3115 467.38 78.749C466.794 77.1865 466.501 75.502 466.501 73.6953V72.7188C466.501 70.6517 466.802 68.7799 467.404 67.1035C468.007 65.4271 468.845 63.9948 469.919 62.8066C470.993 61.6022 472.263 60.6826 473.728 60.0479C475.192 59.4131 476.779 59.0957 478.488 59.0957C480.376 59.0957 482.028 59.4131 483.444 60.0479C484.86 60.6826 486.032 61.5778 486.96 62.7334C487.904 63.8727 488.604 65.2318 489.06 66.8105C489.532 68.3893 489.768 70.1309 489.768 72.0352V74.5498H469.357V70.3262H483.957V69.8623C483.924 68.8044 483.713 67.8115 483.322 66.8838C482.948 65.9561 482.37 65.2074 481.589 64.6377C480.808 64.068 479.766 63.7832 478.464 63.7832C477.487 63.7832 476.617 63.9948 475.852 64.418C475.103 64.8249 474.476 65.4189 473.972 66.2002C473.467 66.9814 473.076 67.9255 472.8 69.0322C472.539 70.1227 472.409 71.3516 472.409 72.7188V73.6953C472.409 74.8509 472.564 75.9251 472.873 76.918C473.199 77.8945 473.671 78.749 474.289 79.4814C474.908 80.2139 475.656 80.7917 476.535 81.2148C477.414 81.6217 478.415 81.8252 479.538 81.8252C480.954 81.8252 482.215 81.5404 483.322 80.9707C484.429 80.401 485.389 79.5954 486.203 78.5537L489.304 81.5566C488.734 82.3867 487.993 83.1842 487.082 83.9492C486.171 84.6979 485.056 85.3083 483.737 85.7803C482.435 86.2523 480.922 86.4883 479.196 86.4883Z" fill="#F0F0F0"/>
<path d="M227.121 111.984V139H222.482V115.695H210.478V139H205.839V111.984H227.121ZM241.13 139.371C239.646 139.371 238.303 139.13 237.104 138.647C235.916 138.153 234.902 137.466 234.061 136.588C233.232 135.71 232.595 134.677 232.149 133.489C231.704 132.302 231.481 131.021 231.481 129.648V128.906C231.481 127.335 231.71 125.913 232.168 124.639C232.626 123.365 233.263 122.276 234.079 121.373C234.896 120.458 235.86 119.759 236.974 119.276C238.087 118.794 239.293 118.553 240.592 118.553C242.027 118.553 243.282 118.794 244.358 119.276C245.435 119.759 246.325 120.439 247.03 121.317C247.748 122.183 248.28 123.216 248.626 124.416C248.985 125.616 249.164 126.939 249.164 128.387V130.298H233.652V127.088H244.748V126.735C244.723 125.931 244.562 125.177 244.266 124.472C243.981 123.767 243.542 123.198 242.948 122.765C242.354 122.332 241.563 122.115 240.573 122.115C239.831 122.115 239.169 122.276 238.588 122.598C238.019 122.907 237.543 123.358 237.159 123.952C236.776 124.546 236.479 125.263 236.269 126.104C236.071 126.933 235.972 127.867 235.972 128.906V129.648C235.972 130.527 236.089 131.343 236.324 132.098C236.572 132.84 236.93 133.489 237.4 134.046C237.87 134.603 238.439 135.042 239.107 135.363C239.775 135.673 240.536 135.827 241.39 135.827C242.466 135.827 243.424 135.611 244.266 135.178C245.107 134.745 245.837 134.132 246.455 133.341L248.812 135.623C248.379 136.254 247.816 136.86 247.123 137.441C246.43 138.01 245.583 138.474 244.581 138.833C243.591 139.192 242.441 139.371 241.13 139.371ZM257.143 122.783V146.719H252.671V118.924H256.79L257.143 122.783ZM270.224 128.776V129.166C270.224 130.626 270.05 131.98 269.704 133.229C269.37 134.466 268.869 135.549 268.201 136.477C267.546 137.392 266.735 138.103 265.771 138.61C264.806 139.118 263.692 139.371 262.431 139.371C261.181 139.371 260.087 139.142 259.146 138.685C258.219 138.215 257.433 137.553 256.79 136.699C256.147 135.846 255.627 134.844 255.231 133.693C254.848 132.531 254.576 131.257 254.415 129.871V128.368C254.576 126.896 254.848 125.56 255.231 124.36C255.627 123.16 256.147 122.128 256.79 121.262C257.433 120.396 258.219 119.728 259.146 119.258C260.074 118.788 261.157 118.553 262.394 118.553C263.655 118.553 264.775 118.8 265.752 119.295C266.729 119.777 267.552 120.47 268.22 121.373C268.888 122.264 269.389 123.34 269.723 124.602C270.057 125.851 270.224 127.243 270.224 128.776ZM265.752 129.166V128.776C265.752 127.849 265.665 126.989 265.492 126.197C265.319 125.393 265.047 124.688 264.676 124.082C264.305 123.476 263.828 123.006 263.247 122.672C262.678 122.326 261.992 122.152 261.188 122.152C260.396 122.152 259.715 122.288 259.146 122.561C258.577 122.82 258.101 123.185 257.718 123.655C257.334 124.125 257.037 124.676 256.827 125.307C256.617 125.925 256.468 126.599 256.382 127.329V130.929C256.53 131.819 256.784 132.636 257.143 133.378C257.501 134.12 258.008 134.714 258.664 135.159C259.332 135.592 260.186 135.809 261.225 135.809C262.029 135.809 262.715 135.635 263.284 135.289C263.853 134.943 264.317 134.466 264.676 133.86C265.047 133.242 265.319 132.531 265.492 131.727C265.665 130.923 265.752 130.069 265.752 129.166ZM282.878 139.371C281.394 139.371 280.051 139.13 278.852 138.647C277.664 138.153 276.65 137.466 275.809 136.588C274.98 135.71 274.343 134.677 273.897 133.489C273.452 132.302 273.229 131.021 273.229 129.648V128.906C273.229 127.335 273.458 125.913 273.916 124.639C274.374 123.365 275.011 122.276 275.827 121.373C276.644 120.458 277.608 119.759 278.722 119.276C279.835 118.794 281.041 118.553 282.34 118.553C283.775 118.553 285.03 118.794 286.106 119.276C287.183 119.759 288.073 120.439 288.778 121.317C289.496 122.183 290.028 123.216 290.374 124.416C290.733 125.616 290.912 126.939 290.912 128.387V130.298H275.4V127.088H286.496V126.735C286.471 125.931 286.311 125.177 286.014 124.472C285.729 123.767 285.29 123.198 284.696 122.765C284.103 122.332 283.311 122.115 282.321 122.115C281.579 122.115 280.917 122.276 280.336 122.598C279.767 122.907 279.291 123.358 278.907 123.952C278.524 124.546 278.227 125.263 278.017 126.104C277.819 126.933 277.72 127.867 277.72 128.906V129.648C277.72 130.527 277.837 131.343 278.072 132.098C278.32 132.84 278.678 133.489 279.148 134.046C279.618 134.603 280.188 135.042 280.855 135.363C281.523 135.673 282.284 135.827 283.138 135.827C284.214 135.827 285.173 135.611 286.014 135.178C286.855 134.745 287.585 134.132 288.203 133.341L290.56 135.623C290.127 136.254 289.564 136.86 288.871 137.441C288.178 138.01 287.331 138.474 286.329 138.833C285.34 139.192 284.189 139.371 282.878 139.371ZM305.719 134.974V125.399C305.719 124.682 305.589 124.063 305.329 123.544C305.069 123.024 304.674 122.622 304.142 122.338C303.622 122.053 302.966 121.911 302.175 121.911C301.445 121.911 300.814 122.035 300.282 122.282C299.75 122.53 299.336 122.864 299.039 123.284C298.742 123.705 298.594 124.181 298.594 124.713H294.141C294.141 123.921 294.332 123.154 294.716 122.412C295.099 121.67 295.656 121.008 296.386 120.427C297.116 119.845 297.988 119.388 299.002 119.054C300.016 118.72 301.154 118.553 302.416 118.553C303.925 118.553 305.261 118.806 306.424 119.313C307.599 119.821 308.521 120.588 309.188 121.614C309.869 122.629 310.209 123.903 310.209 125.437V134.361C310.209 135.277 310.271 136.099 310.395 136.829C310.531 137.547 310.722 138.171 310.97 138.703V139H306.387C306.176 138.518 306.009 137.905 305.886 137.163C305.774 136.409 305.719 135.679 305.719 134.974ZM306.368 126.791L306.405 129.556H303.195C302.367 129.556 301.637 129.636 301.006 129.797C300.375 129.945 299.849 130.168 299.429 130.465C299.008 130.762 298.693 131.12 298.482 131.541C298.272 131.962 298.167 132.438 298.167 132.97C298.167 133.502 298.291 133.99 298.538 134.436C298.785 134.868 299.144 135.209 299.614 135.456C300.097 135.703 300.678 135.827 301.358 135.827C302.274 135.827 303.072 135.642 303.752 135.271C304.445 134.887 304.989 134.423 305.385 133.879C305.781 133.322 305.991 132.797 306.016 132.302L307.463 134.287C307.314 134.794 307.061 135.339 306.702 135.92C306.343 136.501 305.873 137.058 305.292 137.59C304.723 138.109 304.036 138.536 303.232 138.87C302.441 139.204 301.525 139.371 300.486 139.371C299.175 139.371 298.006 139.111 296.979 138.592C295.953 138.06 295.149 137.349 294.567 136.458C293.986 135.555 293.695 134.535 293.695 133.396C293.695 132.333 293.893 131.393 294.289 130.576C294.697 129.747 295.291 129.055 296.07 128.498C296.862 127.941 297.827 127.521 298.965 127.236C300.103 126.939 301.402 126.791 302.861 126.791H306.368ZM318.521 118.924H322.993L322.771 125.993C322.709 128.047 322.474 129.809 322.065 131.281C321.657 132.753 321.125 133.996 320.47 135.011C319.814 136.013 319.072 136.835 318.243 137.479C317.427 138.122 316.567 138.629 315.664 139H314.347V135.475L314.978 135.438C315.509 134.868 315.967 134.299 316.351 133.73C316.746 133.149 317.08 132.512 317.353 131.819C317.625 131.114 317.835 130.292 317.983 129.352C318.144 128.411 318.249 127.292 318.299 125.993L318.521 118.924ZM319.709 118.924H332.438V139H327.984V122.709H319.709V118.924ZM313.326 135.438H335.184V144.975H330.712V139H317.854V144.975H313.308L313.326 135.438ZM342.754 122.783V146.719H338.282V118.924H342.401L342.754 122.783ZM355.835 128.776V129.166C355.835 130.626 355.662 131.98 355.315 133.229C354.981 134.466 354.48 135.549 353.812 136.477C353.157 137.392 352.347 138.103 351.382 138.61C350.417 139.118 349.304 139.371 348.042 139.371C346.793 139.371 345.698 139.142 344.758 138.685C343.83 138.215 343.045 137.553 342.401 136.699C341.758 135.846 341.239 134.844 340.843 133.693C340.459 132.531 340.187 131.257 340.026 129.871V128.368C340.187 126.896 340.459 125.56 340.843 124.36C341.239 123.16 341.758 122.128 342.401 121.262C343.045 120.396 343.83 119.728 344.758 119.258C345.686 118.788 346.768 118.553 348.005 118.553C349.267 118.553 350.386 118.8 351.363 119.295C352.34 119.777 353.163 120.47 353.831 121.373C354.499 122.264 355 123.34 355.334 124.602C355.668 125.851 355.835 127.243 355.835 128.776ZM351.363 129.166V128.776C351.363 127.849 351.277 126.989 351.104 126.197C350.93 125.393 350.658 124.688 350.287 124.082C349.916 123.476 349.44 123.006 348.858 122.672C348.289 122.326 347.603 122.152 346.799 122.152C346.007 122.152 345.327 122.288 344.758 122.561C344.189 122.82 343.713 123.185 343.329 123.655C342.946 124.125 342.649 124.676 342.438 125.307C342.228 125.925 342.08 126.599 341.993 127.329V130.929C342.142 131.819 342.395 132.636 342.754 133.378C343.113 134.12 343.62 134.714 344.275 135.159C344.943 135.592 345.797 135.809 346.836 135.809C347.64 135.809 348.326 135.635 348.896 135.289C349.465 134.943 349.928 134.466 350.287 133.86C350.658 133.242 350.93 132.531 351.104 131.727C351.277 130.923 351.363 130.069 351.363 129.166ZM368.489 139.371C367.005 139.371 365.663 139.13 364.463 138.647C363.275 138.153 362.261 137.466 361.42 136.588C360.591 135.71 359.954 134.677 359.509 133.489C359.063 132.302 358.841 131.021 358.841 129.648V128.906C358.841 127.335 359.07 125.913 359.527 124.639C359.985 123.365 360.622 122.276 361.438 121.373C362.255 120.458 363.22 119.759 364.333 119.276C365.446 118.794 366.652 118.553 367.951 118.553C369.386 118.553 370.642 118.794 371.718 119.276C372.794 119.759 373.685 120.439 374.39 121.317C375.107 122.183 375.639 123.216 375.985 124.416C376.344 125.616 376.523 126.939 376.523 128.387V130.298H361.012V127.088H372.107V126.735C372.083 125.931 371.922 125.177 371.625 124.472C371.34 123.767 370.901 123.198 370.308 122.765C369.714 122.332 368.922 122.115 367.933 122.115C367.19 122.115 366.529 122.276 365.947 122.598C365.378 122.907 364.902 123.358 364.519 123.952C364.135 124.546 363.838 125.263 363.628 126.104C363.43 126.933 363.331 127.867 363.331 128.906V129.648C363.331 130.527 363.449 131.343 363.684 132.098C363.931 132.84 364.29 133.489 364.76 134.046C365.23 134.603 365.799 135.042 366.467 135.363C367.135 135.673 367.896 135.827 368.749 135.827C369.825 135.827 370.784 135.611 371.625 135.178C372.466 134.745 373.196 134.132 373.814 133.341L376.171 135.623C375.738 136.254 375.175 136.86 374.482 137.441C373.79 138.01 372.942 138.474 371.94 138.833C370.951 139.192 369.8 139.371 368.489 139.371ZM388.213 135.809C388.943 135.809 389.598 135.666 390.18 135.382C390.773 135.085 391.25 134.677 391.608 134.157C391.979 133.638 392.184 133.038 392.221 132.357H396.433C396.408 133.656 396.024 134.838 395.282 135.901C394.54 136.965 393.557 137.812 392.332 138.443C391.107 139.062 389.753 139.371 388.269 139.371C386.735 139.371 385.399 139.111 384.261 138.592C383.123 138.06 382.176 137.33 381.422 136.402C380.667 135.475 380.098 134.405 379.715 133.192C379.344 131.98 379.158 130.681 379.158 129.296V128.646C379.158 127.261 379.344 125.962 379.715 124.75C380.098 123.525 380.667 122.449 381.422 121.521C382.176 120.594 383.123 119.87 384.261 119.351C385.399 118.819 386.729 118.553 388.25 118.553C389.858 118.553 391.268 118.874 392.48 119.518C393.693 120.148 394.645 121.033 395.338 122.171C396.043 123.297 396.408 124.608 396.433 126.104H392.221C392.184 125.362 391.998 124.694 391.664 124.101C391.342 123.494 390.885 123.012 390.291 122.653C389.71 122.295 389.011 122.115 388.194 122.115C387.291 122.115 386.543 122.301 385.949 122.672C385.355 123.031 384.892 123.525 384.558 124.156C384.224 124.775 383.982 125.474 383.834 126.253C383.698 127.02 383.63 127.818 383.63 128.646V129.296C383.63 130.125 383.698 130.929 383.834 131.708C383.97 132.487 384.205 133.186 384.539 133.805C384.885 134.411 385.355 134.899 385.949 135.271C386.543 135.629 387.298 135.809 388.213 135.809ZM411.184 134.974V125.399C411.184 124.682 411.054 124.063 410.794 123.544C410.534 123.024 410.138 122.622 409.606 122.338C409.087 122.053 408.431 121.911 407.64 121.911C406.91 121.911 406.279 122.035 405.747 122.282C405.215 122.53 404.801 122.864 404.504 123.284C404.207 123.705 404.059 124.181 404.059 124.713H399.605C399.605 123.921 399.797 123.154 400.181 122.412C400.564 121.67 401.121 121.008 401.851 120.427C402.58 119.845 403.452 119.388 404.467 119.054C405.481 118.72 406.619 118.553 407.881 118.553C409.39 118.553 410.726 118.806 411.889 119.313C413.064 119.821 413.985 120.588 414.653 121.614C415.334 122.629 415.674 123.903 415.674 125.437V134.361C415.674 135.277 415.736 136.099 415.859 136.829C415.995 137.547 416.187 138.171 416.435 138.703V139H411.852C411.641 138.518 411.474 137.905 411.351 137.163C411.239 136.409 411.184 135.679 411.184 134.974ZM411.833 126.791L411.87 129.556H408.66C407.831 129.556 407.102 129.636 406.471 129.797C405.84 129.945 405.314 130.168 404.894 130.465C404.473 130.762 404.158 131.12 403.947 131.541C403.737 131.962 403.632 132.438 403.632 132.97C403.632 133.502 403.756 133.99 404.003 134.436C404.25 134.868 404.609 135.209 405.079 135.456C405.562 135.703 406.143 135.827 406.823 135.827C407.739 135.827 408.536 135.642 409.217 135.271C409.91 134.887 410.454 134.423 410.85 133.879C411.245 133.322 411.456 132.797 411.48 132.302L412.928 134.287C412.779 134.794 412.526 135.339 412.167 135.92C411.808 136.501 411.338 137.058 410.757 137.59C410.188 138.109 409.501 138.536 408.697 138.87C407.906 139.204 406.99 139.371 405.951 139.371C404.64 139.371 403.471 139.111 402.444 138.592C401.418 138.06 400.614 137.349 400.032 136.458C399.451 135.555 399.16 134.535 399.16 133.396C399.16 132.333 399.358 131.393 399.754 130.576C400.162 129.747 400.756 129.055 401.535 128.498C402.327 127.941 403.292 127.521 404.43 127.236C405.568 126.939 406.867 126.791 408.326 126.791H411.833ZM420.498 139V118.924H424.97V135.438H432.837V118.924H437.327V139H420.498ZM440.055 135.456L439.702 144.956H435.602V139H433.189V135.456H440.055ZM447.829 132.469L455.715 118.924H460.187V139H455.715V125.437L447.829 139H443.357V118.924H447.829V132.469ZM469.148 129.185H473.787L468.091 139H463.471L469.148 129.185ZM472.414 118.924H481.023V139H476.57V122.449H472.414C471.573 122.449 470.88 122.598 470.336 122.895C469.792 123.179 469.39 123.556 469.13 124.026C468.87 124.484 468.74 124.954 468.74 125.437C468.74 125.919 468.858 126.383 469.093 126.828C469.34 127.273 469.717 127.638 470.225 127.923C470.744 128.207 471.394 128.35 472.173 128.35H478.073V131.615H472.173C470.936 131.615 469.829 131.461 468.852 131.151C467.874 130.83 467.046 130.391 466.365 129.834C465.685 129.265 465.165 128.603 464.807 127.849C464.448 127.082 464.269 126.247 464.269 125.344C464.269 124.416 464.454 123.562 464.825 122.783C465.196 122.004 465.728 121.324 466.421 120.742C467.126 120.161 467.979 119.715 468.981 119.406C469.996 119.085 471.14 118.924 472.414 118.924ZM509.171 127.311V130.836H498.78V127.311H509.171ZM500.079 118.924V139H495.607V118.924H500.079ZM512.399 118.924V139H507.928V118.924H512.399ZM528.486 134.974V125.399C528.486 124.682 528.356 124.063 528.097 123.544C527.837 123.024 527.441 122.622 526.909 122.338C526.39 122.053 525.734 121.911 524.942 121.911C524.213 121.911 523.582 122.035 523.05 122.282C522.518 122.53 522.104 122.864 521.807 123.284C521.51 123.705 521.361 124.181 521.361 124.713H516.908C516.908 123.921 517.1 123.154 517.483 122.412C517.867 121.67 518.424 121.008 519.153 120.427C519.883 119.845 520.755 119.388 521.77 119.054C522.784 118.72 523.922 118.553 525.184 118.553C526.693 118.553 528.029 118.806 529.191 119.313C530.367 119.821 531.288 120.588 531.956 121.614C532.636 122.629 532.977 123.903 532.977 125.437V134.361C532.977 135.277 533.038 136.099 533.162 136.829C533.298 137.547 533.49 138.171 533.737 138.703V139H529.154C528.944 138.518 528.777 137.905 528.653 137.163C528.542 136.409 528.486 135.679 528.486 134.974ZM529.136 126.791L529.173 129.556H525.963C525.134 129.556 524.404 129.636 523.773 129.797C523.143 129.945 522.617 130.168 522.196 130.465C521.776 130.762 521.46 131.12 521.25 131.541C521.04 131.962 520.935 132.438 520.935 132.97C520.935 133.502 521.058 133.99 521.306 134.436C521.553 134.868 521.912 135.209 522.382 135.456C522.864 135.703 523.446 135.827 524.126 135.827C525.041 135.827 525.839 135.642 526.52 135.271C527.212 134.887 527.757 134.423 528.152 133.879C528.548 133.322 528.758 132.797 528.783 132.302L530.23 134.287C530.082 134.794 529.828 135.339 529.47 135.92C529.111 136.501 528.641 137.058 528.06 137.59C527.491 138.109 526.804 138.536 526 138.87C525.208 139.204 524.293 139.371 523.254 139.371C521.943 139.371 520.774 139.111 519.747 138.592C518.72 138.06 517.916 137.349 517.335 136.458C516.754 135.555 516.463 134.535 516.463 133.396C516.463 132.333 516.661 131.393 517.057 130.576C517.465 129.747 518.059 129.055 518.838 128.498C519.63 127.941 520.594 127.521 521.732 127.236C522.87 126.939 524.169 126.791 525.629 126.791H529.136ZM563.518 130.205H568.156C568.008 131.974 567.513 133.551 566.672 134.937C565.831 136.31 564.649 137.392 563.128 138.184C561.606 138.975 559.757 139.371 557.58 139.371C555.91 139.371 554.407 139.074 553.071 138.48C551.735 137.874 550.591 137.021 549.639 135.92C548.686 134.807 547.956 133.465 547.449 131.894C546.954 130.323 546.707 128.566 546.707 126.624V124.379C546.707 122.437 546.961 120.68 547.468 119.109C547.987 117.538 548.729 116.196 549.694 115.083C550.659 113.957 551.816 113.098 553.164 112.504C554.525 111.91 556.052 111.613 557.747 111.613C559.899 111.613 561.718 112.009 563.202 112.801C564.687 113.592 565.837 114.687 566.653 116.085C567.482 117.483 567.989 119.085 568.175 120.891H563.536C563.412 119.728 563.14 118.732 562.72 117.903C562.312 117.075 561.705 116.444 560.901 116.011C560.097 115.565 559.046 115.343 557.747 115.343C556.683 115.343 555.756 115.541 554.964 115.937C554.172 116.332 553.51 116.914 552.979 117.681C552.447 118.448 552.045 119.394 551.772 120.52C551.513 121.633 551.383 122.907 551.383 124.342V126.624C551.383 127.985 551.5 129.222 551.735 130.335C551.983 131.436 552.354 132.382 552.849 133.174C553.356 133.965 553.999 134.578 554.778 135.011C555.558 135.444 556.492 135.66 557.58 135.66C558.904 135.66 559.974 135.45 560.79 135.029C561.619 134.609 562.243 133.996 562.664 133.192C563.097 132.376 563.382 131.38 563.518 130.205ZM576.432 122.746V139H571.96V118.924H576.228L576.432 122.746ZM582.573 118.794L582.536 122.95C582.264 122.901 581.967 122.864 581.646 122.839C581.336 122.814 581.027 122.802 580.718 122.802C579.951 122.802 579.277 122.913 578.695 123.136C578.114 123.346 577.625 123.655 577.229 124.063C576.846 124.459 576.549 124.942 576.339 125.511C576.129 126.08 576.005 126.717 575.968 127.422L574.947 127.496C574.947 126.234 575.071 125.065 575.318 123.989C575.566 122.913 575.937 121.967 576.432 121.15C576.939 120.334 577.57 119.697 578.324 119.239C579.091 118.782 579.976 118.553 580.978 118.553C581.25 118.553 581.54 118.577 581.85 118.627C582.171 118.676 582.412 118.732 582.573 118.794ZM591.535 136.811L596.99 118.924H601.777L593.725 142.062C593.539 142.556 593.298 143.094 593.001 143.676C592.704 144.257 592.314 144.808 591.832 145.327C591.362 145.859 590.774 146.286 590.069 146.607C589.364 146.941 588.511 147.108 587.509 147.108C587.113 147.108 586.729 147.071 586.358 146.997C586 146.935 585.66 146.867 585.338 146.793L585.319 143.379C585.443 143.391 585.591 143.404 585.765 143.416C585.95 143.428 586.099 143.435 586.21 143.435C586.952 143.435 587.571 143.342 588.065 143.156C588.56 142.983 588.962 142.699 589.271 142.303C589.593 141.907 589.865 141.375 590.088 140.707L591.535 136.811ZM588.455 118.924L593.224 133.953L594.021 138.666L590.923 139.464L583.631 118.924H588.455ZM608.828 122.783V146.719H604.356V118.924H608.476L608.828 122.783ZM621.909 128.776V129.166C621.909 130.626 621.736 131.98 621.39 133.229C621.056 134.466 620.555 135.549 619.887 136.477C619.231 137.392 618.421 138.103 617.456 138.61C616.491 139.118 615.378 139.371 614.116 139.371C612.867 139.371 611.772 139.142 610.832 138.685C609.904 138.215 609.119 137.553 608.476 136.699C607.832 135.846 607.313 134.844 606.917 133.693C606.534 132.531 606.261 131.257 606.101 129.871V128.368C606.261 126.896 606.534 125.56 606.917 124.36C607.313 123.16 607.832 122.128 608.476 121.262C609.119 120.396 609.904 119.728 610.832 119.258C611.76 118.788 612.842 118.553 614.079 118.553C615.341 118.553 616.46 118.8 617.438 119.295C618.415 119.777 619.237 120.47 619.905 121.373C620.573 122.264 621.074 123.34 621.408 124.602C621.742 125.851 621.909 127.243 621.909 128.776ZM617.438 129.166V128.776C617.438 127.849 617.351 126.989 617.178 126.197C617.005 125.393 616.732 124.688 616.361 124.082C615.99 123.476 615.514 123.006 614.933 122.672C614.364 122.326 613.677 122.152 612.873 122.152C612.081 122.152 611.401 122.288 610.832 122.561C610.263 122.82 609.787 123.185 609.403 123.655C609.02 124.125 608.723 124.676 608.513 125.307C608.302 125.925 608.154 126.599 608.067 127.329V130.929C608.216 131.819 608.469 132.636 608.828 133.378C609.187 134.12 609.694 134.714 610.35 135.159C611.018 135.592 611.871 135.809 612.91 135.809C613.714 135.809 614.401 135.635 614.97 135.289C615.539 134.943 616.003 134.466 616.361 133.86C616.732 133.242 617.005 132.531 617.178 131.727C617.351 130.923 617.438 130.069 617.438 129.166ZM634.916 118.924V122.189H623.598V118.924H634.916ZM626.863 114.007H631.335V133.452C631.335 134.071 631.422 134.547 631.595 134.881C631.78 135.202 632.034 135.419 632.355 135.53C632.677 135.642 633.054 135.697 633.487 135.697C633.797 135.697 634.093 135.679 634.378 135.642C634.662 135.604 634.891 135.567 635.064 135.53L635.083 138.944C634.712 139.056 634.279 139.155 633.784 139.241C633.302 139.328 632.745 139.371 632.114 139.371C631.088 139.371 630.178 139.192 629.387 138.833C628.595 138.462 627.977 137.862 627.531 137.033C627.086 136.204 626.863 135.104 626.863 133.73V114.007ZM637.068 129.185V128.758C637.068 127.311 637.279 125.968 637.699 124.731C638.12 123.482 638.726 122.4 639.518 121.484C640.322 120.557 641.299 119.839 642.449 119.332C643.612 118.812 644.923 118.553 646.383 118.553C647.855 118.553 649.166 118.812 650.316 119.332C651.479 119.839 652.463 120.557 653.267 121.484C654.071 122.4 654.683 123.482 655.104 124.731C655.524 125.968 655.734 127.311 655.734 128.758V129.185C655.734 130.632 655.524 131.974 655.104 133.211C654.683 134.448 654.071 135.53 653.267 136.458C652.463 137.373 651.485 138.091 650.335 138.61C649.185 139.118 647.88 139.371 646.42 139.371C644.948 139.371 643.631 139.118 642.468 138.61C641.317 138.091 640.34 137.373 639.536 136.458C638.732 135.53 638.12 134.448 637.699 133.211C637.279 131.974 637.068 130.632 637.068 129.185ZM641.54 128.758V129.185C641.54 130.088 641.633 130.941 641.818 131.745C642.004 132.549 642.295 133.254 642.69 133.86C643.086 134.466 643.593 134.943 644.212 135.289C644.83 135.635 645.566 135.809 646.42 135.809C647.249 135.809 647.966 135.635 648.572 135.289C649.191 134.943 649.698 134.466 650.094 133.86C650.49 133.254 650.78 132.549 650.966 131.745C651.164 130.941 651.263 130.088 651.263 129.185V128.758C651.263 127.867 651.164 127.026 650.966 126.234C650.78 125.43 650.483 124.719 650.075 124.101C649.679 123.482 649.172 123 648.554 122.653C647.948 122.295 647.224 122.115 646.383 122.115C645.542 122.115 644.812 122.295 644.193 122.653C643.587 123 643.086 123.482 642.69 124.101C642.295 124.719 642.004 125.43 641.818 126.234C641.633 127.026 641.54 127.867 641.54 128.758ZM670.059 126.791H663.175L663.138 123.396H669.149C670.164 123.396 671.023 123.247 671.729 122.95C672.446 122.641 672.99 122.202 673.361 121.633C673.732 121.051 673.918 120.353 673.918 119.536C673.918 118.633 673.745 117.897 673.398 117.328C673.052 116.759 672.52 116.345 671.803 116.085C671.098 115.825 670.195 115.695 669.094 115.695H664.585V139H659.928V111.984H669.094C670.578 111.984 671.902 112.127 673.064 112.411C674.24 112.696 675.235 113.141 676.052 113.747C676.881 114.341 677.505 115.095 677.926 116.011C678.359 116.926 678.575 118.015 678.575 119.276C678.575 120.39 678.309 121.41 677.777 122.338C677.245 123.253 676.46 124.002 675.421 124.583C674.382 125.164 673.089 125.511 671.543 125.622L670.059 126.791ZM669.854 139H661.709L663.806 135.308H669.854C670.906 135.308 671.784 135.134 672.489 134.788C673.194 134.429 673.72 133.941 674.066 133.322C674.425 132.691 674.604 131.955 674.604 131.114C674.604 130.236 674.45 129.475 674.141 128.832C673.831 128.176 673.343 127.675 672.675 127.329C672.007 126.97 671.135 126.791 670.059 126.791H664.826L664.863 123.396H671.673L672.73 124.676C674.215 124.725 675.433 125.053 676.386 125.659C677.351 126.265 678.068 127.051 678.538 128.016C679.008 128.98 679.243 130.02 679.243 131.133C679.243 132.852 678.866 134.293 678.111 135.456C677.369 136.619 676.299 137.503 674.901 138.109C673.504 138.703 671.821 139 669.854 139ZM682.639 129.185V128.758C682.639 127.311 682.849 125.968 683.27 124.731C683.69 123.482 684.296 122.4 685.088 121.484C685.892 120.557 686.869 119.839 688.02 119.332C689.182 118.812 690.493 118.553 691.953 118.553C693.425 118.553 694.736 118.812 695.887 119.332C697.049 119.839 698.033 120.557 698.837 121.484C699.641 122.4 700.253 123.482 700.674 124.731C701.094 125.968 701.305 127.311 701.305 128.758V129.185C701.305 130.632 701.094 131.974 700.674 133.211C700.253 134.448 699.641 135.53 698.837 136.458C698.033 137.373 697.056 138.091 695.905 138.61C694.755 139.118 693.45 139.371 691.99 139.371C690.518 139.371 689.201 139.118 688.038 138.61C686.888 138.091 685.91 137.373 685.106 136.458C684.302 135.53 683.69 134.448 683.27 133.211C682.849 131.974 682.639 130.632 682.639 129.185ZM687.11 128.758V129.185C687.11 130.088 687.203 130.941 687.389 131.745C687.574 132.549 687.865 133.254 688.261 133.86C688.657 134.466 689.164 134.943 689.782 135.289C690.401 135.635 691.137 135.809 691.99 135.809C692.819 135.809 693.536 135.635 694.143 135.289C694.761 134.943 695.268 134.466 695.664 133.86C696.06 133.254 696.351 132.549 696.536 131.745C696.734 130.941 696.833 130.088 696.833 129.185V128.758C696.833 127.867 696.734 127.026 696.536 126.234C696.351 125.43 696.054 124.719 695.646 124.101C695.25 123.482 694.743 123 694.124 122.653C693.518 122.295 692.794 122.115 691.953 122.115C691.112 122.115 690.382 122.295 689.764 122.653C689.158 123 688.657 123.482 688.261 124.101C687.865 124.719 687.574 125.43 687.389 126.234C687.203 127.026 687.11 127.867 687.11 128.758ZM714.256 118.924V122.189H702.938V118.924H714.256ZM706.203 114.007H710.675V133.452C710.675 134.071 710.761 134.547 710.935 134.881C711.12 135.202 711.374 135.419 711.695 135.53C712.017 135.642 712.394 135.697 712.827 135.697C713.136 135.697 713.433 135.679 713.718 135.642C714.002 135.604 714.231 135.567 714.404 135.53L714.423 138.944C714.052 139.056 713.619 139.155 713.124 139.241C712.642 139.328 712.085 139.371 711.454 139.371C710.427 139.371 709.518 139.192 708.727 138.833C707.935 138.462 707.316 137.862 706.871 137.033C706.426 136.204 706.203 135.104 706.203 133.73V114.007Z" fill="#A1A1A1"/>
<path fill-rule="evenodd" clip-rule="evenodd" d="M1086.86 97.0769L1068 113.576L1063.29 109.452L1079.79 95.0148L1063.29 80.5773L1068 76.4531L1086.86 92.9527C1087.48 93.4997 1087.83 94.2414 1087.83 95.0148C1087.83 95.7882 1087.48 96.5299 1086.86 97.0769Z" fill="#F0F0F0"/>
<defs>
<linearGradient id="paint0_linear_3188_8501" x1="0" y1="95" x2="1130" y2="95" gradientUnits="userSpaceOnUse">
<stop stop-color="#212121"/>
<stop offset="1" stop-color="#131313"/>
</linearGradient>
</defs>
</svg>
