<svg width="5650" height="500" viewBox="0 0 5650 500" fill="none" xmlns="http://www.w3.org/2000/svg">
<rect width="5650" height="500" rx="125" fill="url(#paint0_linear_3551_12288)"/>
<path d="M158.012 148.308C150.826 148.308 145 154.133 145 161.32V231.665C145 238.851 150.826 244.677 158.012 244.677H165.988C173.174 244.677 178.789 238.602 181.769 232.063C186.996 220.596 199.052 212.277 213 212.277H227.521C238.586 212.277 244.601 225.212 237.471 233.674L231.7 240.523C206.511 270.211 187.133 303.686 175.256 339.847C172.597 347.941 178.821 356 187.341 356H267.988C275.174 356 280.966 350.17 281.322 342.993C283.447 300.16 296.089 258.389 319.25 221.415L344.351 179.358C347.145 174.678 346.725 168.753 343.3 164.513L330.017 148.068C326.204 143.348 319.634 141.889 314.182 144.554L313.3 144.985C286.95 157.446 257.2 159.938 229.15 152.462C218.1 149.138 207.9 148.308 196.85 148.308H158.012Z" stroke="white" stroke-width="24" stroke-miterlimit="10" stroke-linecap="round" stroke-linejoin="round"/>
<path d="M605.332 184.041C605.332 181.404 604.922 179.061 604.102 177.01C603.34 174.959 601.963 173.084 599.971 171.385C597.979 169.686 595.166 168.045 591.533 166.463C587.959 164.822 583.389 163.152 577.822 161.453C571.729 159.578 566.104 157.498 560.947 155.213C555.85 152.869 551.396 150.174 547.588 147.127C543.779 144.021 540.82 140.477 538.711 136.492C536.602 132.449 535.547 127.791 535.547 122.518C535.547 117.303 536.631 112.557 538.799 108.279C541.025 104.002 544.16 100.311 548.203 97.2051C552.305 94.041 557.139 91.6094 562.705 89.9102C568.271 88.1523 574.424 87.2734 581.162 87.2734C590.654 87.2734 598.828 89.0312 605.684 92.5469C612.598 96.0625 617.9 100.779 621.592 106.697C625.342 112.615 627.217 119.148 627.217 126.297H605.332C605.332 122.078 604.424 118.357 602.607 115.135C600.85 111.854 598.154 109.275 594.521 107.4C590.947 105.525 586.406 104.588 580.898 104.588C575.684 104.588 571.348 105.379 567.891 106.961C564.434 108.543 561.855 110.682 560.156 113.377C558.457 116.072 557.607 119.119 557.607 122.518C557.607 124.92 558.164 127.117 559.277 129.109C560.391 131.043 562.09 132.859 564.375 134.559C566.66 136.199 569.531 137.752 572.988 139.217C576.445 140.682 580.518 142.088 585.205 143.436C592.295 145.545 598.477 147.889 603.75 150.467C609.023 152.986 613.418 155.857 616.934 159.08C620.449 162.303 623.086 165.965 624.844 170.066C626.602 174.109 627.48 178.709 627.48 183.865C627.48 189.256 626.396 194.119 624.229 198.455C622.061 202.732 618.955 206.395 614.912 209.441C610.928 212.43 606.123 214.744 600.498 216.385C594.932 217.967 588.721 218.758 581.865 218.758C575.713 218.758 569.648 217.938 563.672 216.297C557.754 214.656 552.363 212.166 547.5 208.826C542.637 205.428 538.77 201.209 535.898 196.17C533.027 191.072 531.592 185.125 531.592 178.328H553.652C553.652 182.488 554.355 186.033 555.762 188.963C557.227 191.893 559.248 194.295 561.826 196.17C564.404 197.986 567.393 199.334 570.791 200.213C574.248 201.092 577.939 201.531 581.865 201.531C587.021 201.531 591.328 200.799 594.785 199.334C598.301 197.869 600.938 195.818 602.695 193.182C604.453 190.545 605.332 187.498 605.332 184.041ZM667.559 82V217H646.289V82H667.559ZM686.719 170.506V168.484C686.719 161.629 687.715 155.271 689.707 149.412C691.699 143.494 694.57 138.367 698.32 134.031C702.129 129.637 706.758 126.238 712.207 123.836C717.715 121.375 723.926 120.145 730.84 120.145C737.812 120.145 744.023 121.375 749.473 123.836C754.98 126.238 759.639 129.637 763.447 134.031C767.256 138.367 770.156 143.494 772.148 149.412C774.141 155.271 775.137 161.629 775.137 168.484V170.506C775.137 177.361 774.141 183.719 772.148 189.578C770.156 195.438 767.256 200.564 763.447 204.959C759.639 209.295 755.01 212.693 749.561 215.154C744.111 217.557 737.93 218.758 731.016 218.758C724.043 218.758 717.803 217.557 712.295 215.154C706.846 212.693 702.217 209.295 698.408 204.959C694.6 200.564 691.699 195.438 689.707 189.578C687.715 183.719 686.719 177.361 686.719 170.506ZM707.9 168.484V170.506C707.9 174.783 708.34 178.826 709.219 182.635C710.098 186.443 711.475 189.783 713.35 192.654C715.225 195.525 717.627 197.781 720.557 199.422C723.486 201.062 726.973 201.883 731.016 201.883C734.941 201.883 738.34 201.062 741.211 199.422C744.141 197.781 746.543 195.525 748.418 192.654C750.293 189.783 751.67 186.443 752.549 182.635C753.486 178.826 753.955 174.783 753.955 170.506V168.484C753.955 164.266 753.486 160.281 752.549 156.531C751.67 152.723 750.264 149.354 748.33 146.424C746.455 143.494 744.053 141.209 741.123 139.568C738.252 137.869 734.824 137.02 730.84 137.02C726.855 137.02 723.398 137.869 720.469 139.568C717.598 141.209 715.225 143.494 713.35 146.424C711.475 149.354 710.098 152.723 709.219 156.531C708.34 160.281 707.9 164.266 707.9 168.484ZM836.484 121.902V137.371H782.871V121.902H836.484ZM798.34 98.6113H819.521V190.721C819.521 193.65 819.932 195.906 820.752 197.488C821.631 199.012 822.832 200.037 824.355 200.564C825.879 201.092 827.666 201.355 829.717 201.355C831.182 201.355 832.588 201.268 833.936 201.092C835.283 200.916 836.367 200.74 837.188 200.564L837.275 216.736C835.518 217.264 833.467 217.732 831.123 218.143C828.838 218.553 826.201 218.758 823.213 218.758C818.35 218.758 814.043 217.908 810.293 216.209C806.543 214.451 803.613 211.609 801.504 207.684C799.395 203.758 798.34 198.543 798.34 192.039V98.6113ZM908.73 89.0312H928.418L965.42 187.732L1002.33 89.0312H1022.02L973.154 217H957.51L908.73 89.0312ZM899.766 89.0312H918.486L921.738 174.461V217H899.766V89.0312ZM1012.27 89.0312H1031.07V217H1009.01V174.461L1012.27 89.0312ZM1108.77 197.928V152.576C1108.77 149.178 1108.15 146.248 1106.92 143.787C1105.69 141.326 1103.82 139.422 1101.3 138.074C1098.84 136.727 1095.73 136.053 1091.98 136.053C1088.53 136.053 1085.54 136.639 1083.02 137.811C1080.5 138.982 1078.54 140.564 1077.13 142.557C1075.72 144.549 1075.02 146.805 1075.02 149.324H1053.93C1053.93 145.574 1054.83 141.941 1056.65 138.426C1058.47 134.91 1061.1 131.775 1064.56 129.021C1068.02 126.268 1072.15 124.1 1076.95 122.518C1081.76 120.936 1087.15 120.145 1093.12 120.145C1100.27 120.145 1106.6 121.346 1112.11 123.748C1117.68 126.15 1122.04 129.783 1125.21 134.646C1128.43 139.451 1130.04 145.486 1130.04 152.752V195.027C1130.04 199.363 1130.33 203.26 1130.92 206.717C1131.56 210.115 1132.47 213.074 1133.64 215.594V217H1111.93C1110.94 214.715 1110.15 211.814 1109.56 208.299C1109.03 204.725 1108.77 201.268 1108.77 197.928ZM1111.85 159.168L1112.02 172.264H1096.82C1092.89 172.264 1089.43 172.645 1086.45 173.406C1083.46 174.109 1080.97 175.164 1078.97 176.57C1076.98 177.977 1075.49 179.676 1074.49 181.668C1073.5 183.66 1073 185.916 1073 188.436C1073 190.955 1073.58 193.27 1074.76 195.379C1075.93 197.43 1077.63 199.041 1079.85 200.213C1082.14 201.385 1084.89 201.971 1088.12 201.971C1092.45 201.971 1096.23 201.092 1099.45 199.334C1102.73 197.518 1105.31 195.32 1107.19 192.742C1109.06 190.105 1110.06 187.615 1110.18 185.271L1117.03 194.676C1116.33 197.078 1115.13 199.656 1113.43 202.41C1111.73 205.164 1109.5 207.801 1106.75 210.32C1104.05 212.781 1100.8 214.803 1096.99 216.385C1093.24 217.967 1088.91 218.758 1083.98 218.758C1077.77 218.758 1072.24 217.527 1067.37 215.066C1062.51 212.547 1058.7 209.178 1055.95 204.959C1053.19 200.682 1051.82 195.848 1051.82 190.457C1051.82 185.418 1052.75 180.965 1054.63 177.098C1056.56 173.172 1059.38 169.891 1063.07 167.254C1066.82 164.617 1071.39 162.625 1076.78 161.277C1082.17 159.871 1088.32 159.168 1095.23 159.168H1111.85ZM1191.04 201.883C1194.49 201.883 1197.6 201.209 1200.35 199.861C1203.16 198.455 1205.42 196.521 1207.12 194.061C1208.88 191.6 1209.84 188.758 1210.02 185.535H1229.97C1229.85 191.688 1228.04 197.283 1224.52 202.322C1221.01 207.361 1216.35 211.375 1210.55 214.363C1204.75 217.293 1198.33 218.758 1191.3 218.758C1184.03 218.758 1177.71 217.527 1172.31 215.066C1166.92 212.547 1162.44 209.09 1158.87 204.695C1155.29 200.301 1152.6 195.232 1150.78 189.49C1149.02 183.748 1148.14 177.596 1148.14 171.033V167.957C1148.14 161.395 1149.02 155.242 1150.78 149.5C1152.6 143.699 1155.29 138.602 1158.87 134.207C1162.44 129.812 1166.92 126.385 1172.31 123.924C1177.71 121.404 1184 120.145 1191.21 120.145C1198.83 120.145 1205.51 121.668 1211.25 124.715C1216.99 127.703 1221.5 131.893 1224.79 137.283C1228.12 142.615 1229.85 148.826 1229.97 155.916H1210.02C1209.84 152.4 1208.96 149.236 1207.38 146.424C1205.86 143.553 1203.69 141.268 1200.88 139.568C1198.12 137.869 1194.81 137.02 1190.95 137.02C1186.67 137.02 1183.12 137.898 1180.31 139.656C1177.5 141.355 1175.3 143.699 1173.72 146.688C1172.14 149.617 1171 152.928 1170.29 156.619C1169.65 160.252 1169.33 164.031 1169.33 167.957V171.033C1169.33 174.959 1169.65 178.768 1170.29 182.459C1170.94 186.15 1172.05 189.461 1173.63 192.391C1175.27 195.262 1177.5 197.576 1180.31 199.334C1183.12 201.033 1186.7 201.883 1191.04 201.883ZM1267.15 82V217H1246.05V82H1267.15ZM1263.46 165.936L1256.6 165.848C1256.66 159.285 1257.57 153.221 1259.33 147.654C1261.14 142.088 1263.66 137.254 1266.88 133.152C1270.17 128.992 1274.09 125.799 1278.66 123.572C1283.23 121.287 1288.3 120.145 1293.87 120.145C1298.55 120.145 1302.77 120.789 1306.52 122.078C1310.33 123.367 1313.61 125.447 1316.37 128.318C1319.12 131.131 1321.2 134.822 1322.61 139.393C1324.07 143.904 1324.8 149.412 1324.8 155.916V217H1303.54V155.74C1303.54 151.17 1302.86 147.537 1301.51 144.842C1300.22 142.146 1298.32 140.213 1295.8 139.041C1293.28 137.811 1290.21 137.195 1286.57 137.195C1282.76 137.195 1279.39 137.957 1276.46 139.48C1273.59 141.004 1271.19 143.084 1269.26 145.721C1267.32 148.357 1265.86 151.404 1264.86 154.861C1263.93 158.318 1263.46 162.01 1263.46 165.936ZM1368.93 121.902V217H1347.66V121.902H1368.93ZM1346.25 96.9414C1346.25 93.7188 1347.3 91.0527 1349.41 88.9434C1351.58 86.7754 1354.57 85.6914 1358.38 85.6914C1362.13 85.6914 1365.09 86.7754 1367.26 88.9434C1369.42 91.0527 1370.51 93.7188 1370.51 96.9414C1370.51 100.105 1369.42 102.742 1367.26 104.852C1365.09 106.961 1362.13 108.016 1358.38 108.016C1354.57 108.016 1351.58 106.961 1349.41 104.852C1347.3 102.742 1346.25 100.105 1346.25 96.9414ZM1413.13 142.205V217H1391.95V121.902H1411.9L1413.13 142.205ZM1409.36 165.936L1402.5 165.848C1402.56 159.109 1403.5 152.928 1405.31 147.303C1407.19 141.678 1409.77 136.844 1413.05 132.801C1416.39 128.758 1420.37 125.652 1425 123.484C1429.63 121.258 1434.79 120.145 1440.47 120.145C1445.04 120.145 1449.17 120.789 1452.86 122.078C1456.61 123.309 1459.8 125.33 1462.44 128.143C1465.14 130.955 1467.19 134.617 1468.59 139.129C1470 143.582 1470.7 149.061 1470.7 155.564V217H1449.43V155.477C1449.43 150.906 1448.76 147.303 1447.41 144.666C1446.12 141.971 1444.22 140.066 1441.7 138.953C1439.24 137.781 1436.16 137.195 1432.47 137.195C1428.84 137.195 1425.59 137.957 1422.71 139.48C1419.84 141.004 1417.41 143.084 1415.42 145.721C1413.49 148.357 1411.99 151.404 1410.94 154.861C1409.88 158.318 1409.36 162.01 1409.36 165.936ZM1534.25 218.758C1527.22 218.758 1520.86 217.615 1515.18 215.33C1509.55 212.986 1504.75 209.734 1500.76 205.574C1496.84 201.414 1493.82 196.521 1491.71 190.896C1489.6 185.271 1488.54 179.207 1488.54 172.703V169.188C1488.54 161.746 1489.63 155.008 1491.8 148.973C1493.96 142.938 1496.98 137.781 1500.85 133.504C1504.72 129.168 1509.29 125.857 1514.56 123.572C1519.83 121.287 1525.55 120.145 1531.7 120.145C1538.5 120.145 1544.44 121.287 1549.54 123.572C1554.64 125.857 1558.86 129.08 1562.2 133.24C1565.6 137.342 1568.12 142.234 1569.76 147.918C1571.46 153.602 1572.3 159.871 1572.3 166.727V175.779H1498.83V160.574H1551.39V158.904C1551.27 155.096 1550.51 151.521 1549.1 148.182C1547.75 144.842 1545.67 142.146 1542.86 140.096C1540.05 138.045 1536.3 137.02 1531.61 137.02C1528.1 137.02 1524.96 137.781 1522.21 139.305C1519.51 140.77 1517.26 142.908 1515.44 145.721C1513.62 148.533 1512.22 151.932 1511.22 155.916C1510.28 159.842 1509.81 164.266 1509.81 169.188V172.703C1509.81 176.863 1510.37 180.73 1511.48 184.305C1512.66 187.82 1514.36 190.896 1516.58 193.533C1518.81 196.17 1521.5 198.25 1524.67 199.773C1527.83 201.238 1531.44 201.971 1535.48 201.971C1540.58 201.971 1545.12 200.945 1549.1 198.895C1553.09 196.844 1556.54 193.943 1559.47 190.193L1570.63 201.004C1568.58 203.992 1565.92 206.863 1562.64 209.617C1559.36 212.312 1555.34 214.51 1550.6 216.209C1545.91 217.908 1540.46 218.758 1534.25 218.758Z" fill="white"/>
<path d="M5402.96 150C5406.73 150.001 5410.43 151.038 5413.69 153.005C5416.95 154.973 5419.65 157.801 5421.52 161.203L5457.18 226.019C5459.51 230.252 5460.43 235.162 5459.81 239.994C5459.19 244.826 5457.06 249.311 5453.74 252.759L5354.45 355.93C5353.21 357.22 5351.74 358.244 5350.12 358.942C5348.49 359.641 5346.76 360 5345 360C5343.24 360 5341.51 359.641 5339.88 358.942C5338.26 358.244 5336.79 357.22 5335.55 355.93L5236.26 252.759C5232.94 249.311 5230.81 244.826 5230.19 239.994C5229.57 235.162 5230.49 230.252 5232.82 226.019L5268.46 161.192C5270.34 157.793 5273.04 154.969 5276.29 153.003C5279.55 151.038 5283.25 150.002 5287.02 150H5402.96ZM5377.08 183.342H5312.9C5310.18 183.345 5307.56 184.43 5305.57 186.374C5303.59 188.319 5302.4 190.976 5302.24 193.804C5302.08 196.632 5302.96 199.417 5304.71 201.589C5306.46 203.761 5308.95 205.157 5311.65 205.492L5312.9 205.57H5334.29V222.741C5326.19 223.519 5318.82 225.152 5312.86 227.475C5308.64 229.12 5304.85 231.209 5302.03 233.821C5299.2 236.433 5296.86 240.012 5296.86 244.468C5296.86 248.925 5299.2 252.515 5302.03 255.115C5304.85 257.727 5308.64 259.817 5312.86 261.45C5319.21 263.929 5327.17 265.64 5335.93 266.34C5335.09 267.742 5334.55 269.321 5334.37 270.964L5334.29 272.253V294.481C5334.3 297.314 5335.34 300.038 5337.21 302.098C5339.08 304.158 5341.64 305.397 5344.36 305.563C5347.08 305.729 5349.76 304.809 5351.85 302.991C5353.94 301.173 5355.29 298.594 5355.61 295.781L5355.68 294.481V272.253C5355.69 270.161 5355.12 268.112 5354.05 266.34C5362.81 265.64 5370.76 263.94 5377.12 261.45C5381.34 259.817 5385.13 257.727 5387.95 255.115C5390.78 252.504 5393.12 248.925 5393.12 244.468C5393.12 240.012 5390.78 236.422 5387.95 233.821C5385.13 231.209 5381.34 229.12 5377.12 227.486C5371.3 225.318 5365.26 223.856 5359.12 223.13L5355.68 222.741V205.57H5377.08C5379.8 205.566 5382.42 204.482 5384.41 202.537C5386.39 200.593 5387.58 197.935 5387.74 195.107C5387.9 192.279 5387.01 189.495 5385.26 187.322C5383.52 185.15 5381.03 183.754 5378.33 183.42L5377.08 183.342ZM5355.67 233.91C5361.71 234.462 5367.65 235.795 5373.36 237.878C5376.88 239.256 5379.35 240.756 5380.85 242.134C5381.5 242.654 5382.02 243.334 5382.35 244.113L5382.42 244.468L5382.35 244.824C5382.02 245.603 5381.5 246.283 5380.85 246.802C5379.35 248.18 5376.88 249.692 5373.36 251.048C5366.36 253.782 5356.33 255.582 5344.99 255.582C5333.65 255.582 5323.62 253.782 5316.61 251.048C5313.1 249.681 5310.63 248.18 5309.12 246.802C5308.47 246.283 5307.95 245.603 5307.62 244.824L5307.56 244.468C5307.56 244.324 5307.61 243.524 5309.12 242.134C5310.63 240.745 5313.1 239.245 5316.61 237.889C5321.32 236.055 5327.38 234.632 5334.3 233.91C5334.43 236.769 5335.61 239.468 5337.6 241.446C5339.59 243.423 5342.24 244.527 5344.99 244.527C5347.74 244.527 5350.39 243.423 5352.38 241.446C5354.37 239.468 5355.55 236.769 5355.67 233.91Z" fill="#696969"/>
<defs>
<linearGradient id="paint0_linear_3551_12288" x1="4.31449e-05" y1="250" x2="5650" y2="250" gradientUnits="userSpaceOnUse">
<stop stop-color="#D06C7D" stop-opacity="0.9"/>
<stop offset="0.4" stop-color="#7D6CD0" stop-opacity="0.9"/>
<stop offset="0.75" stop-color="#212121"/>
</linearGradient>
</defs>
</svg>
