<svg width="5550" height="750" viewBox="0 0 5550 750" fill="none" xmlns="http://www.w3.org/2000/svg">
<rect width="5550" height="750" rx="100" fill="url(#paint0_linear_3463_11071)"/>
<path d="M2133.05 404.139H2163.56C2162.59 415.776 2159.33 426.152 2153.8 435.267C2148.26 444.3 2140.49 451.421 2130.48 456.629C2120.47 461.837 2108.31 464.441 2093.98 464.441C2083 464.441 2073.11 462.488 2064.32 458.582C2055.53 454.594 2048 448.979 2041.74 441.736C2035.47 434.412 2030.67 425.582 2027.33 415.247C2024.08 404.912 2022.45 393.356 2022.45 380.579V365.809C2022.45 353.032 2024.12 341.476 2027.46 331.141C2030.87 320.805 2035.76 311.976 2042.1 304.651C2048.45 297.246 2056.06 291.59 2064.93 287.684C2073.88 283.777 2083.93 281.824 2095.08 281.824C2109.24 281.824 2121.21 284.428 2130.97 289.637C2140.74 294.845 2148.3 302.047 2153.68 311.243C2159.13 320.439 2162.46 330.978 2163.69 342.859H2133.17C2132.35 335.21 2130.56 328.659 2127.8 323.206C2125.11 317.754 2121.12 313.603 2115.83 310.755C2110.54 307.825 2103.63 306.36 2095.08 306.36C2088.08 306.36 2081.98 307.662 2076.77 310.267C2071.56 312.871 2067.21 316.696 2063.71 321.741C2060.21 326.787 2057.57 333.012 2055.78 340.418C2054.07 347.742 2053.21 356.124 2053.21 365.564V380.579C2053.21 389.531 2053.99 397.669 2055.53 404.993C2057.16 412.236 2059.6 418.462 2062.86 423.67C2066.19 428.878 2070.42 432.907 2075.55 435.755C2080.68 438.603 2086.82 440.027 2093.98 440.027C2102.69 440.027 2109.73 438.644 2115.1 435.877C2120.55 433.11 2124.66 429.082 2127.43 423.792C2130.28 418.421 2132.15 411.87 2133.05 404.139ZM2212.39 329.92H2241.81L2240.35 376.429C2239.94 389.938 2238.39 401.535 2235.71 411.219C2233.02 420.903 2229.52 429.082 2225.21 435.755C2220.9 442.347 2216.01 447.758 2210.56 451.99C2205.19 456.222 2199.53 459.559 2193.59 462H2184.93V438.807L2189.08 438.562C2192.58 434.819 2195.59 431.076 2198.11 427.332C2200.71 423.507 2202.91 419.316 2204.7 414.759C2206.49 410.12 2207.88 404.708 2208.85 398.523C2209.91 392.339 2210.6 384.974 2210.93 376.429L2212.39 329.92ZM2220.2 329.92H2303.94V462H2274.65V354.822H2220.2V329.92ZM2178.21 438.562H2322.01V501.307H2292.59V462H2208V501.307H2178.09L2178.21 438.562ZM2401.23 464.441C2391.47 464.441 2382.64 462.854 2374.75 459.681C2366.93 456.425 2360.26 451.909 2354.73 446.131C2349.27 440.353 2345.08 433.558 2342.15 425.745C2339.22 417.933 2337.76 409.51 2337.76 400.477V395.594C2337.76 385.258 2339.26 375.9 2342.27 367.518C2345.29 359.135 2349.48 351.974 2354.85 346.033C2360.22 340.011 2366.57 335.413 2373.89 332.239C2381.21 329.065 2389.15 327.479 2397.69 327.479C2407.13 327.479 2415.39 329.065 2422.47 332.239C2429.55 335.413 2435.41 339.889 2440.05 345.667C2444.77 351.364 2448.27 358.159 2450.55 366.053C2452.91 373.947 2454.09 382.654 2454.09 392.176V404.749H2352.04V383.631H2425.04V381.312C2424.88 376.022 2423.82 371.058 2421.86 366.419C2419.99 361.78 2417.1 358.037 2413.2 355.188C2409.29 352.34 2404.08 350.916 2397.57 350.916C2392.69 350.916 2388.34 351.974 2384.51 354.09C2380.77 356.124 2377.63 359.095 2375.11 363.001C2372.59 366.907 2370.64 371.627 2369.25 377.161C2367.95 382.614 2367.3 388.758 2367.3 395.594V400.477C2367.3 406.255 2368.07 411.626 2369.62 416.59C2371.25 421.473 2373.61 425.745 2376.7 429.407C2379.79 433.069 2383.53 435.958 2387.93 438.074C2392.32 440.109 2397.33 441.126 2402.94 441.126C2410.02 441.126 2416.33 439.702 2421.86 436.854C2427.4 434.005 2432.2 429.977 2436.27 424.769L2451.77 439.783C2448.92 443.934 2445.22 447.921 2440.66 451.746C2436.11 455.49 2430.53 458.541 2423.94 460.901C2417.43 463.261 2409.86 464.441 2401.23 464.441ZM2565.79 329.92V353.357H2501.33V329.92H2565.79ZM2588.86 329.92V462H2559.44V329.92H2588.86ZM2494.13 329.92H2523.18L2519.64 395.228C2519.15 404.912 2518.18 413.457 2516.71 420.862C2515.33 428.187 2513.46 434.493 2511.1 439.783C2508.74 444.992 2505.85 449.223 2502.43 452.479C2499.01 455.734 2495.03 458.134 2490.47 459.681C2485.91 461.227 2480.78 462 2475.09 462H2465.93L2465.81 437.83L2470.45 437.464C2473.46 437.22 2476.06 436.447 2478.26 435.145C2480.46 433.761 2482.33 431.808 2483.88 429.285C2485.5 426.762 2486.81 423.507 2487.78 419.52C2488.84 415.532 2489.65 410.812 2490.22 405.359C2490.87 399.907 2491.36 393.559 2491.69 386.316L2494.13 329.92ZM2694.57 435.511V372.522C2694.57 367.802 2693.71 363.733 2692.01 360.315C2690.3 356.897 2687.69 354.253 2684.19 352.381C2680.78 350.509 2676.46 349.573 2671.25 349.573C2666.45 349.573 2662.3 350.387 2658.8 352.015C2655.3 353.642 2652.58 355.84 2650.62 358.606C2648.67 361.373 2647.69 364.507 2647.69 368.006H2618.4C2618.4 362.798 2619.66 357.752 2622.18 352.869C2624.7 347.986 2628.37 343.632 2633.17 339.808C2637.97 335.983 2643.71 332.972 2650.38 330.774C2657.05 328.577 2664.54 327.479 2672.84 327.479C2682.77 327.479 2691.56 329.147 2699.21 332.483C2706.94 335.82 2713 340.866 2717.4 347.62C2721.87 354.293 2724.11 362.675 2724.11 372.767V431.482C2724.11 437.505 2724.52 442.916 2725.33 447.718C2726.23 452.438 2727.49 456.548 2729.12 460.047V462H2698.96C2697.58 458.826 2696.48 454.798 2695.67 449.915C2694.94 444.951 2694.57 440.149 2694.57 435.511ZM2698.84 381.678L2699.09 399.866H2677.97C2672.52 399.866 2667.71 400.395 2663.56 401.453C2659.41 402.43 2655.95 403.895 2653.19 405.848C2650.42 407.801 2648.35 410.161 2646.96 412.928C2645.58 415.695 2644.89 418.828 2644.89 422.327C2644.89 425.826 2645.7 429.041 2647.33 431.971C2648.96 434.819 2651.32 437.057 2654.41 438.685C2657.58 440.312 2661.41 441.126 2665.88 441.126C2671.9 441.126 2677.15 439.905 2681.63 437.464C2686.19 434.941 2689.77 431.889 2692.37 428.309C2694.98 424.646 2696.36 421.188 2696.52 417.933L2706.04 430.994C2705.07 434.331 2703.4 437.911 2701.04 441.736C2698.68 445.561 2695.59 449.223 2691.76 452.723C2688.02 456.141 2683.5 458.948 2678.21 461.146C2673 463.343 2666.98 464.441 2660.15 464.441C2651.52 464.441 2643.83 462.732 2637.07 459.314C2630.32 455.815 2625.03 451.136 2621.21 445.276C2617.38 439.336 2615.47 432.622 2615.47 425.135C2615.47 418.136 2616.77 411.951 2619.37 406.58C2622.06 401.128 2625.97 396.57 2631.09 392.908C2636.3 389.246 2642.65 386.479 2650.14 384.607C2657.62 382.654 2666.17 381.678 2675.77 381.678H2698.84ZM2814.2 329.92V462H2784.66V329.92H2814.2ZM2857.53 329.92V353.113H2742.05V329.92H2857.53ZM2899.04 371.912H2937.98C2949.37 371.912 2959.06 373.825 2967.03 377.649C2975.01 381.474 2981.07 386.805 2985.22 393.641C2989.45 400.395 2991.57 408.126 2991.57 416.834C2991.57 423.263 2990.39 429.244 2988.03 434.778C2985.67 440.231 2982.17 444.992 2977.53 449.061C2972.97 453.13 2967.36 456.303 2960.68 458.582C2954.09 460.861 2946.52 462 2937.98 462H2879.51V329.92H2909.05V438.685H2937.98C2943.84 438.685 2948.52 437.667 2952.02 435.633C2955.51 433.598 2958.04 430.953 2959.58 427.698C2961.21 424.443 2962.03 420.984 2962.03 417.322C2962.03 413.579 2961.21 410.039 2959.58 406.702C2958.04 403.366 2955.51 400.639 2952.02 398.523C2948.52 396.408 2943.84 395.35 2937.98 395.35H2899.04V371.912ZM3185.29 404.139H3215.81C3214.83 415.776 3211.58 426.152 3206.04 435.267C3200.51 444.3 3192.74 451.421 3182.73 456.629C3172.72 461.837 3160.55 464.441 3146.23 464.441C3135.24 464.441 3125.36 462.488 3116.57 458.582C3107.78 454.594 3100.25 448.979 3093.98 441.736C3087.72 434.412 3082.92 425.582 3079.58 415.247C3076.32 404.912 3074.7 393.356 3074.7 380.579V365.809C3074.7 353.032 3076.36 341.476 3079.7 331.141C3083.12 320.805 3088 311.976 3094.35 304.651C3100.7 297.246 3108.31 291.59 3117.18 287.684C3126.13 283.777 3136.18 281.824 3147.33 281.824C3161.49 281.824 3173.45 284.428 3183.22 289.637C3192.98 294.845 3200.55 302.047 3205.92 311.243C3211.37 320.439 3214.71 330.978 3215.93 342.859H3185.41C3184.6 335.21 3182.81 328.659 3180.04 323.206C3177.36 317.754 3173.37 313.603 3168.08 310.755C3162.79 307.825 3155.87 306.36 3147.33 306.36C3140.33 306.36 3134.23 307.662 3129.02 310.267C3123.81 312.871 3119.46 316.696 3115.96 321.741C3112.46 326.787 3109.81 333.012 3108.02 340.418C3106.31 347.742 3105.46 356.124 3105.46 365.564V380.579C3105.46 389.531 3106.23 397.669 3107.78 404.993C3109.4 412.236 3111.85 418.462 3115.1 423.67C3118.44 428.878 3122.67 432.907 3127.8 435.755C3132.92 438.603 3139.07 440.027 3146.23 440.027C3154.94 440.027 3161.98 438.644 3167.35 435.877C3172.8 433.11 3176.91 429.082 3179.68 423.792C3182.53 418.421 3184.4 411.87 3185.29 404.139ZM3301.99 329.92V462H3272.45V329.92H3301.99ZM3345.33 329.92V353.113H3229.85V329.92H3345.33ZM3437.49 435.511V372.522C3437.49 367.802 3436.63 363.733 3434.93 360.315C3433.22 356.897 3430.61 354.253 3427.11 352.381C3423.7 350.509 3419.38 349.573 3414.17 349.573C3409.37 349.573 3405.22 350.387 3401.72 352.015C3398.22 353.642 3395.5 355.84 3393.54 358.606C3391.59 361.373 3390.61 364.507 3390.61 368.006H3361.32C3361.32 362.798 3362.58 357.752 3365.1 352.869C3367.62 347.986 3371.29 343.632 3376.09 339.808C3380.89 335.983 3386.63 332.972 3393.3 330.774C3399.97 328.577 3407.46 327.479 3415.76 327.479C3425.69 327.479 3434.48 329.147 3442.13 332.483C3449.86 335.82 3455.92 340.866 3460.32 347.62C3464.79 354.293 3467.03 362.675 3467.03 372.767V431.482C3467.03 437.505 3467.44 442.916 3468.25 447.718C3469.15 452.438 3470.41 456.548 3472.04 460.047V462H3441.88C3440.5 458.826 3439.4 454.798 3438.59 449.915C3437.86 444.951 3437.49 440.149 3437.49 435.511ZM3441.76 381.678L3442.01 399.866H3420.89C3415.44 399.866 3410.63 400.395 3406.48 401.453C3402.33 402.43 3398.87 403.895 3396.11 405.848C3393.34 407.801 3391.27 410.161 3389.88 412.928C3388.5 415.695 3387.81 418.828 3387.81 422.327C3387.81 425.826 3388.62 429.041 3390.25 431.971C3391.88 434.819 3394.24 437.057 3397.33 438.685C3400.5 440.312 3404.33 441.126 3408.8 441.126C3414.82 441.126 3420.07 439.905 3424.55 437.464C3429.11 434.941 3432.69 431.889 3435.29 428.309C3437.9 424.646 3439.28 421.188 3439.44 417.933L3448.96 430.994C3447.99 434.331 3446.32 437.911 3443.96 441.736C3441.6 445.561 3438.51 449.223 3434.68 452.723C3430.94 456.141 3426.42 458.948 3421.13 461.146C3415.92 463.343 3409.9 464.441 3403.07 464.441C3394.44 464.441 3386.75 462.732 3379.99 459.314C3373.24 455.815 3367.95 451.136 3364.12 445.276C3360.3 439.336 3358.39 432.622 3358.39 425.135C3358.39 418.136 3359.69 411.951 3362.29 406.58C3364.98 401.128 3368.89 396.57 3374.01 392.908C3379.22 389.246 3385.57 386.479 3393.06 384.607C3400.54 382.654 3409.09 381.678 3418.69 381.678H3441.76ZM3562 405.481H3519.76L3519.52 384.729H3554.19C3559.89 384.729 3564.56 384.16 3568.23 383.021C3571.97 381.881 3574.74 380.172 3576.53 377.894C3578.32 375.534 3579.21 372.685 3579.21 369.349C3579.21 366.582 3578.68 364.181 3577.63 362.146C3576.57 360.031 3574.94 358.322 3572.74 357.02C3570.63 355.636 3567.94 354.66 3564.69 354.09C3561.51 353.439 3557.81 353.113 3553.58 353.113H3529.53V462H3500.11V329.92H3553.58C3562.04 329.92 3569.65 330.652 3576.41 332.117C3583.24 333.582 3589.06 335.82 3593.86 338.831C3598.66 341.842 3602.32 345.667 3604.85 350.306C3607.45 354.863 3608.75 360.234 3608.75 366.419C3608.75 370.488 3607.86 374.313 3606.07 377.894C3604.36 381.474 3601.8 384.648 3598.38 387.415C3594.96 390.182 3590.77 392.461 3585.8 394.251C3580.84 395.96 3575.14 397.018 3568.71 397.425L3562 405.481ZM3562 462H3511.22L3522.94 438.807H3562C3567.21 438.807 3571.52 438.156 3574.94 436.854C3578.36 435.551 3580.88 433.68 3582.51 431.238C3584.22 428.715 3585.07 425.745 3585.07 422.327C3585.07 418.828 3584.26 415.817 3582.63 413.294C3581 410.771 3578.48 408.859 3575.06 407.557C3571.73 406.173 3567.37 405.481 3562 405.481H3528.43L3528.68 384.729H3568.59L3577.02 392.786C3585.4 393.356 3592.36 395.146 3597.89 398.157C3603.42 401.168 3607.57 404.952 3610.34 409.51C3613.11 414.067 3614.49 419.031 3614.49 424.402C3614.49 430.587 3613.31 436.04 3610.95 440.76C3608.67 445.48 3605.25 449.427 3600.7 452.601C3596.22 455.693 3590.73 458.053 3584.22 459.681C3577.71 461.227 3570.3 462 3562 462ZM3671.62 329.92V462H3642.2V329.92H3671.62ZM3757.8 329.92L3698.35 409.388H3664.78L3660.88 382.776H3685.41L3721.06 329.92H3757.8ZM3723.38 462L3683.58 404.383L3706.78 387.659L3762.07 462H3723.38ZM3816.4 447.596L3852.28 329.92H3883.78L3830.8 482.142C3829.58 485.397 3827.99 488.937 3826.04 492.762C3824.09 496.587 3821.52 500.208 3818.35 503.626C3815.26 507.125 3811.39 509.933 3806.75 512.049C3802.11 514.246 3796.5 515.345 3789.91 515.345C3787.3 515.345 3784.78 515.101 3782.34 514.612C3779.98 514.205 3777.74 513.758 3775.62 513.27L3775.5 490.809C3776.32 490.89 3777.29 490.971 3778.43 491.053C3779.65 491.134 3780.63 491.175 3781.36 491.175C3786.24 491.175 3790.31 490.564 3793.57 489.344C3796.82 488.204 3799.47 486.333 3801.5 483.729C3803.62 481.124 3805.41 477.625 3806.87 473.23L3816.4 447.596ZM3796.13 329.92L3827.5 428.797L3832.75 459.803L3812.37 465.052L3764.39 329.92H3796.13Z" fill="white"/>
<path d="M1675.01 261.615C1666.72 261.615 1660 268.335 1660 276.624V358.145C1660 366.434 1666.72 373.154 1675.01 373.154H1683.32C1691.61 373.154 1698.09 366.159 1701.44 358.58C1707.33 345.295 1720.93 335.654 1736.67 335.654H1752.85C1765.52 335.654 1772.49 350.39 1764.45 360.185L1757.75 368.346C1729.32 402.747 1707.45 441.541 1694.07 483.45C1691.09 492.774 1698.26 502 1708.05 502H1798.32C1806.61 502 1813.3 495.276 1813.69 486.996C1816.08 437.403 1830.34 389.039 1856.46 346.231L1884.88 297.352C1887.97 292.032 1887.5 285.363 1883.7 280.527L1868.83 261.628C1864.42 256.024 1856.67 254.296 1850.3 257.493L1849.75 257.769C1820.04 272.192 1786.5 275.077 1754.87 266.423C1742.42 262.577 1730.92 261.615 1718.46 261.615H1675.01Z" stroke="white" stroke-width="21.4953" stroke-miterlimit="10" stroke-linecap="round" stroke-linejoin="round"/>
<defs>
<linearGradient id="paint0_linear_3463_11071" x1="0.000294736" y1="374.092" x2="990.405" y2="-1750.05" gradientUnits="userSpaceOnUse">
<stop stop-color="#7D6CD0"/>
<stop offset="1" stop-color="#D06C7D"/>
</linearGradient>
</defs>
</svg>
