<svg width="1000" height="1072" viewBox="0 0 1000 1072" fill="none" xmlns="http://www.w3.org/2000/svg">
<path d="M104.363 66.4615C71.0254 66.4615 44 93.4869 44 126.824V452.253C44 485.59 71.0253 512.615 104.363 512.615H137.804C171.141 512.615 197.172 484.463 210.803 454.04C234.547 401.043 289.161 362.615 352.333 362.615H416.965C468.007 362.615 496.01 422.031 463.521 461.399L437.125 493.385C322.883 630.86 235.005 785.875 181.152 953.332C169.09 990.838 197.947 1028 237.344 1028H600.304C633.641 1028 660.511 1000.96 662.132 967.66C671.784 769.4 729.108 576.061 834.104 404.923L948.198 209.74C960.743 188.279 958.849 161.322 943.425 141.827L883.794 66.4508C866.07 44.0465 835.067 37.1352 809.504 49.8897L807.125 51.0769C687.646 108.769 552.75 120.308 425.562 85.6923C375.458 70.3077 329.208 66.4615 279.104 66.4615H104.363Z" stroke="#202020" stroke-width="86.4486" stroke-miterlimit="10" stroke-linecap="round" stroke-linejoin="round"/>
</svg>
