<svg width="66" height="66" viewBox="0 0 66 66" fill="none" xmlns="http://www.w3.org/2000/svg">
<rect width="66" height="66" rx="20.7778" fill="#7666C4"/>
<path fill-rule="evenodd" clip-rule="evenodd" d="M50.9587 29.178C50.2628 22.5 46.0424 12 32.9998 12C19.9571 12 15.7367 22.5 15.0408 29.178C12.5995 30.0448 10.9892 32.2374 11.0001 34.68V37.62C11.0001 40.8675 13.8143 43.5 17.2857 43.5C20.7571 43.5 23.5714 40.8674 23.5714 37.62V34.68C23.56 32.29 22.0089 30.1425 19.6428 29.241C20.0918 25.377 22.2918 16.2 32.9998 16.2C43.7079 16.2 45.8853 25.377 46.3344 29.241C43.973 30.1445 42.4297 32.2935 42.4283 34.68V37.62C42.4331 38.7264 42.7703 39.8093 43.4014 40.745C44.0326 41.6807 44.9322 42.4316 45.9976 42.912C45.0548 44.571 42.6527 46.818 36.7487 47.4899C35.5685 45.8136 33.2852 45.1526 31.2991 45.9127C29.3131 46.6726 28.1795 48.6411 28.5937 50.6106C29.0079 52.5801 30.854 54 32.9998 54C33.8313 53.9957 34.6451 53.7754 35.3506 53.3638C36.0561 52.9523 36.6256 52.3655 36.9957 51.669C46.6262 50.6399 49.7017 45.999 50.6669 43.2689C53.2784 42.4776 55.0347 40.1878 54.9995 37.62V34.68C55.0103 32.2374 53.4 30.0448 50.9587 29.178ZM19.0816 37.62C19.0816 38.5478 18.2775 39.2999 17.2857 39.2999C16.2938 39.2999 15.4898 38.5479 15.4898 37.62V34.68C15.488 34.4583 15.5331 34.2384 15.6226 34.0331C15.712 33.8278 15.844 33.6411 16.0109 33.4837C16.1779 33.3263 16.3765 33.2014 16.5953 33.1162C16.814 33.031 17.0487 32.9871 17.2857 32.9871C17.5227 32.9871 17.7574 33.031 17.9762 33.1162C18.1949 33.2014 18.3935 33.3263 18.5605 33.4837C18.7274 33.6411 18.8594 33.8278 18.9489 34.0331C19.0383 34.2384 19.0834 34.4583 19.0816 34.68V37.62ZM46.9179 34.68C46.9179 33.7521 47.722 33 48.7139 33C49.7058 33 50.5098 33.7521 50.5098 34.68V37.62C50.5098 38.5478 49.7058 39.2999 48.7139 39.2999C47.722 39.2999 46.9179 38.5479 46.9179 37.62V34.68Z" fill="white"/>
</svg>
