<svg width="1130" height="90" viewBox="0 0 1130 90" fill="none" xmlns="http://www.w3.org/2000/svg">
<rect width="1130" height="90" rx="25" fill="#212121"/>
<rect x="25" y="18" width="55" height="55" rx="27.5" fill="#7666C4"/>
<path fill-rule="evenodd" clip-rule="evenodd" d="M65.969 42.497C65.4471 37.25 62.2818 29 52.4999 29C42.7178 29 39.5525 37.25 39.0306 42.497C37.1996 43.178 35.9919 44.9008 36 46.82V49.13C36 51.6816 38.1107 53.75 40.7142 53.75C43.3179 53.75 45.4285 51.6815 45.4285 49.13V46.82C45.42 44.9422 44.2567 43.2548 42.4821 42.5465C42.8188 39.5105 44.4688 32.3 52.4999 32.3C60.5309 32.3 62.164 39.5105 62.5008 42.5465C60.7298 43.2564 59.5723 44.9449 59.5712 46.82V49.13C59.5748 49.9993 59.8277 50.8501 60.3011 51.5854C60.7744 52.3206 61.4491 52.9106 62.2482 53.288C61.5411 54.5915 59.7395 56.357 55.3115 56.885C54.4264 55.5678 52.7139 55.0485 51.2243 55.6457C49.7349 56.2428 48.8846 57.7894 49.1953 59.3369C49.5059 60.8844 50.8905 62 52.4999 62C53.1235 61.9966 53.7338 61.8235 54.263 61.5002C54.7921 61.1768 55.2192 60.7158 55.4967 60.1685C62.7196 59.3599 65.0262 55.7135 65.7502 53.5685C67.7088 52.9467 69.0261 51.1475 68.9996 49.13V46.82C69.0077 44.9008 67.8 43.178 65.969 42.497ZM42.0612 49.13C42.0612 49.859 41.4582 50.45 40.7142 50.45C39.9703 50.45 39.3674 49.8591 39.3674 49.13V46.82C39.366 46.6458 39.3998 46.4731 39.4669 46.3117C39.534 46.1504 39.633 46.0037 39.7582 45.8801C39.8834 45.7564 40.0324 45.6583 40.1964 45.5913C40.3605 45.5243 40.5365 45.4899 40.7143 45.4899C40.892 45.4899 41.068 45.5243 41.2321 45.5913C41.3962 45.6583 41.5451 45.7564 41.6704 45.8801C41.7956 46.0037 41.8946 46.1504 41.9616 46.3117C42.0287 46.4731 42.0626 46.6458 42.0612 46.82V49.13ZM62.9385 46.82C62.9385 46.0909 63.5415 45.5 64.2854 45.5C65.0293 45.5 65.6324 46.0909 65.6324 46.82V49.13C65.6324 49.859 65.0293 50.45 64.2854 50.45C63.5415 50.45 62.9385 49.8591 62.9385 49.13V46.82Z" fill="#212121" stroke="#212121" stroke-width="0.5"/>
<path d="M130.391 30.5625V59H125.508V34.4688H112.871V59H107.988V30.5625H130.391ZM134.922 48.668V48.2188C134.922 46.6953 135.143 45.2826 135.586 43.9805C136.029 42.6654 136.667 41.526 137.5 40.5625C138.346 39.5859 139.375 38.8307 140.586 38.2969C141.81 37.75 143.19 37.4766 144.727 37.4766C146.276 37.4766 147.656 37.75 148.867 38.2969C150.091 38.8307 151.126 39.5859 151.973 40.5625C152.819 41.526 153.464 42.6654 153.906 43.9805C154.349 45.2826 154.57 46.6953 154.57 48.2188V48.668C154.57 50.1914 154.349 51.6042 153.906 52.9062C153.464 54.2083 152.819 55.3477 151.973 56.3242C151.126 57.2878 150.098 58.043 148.887 58.5898C147.676 59.1237 146.302 59.3906 144.766 59.3906C143.216 59.3906 141.829 59.1237 140.605 58.5898C139.395 58.043 138.366 57.2878 137.52 56.3242C136.673 55.3477 136.029 54.2083 135.586 52.9062C135.143 51.6042 134.922 50.1914 134.922 48.668ZM139.629 48.2188V48.668C139.629 49.6185 139.727 50.5169 139.922 51.3633C140.117 52.2096 140.423 52.9518 140.84 53.5898C141.257 54.2279 141.79 54.7292 142.441 55.0938C143.092 55.4583 143.867 55.6406 144.766 55.6406C145.638 55.6406 146.393 55.4583 147.031 55.0938C147.682 54.7292 148.216 54.2279 148.633 53.5898C149.049 52.9518 149.355 52.2096 149.551 51.3633C149.759 50.5169 149.863 49.6185 149.863 48.668V48.2188C149.863 47.2812 149.759 46.3958 149.551 45.5625C149.355 44.7161 149.043 43.9674 148.613 43.3164C148.197 42.6654 147.663 42.1576 147.012 41.793C146.374 41.4154 145.612 41.2266 144.727 41.2266C143.841 41.2266 143.073 41.4154 142.422 41.793C141.784 42.1576 141.257 42.6654 140.84 43.3164C140.423 43.9674 140.117 44.7161 139.922 45.5625C139.727 46.3958 139.629 47.2812 139.629 48.2188ZM160.938 37.8672H165.645L165.41 45.3086C165.345 47.4701 165.098 49.3255 164.668 50.875C164.238 52.4245 163.678 53.7331 162.988 54.8008C162.298 55.8555 161.517 56.7214 160.645 57.3984C159.785 58.0755 158.88 58.6094 157.93 59H156.543V55.2891L157.207 55.25C157.767 54.651 158.249 54.0521 158.652 53.4531C159.069 52.8411 159.421 52.1706 159.707 51.4414C159.993 50.6992 160.215 49.8333 160.371 48.8438C160.54 47.8542 160.651 46.6758 160.703 45.3086L160.938 37.8672ZM162.188 37.8672H175.586V59H170.898V41.8516H162.188V37.8672ZM155.469 55.25H178.477V65.2891H173.77V59H160.234V65.2891H155.449L155.469 55.25ZM186.055 37.8672H190.762L190.527 45.3086C190.462 47.4701 190.215 49.3255 189.785 50.875C189.355 52.4245 188.796 53.7331 188.105 54.8008C187.415 55.8555 186.634 56.7214 185.762 57.3984C184.902 58.0755 183.997 58.6094 183.047 59H181.66V55.2891L182.324 55.25C182.884 54.651 183.366 54.0521 183.77 53.4531C184.186 52.8411 184.538 52.1706 184.824 51.4414C185.111 50.6992 185.332 49.8333 185.488 48.8438C185.658 47.8542 185.768 46.6758 185.82 45.3086L186.055 37.8672ZM187.305 37.8672H200.703V59H196.016V41.8516H187.305V37.8672ZM180.586 55.25H203.594V65.2891H198.887V59H185.352V65.2891H180.566L180.586 55.25ZM216.27 59.3906C214.707 59.3906 213.294 59.1367 212.031 58.6289C210.781 58.1081 209.714 57.3854 208.828 56.4609C207.956 55.5365 207.285 54.4492 206.816 53.1992C206.348 51.9492 206.113 50.6016 206.113 49.1562V48.375C206.113 46.7214 206.354 45.224 206.836 43.8828C207.318 42.5417 207.988 41.3958 208.848 40.4453C209.707 39.4818 210.723 38.7461 211.895 38.2383C213.066 37.7305 214.336 37.4766 215.703 37.4766C217.214 37.4766 218.535 37.7305 219.668 38.2383C220.801 38.7461 221.738 39.4622 222.48 40.3867C223.236 41.2982 223.796 42.3854 224.16 43.6484C224.538 44.9115 224.727 46.3047 224.727 47.8281V49.8398H208.398V46.4609H220.078V46.0898C220.052 45.2435 219.883 44.4492 219.57 43.707C219.271 42.9648 218.809 42.3659 218.184 41.9102C217.559 41.4544 216.725 41.2266 215.684 41.2266C214.902 41.2266 214.206 41.3958 213.594 41.7344C212.995 42.0599 212.493 42.5352 212.09 43.1602C211.686 43.7852 211.374 44.5404 211.152 45.4258C210.944 46.2982 210.84 47.2812 210.84 48.375V49.1562C210.84 50.0807 210.964 50.9401 211.211 51.7344C211.471 52.5156 211.849 53.1992 212.344 53.7852C212.839 54.3711 213.438 54.8333 214.141 55.1719C214.844 55.4974 215.645 55.6602 216.543 55.6602C217.676 55.6602 218.685 55.4323 219.57 54.9766C220.456 54.5208 221.224 53.8763 221.875 53.043L224.355 55.4453C223.9 56.1094 223.307 56.7474 222.578 57.3594C221.849 57.9583 220.957 58.4466 219.902 58.8242C218.861 59.2018 217.65 59.3906 216.27 59.3906ZM233.125 41.9297V67.125H228.418V37.8672H232.754L233.125 41.9297ZM246.895 48.2383V48.6484C246.895 50.1849 246.712 51.6107 246.348 52.9258C245.996 54.2279 245.469 55.3672 244.766 56.3438C244.076 57.3073 243.223 58.056 242.207 58.5898C241.191 59.1237 240.02 59.3906 238.691 59.3906C237.376 59.3906 236.224 59.1497 235.234 58.668C234.258 58.1732 233.431 57.4766 232.754 56.5781C232.077 55.6797 231.53 54.625 231.113 53.4141C230.71 52.1901 230.423 50.849 230.254 49.3906V47.8086C230.423 46.2591 230.71 44.8529 231.113 43.5898C231.53 42.3268 232.077 41.2396 232.754 40.3281C233.431 39.4167 234.258 38.7135 235.234 38.2188C236.211 37.724 237.35 37.4766 238.652 37.4766C239.98 37.4766 241.159 37.737 242.188 38.2578C243.216 38.7656 244.082 39.4948 244.785 40.4453C245.488 41.3828 246.016 42.5156 246.367 43.8438C246.719 45.1589 246.895 46.6237 246.895 48.2383ZM242.188 48.6484V48.2383C242.188 47.2617 242.096 46.3568 241.914 45.5234C241.732 44.6771 241.445 43.9349 241.055 43.2969C240.664 42.6589 240.163 42.1641 239.551 41.8125C238.952 41.4479 238.229 41.2656 237.383 41.2656C236.549 41.2656 235.833 41.4089 235.234 41.6953C234.635 41.9688 234.134 42.3529 233.73 42.8477C233.327 43.3424 233.014 43.9219 232.793 44.5859C232.572 45.237 232.415 45.9466 232.324 46.7148V50.5039C232.48 51.4414 232.747 52.3008 233.125 53.082C233.503 53.8633 234.036 54.4883 234.727 54.957C235.43 55.4128 236.328 55.6406 237.422 55.6406C238.268 55.6406 238.991 55.4583 239.59 55.0938C240.189 54.7292 240.677 54.2279 241.055 53.5898C241.445 52.9388 241.732 52.1901 241.914 51.3438C242.096 50.4974 242.188 49.599 242.188 48.6484ZM257.598 50.4648L249.16 37.8672H254.941L259.863 46.1875H263.984L263.379 50.4648H257.598ZM259.98 49.7812L254.57 59H248.789L256.445 47.1055L259.98 49.7812ZM266.816 37.8672V59H262.129V37.8672H266.816ZM279.844 37.8672L271.406 50.4648H265.605L264.98 46.1875H269.121L274.043 37.8672H279.844ZM274.414 59L268.984 49.7812L272.637 47.1055L280.254 59H274.414ZM288.32 37.8672V59H283.613V37.8672H288.32ZM302.109 37.8672L292.598 50.582H287.227L286.602 46.3242H290.527L296.23 37.8672H302.109ZM296.602 59L290.234 49.7812L293.945 47.1055L302.793 59H296.602ZM317.266 54.7617V44.6836C317.266 43.9284 317.129 43.2773 316.855 42.7305C316.582 42.1836 316.165 41.7604 315.605 41.4609C315.059 41.1615 314.368 41.0117 313.535 41.0117C312.767 41.0117 312.103 41.1419 311.543 41.4023C310.983 41.6628 310.547 42.0143 310.234 42.457C309.922 42.8997 309.766 43.401 309.766 43.9609H305.078C305.078 43.1276 305.28 42.3203 305.684 41.5391C306.087 40.7578 306.673 40.0612 307.441 39.4492C308.21 38.8372 309.128 38.3555 310.195 38.0039C311.263 37.6523 312.461 37.4766 313.789 37.4766C315.378 37.4766 316.784 37.7435 318.008 38.2773C319.245 38.8112 320.215 39.6185 320.918 40.6992C321.634 41.7669 321.992 43.1081 321.992 44.7227V54.1172C321.992 55.0807 322.057 55.9466 322.188 56.7148C322.331 57.4701 322.533 58.1276 322.793 58.6875V59H317.969C317.747 58.4922 317.572 57.8477 317.441 57.0664C317.324 56.2721 317.266 55.5039 317.266 54.7617ZM317.949 46.1484L317.988 49.0586H314.609C313.737 49.0586 312.969 49.1432 312.305 49.3125C311.641 49.4688 311.087 49.7031 310.645 50.0156C310.202 50.3281 309.87 50.7057 309.648 51.1484C309.427 51.5911 309.316 52.0924 309.316 52.6523C309.316 53.2122 309.447 53.7266 309.707 54.1953C309.967 54.651 310.345 55.0091 310.84 55.2695C311.348 55.5299 311.96 55.6602 312.676 55.6602C313.639 55.6602 314.479 55.4648 315.195 55.0742C315.924 54.6706 316.497 54.1823 316.914 53.6094C317.331 53.0234 317.552 52.4701 317.578 51.9492L319.102 54.0391C318.945 54.5729 318.678 55.1458 318.301 55.7578C317.923 56.3698 317.428 56.9557 316.816 57.5156C316.217 58.0625 315.495 58.5117 314.648 58.8633C313.815 59.2148 312.852 59.3906 311.758 59.3906C310.378 59.3906 309.147 59.1172 308.066 58.5703C306.986 58.0104 306.139 57.2617 305.527 56.3242C304.915 55.3737 304.609 54.2995 304.609 53.1016C304.609 51.9818 304.818 50.9922 305.234 50.1328C305.664 49.2604 306.289 48.5312 307.109 47.9453C307.943 47.3594 308.958 46.9167 310.156 46.6172C311.354 46.3047 312.721 46.1484 314.258 46.1484H317.949Z" fill="#A1A1A1"/>
<path fill-rule="evenodd" clip-rule="evenodd" d="M1088.86 47.0769L1070 63.5765L1065.29 59.4523L1081.79 45.0148L1065.29 30.5773L1070 26.4531L1088.86 42.9527C1089.48 43.4997 1089.83 44.2414 1089.83 45.0148C1089.83 45.7882 1089.48 46.5299 1088.86 47.0769Z" fill="#A1A1A1"/>
</svg>
