<svg width="72" height="72" viewBox="0 0 72 72" fill="none" xmlns="http://www.w3.org/2000/svg">
<path d="M48.5995 17C49.4191 17.0003 50.2241 17.2175 50.933 17.6297C51.6418 18.0419 52.2292 18.6344 52.6358 19.3473L60.3875 32.9278C60.8934 33.8147 61.0942 34.8436 60.9589 35.8559C60.8236 36.8683 60.3598 37.8081 59.6388 38.5305L38.0554 60.1472C37.7855 60.4176 37.465 60.632 37.1124 60.7784C36.7597 60.9247 36.3817 61 36 61C35.6183 61 35.2403 60.9247 34.8876 60.7784C34.535 60.632 34.2145 60.4176 33.9447 60.1472L12.3612 38.5305C11.6402 37.8081 11.1764 36.8683 11.0411 35.8559C10.9058 34.8436 11.1066 33.8147 11.6125 32.9278L19.3619 19.3449C19.7686 18.6329 20.3558 18.0411 21.0641 17.6293C21.7725 17.2175 22.5769 17.0004 23.3959 17H48.5995ZM42.9728 23.9859H29.0225C28.4299 23.9865 27.8599 24.2138 27.429 24.6213C26.9981 25.0287 26.7388 25.5855 26.704 26.178C26.6693 26.7705 26.8618 27.354 27.2421 27.8091C27.6225 28.2642 28.162 28.5567 28.7505 28.6268L29.0225 28.6431H33.6726V32.2409C31.9102 32.4039 30.3083 32.7462 29.0132 33.2329C28.0948 33.5775 27.2717 34.0153 26.6579 34.5625C26.0441 35.1098 25.5349 35.8596 25.5349 36.7934C25.5349 37.7271 26.0441 38.4793 26.6579 39.0242C27.2717 39.5714 28.0948 40.0092 29.0132 40.3515C30.3943 40.8708 32.1241 41.2294 34.0284 41.3761C33.8447 41.6697 33.7287 42.0006 33.6889 42.3448L33.6726 42.6149V47.2722C33.6733 47.8657 33.9002 48.4366 34.307 48.8682C34.7138 49.2997 35.2698 49.5594 35.8614 49.5942C36.453 49.629 37.0355 49.4362 37.49 49.0553C37.9444 48.6744 38.2365 48.134 38.3065 47.5446L38.3227 47.2722V42.6149C38.3229 42.1767 38.1996 41.7473 37.967 41.3761C39.8712 41.2294 41.6011 40.8731 42.9821 40.3515C43.9005 40.0092 44.7236 39.5714 45.3374 39.0242C45.9512 38.477 46.4604 37.7271 46.4604 36.7934C46.4604 35.8596 45.9512 35.1074 45.3374 34.5625C44.7236 34.0153 43.9005 33.5775 42.9821 33.2352C41.7173 32.7809 40.4042 32.4746 39.0691 32.3224L38.3227 32.2409V28.6431H42.9728C43.5654 28.6425 44.1354 28.4152 44.5664 28.0078C44.9973 27.6003 45.2566 27.0435 45.2913 26.451C45.326 25.8585 45.1336 25.2751 44.7532 24.8199C44.3729 24.3648 43.8333 24.0723 43.2449 24.0022L42.9728 23.9859ZM38.3204 34.5812C39.6318 34.6968 40.9237 34.9761 42.166 35.4125C42.931 35.7012 43.4681 36.0156 43.7936 36.3043C43.9349 36.4132 44.0468 36.5557 44.1191 36.7188L44.1354 36.7934L44.1191 36.8679C44.0468 37.031 43.9349 37.1735 43.7936 37.2824C43.4681 37.5711 42.931 37.8878 42.166 38.1719C40.6431 38.7447 38.4622 39.122 35.9977 39.122C33.5331 39.122 31.3522 38.7447 29.8293 38.1719C29.0644 37.8855 28.5273 37.5711 28.1994 37.2824C28.0581 37.1735 27.9463 37.031 27.8739 36.8679L27.86 36.7934C27.86 36.7631 27.8716 36.5954 28.1994 36.3043C28.5273 36.0133 29.0644 35.6989 29.8293 35.4148C30.8523 35.0306 32.1706 34.7325 33.6749 34.5812C33.7017 35.1801 33.9581 35.7457 34.3908 36.16C34.8235 36.5744 35.399 36.8057 35.9977 36.8057C36.5963 36.8057 37.1719 36.5744 37.6046 36.16C38.0372 35.7457 38.2936 35.1801 38.3204 34.5812Z" fill="white"/>
</svg>
