<svg width="48" height="40" viewBox="0 0 48 40" fill="none" xmlns="http://www.w3.org/2000/svg">
<path fill-rule="evenodd" clip-rule="evenodd" d="M44.1826 11.4392C44.0515 11.4316 43.9119 11.4285 43.7639 11.4301H37.9229C33.139 11.4301 29.0469 15.1512 29.0469 20.0015C29.0469 24.8518 33.1414 28.5729 37.9229 28.5729H43.7639C43.9119 28.5745 44.0523 28.5714 44.1849 28.5638C45.1681 28.5052 46.0962 28.0954 46.7963 27.4108C47.4964 26.7262 47.9207 25.8135 47.9902 24.8426C47.9995 24.7055 47.9995 24.5569 47.9995 24.4198V15.5832C47.9995 15.4461 47.9995 15.2975 47.9902 15.1604C47.9207 14.1895 47.4964 13.2768 46.7963 12.5922C46.0962 11.9076 45.1658 11.4978 44.1826 11.4392ZM37.4116 22.2872C38.6423 22.2872 39.6393 21.2632 39.6393 20.0015C39.6393 18.7398 38.6423 17.7158 37.4116 17.7158C36.1787 17.7158 35.1817 18.7398 35.1817 20.0015C35.1817 21.2632 36.1787 22.2872 37.4116 22.2872Z" fill="white"/>
<path fill-rule="evenodd" clip-rule="evenodd" d="M43.7624 32C43.8424 31.9968 43.922 32.0123 43.9947 32.0453C44.0675 32.0782 44.1314 32.1276 44.1812 32.1895C44.231 32.2514 44.2653 32.3241 44.2814 32.4016C44.2974 32.479 44.2948 32.5592 44.2736 32.6354C43.811 34.2629 43.073 35.6526 41.8909 36.8183C40.1583 38.5326 37.963 39.2891 35.2519 39.6503C32.6147 40 29.2489 40 24.9972 40H20.1115C15.8598 40 12.4916 40 9.85683 39.6503C7.14568 39.2891 4.95039 38.5303 3.21775 36.8206C1.48743 35.1086 0.719426 32.9394 0.35393 30.2606C2.75763e-07 27.6549 0 24.3291 0 20.128V19.872C0 15.6709 2.75763e-07 12.3429 0.35393 9.73714C0.719426 7.05829 1.48743 4.88914 3.21775 3.17714C4.95039 1.46743 7.14568 0.708571 9.85683 0.347428C12.494 -1.02179e-07 15.8598 0 20.1115 0H24.9972C29.2489 0 32.6171 2.72478e-07 35.2519 0.349715C37.963 0.710857 40.1583 1.46971 41.8909 3.17943C43.073 4.34971 43.811 5.73714 44.2736 7.36457C44.2948 7.44084 44.2974 7.52097 44.2814 7.59845C44.2653 7.67592 44.231 7.74856 44.1812 7.81047C44.1314 7.87238 44.0675 7.9218 43.9947 7.95474C43.922 7.98767 43.8424 8.00317 43.7624 8H37.9237C31.361 8 25.5778 13.12 25.5778 20C25.5778 26.88 31.361 32 37.9237 32H43.7624ZM8.67475 9.14286C8.21461 9.14286 7.77332 9.32347 7.44796 9.64496C7.12259 9.96645 6.9398 10.4025 6.9398 10.8571C6.9398 11.3118 7.12259 11.7478 7.44796 12.0693C7.77332 12.3908 8.21461 12.5714 8.67475 12.5714H17.9278C18.388 12.5714 18.8292 12.3908 19.1546 12.0693C19.48 11.7478 19.6628 11.3118 19.6628 10.8571C19.6628 10.4025 19.48 9.96645 19.1546 9.64496C18.8292 9.32347 18.388 9.14286 17.9278 9.14286H8.67475Z" fill="white"/>
</svg>
