<svg width="1130" height="190" viewBox="0 0 1130 190" fill="none" xmlns="http://www.w3.org/2000/svg">
<rect width="1130" height="190" rx="30" fill="url(#paint0_linear_3188_8509)"/>
<circle cx="102" cy="96" r="57" transform="rotate(-180 102 96)" fill="#7666C4"/>
<path d="M106.62 122.012L105 123.782V113.01C105 112.214 104.684 111.451 104.121 110.888C103.559 110.325 102.796 110.009 102 110.009C101.204 110.009 100.441 110.325 99.8787 110.888C99.3161 111.451 99 112.214 99 113.01V123.782L97.38 122.132C97.1077 121.824 96.7751 121.576 96.4029 121.402C96.0306 121.228 95.6267 121.133 95.216 121.122C94.8054 121.11 94.3968 121.184 94.0156 121.337C93.6344 121.49 93.2888 121.72 93 122.012C92.7188 122.291 92.4956 122.623 92.3433 122.988C92.191 123.354 92.1126 123.746 92.1126 124.143C92.1126 124.539 92.191 124.931 92.3433 125.297C92.4956 125.662 92.7188 125.994 93 126.273L99.87 133.145C100.155 133.418 100.492 133.632 100.86 133.775C101.59 134.075 102.41 134.075 103.14 133.775C103.508 133.632 103.845 133.418 104.13 133.145L111 126.393C111.581 125.812 111.907 125.024 111.907 124.203C111.907 123.381 111.581 122.593 111 122.012C110.419 121.431 109.631 121.105 108.81 121.105C107.989 121.105 107.201 121.431 106.62 122.012ZM102 104.007C103.78 104.007 105.52 103.48 107 102.49C108.48 101.501 109.634 100.095 110.315 98.4503C110.996 96.8053 111.174 94.9953 110.827 93.249C110.48 91.5027 109.623 89.8987 108.364 88.6397C107.105 87.3807 105.502 86.5233 103.756 86.176C102.01 85.8286 100.2 86.0069 98.5559 86.6883C96.9113 87.3696 95.5057 88.5235 94.5168 90.0039C93.5278 91.4843 93 93.2248 93 95.0052C93 97.3928 93.9482 99.6825 95.636 101.371C97.3239 103.059 99.6131 104.007 102 104.007ZM102 92.0045C102.593 92.0045 103.173 92.1805 103.667 92.5102C104.16 92.8399 104.545 93.3086 104.772 93.8569C104.999 94.4052 105.058 95.0086 104.942 95.5907C104.827 96.1727 104.541 96.7074 104.121 97.1271C103.702 97.5468 103.167 97.8325 102.585 97.9483C102.003 98.0641 101.4 98.0047 100.852 97.7776C100.304 97.5505 99.8352 97.1658 99.5056 96.6724C99.1759 96.1789 99 95.5987 99 95.0052C99 94.2094 99.3161 93.4461 99.8787 92.8834C100.441 92.3206 101.204 92.0045 102 92.0045ZM123 95.0052C123 94.4117 122.824 93.8316 122.494 93.3381C122.165 92.8446 121.696 92.46 121.148 92.2329C120.6 92.0058 119.997 91.9464 119.415 92.0622C118.833 92.1779 118.298 92.4637 117.879 92.8834C117.459 93.3031 117.173 93.8377 117.058 94.4198C116.942 95.0019 117.001 95.6053 117.228 96.1536C117.455 96.7019 117.84 97.1705 118.333 97.5003C118.827 97.83 119.407 98.006 120 98.006C120.796 98.006 121.559 97.6898 122.121 97.1271C122.684 96.5643 123 95.8011 123 95.0052ZM81 95.0052C81 95.5987 81.1759 96.1789 81.5056 96.6724C81.8352 97.1658 82.3038 97.5505 82.852 97.7776C83.4001 98.0047 84.0033 98.0641 84.5853 97.9483C85.1672 97.8325 85.7018 97.5468 86.1213 97.1271C86.5409 96.7074 86.8266 96.1727 86.9424 95.5907C87.0581 95.0086 86.9987 94.4052 86.7716 93.8569C86.5446 93.3086 86.1601 92.8399 85.6667 92.5102C85.1734 92.1805 84.5933 92.0045 84 92.0045C83.2044 92.0045 82.4413 92.3206 81.8787 92.8834C81.3161 93.4461 81 94.2094 81 95.0052ZM78 116.01H90C90.7956 116.01 91.5587 115.694 92.1213 115.132C92.6839 114.569 93 113.806 93 113.01C93 112.214 92.6839 111.451 92.1213 110.888C91.5587 110.325 90.7956 110.009 90 110.009H78C77.2044 110.009 76.4413 109.693 75.8787 109.13C75.3161 108.567 75 107.804 75 107.008V83.0022C75 82.2064 75.3161 81.4431 75.8787 80.8804C76.4413 80.3176 77.2044 80.0015 78 80.0015H126C126.796 80.0015 127.559 80.3176 128.121 80.8804C128.684 81.4431 129 82.2064 129 83.0022V107.008C129 107.804 128.684 108.567 128.121 109.13C127.559 109.693 126.796 110.009 126 110.009H114C113.204 110.009 112.441 110.325 111.879 110.888C111.316 111.451 111 112.214 111 113.01C111 113.806 111.316 114.569 111.879 115.132C112.441 115.694 113.204 116.01 114 116.01H126C128.387 116.01 130.676 115.062 132.364 113.374C134.052 111.686 135 109.396 135 107.008V83.0022C135 80.6147 134.052 78.3249 132.364 76.6367C130.676 74.9484 128.387 74 126 74H78C75.6131 74 73.3239 74.9484 71.636 76.6367C69.9482 78.3249 69 80.6147 69 83.0022V107.008C69 109.396 69.9482 111.686 71.636 113.374C73.3239 115.062 75.6131 116.01 78 116.01Z" fill="#F0F0F0"/>
<path d="M219.943 69.9355H210.886L210.837 65.4678H218.747C220.082 65.4678 221.213 65.2725 222.141 64.8818C223.085 64.4749 223.801 63.8971 224.289 63.1484C224.777 62.3835 225.021 61.4639 225.021 60.3896C225.021 59.2015 224.794 58.2331 224.338 57.4844C223.882 56.7357 223.182 56.1904 222.238 55.8486C221.311 55.5068 220.122 55.3359 218.674 55.3359H212.741V86H206.613V50.4531H218.674C220.627 50.4531 222.368 50.6403 223.898 51.0146C225.445 51.389 226.755 51.9749 227.829 52.7725C228.92 53.5537 229.742 54.5465 230.295 55.751C230.865 56.9554 231.149 58.3877 231.149 60.0479C231.149 61.5127 230.799 62.8555 230.1 64.0762C229.4 65.2806 228.366 66.2653 226.999 67.0303C225.632 67.7952 223.931 68.251 221.896 68.3975L219.943 69.9355ZM219.675 86H208.957L211.716 81.1416H219.675C221.058 81.1416 222.214 80.9137 223.142 80.458C224.069 79.986 224.761 79.3431 225.217 78.5293C225.689 77.6992 225.925 76.7308 225.925 75.624C225.925 74.4684 225.721 73.4674 225.314 72.6211C224.908 71.7585 224.265 71.0993 223.386 70.6436C222.507 70.1715 221.359 69.9355 219.943 69.9355H213.059L213.107 65.4678H222.067L223.459 67.1523C225.412 67.2174 227.015 67.6488 228.269 68.4463C229.538 69.2438 230.482 70.2773 231.101 71.5469C231.719 72.8164 232.028 74.1836 232.028 75.6484C232.028 77.9108 231.532 79.807 230.539 81.3369C229.562 82.8669 228.155 84.0306 226.315 84.8281C224.476 85.6094 222.263 86 219.675 86ZM241.989 67.9824H249.777C252.056 67.9824 253.993 68.3649 255.588 69.1299C257.183 69.8949 258.396 70.9609 259.226 72.3281C260.072 73.679 260.495 75.2253 260.495 76.9668C260.495 78.2526 260.259 79.4489 259.787 80.5557C259.315 81.6462 258.615 82.5983 257.688 83.4121C256.776 84.2259 255.653 84.8607 254.318 85.3164C253 85.7721 251.486 86 249.777 86H238.083V59.584H243.991V81.3369H249.777C250.949 81.3369 251.885 81.1335 252.585 80.7266C253.285 80.3197 253.789 79.7907 254.099 79.1396C254.424 78.4886 254.587 77.7969 254.587 77.0645C254.587 76.3158 254.424 75.6077 254.099 74.9404C253.789 74.2731 253.285 73.7279 252.585 73.3047C251.885 72.8815 250.949 72.6699 249.777 72.6699H241.989V67.9824ZM270.896 59.584V86H265.012V59.584H270.896ZM290.695 74.6963H282.248L282.199 70.5459H289.133C290.272 70.5459 291.208 70.432 291.94 70.2041C292.689 69.9762 293.243 69.6344 293.601 69.1787C293.959 68.7067 294.138 68.137 294.138 67.4697C294.138 66.9163 294.032 66.4362 293.82 66.0293C293.609 65.6061 293.283 65.2643 292.844 65.0039C292.421 64.7272 291.883 64.5319 291.232 64.418C290.598 64.2878 289.857 64.2227 289.011 64.2227H284.201V86H278.317V59.584H289.011C290.703 59.584 292.225 59.7305 293.576 60.0234C294.943 60.3164 296.107 60.764 297.067 61.3662C298.028 61.9684 298.76 62.7334 299.265 63.6611C299.785 64.5726 300.046 65.6468 300.046 66.8838C300.046 67.6976 299.867 68.4626 299.509 69.1787C299.167 69.8949 298.654 70.5296 297.971 71.083C297.287 71.6364 296.449 72.0921 295.456 72.4502C294.463 72.792 293.324 73.0036 292.038 73.085L290.695 74.6963ZM290.695 86H280.539L282.883 81.3613H290.695C291.737 81.3613 292.6 81.2311 293.283 80.9707C293.967 80.7103 294.471 80.3359 294.797 79.8477C295.139 79.3431 295.31 78.749 295.31 78.0654C295.31 77.3656 295.147 76.7633 294.821 76.2588C294.496 75.7542 293.991 75.3717 293.308 75.1113C292.64 74.8346 291.77 74.6963 290.695 74.6963H283.981L284.03 70.5459H292.014L293.698 72.1572C295.375 72.2712 296.766 72.6292 297.873 73.2314C298.98 73.8337 299.81 74.5905 300.363 75.502C300.917 76.4134 301.193 77.4062 301.193 78.4805C301.193 79.7174 300.957 80.8079 300.485 81.752C300.03 82.696 299.346 83.4854 298.435 84.1201C297.539 84.7386 296.441 85.2106 295.139 85.5361C293.837 85.8454 292.355 86 290.695 86ZM305.148 73.085V72.5234C305.148 70.6191 305.425 68.8532 305.979 67.2256C306.532 65.5817 307.329 64.1576 308.371 62.9531C309.429 61.7324 310.715 60.7884 312.229 60.1211C313.758 59.4375 315.484 59.0957 317.404 59.0957C319.341 59.0957 321.066 59.4375 322.58 60.1211C324.11 60.7884 325.404 61.7324 326.462 62.9531C327.52 64.1576 328.326 65.5817 328.879 67.2256C329.432 68.8532 329.709 70.6191 329.709 72.5234V73.085C329.709 74.9893 329.432 76.7552 328.879 78.3828C328.326 80.0104 327.52 81.4346 326.462 82.6553C325.404 83.8597 324.118 84.8037 322.604 85.4873C321.091 86.1546 319.374 86.4883 317.453 86.4883C315.516 86.4883 313.783 86.1546 312.253 85.4873C310.739 84.8037 309.453 83.8597 308.396 82.6553C307.338 81.4346 306.532 80.0104 305.979 78.3828C305.425 76.7552 305.148 74.9893 305.148 73.085ZM311.032 72.5234V73.085C311.032 74.2731 311.154 75.3962 311.398 76.4541C311.643 77.512 312.025 78.4398 312.546 79.2373C313.067 80.0348 313.734 80.6615 314.548 81.1172C315.362 81.5729 316.33 81.8008 317.453 81.8008C318.544 81.8008 319.488 81.5729 320.285 81.1172C321.099 80.6615 321.766 80.0348 322.287 79.2373C322.808 78.4398 323.19 77.512 323.435 76.4541C323.695 75.3962 323.825 74.2731 323.825 73.085V72.5234C323.825 71.3516 323.695 70.2448 323.435 69.2031C323.19 68.1452 322.8 67.2093 322.263 66.3955C321.742 65.5817 321.075 64.9469 320.261 64.4912C319.463 64.0192 318.511 63.7832 317.404 63.7832C316.298 63.7832 315.337 64.0192 314.523 64.4912C313.726 64.9469 313.067 65.5817 312.546 66.3955C312.025 67.2093 311.643 68.1452 311.398 69.2031C311.154 70.2448 311.032 71.3516 311.032 72.5234ZM337.668 59.584H343.552L343.259 68.8857C343.177 71.5876 342.868 73.9069 342.331 75.8438C341.794 77.7806 341.094 79.4163 340.231 80.751C339.369 82.0693 338.392 83.1517 337.302 83.998C336.228 84.8444 335.096 85.5117 333.908 86H332.175V81.3613L333.005 81.3125C333.705 80.5638 334.307 79.8151 334.812 79.0664C335.332 78.3014 335.772 77.4632 336.13 76.5518C336.488 75.624 336.765 74.5417 336.96 73.3047C337.172 72.0677 337.31 70.5947 337.375 68.8857L337.668 59.584ZM339.23 59.584H355.979V86H350.119V64.5645H339.23V59.584ZM330.832 81.3125H359.592V93.8613H353.708V86H336.789V93.8613H330.808L330.832 81.3125ZM387.033 81.8008C387.993 81.8008 388.856 81.6136 389.621 81.2393C390.402 80.8486 391.029 80.3115 391.501 79.6279C391.989 78.9443 392.258 78.1549 392.307 77.2598H397.849C397.816 78.9688 397.312 80.5231 396.335 81.9229C395.358 83.3226 394.064 84.4375 392.453 85.2676C390.842 86.0814 389.06 86.4883 387.106 86.4883C385.088 86.4883 383.33 86.1465 381.833 85.4629C380.336 84.763 379.09 83.8027 378.098 82.582C377.105 81.3613 376.356 79.9535 375.852 78.3584C375.363 76.7633 375.119 75.0544 375.119 73.2314V72.377C375.119 70.554 375.363 68.8451 375.852 67.25C376.356 65.6387 377.105 64.2227 378.098 63.002C379.09 61.7812 380.336 60.8291 381.833 60.1455C383.33 59.4456 385.08 59.0957 387.082 59.0957C389.198 59.0957 391.053 59.5189 392.648 60.3652C394.243 61.1953 395.497 62.359 396.408 63.8564C397.336 65.3376 397.816 67.0628 397.849 69.0322H392.307C392.258 68.0557 392.014 67.1768 391.574 66.3955C391.151 65.598 390.549 64.9632 389.768 64.4912C389.003 64.0192 388.083 63.7832 387.009 63.7832C385.821 63.7832 384.836 64.0273 384.055 64.5156C383.273 64.9876 382.663 65.6387 382.224 66.4688C381.784 67.2826 381.467 68.2021 381.271 69.2275C381.092 70.2367 381.003 71.2865 381.003 72.377V73.2314C381.003 74.3219 381.092 75.3799 381.271 76.4053C381.451 77.4307 381.76 78.3503 382.199 79.1641C382.655 79.9616 383.273 80.6045 384.055 81.0928C384.836 81.5648 385.829 81.8008 387.033 81.8008ZM408.273 64.6621V96.1562H402.39V59.584H407.81L408.273 64.6621ZM425.485 72.5479V73.0605C425.485 74.9811 425.257 76.7633 424.802 78.4072C424.362 80.0348 423.703 81.459 422.824 82.6797C421.962 83.8841 420.896 84.82 419.626 85.4873C418.356 86.1546 416.892 86.4883 415.231 86.4883C413.588 86.4883 412.147 86.1872 410.91 85.585C409.689 84.9665 408.656 84.0957 407.81 82.9727C406.963 81.8496 406.28 80.5312 405.759 79.0176C405.254 77.4876 404.896 75.8112 404.685 73.9883V72.0107C404.896 70.0739 405.254 68.3161 405.759 66.7373C406.28 65.1585 406.963 63.7995 407.81 62.6602C408.656 61.5208 409.689 60.6419 410.91 60.0234C412.131 59.4049 413.555 59.0957 415.183 59.0957C416.843 59.0957 418.316 59.4212 419.602 60.0723C420.887 60.707 421.97 61.6185 422.849 62.8066C423.728 63.9785 424.387 65.3945 424.826 67.0547C425.266 68.6986 425.485 70.5296 425.485 72.5479ZM419.602 73.0605V72.5479C419.602 71.3271 419.488 70.196 419.26 69.1543C419.032 68.0964 418.674 67.1686 418.186 66.3711C417.697 65.5736 417.071 64.9551 416.306 64.5156C415.557 64.0599 414.654 63.832 413.596 63.832C412.554 63.832 411.659 64.0111 410.91 64.3691C410.161 64.7109 409.535 65.1911 409.03 65.8096C408.526 66.4281 408.135 67.1523 407.858 67.9824C407.582 68.7962 407.386 69.6833 407.272 70.6436V75.3799C407.468 76.5518 407.801 77.626 408.273 78.6025C408.745 79.5791 409.413 80.3604 410.275 80.9463C411.154 81.516 412.277 81.8008 413.645 81.8008C414.702 81.8008 415.606 81.5729 416.354 81.1172C417.103 80.6615 417.714 80.0348 418.186 79.2373C418.674 78.4235 419.032 77.4876 419.26 76.4297C419.488 75.3717 419.602 74.2487 419.602 73.0605ZM442.136 86.4883C440.183 86.4883 438.417 86.1709 436.838 85.5361C435.275 84.8851 433.941 83.9818 432.834 82.8262C431.743 81.6706 430.905 80.3115 430.319 78.749C429.733 77.1865 429.44 75.502 429.44 73.6953V72.7188C429.44 70.6517 429.742 68.7799 430.344 67.1035C430.946 65.4271 431.784 63.9948 432.858 62.8066C433.933 61.6022 435.202 60.6826 436.667 60.0479C438.132 59.4131 439.719 59.0957 441.428 59.0957C443.316 59.0957 444.968 59.4131 446.384 60.0479C447.8 60.6826 448.972 61.5778 449.899 62.7334C450.843 63.8727 451.543 65.2318 451.999 66.8105C452.471 68.3893 452.707 70.1309 452.707 72.0352V74.5498H432.297V70.3262H446.896V69.8623C446.864 68.8044 446.652 67.8115 446.262 66.8838C445.887 65.9561 445.31 65.2074 444.528 64.6377C443.747 64.068 442.705 63.7832 441.403 63.7832C440.427 63.7832 439.556 63.9948 438.791 64.418C438.042 64.8249 437.416 65.4189 436.911 66.2002C436.407 66.9814 436.016 67.9255 435.739 69.0322C435.479 70.1227 435.349 71.3516 435.349 72.7188V73.6953C435.349 74.8509 435.503 75.9251 435.812 76.918C436.138 77.8945 436.61 78.749 437.229 79.4814C437.847 80.2139 438.596 80.7917 439.475 81.2148C440.354 81.6217 441.354 81.8252 442.478 81.8252C443.894 81.8252 445.155 81.5404 446.262 80.9707C447.368 80.401 448.329 79.5954 449.143 78.5537L452.243 81.5566C451.674 82.3867 450.933 83.1842 450.021 83.9492C449.11 84.6979 447.995 85.3083 446.677 85.7803C445.375 86.2523 443.861 86.4883 442.136 86.4883ZM462.082 59.584H467.966L467.673 68.8857C467.591 71.5876 467.282 73.9069 466.745 75.8438C466.208 77.7806 465.508 79.4163 464.646 80.751C463.783 82.0693 462.806 83.1517 461.716 83.998C460.642 84.8444 459.51 85.5117 458.322 86H456.589V81.3613L457.419 81.3125C458.119 80.5638 458.721 79.8151 459.226 79.0664C459.746 78.3014 460.186 77.4632 460.544 76.5518C460.902 75.624 461.179 74.5417 461.374 73.3047C461.586 72.0677 461.724 70.5947 461.789 68.8857L462.082 59.584ZM463.645 59.584H480.393V86H474.533V64.5645H463.645V59.584ZM455.246 81.3125H484.006V93.8613H478.122V86H461.203V93.8613H455.222L455.246 81.3125ZM498.996 81.8008C499.956 81.8008 500.819 81.6136 501.584 81.2393C502.365 80.8486 502.992 80.3115 503.464 79.6279C503.952 78.9443 504.221 78.1549 504.27 77.2598H509.812C509.779 78.9688 509.274 80.5231 508.298 81.9229C507.321 83.3226 506.027 84.4375 504.416 85.2676C502.805 86.0814 501.022 86.4883 499.069 86.4883C497.051 86.4883 495.293 86.1465 493.796 85.4629C492.299 84.763 491.053 83.8027 490.061 82.582C489.068 81.3613 488.319 79.9535 487.814 78.3584C487.326 76.7633 487.082 75.0544 487.082 73.2314V72.377C487.082 70.554 487.326 68.8451 487.814 67.25C488.319 65.6387 489.068 64.2227 490.061 63.002C491.053 61.7812 492.299 60.8291 493.796 60.1455C495.293 59.4456 497.043 59.0957 499.045 59.0957C501.161 59.0957 503.016 59.5189 504.611 60.3652C506.206 61.1953 507.46 62.359 508.371 63.8564C509.299 65.3376 509.779 67.0628 509.812 69.0322H504.27C504.221 68.0557 503.977 67.1768 503.537 66.3955C503.114 65.598 502.512 64.9632 501.73 64.4912C500.965 64.0192 500.046 63.7832 498.972 63.7832C497.784 63.7832 496.799 64.0273 496.018 64.5156C495.236 64.9876 494.626 65.6387 494.187 66.4688C493.747 67.2826 493.43 68.2021 493.234 69.2275C493.055 70.2367 492.966 71.2865 492.966 72.377V73.2314C492.966 74.3219 493.055 75.3799 493.234 76.4053C493.413 77.4307 493.723 78.3503 494.162 79.1641C494.618 79.9616 495.236 80.6045 496.018 81.0928C496.799 81.5648 497.792 81.8008 498.996 81.8008ZM526.584 59.584V86H520.676V59.584H526.584ZM535.251 59.584V64.2227H512.155V59.584H535.251ZM552.023 74.6963H543.576L543.527 70.5459H550.461C551.6 70.5459 552.536 70.432 553.269 70.2041C554.017 69.9762 554.571 69.6344 554.929 69.1787C555.287 68.7067 555.466 68.137 555.466 67.4697C555.466 66.9163 555.36 66.4362 555.148 66.0293C554.937 65.6061 554.611 65.2643 554.172 65.0039C553.749 64.7272 553.212 64.5319 552.561 64.418C551.926 64.2878 551.185 64.2227 550.339 64.2227H545.529V86H539.646V59.584H550.339C552.032 59.584 553.553 59.7305 554.904 60.0234C556.271 60.3164 557.435 60.764 558.396 61.3662C559.356 61.9684 560.088 62.7334 560.593 63.6611C561.114 64.5726 561.374 65.6468 561.374 66.8838C561.374 67.6976 561.195 68.4626 560.837 69.1787C560.495 69.8949 559.982 70.5296 559.299 71.083C558.615 71.6364 557.777 72.0921 556.784 72.4502C555.791 72.792 554.652 73.0036 553.366 73.085L552.023 74.6963ZM552.023 86H541.867L544.211 81.3613H552.023C553.065 81.3613 553.928 81.2311 554.611 80.9707C555.295 80.7103 555.799 80.3359 556.125 79.8477C556.467 79.3431 556.638 78.749 556.638 78.0654C556.638 77.3656 556.475 76.7633 556.149 76.2588C555.824 75.7542 555.319 75.3717 554.636 75.1113C553.968 74.8346 553.098 74.6963 552.023 74.6963H545.31L545.358 70.5459H553.342L555.026 72.1572C556.703 72.2712 558.094 72.6292 559.201 73.2314C560.308 73.8337 561.138 74.5905 561.691 75.502C562.245 76.4134 562.521 77.4062 562.521 78.4805C562.521 79.7174 562.285 80.8079 561.813 81.752C561.358 82.696 560.674 83.4854 559.763 84.1201C558.868 84.7386 557.769 85.2106 556.467 85.5361C555.165 85.8454 553.684 86 552.023 86Z" fill="#F0F0F0"/>
<path d="M227.121 111.984V139H222.482V115.695H210.478V139H205.839V111.984H227.121ZM231.426 129.185V128.758C231.426 127.311 231.636 125.968 232.057 124.731C232.477 123.482 233.083 122.4 233.875 121.484C234.679 120.557 235.656 119.839 236.807 119.332C237.969 118.812 239.281 118.553 240.74 118.553C242.212 118.553 243.523 118.812 244.674 119.332C245.837 119.839 246.82 120.557 247.624 121.484C248.428 122.4 249.04 123.482 249.461 124.731C249.882 125.968 250.092 127.311 250.092 128.758V129.185C250.092 130.632 249.882 131.974 249.461 133.211C249.04 134.448 248.428 135.53 247.624 136.458C246.82 137.373 245.843 138.091 244.692 138.61C243.542 139.118 242.237 139.371 240.777 139.371C239.305 139.371 237.988 139.118 236.825 138.61C235.675 138.091 234.698 137.373 233.894 136.458C233.09 135.53 232.477 134.448 232.057 133.211C231.636 131.974 231.426 130.632 231.426 129.185ZM235.897 128.758V129.185C235.897 130.088 235.99 130.941 236.176 131.745C236.361 132.549 236.652 133.254 237.048 133.86C237.444 134.466 237.951 134.943 238.569 135.289C239.188 135.635 239.924 135.809 240.777 135.809C241.606 135.809 242.324 135.635 242.93 135.289C243.548 134.943 244.055 134.466 244.451 133.86C244.847 133.254 245.138 132.549 245.323 131.745C245.521 130.941 245.62 130.088 245.62 129.185V128.758C245.62 127.867 245.521 127.026 245.323 126.234C245.138 125.43 244.841 124.719 244.433 124.101C244.037 123.482 243.53 123 242.911 122.653C242.305 122.295 241.581 122.115 240.74 122.115C239.899 122.115 239.169 122.295 238.551 122.653C237.945 123 237.444 123.482 237.048 124.101C236.652 124.719 236.361 125.43 236.176 126.234C235.99 127.026 235.897 127.867 235.897 128.758ZM267.032 118.924V122.486H257.235V118.924H267.032ZM270.539 118.924V139H266.067V118.924H270.539ZM256.141 118.924H260.557L260.019 128.851C259.944 130.323 259.796 131.621 259.573 132.747C259.363 133.86 259.078 134.819 258.72 135.623C258.361 136.415 257.922 137.058 257.402 137.553C256.883 138.048 256.277 138.412 255.584 138.647C254.891 138.882 254.112 139 253.246 139H251.854L251.836 135.326L252.541 135.271C252.999 135.233 253.395 135.116 253.729 134.918C254.062 134.708 254.347 134.411 254.582 134.027C254.829 133.644 255.027 133.149 255.176 132.543C255.337 131.937 255.46 131.219 255.547 130.391C255.646 129.562 255.72 128.597 255.77 127.496L256.141 118.924ZM281.115 136.811L286.57 118.924H291.357L283.305 142.062C283.119 142.556 282.878 143.094 282.581 143.676C282.284 144.257 281.895 144.808 281.412 145.327C280.942 145.859 280.354 146.286 279.649 146.607C278.944 146.941 278.091 147.108 277.089 147.108C276.693 147.108 276.31 147.071 275.938 146.997C275.58 146.935 275.24 146.867 274.918 146.793L274.899 143.379C275.023 143.391 275.172 143.404 275.345 143.416C275.53 143.428 275.679 143.435 275.79 143.435C276.532 143.435 277.151 143.342 277.646 143.156C278.14 142.983 278.542 142.699 278.852 142.303C279.173 141.907 279.445 141.375 279.668 140.707L281.115 136.811ZM278.035 118.924L282.804 133.953L283.602 138.666L280.503 139.464L273.211 118.924H278.035ZM310.042 118.924V139H305.57V118.924H310.042ZM308.149 127.812V131.355C307.605 131.59 306.993 131.807 306.312 132.005C305.645 132.19 304.939 132.345 304.197 132.469C303.455 132.58 302.707 132.636 301.952 132.636C300.183 132.636 298.656 132.364 297.369 131.819C296.095 131.275 295.112 130.44 294.419 129.314C293.739 128.176 293.398 126.735 293.398 124.991V118.905H297.852V124.991C297.852 125.993 298 126.791 298.297 127.385C298.606 127.979 299.064 128.405 299.67 128.665C300.276 128.925 301.037 129.055 301.952 129.055C302.719 129.055 303.443 129.005 304.123 128.906C304.803 128.795 305.478 128.646 306.146 128.461C306.813 128.275 307.481 128.059 308.149 127.812ZM323.661 139.371C322.177 139.371 320.835 139.13 319.635 138.647C318.447 138.153 317.433 137.466 316.592 136.588C315.763 135.71 315.126 134.677 314.681 133.489C314.235 132.302 314.013 131.021 314.013 129.648V128.906C314.013 127.335 314.242 125.913 314.699 124.639C315.157 123.365 315.794 122.276 316.61 121.373C317.427 120.458 318.392 119.759 319.505 119.276C320.618 118.794 321.824 118.553 323.123 118.553C324.558 118.553 325.813 118.794 326.89 119.276C327.966 119.759 328.856 120.439 329.562 121.317C330.279 122.183 330.811 123.216 331.157 124.416C331.516 125.616 331.695 126.939 331.695 128.387V130.298H316.184V127.088H327.279V126.735C327.255 125.931 327.094 125.177 326.797 124.472C326.512 123.767 326.073 123.198 325.479 122.765C324.886 122.332 324.094 122.115 323.104 122.115C322.362 122.115 321.701 122.276 321.119 122.598C320.55 122.907 320.074 123.358 319.69 123.952C319.307 124.546 319.01 125.263 318.8 126.104C318.602 126.933 318.503 127.867 318.503 128.906V129.648C318.503 130.527 318.62 131.343 318.855 132.098C319.103 132.84 319.462 133.489 319.932 134.046C320.402 134.603 320.971 135.042 321.639 135.363C322.307 135.673 323.067 135.827 323.921 135.827C324.997 135.827 325.956 135.611 326.797 135.178C327.638 134.745 328.368 134.132 328.986 133.341L331.343 135.623C330.91 136.254 330.347 136.86 329.654 137.441C328.962 138.01 328.114 138.474 327.112 138.833C326.123 139.192 324.972 139.371 323.661 139.371ZM348.896 127.311V130.836H338.505V127.311H348.896ZM339.804 118.924V139H335.332V118.924H339.804ZM352.124 118.924V139H347.652V118.924H352.124ZM361.513 132.469L369.398 118.924H373.87V139H369.398V125.437L361.513 139H357.041V118.924H361.513V132.469ZM387.452 139.371C385.968 139.371 384.626 139.13 383.426 138.647C382.238 138.153 381.224 137.466 380.383 136.588C379.554 135.71 378.917 134.677 378.472 133.489C378.026 132.302 377.804 131.021 377.804 129.648V128.906C377.804 127.335 378.033 125.913 378.49 124.639C378.948 123.365 379.585 122.276 380.401 121.373C381.218 120.458 382.183 119.759 383.296 119.276C384.409 118.794 385.615 118.553 386.914 118.553C388.349 118.553 389.604 118.794 390.681 119.276C391.757 119.759 392.647 120.439 393.353 121.317C394.07 122.183 394.602 123.216 394.948 124.416C395.307 125.616 395.486 126.939 395.486 128.387V130.298H379.975V127.088H391.07V126.735C391.046 125.931 390.885 125.177 390.588 124.472C390.303 123.767 389.864 123.198 389.271 122.765C388.677 122.332 387.885 122.115 386.896 122.115C386.153 122.115 385.492 122.276 384.91 122.598C384.341 122.907 383.865 123.358 383.481 123.952C383.098 124.546 382.801 125.263 382.591 126.104C382.393 126.933 382.294 127.867 382.294 128.906V129.648C382.294 130.527 382.411 131.343 382.646 132.098C382.894 132.84 383.253 133.489 383.723 134.046C384.193 134.603 384.762 135.042 385.43 135.363C386.098 135.673 386.858 135.827 387.712 135.827C388.788 135.827 389.747 135.611 390.588 135.178C391.429 134.745 392.159 134.132 392.777 133.341L395.134 135.623C394.701 136.254 394.138 136.86 393.445 137.441C392.753 138.01 391.905 138.474 390.903 138.833C389.914 139.192 388.763 139.371 387.452 139.371ZM424.562 118.924V139H420.09V118.924H424.562ZM422.669 127.812V131.355C422.125 131.59 421.512 131.807 420.832 132.005C420.164 132.19 419.459 132.345 418.717 132.469C417.975 132.58 417.226 132.636 416.472 132.636C414.703 132.636 413.175 132.364 411.889 131.819C410.615 131.275 409.631 130.44 408.938 129.314C408.258 128.176 407.918 126.735 407.918 124.991V118.905H412.371V124.991C412.371 125.993 412.52 126.791 412.816 127.385C413.126 127.979 413.583 128.405 414.189 128.665C414.796 128.925 415.556 129.055 416.472 129.055C417.239 129.055 417.962 129.005 418.643 128.906C419.323 128.795 419.997 128.646 420.665 128.461C421.333 128.275 422.001 128.059 422.669 127.812ZM438.181 139.371C436.696 139.371 435.354 139.13 434.154 138.647C432.967 138.153 431.952 137.466 431.111 136.588C430.283 135.71 429.646 134.677 429.2 133.489C428.755 132.302 428.532 131.021 428.532 129.648V128.906C428.532 127.335 428.761 125.913 429.219 124.639C429.676 123.365 430.313 122.276 431.13 121.373C431.946 120.458 432.911 119.759 434.024 119.276C435.138 118.794 436.344 118.553 437.643 118.553C439.077 118.553 440.333 118.794 441.409 119.276C442.485 119.759 443.376 120.439 444.081 121.317C444.799 122.183 445.33 123.216 445.677 124.416C446.035 125.616 446.215 126.939 446.215 128.387V130.298H430.703V127.088H441.799V126.735C441.774 125.931 441.613 125.177 441.316 124.472C441.032 123.767 440.593 123.198 439.999 122.765C439.405 122.332 438.614 122.115 437.624 122.115C436.882 122.115 436.22 122.276 435.639 122.598C435.07 122.907 434.593 123.358 434.21 123.952C433.826 124.546 433.53 125.263 433.319 126.104C433.121 126.933 433.022 127.867 433.022 128.906V129.648C433.022 130.527 433.14 131.343 433.375 132.098C433.622 132.84 433.981 133.489 434.451 134.046C434.921 134.603 435.49 135.042 436.158 135.363C436.826 135.673 437.587 135.827 438.44 135.827C439.517 135.827 440.475 135.611 441.316 135.178C442.158 134.745 442.887 134.132 443.506 133.341L445.862 135.623C445.429 136.254 444.867 136.86 444.174 137.441C443.481 138.01 442.634 138.474 441.632 138.833C440.642 139.192 439.492 139.371 438.181 139.371ZM454.527 118.924V139H450.056V118.924H454.527ZM467.627 118.924L458.591 131.003H453.488L452.895 126.958H456.624L462.042 118.924H467.627ZM462.395 139L456.346 130.242L459.871 127.7L468.276 139H462.395ZM482.025 134.974V125.399C482.025 124.682 481.896 124.063 481.636 123.544C481.376 123.024 480.98 122.622 480.448 122.338C479.929 122.053 479.273 121.911 478.481 121.911C477.752 121.911 477.121 122.035 476.589 122.282C476.057 122.53 475.643 122.864 475.346 123.284C475.049 123.705 474.9 124.181 474.9 124.713H470.447C470.447 123.921 470.639 123.154 471.022 122.412C471.406 121.67 471.963 121.008 472.692 120.427C473.422 119.845 474.294 119.388 475.309 119.054C476.323 118.72 477.461 118.553 478.723 118.553C480.232 118.553 481.568 118.806 482.73 119.313C483.906 119.821 484.827 120.588 485.495 121.614C486.175 122.629 486.516 123.903 486.516 125.437V134.361C486.516 135.277 486.577 136.099 486.701 136.829C486.837 137.547 487.029 138.171 487.276 138.703V139H482.693C482.483 138.518 482.316 137.905 482.192 137.163C482.081 136.409 482.025 135.679 482.025 134.974ZM482.675 126.791L482.712 129.556H479.502C478.673 129.556 477.943 129.636 477.312 129.797C476.682 129.945 476.156 130.168 475.735 130.465C475.315 130.762 474.999 131.12 474.789 131.541C474.579 131.962 474.474 132.438 474.474 132.97C474.474 133.502 474.597 133.99 474.845 134.436C475.092 134.868 475.451 135.209 475.921 135.456C476.403 135.703 476.985 135.827 477.665 135.827C478.58 135.827 479.378 135.642 480.059 135.271C480.751 134.887 481.296 134.423 481.691 133.879C482.087 133.322 482.298 132.797 482.322 132.302L483.77 134.287C483.621 134.794 483.368 135.339 483.009 135.92C482.65 136.501 482.18 137.058 481.599 137.59C481.03 138.109 480.343 138.536 479.539 138.87C478.747 139.204 477.832 139.371 476.793 139.371C475.482 139.371 474.313 139.111 473.286 138.592C472.259 138.06 471.455 137.349 470.874 136.458C470.293 135.555 470.002 134.535 470.002 133.396C470.002 132.333 470.2 131.393 470.596 130.576C471.004 129.747 471.598 129.055 472.377 128.498C473.169 127.941 474.133 127.521 475.271 127.236C476.41 126.939 477.708 126.791 479.168 126.791H482.675Z" fill="#A1A1A1"/>
<path fill-rule="evenodd" clip-rule="evenodd" d="M1086.86 97.0769L1068 113.576L1063.29 109.452L1079.79 95.0148L1063.29 80.5773L1068 76.4531L1086.86 92.9527C1087.48 93.4997 1087.83 94.2414 1087.83 95.0148C1087.83 95.7882 1087.48 96.5299 1086.86 97.0769Z" fill="#F0F0F0"/>
<defs>
<linearGradient id="paint0_linear_3188_8509" x1="0" y1="95" x2="1130" y2="95" gradientUnits="userSpaceOnUse">
<stop stop-color="#212121"/>
<stop offset="1" stop-color="#131313"/>
</linearGradient>
</defs>
</svg>
